<svg width="16" height="16" viewBox="0 0 16 16" fill="none" xmlns="http://www.w3.org/2000/svg">
<path d="M3.3875 11.825C4.025 11.3375 4.7375 10.953 5.525 10.6715C6.3125 10.3905 7.1375 10.25 8 10.25C8.8625 10.25 9.6875 10.3905 10.475 10.6715C11.2625 10.953 11.975 11.3375 12.6125 11.825C13.05 11.3125 13.3907 10.7312 13.6348 10.0812C13.8783 9.43125 14 8.7375 14 8C14 6.3375 13.4158 4.92175 12.2472 3.75275C11.0782 2.58425 9.6625 2 8 2C6.3375 2 4.922 2.58425 3.7535 3.75275C2.5845 4.92175 2 6.3375 2 8C2 8.7375 2.122 9.43125 2.366 10.0812C2.6095 10.7312 2.95 11.3125 3.3875 11.825ZM8 8.75C7.2625 8.75 6.6405 8.497 6.134 7.991C5.628 7.4845 5.375 6.8625 5.375 6.125C5.375 5.3875 5.628 4.7655 6.134 4.259C6.6405 3.753 7.2625 3.5 8 3.5C8.7375 3.5 9.3595 3.753 9.866 4.259C10.372 4.7655 10.625 5.3875 10.625 6.125C10.625 6.8625 10.372 7.4845 9.866 7.991C9.3595 8.497 8.7375 8.75 8 8.75ZM8 15.5C6.9625 15.5 5.9875 15.303 5.075 14.909C4.1625 14.5155 3.36875 13.9813 2.69375 13.3063C2.01875 12.6313 1.4845 11.8375 1.091 10.925C0.697 10.0125 0.5 9.0375 0.5 8C0.5 6.9625 0.697 5.9875 1.091 5.075C1.4845 4.1625 2.01875 3.36875 2.69375 2.69375C3.36875 2.01875 4.1625 1.48425 5.075 1.09025C5.9875 0.69675 6.9625 0.5 8 0.5C9.0375 0.5 10.0125 0.69675 10.925 1.09025C11.8375 1.48425 12.6313 2.01875 13.3063 2.69375C13.9813 3.36875 14.5155 4.1625 14.909 5.075C15.303 5.9875 15.5 6.9625 15.5 8C15.5 9.0375 15.303 10.0125 14.909 10.925C14.5155 11.8375 13.9813 12.6313 13.3063 13.3063C12.6313 13.9813 11.8375 14.5155 10.925 14.909C10.0125 15.303 9.0375 15.5 8 15.5ZM8 14C8.6625 14 9.2875 13.9033 9.875 13.7098C10.4625 13.5158 11 13.2375 11.4875 12.875C11 12.5125 10.4625 12.2342 9.875 12.0402C9.2875 11.8467 8.6625 11.75 8 11.75C7.3375 11.75 6.7125 11.8467 6.125 12.0402C5.5375 12.2342 5 12.5125 4.5125 12.875C5 13.2375 5.5375 13.5158 6.125 13.7098C6.7125 13.9033 7.3375 14 8 14ZM8 7.25C8.325 7.25 8.59375 7.14375 8.80625 6.93125C9.01875 6.71875 9.125 6.45 9.125 6.125C9.125 5.8 9.01875 5.53125 8.80625 5.31875C8.59375 5.10625 8.325 5 8 5C7.675 5 7.40625 5.10625 7.19375 5.31875C6.98125 5.53125 6.875 5.8 6.875 6.125C6.875 6.45 6.98125 6.71875 7.19375 6.93125C7.40625 7.14375 7.675 7.25 8 7.25Z" fill="white"/>
</svg>
