<svg width="8" height="5" viewBox="0 0 8 5" fill="none" xmlns="http://www.w3.org/2000/svg">
<path d="M3.92544 4.85687C3.83281 4.85687 3.74596 4.84229 3.66491 4.81311C3.58385 4.78439 3.50859 4.73529 3.43911 4.66582L0.22589 1.45259C0.0985185 1.32522 0.0378435 1.16589 0.0438647 0.974606C0.0494227 0.783781 0.115887 0.624683 0.243258 0.497312C0.370629 0.369941 0.532738 0.306255 0.729584 0.306255C0.92643 0.306255 1.08854 0.369941 1.21591 0.497312L3.92544 3.20684L6.65234 0.479943C6.77971 0.352572 6.93904 0.291666 7.13033 0.297224C7.32115 0.303245 7.48025 0.369941 7.60762 0.497312C7.73499 0.624683 7.79868 0.786792 7.79868 0.983638C7.79868 1.18048 7.73499 1.34259 7.60762 1.46996L4.41177 4.66582C4.34229 4.73529 4.26703 4.78439 4.18597 4.81311C4.10492 4.84229 4.01807 4.85687 3.92544 4.85687Z" fill="white"/>
</svg>
