<svg width="18" height="19" viewBox="0 0 18 19" fill="none" xmlns="http://www.w3.org/2000/svg">
<path d="M13.5 1.91621H17.1C17.3387 1.91621 17.5676 2.01103 17.7364 2.17981C17.9052 2.3486 18 2.57752 18 2.81621V17.2162C18 17.4549 17.9052 17.6838 17.7364 17.8526C17.5676 18.0214 17.3387 18.1162 17.1 18.1162H0.9C0.661305 18.1162 0.432387 18.0214 0.263604 17.8526C0.0948211 17.6838 0 17.4549 0 17.2162V2.81621C0 2.57752 0.0948211 2.3486 0.263604 2.17981C0.432387 2.01103 0.661305 1.91621 0.9 1.91621H4.5V0.116211H6.3V1.91621H11.7V0.116211H13.5V1.91621ZM16.2 9.11621H1.8V16.3162H16.2V9.11621ZM11.7 3.71621H6.3V5.51621H4.5V3.71621H1.8V7.31621H16.2V3.71621H13.5V5.51621H11.7V3.71621ZM3.6 10.9162H5.4V12.7162H3.6V10.9162ZM8.1 10.9162H9.9V12.7162H8.1V10.9162ZM12.6 10.9162H14.4V12.7162H12.6V10.9162Z" fill="#666666"/>
</svg>
