<svg width="12" height="14" viewBox="0 0 12 14" fill="none" xmlns="http://www.w3.org/2000/svg">
<path d="M2.25 13.75C1.8375 13.75 1.4845 13.6033 1.191 13.3097C0.897 13.0157 0.75 12.6625 0.75 12.25V2.5C0.5375 2.5 0.35925 2.42825 0.21525 2.28475C0.0717501 2.14075 0 1.9625 0 1.75C0 1.5375 0.0717501 1.35925 0.21525 1.21525C0.35925 1.07175 0.5375 1 0.75 1H3.75C3.75 0.7875 3.822 0.60925 3.966 0.46525C4.1095 0.32175 4.2875 0.25 4.5 0.25H7.5C7.7125 0.25 7.89075 0.32175 8.03475 0.46525C8.17825 0.60925 8.25 0.7875 8.25 1H11.25C11.4625 1 11.6405 1.07175 11.784 1.21525C11.928 1.35925 12 1.5375 12 1.75C12 1.9625 11.928 2.14075 11.784 2.28475C11.6405 2.42825 11.4625 2.5 11.25 2.5V12.25C11.25 12.6625 11.1033 13.0157 10.8097 13.3097C10.5157 13.6033 10.1625 13.75 9.75 13.75H2.25ZM2.25 2.5V12.25H9.75V2.5H2.25ZM3.75 10C3.75 10.2125 3.822 10.3905 3.966 10.534C4.1095 10.678 4.2875 10.75 4.5 10.75C4.7125 10.75 4.89075 10.678 5.03475 10.534C5.17825 10.3905 5.25 10.2125 5.25 10V4.75C5.25 4.5375 5.17825 4.35925 5.03475 4.21525C4.89075 4.07175 4.7125 4 4.5 4C4.2875 4 4.1095 4.07175 3.966 4.21525C3.822 4.35925 3.75 4.5375 3.75 4.75V10ZM6.75 10C6.75 10.2125 6.822 10.3905 6.966 10.534C7.1095 10.678 7.2875 10.75 7.5 10.75C7.7125 10.75 7.89075 10.678 8.03475 10.534C8.17825 10.3905 8.25 10.2125 8.25 10V4.75C8.25 4.5375 8.17825 4.35925 8.03475 4.21525C7.89075 4.07175 7.7125 4 7.5 4C7.2875 4 7.1095 4.07175 6.966 4.21525C6.822 4.35925 6.75 4.5375 6.75 4.75V10Z" fill="#121212"/>
</svg>
