<svg width="21" height="21" viewBox="0 0 21 21" fill="none" xmlns="http://www.w3.org/2000/svg">
<path fill-rule="evenodd" clip-rule="evenodd" d="M2.96134 0.0006512H17.1413V0.0106512C18.3363 -0.0101448 19.4217 0.704275 19.875 1.81009C20.3284 2.9159 20.057 4.1866 19.1913 5.01065L14.4213 9.78065C13.8904 10.3125 13.5858 11.0292 13.5713 11.7807V16.1807C13.5698 17.0931 13.1403 17.9519 12.4113 18.5007L11.1713 19.4307C10.2944 20.0979 9.11441 20.2085 8.12883 19.7157C7.14325 19.2229 6.52367 18.2125 6.53134 17.1107V11.7807C6.51691 11.0292 6.21231 10.3125 5.68134 9.78065L0.911344 5.01065C0.0380988 4.18783 -0.238276 2.91222 0.216105 1.80176C0.670485 0.691299 1.76178 -0.0246854 2.96134 0.0006512ZM18.4413 2.37065C18.2255 1.84303 17.7114 1.49894 17.1413 1.50065H2.96134C2.3913 1.49894 1.87714 1.84303 1.66134 2.37065C1.43857 2.89571 1.56176 3.50372 1.97134 3.90065L6.76134 8.67065C7.59042 9.49277 8.05511 10.6131 8.05134 11.7807V17.1107C8.046 17.4793 8.18735 17.835 8.44428 18.0994C8.70121 18.3639 9.05268 18.5154 9.42134 18.5207C9.72262 18.5193 10.0148 18.4172 10.2513 18.2307L11.4913 17.3007C11.8439 17.0363 12.0513 16.6213 12.0513 16.1807V11.7807C12.0529 10.6102 12.5249 9.48945 13.3613 8.67065L18.1313 3.90065C18.5409 3.50372 18.6641 2.89571 18.4413 2.37065Z" fill="#003366"/>
</svg>
