<svg width="18" height="18" viewBox="0 0 18 18" fill="none" xmlns="http://www.w3.org/2000/svg">
<mask id="mask0_93_251" style="mask-type:alpha" maskUnits="userSpaceOnUse" x="0" y="0" width="18" height="18">
<rect width="18" height="18" fill="#C4C4C4"/>
</mask>
<g mask="url(#mask0_93_251)">
<path d="M7.93125 10.6125L6.16875 8.85C6.06875 8.75 5.94075 8.70325 5.78475 8.70975C5.62825 8.71575 5.5 8.76875 5.4 8.86875C5.2875 8.98125 5.23125 9.1125 5.23125 9.2625C5.23125 9.4125 5.2875 9.54375 5.4 9.65625L7.4625 11.7188C7.5875 11.8438 7.74375 11.9062 7.93125 11.9062C8.11875 11.9062 8.28125 11.8438 8.41875 11.7188L12.6 7.51875C12.7 7.41875 12.747 7.2905 12.741 7.134C12.7345 6.978 12.6812 6.85 12.5812 6.75C12.4688 6.6375 12.3375 6.58125 12.1875 6.58125C12.0375 6.58125 11.9062 6.6375 11.7938 6.75L7.93125 10.6125ZM9 16.125C8.0125 16.125 7.0845 15.9375 6.216 15.5625C5.347 15.1875 4.59375 14.6813 3.95625 14.0438C3.31875 13.4062 2.8125 12.653 2.4375 11.784C2.0625 10.9155 1.875 9.9875 1.875 9C1.875 8.0125 2.0625 7.08425 2.4375 6.21525C2.8125 5.34675 3.31875 4.59375 3.95625 3.95625C4.59375 3.31875 5.347 2.8125 6.216 2.4375C7.0845 2.0625 8.0125 1.875 9 1.875C9.9875 1.875 10.9158 2.0625 11.7847 2.4375C12.6532 2.8125 13.4062 3.31875 14.0438 3.95625C14.6813 4.59375 15.1875 5.34675 15.5625 6.21525C15.9375 7.08425 16.125 8.0125 16.125 9C16.125 9.9875 15.9375 10.9155 15.5625 11.784C15.1875 12.653 14.6813 13.4062 14.0438 14.0438C13.4062 14.6813 12.6532 15.1875 11.7847 15.5625C10.9158 15.9375 9.9875 16.125 9 16.125ZM9 15C10.6625 15 12.0782 14.4158 13.2472 13.2472C14.4158 12.0782 15 10.6625 15 9C15 7.3375 14.4158 5.92175 13.2472 4.75275C12.0782 3.58425 10.6625 3 9 3C7.3375 3 5.922 3.58425 4.7535 4.75275C3.5845 5.92175 3 7.3375 3 9C3 10.6625 3.5845 12.0782 4.7535 13.2472C5.922 14.4158 7.3375 15 9 15Z" fill="#009606"/>
</g>
</svg>
