<svg class="left_last" width="20" height="20" viewBox="0 0 20 20" fill="none" xmlns="http://www.w3.org/2000/svg">
<g opacity="0.5">
<path d="M13.8542 14.4792L9.875 10.5C9.80556 10.4306 9.75694 10.3611 9.72917 10.2917C9.70139 10.2222 9.6875 10.1458 9.6875 10.0625C9.6875 9.97917 9.70139 9.90278 9.72917 9.83333C9.75694 9.76389 9.80556 9.69444 9.875 9.625L13.875 5.625C14 5.5 14.1493 5.4375 14.3229 5.4375C14.4965 5.4375 14.6458 5.5 14.7708 5.625C14.8958 5.75 14.9583 5.89931 14.9583 6.07292C14.9583 6.24653 14.8958 6.39583 14.7708 6.52083L11.2292 10.0625L14.7708 13.6042C14.8958 13.7292 14.9583 13.875 14.9583 14.0417C14.9583 14.2083 14.8958 14.3542 14.7708 14.4792C14.6458 14.6042 14.4931 14.6667 14.3125 14.6667C14.1319 14.6667 13.9792 14.6042 13.8542 14.4792ZM5.625 15C5.44444 15 5.29514 14.941 5.17708 14.8229C5.05903 14.7049 5 14.5556 5 14.375V5.625C5 5.44444 5.05903 5.29514 5.17708 5.17708C5.29514 5.05903 5.44444 5 5.625 5C5.80556 5 5.95486 5.05903 6.07292 5.17708C6.19097 5.29514 6.25 5.44444 6.25 5.625V14.375C6.25 14.5556 6.19097 14.7049 6.07292 14.8229C5.95486 14.941 5.80556 15 5.625 15Z" fill="#2B2B2B"/>
</g>
</svg>
