<svg width="1440" height="128" viewBox="0 0 1440 128" fill="none" xmlns="http://www.w3.org/2000/svg">
<g clip-path="url(#clip0_93_175)">
<rect width="1440" height="128" fill="#15203E"/>
<mask id="mask0_93_175" style="mask-type:alpha" maskUnits="userSpaceOnUse" x="0" y="0" width="1440" height="128">
<rect width="1440" height="128" fill="#15203E"/>
</mask>
<g mask="url(#mask0_93_175)">
<g opacity="0.1">
<mask id="mask1_93_175" style="mask-type:alpha" maskUnits="userSpaceOnUse" x="1333" y="38" width="102" height="102">
<rect x="1333" y="38" width="102" height="102" fill="#C4C4C4"/>
</mask>
<g mask="url(#mask1_93_175)">
<path d="M1384 122.469C1382.44 122.469 1381.1 122.025 1379.96 121.139C1378.83 120.255 1378.16 119.069 1377.94 117.581H1375.5C1374.37 117.581 1373.38 117.156 1372.53 116.306C1371.68 115.456 1371.25 114.465 1371.25 113.331V100.581C1366.86 98.1729 1363.46 94.8608 1361.05 90.6447C1358.64 86.4316 1357.44 81.9875 1357.44 77.3125C1357.44 69.875 1360 63.5878 1365.14 58.451C1370.28 53.317 1376.56 50.75 1384 50.75C1391.44 50.75 1397.72 53.317 1402.86 58.451C1408 63.5878 1410.56 69.875 1410.56 77.3125C1410.56 81.9875 1409.36 86.4316 1406.95 90.6447C1404.54 94.8608 1401.14 98.1729 1396.75 100.581V113.331C1396.75 114.465 1396.33 115.456 1395.47 116.306C1394.62 117.156 1393.63 117.581 1392.5 117.581H1390.06C1389.84 119.069 1389.17 120.255 1388.04 121.139C1386.9 122.025 1385.56 122.469 1384 122.469ZM1375.5 113.331H1392.5V109.188H1375.5V113.331ZM1375.5 106H1392.5V101.75H1375.5V106ZM1374.65 97.5H1382.09V84.2188L1374.44 76.5687C1374.15 76.2146 1374.01 75.8066 1374.01 75.3447C1374.01 74.8857 1374.19 74.4438 1374.54 74.0188C1374.97 73.5938 1375.43 73.3812 1375.93 73.3812C1376.42 73.3812 1376.88 73.5938 1377.31 74.0188L1384 80.8187L1390.8 73.9125C1391.15 73.5583 1391.58 73.3812 1392.07 73.3812C1392.57 73.3812 1393.03 73.5938 1393.46 74.0188C1393.81 74.4438 1393.99 74.8857 1393.99 75.3447C1393.99 75.8066 1393.81 76.25 1393.46 76.675L1385.91 84.2188V97.5H1393.35C1397.17 95.6583 1400.29 92.9482 1402.7 89.3698C1405.11 85.7941 1406.31 81.775 1406.31 77.3125C1406.31 71.0792 1404.15 65.8021 1399.83 61.4813C1395.51 57.1604 1390.23 55 1384 55C1377.77 55 1372.49 57.1604 1368.17 61.4813C1363.85 65.8021 1361.69 71.0792 1361.69 77.3125C1361.69 81.775 1362.89 85.7941 1365.3 89.3698C1367.71 92.9482 1370.83 95.6583 1374.65 97.5Z" fill="#86C2FF"/>
</g>
</g>
</g>
<g opacity="0.08">
<path d="M0 131.671L298.985 -42.7374C339.624 -66.4433 389.876 -66.4433 430.515 -42.7374L729.5 131.671L1028.49 306.079C1069.12 329.785 1119.38 329.785 1160.01 306.079L1459 131.671" stroke="white" stroke-width="2.46923" stroke-linecap="round" stroke-linejoin="round"/>
<path d="M0 58.7208L298.985 -115.687C339.624 -139.393 389.876 -139.393 430.515 -115.687L729.5 58.7208L1028.49 233.129C1069.12 256.835 1119.38 256.835 1160.01 233.129L1459 58.7208" stroke="white" stroke-width="2.46923" stroke-linecap="round" stroke-linejoin="round"/>
<path d="M0 -14.2292L298.985 -188.637C339.624 -212.343 389.876 -212.343 430.515 -188.637L729.5 -14.2292L1028.49 160.179C1069.12 183.885 1119.38 183.885 1160.01 160.179L1459 -14.2292" stroke="white" stroke-width="2.46923" stroke-linecap="round" stroke-linejoin="round"/>
<path d="M0 204.621L298.985 30.2127C339.624 6.50678 389.876 6.50679 430.515 30.2127L729.5 204.621L1028.49 379.029C1069.12 402.735 1119.38 402.735 1160.01 379.029L1459 204.621" stroke="white" stroke-width="2.46923" stroke-linecap="round" stroke-linejoin="round"/>
<path d="M0 277.571L298.985 103.163C339.624 79.4567 389.876 79.4567 430.515 103.163L729.5 277.571L1028.49 451.979C1069.12 475.685 1119.38 475.685 1160.01 451.979L1459 277.571" stroke="white" stroke-width="2.46923" stroke-linecap="round" stroke-linejoin="round"/>
</g>
</g>
<defs>
<clipPath id="clip0_93_175">
<rect width="1440" height="128" fill="white"/>
</clipPath>
</defs>
</svg>
