<svg width="20" height="20" viewBox="0 0 20 20" fill="none" xmlns="http://www.w3.org/2000/svg">
<path d="M6.14583 14.4792L10.125 10.5C10.1944 10.4306 10.2431 10.3611 10.2708 10.2917C10.2986 10.2222 10.3125 10.1458 10.3125 10.0625C10.3125 9.97917 10.2986 9.90278 10.2708 9.83333C10.2431 9.76389 10.1944 9.69444 10.125 9.625L6.125 5.625C6 5.5 5.85069 5.4375 5.67708 5.4375C5.50347 5.4375 5.35417 5.5 5.22917 5.625C5.10417 5.75 5.04167 5.89931 5.04167 6.07292C5.04167 6.24653 5.10417 6.39583 5.22917 6.52083L8.77083 10.0625L5.22917 13.6042C5.10417 13.7292 5.04167 13.875 5.04167 14.0417C5.04167 14.2083 5.10417 14.3542 5.22917 14.4792C5.35417 14.6042 5.50695 14.6667 5.6875 14.6667C5.86806 14.6667 6.02083 14.6042 6.14583 14.4792ZM14.375 15C14.5556 15 14.7049 14.941 14.8229 14.8229C14.941 14.7049 15 14.5556 15 14.375V5.625C15 5.44444 14.941 5.29514 14.8229 5.17708C14.7049 5.05903 14.5556 5 14.375 5C14.1944 5 14.0451 5.05903 13.9271 5.17708C13.809 5.29514 13.75 5.44444 13.75 5.625V14.375C13.75 14.5556 13.809 14.7049 13.9271 14.8229C14.0451 14.941 14.1944 15 14.375 15Z" fill="#2B2B2B"/>
</svg>
