<svg width="24" height="24" viewBox="0 0 24 24" fill="none" xmlns="http://www.w3.org/2000/svg">
<mask id="mask0_200_1067" style="mask-type:alpha" maskUnits="userSpaceOnUse" x="0" y="0" width="24" height="24">
<rect width="24" height="24" fill="#D9D9D9"/>
</mask>
<g mask="url(#mask0_200_1067)">
<path d="M12 14.65C11.8834 14.65 11.771 14.6333 11.663 14.6C11.5544 14.5667 11.4584 14.5 11.375 14.4L6.85002 9.89999C6.71669 9.74999 6.65002 9.57499 6.65002 9.37499C6.65002 9.17499 6.72502 8.99999 6.87502 8.84999C7.02502 8.71666 7.20002 8.64999 7.40002 8.64999C7.60002 8.64999 7.77502 8.71666 7.92502 8.84999L12 12.925L16.1 8.84999C16.2334 8.69999 16.4 8.62899 16.6 8.63699C16.8 8.64566 16.975 8.71666 17.125 8.84999C17.275 8.99999 17.35 9.17899 17.35 9.38699C17.35 9.59566 17.275 9.76666 17.125 9.89999L12.625 14.4C12.5417 14.5 12.446 14.5667 12.338 14.6C12.2294 14.6333 12.1167 14.65 12 14.65Z" fill="#121212"/>
</g>
</svg>
