<svg width="18" height="18" viewBox="0 0 18 18" fill="none" xmlns="http://www.w3.org/2000/svg">
<mask id="mask0_93_288" style="mask-type:alpha" maskUnits="userSpaceOnUse" x="0" y="0" width="18" height="18">
<rect width="18" height="18" fill="#C4C4C4"/>
</mask>
<g mask="url(#mask0_93_288)">
<path d="M3.975 15.375C3.6 15.375 3.28125 15.2438 3.01875 14.9813C2.75625 14.7188 2.625 14.4 2.625 14.025V3.975C2.625 3.6 2.75625 3.28125 3.01875 3.01875C3.28125 2.75625 3.6 2.625 3.975 2.625H7.21875C7.29375 2.225 7.4875 1.875 7.8 1.575C8.1125 1.275 8.5125 1.125 9 1.125C9.4875 1.125 9.89075 1.278 10.2098 1.584C10.5282 1.8905 10.7188 2.2375 10.7812 2.625H14.025C14.4 2.625 14.7188 2.75625 14.9813 3.01875C15.2438 3.28125 15.375 3.6 15.375 3.975V7.7625H14.25V3.975C14.25 3.9125 14.2283 3.8595 14.1847 3.816C14.1407 3.772 14.0875 3.75 14.025 3.75H12.375V4.35C12.375 4.725 12.2438 5.047 11.9813 5.316C11.7188 5.5845 11.4 5.71875 11.025 5.71875H6.975C6.6 5.71875 6.28125 5.5845 6.01875 5.316C5.75625 5.047 5.625 4.725 5.625 4.35V3.75H3.975C3.9125 3.75 3.8595 3.772 3.816 3.816C3.772 3.8595 3.75 3.9125 3.75 3.975V14.025C3.75 14.0875 3.772 14.1407 3.816 14.1847C3.8595 14.2283 3.9125 14.25 3.975 14.25H7.7625V15.375H3.975ZM9 3.75C9.2125 3.75 9.39075 3.678 9.53475 3.534C9.67825 3.3905 9.75 3.2125 9.75 3C9.75 2.7875 9.67825 2.60925 9.53475 2.46525C9.39075 2.32175 9.2125 2.25 9 2.25C8.7875 2.25 8.6095 2.32175 8.466 2.46525C8.322 2.60925 8.25 2.7875 8.25 3C8.25 3.2125 8.322 3.3905 8.466 3.534C8.6095 3.678 8.7875 3.75 9 3.75ZM15.4688 16.2562L13.8937 14.7C13.6312 14.8625 13.3655 14.9875 13.0965 15.075C12.828 15.1625 12.5375 15.2062 12.225 15.2062C11.4 15.2062 10.7 14.9155 10.125 14.334C9.55 13.753 9.2625 13.05 9.2625 12.225C9.2625 11.4 9.55 10.7 10.125 10.125C10.7 9.55 11.4 9.2625 12.225 9.2625C13.05 9.2625 13.7533 9.55 14.3348 10.125C14.9158 10.7 15.2062 11.4 15.2062 12.225C15.2062 12.55 15.1563 12.8562 15.0563 13.1437C14.9563 13.4312 14.8375 13.6812 14.7 13.8937L16.2562 15.4688C16.3687 15.5813 16.425 15.7157 16.425 15.8722C16.425 16.0282 16.3687 16.1562 16.2562 16.2562C16.1562 16.3687 16.0282 16.425 15.8722 16.425C15.7157 16.425 15.5813 16.3687 15.4688 16.2562ZM12.225 14.0812C12.75 14.0812 13.1905 13.903 13.5465 13.5465C13.903 13.1905 14.0812 12.75 14.0812 12.225C14.0812 11.7125 13.903 11.278 13.5465 10.9215C13.1905 10.5655 12.75 10.3875 12.225 10.3875C11.7125 10.3875 11.278 10.5655 10.9215 10.9215C10.5655 11.278 10.3875 11.7125 10.3875 12.225C10.3875 12.75 10.5655 13.1905 10.9215 13.5465C11.278 13.903 11.7125 14.0812 12.225 14.0812Z" fill="#9A6F00"/>
</g>
</svg>
