<svg width="12" height="8" viewBox="0 0 12 8" fill="none" xmlns="http://www.w3.org/2000/svg">
<path d="M6.0001 5.7875C6.56676 5.7875 7.04793 5.5895 7.4436 5.1935C7.8396 4.79783 8.0376 4.31667 8.0376 3.75C8.0376 3.18333 7.8396 2.70217 7.4436 2.3065C7.04793 1.9105 6.56676 1.7125 6.0001 1.7125C5.43343 1.7125 4.95226 1.9105 4.5566 2.3065C4.1606 2.70217 3.9626 3.18333 3.9626 3.75C3.9626 4.31667 4.1606 4.79783 4.5566 5.1935C4.95226 5.5895 5.43343 5.7875 6.0001 5.7875ZM6.0001 5.1C5.6251 5.1 5.30643 4.96867 5.0441 4.706C4.78143 4.44367 4.6501 4.125 4.6501 3.75C4.6501 3.375 4.78143 3.05617 5.0441 2.7935C5.30643 2.53117 5.6251 2.4 6.0001 2.4C6.3751 2.4 6.69393 2.53117 6.9566 2.7935C7.21893 3.05617 7.3501 3.375 7.3501 3.75C7.3501 4.125 7.21893 4.44367 6.9566 4.706C6.69393 4.96867 6.3751 5.1 6.0001 5.1ZM6.0001 7.25C4.90843 7.25 3.90626 6.9625 2.9936 6.3875C2.08126 5.8125 1.38343 5.03333 0.900098 4.05C0.883431 4.01667 0.870931 3.97283 0.862598 3.9185C0.854264 3.8645 0.850098 3.80833 0.850098 3.75C0.850098 3.69167 0.854264 3.63533 0.862598 3.581C0.870931 3.527 0.883431 3.48333 0.900098 3.45C1.38343 2.46667 2.08126 1.6875 2.9936 1.1125C3.90626 0.5375 4.90843 0.25 6.0001 0.25C7.09176 0.25 8.09376 0.5375 9.0061 1.1125C9.91876 1.6875 10.6168 2.46667 11.1001 3.45C11.1168 3.48333 11.1293 3.527 11.1376 3.581C11.1459 3.63533 11.1501 3.69167 11.1501 3.75C11.1501 3.80833 11.1459 3.8645 11.1376 3.9185C11.1293 3.97283 11.1168 4.01667 11.1001 4.05C10.6168 5.03333 9.91876 5.8125 9.0061 6.3875C8.09376 6.9625 7.09176 7.25 6.0001 7.25ZM6.0001 6.5C6.94176 6.5 7.80643 6.252 8.5941 5.756C9.38143 5.26033 9.98343 4.59167 10.4001 3.75C9.98343 2.90833 9.38143 2.2395 8.5941 1.7435C7.80643 1.24783 6.94176 1 6.0001 1C5.05843 1 4.19376 1.24783 3.4061 1.7435C2.61876 2.2395 2.01676 2.90833 1.6001 3.75C2.01676 4.59167 2.61876 5.26033 3.4061 5.756C4.19376 6.252 5.05843 6.5 6.0001 6.5Z" fill="#EE1C25"/>
</svg>
