<svg width="12" height="12" viewBox="0 0 12 12" fill="none" xmlns="http://www.w3.org/2000/svg">
<mask id="mask0_104_86" style="mask-type:alpha" maskUnits="userSpaceOnUse" x="0" y="0" width="12" height="12">
<rect width="12" height="12" fill="#D9D9D9"/>
</mask>
<g mask="url(#mask0_104_86)">
<path d="M6.0001 7.7875C6.56676 7.7875 7.04793 7.5895 7.4436 7.1935C7.8396 6.79783 8.0376 6.31667 8.0376 5.75C8.0376 5.18333 7.8396 4.70217 7.4436 4.3065C7.04793 3.9105 6.56676 3.7125 6.0001 3.7125C5.43343 3.7125 4.95226 3.9105 4.5566 4.3065C4.1606 4.70217 3.9626 5.18333 3.9626 5.75C3.9626 6.31667 4.1606 6.79783 4.5566 7.1935C4.95226 7.5895 5.43343 7.7875 6.0001 7.7875ZM6.0001 7.1C5.6251 7.1 5.30643 6.96867 5.0441 6.706C4.78143 6.44367 4.6501 6.125 4.6501 5.75C4.6501 5.375 4.78143 5.05617 5.0441 4.7935C5.30643 4.53117 5.6251 4.4 6.0001 4.4C6.3751 4.4 6.69393 4.53117 6.9566 4.7935C7.21893 5.05617 7.3501 5.375 7.3501 5.75C7.3501 6.125 7.21893 6.44367 6.9566 6.706C6.69393 6.96867 6.3751 7.1 6.0001 7.1ZM6.0001 9.25C4.90843 9.25 3.90626 8.9625 2.9936 8.3875C2.08126 7.8125 1.38343 7.03333 0.900098 6.05C0.883431 6.01667 0.870931 5.97283 0.862598 5.9185C0.854264 5.8645 0.850098 5.80833 0.850098 5.75C0.850098 5.69167 0.854264 5.63533 0.862598 5.581C0.870931 5.527 0.883431 5.48333 0.900098 5.45C1.38343 4.46667 2.08126 3.6875 2.9936 3.1125C3.90626 2.5375 4.90843 2.25 6.0001 2.25C7.09176 2.25 8.09376 2.5375 9.0061 3.1125C9.91876 3.6875 10.6168 4.46667 11.1001 5.45C11.1168 5.48333 11.1293 5.527 11.1376 5.581C11.1459 5.63533 11.1501 5.69167 11.1501 5.75C11.1501 5.80833 11.1459 5.8645 11.1376 5.9185C11.1293 5.97283 11.1168 6.01667 11.1001 6.05C10.6168 7.03333 9.91876 7.8125 9.0061 8.3875C8.09376 8.9625 7.09176 9.25 6.0001 9.25ZM6.0001 8.5C6.94176 8.5 7.80643 8.252 8.5941 7.756C9.38143 7.26033 9.98343 6.59167 10.4001 5.75C9.98343 4.90833 9.38143 4.2395 8.5941 3.7435C7.80643 3.24783 6.94176 3 6.0001 3C5.05843 3 4.19376 3.24783 3.4061 3.7435C2.61876 4.2395 2.01676 4.90833 1.6001 5.75C2.01676 6.59167 2.61876 7.26033 3.4061 7.756C4.19376 8.252 5.05843 8.5 6.0001 8.5Z" fill="#003366"/>
</g>
</svg>
