<svg width="18" height="18" viewBox="0 0 18 18" fill="none" xmlns="http://www.w3.org/2000/svg">
<mask id="mask0_93_303" style="mask-type:alpha" maskUnits="userSpaceOnUse" x="0" y="0" width="18" height="18">
<rect width="18" height="18" fill="#C4C4C4"/>
</mask>
<g mask="url(#mask0_93_303)">
<path d="M2.56855 15.375C2.30605 15.375 2.1123 15.2625 1.9873 15.0375C1.8623 14.8125 1.8623 14.5875 1.9873 14.3625L8.39981 3.26255C8.5373 3.03755 8.73731 2.92505 8.9998 2.92505C9.2623 2.92505 9.46231 3.03755 9.5998 3.26255L16.0123 14.3625C16.1373 14.5875 16.1373 14.8125 16.0123 15.0375C15.8873 15.2625 15.6936 15.375 15.4311 15.375H2.56855ZM8.9998 7.65005C8.83731 7.65005 8.70306 7.70305 8.59706 7.80905C8.49056 7.91555 8.4373 8.05005 8.4373 8.21255V10.8375C8.4373 10.9875 8.49056 11.1188 8.59706 11.2313C8.70306 11.3438 8.83731 11.4 8.9998 11.4C9.1623 11.4 9.2968 11.3438 9.40331 11.2313C9.50931 11.1188 9.5623 10.9875 9.5623 10.8375V8.21255C9.5623 8.05005 9.50931 7.91555 9.40331 7.80905C9.2968 7.70305 9.1623 7.65005 8.9998 7.65005ZM8.9998 13.35C9.17481 13.35 9.31855 13.2938 9.43106 13.1813C9.54355 13.0688 9.5998 12.925 9.5998 12.75C9.5998 12.575 9.54355 12.4313 9.43106 12.3188C9.31855 12.2063 9.17481 12.15 8.9998 12.15C8.8248 12.15 8.68106 12.2063 8.56855 12.3188C8.45606 12.4313 8.39981 12.575 8.39981 12.75C8.39981 12.925 8.45606 13.0688 8.56855 13.1813C8.68106 13.2938 8.8248 13.35 8.9998 13.35ZM3.3373 14.25H14.6623L8.9998 4.50005L3.3373 14.25Z" fill="#607A92"/>
</g>
</svg>
