<svg width="302" height="251" viewBox="0 0 302 251" fill="none" xmlns="http://www.w3.org/2000/svg">
<circle cx="153.68" cy="112.58" r="112.58" fill="#EBF5FF"/>
<mask id="mask0_84_122" style="mask-type:alpha" maskUnits="userSpaceOnUse" x="66" y="30" width="176" height="176">
<rect x="66.1183" y="30.3787" width="175.124" height="175.124" fill="#C4C4C4"/>
</mask>
<g mask="url(#mask0_84_122)">
<path d="M153.68 175.403C151.005 175.403 148.694 174.642 146.748 173.12C144.803 171.602 143.647 169.566 143.282 167.012H139.087C137.141 167.012 135.438 166.282 133.979 164.823C132.52 163.364 131.79 161.661 131.79 159.715V137.825C124.25 133.69 118.412 128.003 114.278 120.765C110.143 113.531 108.075 105.901 108.075 97.8744C108.075 85.105 112.482 74.3105 121.297 65.491C130.117 56.6765 140.911 52.2692 153.68 52.2692C166.45 52.2692 177.244 56.6765 186.064 65.491C194.878 74.3105 199.286 85.105 199.286 97.8744C199.286 105.901 197.218 113.531 193.083 120.765C188.949 128.003 183.111 133.69 175.571 137.825V159.715C175.571 161.661 174.841 163.364 173.382 164.823C171.923 166.282 170.22 167.012 168.274 167.012H164.078C163.714 169.566 162.558 171.602 160.612 173.12C158.667 174.642 156.356 175.403 153.68 175.403ZM139.087 159.715H168.274V152.601H139.087V159.715ZM139.087 147.128H168.274V139.831H139.087V147.128ZM137.627 132.534H150.397V109.732L137.263 96.5975C136.776 95.9894 136.533 95.2889 136.533 94.496C136.533 93.7079 136.837 92.9491 137.445 92.2194C138.175 91.4897 138.965 91.1249 139.816 91.1249C140.668 91.1249 141.458 91.4897 142.188 92.2194L153.68 103.894L165.355 92.037C165.963 91.4289 166.693 91.1249 167.544 91.1249C168.396 91.1249 169.186 91.4897 169.916 92.2194C170.524 92.9491 170.828 93.7079 170.828 94.496C170.828 95.2889 170.524 96.0502 169.916 96.7799L156.964 109.732V132.534H169.734C176.301 129.372 181.652 124.72 185.787 118.576C189.921 112.437 191.989 105.536 191.989 97.8744C191.989 87.1724 188.28 78.1122 180.861 70.6937C173.443 63.2752 164.383 59.566 153.68 59.566C142.978 59.566 133.918 63.2752 126.5 70.6937C119.081 78.1122 115.372 87.1724 115.372 97.8744C115.372 105.536 117.439 112.437 121.574 118.576C125.709 124.72 131.06 129.372 137.627 132.534Z" fill="#003366"/>
</g>
<circle cx="261.5" cy="13.5" r="11.713" stroke="#5D92C7" stroke-width="3.57396"/>
<circle cx="7.14793" cy="132.237" r="5.80769" stroke="#5D92C7" stroke-width="2.68047"/>
<circle cx="126.876" cy="244.817" r="4.46746" stroke="#5D92C7" stroke-width="1.78698"/>
<rect x="37.5266" y="16.0829" width="1.78698" height="8.04578" rx="0.893491" transform="rotate(-90 37.5266 16.0829)" fill="#86C2FF"/>
<rect x="42.8876" y="19.6569" width="1.78698" height="8.04578" rx="0.893491" transform="rotate(180 42.8876 19.6569)" fill="#86C2FF"/>
<rect x="290.206" y="146.533" width="3.93136" height="19.6568" rx="1.96568" fill="#86C2FF"/>
<rect x="282.343" y="158.327" width="3.93136" height="19.6568" rx="1.96568" transform="rotate(-90 282.343 158.327)" fill="#86C2FF"/>
<rect x="175.124" y="29.3818" width="3.57396" height="16.0828" rx="1.78698" transform="rotate(-12.7722 175.124 29.3818)" fill="#86C2FF"/>
<rect x="194.913" y="50.9391" width="3.57396" height="16.0828" rx="1.78698" transform="rotate(-118.192 194.913 50.9391)" fill="#86C2FF"/>
<rect x="194.781" y="58.9595" width="3.57396" height="16.0828" rx="1.78698" transform="rotate(-85.511 194.781 58.9595)" fill="#86C2FF"/>
<rect x="194.068" y="30.3787" width="3.57396" height="16.0828" rx="1.78698" transform="rotate(30.7459 194.068 30.3787)" fill="#86C2FF"/>
</svg>
