<svg width="44" height="40" viewBox="0 0 44 40" fill="none" xmlns="http://www.w3.org/2000/svg">
<path d="M42.4962 22.5436C37.8737 15.4657 38.365 8.21058 36.1369 4.79936C33.9088 1.38814 27.2685 -4.4932 11.5788 5.75514C-4.11085 16.0035 -0.12029 27.144 2.33149 30.895C13.8057 48.462 50.6838 35.0787 42.4962 22.5436Z" fill="#EFEFEF"/>
<path d="M9.16299 8.22009L10.0272 7.35585L11.7557 9.08433L10.8915 9.94858L9.16299 8.22009Z" fill="#A4AFC1"/>
<path d="M4.19507 3.24652L5.05931 2.38228L6.78779 4.11076L5.92355 4.97501L4.19507 3.24652Z" fill="#A4AFC1"/>
<path d="M9.37979 4.11176L11.1083 2.38327L11.9725 3.24751L10.244 4.976L9.37979 4.11176Z" fill="#A4AFC1"/>
<path d="M4.41022 9.08043L6.1387 7.35195L7.00294 8.21619L5.27446 9.94467L4.41022 9.08043Z" fill="#A4AFC1"/>
<path d="M16.3355 33.5998C21.0255 33.5998 24.8275 29.7978 24.8275 25.1078C24.8275 20.4178 21.0255 16.6158 16.3355 16.6158C11.6455 16.6158 7.84354 20.4178 7.84354 25.1078C7.84354 29.7978 11.6455 33.5998 16.3355 33.5998Z" fill="#D4E1F7"/>
<path d="M10.9003 25.1078C10.9003 20.9401 13.9045 17.4812 17.8633 16.7601C17.3671 16.6696 16.8574 16.6158 16.3343 16.6158C11.6446 16.6158 7.84229 20.4182 7.84229 25.1078C7.84229 29.7975 11.6446 33.5998 16.3343 33.5998C16.8574 33.5998 17.3658 33.546 17.8633 33.4556C13.9045 32.7345 10.9003 29.2756 10.9003 25.1078Z" fill="#CAD7DB"/>
<path d="M16.3359 34.2744C11.2807 34.2744 7.16919 30.1629 7.16919 25.1078C7.16919 20.0526 11.2807 15.9411 16.3359 15.9411C21.391 15.9411 25.5025 20.0526 25.5025 25.1078C25.5025 30.1629 21.3897 34.2744 16.3359 34.2744ZM16.3359 17.7744C12.2915 17.7744 9.00252 21.0634 9.00252 25.1078C9.00252 29.1521 12.2915 32.4411 16.3359 32.4411C20.3802 32.4411 23.6692 29.1521 23.6692 25.1078C23.6692 21.0634 20.379 17.7744 16.3359 17.7744Z" fill="#003366"/>
<path d="M34.9197 11.9872L30.3914 7.19364L25.8631 11.9872L24.5308 10.7295L29.7253 5.22953C30.0712 4.86164 30.7116 4.86164 31.0575 5.22953L36.2519 10.7295L34.9197 11.9872Z" fill="black"/>
<path d="M23.9747 34.2744V32.4411C27.0071 32.4411 29.4747 29.9734 29.4747 26.9411V5.85777H31.3081V26.9411C31.3081 30.9854 28.0178 34.2744 23.9747 34.2744Z" fill="black"/>
<path d="M16.8003 29.3855H14.1969V27.5522H16.8003C17.2183 27.5522 17.558 27.2124 17.558 26.7944C17.558 26.3642 17.2183 26.0244 16.8003 26.0244H15.8714C14.4426 26.0244 13.2803 24.8621 13.2803 23.4333C13.2803 21.9923 14.4426 20.83 15.8714 20.83H18.4747V22.6633H15.8714C15.4534 22.6633 15.1136 23.0031 15.1136 23.4211C15.1136 23.8513 15.4534 24.1911 15.8714 24.1911H16.8003C18.229 24.1911 19.3914 25.3534 19.3914 26.7822C19.3914 28.2232 18.229 29.3855 16.8003 29.3855Z" fill="#003366"/>
<path d="M15.4192 19.9133H17.2526V21.7466H15.4192V19.9133Z" fill="#003366"/>
<path d="M15.4192 28.4688H17.2526V30.3022H15.4192V28.4688Z" fill="#003366"/>
</svg>
