<svg width="52" height="52" viewBox="0 0 52 52" fill="none" xmlns="http://www.w3.org/2000/svg">
<path d="M39.6023 5.72146C29.6139 5.90779 22.6561 0.8609 17.8432 0.9519C13.0303 1.0429 2.97117 3.99968 3.38572 26.143C3.80028 48.2863 17.4604 51.2821 22.7557 51.1839C47.5467 50.7202 57.2938 5.39068 39.6023 5.72146Z" fill="#EFEFEF"/>
<path d="M24.5556 16.25H24.3678L29.2789 12.3211C30.3478 11.4689 29.7411 9.75 28.3833 9.75H14.95C13.5922 9.75 12.9856 11.4689 14.0544 12.3211L18.9656 16.25H18.7778C13.78 19.1822 9.75 27.5311 9.75 33.5833C9.75 37.9167 11.9167 42.25 16.9722 42.25H26.7222C31.7778 42.25 33.5833 37.9167 33.5833 33.5833C33.5833 27.5311 29.5533 19.1822 24.5556 16.25Z" fill="white"/>
<path d="M13 33.5833C13 27.5311 17.03 19.1822 22.0278 16.25H22.2156L17.3044 12.3211C16.2356 11.4689 16.8422 9.75 18.2 9.75H14.95C13.5922 9.75 12.9856 11.4689 14.0544 12.3211L18.9656 16.25H18.7778C13.78 19.1822 9.75 27.5311 9.75 33.5833C9.75 37.9167 11.9167 42.25 16.9722 42.25H20.2222C15.1667 42.25 13 37.9167 13 33.5833Z" fill="#D5DBE1"/>
<path d="M43.2876 8.06528L45.3304 6.02252L46.3517 7.0439L44.309 9.08665L43.2876 8.06528Z" fill="#A4AFC1"/>
<path d="M37.4143 13.936L39.4571 11.8932L40.4784 12.9146L38.4357 14.9574L37.4143 13.936Z" fill="#A4AFC1"/>
<path d="M37.4075 6.77621L38.4288 5.75484L40.4716 7.79759L39.4502 8.81897L37.4075 6.77621Z" fill="#A4AFC1"/>
<path d="M43.2869 12.6608L44.3082 11.6395L46.351 13.6822L45.3296 14.7036L43.2869 12.6608Z" fill="#A4AFC1"/>
<path d="M8.30558 9.83092C7.11103 9.83092 6.13892 8.85881 6.13892 7.66426C6.13892 6.4697 7.11103 5.49759 8.30558 5.49759C9.50014 5.49759 10.4722 6.4697 10.4722 7.66426C10.4722 8.85881 9.50014 9.83092 8.30558 9.83092ZM8.30558 6.94203C7.90692 6.94203 7.58336 7.26703 7.58336 7.66426C7.58336 8.06148 7.90692 8.38648 8.30558 8.38648C8.70425 8.38648 9.02781 8.06148 9.02781 7.66426C9.02781 7.26703 8.70425 6.94203 8.30558 6.94203Z" fill="#A4AFC1"/>
<path d="M42.2456 30.3334V39C42.2456 40.7911 38.5334 42.25 33.9401 42.25C29.3612 42.25 25.6345 40.7911 25.6345 39V30.3334C25.6345 28.5423 29.3612 27.0834 33.9401 27.0834C38.5334 27.0834 42.2456 28.5423 42.2456 30.3334Z" fill="#D4E1F7"/>
<path d="M28.8845 39V30.3334C28.8845 28.7589 31.7619 27.443 35.5665 27.1469C35.0407 27.1065 34.4962 27.0834 33.9401 27.0834C29.3612 27.0834 25.6345 28.5423 25.6345 30.3334V39C25.6345 40.7911 29.3612 42.25 33.9401 42.25C34.4976 42.25 35.0407 42.2269 35.5665 42.1865C31.7619 41.8904 28.8845 40.5745 28.8845 39Z" fill="#CAD7DB"/>
<path d="M25.0438 17.0965L23.6904 15.4036L28.6015 11.4747C28.7676 11.3418 28.7561 11.1844 28.7171 11.0746C28.681 10.9648 28.5914 10.8334 28.3834 10.8334H14.9501C14.7421 10.8334 14.6525 10.9648 14.615 11.0746C14.576 11.1844 14.5644 11.3432 14.7305 11.4732L19.6431 15.4036L18.2896 17.0965L13.3785 13.1676C12.5277 12.4887 12.21 11.388 12.5696 10.3596C12.9293 9.33113 13.8638 8.66669 14.9501 8.66669H28.3834C29.4696 8.66669 30.4042 9.33113 30.7638 10.3596C31.1235 11.3866 30.8057 12.4901 29.955 13.1676L25.0438 17.0965Z" fill="#003366"/>
<path d="M14.0835 15.1667H29.2502V17.3334H14.0835V15.1667Z" fill="#003366"/>
<path d="M24.5557 30.3334H26.7223V39H24.5557V30.3334Z" fill="#003366"/>
<path d="M33.9445 34.6667C29.279 34.6667 24.5557 33.1789 24.5557 30.3334C24.5557 24.6437 43.3334 24.6437 43.3334 30.3334C43.3334 33.1789 38.6101 34.6667 33.9445 34.6667ZM33.9445 28.1667C29.1793 28.1667 26.7223 29.6863 26.7223 30.3334C26.7223 30.9805 29.1793 32.5 33.9445 32.5C38.7098 32.5 41.1668 30.9805 41.1668 30.3334C41.1668 29.6863 38.7098 28.1667 33.9445 28.1667Z" fill="#003366"/>
<path d="M33.9445 43.3333C29.279 43.3333 24.5557 41.8456 24.5557 39H26.7223C26.7223 39.6471 29.1793 41.1667 33.9445 41.1667C38.7098 41.1667 41.1668 39.6471 41.1668 39H43.3334C43.3334 41.8456 38.6101 43.3333 33.9445 43.3333Z" fill="#003366"/>
<path d="M33.9445 39C29.279 39 24.5557 37.5123 24.5557 34.6667H26.7223C26.7223 35.3138 29.1793 36.8334 33.9445 36.8334C38.7098 36.8334 41.1668 35.3138 41.1668 34.6667H43.3334C43.3334 37.5123 38.6101 39 33.9445 39Z" fill="#003366"/>
<path d="M41.1667 30.3334H43.3334V39H41.1667V30.3334Z" fill="#003366"/>
<path d="M29.8121 23.6152C28.1249 20.6743 26.0637 18.3907 24.0068 17.1846L25.1032 15.3169C27.4793 16.7108 29.8193 19.2747 31.6913 22.5377L29.8121 23.6152Z" fill="#003366"/>
<path d="M22.0279 43.3333H16.9723C11.235 43.3333 8.66675 38.4352 8.66675 33.5833C8.66675 26.8407 13.1359 18.3055 18.2304 15.3169L19.3267 17.1846C14.8807 19.7918 10.8334 27.6091 10.8334 33.5833C10.8334 37.0818 12.4411 41.1667 16.9723 41.1667H22.0279V43.3333Z" fill="#003366"/>
</svg>
