<svg width="43" height="41" viewBox="0 0 43 41" fill="none" xmlns="http://www.w3.org/2000/svg">
<path d="M9.38438 5.13001C7.17827 13.2908 1.43504 17.7519 0.37171 21.685C-0.691623 25.6181 -0.663513 34.4878 17.4278 39.3791C35.5191 44.2704 41.178 33.8779 42.3465 29.5512C47.8233 9.29779 13.2918 -9.32277 9.38438 5.13001Z" fill="#EFEFEF"/>
<path d="M13.5225 22.8595L13.2414 23.8862L11.4447 30.5228L11.0781 31.8795H7.71695V21.4906C11.7503 21.4906 13.5225 22.8595 13.5225 22.8595Z" fill="#D4E1F7"/>
<path d="M7.71695 21.4906V31.8795H10.4669V21.735C9.70184 21.5908 8.79617 21.4906 7.71695 21.4906Z" fill="#D4E1F7"/>
<path d="M35.217 29.435C35.217 29.435 26.3559 34.3239 22.6892 34.3239C19.7803 34.3239 13.7915 31.6228 11.4448 30.5228L13.2415 23.8861L25.0115 26.2939C26.1481 26.5261 26.967 27.5283 26.967 28.6895V29.2272C28.727 28.6772 30.5726 27.9072 32.1615 27.9072C34.6059 27.9072 35.217 29.435 35.217 29.435Z" fill="#F3F3F1"/>
<path d="M14.1948 31.1339L15.9915 24.4972L25.4576 26.4332C25.3146 26.3746 25.1667 26.3257 25.0115 26.2939L13.2415 23.8861L11.4448 30.5228C13.6313 31.5482 18.9786 33.9609 22.0512 34.2848C19.1705 33.4146 15.8155 31.8929 14.1948 31.1339Z" fill="white"/>
<path d="M11.4448 31.4382L10.7922 31.173L11.4204 30.5276V29.5938L12.0731 29.8591L11.4448 30.5032V31.4382Z" fill="black"/>
<path d="M6.03647 15.5358H7.25869V17.9803H6.03647V15.5358Z" fill="#A4AFC1"/>
<path d="M6.03647 8.50808H7.25869V10.9525H6.03647V8.50808Z" fill="#A4AFC1"/>
<path d="M9.09195 12.7858H11.5364V14.008H9.09195V12.7858Z" fill="#A4AFC1"/>
<path d="M2.06421 12.7858H4.50866V14.008H2.06421V12.7858Z" fill="#A4AFC1"/>
<path d="M17.8003 6.52201C16.7895 6.52201 15.9669 5.69946 15.9669 4.68868C15.9669 3.6779 16.7895 2.85535 17.8003 2.85535C18.811 2.85535 19.6336 3.6779 19.6336 4.68868C19.6336 5.69946 18.811 6.52201 17.8003 6.52201ZM17.8003 4.07757C17.4629 4.07757 17.1891 4.35257 17.1891 4.68868C17.1891 5.02479 17.4629 5.29979 17.8003 5.29979C18.1376 5.29979 18.4114 5.02479 18.4114 4.68868C18.4114 4.35257 18.1376 4.07757 17.8003 4.07757Z" fill="#A4AFC1"/>
<path d="M29.3197 10.6018H29.1975L32.4058 8.17082C33.1037 7.64404 32.7077 6.57948 31.8204 6.57948H23.046C22.1587 6.57948 21.7627 7.64282 22.4606 8.17082L25.6689 10.6018H25.5467C22.2821 12.4156 19.6495 17.5819 19.6495 21.3268C19.6495 24.0084 21.0648 26.6887 24.3673 26.6887H30.7363C34.0387 26.6887 35.2181 24.0071 35.2181 21.3268C35.2169 17.5819 32.5843 12.4156 29.3197 10.6018Z" fill="#D4E1F7"/>
<path d="M22.3995 21.3268C22.3995 17.5819 25.0321 12.4168 28.2967 10.6018H28.4189L25.2106 8.17082C24.5127 7.64404 24.9087 6.57948 25.796 6.57948H23.046C22.1587 6.57948 21.7627 7.64282 22.4606 8.17082L25.6689 10.6018H25.5467C22.2821 12.4156 19.6495 17.5819 19.6495 21.3268C19.6495 24.0084 21.0648 26.6887 24.3673 26.6887H27.1173C23.8136 26.6887 22.3995 24.0071 22.3995 21.3268Z" fill="#CAD7DB"/>
<path d="M35.9751 23.022H34.1417V20.7242C34.1417 16.5919 30.9725 11.5453 27.2729 11.5453C27.2276 11.5453 27.1849 11.5416 27.1421 11.5355C23.4999 11.6651 20.4052 16.6456 20.4052 20.7242V20.8831H18.5719V20.7242C18.5719 15.7424 22.4524 9.71319 27.2716 9.69975C27.3156 9.69608 27.3804 9.70464 27.4342 9.71442C32.2571 9.84153 35.9763 15.6874 35.9763 20.7242V23.022H35.9751Z" fill="#003366"/>
<path d="M25.1252 11.3327L22.2628 9.04222C21.6725 8.57044 21.45 7.80289 21.7018 7.08789C21.9511 6.37289 22.6014 5.91089 23.3579 5.91089H31.1887C31.9453 5.91089 32.5955 6.37289 32.8448 7.08911C33.0954 7.80411 32.8729 8.57167 32.2814 9.04467L29.4214 11.3339L28.2749 9.90022L30.9699 7.74422H23.5742L26.2705 9.90144L25.1252 11.3327Z" fill="#003366"/>
<path d="M22.8519 9.69981H31.6923V11.5331H22.8519V9.69981Z" fill="#003366"/>
<path d="M11.0783 32.7998H7.7172C7.2112 32.7998 6.80054 32.3892 6.80054 31.8832V21.4943C6.80054 20.9883 7.2112 20.5776 7.7172 20.5776C12.0011 20.5776 13.997 22.065 14.0801 22.1286C14.3759 22.3547 14.5054 22.7373 14.4089 23.0966L11.9644 32.1239C11.8544 32.5224 11.4926 32.7998 11.0783 32.7998ZM8.63387 30.9665H10.3768L12.4521 23.3019C11.8129 23 10.5625 22.5503 8.63265 22.4378V30.9665H8.63387Z" fill="#003366"/>
<path d="M22.6894 35.2442C19.7438 35.2442 14.1204 32.7998 11.0294 31.3441L11.8116 29.6856C16.8337 32.0542 20.7986 33.4121 22.6894 33.4121C25.168 33.4121 30.7951 30.7355 33.7431 29.1906C33.4034 28.9962 32.8974 28.8288 32.1616 28.8288C31.0885 28.8288 29.7624 29.27 28.479 29.699C27.0576 30.1732 25.5872 30.6621 24.2171 30.6621C21.6407 30.6621 18.2417 29.4362 18.0987 29.3849L18.7245 27.6616C18.7562 27.6738 21.9658 28.8288 24.2171 28.8288C25.2902 28.8288 26.6164 28.3876 27.8997 27.9586C29.3211 27.4843 30.7915 26.9955 32.1616 26.9955C35.1915 26.9955 36.0336 29.0133 36.0678 29.1001C36.2401 29.5303 36.0654 30.0192 35.6596 30.2429C35.2892 30.4458 26.5479 35.2442 22.6894 35.2442Z" fill="#003366"/>
<path d="M27.884 29.2431H26.0506V28.6931C26.0506 27.9696 25.5373 27.3401 24.8284 27.1959L13.0572 24.7857L13.4251 22.9902L25.1951 25.3992C26.7522 25.7158 27.8827 27.1018 27.8827 28.6919V29.2431H27.884Z" fill="#003366"/>
</svg>
