<svg width="48" height="54" viewBox="0 0 48 54" fill="none" xmlns="http://www.w3.org/2000/svg">
<path d="M29.6323 36H17.4876C16.6674 36 16.0002 35.3452 16.0002 34.5403L16 25.6997C16 24.8948 16.6675 24.24 17.4874 24.24H29.6326C30.4528 24.24 31.12 24.895 31.12 25.6997V34.5403C31.12 35.3452 30.4528 36 29.6326 36H29.6323ZM17.4876 24.6991C16.9251 24.6991 16.4677 25.1481 16.4677 25.7001V34.5406C16.4677 35.0924 16.9252 35.5415 17.4876 35.5415H29.6323C30.1945 35.5415 30.6522 35.0926 30.6522 34.5406V25.7001C30.6522 25.1481 30.1947 24.6991 29.6323 24.6991H17.4876Z" stroke="#EE1C25"/>
<path d="M29.2155 24.24H17.9038C17.7801 24.24 17.6799 24.1384 17.6799 24.0127V20.9678C17.6799 17.6772 20.3177 15 23.5599 15C26.8021 15 29.4399 17.6772 29.4399 20.9678V24.0125C29.4402 24.1381 29.3398 24.24 29.2162 24.24L29.2155 24.24ZM18.1278 23.7855H28.9915V20.9678C28.9915 17.9278 26.5547 15.4546 23.5597 15.4546C20.5643 15.4546 18.1275 17.9278 18.1275 20.9678L18.1278 23.7855Z" stroke="#EE1C25"/>
<mask id="path-3-outside-1_262_387" maskUnits="userSpaceOnUse" x="20.8799" y="26.6" width="5" height="7" fill="black">
<rect fill="white" x="20.8799" y="26.6" width="5" height="7"/>
<path d="M24.9783 32.64H22.1414C22.0631 32.64 21.9888 32.6084 21.939 32.5541C21.8894 32.4997 21.8695 32.4284 21.8851 32.3594L22.3789 30.1786C22.06 29.8937 21.88 29.5092 21.88 29.1031C21.88 28.2742 22.6335 27.6 23.5599 27.6C24.4863 27.6 25.2398 28.2742 25.2398 29.1031C25.2398 29.5091 25.0598 29.8937 24.7408 30.1786L25.2347 32.3594C25.2503 32.4284 25.2304 32.4997 25.1808 32.5541C25.131 32.6084 25.0567 32.64 24.9783 32.64H24.9783ZM22.4614 32.1721H24.6586L24.1987 30.1416C24.1796 30.057 24.214 29.97 24.2883 29.9147C24.5606 29.7129 24.7171 29.4173 24.7171 29.1029C24.7171 28.5322 24.198 28.0677 23.5601 28.0677C22.9223 28.0677 22.4032 28.5322 22.4032 29.1029C22.4032 29.417 22.5594 29.7129 22.8319 29.9147C22.9062 29.9697 22.9404 30.057 22.9215 30.1416L22.4614 32.1721Z"/>
</mask>
<path d="M24.9783 32.64H22.1414C22.0631 32.64 21.9888 32.6084 21.939 32.5541C21.8894 32.4997 21.8695 32.4284 21.8851 32.3594L22.3789 30.1786C22.06 29.8937 21.88 29.5092 21.88 29.1031C21.88 28.2742 22.6335 27.6 23.5599 27.6C24.4863 27.6 25.2398 28.2742 25.2398 29.1031C25.2398 29.5091 25.0598 29.8937 24.7408 30.1786L25.2347 32.3594C25.2503 32.4284 25.2304 32.4997 25.1808 32.5541C25.131 32.6084 25.0567 32.64 24.9783 32.64H24.9783ZM22.4614 32.1721H24.6586L24.1987 30.1416C24.1796 30.057 24.214 29.97 24.2883 29.9147C24.5606 29.7129 24.7171 29.4173 24.7171 29.1029C24.7171 28.5322 24.198 28.0677 23.5601 28.0677C22.9223 28.0677 22.4032 28.5322 22.4032 29.1029C22.4032 29.417 22.5594 29.7129 22.8319 29.9147C22.9062 29.9697 22.9404 30.057 22.9215 30.1416L22.4614 32.1721Z" fill="#EE1C25"/>
<path d="M21.939 32.5541L21.5693 32.8908L21.5702 32.8917L21.939 32.5541ZM21.8851 32.3594L21.3974 32.249L21.3973 32.2493L21.8851 32.3594ZM22.3789 30.1786L22.8666 30.289L22.9316 30.0019L22.712 29.8057L22.3789 30.1786ZM24.7408 30.1786L24.4077 29.8057L24.1882 30.0019L24.2532 30.289L24.7408 30.1786ZM25.2347 32.3594L25.7224 32.2493L25.7223 32.249L25.2347 32.3594ZM25.1808 32.5541L25.5496 32.8917L25.5504 32.8908L25.1808 32.5541ZM22.4614 32.1721L21.9737 32.0615L21.8354 32.6721H22.4614V32.1721ZM24.6586 32.1721V32.6721H25.2845L25.1463 32.0616L24.6586 32.1721ZM24.1987 30.1416L24.6864 30.0311L24.6864 30.0311L24.1987 30.1416ZM24.2883 29.9147L23.9906 29.513L23.9899 29.5135L24.2883 29.9147ZM22.8319 29.9147L23.1296 29.513L23.1294 29.5128L22.8319 29.9147ZM22.9215 30.1416L23.4091 30.2521L23.4095 30.2506L22.9215 30.1416ZM24.9783 32.14H22.1414V33.14H24.9783V32.14ZM22.1414 32.14C22.1934 32.14 22.2563 32.1602 22.3077 32.2164L21.5702 32.8917C21.7212 33.0566 21.9327 33.14 22.1414 33.14V32.14ZM22.3086 32.2173C22.3627 32.2768 22.3952 32.3703 22.3728 32.4695L21.3973 32.2493C21.3438 32.4865 21.4161 32.7226 21.5693 32.8908L22.3086 32.2173ZM22.3727 32.4698L22.8666 30.289L21.8913 30.0682L21.3974 32.249L22.3727 32.4698ZM22.712 29.8057C22.4913 29.6085 22.38 29.3564 22.38 29.1031H21.38C21.38 29.6619 21.6287 30.1788 22.0458 30.5515L22.712 29.8057ZM22.38 29.1031C22.38 28.6012 22.8559 28.1 23.5599 28.1V27.1C22.4111 27.1 21.38 27.9472 21.38 29.1031H22.38ZM23.5599 28.1C24.2639 28.1 24.7398 28.6012 24.7398 29.1031H25.7398C25.7398 27.9472 24.7087 27.1 23.5599 27.1V28.1ZM24.7398 29.1031C24.7398 29.3564 24.6285 29.6085 24.4077 29.8057L25.074 30.5515C25.4911 30.1788 25.7398 29.6619 25.7398 29.1031H24.7398ZM24.2532 30.289L24.747 32.4698L25.7223 32.249L25.2285 30.0682L24.2532 30.289ZM24.747 32.4695C24.7246 32.3703 24.757 32.2768 24.8112 32.2173L25.5504 32.8908C25.7037 32.7226 25.776 32.4865 25.7224 32.2493L24.747 32.4695ZM24.8121 32.2164C24.8635 32.1602 24.9264 32.14 24.9783 32.14V33.14C25.187 33.14 25.3986 33.0566 25.5496 32.8917L24.8121 32.2164ZM24.9783 33.14H24.9783V32.14H24.9783V33.14ZM22.4614 32.6721H24.6586V31.6721H22.4614V32.6721ZM25.1463 32.0616L24.6864 30.0311L23.7111 30.252L24.171 32.2825L25.1463 32.0616ZM24.6864 30.0311C24.7148 30.1565 24.6568 30.2638 24.5868 30.3158L23.9899 29.5135C23.7713 29.6762 23.6444 29.9575 23.7111 30.252L24.6864 30.0311ZM24.5861 30.3164C24.9735 30.0292 25.2171 29.5901 25.2171 29.1029H24.2171C24.2171 29.2445 24.1476 29.3966 23.9906 29.513L24.5861 30.3164ZM25.2171 29.1029C25.2171 28.2052 24.4204 27.5677 23.5601 27.5677V28.5677C23.9755 28.5677 24.2171 28.8591 24.2171 29.1029H25.2171ZM23.5601 27.5677C22.6998 27.5677 21.9032 28.2052 21.9032 29.1029H22.9032C22.9032 28.8591 23.1447 28.5677 23.5601 28.5677V27.5677ZM21.9032 29.1029C21.9032 29.5895 22.1463 30.0292 22.5343 30.3165L23.1294 29.5128C22.9726 29.3967 22.9032 29.2445 22.9032 29.1029H21.9032ZM22.5342 30.3164C22.462 30.2629 22.4061 30.1553 22.4335 30.0325L23.4095 30.2506C23.4747 29.9587 23.3504 29.6766 23.1296 29.513L22.5342 30.3164ZM22.4339 30.031L21.9737 32.0615L22.949 32.2826L23.4091 30.2521L22.4339 30.031Z" fill="#EE1C25" mask="url(#path-3-outside-1_262_387)"/>
<path d="M24.0003 52.7343C23.9672 52.7343 23.9342 52.7304 23.902 52.7223C0.510267 46.7627 0.820671 26.4862 1.04651 11.6814C1.06866 10.2217 1.08965 8.84286 1.08965 7.50634C1.08965 7.30347 1.24238 7.13287 1.44407 7.11071C2.70708 6.97198 3.81777 6.86277 4.82359 6.76405C11.1998 6.13642 13.3481 5.9254 23.8318 1.03731C23.9383 0.987564 24.0615 0.987564 24.168 1.03731C34.6521 5.92547 36.8 6.13648 43.1762 6.76376C44.182 6.86285 45.2926 6.97167 46.5557 7.11041C46.7574 7.13256 46.9102 7.30317 46.9102 7.50604C46.9102 8.84256 46.9312 10.2218 46.9533 11.6811C47.1799 26.4859 47.4896 46.7616 24.0979 52.721C24.0656 52.7299 24.0326 52.7338 23.9995 52.7338L24.0003 52.7343ZM1.88502 7.86311C1.88153 9.09388 1.86248 10.3601 1.84189 11.6934C1.72646 19.2561 1.59549 27.8284 4.35128 35.306C7.51978 43.9028 13.9472 49.3398 24.0002 51.9255C34.0525 49.34 40.4805 43.903 43.6482 35.307C46.4043 27.829 46.2734 19.2575 46.1576 11.6944C46.1374 10.3611 46.1175 9.09448 46.1144 7.86371C44.9999 7.74324 44.0062 7.64569 43.0983 7.55631C36.6553 6.92246 34.4619 6.70677 24.0006 1.83732C13.5384 6.70718 11.3456 6.92287 4.90279 7.55671C3.99457 7.64609 3.00127 7.74363 1.8863 7.86372L1.88502 7.86311Z" stroke="#163B71"/>
<path d="M24.0002 48C23.9729 48 23.9457 47.9968 23.919 47.99C4.59544 43.0366 4.85186 26.1834 5.03842 13.878C5.05672 12.6648 5.07406 11.5187 5.07406 10.4079C5.07406 10.2393 5.20023 10.0975 5.36684 10.079C6.41019 9.96372 7.32772 9.87295 8.15862 9.79091C13.4259 9.26924 15.2006 9.09384 23.8611 5.03101C23.949 4.98966 24.0508 4.98966 24.1388 5.03101C32.7995 9.0939 34.5739 9.26929 39.8412 9.79066C40.6721 9.87303 41.5896 9.96347 42.633 10.0788C42.7996 10.0972 42.9258 10.239 42.9258 10.4076C42.9258 11.5185 42.9431 12.6649 42.9614 13.8778C43.1486 26.1831 43.4045 43.0357 24.0808 47.9889C24.0542 47.9963 24.0269 47.9996 23.9996 47.9996L24.0002 48ZM5.73111 10.7044C5.72822 11.7274 5.71249 12.7798 5.69547 13.888C5.60012 20.1739 5.49193 27.299 7.76845 33.5141C10.3859 40.6595 15.6955 45.1786 24.0002 47.3277C32.3043 45.1787 37.6143 40.6597 40.2311 33.5149C42.5079 27.2995 42.3997 20.1751 42.3041 13.8889C42.2874 12.7806 42.271 11.7279 42.2684 10.7049C41.3477 10.6048 40.5268 10.5237 39.7769 10.4494C34.4544 9.92257 32.6424 9.74329 24.0005 5.69596C15.3578 9.74363 13.5464 9.92291 8.22404 10.4497C7.47377 10.524 6.65322 10.6051 5.73216 10.7049L5.73111 10.7044Z" stroke="#163B71"/>
</svg>
