<svg width="48" height="48" viewBox="0 0 48 48" fill="none" xmlns="http://www.w3.org/2000/svg">
<g clip-path="url(#clip0)">
<path d="M13.7348 9.04816C11.8399 15.8371 7.01973 19.5182 6.10629 22.789C5.19285 26.0598 5.15547 33.4574 20.2057 37.6592C35.256 41.8609 40.0451 33.2354 41.0504 29.637C45.7554 12.7873 17.0913 -2.9757 13.7348 9.04816Z" fill="#EAF2F5"/>
<path d="M28.227 18.5447C23.6709 13.9893 18.6767 11.599 17.0685 13.2052C16.892 13.3899 16.7621 13.614 16.6898 13.859L16.6638 13.833L15.1277 20.1222L13.5997 26.3927L11.7898 33.8172L10.6431 38.5196L17.4325 35.9503L26.0685 32.6825L32.9581 30.0779L32.9494 30.0692C33.18 29.9956 33.391 29.8707 33.5665 29.7039C35.1733 28.0957 32.7831 23.1001 28.227 18.5447Z" fill="#DF0F1B"/>
<path d="M28.2271 18.5422C23.6712 13.9863 18.6753 11.5957 17.0684 13.2025C15.4615 14.8094 17.8522 19.8053 22.4081 24.3612C26.964 28.9171 31.9599 31.3077 33.5667 29.7009C35.1736 28.094 32.7829 23.0981 28.2271 18.5422Z" fill="white"/>
<path d="M32.3323 30.2795C31.5097 30.294 30.6935 30.1321 29.9387 29.8047L24.308 31.9351L15.6693 35.1996L11.0371 36.9527L10.6431 38.5676L17.4325 35.9984L26.0685 32.7306L32.3911 30.3383L32.3323 30.2795Z" fill="#B21D48"/>
<path d="M39.4441 25.638C39.3737 25.638 39.3039 25.6255 39.2378 25.6013C36.2547 24.4837 33.0303 24.1703 29.8878 24.6923L27.7881 25.0423C27.712 25.055 27.6341 25.0526 27.5589 25.0352C27.4837 25.0179 27.4126 24.9858 27.3498 24.941C27.287 24.8961 27.2336 24.8394 27.1927 24.7739C27.1519 24.7084 27.1243 24.6356 27.1115 24.5594C27.0988 24.4833 27.1012 24.4054 27.1186 24.3302C27.136 24.255 27.168 24.184 27.2129 24.1212C27.2577 24.0583 27.3145 24.005 27.3799 23.9641C27.4454 23.9232 27.5183 23.8956 27.5944 23.8829L29.6948 23.5303C33.0419 22.9742 36.4763 23.3077 39.6539 24.4973C39.7847 24.5444 39.8946 24.6363 39.964 24.7567C40.0335 24.8771 40.058 25.0182 40.0333 25.155C40.0085 25.2918 39.9361 25.4154 39.8288 25.5038C39.7216 25.5922 39.5865 25.6398 39.4475 25.638H39.4441Z" fill="#FFBF41"/>
<path d="M28.8648 22.1095C28.7321 22.1087 28.6035 22.0629 28.5001 21.9798C28.3967 21.8966 28.3245 21.7808 28.2952 21.6514C28.266 21.522 28.2814 21.3864 28.3389 21.2668C28.3965 21.1473 28.4929 21.0507 28.6123 20.9928L40.9556 15.1157C41.0253 15.0825 41.1008 15.0634 41.1779 15.0594C41.255 15.0554 41.3321 15.0666 41.4048 15.0924C41.4776 15.1182 41.5445 15.1581 41.6019 15.2097C41.6592 15.2614 41.7058 15.3239 41.739 15.3936C41.7722 15.4632 41.7913 15.5388 41.7953 15.6159C41.7993 15.6929 41.7881 15.77 41.7623 15.8428C41.7365 15.9155 41.6967 15.9825 41.645 16.0398C41.5933 16.0972 41.5309 16.1438 41.4612 16.177L29.1179 22.0541C29.0387 22.0912 28.9522 22.1101 28.8648 22.1095Z" fill="#FFBF41"/>
<path d="M21.9913 20.9341C21.9137 20.9342 21.837 20.9187 21.7655 20.8886C21.6217 20.8286 21.5076 20.7139 21.4484 20.5697C21.3892 20.4256 21.3896 20.2638 21.4496 20.1199L22.3045 18.069C23.6195 14.9268 23.9261 11.4539 23.1821 8.12997C23.1639 8.05494 23.1608 7.97707 23.1728 7.90082C23.1848 7.82457 23.2116 7.75143 23.2519 7.68557C23.2921 7.61971 23.3449 7.56242 23.4073 7.51697C23.4697 7.47153 23.5405 7.43882 23.6155 7.42071C23.6905 7.4026 23.7684 7.39944 23.8446 7.41142C23.9209 7.4234 23.994 7.45028 24.0599 7.49053C24.1257 7.53078 24.183 7.58361 24.2285 7.646C24.2739 7.70838 24.3066 7.77911 24.3247 7.85414L24.3294 7.87485C25.1261 11.4352 24.7973 15.1551 23.3884 18.5204L22.5329 20.5714C22.4883 20.6783 22.4131 20.7696 22.3167 20.8339C22.2203 20.8982 22.1071 20.9326 21.9913 20.9327V20.9341Z" fill="#FFBF41"/>
<path d="M42.7 27.7788C43.4377 27.7788 44.0357 27.1808 44.0357 26.4431C44.0357 25.7054 43.4377 25.1074 42.7 25.1074C41.9623 25.1074 41.3643 25.7054 41.3643 26.4431C41.3643 27.1808 41.9623 27.7788 42.7 27.7788Z" fill="#D5557E"/>
<path d="M28.3411 11.0827C28.8944 11.0827 29.3429 10.6342 29.3429 10.0809C29.3429 9.52761 28.8944 9.0791 28.3411 9.0791C27.7879 9.0791 27.3394 9.52761 27.3394 10.0809C27.3394 10.6342 27.7879 11.0827 28.3411 11.0827Z" fill="#DD95C1"/>
<path d="M22.9865 6.23854C22.754 6.23854 22.5267 6.16961 22.3334 6.04045C22.1401 5.91129 21.9895 5.72771 21.9005 5.51293C21.8115 5.29815 21.7883 5.06182 21.8336 4.83381C21.879 4.6058 21.9909 4.39636 22.1553 4.23197C22.3197 4.06758 22.5291 3.95564 22.7571 3.91028C22.9852 3.86493 23.2215 3.8882 23.4363 3.97717C23.6511 4.06613 23.8346 4.21679 23.9638 4.41009C24.0929 4.60339 24.1619 4.83064 24.1619 5.06312C24.1619 5.37486 24.038 5.67383 23.8176 5.89427C23.5972 6.1147 23.2982 6.23854 22.9865 6.23854Z" fill="#0070E0"/>
<path d="M39.4442 8.59028C39.2883 8.59028 39.1388 8.52836 39.0286 8.41815C38.9184 8.30793 38.8564 8.15844 38.8564 8.00257V7.41486C38.8564 7.25899 38.9184 7.1095 39.0286 6.99929C39.1388 6.88907 39.2883 6.82715 39.4442 6.82715C39.6 6.82715 39.7495 6.88907 39.8597 6.99929C39.9699 7.1095 40.0319 7.25899 40.0319 7.41486V8.00257C40.0319 8.15844 39.9699 8.30793 39.8597 8.41815C39.7495 8.52836 39.6 8.59028 39.4442 8.59028Z" fill="#2276BB"/>
<path d="M39.4442 5.65083C39.2883 5.65083 39.1388 5.58891 39.0286 5.47869C38.9184 5.36848 38.8564 5.21899 38.8564 5.06312V4.47541C38.8564 4.31954 38.9184 4.17005 39.0286 4.05983C39.1388 3.94961 39.2883 3.8877 39.4442 3.8877C39.6 3.8877 39.7495 3.94961 39.8597 4.05983C39.9699 4.17005 40.0319 4.31954 40.0319 4.47541V5.06312C40.0319 5.21899 39.9699 5.36848 39.8597 5.47869C39.7495 5.58891 39.6 5.65083 39.4442 5.65083Z" fill="#2276BB"/>
<path d="M41.2081 6.82679H40.6204C40.4646 6.82679 40.3151 6.76487 40.2049 6.65465C40.0946 6.54444 40.0327 6.39495 40.0327 6.23908C40.0327 6.08321 40.0946 5.93372 40.2049 5.8235C40.3151 5.71329 40.4646 5.65137 40.6204 5.65137H41.2081C41.364 5.65137 41.5135 5.71329 41.6237 5.8235C41.7339 5.93372 41.7959 6.08321 41.7959 6.23908C41.7959 6.39495 41.7339 6.54444 41.6237 6.65465C41.5135 6.76487 41.364 6.82679 41.2081 6.82679Z" fill="#2276BB"/>
<path d="M38.2687 6.82679H37.681C37.5251 6.82679 37.3756 6.76487 37.2654 6.65465C37.1552 6.54444 37.0933 6.39495 37.0933 6.23908C37.0933 6.08321 37.1552 5.93372 37.2654 5.8235C37.3756 5.71329 37.5251 5.65137 37.681 5.65137H38.2687C38.4246 5.65137 38.574 5.71329 38.6843 5.8235C38.7945 5.93372 38.8564 6.08321 38.8564 6.23908C38.8564 6.39495 38.7945 6.54444 38.6843 6.65465C38.574 6.76487 38.4246 6.82679 38.2687 6.82679Z" fill="#2276BB"/>
<path d="M15.3096 20.9339C15.2428 20.6822 15.1847 20.4284 15.1306 20.1699L13.6025 26.4404L13.7201 27.8743C13.9765 30.9306 15.2895 33.8021 17.4334 35.9954L26.0694 32.7309C26.0226 32.7162 25.9739 32.7055 25.9265 32.6895C23.3456 31.722 21.0345 30.1496 19.1871 28.1041C17.3397 26.0585 16.01 23.5997 15.3096 20.9339Z" fill="white"/>
<path d="M26.0683 32.7301C26.0216 32.7154 25.9728 32.7047 25.9254 32.6886C25.3597 32.4745 24.8058 32.2306 24.2658 31.958L16.4873 34.9012C16.7822 35.2836 17.0979 35.6495 17.433 35.9972L26.0683 32.7301Z" fill="#F6F6E7"/>
<path d="M35.3302 10.9287V13.88H32.3789V10.9287H35.3302Z" fill="#C9DA53"/>
<path d="M24.75 21.5212C24.6311 21.5213 24.515 21.4853 24.417 21.4179C24.319 21.3506 24.2438 21.2552 24.2012 21.1442C24.1586 21.0332 24.1506 20.9119 24.1783 20.7963C24.2061 20.6808 24.2682 20.5763 24.3566 20.4968L30.2337 15.2067C30.3495 15.1024 30.5021 15.0483 30.6578 15.0565C30.8135 15.0646 30.9595 15.1343 31.0638 15.2501C31.1682 15.3659 31.2222 15.5185 31.2141 15.6742C31.2059 15.8298 31.1363 15.9759 31.0204 16.0802L25.1433 21.3703C25.0354 21.4675 24.8952 21.5213 24.75 21.5212Z" fill="#FFBF41"/>
<path d="M41.7957 19.1694C41.6399 19.1694 41.4904 19.1075 41.3801 18.9972C41.2699 18.887 41.208 18.7375 41.208 18.5817V17.994C41.208 17.8381 41.2699 17.6886 41.3801 17.5784C41.4904 17.4682 41.6399 17.4062 41.7957 17.4062C41.9516 17.4062 42.1011 17.4682 42.2113 17.5784C42.3215 17.6886 42.3834 17.8381 42.3834 17.994V18.5817C42.3834 18.7375 42.3215 18.887 42.2113 18.9972C42.1011 19.1075 41.9516 19.1694 41.7957 19.1694Z" fill="#FFDB43"/>
<path d="M43.8741 18.3084C43.7969 18.3086 43.7204 18.2935 43.6491 18.2639C43.5778 18.2343 43.5131 18.1909 43.4586 18.1361L43.0433 17.7207C42.9382 17.6095 42.8807 17.4617 42.8829 17.3088C42.8851 17.1559 42.9468 17.0098 43.055 16.9016C43.1631 16.7935 43.3092 16.7317 43.4621 16.7296C43.6151 16.7274 43.7628 16.7849 43.8741 16.8899L44.2895 17.3053C44.3711 17.3876 44.4266 17.4922 44.449 17.6059C44.4714 17.7196 44.4597 17.8374 44.4153 17.9445C44.3709 18.0516 44.2958 18.1431 44.1995 18.2077C44.1032 18.2722 43.99 18.3068 43.8741 18.3071V18.3084Z" fill="#FFDB43"/>
<path d="M44.7345 16.2311H44.1468C44.0696 16.2311 43.9932 16.2159 43.9219 16.1863C43.8506 16.1568 43.7858 16.1135 43.7312 16.059C43.6766 16.0044 43.6334 15.9396 43.6038 15.8683C43.5743 15.797 43.5591 15.7206 43.5591 15.6434C43.5591 15.5662 43.5743 15.4898 43.6038 15.4185C43.6334 15.3472 43.6766 15.2824 43.7312 15.2278C43.7858 15.1732 43.8506 15.1299 43.9219 15.1004C43.9932 15.0709 44.0696 15.0557 44.1468 15.0557H44.7345C44.8117 15.0557 44.8881 15.0709 44.9594 15.1004C45.0307 15.1299 45.0955 15.1732 45.1501 15.2278C45.2047 15.2824 45.248 15.3472 45.2775 15.4185C45.307 15.4898 45.3222 15.5662 45.3222 15.6434C45.3222 15.7206 45.307 15.797 45.2775 15.8683C45.248 15.9396 45.2047 16.0044 45.1501 16.059C45.0955 16.1135 45.0307 16.1568 44.9594 16.1863C44.8881 16.2159 44.8117 16.2311 44.7345 16.2311Z" fill="#FFDB43"/>
<path d="M43.4586 14.5688C43.3427 14.5685 43.2295 14.5339 43.1332 14.4694C43.0369 14.4049 42.9618 14.3133 42.9174 14.2062C42.873 14.0992 42.8612 13.9813 42.8836 13.8676C42.906 13.7539 42.9615 13.6493 43.0432 13.5671L43.4586 13.1516C43.5698 13.0466 43.7176 12.9891 43.8705 12.9913C44.0235 12.9935 44.1695 13.0552 44.2777 13.1634C44.3859 13.2715 44.4476 13.4176 44.4498 13.5705C44.452 13.7235 44.3945 13.8712 44.2894 13.9825L43.874 14.3979C43.7639 14.5081 43.6144 14.5701 43.4586 14.5702V14.5688Z" fill="#FFDB43"/>
<path d="M41.7957 13.8793C41.6399 13.8793 41.4904 13.8174 41.3801 13.7072C41.2699 13.597 41.208 13.4475 41.208 13.2916V12.7039C41.208 12.5481 41.2699 12.3986 41.3801 12.2883C41.4904 12.1781 41.6399 12.1162 41.7957 12.1162C41.9516 12.1162 42.1011 12.1781 42.2113 12.2883C42.3215 12.3986 42.3834 12.5481 42.3834 12.7039V13.2916C42.3834 13.4475 42.3215 13.597 42.2113 13.7072C42.1011 13.8174 41.9516 13.8793 41.7957 13.8793Z" fill="#FFDB43"/>
<path d="M40.1326 14.5688C39.9768 14.5688 39.8274 14.5068 39.7172 14.3965L39.3018 13.9811C39.1923 13.8707 39.131 13.7214 39.1313 13.5659C39.1317 13.4104 39.1936 13.2614 39.3037 13.1515C39.4137 13.0415 39.5627 12.9797 39.7182 12.9795C39.8738 12.9793 40.023 13.0407 40.1333 13.1503L40.5487 13.5657C40.6304 13.648 40.6859 13.7526 40.7083 13.8663C40.7307 13.98 40.7189 14.0978 40.6745 14.2049C40.6301 14.312 40.5551 14.4035 40.4588 14.4681C40.3625 14.5326 40.2492 14.5672 40.1333 14.5675L40.1326 14.5688Z" fill="#FFDB43"/>
<path d="M13.5823 4.47559L14.4906 6.31619L16.5215 6.61138L15.0522 8.04393L15.3989 10.0662L13.5823 9.11116L11.7657 10.0662L12.1123 8.04393L10.6431 6.61272L12.674 6.31753L13.5823 4.47559Z" fill="#FFDB43"/>
<path d="M45.1369 35.7258C44.8572 34.7348 44.213 33.8862 43.3337 33.3502L43.0913 32.9869C42.4195 31.9822 41.5494 31.1254 40.5346 30.469C39.5197 29.8127 38.3813 29.3707 37.1895 29.1701C37.1133 29.1574 37.0354 29.1598 36.9602 29.1772C36.885 29.1946 36.814 29.2266 36.7512 29.2715C36.6883 29.3163 36.635 29.3731 36.5941 29.4385C36.5532 29.504 36.5256 29.5769 36.5129 29.653C36.5002 29.7291 36.5026 29.807 36.52 29.8822C36.5374 29.9574 36.5694 30.0285 36.6142 30.0913C36.6591 30.1541 36.7158 30.2075 36.7813 30.2484C36.8468 30.2892 36.9196 30.3168 36.9958 30.3295C38.7332 30.6244 40.3167 31.5072 41.4811 32.83C40.9971 32.9171 40.5372 33.1061 40.1319 33.3845C39.7266 33.6629 39.3852 34.0244 39.1302 34.4449C38.8263 34.9893 38.7511 35.6323 38.9212 36.2322C39.0913 36.8321 39.4927 37.3399 40.0372 37.6439C40.5817 37.9478 41.2246 38.023 41.8245 37.8529C42.4245 37.6828 42.9322 37.2814 43.2362 36.7369C43.478 36.2702 43.6086 35.7538 43.6175 35.2282C43.924 35.6733 44.0987 36.1958 44.1215 36.7357C44.1443 37.2756 44.0143 37.811 43.7464 38.2803C43.6667 38.4144 43.6436 38.5747 43.682 38.7258C43.7205 38.877 43.8174 39.0067 43.9515 39.0864C44.0856 39.1661 44.2458 39.1893 44.397 39.1509C44.5482 39.1124 44.6779 39.0155 44.7576 38.8814L44.7729 38.854C45.0373 38.3827 45.2057 37.8635 45.2681 37.3267C45.3306 36.7899 45.286 36.2459 45.1369 35.7265V35.7258ZM42.2117 36.1639C42.1382 36.3009 42.0382 36.422 41.9176 36.5201C41.7969 36.6183 41.658 36.6914 41.5089 36.7355C41.3597 36.7795 41.2033 36.7936 41.0487 36.7767C40.8941 36.7599 40.7444 36.7125 40.6082 36.6374C40.4721 36.5623 40.3522 36.4609 40.2554 36.3392C40.1587 36.2174 40.0872 36.0776 40.0448 35.928C40.0025 35.7783 39.9903 35.6218 40.009 35.4674C40.0276 35.313 40.0767 35.1638 40.1534 35.0286L40.1587 35.0192C40.33 34.7388 40.5618 34.5003 40.8372 34.3211C41.1126 34.1419 41.4245 34.0265 41.7502 33.9834C41.8523 33.9803 41.9534 34.0033 42.0441 34.0502C42.5423 34.3273 42.5663 35.5274 42.2084 36.1632L42.2117 36.1639Z" fill="#0070E0"/>
</g>
<defs>
<clipPath id="clip0">
<rect width="48" height="47.5432" fill="white"/>
</clipPath>
</defs>
</svg>
