<svg width="349" height="225" viewBox="0 0 349 225" fill="none" xmlns="http://www.w3.org/2000/svg">
<g clip-path="url(#clip0_34_210)">
<path d="M348.297 222.02H0.970093V224.559H348.297V222.02Z" fill="#85848B"/>
<path d="M140.006 141.379C142.2 141.66 144.477 141.839 146.578 141.157C146.909 141.054 147.273 140.826 147.24 140.495C147.216 140.375 147.165 140.262 147.091 140.164C146.299 138.976 145.633 137.709 145.105 136.382C145.085 136.313 145.042 136.252 144.983 136.21C144.915 136.185 144.84 136.185 144.771 136.21C143.802 136.465 142.964 137.09 142.001 137.358C141.51 137.493 140.998 137.531 140.492 137.471C140.056 137.421 139.46 137.06 139.063 137.107C139.288 138.553 139.837 139.903 140.006 141.379Z" fill="#6C63FF"/>
<path d="M181.5 137.716C182.946 136.723 184.445 135.68 185.299 134.148C185.36 134.057 185.395 133.95 185.401 133.841C185.387 133.732 185.345 133.63 185.279 133.543C184.466 132.25 183.419 131.12 182.192 130.21C181.551 130.663 180.973 131.197 180.471 131.799C180.107 132.183 179.101 132.792 179.091 133.377C179.091 133.708 179.475 134.092 179.653 134.37C179.895 134.727 180.123 135.091 180.342 135.462C180.467 135.644 181.616 137.643 181.5 137.716Z" fill="#6C63FF"/>
<path d="M148.607 145.81C148.632 146.151 148.539 146.49 148.342 146.77C148.187 146.925 147.996 147.039 147.786 147.1C144.718 148.199 141.167 146.829 138.106 147.911C137.478 148.133 136.882 148.454 136.25 148.666C135.496 148.892 134.719 149.03 133.934 149.076C132.851 149.179 131.763 149.245 130.677 149.275C129.853 149.333 129.024 149.26 128.222 149.059C127.821 148.957 127.446 148.771 127.121 148.514C126.797 148.257 126.53 147.934 126.339 147.567C126.173 147.238 126.139 146.858 126.246 146.505C126.294 146.384 126.363 146.272 126.448 146.174C126.656 145.941 126.899 145.743 127.17 145.588L128.298 144.86C128.827 144.486 129.402 144.181 130.009 143.953C130.456 143.808 130.929 143.745 131.382 143.622C132.967 143.159 134.178 141.902 135.304 140.694L136.839 139.056C136.983 138.876 137.165 138.73 137.372 138.629C137.585 138.558 137.811 138.536 138.034 138.566C139.525 138.673 140.965 139.155 142.22 139.969C142.54 140.21 142.887 140.414 143.252 140.578C144.152 140.929 145.307 140.664 146.138 140.221C146.532 140.009 146.446 139.89 146.611 139.512C146.777 139.135 147.18 138.894 147.531 139.238C147.637 139.357 147.712 139.5 147.749 139.655C148.08 140.747 147.955 141.922 147.955 143.067C147.945 143.246 147.967 143.425 148.021 143.596C148.105 143.769 148.206 143.933 148.322 144.086C148.346 144.126 148.367 144.168 148.385 144.212C148.587 144.718 148.663 145.267 148.607 145.81Z" fill="#514E7F"/>
<path d="M148.607 145.81C148.632 146.151 148.539 146.49 148.342 146.769C148.187 146.925 147.996 147.039 147.786 147.1C144.718 148.199 141.167 146.829 138.106 147.911C137.478 148.133 136.882 148.454 136.25 148.666C135.496 148.892 134.719 149.03 133.934 149.076C132.851 149.178 131.763 149.245 130.677 149.274C129.853 149.333 129.024 149.26 128.222 149.059C127.821 148.957 127.446 148.771 127.121 148.514C126.797 148.256 126.53 147.934 126.339 147.567C126.173 147.238 126.139 146.857 126.246 146.505C126.294 146.384 126.363 146.272 126.448 146.174C126.627 146.548 126.756 147.044 126.868 147.223C127.02 147.488 127.227 147.717 127.475 147.896C127.722 148.074 128.005 148.198 128.305 148.259C128.753 148.286 129.202 148.229 129.628 148.09C132.408 147.401 135.363 147.392 138.034 146.349C138.95 145.988 139.824 145.509 140.787 145.29C141.75 145.072 142.772 145.131 143.765 145.049C145.334 144.923 146.853 144.45 148.398 144.201C148.598 144.713 148.669 145.265 148.607 145.81Z" fill="#464353"/>
<path d="M188.525 137.514C188.38 138.679 187.642 139.681 186.831 140.532C186.02 141.382 185.104 142.147 184.458 143.126C183.664 144.341 183.307 145.846 182.274 146.872C181.878 147.245 181.433 147.562 180.951 147.815C180.411 148.134 179.84 148.397 179.246 148.6C177.704 149.093 176.043 148.98 174.431 148.861C173.908 148.856 173.39 148.756 172.903 148.566C172.681 148.454 172.468 148.323 172.267 148.176C171.863 147.927 171.523 147.587 171.274 147.183C171.152 146.964 171.118 146.706 171.178 146.462C171.271 146.193 171.429 145.952 171.638 145.76C172.001 145.383 172.39 145.033 172.803 144.711C173.37 144.346 173.88 143.9 174.319 143.388C174.588 142.983 174.786 142.535 174.905 142.064C175.139 141.238 175.282 140.389 175.332 139.532C175.33 138.963 175.388 138.395 175.507 137.838C175.752 136.964 176.4 136.183 176.328 135.28C176.298 135.151 176.31 135.015 176.361 134.893C176.438 134.797 176.545 134.731 176.665 134.704C177.171 134.503 177.704 134.379 178.247 134.337C178.519 134.318 178.792 134.36 179.046 134.46C179.3 134.559 179.529 134.714 179.716 134.913C179.941 135.184 180.09 135.575 180.421 135.68C180.585 135.725 180.757 135.732 180.924 135.7C181.738 135.618 182.599 135.515 183.24 134.989C183.537 134.723 183.776 134.398 183.941 134.035C184.106 133.672 184.194 133.279 184.2 132.881C184.2 132.58 184.064 132.265 184.531 132.219C184.882 132.173 185.16 132.55 185.339 132.782C185.984 133.645 186.646 134.549 186.887 135.601C186.981 135.565 187.081 135.545 187.182 135.545C187.388 135.543 187.592 135.591 187.776 135.685C187.96 135.779 188.118 135.916 188.237 136.084C188.501 136.511 188.603 137.018 188.525 137.514Z" fill="#514E7F"/>
<path d="M188.525 137.514C188.38 138.678 187.642 139.681 186.831 140.532C186.02 141.382 185.104 142.146 184.458 143.126C183.664 144.34 183.307 145.846 182.274 146.872C181.878 147.245 181.433 147.562 180.951 147.815C180.411 148.134 179.84 148.397 179.246 148.599C177.704 149.093 176.043 148.98 174.432 148.861C173.908 148.856 173.39 148.756 172.903 148.566C172.681 148.454 172.468 148.323 172.267 148.176C171.863 147.927 171.523 147.587 171.275 147.183C171.585 147.034 171.923 146.953 172.267 146.945C172.982 146.985 173.505 147.66 174.19 147.868C175.166 148.163 176.139 147.474 177.129 147.239C177.774 147.087 178.452 147.127 179.091 146.908C179.623 146.703 180.115 146.405 180.544 146.028C181.131 145.608 181.654 145.104 182.096 144.532C182.462 143.961 182.767 143.352 183.006 142.716C183.528 141.497 184.143 140.32 184.846 139.195C184.949 139.017 185.075 138.852 185.219 138.705C185.375 138.563 185.55 138.463 185.726 138.338C186.388 137.838 186.662 137.014 186.894 136.206C186.957 135.961 187.044 135.723 187.155 135.495C187.362 135.493 187.566 135.541 187.749 135.635C187.933 135.729 188.092 135.866 188.211 136.034C188.496 136.471 188.608 136.999 188.525 137.514Z" fill="#464353"/>
<path d="M119.135 34.3395C119.958 34.9568 120.636 35.7476 121.12 36.656C121.584 37.5627 124.254 44.5981 124.099 45.6206C124.969 44.7437 128.401 44.6014 129.281 43.7244C129.648 43.3571 131.63 41.5238 131.928 41.0969C132.226 40.67 134.436 39.7732 134.678 39.3232C135.581 37.705 128.271 31.5731 129.208 29.9747C129.26 29.9013 129.286 29.8131 129.284 29.7232C129.263 29.6478 129.22 29.58 129.162 29.528C128.563 28.9158 127.768 28.5352 127.047 28.0819C126.326 27.6285 125.631 26.9964 125.435 26.1625C124.748 26.4792 124.116 26.9062 123.566 27.4266C122.224 28.576 120.906 29.7486 119.611 30.9443C119.105 31.4142 118.125 32.0397 117.89 32.7114C117.613 33.4328 118.652 33.9458 119.135 34.3395Z" fill="#A1616A"/>
<path d="M130.969 31.7351C129.847 32.4888 128.799 33.3464 127.838 34.2964C126.931 35.1932 126.071 36.2323 125.853 37.4865C125.76 37.9796 125.773 38.4793 125.697 38.979C125.366 41.1465 123.493 42.7349 122.666 44.7634C122.426 45.3895 122.25 46.0381 122.14 46.6993C121.907 47.9528 121.78 49.2236 121.759 50.4983C121.739 51.7326 122.95 52.5831 123.394 53.7347C123.837 54.8863 123.956 56.071 124.181 57.2523C124.605 59.4827 125.383 61.6337 126.167 63.7715C127.798 68.2786 133.086 80.7377 134.718 85.2481C139.718 83.9939 153.028 81.1116 157.455 78.4676C158.931 77.5873 147.213 67.6564 148.792 66.9714C148.882 66.9574 148.968 66.9226 149.042 66.8697C149.117 66.8168 149.178 66.7474 149.221 66.6668C149.264 66.5863 149.288 66.4968 149.29 66.4055C149.293 66.3142 149.274 66.2236 149.235 66.1408C147.657 59.2379 142.719 53.5659 140.479 46.8449C139.701 44.5119 138.305 42.5198 137.246 40.3026C136.286 38.294 135.773 36.0735 134.625 34.1641C134.409 33.7707 134.125 33.418 133.788 33.1217C133.502 32.9021 133.192 32.7145 132.865 32.5624C132.209 32.2447 131.601 32.0561 130.969 31.7351Z" fill="#FF0000"/>
<path d="M119.399 33.5553C123.722 33.5553 127.226 30.0514 127.226 25.7291C127.226 21.4067 123.722 17.9028 119.399 17.9028C115.077 17.9028 111.573 21.4067 111.573 25.7291C111.573 30.0514 115.077 33.5553 119.399 33.5553Z" fill="#A1616A"/>
<path d="M127.361 29.4055C127.751 29.0458 128.241 28.8127 128.767 28.7371C129.292 28.6615 129.828 28.7469 130.303 28.982C130.833 29.2566 131.296 29.8126 131.177 30.395L135.059 30.4545C135.676 30.4376 136.294 30.4943 136.899 30.6233C137.507 30.7558 138.05 31.0963 138.434 31.5863C138.48 31.6492 138.533 31.7253 138.613 31.7352C138.677 31.7362 138.74 31.7152 138.791 31.6756C139.389 31.3762 140.061 31.261 140.724 31.3447C142.822 31.4804 144.761 32.5294 146.406 33.8399C146.702 34.0437 146.933 34.3303 147.068 34.6638C147.203 35.104 147.041 35.6566 147.399 35.971C147.399 39.6111 148.65 43.0129 149.483 46.5604C149.632 47.1925 150.238 47.7517 150.658 48.2481C151.177 48.7984 151.601 49.4314 151.912 50.1211C152.621 51.961 151.644 54.1252 152.333 55.9718C152.624 56.7527 153.186 57.3947 153.656 58.0731C154.276 58.8564 154.667 59.7953 154.788 60.7866C154.818 61.2301 154.762 61.6768 154.788 62.1103C154.832 62.7066 154.943 63.296 155.119 63.8675C155.401 64.9353 155.697 66.0019 156.006 67.0675C156.509 68.7883 157.164 70.6447 158.706 71.5614C154.983 72.1934 151.059 72.8123 147.511 71.5184C147.016 71.3496 146.547 71.1147 146.115 70.8201C144.834 69.9068 144.215 68.3448 143.663 66.8689C143.047 65.2143 142.422 63.53 142.296 61.7695C142.297 61.2095 142.218 60.6523 142.061 60.1149C141.7 59.1552 140.737 58.5761 139.864 58.0433C138.877 57.5027 137.983 56.8079 137.216 55.985C136.836 55.5705 136.544 55.0824 136.36 54.5508C136.175 54.0191 136.102 53.4553 136.144 52.8942C136.21 52.3482 136.425 51.822 136.445 51.2727C136.465 50.7234 136.22 50.0946 135.694 49.949C132.984 49.1283 131.69 45.9184 131.088 43.1519C130.828 41.7221 130.711 40.2699 130.74 38.8169L130.704 35.9941C130.33 35.6539 130.029 35.2411 129.82 34.7808C129.61 34.3206 129.497 33.8225 129.486 33.317C129.522 33.0221 129.516 32.7235 129.469 32.4301C129.338 32.0715 129.125 31.7485 128.847 31.487C128.249 30.8729 127.748 30.171 127.361 29.4055Z" fill="#464353"/>
<path d="M119.026 38.3536C118.936 39.2272 119.135 40.124 118.94 40.9811C118.864 41.312 118.731 41.6429 118.635 41.9507C118.342 43.1843 118.469 44.4805 118.996 45.6338C119.522 46.7757 120.153 47.8668 120.879 48.8933C121.124 49.2438 121.327 49.6227 121.481 50.0218C121.606 50.4409 121.684 50.8726 121.713 51.3091C121.904 53.0615 122.212 54.7993 122.633 56.5111C123.003 57.9936 127.213 70.6679 128.192 71.8426C128.37 72.1027 128.639 72.286 128.947 72.3555C129.168 72.3639 129.388 72.3185 129.589 72.2232L131.574 71.4621C131.743 71.4104 131.899 71.3248 132.034 71.2106C132.22 70.9932 132.321 70.7157 132.319 70.4296C132.461 68.8147 128.242 56.0511 127.706 54.5256C126.084 49.9192 123.927 45.4783 122.871 40.7097C122.576 39.386 122.421 37.3476 121.451 36.2919C121.051 35.8551 121.187 36.0404 120.707 36.2688C120.464 36.374 120.23 36.4967 120.005 36.6361C119.724 36.8313 119.491 37.0869 119.321 37.384C119.152 37.6812 119.051 38.0124 119.026 38.3536Z" fill="#464353"/>
<path d="M125.052 47.0932C125.584 49.9093 126.134 52.7188 126.68 55.5349L134.45 53.4998C134.513 52.6857 134.079 51.9312 133.788 51.1833C133.08 49.4063 133.063 47.4274 132.491 45.6007C132.057 44.2109 131.303 42.9335 130.896 41.5337C130.661 40.7197 130.542 39.8791 130.31 39.0551C130.061 38.246 129.756 37.4553 129.397 36.6891C128.96 35.5778 128.392 34.5234 127.702 33.5486C126.71 33.9193 125.651 34.3495 125.085 35.2463C124.794 35.7516 124.629 36.3188 124.602 36.9009C124.466 38.6448 125.098 40.3987 124.889 42.1327C124.675 43.7841 124.73 45.4594 125.052 47.0932Z" fill="#DADADA"/>
<path d="M134.579 84.5533C135.016 86.2079 134.384 87.9485 133.867 89.5866C133.09 92.0539 132.56 94.5924 132.286 97.1646C132.252 97.8192 132.12 98.4651 131.895 99.0807C131.65 99.6333 131.233 100.1 130.949 100.626C130.168 102.009 130.188 103.697 130.356 105.279C130.469 106.321 130.638 107.36 130.846 108.386C131.101 109.64 131.415 110.951 131.048 112.175C131.663 112.039 132.08 112.837 132.041 113.462C132.001 114.088 131.799 114.786 132.1 115.326C132.861 115.603 132.868 116.649 132.845 117.46C132.857 118.866 133.035 120.265 133.374 121.63C134.526 127.167 135.748 132.689 137.041 138.195C139.837 139.062 143.103 139.966 145.771 138.765C146.267 138.543 146.763 138.189 146.876 137.653C146.905 137.364 146.869 137.072 146.77 136.799L145.506 132.199C145.198 131.087 144.89 129.939 145.052 128.797C145.175 127.947 145.546 127.03 145.129 126.279C144.986 126.021 144.761 125.819 144.596 125.574C143.934 124.605 144.281 123.307 144.334 122.133C144.355 121.869 144.337 121.604 144.281 121.345C144.191 121.043 144.064 120.753 143.904 120.481C142.859 118.453 142.358 116.189 142.448 113.909C142.488 113.618 142.448 113.322 142.332 113.052C142.252 112.941 142.18 112.823 142.117 112.701C142.068 112.489 142.092 112.266 142.187 112.069C141.807 111.782 141.465 111.448 141.167 111.077C141.351 110.962 141.506 110.808 141.621 110.625C141.737 110.442 141.809 110.236 141.832 110.021C141.856 109.806 141.83 109.589 141.758 109.385C141.685 109.182 141.567 108.997 141.412 108.846C141.547 108.819 141.672 108.755 141.773 108.661C141.874 108.567 141.946 108.447 141.983 108.315C142.02 108.182 142.019 108.042 141.981 107.909C141.942 107.777 141.868 107.658 141.766 107.565C141.604 107.453 141.389 107.403 141.273 107.235C141.095 106.99 141.24 106.649 141.386 106.387L142.157 104.994C142.733 103.958 142.862 102.678 143.481 101.685C144.367 100.239 144.947 98.6273 145.519 97.0323L147.746 90.8871L149.245 92.1876C149.745 92.5691 150.163 93.046 150.476 93.5907C150.689 94.129 150.824 94.6952 150.877 95.2718C151.426 98.6075 153.524 101.5 154.302 104.786C154.474 105.517 154.59 106.285 155.01 106.91C155.16 107.102 155.295 107.306 155.414 107.519C155.523 107.844 155.58 108.185 155.582 108.528C155.652 109.201 155.865 109.85 156.208 110.432C156.55 111.015 157.014 111.517 157.568 111.904C158.306 112.41 159.222 112.758 159.623 113.558C159.703 113.806 159.814 114.043 159.954 114.263C160.311 114.693 161.082 114.743 161.234 115.283C161.321 115.584 161.162 115.944 161.33 116.209C161.426 116.332 161.553 116.426 161.698 116.484L163.852 117.559C166.261 118.764 167.492 121.53 169.269 123.546C169.883 124.202 170.426 124.921 170.891 125.69C171.658 127.063 172.013 128.787 173.31 129.661C173.658 129.842 173.976 130.078 174.25 130.359C174.657 130.895 174.508 131.646 174.544 132.322C174.58 132.997 175.097 133.801 175.739 133.596C175.514 134.413 175.514 135.276 175.739 136.094C178.557 135.949 181.245 134.861 183.37 133.003C183.998 132.454 184.604 131.752 184.611 130.918C184.62 130.775 184.588 130.631 184.518 130.505C184.391 130.342 184.223 130.215 184.032 130.137C182.016 129.045 181.411 126.514 180.391 124.459C179.501 122.645 178.184 121.084 177.082 119.399C174.686 115.776 173.052 111.391 169.428 108.998C168.631 108.472 167.704 108.006 167.304 107.135C167.082 106.649 167.055 106.093 166.88 105.59C166.705 105.087 166.284 104.597 165.748 104.597C166.046 103.869 165.986 102.982 166.006 102.195C166.027 101.845 165.986 101.495 165.887 101.159C165.75 100.798 165.571 100.453 165.354 100.133C164.409 98.5323 163.936 96.6965 163.991 94.8383C164.018 93.8819 164.186 92.8958 163.898 91.9824C163.753 91.5225 163.498 91.1022 163.323 90.6588C163.058 89.8553 162.919 89.016 162.909 88.1703L162.71 84.9901C162.68 83.931 162.543 82.8777 162.3 81.8464C161.638 79.3777 160.976 69.0365 158.71 67.8716C156.443 66.7068 152.548 74.6654 149.996 74.821C148.868 74.8679 147.752 75.0832 146.687 75.4596C144.99 76.095 143.567 77.2797 142.18 78.4379L137.488 82.3792C136.495 83.1965 135.674 83.9775 134.579 84.5533Z" fill="#464353"/>
<path d="M112.056 17.039C113.089 15.6293 114.863 14.8814 116.61 14.8185C118.357 14.7556 120.078 15.3049 121.643 16.0826C122.105 16.3453 122.599 16.5477 123.112 16.6849C123.94 16.8537 124.86 16.6286 125.608 17.0158C126.6 17.542 126.792 18.8822 126.706 19.9941C126.62 21.106 126.412 22.3403 127.004 23.3033C127.214 23.5779 127.405 23.8665 127.577 24.167C127.831 24.7395 127.682 25.4013 127.53 26.0069C127.143 25.676 126.925 25.1763 126.581 24.7924C126.236 24.4085 125.637 24.1504 125.211 24.4383C124.784 24.7262 124.79 25.2491 124.767 25.719C124.744 26.1889 124.625 26.7515 124.181 26.9037C123.996 26.9458 123.803 26.9315 123.626 26.8624C123.449 26.7934 123.296 26.6729 123.189 26.5165C122.431 25.5899 122.735 24.1107 121.984 23.1775C121.557 22.6481 120.846 22.3899 120.452 21.834C120.141 21.3972 120.061 20.8412 119.79 20.3713C119.519 19.9014 118.887 19.5573 118.466 19.8816C118.323 20.0186 118.203 20.1785 118.112 20.3548C117.85 20.7302 117.469 21.0062 117.031 21.1383C116.593 21.2704 116.122 21.2509 115.697 21.0828C115.371 20.883 115.019 20.7304 114.651 20.6294C114.41 20.6174 114.17 20.673 113.959 20.7899C113.748 20.9069 113.574 21.0805 113.456 21.2913C113.219 21.7123 113.104 22.1916 113.125 22.6745C113.125 23.3364 113.244 24.0412 112.867 24.5707C112.724 24.77 112.544 24.9406 112.338 25.0737C111.785 25.4278 111.014 25.666 110.504 25.2623C110.332 25.1014 110.203 24.8988 110.131 24.674C110.06 24.4491 110.047 24.2096 110.094 23.9784C110.193 23.5178 110.324 23.0645 110.485 22.6216C110.776 21.5957 110.395 20.4408 110.713 19.4745C111.046 18.6043 111.498 17.7846 112.056 17.039Z" fill="#464353"/>
<path d="M116.249 40.3855C116.2 40.6266 116.225 40.8773 116.322 41.1036C116.42 41.2577 116.554 41.3859 116.713 41.4775C117.825 42.1708 119.091 42.5809 120.399 42.6721C120.577 42.6752 120.752 42.7206 120.909 42.8045C121.22 43.0097 121.24 43.4663 121.124 43.8303C120.969 44.1737 120.889 44.5459 120.889 44.9224C120.985 45.614 121.805 45.9151 122.497 46.0177C123.467 46.1402 124.529 46.0773 125.297 45.4717C125.817 44.9974 126.213 44.4033 126.452 43.741C128.351 39.3762 129.016 34.5514 130.939 30.1998C131.084 29.9156 131.182 29.6092 131.227 29.293C131.247 29.1348 131.225 28.974 131.162 28.8273C131.099 28.6807 130.998 28.5536 130.869 28.4591C130.512 28.2374 129.956 28.3632 129.714 28.0157C129.595 27.8403 129.609 27.602 129.503 27.4167C129.281 27.0229 128.698 27.0858 128.301 26.8575C127.99 26.692 127.775 26.3512 127.428 26.285C127.257 26.2753 127.087 26.3056 126.93 26.3734C126.773 26.4412 126.634 26.5446 126.524 26.6755C125.396 27.7278 124.804 29.2202 124.175 30.63C123.215 32.7908 122.091 34.8751 120.813 36.8645C120.962 36.6328 120.098 34.879 119.76 34.8029C119.168 34.6837 118.41 35.7228 118.089 36.11C117.082 37.3312 116.444 38.8144 116.249 40.3855Z" fill="#DADADA"/>
<path opacity="0.1" d="M128.272 27.1651C128.034 27.1691 127.8 27.2265 127.588 27.333C127.375 27.4396 127.189 27.5926 127.044 27.7807C126.69 28.2406 126.62 28.8495 126.531 29.4352C126.23 31.2909 125.567 33.0696 124.582 34.6704" fill="black"/>
<path opacity="0.1" d="M129.959 28.4855C129.631 28.4928 129.311 28.5855 129.029 28.7543C128.748 28.9232 128.515 29.1624 128.354 29.4485C128.135 29.969 127.999 30.5206 127.951 31.0832C127.667 32.3307 127.12 33.503 126.346 34.5215" fill="black"/>
<path d="M208.605 93.1802V89.0702C208.605 86.0446 207.402 83.1432 205.262 81.0041C203.123 78.865 200.221 77.6634 197.195 77.6634H34.8826C31.8571 77.6634 28.9554 78.865 26.8156 81.0041C24.6759 83.1432 23.4734 86.0446 23.4725 89.0702V96.6482L208.605 93.1802Z" fill="#33323D"/>
<path d="M80.0366 72.8452C80.0366 72.8452 79.5733 101.589 84.6695 111.047C89.7656 120.504 91.9497 161.648 91.9497 161.648C91.9497 161.648 145.373 167.174 182.602 155.029C219.83 142.884 299.046 137.917 299.046 137.917L285.697 47.9435C285.697 47.9435 219.748 43.7144 182.231 61.6072C144.715 79.5 80.0366 72.8452 80.0366 72.8452Z" fill="#8DD070"/>
<path opacity="0.1" d="M80.0366 72.8452C80.0366 72.8452 79.5733 101.589 84.6695 111.047C89.7656 120.504 91.9497 161.648 91.9497 161.648C91.9497 161.648 145.373 167.174 182.602 155.029C219.83 142.884 299.046 137.917 299.046 137.917L285.697 47.9435C285.697 47.9435 219.748 43.7144 182.231 61.6072C144.715 79.5 80.0366 72.8452 80.0366 72.8452Z" fill="black"/>
<path d="M91.8604 83.3453C91.8604 83.3453 90.1893 107.062 94.382 114.64C98.5748 122.218 98.77 156.048 98.77 156.048C98.77 156.048 146.849 158.279 181.05 146.637C215.25 134.995 287.12 127.444 287.12 127.444L278.952 53.8637C278.952 53.8637 219.486 53.2515 184.779 69.6387C150.072 86.0258 91.8604 83.3453 91.8604 83.3453Z" fill="#8DD070"/>
<path opacity="0.1" d="M184.251 133.165C191.092 132.313 195.156 119.728 193.329 105.056C191.501 90.3843 184.474 79.181 177.633 80.0331C170.792 80.8852 166.728 93.47 168.556 108.142C170.383 122.814 177.41 134.017 184.251 133.165Z" fill="black"/>
<path opacity="0.2" d="M249.54 4.1132C249.54 4.1132 185.471 20.3283 155.258 48.8701C125.045 77.4119 61.4423 90.9266 61.4423 90.9266C61.4423 90.9266 69.8211 118.423 77.5713 125.862C85.3214 133.301 100.021 171.793 100.021 171.793C100.021 171.793 152.561 160.655 184.263 137.662C215.965 114.67 289.85 85.6319 289.85 85.6319L249.54 4.1132Z" fill="black"/>
<path d="M60.4794 86.8101C60.4794 86.8101 68.8549 114.31 76.5985 121.749C84.342 129.188 99.048 167.677 99.048 167.677C99.048 167.677 151.595 156.542 183.3 133.549C215.006 110.557 288.883 81.5287 288.883 81.5287L248.574 0C248.574 0 184.508 16.2151 154.295 44.7569C124.082 73.2987 60.4794 86.8101 60.4794 86.8101Z" fill="#8DD070"/>
<path opacity="0.1" d="M60.4794 86.8101C60.4794 86.8101 68.8549 114.31 76.5985 121.749C84.342 129.188 99.048 167.677 99.048 167.677C99.048 167.677 151.595 156.542 183.3 133.549C215.006 110.557 288.883 81.5287 288.883 81.5287L248.574 0C248.574 0 184.508 16.2151 154.295 44.7569C124.082 73.2987 60.4794 86.8101 60.4794 86.8101Z" fill="black"/>
<path d="M74.9438 93.1771C74.9438 93.1771 80.6324 116.265 86.9496 122.189C93.2669 128.112 103.827 160.245 103.827 160.245C103.827 160.245 150.268 147.61 179.246 126.034C208.225 104.458 274.316 75.2478 274.316 75.2478L243.968 7.70054C243.968 7.70054 187.185 25.3617 159.179 51.6103C131.174 77.8588 74.9438 93.1771 74.9438 93.1771Z" fill="#8DD070"/>
<path opacity="0.1" d="M178.175 112.241C184.424 109.331 184.431 96.106 178.189 82.7025C171.948 69.2991 161.822 60.7926 155.572 63.7028C149.323 66.613 149.317 79.8377 155.558 93.2412C161.8 106.645 171.926 115.151 178.175 112.241Z" fill="black"/>
<path opacity="0.1" d="M212.987 97.2143V211.382C212.987 212.678 212.732 213.962 212.235 215.16C211.739 216.358 211.012 217.446 210.095 218.363C209.178 219.28 208.089 220.007 206.891 220.502C205.693 220.998 204.409 221.253 203.112 221.253H33.3506C30.7331 221.252 28.2231 220.212 26.3726 218.361C24.5221 216.509 23.4825 213.999 23.4825 211.382V85.7049C28.3471 87.5118 28.3471 87.5118 33.3506 87.3595H203.112C205.728 87.3595 208.236 88.3972 210.088 90.2447C211.939 92.0923 212.982 94.5989 212.987 97.2143Z" fill="black"/>
<path d="M212.987 98.6671V212.834C212.986 215.453 211.945 217.963 210.094 219.815C208.242 221.666 205.731 222.706 203.112 222.706H33.3506C30.7331 222.705 28.2231 221.664 26.3726 219.813C24.5221 217.962 23.4825 215.452 23.4825 212.834V87.1544C28.3471 88.9579 28.3471 88.9579 33.3506 88.809H203.112C205.728 88.809 208.238 89.847 210.089 91.6953C211.94 93.5436 212.983 96.051 212.987 98.6671Z" fill="#D5E1ED"/>
<path opacity="0.1" d="M212.504 140.876V168.973H185.254C181.561 168.923 178.036 167.421 175.442 164.792C172.848 162.163 171.394 158.618 171.394 154.924C171.394 151.231 172.848 147.686 175.442 145.057C178.036 142.428 181.561 140.926 185.254 140.876H212.504Z" fill="black"/>
<path d="M212.987 139.903V167.883H185.856C182.179 167.834 178.669 166.338 176.086 163.72C173.504 161.103 172.056 157.573 172.056 153.896C172.056 150.218 173.504 146.689 176.086 144.071C178.669 141.453 182.179 139.957 185.856 139.908L212.987 139.903Z" fill="#33323D"/>
<path opacity="0.1" d="M179.276 166.251C183.207 166.251 186.394 163.064 186.394 159.133C186.394 155.202 183.207 152.015 179.276 152.015C175.345 152.015 172.158 155.202 172.158 159.133C172.158 163.064 175.345 166.251 179.276 166.251Z" fill="black"/>
<path d="M187.039 160.982C190.971 160.982 194.158 157.795 194.158 153.864C194.158 149.933 190.971 146.746 187.039 146.746C183.108 146.746 179.921 149.933 179.921 153.864C179.921 157.795 183.108 160.982 187.039 160.982Z" fill="#D5E1ED"/>
<path d="M157.561 67.3222C156.916 67.8962 156.319 68.5226 155.778 69.1952C155.232 69.8771 154.942 70.728 154.957 71.601C154.96 71.8542 155.041 72.1003 155.188 72.3059C155.264 72.4042 155.368 72.4766 155.487 72.5127C155.606 72.5489 155.733 72.5472 155.85 72.5077C155.983 72.4399 156.097 72.3398 156.181 72.2165C156.531 71.7962 156.902 71.3942 157.293 71.012C157.435 70.8697 157.624 70.7208 157.816 70.7737C157.902 70.8042 157.979 70.8553 158.041 70.9226C158.264 71.1151 158.426 71.368 158.508 71.6506C158.623 72.1569 158.329 72.6633 157.995 73.0604C157.66 73.4575 157.267 73.838 157.131 74.3377C157.08 74.4697 157.08 74.6161 157.131 74.748C157.195 74.8435 157.284 74.9192 157.389 74.9664C157.863 75.2274 158.388 75.381 158.928 75.4164C159.468 75.4519 160.009 75.3683 160.513 75.1716C161.175 74.9036 161.764 74.4436 162.446 74.2053C162.741 74.1246 163.027 74.0137 163.299 73.8744C163.494 73.7446 163.662 73.5775 163.792 73.3827C163.922 73.1879 164.012 72.9692 164.057 72.7394C164.143 72.2801 164.16 71.8104 164.107 71.3462C164.024 69.5485 163.639 67.7775 162.968 66.1077C162.93 66 162.863 65.9043 162.776 65.8298C162.677 65.7691 162.562 65.7381 162.446 65.7404C161.598 65.6511 160.209 65.2176 159.391 65.5319C159.105 65.6887 158.859 65.9082 158.67 66.1739C158.518 66.3427 157.561 67.1005 157.561 67.3222Z" fill="#A1616A"/>
<path d="M157.293 66.5745C157.293 65.7671 156.3 63.818 157.879 63.6889C157.879 62.8252 156.658 62.2891 156.886 61.3725C156.959 61.068 157.217 60.8199 157.247 60.5088C157.346 59.6252 155.751 59.1454 156.016 58.2982C156.115 57.9673 156.466 57.7754 156.542 57.4478C156.721 56.6834 155.354 56.3425 155.327 55.5582C155.327 55.2935 155.476 55.0453 155.463 54.7806C155.463 54.4496 155.175 54.1982 155.016 53.9103C154.603 53.1723 154.805 52.0306 154.05 51.6501C154.55 51.6931 154.712 50.9518 154.507 50.4985C154.302 50.0451 153.881 49.6513 153.878 49.1483C153.903 48.9661 153.903 48.7813 153.878 48.599C153.739 48.1158 152.948 48.0761 152.816 47.6062C152.799 47.4259 152.793 47.2446 152.799 47.0635C152.746 46.6896 152.362 46.4513 152.002 46.3454C151.627 46.2818 151.266 46.153 150.936 45.9649C150.705 45.7895 150.437 45.4983 150.188 45.634C150.096 45.6902 150.049 45.7961 149.98 45.8755C149.682 46.223 149.113 46.0708 148.739 45.816C147.634 45.0648 147.084 43.7179 146.849 42.4042C146.614 41.0904 146.621 39.7337 146.326 38.4331C146.237 38.0278 146.117 37.6297 145.969 37.2418C145.843 36.9109 145.44 36.3914 145.413 36.0571C145.354 35.296 146.929 35.8156 147.528 35.8917C148.109 35.9485 148.684 36.0593 149.245 36.2226C149.844 36.4488 150.43 36.7062 151.002 36.9936C153.392 38.0493 156.277 38.1783 158.197 39.9521C158.829 40.5345 159.361 41.2989 160.182 41.5636C160.558 41.6358 160.93 41.732 161.294 41.8515C162.204 42.2784 162.346 43.4863 162.843 44.3599C162.999 44.5906 163.135 44.8342 163.25 45.0879C163.345 45.3872 163.39 45.7004 163.382 46.0145L163.452 48.3078C163.564 52.1498 163.677 56.0017 163.266 59.8205C163.134 61.0813 162.935 62.3785 163.309 63.5897C163.409 63.9206 163.548 64.2316 163.64 64.5659C163.722 64.9577 163.764 65.3569 163.766 65.7572L163.819 67.243C163.837 67.3585 163.811 67.4768 163.746 67.5739C163.691 67.6188 163.626 67.6508 163.557 67.6674C163.487 67.684 163.415 67.6849 163.346 67.6699C161.277 67.4846 159.186 66.3197 157.234 67.0246" fill="#464353"/>
<g opacity="0.1">
<path opacity="0.1" d="M252.734 37.821C252.443 38.1373 252.079 38.3781 251.675 38.5225C249.504 39.4259 247.062 39.3234 244.725 39.1844C244.475 39.1869 244.227 39.1314 244.001 39.0222C243.643 38.8137 243.508 38.3769 243.398 37.9798C242.942 36.3252 242.521 34.8063 241.436 33.4264C241.227 33.1081 240.917 32.8692 240.556 32.748C240.215 32.7159 239.872 32.7484 239.543 32.844C239.379 32.8914 239.205 32.8956 239.039 32.8562C238.872 32.8168 238.719 32.7351 238.593 32.6189C238.458 32.4187 238.397 32.1776 238.421 31.9372C238.421 31.2423 238.577 30.4646 238.143 29.9252C237.902 29.6241 237.518 29.462 237.27 29.1641C237.108 28.9446 237.009 28.6852 236.982 28.4137C236.956 28.1421 237.004 27.8685 237.121 27.622C236.707 28.2839 236.532 29.1145 237.012 29.6837C237.26 29.9782 237.644 30.1403 237.885 30.4415C238.319 30.9842 238.173 31.7652 238.163 32.4535C238.138 32.6935 238.198 32.9347 238.332 33.1352C238.458 33.2524 238.611 33.3351 238.778 33.3751C238.945 33.4151 239.12 33.4111 239.285 33.3635C239.613 33.2647 239.957 33.2321 240.298 33.2675C240.656 33.3842 240.966 33.6171 241.178 33.9294C242.26 35.3093 242.684 36.8249 243.14 38.4861C243.194 38.8949 243.398 39.269 243.713 39.5351C243.94 39.6445 244.189 39.6989 244.441 39.694C246.787 39.8396 249.233 39.9455 251.39 39.0321C251.795 38.8887 252.159 38.6477 252.449 38.3306C252.595 38.1442 252.707 37.9336 252.78 37.7085C252.783 37.7515 252.76 37.7879 252.734 37.821Z" fill="black"/>
<path opacity="0.1" d="M237.756 26.5995C237.86 26.4866 237.94 26.3537 237.991 26.209C238.021 26.0415 238.021 25.8701 237.991 25.7027C237.927 24.7592 238.049 23.8123 238.352 22.9163L238.309 22.8667C237.856 23.9241 237.666 25.0755 237.756 26.2222C237.766 26.3478 237.766 26.4739 237.756 26.5995Z" fill="black"/>
</g>
<path d="M294.606 214.43C294.606 216.383 283.226 222.075 269.708 222.075C256.19 222.075 245.657 216.383 245.657 214.43C245.657 212.478 256.613 213.107 270.145 213.107C283.676 213.107 294.606 212.475 294.606 214.43Z" fill="#504F60"/>
<path opacity="0.2" d="M294.606 214.431C294.606 216.383 283.226 222.075 269.708 222.075C256.19 222.075 245.657 216.383 245.657 214.431" fill="black"/>
<path d="M270.141 217.968C283.658 217.968 294.616 216.384 294.616 214.43C294.616 212.477 283.658 210.893 270.141 210.893C256.624 210.893 245.667 212.477 245.667 214.43C245.667 216.384 256.624 217.968 270.141 217.968Z" fill="#504F60"/>
<path d="M291.198 214.603C290.768 212.759 290.5 211.141 290.5 211.141C290.5 211.141 290.599 209.136 289.699 207.63V207.127V203.421C289.955 202.748 290.268 202.098 290.635 201.478C291.297 200.313 290.635 196.045 290.635 196.045C290.635 196.045 288.163 190.025 288.762 186.206C289.361 182.387 283.686 169.25 283.686 169.25C283.721 167.983 283.9 166.724 284.219 165.497C284.279 165.239 284.304 164.974 284.292 164.71C284.292 164.677 284.292 164.647 284.292 164.614C284.292 164.581 284.292 164.634 284.292 164.644C284.206 162.125 282.213 157.406 282.213 157.406L282.481 148.412C282.481 148.412 283.752 143.117 281.681 135.986C280.956 133.501 280.493 131.512 280.198 129.976C280.165 129.804 280.132 129.646 280.105 129.477C284.371 128.815 287.631 128.285 287.631 128.285C287.631 128.285 285.155 117.931 283.484 116.118C281.813 114.304 280.476 108.609 280.476 108.609C280.476 108.609 279.606 101.299 281.012 99.1612C282.419 97.0235 282.617 93.337 282.617 93.337C282.617 93.337 285.824 91.0206 286.227 89.9716C286.631 88.9225 287.296 86.6061 287.296 85.3784C287.296 84.1507 286.896 83.062 287.028 82.4001C287.161 81.7383 286.092 79.2928 286.628 78.1279C286.767 77.7701 286.838 77.3899 286.84 77.0061C286.841 76.9951 286.841 76.984 286.84 76.973C286.845 75.9537 286.75 74.9363 286.558 73.9352C285.631 73.1519 284.548 72.5734 283.382 72.2376L283.312 71.9596L283.13 71.2316C283.028 71.1644 282.924 71.1026 282.816 71.0463V70.7815L282.786 69.7292L283.289 67.3664C284.282 63.2564 278.792 62.6442 278.792 62.6442C278.459 62.0138 277.905 61.5283 277.236 61.2808C276.134 60.8937 277.054 67.4624 277.567 67.8992C277.954 68.2301 279.152 70.2752 279.731 71.2878L279.824 71.4533C279.733 71.5348 279.649 71.6233 279.573 71.718L279.781 73.1443L279.814 73.3627C279.45 73.8145 279.155 74.3174 278.937 74.8552C278.937 74.8552 279.93 75.9538 279.741 77.1716C279.553 78.3894 280.049 79.9348 280.072 80.0175C280.013 79.948 279.308 79.1869 278.603 79.3722C277.898 79.5575 275.929 80.1499 275.929 80.1499C275.929 80.1499 274.46 80.408 274.606 80.7323C274.751 81.0566 273.613 82.4795 273.613 82.4795L269.662 78.7335C269.622 78.621 269.579 78.5085 269.546 78.4026C269.385 77.8625 269.274 77.3086 269.215 76.748C269.645 76.6457 270.068 76.5118 270.479 76.3476C270.894 76.2051 271.269 75.9644 271.571 75.6461C271.971 75.1728 272.048 74.5308 272.21 73.9418C272.521 72.7902 273.202 71.7677 273.676 70.6723C274.477 68.8214 274.735 66.7807 274.42 64.7886C274.36 64.1747 274.152 63.5844 273.815 63.0678C273.169 62.1809 271.998 61.8202 271.147 61.1121C270.297 60.4039 269.748 59.3218 268.755 58.7956C267.858 58.3158 266.769 58.372 265.757 58.5375C263.779 58.8636 261.879 59.5549 260.154 60.576C259.578 60.9069 258.943 61.3139 258.281 61.1915C257.712 61.0889 257.289 60.6355 256.931 60.1987C256.935 60.1806 256.941 60.1629 256.948 60.1458C256.932 60.1297 256.917 60.1119 256.905 60.0928C256.486 61.0222 256.276 62.032 256.289 63.0513C256.289 63.2101 256.289 63.3822 256.309 63.5245V63.6899C256.309 63.7363 256.309 63.7826 256.309 63.8256C256.309 63.8961 256.299 63.9663 256.279 64.0341C256.196 64.2365 256.069 64.4183 255.909 64.5669C255.787 64.7048 255.676 64.852 255.578 65.007C255.578 64.954 255.611 64.9011 255.631 64.8448C255.378 65.2133 255.236 65.646 255.22 66.0924C255.202 66.4173 255.308 66.737 255.518 66.9859C255.716 67.1783 255.932 67.3511 256.163 67.5021C256.085 67.939 256.045 68.3819 256.044 68.8258C256.052 70.1417 256.399 71.4334 257.051 72.576C257.704 73.7186 258.641 74.6735 259.77 75.3482C259.817 75.4574 259.86 75.5699 259.903 75.6791C260.409 77.0028 260.79 78.5581 260.621 79.9811C260.621 80.0837 260.591 80.1896 260.575 80.2922C260.558 80.3947 260.475 80.4014 260.432 80.4576C260.432 80.4576 253.903 80.5238 252.368 79.1339C250.832 77.7441 248.489 82.5325 248.489 82.5325C248.489 82.5325 246.15 82.9858 245.68 82.5325C245.21 82.0791 242.473 82.4696 242.473 82.4696C241.352 81.4725 239.893 80.94 238.393 80.9805C237.484 80.2898 236.481 79.7327 235.415 79.3259L235.342 79.2994C234.871 79.1278 234.368 79.0645 233.869 79.1141C233.869 79.1141 230.659 76.4667 229.723 75.0372C228.786 73.6076 224.329 68.3294 224.309 68.3063V68.0514L224.259 67.2837C224.127 67.3045 223.993 67.3156 223.859 67.3168C223.836 67.2407 223.803 67.1513 223.77 67.0488C223.513 66.2999 223.196 65.5729 222.823 64.8746C222.823 64.8746 222.823 63.905 223.105 63.6601C223.386 63.4153 222.989 59.8579 222.989 59.8579C222.989 59.8579 220.096 53.0972 217.505 58.1437C217.505 58.1437 212.608 61.4099 216.718 65.2155C216.718 65.2155 218.372 66.0097 218.591 66.6384C218.743 67.0455 219.299 68.1871 219.673 68.9549L219.842 69.2858L219.795 69.3255L219.855 69.9608L219.881 70.2057C219.107 70.6459 218.581 71.0827 218.71 71.4103C218.938 71.9709 219.095 72.5579 219.176 73.1575C219.176 73.1575 224.862 80.2789 225.596 83.3201C225.596 83.3201 240.842 92.3807 245.855 93.026L244.968 97.543C244.839 98.7687 244.773 100 244.77 101.233C244.836 102.202 244.168 106.604 244.168 106.604C244.168 106.604 243.297 113.076 242.563 113.983C241.828 114.89 241.96 118.771 241.96 118.771C241.787 120.63 241.455 122.47 240.968 124.271C240.233 126.73 240.766 129.775 240.766 129.775C240.766 129.775 238.228 135.599 244.31 131.651C244.31 131.651 247.288 131.466 250.736 131.346C250.736 131.459 250.736 131.575 250.736 131.677C250.736 132.121 250.736 132.601 250.713 133.104C250.667 136.439 250.647 141.046 250.799 144.514C251.067 150.662 252.94 162.83 252.94 162.83V168.955C252.819 169.53 252.759 170.116 252.762 170.703C252.722 172.858 253.296 174.98 254.416 176.821L254.886 180.898C254.886 180.898 255.985 183.585 256.005 185.2C256 185.33 255.985 185.46 255.958 185.587C255.915 185.793 255.898 186.003 255.905 186.213C255.842 188.066 256.958 192.5 256.958 192.5C256.958 192.5 257.024 196.964 257.692 197.226C258.265 197.448 256.928 199.797 256.531 200.472C256.52 200.431 256.512 200.389 256.508 200.346L256.425 200.479C256.287 200.84 256.216 201.224 256.216 201.611C256.179 201.915 256.228 202.225 256.36 202.502C256.491 202.78 256.698 203.015 256.958 203.179C258.228 203.957 258.91 204.602 257.831 204.86C257.434 204.922 257.041 205.005 256.653 205.108C256.653 205.059 256.613 205.006 256.597 204.96C256.445 205.019 256.318 205.129 256.238 205.272C256.157 205.414 256.129 205.58 256.157 205.74C256.167 206.265 256.302 206.78 256.551 207.243C257.619 209.639 258.361 210.552 258.361 210.552L258.874 210.496C258.798 210.692 258.698 210.877 258.576 211.048C258.381 211.326 258.122 211.553 257.821 211.71C257.541 211.878 257.229 211.985 256.905 212.025C256.542 212.036 256.186 212.124 255.86 212.283C255.534 212.441 255.245 212.667 255.012 212.945C254.35 213.808 253.926 214.983 255.243 216.016L260.025 217.67C260.025 217.67 268.252 218.739 267.815 216.892C267.378 215.046 267.114 213.431 267.114 213.431C267.149 212.304 266.922 211.183 266.452 210.158C266.365 209.991 266.268 209.83 266.16 209.675L266.452 209.645C266.452 209.645 267.054 205.565 267.855 204.791C268.04 204.612 268.083 204.46 268.04 204.367C268.123 204.145 267.911 204.016 267.643 203.94L267.583 204.102C267.321 204.045 267.054 204.015 266.786 204.013C266.786 204.013 266.518 201.879 267.388 201.101C267.458 201.012 267.51 200.91 267.539 200.801C267.568 200.692 267.574 200.577 267.557 200.466C267.564 200.173 267.532 199.88 267.464 199.595C267.456 199.614 267.446 199.631 267.435 199.648C266.998 197.709 265.515 194.628 265.515 194.628C265.515 194.628 265.449 192.689 265.985 191.911C266.521 191.134 265.916 181.362 265.916 181.362C265.916 181.362 266.117 176.639 265.515 174.439C264.913 172.238 266.25 169.647 266.25 169.647C266.25 169.647 266.25 169.597 266.25 169.508V169.475L266.174 168.73C266.172 168.746 266.172 168.761 266.174 168.777C266.038 167.526 265.783 165.259 265.595 164.213C265.327 162.724 265.664 155.609 265.664 155.609L266.865 152.565L269.006 157.81L271.28 164.799C271.28 164.799 272.405 166.275 272.431 167.777C272.431 167.85 272.431 167.923 272.431 167.996C272.413 168.151 272.404 168.306 272.405 168.462C272.365 169.345 272.607 170.218 273.097 170.954C273.097 170.954 273.699 174.263 274.635 175.094C275.572 175.925 275.572 177.553 275.572 177.553C275.572 177.553 276.707 182.344 277.226 183.178C277.676 183.887 277.7 185.826 277.696 186.431C277.696 186.541 277.696 186.603 277.696 186.603C277.696 186.603 277.855 188.318 277.849 189.754C277.849 189.932 277.849 190.105 277.849 190.267C277.85 190.255 277.85 190.242 277.849 190.23C277.848 190.623 277.802 191.014 277.71 191.395L277.69 191.461C277.69 191.379 277.69 191.299 277.713 191.22C277.48 192.195 277.369 193.195 277.382 194.198C277.352 195.919 277.614 197.957 278.656 199.162C280.463 201.233 281.598 200.975 281.598 200.975C281.598 200.975 280.731 203.563 279.659 204.083C279.618 204.102 279.58 204.126 279.546 204.155C279.546 204.102 279.526 204.053 279.52 204.003C279.4 204.132 279.309 204.285 279.252 204.451C279.195 204.618 279.173 204.794 279.189 204.969C279.113 206.108 279.831 207.948 280.512 208.805C280.766 209.053 281.076 209.235 281.416 209.334C281.362 209.372 281.306 209.407 281.247 209.437C281.128 209.502 281.005 209.561 280.88 209.612C280.706 209.686 280.522 209.734 280.334 209.755C279.971 209.764 279.614 209.851 279.288 210.01C278.961 210.169 278.673 210.395 278.441 210.674C277.779 211.535 277.355 212.71 278.673 213.742L283.454 215.397C283.454 215.397 291.628 216.446 291.198 214.603Z" fill="url(#paint0_linear_34_210)"/>
<path d="M259.79 217.66L255.157 216.005C253.88 214.973 254.287 213.798 254.932 212.935C255.154 212.659 255.433 212.434 255.749 212.276C256.065 212.117 256.412 212.028 256.766 212.015C257.079 211.975 257.381 211.867 257.649 211.7C257.943 211.541 258.195 211.314 258.384 211.038C258.722 210.502 258.904 209.882 258.91 209.248C258.91 209.248 263.993 207.759 265.383 209.248C265.631 209.518 265.838 209.822 265.998 210.152C266.46 211.179 266.686 212.298 266.66 213.424C266.66 213.424 266.918 215.039 267.339 216.886C267.759 218.732 259.79 217.66 259.79 217.66Z" fill="#2D293D"/>
<path d="M282.438 215.377L277.806 213.722C276.528 212.69 276.935 211.515 277.581 210.654C277.801 210.378 278.079 210.153 278.395 209.994C278.711 209.835 279.057 209.746 279.411 209.735C279.594 209.716 279.772 209.668 279.94 209.592C280.062 209.541 280.182 209.482 280.297 209.417C281.591 208.705 281.558 206.958 281.558 206.958C281.558 206.958 286.638 205.469 288.031 206.958C288.217 207.16 288.381 207.382 288.517 207.62C289.388 209.126 289.292 211.134 289.292 211.134C289.292 211.134 289.55 212.753 289.954 214.596C290.357 216.439 282.438 215.377 282.438 215.377Z" fill="#2D293D"/>
<path opacity="0.1" d="M265.386 209.245C265.634 209.514 265.841 209.819 266.002 210.148L258.39 211.032C258.728 210.495 258.911 209.876 258.917 209.242C258.917 209.242 263.996 207.756 265.386 209.245Z" fill="black"/>
<path opacity="0.1" d="M288.524 207.627V209.053C287.339 211.002 281.611 210.575 279.947 209.599C280.069 209.548 280.188 209.489 280.304 209.424C281.598 208.712 281.565 206.965 281.565 206.965C281.565 206.965 286.644 205.476 288.038 206.965C288.224 207.167 288.387 207.389 288.524 207.627Z" fill="black"/>
<path d="M289.427 201.478C289.073 202.1 288.771 202.749 288.524 203.421V208.533C287.227 210.668 280.499 209.956 279.589 208.792C278.679 207.627 277.729 204.596 278.752 204.069C279.774 203.543 280.628 200.962 280.628 200.962C280.628 200.962 279.526 201.22 277.779 199.149C276.032 197.077 276.551 192.484 276.876 191.385C277.2 190.287 276.876 186.597 276.876 186.597C276.876 186.597 276.942 184.006 276.426 183.165C275.909 182.325 274.807 177.54 274.807 177.54C274.807 177.54 274.807 175.921 273.901 175.081C272.994 174.24 272.411 170.938 272.411 170.938C271.881 170.112 271.653 169.129 271.766 168.155C271.958 166.536 270.664 164.789 270.664 164.789L268.464 157.797L266.392 152.555L265.227 155.596C265.227 155.596 264.896 162.714 265.164 164.2C265.432 165.686 265.826 169.637 265.826 169.637C265.826 169.637 264.532 172.225 265.115 174.426C265.697 176.626 265.485 181.355 265.485 181.355C265.485 181.355 266.068 191.124 265.548 191.901C265.029 192.679 265.095 194.622 265.095 194.622C265.095 194.622 267.742 200.313 266.908 201.091C266.074 201.869 266.326 204.003 266.326 204.003C266.326 204.003 268.136 204.003 267.362 204.781C266.587 205.558 266.002 209.635 266.002 209.635L258.175 210.552C258.175 210.552 257.461 209.649 256.425 207.243C255.389 204.837 256.617 205.108 257.659 204.847C258.701 204.586 258.043 203.944 256.812 203.166C255.581 202.388 256.296 200.641 256.296 200.641C256.296 200.641 258.172 197.471 257.523 197.213C256.875 196.955 256.812 192.487 256.812 192.487C256.812 192.487 255.518 187.192 255.842 185.756C256.167 184.32 254.807 180.905 254.807 180.905L254.353 176.828C252.969 174.515 252.463 171.78 252.93 169.124V162.837C252.93 162.837 251.117 150.672 250.859 144.524C250.693 140.586 250.74 135.212 250.793 131.859C250.826 129.98 250.859 128.732 250.859 128.732L278.815 125.82C278.815 125.82 278.788 127.111 279.321 129.973C279.609 131.509 280.056 133.497 280.757 135.983C282.763 143.101 281.535 148.405 281.535 148.405L281.274 157.403C281.274 157.403 283.732 163.419 283.216 165.491C282.904 166.721 282.729 167.981 282.693 169.25C282.693 169.25 288.193 182.388 287.611 186.206C287.028 190.025 289.421 196.045 289.421 196.045C289.421 196.045 290.076 200.313 289.427 201.478Z" fill="#464353"/>
<path opacity="0.05" d="M273.444 167.764L281.955 166.629C281.955 166.629 277.134 171.55 273.444 167.764Z" fill="black"/>
<path opacity="0.1" d="M280.724 158.313C280.724 158.313 281.015 161.324 279.172 162.456C279.172 162.456 282.471 161.94 280.724 158.313Z" fill="black"/>
<path opacity="0.1" d="M280.201 148.736C280.201 148.736 273.087 154.594 270.499 154.107C267.911 153.621 280.201 148.736 280.201 148.736Z" fill="black"/>
<path opacity="0.1" d="M262.894 170.511C262.894 170.511 257.49 171.738 257.328 173.909C257.166 176.08 262.894 170.511 262.894 170.511Z" fill="black"/>
<path opacity="0.05" d="M264.082 197.501C264.082 197.501 256.448 198.924 258.615 199.893C260.783 200.863 264.344 201.641 264.344 201.641C264.344 201.641 266.809 201.77 264.082 197.501Z" fill="black"/>
<g opacity="0.05">
<path opacity="0.05" d="M257.073 201.436C256.881 201.316 256.719 201.154 256.598 200.963C256.477 200.771 256.401 200.555 256.375 200.33L256.296 200.466C256.296 200.466 255.584 202.213 256.815 202.988C256.954 203.077 257.09 203.166 257.212 203.252C257.441 203.209 257.685 203.176 257.92 203.117C258.963 202.858 258.304 202.213 257.073 201.436Z" fill="black"/>
<path opacity="0.05" d="M266.908 200.916C267.12 200.724 267.113 200.227 266.984 199.592C266.653 200.092 266.557 200.873 266.551 201.465C266.631 201.259 266.753 201.073 266.908 200.916Z" fill="black"/>
<path opacity="0.05" d="M265.734 168.721C265.452 169.486 265.279 170.287 265.217 171.1C265.365 170.538 265.563 169.991 265.81 169.465L265.734 168.721Z" fill="black"/>
<path opacity="0.05" d="M283.219 165.325C283.27 165.093 283.294 164.855 283.289 164.617C283.193 165.1 283.127 165.547 283.077 165.941C283.12 165.739 283.167 165.547 283.219 165.325Z" fill="black"/>
<path opacity="0.05" d="M265.552 191.73C265.658 191.571 265.717 191.035 265.744 190.29C265.504 190.866 265.377 191.483 265.37 192.107C265.415 191.974 265.476 191.847 265.552 191.73Z" fill="black"/>
<path opacity="0.05" d="M267.14 203.934C266.739 205.232 266.441 206.56 266.25 207.905L258.423 208.808C258.423 208.808 257.709 207.905 256.673 205.499C256.589 205.313 256.515 205.123 256.451 204.93C255.981 205.145 255.789 205.631 256.412 207.051C257.447 209.447 258.165 210.36 258.165 210.36L265.992 209.453C265.992 209.453 266.574 205.376 267.348 204.599C267.746 204.225 267.501 204.03 267.14 203.934Z" fill="black"/>
<path opacity="0.05" d="M256.815 192.312C256.815 192.312 256.878 196.776 257.527 197.034C257.858 196.296 258.073 195.594 257.781 195.479C257.12 195.22 257.07 190.753 257.07 190.753C257.07 190.753 255.776 185.458 256.1 184.022C256.425 182.586 255.065 179.171 255.065 179.171L254.611 175.094C253.227 172.78 252.721 170.046 253.188 167.39V161.103C253.188 161.103 251.375 148.938 251.117 142.79C250.951 138.852 250.998 133.477 251.051 130.125C251.051 129.52 251.07 128.984 251.08 128.53L250.859 128.553C250.859 128.553 250.822 129.798 250.792 131.681C250.74 135.033 250.69 140.407 250.859 144.342C251.117 150.49 252.927 162.658 252.927 162.658V168.945C252.462 171.6 252.969 174.334 254.353 176.646L254.803 180.723C254.803 180.723 256.163 184.151 255.839 185.577C255.515 187.004 256.815 192.312 256.815 192.312Z" fill="black"/>
<path opacity="0.05" d="M279.854 207.064C279.218 206.144 278.794 205.094 278.613 203.99C277.815 204.711 278.732 207.511 279.606 208.623C280.509 209.788 287.24 210.499 288.54 208.361V207.13C286.777 208.861 280.708 208.166 279.854 207.064Z" fill="black"/>
<path opacity="0.05" d="M289.689 199.751C289.334 200.372 289.031 201.022 288.782 201.693V202.61C288.931 202.279 289.14 201.836 289.444 201.313C289.649 200.803 289.746 200.257 289.729 199.708C289.729 199.708 289.699 199.738 289.689 199.751Z" fill="black"/>
<path opacity="0.05" d="M280.251 200.774C280.497 200.275 280.71 199.761 280.89 199.235C280.89 199.235 279.788 199.493 278.04 197.421C276.77 195.916 276.697 193.07 276.879 191.21C276.548 192.312 276.035 196.905 277.782 198.977C278.924 200.33 279.788 200.688 280.251 200.774Z" fill="black"/>
<path opacity="0.05" d="M276.876 186.421C276.99 187.697 277.033 188.977 277.005 190.257C277.037 190.055 277.081 189.855 277.137 189.658C277.468 188.556 277.137 184.869 277.137 184.869C277.137 184.869 277.203 182.278 276.684 181.438C276.164 180.597 275.082 175.806 275.082 175.806C275.082 175.806 275.082 174.187 274.175 173.347C273.268 172.506 272.686 169.204 272.686 169.204C272.151 168.38 271.917 167.397 272.024 166.421C272.219 164.802 270.926 163.055 270.926 163.055L268.725 156.066L266.653 150.824L265.485 153.869C265.485 153.869 265.485 154.253 265.446 154.862L266.392 152.39L268.464 157.621L270.664 164.611C270.664 164.611 271.958 166.358 271.763 167.976C271.656 168.952 271.89 169.935 272.425 170.759C272.425 170.759 273.007 174.068 273.914 174.902C274.82 175.736 274.817 177.361 274.817 177.361C274.817 177.361 275.919 182.149 276.435 182.986C276.952 183.824 276.876 186.421 276.876 186.421Z" fill="black"/>
</g>
<path d="M282.309 67.3564L281.823 69.7191L281.853 70.7714L281.872 71.5458L279.172 71.8238L278.871 71.2645C278.312 70.2519 277.15 68.1936 276.776 67.8759C276.277 67.4589 275.386 60.8869 276.445 61.2774C277.097 61.5291 277.633 62.0137 277.948 62.6374C277.948 62.6374 283.266 63.2463 282.309 67.3564Z" fill="#FFCDD3"/>
<path opacity="0.1" d="M281.873 71.5459L279.172 71.8239L278.871 71.2647C279.234 70.8512 279.73 70.5764 280.273 70.4871C280.816 70.3978 281.373 70.4995 281.849 70.7749L281.873 71.5459Z" fill="black"/>
<path d="M282.554 72.8265L278.994 73.6505L278.917 73.121L278.716 71.6948C278.716 71.6948 280.125 69.8151 282.164 71.2249L282.342 71.9496L282.554 72.8265Z" fill="#6C63FF"/>
<path d="M224.875 67.6148L221.073 69.6533L220.742 68.9385C220.381 68.1807 219.842 67.039 219.693 66.622C219.468 65.9933 217.883 65.1991 217.883 65.1991C213.912 61.3968 218.644 58.1273 218.644 58.1273C221.152 53.0808 223.938 59.8415 223.938 59.8415C223.938 59.8415 224.329 63.4055 224.054 63.6438C223.78 63.882 223.78 64.8582 223.78 64.8582C224.142 65.5577 224.449 66.2846 224.696 67.0324C224.812 67.3931 224.875 67.6148 224.875 67.6148Z" fill="#FFCDD3"/>
<path opacity="0.1" d="M224.875 67.6145L221.073 69.6529L220.742 68.9382C221.278 68.4881 223.181 66.9526 223.806 67.0155C224.105 67.0528 224.406 67.0605 224.706 67.0387C224.812 67.3928 224.875 67.6145 224.875 67.6145Z" fill="black"/>
<path d="M225.262 68.763L220.99 70.8676L220.904 69.951L220.844 69.3156C220.844 69.3156 223.32 67.1944 224.051 67.2771C224.421 67.3307 224.796 67.3307 225.166 67.2771L225.216 68.0449L225.262 68.763Z" fill="#6C63FF"/>
<path d="M271.955 83.0521C271.955 83.0521 253.331 85.1535 256.812 84.0217C259.234 83.2308 260.197 81.7053 260.399 79.9845C260.564 78.5516 260.194 77.0062 259.707 75.6826C259.27 74.5083 258.715 73.3808 258.053 72.3171C258.053 72.3171 272.282 64.4875 269.44 71.6056C269.001 72.6823 268.729 73.8193 268.632 74.9777C268.547 76.1289 268.671 77.2861 269 78.3928C269.536 80.1886 270.559 81.801 271.955 83.0521Z" fill="#FFCDD3"/>
<path opacity="0.1" d="M269.43 71.5956C268.992 72.6723 268.719 73.8093 268.623 74.9677C267.282 76.0961 265.813 76.02 263.924 76.02C262.474 76.02 260.866 76.3708 259.708 75.6726C259.27 74.4983 258.716 73.3708 258.053 72.3071C258.053 72.3071 272.279 64.4776 269.43 71.5956Z" fill="black"/>
<path d="M263.672 76.5162C267.925 76.5162 271.372 73.0686 271.372 68.8157C271.372 64.5629 267.925 61.1152 263.672 61.1152C259.419 61.1152 255.971 64.5629 255.971 68.8157C255.971 73.0686 259.419 76.5162 263.672 76.5162Z" fill="#FFCDD3"/>
<path opacity="0.1" d="M271.955 83.052C271.955 83.052 253.331 85.1533 256.812 84.0216C259.234 83.2307 260.197 81.7052 260.399 79.9844C261.326 78.9916 263.189 78.2537 264.37 77.8698C265.462 77.5025 266.642 77.4829 267.745 77.8135C268.179 77.9443 268.593 78.136 268.973 78.3827C269.516 80.1851 270.548 81.8015 271.955 83.052Z" fill="black"/>
<path opacity="0.1" d="M282.554 72.8265L278.994 73.6505L278.917 73.1211C279.299 72.5974 279.832 72.2039 280.445 71.9943C281.058 71.7847 281.72 71.7691 282.342 71.9496L282.554 72.8265Z" fill="black"/>
<path opacity="0.1" d="M225.262 68.7629L220.99 70.8676L220.904 69.9509C222.288 69.2069 223.726 68.5686 225.206 68.0415L225.262 68.7629Z" fill="black"/>
<path opacity="0.1" d="M279.321 129.98C272.104 131.131 261.845 132.601 260.217 132.104C258.864 131.694 254.548 131.737 250.792 131.866C250.826 129.986 250.859 128.739 250.859 128.739L278.815 125.827C278.815 125.827 278.788 127.117 279.321 129.98Z" fill="black"/>
<path d="M286.515 128.285C286.515 128.285 262.765 132.362 260.217 131.595C257.669 130.827 244.581 131.657 244.581 131.657C238.691 135.605 241.15 129.781 241.15 129.781C241.15 129.781 240.633 126.74 241.345 124.281C241.823 122.476 242.149 120.634 242.321 118.775C242.321 118.775 242.192 114.89 242.903 113.983C243.615 113.076 244.459 106.607 244.459 106.607C244.459 106.607 245.104 102.206 245.041 101.236C244.978 100.266 245.233 97.5463 245.233 97.5463L246.077 93.016C241.222 92.3707 226.467 83.3101 226.467 83.3101C225.755 80.2689 220.255 73.1509 220.255 73.1509C220.175 72.5523 220.023 71.9656 219.802 71.4036C219.415 70.3678 225.239 68.2963 225.239 68.2963C225.239 68.2963 229.574 73.591 230.481 75.0272C231.387 76.4634 234.491 79.1041 234.491 79.1041C234.974 79.0545 235.461 79.1179 235.914 79.2894L235.991 79.3126C237.031 79.721 238.006 80.2783 238.886 80.9672C240.345 80.9326 241.761 81.4665 242.834 82.4563C242.834 82.4563 245.481 82.0658 245.941 82.5192C246.401 82.9726 248.658 82.5192 248.658 82.5192C248.658 82.5192 250.922 77.7308 252.411 79.1207C253.9 80.5105 260.217 80.4443 260.217 80.4443C261.058 79.3258 263.106 78.525 264.387 78.1279C265.479 77.7621 266.658 77.7425 267.762 78.0716C268.238 78.2138 268.686 78.4377 269.086 78.7335L272.928 82.4861C272.928 82.4861 274.026 81.0598 273.897 80.7388C273.768 80.4179 275.191 80.1564 275.191 80.1564C275.191 80.1564 277.068 79.574 277.779 79.3788C278.491 79.1835 279.142 79.9546 279.202 80.0241C279.179 79.9413 278.692 78.3695 278.871 77.1782C279.05 75.9868 278.093 74.8617 278.093 74.8617C280.357 69.2956 285.47 73.955 285.47 73.955C285.47 73.955 286.052 76.9961 285.536 78.161C285.02 79.3258 286.052 81.7846 285.923 82.4332C285.794 83.0818 286.184 84.1804 286.184 85.4114C286.184 86.6425 285.523 88.9688 285.149 90.0046C284.775 91.0404 281.654 93.3701 281.654 93.3701C281.654 93.3701 281.459 97.0598 280.099 99.1942C278.739 101.329 279.592 108.629 279.592 108.629C279.592 108.629 280.886 114.324 282.505 116.137C284.123 117.951 286.515 128.285 286.515 128.285Z" fill="#F87F7F"/>
<path opacity="0.1" d="M251.894 85.7026C251.894 85.7026 251.183 83.5682 250.534 83.3862C249.89 83.1493 249.264 82.8685 248.658 82.5457L249.075 81.7481C249.075 81.7481 251.504 82.41 251.894 83.1281C252.285 83.8462 251.894 85.7026 251.894 85.7026Z" fill="black"/>
<path opacity="0.1" d="M238.886 80.9804C238.757 81.6423 232.996 82.2081 232.996 82.2081L235.908 79.2894L235.981 79.3159C237.025 79.7265 238.004 80.2872 238.886 80.9804Z" fill="black"/>
<path d="M222.221 72.6147C222.506 72.6147 222.737 72.3836 222.737 72.0985C222.737 71.8134 222.506 71.5822 222.221 71.5822C221.936 71.5822 221.705 71.8134 221.705 72.0985C221.705 72.3836 221.936 72.6147 222.221 72.6147Z" fill="#575988"/>
<path d="M222.883 73.6506C223.168 73.6506 223.399 73.4195 223.399 73.1344C223.399 72.8493 223.168 72.6182 222.883 72.6182C222.598 72.6182 222.367 72.8493 222.367 73.1344C222.367 73.4195 222.598 73.6506 222.883 73.6506Z" fill="#575988"/>
<path d="M223.531 74.6069C223.816 74.6069 224.048 74.3758 224.048 74.0907C224.048 73.8056 223.816 73.5744 223.531 73.5744C223.246 73.5744 223.015 73.8056 223.015 74.0907C223.015 74.3758 223.246 74.6069 223.531 74.6069Z" fill="#575988"/>
<path d="M224.21 75.6392C224.495 75.6392 224.726 75.4081 224.726 75.123C224.726 74.8379 224.495 74.6068 224.21 74.6068C223.925 74.6068 223.693 74.8379 223.693 75.123C223.693 75.4081 223.925 75.6392 224.21 75.6392Z" fill="#575988"/>
<path d="M285.212 75.4873C285.444 75.4873 285.632 75.2991 285.632 75.067C285.632 74.8349 285.444 74.6467 285.212 74.6467C284.979 74.6467 284.791 74.8349 284.791 75.067C284.791 75.2991 284.979 75.4873 285.212 75.4873Z" fill="#575988"/>
<path d="M285.278 76.4436C285.51 76.4436 285.698 76.2554 285.698 76.0233C285.698 75.7912 285.51 75.603 285.278 75.603C285.046 75.603 284.857 75.7912 284.857 76.0233C284.857 76.2554 285.046 76.4436 285.278 76.4436Z" fill="#575988"/>
<path d="M285.334 77.3965C285.566 77.3965 285.754 77.2084 285.754 76.9763C285.754 76.7441 285.566 76.556 285.334 76.556C285.102 76.556 284.914 76.7441 284.914 76.9763C284.914 77.2084 285.102 77.3965 285.334 77.3965Z" fill="#575988"/>
<path opacity="0.1" d="M251.918 103.241C251.855 103.165 266.445 121.587 277.769 110.942C277.779 110.945 259.886 113.371 251.918 103.241Z" fill="black"/>
<path opacity="0.1" d="M243.545 112.818C243.545 112.818 252.275 113.057 253.188 115.568V118.183C252.94 118.32 252.66 118.393 252.376 118.393C252.092 118.393 251.812 118.32 251.564 118.183C250.683 117.706 245.405 115.026 243.545 116.316V112.818Z" fill="black"/>
<path d="M243.708 112.818C243.708 112.818 252.057 113.047 252.93 115.443V117.931C252.692 118.063 252.425 118.133 252.153 118.133C251.88 118.133 251.613 118.063 251.375 117.931C250.534 117.481 245.488 114.923 243.708 116.154V112.818Z" fill="#F87F7F"/>
<path opacity="0.1" d="M248.311 93.863C249.202 95.9274 250.339 97.8772 251.696 99.6706C253.172 101.653 254.96 103.382 256.991 104.79C256.991 104.79 248.456 95.0609 248.311 93.863Z" fill="black"/>
<path opacity="0.1" d="M245.455 83.7204C245.455 83.7204 246.911 90.0078 250.664 92.1423L245.455 83.7204Z" fill="black"/>
<path opacity="0.1" d="M243.221 84.3559C243.185 84.2401 241.927 89.3197 248.059 92.1424C248.059 92.1424 245.455 91.2589 243.221 84.3559Z" fill="black"/>
<path opacity="0.1" d="M281.34 80.14C281.244 80.14 284.364 82.1255 285.215 83.0521C285.215 83.0521 283.183 80.0076 281.34 80.14Z" fill="black"/>
<path d="M261.59 75.7951C261.591 75.9631 261.627 76.129 261.696 76.2824C261.765 76.4358 261.864 76.5732 261.989 76.6861C262.113 76.799 262.259 76.8849 262.419 76.9383C262.578 76.9917 262.747 77.0114 262.914 76.9963C265.26 77.1419 267.706 77.2445 269.863 76.3345C270.268 76.19 270.631 75.9493 270.922 75.6329C271.306 75.1597 271.382 74.5177 271.538 73.9287C271.842 72.7771 272.491 71.7546 272.957 70.6592C273.747 68.8086 274.011 66.7764 273.722 64.7854C273.661 64.1751 273.459 63.5872 273.133 63.0679C272.511 62.1778 271.376 61.817 270.552 61.1089C269.728 60.4007 269.198 59.3186 268.235 58.7924C267.368 58.3093 266.306 58.3689 265.33 58.5343C263.41 58.8604 261.57 59.5512 259.909 60.5695C259.35 60.9004 258.738 61.3074 258.096 61.185C257.533 61.0791 257.123 60.6059 256.772 60.1624C256.321 61.2214 256.131 62.3735 256.219 63.5213C256.244 63.6897 256.238 63.8611 256.203 64.0276C256.122 64.2289 255.999 64.4105 255.842 64.5604C255.263 65.2222 254.902 66.2977 255.475 66.9794C255.723 67.2739 256.107 67.4361 256.349 67.7372C256.782 68.2766 256.636 69.0609 256.626 69.7492C256.603 69.9895 256.663 70.2307 256.799 70.4309C256.924 70.5476 257.077 70.6299 257.243 70.6699C257.41 70.71 257.584 70.7063 257.748 70.6592C258.076 70.5605 258.42 70.5279 258.761 70.5633C259.12 70.6799 259.429 70.9128 259.641 71.2251C260.71 72.6183 261.134 74.1339 261.59 75.7951Z" fill="#2D293D"/>
<g opacity="0.1">
<path opacity="0.1" d="M271.197 75.0469C270.906 75.3632 270.543 75.604 270.138 75.7484C267.967 76.6518 265.525 76.5492 263.189 76.4103C262.938 76.4128 262.69 76.3573 262.464 76.2481C262.107 76.0396 261.971 75.6028 261.862 75.2057C261.405 73.5511 260.985 72.0322 259.899 70.6523C259.69 70.3339 259.38 70.0951 259.019 69.9739C258.679 69.9417 258.335 69.9743 258.007 70.0698C257.842 70.1173 257.669 70.1215 257.502 70.0821C257.336 70.0427 257.182 69.9609 257.057 69.8448C256.922 69.6446 256.861 69.4035 256.885 69.1631C256.885 68.4682 257.04 67.6905 256.607 67.1511C256.365 66.85 255.981 66.6878 255.733 66.39C255.571 66.1704 255.472 65.9111 255.446 65.6395C255.419 65.368 255.467 65.0944 255.584 64.8479C255.171 65.5098 254.995 66.3404 255.475 66.9096C255.723 67.2041 256.107 67.3662 256.349 67.6674C256.782 68.2101 256.637 68.991 256.627 69.6794C256.601 69.9193 256.661 70.1606 256.795 70.361C256.921 70.4783 257.075 70.561 257.242 70.601C257.409 70.641 257.583 70.637 257.748 70.5894C258.076 70.4906 258.42 70.458 258.761 70.4934C259.12 70.6101 259.43 70.8429 259.641 71.1553C260.723 72.5352 261.147 74.0508 261.604 75.712C261.657 76.1208 261.861 76.4949 262.176 76.761C262.403 76.8704 262.652 76.9248 262.904 76.9199C265.25 77.0655 267.696 77.1714 269.853 76.258C270.259 76.1146 270.622 75.8736 270.912 75.5565C271.058 75.3701 271.17 75.1595 271.243 74.9344C271.247 74.9774 271.223 75.0138 271.197 75.0469Z" fill="black"/>
<path opacity="0.1" d="M256.22 63.8253C256.324 63.7125 256.404 63.5796 256.455 63.4349C256.484 63.2674 256.484 63.096 256.455 62.9285C256.39 61.9851 256.513 61.0382 256.815 60.1422L256.772 60.0926C256.32 61.15 256.13 62.3014 256.22 63.4481C256.23 63.5736 256.23 63.6998 256.22 63.8253Z" fill="black"/>
</g>
<path opacity="0.1" d="M260.217 80.4611C260.217 80.4611 269.837 81.7385 270.701 80.2923L260.217 80.4611Z" fill="black"/>
<path opacity="0.1" d="M278.917 76.4799C278.917 76.4799 284.265 76.4799 285.44 78.4919L278.917 76.4799Z" fill="black"/>
</g>
<defs>
<linearGradient id="paint0_linear_34_210" x1="253.135" y1="217.968" x2="253.135" y2="56.2608" gradientUnits="userSpaceOnUse">
<stop stop-color="#808080" stop-opacity="0.25"/>
<stop offset="0.54" stop-color="#808080" stop-opacity="0.12"/>
<stop offset="1" stop-color="#808080" stop-opacity="0.1"/>
</linearGradient>
<clipPath id="clip0_34_210">
<rect width="347.327" height="224.559" fill="white" transform="translate(0.970093)"/>
</clipPath>
</defs>
</svg>
