<svg width="273" height="236" viewBox="0 0 273 236" fill="none" xmlns="http://www.w3.org/2000/svg">
<g clip-path="url(#clip0_34_144)">
<path d="M194.753 230.302L190.16 230.301L187.975 212.586L194.754 212.587L194.753 230.302Z" fill="#FFB6B6"/>
<path d="M195.924 234.754L181.115 234.753V234.566C181.115 233.037 181.723 231.571 182.804 230.49C183.885 229.409 185.351 228.802 186.879 228.802H186.88L189.585 226.75L194.632 228.802L195.925 228.802L195.924 234.754Z" fill="#2F2E41"/>
<path d="M268.945 213.549L265.813 216.909L251.364 206.429L255.986 201.471L268.945 213.549Z" fill="#FFB6B6"/>
<path d="M273 215.728L262.903 226.561L262.766 226.433C261.647 225.391 260.989 223.947 260.935 222.419C260.882 220.892 261.437 219.405 262.479 218.287L262.479 218.287L262.822 214.908L267.765 212.616L268.646 211.67L273 215.728Z" fill="#2F2E41"/>
<path d="M262.149 203.593L257.294 213.746L227.484 194.009L223.148 188.1L208.928 168.726L203.148 177.898L199.126 187.486C197.815 188.341 196.711 189.476 195.892 190.81C195.074 192.144 194.562 193.642 194.393 195.198L194.209 196.896L196.751 219.743L187.091 222.709L181.543 192.017L183.357 185.366L185.224 176.031L194.624 146.531H219.78L234.208 177.242L235.262 183.499L239.353 188.194L262.149 203.593Z" fill="#2F2E41"/>
<path d="M209.871 98.2651L214.106 101.49L219.213 103.059C219.213 103.059 221.324 132.757 223.226 134.659C225.129 136.561 223.413 136.612 223.795 139.084C224.177 141.555 225.106 146.621 225.106 146.621C212.266 153.418 201.195 153.6 192.303 145.646C192.19 145.154 192.247 144.638 192.467 144.184C192.687 143.729 193.055 143.363 193.512 143.146C195.167 142.268 191.986 138.17 193.339 137.484C194.691 136.799 192.789 130.854 192.789 130.854L194.037 118.451L193.051 116.468L195.457 104.336L199.632 102.811L201.299 98.7934L209.871 98.2651Z" fill="#0059B3"/>
<path d="M212.524 151.048C212.505 150.511 212.604 149.977 212.813 149.483C213.023 148.989 213.339 148.547 213.738 148.189C214.137 147.83 214.609 147.563 215.123 147.406C215.636 147.25 216.178 147.208 216.709 147.284L222.677 135.684L226.002 141.591L219.825 151.701C219.639 152.585 219.135 153.37 218.409 153.908C217.682 154.445 216.784 154.698 215.884 154.617C214.984 154.537 214.145 154.129 213.526 153.471C212.906 152.813 212.55 151.951 212.524 151.048H212.524Z" fill="#FFB6B6"/>
<path d="M222.574 148.21L235.375 128.371L235.332 128.28C235.284 128.175 232.385 121.915 229.577 116.181C229.144 115.298 228.714 114.428 228.296 113.594C228.116 113.234 227.939 112.882 227.764 112.537C226.584 110.212 225.554 108.289 224.938 107.376C223.578 105.312 221.552 103.775 219.197 103.021L219.138 103.006L219.081 103.029C217.929 103.515 216.978 104.379 216.383 105.479C215.788 106.578 215.586 107.848 215.809 109.078C216.919 115.011 219.393 120.604 223.036 125.417L225.111 128.152L217.899 143.83L222.574 148.21Z" fill="#0059B3"/>
<path d="M178.558 72.1646C178.91 72.5692 179.17 73.0463 179.318 73.5621C179.466 74.0779 179.499 74.6199 179.415 75.1499C179.331 75.68 179.132 76.1852 178.832 76.6299C178.532 77.0747 178.137 77.4481 177.677 77.7241L180.345 90.4932L174.043 87.9978L172.475 76.2545C172.063 75.4505 171.96 74.5232 172.185 73.6484C172.411 72.7735 172.95 72.0118 173.7 71.5077C174.45 71.0035 175.358 70.7919 176.254 70.913C177.149 71.0341 177.969 71.4794 178.558 72.1646H178.558Z" fill="#FFB6B6"/>
<path d="M172.537 80.6976L175.086 104.17L175.176 104.214C175.251 104.25 178.48 105.834 182.443 107.721C183.112 108.039 183.016 109.417 183.715 109.747C184.197 109.973 185.468 109.15 185.954 109.378C190.287 111.404 194.668 113.374 196.414 113.908C198.771 114.654 201.312 114.573 203.616 113.676L203.672 113.65L203.701 113.596C204.29 112.493 204.485 111.223 204.255 109.994C204.025 108.765 203.383 107.652 202.434 106.837C197.836 102.927 192.392 100.14 186.532 98.695L183.197 97.8769L178.927 81.1565L172.537 80.6976Z" fill="#0059B3"/>
<path d="M205.356 96.9353C209.982 96.9353 213.732 93.1852 213.732 88.5592C213.732 83.9331 209.982 80.183 205.356 80.183C200.73 80.183 196.98 83.9331 196.98 88.5592C196.98 93.1852 200.73 96.9353 205.356 96.9353Z" fill="#FFB6B6"/>
<path d="M197.04 82.9464C197.729 80.9424 201.158 79.5525 206.717 79.3592C212.276 79.1659 213.686 85.717 213.686 85.717C217.397 88.7274 209.723 96.7871 209.352 96.4968L209.519 94.9825C209.795 92.4744 210.97 90.5173 209.476 87.9034L208.042 87.9199C206.189 88.2761 204.337 88.6323 202.485 88.9885L204.678 87.0575L204.616 86.9619C203.683 87.4477 202.668 87.756 201.622 87.8708C200.443 87.9401 199.155 87.471 198.59 86.434C198.439 86.1489 198.347 85.8365 198.319 85.5153C196.73 86.1504 196.003 88.1099 196.003 88.1099C196.003 88.1099 196.351 84.9504 197.04 82.9464Z" fill="#2F2E41"/>
<path d="M33.7474 83.449C33.6338 83.3049 33.5114 83.1679 33.381 83.0387C33.4128 82.9949 33.4447 82.9471 33.4766 82.9033L33.7474 83.449Z" fill="#2F2E41"/>
<path d="M35.3764 117.137C34.0062 119.571 31.2699 120.929 28.5574 121.594C25.5108 122.392 22.3025 122.33 19.2889 121.415C18.9066 121.292 18.5242 121.148 18.1538 120.989C18.3318 120.516 18.473 120.03 18.576 119.535C18.7146 118.866 18.784 118.183 18.7831 117.5C18.4813 118.089 18.0903 118.627 17.624 119.097C17.2643 119.475 16.8558 119.803 16.4092 120.073C15.0241 119.232 13.8247 118.118 12.8842 116.799C12.9439 116.651 13.0037 116.504 13.0595 116.357C13.3487 115.587 13.5777 114.796 13.7445 113.991C13.9709 112.902 14.0843 111.793 14.0831 110.681C13.592 111.639 12.9551 112.515 12.1951 113.278C11.9673 113.521 11.7252 113.752 11.4702 113.967C11.0753 112.767 10.9227 111.502 11.0211 110.243C11.1196 108.984 11.4672 107.757 12.0438 106.634C13.6211 103.718 16.68 101.986 19.4044 100.102C22.1328 98.2178 24.8612 95.6687 25.0922 92.3588C25.2476 90.1243 24.212 87.8858 24.6262 85.6872C24.8004 84.7601 25.2257 83.8985 25.8558 83.1964C26.4859 82.4943 27.2966 81.9785 28.1995 81.7053C29.1025 81.4321 30.0631 81.412 30.9767 81.647C31.8903 81.8821 32.7219 82.3634 33.3809 83.0385C31.8355 85.2292 30.298 87.4955 29.6727 90.1004C29.0354 92.7531 29.5572 95.8639 31.6483 97.6204C32.3652 98.2258 33.2455 98.656 33.7991 99.4127C34.536 100.416 34.54 101.755 34.6595 102.99C34.8984 105.391 35.6831 107.701 36.1053 110.079C36.5315 112.453 36.5554 115.03 35.3764 117.137Z" fill="#2F2E41"/>
<path d="M7.28885 215.911L10.9241 218.719L23.4875 206.034L18.1222 201.889L7.28885 215.911Z" fill="#FFB6B6"/>
<path d="M7.44346 213.166L13.4548 217.263L11.5524 219.725L14.1002 227.72C14.2261 228.115 14.2225 228.539 14.0899 228.932C13.9573 229.325 13.7026 229.665 13.3631 229.902C13.0236 230.14 12.6171 230.263 12.2028 230.253C11.7885 230.243 11.3881 230.101 11.0602 229.848L4.21901 224.562L4.92154 221.215L2.5794 223.295L0 221.302L7.44346 213.166Z" fill="#2F2E41"/>
<path d="M25.7315 90.5253C25.731 91.9456 26.0791 93.3443 26.7454 94.5986C27.4116 95.853 28.3756 96.9246 29.5526 97.7194C30.7297 98.5142 32.0839 99.008 33.4963 99.1573C34.9088 99.3066 36.3363 99.1068 37.6535 98.5757C38.9707 98.0445 40.1374 97.1981 41.0512 96.1107C41.9649 95.0234 42.5978 93.7284 42.8942 92.3393C43.1906 90.9503 43.1415 89.5098 42.7512 88.1441C42.3609 86.7785 41.6414 85.5296 40.6557 84.507L40.6141 84.4654C40.5447 84.3924 40.4752 84.3196 40.4024 84.2501C40.4019 84.2501 40.4014 84.2501 40.401 84.2499C40.4006 84.2497 40.4002 84.2495 40.3999 84.2491C40.3996 84.2488 40.3993 84.2484 40.3991 84.248C40.399 84.2476 40.3989 84.2471 40.3989 84.2467C40.3087 84.1634 40.2184 84.0801 40.1247 84.0002C38.5976 82.6605 36.4512 81.2064 34.2612 81.2064C29.4681 81.2064 25.7315 85.7321 25.7315 90.5253Z" fill="#2F2E41"/>
<path d="M75.1884 86.0693C75.2299 86.5321 75.1695 86.9983 75.0113 87.4352C74.8531 87.8721 74.6011 88.2691 74.273 88.598C73.9448 88.927 73.5485 89.18 73.112 89.3392C72.6755 89.4985 72.2094 89.5601 71.7465 89.5197L50.2604 108.919L46.5629 103.08L68.8457 85.8467C68.9651 85.0735 69.364 84.3711 69.9667 83.8723C70.5694 83.3736 71.3341 83.1133 72.1159 83.1408C72.8977 83.1682 73.6423 83.4815 74.2086 84.0212C74.7749 84.561 75.1235 85.2897 75.1884 86.0693V86.0693Z" fill="#FFB6B6"/>
<path d="M41.0776 114.775C41.0776 114.775 41.877 116.252 44.6078 113.972C46.794 112.147 57.2679 104.223 59.5243 100.976C60.0395 101.18 60.608 101.207 61.1403 101.052C61.6725 100.898 62.1382 100.57 62.464 100.122L56.2815 94.7076C54.4317 94.9206 54.4713 96.1632 54.664 96.8687L50.0005 98.9816L37.9578 106.678L40.4808 113.718L41.0776 114.775Z" fill="#FF4444"/>
<path d="M29.4111 128.378L28.9608 130.523L28.5784 138.434L45.4137 139.359L44.8909 127.192L43.2591 124.511L29.4111 128.378Z" fill="#FFB6B6"/>
<path d="M36.5462 99.8087C40.5646 99.8087 43.8221 96.5511 43.8221 92.5328C43.8221 88.5144 40.5646 85.2568 36.5462 85.2568C32.5278 85.2568 29.2703 88.5144 29.2703 92.5328C29.2703 96.5511 32.5278 99.8087 36.5462 99.8087Z" fill="#FFB6B6"/>
<path d="M23.6286 119.37L23.5839 113.322C23.5828 111.145 24.3193 109.033 25.673 107.329C27.0268 105.625 28.9179 104.431 31.038 103.94L31.0655 103.933L32.5042 101.995L38.3495 102.579L39.4208 104.769L43.6564 107.291L45.2872 112.534C45.9945 113.005 46.5973 113.617 47.0582 114.331C47.519 115.045 47.8281 115.847 47.9661 116.686C48.5198 120.222 46.0437 123.761 45.7491 124.166L44.9902 128.44L28.4812 131.353L28.3472 131.37L23.6286 119.37Z" fill="#FF4444"/>
<path d="M45.4496 91.2358C44.6009 91.7733 43.7203 92.2588 42.8128 92.6896C41.8916 93.1321 40.9282 93.4804 39.937 93.7292C39.6535 93.107 39.3064 92.5157 38.9014 91.9647C39.0056 92.6175 39.0083 93.2826 38.9094 93.9363C37.2666 94.2013 35.5839 94.0633 34.0063 93.534L32.6361 91.2358L32.5326 93.8009C31.3974 94.008 30.2662 94.2031 29.1311 94.4063C29.0634 94.4142 28.9956 94.4302 28.9319 94.4421C28.2269 91.2637 29.2266 87.7626 31.4492 85.6436C32.5527 84.6026 33.9292 83.8964 35.4185 83.6072C36.9077 83.3181 38.4485 83.458 39.8614 84.0106C40.0406 84.0823 40.2238 84.1619 40.3991 84.2456C40.399 84.2461 40.3991 84.2466 40.3993 84.2471C40.3995 84.2476 40.3998 84.248 40.4002 84.2484C40.4006 84.2488 40.401 84.2491 40.4015 84.2493C40.402 84.2495 40.4025 84.2496 40.403 84.2496C40.5066 84.3013 40.5942 84.4248 40.7097 84.4128C45.6806 83.8592 45.8399 87.7147 45.4496 91.2358Z" fill="#2F2E41"/>
<path d="M33.3454 206.529L36.9863 209.33L49.5243 196.62L44.1507 192.485L33.3454 206.529Z" fill="#FFB6B6"/>
<path d="M33.8247 204.038L39.8443 208.123L37.9469 210.589L40.5108 218.578C40.6375 218.972 40.6347 219.397 40.5029 219.79C40.3711 220.183 40.1171 220.523 39.7781 220.762C39.4391 221 39.0328 221.124 38.6185 221.115C38.2042 221.106 37.8035 220.965 37.4751 220.712L30.6232 215.44L31.319 212.092L28.9811 214.176L26.3977 212.188L33.8247 204.038Z" fill="#2F2E41"/>
<path d="M21.5311 191.016L21.5309 190.969L23.2564 187.995L21.4944 184.124L21.4416 174.18L21.7272 172.687C22.1114 170.679 21.9996 168.608 21.4016 166.653L21.3694 160.6C21.3075 159.084 23.6566 157.75 23.1088 156.486C17.9308 144.537 28.3963 135.421 28.467 135.348L28.6809 135.126L29.8412 136.005L30.9456 136.006L45.8496 138.722L45.9572 138.922C46.5434 140.022 47.6747 143.812 47.7418 145.527C48.4846 146.387 56.9455 156.177 57.6977 156.857C62.7802 161.456 65.6902 169.068 66.9724 173.196C67.2908 174.216 67.355 175.298 67.1594 176.349C66.9637 177.4 66.5142 178.387 65.8498 179.224L46.6087 200.299L41.4307 195.52L51.8419 176.548L51.0912 174.623C49.7441 174.374 48.5251 173.666 47.642 172.619L45.5338 170.117C44.9501 169.426 44.5792 168.581 44.4659 167.683L43.1874 167.529L38.6079 162.721L35.4306 191.494L34.5669 193.767L19.524 211.452L13.1512 207.469L21.5311 191.016Z" fill="#757575"/>
<path d="M19.2338 67.4686C18.9448 67.8324 18.7391 68.2552 18.6311 68.7071C18.5232 69.1591 18.5156 69.6292 18.609 70.0843C18.7024 70.5395 18.8945 70.9687 19.1717 71.3416C19.4489 71.7145 19.8045 72.0221 20.2134 72.2427L15.4301 86.4036L19.3359 101.41L25.6341 98.5631L21.7477 87.2439L24.6553 70.7679C24.9804 70.0563 25.0332 69.2502 24.8037 68.5024C24.5742 67.7545 24.0783 67.1168 23.41 66.7101C22.7417 66.3035 21.9475 66.156 21.1778 66.2958C20.4081 66.4356 19.7164 66.8529 19.2338 67.4686Z" fill="#FFB6B6"/>
<path d="M24.9987 113.775C24.9987 113.775 23.5195 114.569 22.4907 111.164C21.6671 108.438 16.062 93.6356 15.961 89.6828C15.4184 89.5702 14.9286 89.2803 14.5688 88.8588C14.2091 88.4372 13.9998 87.9079 13.974 87.3543L22.1147 86.2278C23.5432 87.4221 22.8272 88.4386 22.2786 88.9222L25.0512 93.6187L30.8465 106.298L26.0782 113.22L24.9987 113.775Z" fill="#FF4444"/>
<path d="M29.1294 94.4056C29.9654 91.8845 31.4644 89.6349 33.4693 87.8926C35.4741 86.1504 37.9108 84.9798 40.5239 84.5036C40.5343 84.5001 40.569 84.4862 40.6141 84.4654C40.6419 84.4481 40.6766 84.4307 40.7113 84.4134C40.6072 84.3544 40.5065 84.3023 40.4024 84.2502C40.4019 84.2502 40.4015 84.2501 40.4011 84.25C40.4006 84.2498 40.4003 84.2495 40.3999 84.2492C40.3996 84.2489 40.3994 84.2485 40.3992 84.2481C40.399 84.2476 40.3989 84.2472 40.3989 84.2467C40.3087 84.1634 40.2185 84.0801 40.1248 84.0003L39.861 84.0107C39.861 84.0107 30.5906 82.5426 29.1294 94.4056Z" fill="#FD6584"/>
<path d="M148.751 175.485C149.762 173.964 149.163 171.787 147.413 170.622C145.663 169.458 143.423 169.746 142.412 171.267C141.4 172.788 141.999 174.965 143.749 176.129C145.5 177.294 147.739 177.005 148.751 175.485Z" fill="#FFEEF4"/>
<path d="M128.212 118.724C129.224 117.204 128.625 115.027 126.875 113.862C125.124 112.698 122.885 112.986 121.873 114.507C120.862 116.028 121.46 118.205 123.211 119.369C124.961 120.534 127.201 120.245 128.212 118.724Z" fill="#FFEEF4"/>
<path d="M214.099 206.105C215.111 204.584 214.512 202.408 212.762 201.243C211.011 200.078 208.772 200.367 207.76 201.888C206.749 203.409 207.347 205.585 209.098 206.75C210.848 207.915 213.088 207.626 214.099 206.105Z" fill="#F2F2F2"/>
<path d="M40.4582 23.502C41.47 21.9812 40.8712 19.8043 39.1207 18.6397C37.3702 17.4751 35.1309 17.7638 34.1192 19.2845C33.1074 20.8053 33.7063 22.9822 35.4568 24.1468C37.2072 25.3114 39.4465 25.0227 40.4582 23.502Z" fill="#F2F2F2"/>
<path d="M121.491 5.57771C122.503 4.05696 121.904 1.88005 120.153 0.71545C118.403 -0.449155 116.163 -0.16045 115.152 1.3603C114.14 2.88104 114.739 5.05797 116.489 6.22257C118.24 7.38718 120.479 7.09845 121.491 5.57771Z" fill="#F2F2F2"/>
<path d="M83.1403 155.96C84.152 154.439 83.5532 152.262 81.8027 151.098C80.0522 149.933 77.813 150.222 76.8012 151.743C75.7895 153.263 76.3883 155.44 78.1388 156.605C79.8893 157.769 82.1285 157.481 83.1403 155.96Z" fill="#FFEEF4"/>
<path d="M250.292 235.112H7.45841C7.34071 235.111 7.22795 235.064 7.14485 234.981C7.06174 234.898 7.01508 234.785 7.01508 234.667C7.01508 234.549 7.06174 234.436 7.14485 234.353C7.22795 234.27 7.34071 234.223 7.45841 234.222H250.292C250.41 234.222 250.523 234.269 250.607 234.352C250.69 234.436 250.737 234.549 250.737 234.667C250.737 234.785 250.69 234.898 250.607 234.981C250.523 235.065 250.41 235.112 250.292 235.112Z" fill="#CCCCCC"/>
<path d="M158.769 47.0586L82.9311 55.2243C82.4935 55.2714 82.0551 55.1427 81.7123 54.8666C81.3695 54.5905 81.1505 54.1895 81.1034 53.7519C81.0563 53.3143 81.1849 52.8758 81.461 52.5331C81.7372 52.1903 82.1381 51.9713 82.5758 51.9242L158.413 43.7584C158.851 43.7113 159.289 43.84 159.632 44.1161C159.975 44.3922 160.194 44.7932 160.241 45.2308C160.288 45.6684 160.16 46.1069 159.883 46.4496C159.607 46.7924 159.206 47.0114 158.769 47.0586Z" fill="#0059B2"/>
<path d="M92.8594 64.4008L84.0216 65.3524C83.584 65.3996 83.1456 65.2709 82.8028 64.9948C82.4601 64.7187 82.241 64.3177 82.1939 63.88C82.1468 63.4424 82.2754 63.004 82.5516 62.6612C82.8277 62.3185 83.2287 62.0994 83.6663 62.0523L92.5041 61.1007C92.7209 61.0771 92.9403 61.0964 93.1496 61.1576C93.359 61.2188 93.5542 61.3207 93.7242 61.4575C93.8942 61.5942 94.0355 61.7631 94.1401 61.9545C94.2448 62.1459 94.3106 62.356 94.334 62.5729C94.3574 62.7898 94.3377 63.0091 94.2762 63.2184C94.2147 63.4277 94.1126 63.6228 93.9756 63.7926C93.8387 63.9623 93.6696 64.1034 93.4781 64.2078C93.2865 64.3122 93.0763 64.3778 92.8594 64.4008Z" fill="#0059B2"/>
<path d="M85.9405 128.471C84.381 127.101 83.1462 125.402 82.3257 123.495C81.5052 121.589 81.1198 119.524 81.1973 117.45C82.0497 92.8027 77.9904 68.2322 69.2557 45.1688C68.5152 43.23 68.216 41.1505 68.3797 39.0816C68.5434 37.0127 69.166 35.0062 70.2022 33.208C71.1954 31.4798 72.5547 29.9901 74.1849 28.8432C75.8151 27.6963 77.6765 26.9202 79.6386 26.5692C99.3621 14.667 119.582 11.3256 139.748 16.6397C142.999 16.161 146.315 16.8571 149.1 18.6031C151.885 20.349 153.956 23.0304 154.942 26.1658C163.106 52.6715 167.648 80.1598 168.442 107.883C168.518 111.209 167.392 114.451 165.27 117.013C163.148 119.575 160.173 121.285 156.891 121.83L97.2164 131.689C95.2159 132.024 93.1659 131.908 91.2155 131.352C89.265 130.795 87.463 129.811 85.9405 128.471Z" fill="#0059B2"/>
<path d="M98.6959 93.8546L136.81 87.5578C137.442 87.4534 138.006 87.1023 138.379 86.5818C138.752 86.0613 138.903 85.4139 138.799 84.7821C138.694 84.1503 138.343 83.5859 137.823 83.2129C137.302 82.84 136.655 82.6891 136.023 82.7935L97.9088 89.0904C97.5954 89.1414 97.2951 89.2537 97.0252 89.4209C96.7553 89.5882 96.5209 89.8071 96.3357 90.065C96.1505 90.3229 96.018 90.6148 95.9458 90.924C95.8735 91.2332 95.863 91.5536 95.9147 91.8669C95.9665 92.1802 96.0795 92.4802 96.2474 92.7498C96.4153 93.0193 96.6346 93.2531 96.8929 93.4377C97.1513 93.6224 97.4435 93.7542 97.7529 93.8257C98.0623 93.8973 98.3827 93.9071 98.6959 93.8546Z" fill="white"/>
<path d="M101.844 112.912L139.959 106.615C140.59 106.51 141.155 106.159 141.528 105.639C141.901 105.118 142.052 104.471 141.947 103.839C141.843 103.207 141.492 102.643 140.971 102.27C140.451 101.897 139.803 101.746 139.172 101.85L101.057 108.147C100.744 108.199 100.445 108.312 100.176 108.479C99.9063 108.647 99.6727 108.866 99.4881 109.123C99.3034 109.381 99.1714 109.673 99.0994 109.981C99.0274 110.29 99.017 110.61 99.0687 110.923C99.1203 111.236 99.2332 111.535 99.4006 111.805C99.5681 112.074 99.787 112.308 100.045 112.492C100.302 112.677 100.594 112.809 100.903 112.881C101.212 112.953 101.532 112.963 101.844 112.912Z" fill="white"/>
<path d="M95.5406 45.3902C95.4952 45.0848 95.4096 44.8174 95.2837 44.5882C95.1565 44.3499 94.9556 44.141 94.681 43.9614C94.4064 43.7818 94.024 43.6182 93.5337 43.4706C93.0511 43.3127 92.4234 43.1672 91.6506 43.034C90.7454 42.8746 89.8663 42.6746 89.0133 42.434C88.1589 42.1844 87.3812 41.8637 86.6802 41.4719C85.9779 41.0712 85.3938 40.5702 84.9281 39.969C84.4609 39.3589 84.162 38.6136 84.0312 37.733C83.9058 36.8885 83.9817 36.1012 84.259 35.3713C84.5349 34.6325 84.9744 33.9749 85.5776 33.3986C86.1884 32.812 86.9333 32.3249 87.8124 31.9372C88.6901 31.5405 89.6726 31.2614 90.7597 31.1C92.1973 30.8865 93.5015 30.9499 94.6724 31.2902C95.8509 31.6202 96.8182 32.1974 97.5742 33.0218C98.338 33.8359 98.8119 34.8628 98.996 36.1027L94.2925 36.8013C94.2191 36.3071 94.0511 35.8867 93.7884 35.5401C93.5347 35.1921 93.1896 34.9403 92.7533 34.7847C92.317 34.6291 91.7933 34.5967 91.1823 34.6874C90.5894 34.7755 90.104 34.9394 89.7264 35.1792C89.3488 35.4189 89.0793 35.7069 88.9181 36.043C88.7555 36.3702 88.7008 36.7135 88.7542 37.0729C88.7982 37.3694 88.9191 37.6269 89.1169 37.8455C89.3223 38.0537 89.5931 38.2385 89.9293 38.3998C90.2744 38.5597 90.6811 38.7013 91.1494 38.8246C91.6267 38.9466 92.1572 39.0561 92.7409 39.153C93.8325 39.3307 94.8133 39.5661 95.6834 39.8593C96.561 40.1422 97.3171 40.5028 97.9515 40.9412C98.5936 41.3692 99.1071 41.8899 99.4921 42.503C99.886 43.1149 100.144 43.8341 100.267 44.6607C100.398 45.5412 100.343 46.3482 100.103 47.0818C99.8632 47.8153 99.4596 48.4676 98.8925 49.0385C98.3239 49.6005 97.6129 50.0688 96.7595 50.4435C95.906 50.8182 94.9312 51.087 93.8351 51.2498C92.8288 51.3992 91.8173 51.4209 90.8006 51.3148C89.7915 51.1983 88.8523 50.9338 87.9829 50.5211C87.1122 50.0994 86.3767 49.5062 85.7764 48.7413C85.1837 47.9662 84.8013 46.999 84.6292 45.84L89.3732 45.1354C89.4586 45.7105 89.607 46.1843 89.8184 46.5569C90.0299 46.9296 90.3019 47.2152 90.6344 47.4137C90.9656 47.6033 91.3548 47.72 91.8021 47.7637C92.2481 47.7985 92.7496 47.7745 93.3066 47.6918C93.9086 47.6024 94.3811 47.445 94.7241 47.2195C95.0658 46.9851 95.3007 46.7115 95.4287 46.3986C95.5553 46.0768 95.5927 45.7407 95.5406 45.3902ZM110.299 44.7823L109.406 38.7715C109.345 38.3582 109.234 38.012 109.073 37.7329C108.912 37.4537 108.694 37.252 108.418 37.1276C108.142 36.9942 107.792 36.9589 107.37 37.0217C107.028 37.0724 106.745 37.1741 106.52 37.327C106.294 37.4798 106.136 37.6824 106.045 37.9346C105.954 38.1869 105.935 38.4928 105.989 38.8522L101.447 39.5267C101.347 38.8529 101.402 38.2064 101.613 37.5873C101.832 36.958 102.188 36.3863 102.681 35.8723C103.183 35.3569 103.807 34.9244 104.554 34.5747C105.309 34.2147 106.171 33.9626 107.142 33.8185C108.301 33.6464 109.363 33.6861 110.328 33.9376C111.301 34.1879 112.111 34.66 112.756 35.3539C113.399 36.0389 113.807 36.9609 113.979 38.1199L114.866 44.0903C115.007 45.0427 115.169 45.7579 115.35 46.2361C115.53 46.7053 115.746 47.1093 115.998 47.4484L116.032 47.6775L111.477 48.354C111.195 47.9368 110.952 47.4128 110.748 46.7819C110.551 46.1407 110.402 45.4742 110.299 44.7823ZM110.073 39.4577L110.46 41.8795L108.452 42.1778C108.03 42.2405 107.679 42.3523 107.4 42.5131C107.13 42.6726 106.92 42.869 106.771 43.1024C106.63 43.3254 106.538 43.5687 106.494 43.8323C106.46 44.0945 106.463 44.3649 106.504 44.6435C106.544 44.913 106.643 45.1462 106.801 45.3432C106.967 45.5298 107.17 45.6649 107.412 45.7483C107.654 45.8317 107.914 45.8528 108.193 45.8114C108.696 45.7367 109.109 45.579 109.431 45.3382C109.761 45.0872 110 44.8084 110.147 44.5018C110.295 44.1953 110.35 43.9207 110.314 43.6781L111.588 45.3899C111.461 45.7759 111.309 46.1705 111.13 46.5736C110.96 46.9753 110.728 47.3588 110.433 47.724C110.146 48.0788 109.775 48.3911 109.319 48.6608C108.862 48.9216 108.287 49.1033 107.595 49.2061C106.697 49.3395 105.843 49.2781 105.033 49.0218C104.233 48.7642 103.559 48.3408 103.013 47.7516C102.465 47.1535 102.127 46.4231 101.999 45.5606C101.886 44.8059 101.921 44.112 102.103 43.479C102.293 42.8446 102.636 42.2794 103.132 41.7834C103.627 41.2874 104.291 40.8675 105.121 40.5237C105.952 40.18 106.951 39.9214 108.119 39.7479L110.073 39.4577ZM122.511 43.5334L123.678 31.638L128.462 30.9274L125.857 46.2183L123.027 46.6386L122.511 43.5334ZM119.109 32.3166L123.643 43.3653L124.078 46.4825L121.234 46.9048L114.311 33.0292L119.109 32.3166ZM138.889 44.5582C137.703 44.7344 136.616 44.7076 135.626 44.478C134.636 44.2395 133.769 43.8403 133.024 43.2805C132.289 42.7193 131.687 42.0373 131.219 41.2345C130.76 40.4303 130.459 39.552 130.318 38.5996L130.242 38.0875C130.083 37.0183 130.085 36.008 130.246 35.0565C130.407 34.096 130.728 33.231 131.211 32.4614C131.693 31.6918 132.347 31.053 133.171 30.5448C133.995 30.0277 134.99 29.6824 136.158 29.5089C137.191 29.3555 138.141 29.3842 139.008 29.5952C139.875 29.8062 140.638 30.1797 141.296 30.7156C141.963 31.2501 142.51 31.9356 142.938 32.7721C143.374 33.6072 143.673 34.5729 143.836 35.669L144.11 37.5154L132.197 39.2848L131.774 36.4412L139.254 35.3302L139.202 34.9798C139.139 34.4933 138.992 34.0927 138.762 33.778C138.54 33.4619 138.25 33.2387 137.891 33.1084C137.532 32.9781 137.114 32.9483 136.638 33.019C136.144 33.0924 135.751 33.2609 135.46 33.5246C135.177 33.7869 134.974 34.1201 134.851 34.5242C134.735 34.9179 134.677 35.3627 134.677 35.8585C134.677 36.3544 134.717 36.8719 134.797 37.4109L134.873 37.9231C134.953 38.4622 135.098 38.9412 135.307 39.3601C135.525 39.7776 135.797 40.123 136.122 40.3961C136.455 40.6588 136.832 40.8462 137.252 40.9582C137.682 41.0689 138.153 41.0862 138.665 41.0101C139.285 40.918 139.879 40.7105 140.446 40.3875C141.013 40.0645 141.473 39.6014 141.824 38.9983L144.25 41.1449C144.016 41.6112 143.655 42.0827 143.165 42.5594C142.685 43.0348 142.086 43.4544 141.369 43.818C140.65 44.1727 139.824 44.4194 138.889 44.5582Z" fill="white"/>
<path d="M105.226 59.4752L107.67 75.9291L104.291 76.431L101.847 59.9771L105.226 59.4752ZM110.289 58.7233L110.684 61.379L97.2583 63.3729L96.8639 60.7173L110.289 58.7233ZM118.109 60.4378L115.66 74.7425L112.055 75.2779L115.725 57.916L118.019 57.5753L118.109 60.4378ZM123.853 73.5256L117.341 60.552L116.561 57.7918L118.878 57.4477L127.469 72.9885L123.853 73.5256ZM122.74 67.4308L123.134 70.0865L114.444 71.3772L114.049 68.7215L122.74 67.4308ZM129.342 55.8935L133.291 61.1744L135.535 54.9737L139.411 54.398L135.843 63.2671L141.979 70.8335L138.069 71.4142L134.013 66.0337L131.696 72.3608L127.763 72.9449L131.447 63.9201L125.443 56.4726L129.342 55.8935Z" fill="white"/>
</g>
<g clip-path="url(#clip1_34_144)">
<path d="M130.727 130.607L135.706 128.841L131.055 115.725C130.796 114.994 130.838 114.19 131.171 113.49C131.505 112.79 132.103 112.25 132.834 111.991L141.205 135.599C142.623 135.474 144.039 135.87 145.186 136.714C146.333 137.557 147.133 138.79 147.436 140.182C147.739 141.573 147.524 143.027 146.832 144.271C146.139 145.516 145.017 146.465 143.675 146.941C142.333 147.416 140.863 147.387 139.542 146.856C138.22 146.326 137.137 145.332 136.496 144.061C135.855 142.789 135.7 141.328 136.059 139.95C136.418 138.572 137.268 137.373 138.448 136.577L136.683 131.598L131.704 133.363C131.829 134.781 131.433 136.197 130.589 137.344C129.746 138.491 128.513 139.291 127.121 139.594C125.73 139.897 124.276 139.682 123.032 138.99C121.787 138.298 120.838 137.175 120.363 135.833C119.887 134.491 119.917 133.021 120.447 131.7C120.977 130.378 121.971 129.295 123.242 128.654C124.514 128.013 125.975 127.858 127.353 128.217C128.731 128.576 129.93 129.426 130.727 130.607ZM141.215 126.888L154.335 122.236C154.594 122.967 154.552 123.771 154.218 124.471C153.885 125.171 153.286 125.71 152.555 125.969L142.192 129.645L141.213 126.887L141.215 126.888ZM140.743 138.671C140.374 138.794 140.034 138.99 139.742 139.246C139.451 139.502 139.213 139.814 139.042 140.163C138.872 140.512 138.773 140.892 138.752 141.28C138.73 141.668 138.785 142.056 138.915 142.422C139.045 142.788 139.246 143.125 139.508 143.412C139.769 143.699 140.085 143.932 140.437 144.096C140.789 144.26 141.17 144.352 141.558 144.367C141.946 144.382 142.334 144.32 142.697 144.184C143.416 143.915 144 143.375 144.324 142.68C144.648 141.984 144.685 141.19 144.429 140.467C144.173 139.744 143.643 139.151 142.953 138.815C142.264 138.479 141.47 138.427 140.743 138.671ZM128.632 132.901C128.509 132.532 128.313 132.192 128.057 131.9C127.801 131.609 127.489 131.371 127.14 131.201C126.791 131.03 126.411 130.932 126.023 130.91C125.636 130.888 125.247 130.943 124.881 131.073C124.515 131.203 124.179 131.404 123.891 131.666C123.604 131.927 123.371 132.243 123.207 132.595C123.043 132.947 122.951 133.328 122.936 133.716C122.921 134.105 122.983 134.492 123.119 134.856C123.388 135.574 123.928 136.158 124.624 136.482C125.319 136.806 126.113 136.843 126.836 136.587C127.559 136.331 128.153 135.801 128.488 135.111C128.824 134.422 128.876 133.628 128.632 132.901Z" fill="#2B2B2B"/>
</g>
<path d="M93.1018 210.356C97.5365 202.237 83.5373 198.419 80.1623 201.64C76.7873 204.86 87.9758 219.741 93.1018 210.356Z" fill="#EA3223" fill-opacity="0.19"/>
<path d="M98.9873 207.878C107.69 207.878 103.751 192.312 100.031 192.312C95.3658 192.312 88.9325 207.878 98.9873 207.878Z" fill="#EA3223" fill-opacity="0.19"/>
<path d="M105.695 213.524C112.87 219.365 119.176 206.296 116.625 202.391C114.073 198.485 97.4017 206.773 105.695 213.524Z" fill="#EA3223" fill-opacity="0.19"/>
<path d="M96.5455 217.389C95.3345 214.587 93.5618 211.976 91.2772 209.629C87.3903 205.637 83.3021 203.765 83.261 203.747C83.1393 203.692 82.9959 203.746 82.941 203.867C82.8861 203.989 82.9402 204.132 83.062 204.187C83.1019 204.206 87.1196 206.048 90.9426 209.979C93.1832 212.283 94.9203 214.844 96.1056 217.591C96.24 217.902 96.3651 218.217 96.4853 218.534H97.0025C96.8599 218.149 96.7086 217.767 96.5455 217.389Z" fill="#003366"/>
<path d="M99.8144 195.504C99.8301 195.371 99.7352 195.251 99.6027 195.235C99.4697 195.219 99.3499 195.314 99.3338 195.447C99.3181 195.579 98.0978 206.01 98.1601 218.533H98.6437C98.5817 206.043 99.7987 195.636 99.8144 195.504Z" fill="#003366"/>
<path d="M114.208 204.14C114.133 204.028 113.983 203.998 113.872 204.073C113.838 204.096 110.347 206.444 106.756 210.306C104.8 212.409 102.576 215.229 100.947 218.533H101.488C103.08 215.374 105.217 212.671 107.102 210.643C110.656 206.82 114.106 204.498 114.141 204.475C114.252 204.401 114.282 204.25 114.208 204.14Z" fill="#003366"/>
<path d="M98.6441 218.534H98.1605H97.0025H96.4854H89.735C89.4755 218.534 89.2914 218.787 89.3717 219.034L89.7977 220.341L90.0132 221.003L93.098 230.468C93.1817 230.725 93.4214 230.899 93.6914 230.899H104.811C105.081 230.899 105.321 230.725 105.404 230.468L108.489 221.003L108.705 220.341L109.131 219.034C109.212 218.787 109.027 218.534 108.768 218.534H101.487H100.946H98.6441Z" fill="#D2DCFF"/>
<path d="M108.706 220.341L108.49 221.003H90.0136L89.7981 220.341H108.706Z" fill="#AEC3FF"/>
<defs>
<clipPath id="clip0_34_144">
<rect width="273" height="235.111" fill="white"/>
</clipPath>
<clipPath id="clip1_34_144">
<rect width="35.1016" height="35.1016" fill="white" transform="translate(114.179 138.025) rotate(-64.5237)"/>
</clipPath>
</defs>
</svg>
