<svg xmlns="http://www.w3.org/2000/svg" xmlns:xlink="http://www.w3.org/1999/xlink" width="324" height="234" viewBox="0 0 324 234">
  <defs>
    <linearGradient id="linear-gradient" x1="0.5" y1="1.001" x2="0.5" gradientUnits="objectBoundingBox">
      <stop offset="0" stop-color="gray" stop-opacity="0.251"/>
      <stop offset="0.54" stop-color="gray" stop-opacity="0.122"/>
      <stop offset="1" stop-color="gray" stop-opacity="0.102"/>
    </linearGradient>
  </defs>
  <g id="undraw_fatherhood_7i19-2" transform="translate(0.01 0.003)">
    <path id="Path_504" data-name="Path 504" d="M63.3,484.53c5.124,22,15.972,41.016,33.113,50.246,35.63,19.156,115.98,9.274,175.944-2.075a137.175,137.175,0,0,0,78.085-44.835Z" transform="translate(-59.793 -357.411)" fill="#f50057" opacity="0.1"/>
    <path id="Path_505" data-name="Path 505" d="M397.649,78.488H364.734a2.855,2.855,0,0,1,0-5.71h5.69a2.859,2.859,0,0,1,0-5.713h-4.063a2.859,2.859,0,0,1,0-5.713H383.54a45.31,45.31,0,0,0-13.4-3.709C323.295,51.6,306.57,55.6,300.671,59.717a65.465,65.465,0,0,1-24.077,10.6c-28.9,5.986-82.952,13.191-131.942-2.307C120.3,60.3,102.209,73.32,91.36,95.07h312A51.224,51.224,0,0,0,399.5,77.8,2.816,2.816,0,0,1,397.649,78.488Z" transform="translate(-79.534 -54.56)" fill="#f50057" opacity="0.1"/>
    <path id="Path_506" data-name="Path 506" d="M52.149,329.66a146.2,146.2,0,0,0,1.276,38.38L342.4,378.654a136.4,136.4,0,0,0,20.079-30.749Zm114.295,27.378h-5.69a2.855,2.855,0,0,1,0,5.71H127.84a2.855,2.855,0,0,1,0-5.71h5.69a2.859,2.859,0,0,1,0-5.713h-4.063a2.859,2.859,0,0,1,0-5.713h32.914a2.859,2.859,0,0,1,0,5.713h4.063a2.859,2.859,0,0,1,0,5.713Z" transform="translate(-51.45 -248.313)" fill="#f50057" opacity="0.1"/>
    <path id="Path_507" data-name="Path 507" d="M377.095,191.84,61.551,199.549A126.813,126.813,0,0,0,54,232.26H371.566a135.975,135.975,0,0,0,4.586-20.852A99.182,99.182,0,0,0,377.095,191.84ZM118.061,217.089H112.37a2.855,2.855,0,0,1,0,5.71H79.451a2.855,2.855,0,0,1,0-5.71h5.691a2.859,2.859,0,0,1,0-5.713H81.078a2.859,2.859,0,0,1,0-5.713H114a2.859,2.859,0,0,1,0,5.713h4.064a2.859,2.859,0,0,1,0,5.713Z" transform="translate(-53.251 -151.243)" fill="#f50057" opacity="0.1"/>
    <ellipse id="Ellipse_6" data-name="Ellipse 6" cx="103.423" cy="5.598" rx="103.423" ry="5.598" transform="translate(62.989 222.802)" fill="#f50057" opacity="0.1"/>
    <path id="Path_508" data-name="Path 508" d="M894.013,687.74s1.628,2.132-.753,5.337-4.344,5.93-3.558,7.937c0,0,3.59-5.974,6.523-6.057S897.227,691.333,894.013,687.74Z" transform="translate(-642.056 -500.502)" fill="#f50057"/>
    <path id="Path_509" data-name="Path 509" d="M894.248,687.74a2.753,2.753,0,0,1,.332.667c2.852,3.353,4.37,6.481,1.631,6.558-2.556.074-5.618,4.64-6.351,5.793a2.287,2.287,0,0,0,.086.264s3.59-5.974,6.523-6.057S897.462,691.333,894.248,687.74Z" transform="translate(-642.29 -500.502)" opacity="0.1"/>
    <path id="Path_510" data-name="Path 510" d="M913.977,695.761c0,.75-.083,1.358-.187,1.358s-.19-.608-.19-1.358.107-.4.211-.4S913.977,695.01,913.977,695.761Z" transform="translate(-658.996 -505.806)" fill="#ffd037"/>
    <path id="Path_511" data-name="Path 511" d="M915.322,698.7c-.658.359-1.23.575-1.281.483s.445-.457,1.1-.815.4-.1.448,0S915.981,698.338,915.322,698.7Z" transform="translate(-659.308 -507.847)" fill="#ffd037"/>
    <path id="Path_512" data-name="Path 512" d="M866.963,687.74s-1.628,2.132.753,5.337,4.341,5.93,3.558,7.937c0,0-3.593-5.974-6.523-6.057S863.746,691.333,866.963,687.74Z" transform="translate(-623.578 -500.502)" fill="#f50057"/>
    <path id="Path_513" data-name="Path 513" d="M866.948,687.74a2.626,2.626,0,0,0-.332.667c-2.852,3.353-4.373,6.481-1.631,6.558,2.553.074,5.633,4.64,6.351,5.793-.024.089-.053.175-.086.264,0,0-3.593-5.974-6.523-6.057S863.731,691.333,866.948,687.74Z" transform="translate(-623.562 -500.502)" opacity="0.1"/>
    <path id="Path_514" data-name="Path 514" d="M865.43,695.761c0,.75.083,1.358.187,1.358s.19-.608.19-1.358-.107-.4-.21-.4S865.43,695.01,865.43,695.761Z" transform="translate(-625.051 -505.806)" fill="#ffd037"/>
    <path id="Path_515" data-name="Path 515" d="M860.971,698.7c.658.359,1.233.575,1.284.483s-.445-.457-1.1-.815-.4-.1-.448,0S860.313,698.338,860.971,698.7Z" transform="translate(-621.631 -507.847)" fill="#ffd037"/>
    <path id="Path_516" data-name="Path 516" d="M867.18,725.749s4.554-.142,5.93-1.118,7.006-2.147,7.347-.593,6.843,7.795,1.7,7.836-11.945-.8-13.315-1.634S867.18,725.749,867.18,725.749Z" transform="translate(-626.336 -525.507)" fill="#a8a8a8"/>
    <path id="Path_517" data-name="Path 517" d="M882.254,737.181c-5.141.042-11.945-.8-13.315-1.634-1.044-.637-1.459-2.917-1.6-3.967h-.151s.3,3.67,1.657,4.507,8.174,1.675,13.315,1.634c1.482,0,2-.54,1.969-1.322C883.924,736.878,883.357,737.172,882.254,737.181Z" transform="translate(-626.343 -531.344)" opacity="0.2"/>
    <path id="Path_518" data-name="Path 518" d="M294.52,724.181a3.478,3.478,0,0,0,1.138-1.717,1.538,1.538,0,0,0-.795-1.746c-.729-.279-1.509.228-2.1.738a2.8,2.8,0,0,1-2.04.984,3.1,3.1,0,0,0,.961-2.909,1.221,1.221,0,0,0-.267-.593c-.406-.433-1.139-.249-1.625.092-1.542,1.085-1.972,3.181-1.981,5.064a9.52,9.52,0,0,1-.027-2.075,2.144,2.144,0,0,0-.783-1.847,2.371,2.371,0,0,0-1.186-.279,2.478,2.478,0,0,0-1.939.548,1.907,1.907,0,0,0,.077,2.372,7.691,7.691,0,0,0,2,1.607,4.446,4.446,0,0,1,1.435,1.367,1.709,1.709,0,0,1,.107.246h4.344A12.087,12.087,0,0,0,294.52,724.181Z" transform="translate(-214.985 -522.273)" fill="#f50057"/>
    <path id="Path_519" data-name="Path 519" d="M200.355,645.862s-4.169-14.145.78-24.555a22.343,22.343,0,0,0,1.814-14.021,37.423,37.423,0,0,0-1.983-6.576" transform="translate(-155.058 -439.275)" fill="none" stroke="#535461" stroke-miterlimit="10" stroke-width="2"/>
    <path id="Path_520" data-name="Path 520" d="M201.767,571.289c0,1.734-3.137,6.763-3.137,6.763s-3.14-5.04-3.14-6.763a3.14,3.14,0,0,1,6.277,0Z" transform="translate(-152.791 -416.278)" fill="#f50057"/>
    <path id="Path_521" data-name="Path 521" d="M219.189,599.572c-.94,1.456-6.309,3.97-6.309,3.97s.1-5.93,1.041-7.383a3.14,3.14,0,0,1,5.269,3.413Z" transform="translate(-165.025 -434.974)" fill="#f50057"/>
    <path id="Path_522" data-name="Path 522" d="M215.721,652.147c-1.548.78-7.451.24-7.451.24s3.078-5.067,4.625-5.847a3.139,3.139,0,1,1,2.826,5.607Z" transform="translate(-161.782 -471.167)" fill="#f50057"/>
    <path id="Path_523" data-name="Path 523" d="M206.062,694.3c-1.393,1.032-7.3,1.482-7.3,1.482s2.176-5.512,3.558-6.543a3.14,3.14,0,1,1,3.733,5.04Z" transform="translate(-155.091 -501.057)" fill="#f50057"/>
    <path id="Path_524" data-name="Path 524" d="M188.247,612.493c1.242,1.207,7.036,2.461,7.036,2.461s-1.42-5.755-2.668-6.964a3.14,3.14,0,1,0-4.373,4.5Z" transform="translate(-146.98 -443.597)" fill="#f50057"/>
    <path id="Path_525" data-name="Path 525" d="M175.47,660.287c1.548.78,7.451.24,7.451.24s-3.078-5.064-4.625-5.847a3.139,3.139,0,1,0-2.826,5.607Z" transform="translate(-137.491 -476.899)" fill="#f50057"/>
    <path id="Path_526" data-name="Path 526" d="M172.623,710.208c1.393,1.029,7.3,1.482,7.3,1.482s-2.173-5.512-3.558-6.543a3.14,3.14,0,0,0-3.733,5.04Z" transform="translate(-135.901 -512.376)" fill="#f50057"/>
    <path id="Path_527" data-name="Path 527" d="M201.767,571.289c0,1.734-3.137,6.763-3.137,6.763s-3.14-5.04-3.14-6.763a3.14,3.14,0,0,1,6.277,0Z" transform="translate(-152.791 -416.278)" fill="#f50057"/>
    <path id="Path_528" data-name="Path 528" d="M219.189,599.572c-.94,1.456-6.309,3.97-6.309,3.97s.1-5.93,1.041-7.383a3.14,3.14,0,0,1,5.269,3.413Z" transform="translate(-165.025 -434.974)" fill="#f50057"/>
    <path id="Path_529" data-name="Path 529" d="M215.721,652.147c-1.548.78-7.451.24-7.451.24s3.078-5.067,4.625-5.847a3.139,3.139,0,1,1,2.826,5.607Z" transform="translate(-161.782 -471.167)" fill="#f50057"/>
    <path id="Path_530" data-name="Path 530" d="M206.062,694.3c-1.393,1.032-7.3,1.482-7.3,1.482s2.176-5.512,3.558-6.543a3.14,3.14,0,1,1,3.733,5.04Z" transform="translate(-155.091 -501.057)" fill="#f50057"/>
    <path id="Path_531" data-name="Path 531" d="M188.247,612.493c1.242,1.207,7.036,2.461,7.036,2.461s-1.42-5.755-2.668-6.964a3.14,3.14,0,1,0-4.373,4.5Z" transform="translate(-146.98 -443.597)" fill="#f50057"/>
    <path id="Path_532" data-name="Path 532" d="M175.47,660.287c1.548.78,7.451.24,7.451.24s-3.078-5.064-4.625-5.847a3.139,3.139,0,1,0-2.826,5.607Z" transform="translate(-137.491 -476.899)" fill="#f50057"/>
    <path id="Path_533" data-name="Path 533" d="M172.623,710.208c1.393,1.029,7.3,1.482,7.3,1.482s-2.173-5.512-3.558-6.543a3.14,3.14,0,0,0-3.733,5.04Z" transform="translate(-135.901 -512.376)" fill="#f50057"/>
    <path id="Path_534" data-name="Path 534" d="M171,738.256s5.076-1.008,6.428-2.351,7.442-3.694,8.118-2.016,9.132,7.388,3.38,8.4-13.529,1.343-15.219.67S171,738.256,171,738.256Z" transform="translate(-135.562 -532.559)" fill="#a8a8a8"/>
    <path id="Path_535" data-name="Path 535" d="M188.934,753.309c-5.749,1.008-13.529,1.343-15.219.673-1.287-.513-2.182-2.965-2.535-4.112l-.181.039s1.017,4.029,2.707,4.7,9.47.335,15.219-.67c1.66-.3,2.135-.975,1.957-1.838C190.749,752.66,190.171,753.093,188.934,753.309Z" transform="translate(-135.562 -544.211)" opacity="0.2"/>
    <path id="Path_536" data-name="Path 536" d="M479.914,183.1c1.592-1.775.97-4.541.97-4.541s-7.513-19.1-8.346-19.313-2.923-5.029-2.923-5.029-20.034-19-20.754-19-8.035-5.247-8.972-5.351a12.287,12.287,0,0,1-3.967-1.479c-1.565-.849-17.427.106-18.053.84s-3.558,1.26-3.558,1.26-5.948.314-6.784,1.364-6.988,1.606-6.988,1.606-3.027,1.124,1.082,4.109h0c-1.316.207-2.855.367-4.418.479-.391.027-.789.053-1.186.074h-.234a3.87,3.87,0,0,0-1.459-1.955,12.246,12.246,0,0,0-1.385-.642,11.054,11.054,0,0,1-2.052-1.405,67.251,67.251,0,0,0-9.7-6.413,4.653,4.653,0,0,0-1.729-.648c-1.272-.121-2.407.769-3.653,1.068-2.188.524-4.394-.808-6.644-.828a6.831,6.831,0,0,0-6.226,4.848,7.809,7.809,0,0,1-1.144,2.9c-.889,1.032-2.393,1.183-3.611,1.8a5.435,5.435,0,0,0-2.929,4.819v.024a2.78,2.78,0,0,0,.027.47,16.41,16.41,0,0,0,1.156,3.635,15,15,0,0,1,.83,3.816.192.192,0,0,1,0,.041c.018.216.033.432.042.651v.766c0,1.13-.039,2.269-.036,3.4v.7a3.976,3.976,0,0,0,.018.456v.16a4.011,4.011,0,0,0,.036.42.743.743,0,0,0,.015.18,3.044,3.044,0,0,0,.05.4l.027.189c.021.133.044.266.068.4l.036.183c.03.142.065.3.1.426.015.05.024.1.036.148q.08.3.178.568a8.347,8.347,0,0,0,5.532,5.2,5.149,5.149,0,0,0,1.468.183,3.053,3.053,0,0,0,2.268-.9c.13.148.258.3.394.444a17.791,17.791,0,0,0,28.857-3.845c.311-.068.62-.13.931-.189.54-.1,1.082-.2,1.628-.3l.525-.083h0l.208-.036c2.668-.42,5.26-.7,7.116-.887l-7.335.908s-1.779,8.522-2.292,9.466,1.779,2.517,1.779,2.517,1.983,2.414,1.983,3.15,2.295,2.834,2.92,3.987a1.776,1.776,0,0,0,.3.4,4.2,4.2,0,0,0-1.263.766c-1.45,1.37-.967,3.771-1.631,5.653a9.586,9.586,0,0,1-2.12,3.073,4.2,4.2,0,0,0-.747,1.032,2.533,2.533,0,0,0-.2.793h0a3.874,3.874,0,0,0-.018.456v.053a1.714,1.714,0,0,0,.024.349v.151c.145,1.236.566,2.432.694,3.668a35.186,35.186,0,0,0,.228,3.686,5.484,5.484,0,0,0,.409,1.216l-4.246,4.733s-.027.234-.036.618c-3.54,2.931-9.013,8.463-7.059,13.341q.32.8.593,1.535c-1.438.914-1.912,2,.243,3.082.341.172.67.319.993.453,1.106,3.239,1.539,4.141,3.392,1.754.2-.26.43-.592.682-.95a7.226,7.226,0,0,0,4.118-1.257s7.3-.42,9.191.737c.946.592,3.169.71,5.138.7a53.568,53.568,0,0,0,.3,6.336s-.314,8.921.522,10.811a24.8,24.8,0,0,1,1.3,5.144s-1.4,3.147-.569,4.827-.729,4.094-.729,4.094v6.191l.593-.041c-.044.417-.1.855-.175,1.272a3.7,3.7,0,0,1-.827,2.115c-1.044.748-1.147,4.733-1.147,4.733s-1.669,4.83-1.358,5.67-1.981,2.517-1.459,3.777,1.589,9.235,2.517,11.536-1.892,1.68-1.892,1.68l.833,5.981s.836,6.088.211,6.508-4.225,3.464-1.749,5.247c.193.139.388.266.593.387a6.38,6.38,0,0,1-.021.828c-.047.47-.166.846-.43.887-.735.106-2.2.84-2.505.527s-2.075.793-3.854,1.154l-.246.038-2.31-.592a16.289,16.289,0,0,0-10.436-.385,4,4,0,0,0-2.488,1.509,3.257,3.257,0,0,0-.225,2.792c1.115,3.709,8.714,4.987,8.714,4.987s2.633.541,5.8,1.257h-.317a3.486,3.486,0,1,0,1.186.216,70.946,70.946,0,0,1,9.1,2.511,27.885,27.885,0,0,0,3.656,1.094,3.471,3.471,0,0,0,6.457,1.449c4.842,1.009,9.505,1.864,9.505,1.864l7.789.127h.053a3.469,3.469,0,1,0,.047,0l11.791.192a3.478,3.478,0,1,0,6.712.109l10.4.169,2.075-2.278a1.836,1.836,0,0,0,.2-.713c.062-.748-.326-1.884-2.983-2.366-.2-.035-5.615.05-10.4.13v-1.875s-.133-1.032-.216-2.248c-.024-.358-.044-.731-.053-1.1a2.856,2.856,0,0,0,.889.405c1.984.317,4.7-5.458,4.7-5.458a30,30,0,0,1,.626-5.878c.626-2.624,1.779-11.442,1.779-11.442l2.508-10.6s1.038-21.623.516-22.463.629-2.31.629-2.31.833-4.617-.418-6.191.729-3.15.729-3.15.522-5.458-.94-7.555a2.51,2.51,0,0,1,.685-3.567l.522-8.5c2.191-2.2,4.172-15.322,4.278-18.156a11.638,11.638,0,0,1,1.044-4.62,12.208,12.208,0,0,0,1.669-3.674,21.751,21.751,0,0,1,1.779-4.511l2.713-10.078a15.662,15.662,0,0,0,.089-9.211C480.142,183.634,480.029,183.359,479.914,183.1Zm-49.012.592c1.669,1.05,1.147,1.364,1.669,1.994s.1.524-.314,1.574-.1.737.1,1.89.107,1.154.107,1.154l.522.074-.726,4.872a5.335,5.335,0,0,0-1.975,3.777c-.7-.911-1.405-1.858-2.037-2.739a4.03,4.03,0,0,0,.181-1.6,33.438,33.438,0,0,1,.993-5.218,13.154,13.154,0,0,0-.169-5.357,8.127,8.127,0,0,0-.7-1.9c.676.45,1.533.982,2.342,1.491Zm1.877,102.859s1.319-.887,2.6-1.695c.43,3.115.836,6.354,1.124,9.282-.46-1.018-.78-1.71-.78-1.71a3.516,3.516,0,0,1-.806-1.994c-.05-1.142-2.138-3.872-2.138-3.872Zm-7.824-107.884a2.526,2.526,0,0,1,1.115.867c-.368-.3-.738-.592-1.118-.87Zm-19.1,38.833c-1.2.379-5.283.322-7.709.18.907-1.547,1.809-3.121,2.609-4.532a9.661,9.661,0,0,0,1.438.257l7.943-6.96a13.71,13.71,0,0,0,9.221-.059l.216.337c.092.148.19.3.3.461l-.2-.322s-3.066,1.822-2.754,2.662-.415,2.937-1.562,5.185c-.3.562-.554,1.118-.8,1.677A81.118,81.118,0,0,0,405.857,217.494Zm15.07,96.975-.044-.831c.5-.109.836-.21.836-.21a32.671,32.671,0,0,0-.522-3.674c-.314-1.26-.151-.84,1.07-1.775s0-11.536,0-11.536.593-.737,1.533,1.154a8.535,8.535,0,0,0,2.2,3.147c.314.1-1.254,2.207,0,4.2a12.051,12.051,0,0,1,1.563,4.2s-.833,3.334.418,4.816a1.838,1.838,0,0,0,.593.405c0,.275,0,.568,0,.843a10.307,10.307,0,0,1-.027,1.127.418.418,0,0,1-.667.26c-.323-.21-2.372.26-2.233,1.577a9.7,9.7,0,0,1-1.637,1.529l-2.843-.734Z" transform="translate(-265.761 -105.554)" fill="url(#linear-gradient)"/>
    <path id="Path_537" data-name="Path 537" d="M490.3,390.2s-.993,8.139,6.884,8.972l1.186-5.633-2.482-3.338-3.555-1.2Z" transform="translate(-360.692 -290.061)" fill="#f50057"/>
    <path id="Path_538" data-name="Path 538" d="M492.338,389l-2.034,1.2s-.993,8.139,6.884,8.972" transform="translate(-360.69 -290.061)" opacity="0.1"/>
    <path id="Path_539" data-name="Path 539" d="M485.319,187.151s-5.316.326-10.647,1.21q-.818.139-1.628.3c-.314.059-.623.122-.931.19a22.074,22.074,0,0,0-6.819,2.277c-1.779,1.141-2.372-1.933-2.428-6.205-.024-1.5.027-3.152.107-4.818.1-1.927.255-3.878.415-5.633.353-3.89.759-6.914.759-6.914s1.862,0,4.349-.086l.8-.03c.78-.03,1.607-.071,2.44-.122.394-.021.792-.044,1.186-.074,1.577-.113,3.134-.273,4.447-.48a9.712,9.712,0,0,0,3.152-.889C483.338,164.194,485.319,187.151,485.319,187.151Z" transform="translate(-341.404 -132.81)" fill="#f8bdc5"/>
    <path id="Path_540" data-name="Path 540" d="M611.31,334.75l-1.038,6.887s-2.262,2.817-1.966,4.382,2.906,70.748,2.906,70.748,5.114,29.216,3.338,32.972-.1,12.524-.1,12.524l10.644-1.669,3.558-127.723Z" transform="translate(-443.885 -250.846)" fill="#474463"/>
    <path id="Path_541" data-name="Path 541" d="M611.31,334.75l-1.038,6.887s-2.262,2.817-1.966,4.382,2.906,70.748,2.906,70.748,5.114,29.216,3.338,32.972-.1,12.524-.1,12.524l10.644-1.669,3.558-127.723Z" transform="translate(-443.885 -250.846)" opacity="0.1"/>
    <path id="Path_542" data-name="Path 542" d="M648.27,756.2a8.879,8.879,0,0,0-.216,3.611c.083,1.207.216,2.233.216,2.233v7.095S636.9,765.18,630.635,761c-2.582-1.723-3.318-3.324-3.175-4.6a3.75,3.75,0,0,1,3.175-3.012c.937,0,3.9-1.634,6.321-3.078,1.906-1.13,3.49-2.141,3.49-2.141S648.9,755.161,648.27,756.2Z" transform="translate(-457.392 -543.015)" fill="#575988"/>
    <path id="Path_543" data-name="Path 543" d="M670.844,756.2a8.879,8.879,0,0,0-.216,3.611c-2.529-1.186-10.359-8.782-11.1-9.505,1.906-1.13,3.49-2.141,3.49-2.141S671.469,755.161,670.844,756.2Z" transform="translate(-479.983 -543.015)" opacity="0.1"/>
    <path id="Path_544" data-name="Path 544" d="M657.773,323.235l-2.713,10.018a21.738,21.738,0,0,0-1.779,4.486,12.182,12.182,0,0,1-1.669,3.653,11.563,11.563,0,0,0-1.044,4.59c-.1,2.82-2.075,15.862-4.278,18.053l-.522,8.453a2.513,2.513,0,0,0-.626,3.558c1.45,2.1.94,7.513.94,7.513s-1.984,1.565-.729,3.131.415,6.158.415,6.158-1.147,1.459-.626,2.295-.516,22.331-.516,22.331l-2.508,10.537s-1.15,8.767-1.779,11.376a29.392,29.392,0,0,0-.626,5.841s-2.713,5.74-4.7,5.429-11.581-9.707-11.581-9.707l1.355-31.724s1.147-13.461.418-16.07-1.251-15.651-1.251-15.651L622.5,356.949,607.9,333.992s-1.058-6.68,1.966-8.66l.549-3.608.5-3.279,17.324-1.88,26.5-6.884a8.544,8.544,0,0,1,3.113,4.406A15.39,15.39,0,0,1,657.773,323.235Z" transform="translate(-443.571 -234.531)" fill="#474463"/>
    <path id="Path_545" data-name="Path 545" d="M583.334,364.581s-12.313,15.121-11.791,10.9c.326-2.654-1.358-5.894-2.668-7.943-.774-1.219-1.414-2.016-1.414-2.016s7.513-13.772,7.931-11.9a15.312,15.312,0,0,0,2.12,3.507C579.868,360.386,583.334,364.581,583.334,364.581Z" transform="translate(-415.108 -265.038)" fill="#ffc1c8"/>
    <path id="Path_546" data-name="Path 546" d="M648.27,787.211v1.482s-11.373-3.964-17.635-8.139c-2.582-1.723-3.318-3.324-3.175-4.6,3.457,1.749,9.888,5.085,11.836,6.588C640.95,783.813,645.226,785.832,648.27,787.211Z" transform="translate(-457.392 -562.558)" fill="#fff" opacity="0.3"/>
    <circle id="Ellipse_7" data-name="Ellipse 7" cx="3.478" cy="3.478" r="3.478" transform="translate(184.696 223.327)" fill="#474463"/>
    <circle id="Ellipse_8" data-name="Ellipse 8" cx="3.478" cy="3.478" r="3.478" transform="translate(149.313 218.444)" fill="#474463"/>
    <path id="Path_547" data-name="Path 547" d="M544.953,771.262a1.836,1.836,0,0,1-.2.709l-2.075,2.262-29.008-.465-7.8-.128s-16.419-2.989-19.619-4.382-15.776-3.943-15.776-3.943-7.6-1.275-8.711-4.96a3.188,3.188,0,0,1,.225-2.775,4,4,0,0,1,2.488-1.5,16.4,16.4,0,0,1,10.436.385l48.624,12.509.753.193s17.333-.323,17.682-.261C544.627,769.389,545.015,770.518,544.953,771.262Z" transform="translate(-340.614 -548.105)" fill="#f50057"/>
    <path id="Path_548" data-name="Path 548" d="M544.953,776.423c-2.917-.38-8.005-.94-9.316-.4,0,0-9.253-1.144-21.984,2.906l-7.789-.128s-16.419-2.989-19.619-4.382-15.776-3.943-15.776-3.943-7.6-1.275-8.711-4.96a3.188,3.188,0,0,1,.225-2.775c.519,1.512,1.518,3.7,3.113,4.317,2.505.964,12.8,2.926,12.8,2.926l20.38,4.99s11.768,2.553,16.348.889a52.6,52.6,0,0,1,8.895-1.749l.753.193s17.333-.323,17.682-.261C544.627,774.549,545.015,775.679,544.953,776.423Z" transform="translate(-340.614 -553.265)" fill="#fff" opacity="0.3"/>
    <path id="Path_549" data-name="Path 549" d="M597.755,769.085a9.634,9.634,0,0,1-.163,1.3s-11.527.412-17.528-.477A4.43,4.43,0,0,1,577,768.5a2.167,2.167,0,0,1-.216-2.075,3.262,3.262,0,0,1,.252-.557c.448-.783,1.136-1.337,1.512-1.263,1.044.211,2.834-1.93,2.834-1.93-.142-1.307,1.912-1.779,2.233-1.565a.418.418,0,0,0,.667-.261c.021-.1.027-.569.027-1.121,0-.919-.027-2.075-.027-2.075l11.587,1.408.46,2.215c.421,1.975,1.008,4.687,1.26,5.615a6.7,6.7,0,0,1,.163,2.2Z" transform="translate(-421.573 -549.684)" fill="#474463"/>
    <path id="Path_550" data-name="Path 550" d="M598.671,794.659a9.633,9.633,0,0,1-.163,1.3s-11.527.412-17.528-.477a4.429,4.429,0,0,1-3.06-1.411,18.9,18.9,0,0,1,4.779.16C584.466,794.671,595.036,794.671,598.671,794.659Z" transform="translate(-422.49 -575.258)" opacity="0.1"/>
    <path id="Path_551" data-name="Path 551" d="M516.835,757.439a.593.593,0,0,1-.252.557c-1.459,1.127-8.459-.1-8.459-.1s-14.3-.889-16.44-2.348a1.509,1.509,0,0,1-.471-.5c-.889-1.607,2.33-4.3,2.609-4.3s4.124-.525,4.382-.575c1.779-.359,3.558-1.462,3.854-1.147s1.779-.418,2.5-.522c.264-.039.385-.412.43-.889a9.883,9.883,0,0,0-.065-1.936l11.424,3.075.1,1.82.329,6.06.042.744A.268.268,0,0,1,516.835,757.439Z" transform="translate(-361.282 -541.263)" fill="#474463"/>
    <path id="Path_552" data-name="Path 552" d="M508.532,780.143s-14.3-.889-16.44-2.348a1.509,1.509,0,0,1-.471-.5c2.9.237,7.726.637,8.6.86,1.254.3,8.3.729,8.3.729h8.666l.042.744C517.6,781.733,508.532,780.143,508.532,780.143Z" transform="translate(-361.678 -563.508)" opacity="0.1"/>
    <circle id="Ellipse_9" data-name="Ellipse 9" cx="3.478" cy="3.478" r="3.478" transform="translate(131.967 218.444)" fill="#474463"/>
    <circle id="Ellipse_10" data-name="Ellipse 10" cx="3.478" cy="3.478" r="3.478" transform="translate(169.588 225.663)" fill="#474463"/>
    <path id="Path_553" data-name="Path 553" d="M480.829,393.355s-.658,1.186-1.648,2.947c-2.372,4.186-6.638,11.607-8.474,13.956-2.609,3.338-2.4.21-5.218-6.781-2.093-5.2,4.349-11.151,7.795-13.855,1.186-.94,2.016-1.482,2.016-1.482Z" transform="translate(-342.956 -289.469)" fill="#f8bdc5"/>
    <path id="Path_554" data-name="Path 554" d="M492.93,432.83s-8.66.729-10.33,1.251-8.868.208-9.488,0-12.942,2.609-7.305,5.426,9.191,0,9.191,0,7.305-.418,9.191.732,8.764.522,8.764.522Z" transform="translate(-342.454 -320.922)" fill="#ffc1c8"/>
    <path id="Path_555" data-name="Path 555" d="M473.883,184.973c1.067,2.731.4,5.108-.857,7.549-3.149.593-6.111,1.408-7.759,2.467-4.7,3.027-1.147-23.583-1.147-23.583s2.271,0,5.15-.116C468.4,175.269,471.7,179.4,473.883,184.973Z" transform="translate(-341.368 -136.683)" opacity="0.1"/>
    <path id="Path_556" data-name="Path 556" d="M416.572,173.168a17.789,17.789,0,1,1-1.779-7.777A17.789,17.789,0,0,1,416.572,173.168Z" transform="translate(-283.724 -125.471)" fill="#f8bdc5"/>
    <path id="Path_557" data-name="Path 557" d="M664.286,314.056a4.074,4.074,0,0,1-2.372,1.646c-4.071,1.147-32.768,8.035-34.645,7.617-1.657-.368-8.77-1.391-10.41-1.625l.5-3.279,17.324-1.88,26.5-6.884A8.56,8.56,0,0,1,664.286,314.056Z" transform="translate(-450.001 -234.189)" opacity="0.1"/>
    <path id="Path_558" data-name="Path 558" d="M514.543,187.106a100.017,100.017,0,0,0-10.125,1.127.7.7,0,0,0-.018-.466l6.938-.857s-1.014-16.307-4.744-20.214a9.712,9.712,0,0,0,3.152-.889C512.562,164.15,514.543,187.106,514.543,187.106Z" transform="translate(-370.657 -132.765)" opacity="0.1"/>
    <path id="Path_559" data-name="Path 559" d="M499.885,142.51s6.158-.554,6.991-1.6,6.784-1.355,6.784-1.355,2.92-.522,3.558-1.254,16.485-1.669,18.05-.833a12.537,12.537,0,0,0,3.967,1.462c.94.107,8.242,5.319,8.972,5.319s20.754,18.889,20.754,18.889,2.075,4.8,2.923,5.008,8.349,19.2,8.349,19.2,1.044,4.59-3.024,5.74-32.768,8.035-34.644,7.617-10.748-1.669-10.748-1.669.1,0-.1-1.147-.522-.836-.107-1.88.836-.94.314-1.565,0-.94-1.669-1.983a21.019,21.019,0,0,1-3.653-2.5c-.095-.311-1.565-2.4-2.295-2.505s-21.184-5.844-21.184-5.844l-4.8-1.565s-2.295-1.565-1.779-2.5,2.292-9.413,2.292-9.413l7.338-.9s-1.094-17.671-5.2-20.635S499.885,142.51,499.885,142.51Z" transform="translate(-365.229 -112.659)" fill="#f50057"/>
    <path id="Path_560" data-name="Path 560" d="M500.3,393.355s-.658,1.186-1.648,2.947c-.154-5.444-3.961-6.5-5.9-6.68,1.186-.94,2.016-1.482,2.016-1.482Z" transform="translate(-362.443 -289.454)" opacity="0.1"/>
    <path id="Path_561" data-name="Path 561" d="M493.536,272.34l.5,2.817s1.984,2.4,1.984,3.131,2.295,2.817,2.923,3.964,2.817,1.358,1.981,3.341-5.633,17.113-5.633,17.113l-4.9,5.426s8.139-.732,6.884,8.972l10.54-9.191,8.254-15.017s-8.035-15.233-8.346-16.485S493.536,272.34,493.536,272.34Z" transform="translate(-360.812 -207.939)" fill="#f50057"/>
    <path id="Path_562" data-name="Path 562" d="M583.31,277.479s6.677-4.7,6.677-5.218S583.31,277.479,583.31,277.479Z" transform="translate(-426.26 -207.831)" opacity="0.1"/>
    <path id="Path_563" data-name="Path 563" d="M621,302.143s3.558-.836,3.854-2.713S621,302.143,621,302.143Z" transform="translate(-452.814 -226.667)" opacity="0.1"/>
    <path id="Path_564" data-name="Path 564" d="M630.82,318.841s5.011-2.482,4.8-2.911S630.82,318.841,630.82,318.841Z" transform="translate(-459.736 -238.576)" opacity="0.1"/>
    <path id="Path_565" data-name="Path 565" d="M717.537,272.23s-2.075,1.355-1.459,2.624S717.537,272.23,717.537,272.23Z" transform="translate(-519.729 -207.832)" opacity="0.1"/>
    <path id="Path_566" data-name="Path 566" d="M730.678,274.1s-5.912,5.633-4.575,5.74S730.678,274.1,730.678,274.1Z" transform="translate(-526.742 -209.15)" opacity="0.1"/>
    <path id="Path_567" data-name="Path 567" d="M696.64,568.68s7.617,1.462,7.824,1.983S696.64,568.68,696.64,568.68Z" transform="translate(-506.126 -416.573)" opacity="0.1"/>
    <path id="Path_568" data-name="Path 568" d="M705.79,585.57s4.068,2.505,4.172,3.235S705.79,585.57,705.79,585.57Z" transform="translate(-512.565 -428.468)" opacity="0.1"/>
    <path id="Path_569" data-name="Path 569" d="M702.62,604.58s.626,2.817,1.669,3.235S702.62,604.58,702.62,604.58Z" transform="translate(-510.326 -441.853)" opacity="0.1"/>
    <path id="Path_570" data-name="Path 570" d="M414.607,165.25a.2.2,0,0,1-.015.092,2.627,2.627,0,0,1-1.393,2.241,2.218,2.218,0,0,1-1.58-.145c-1.482-.649-2.8-2.209-4.385-1.832a2.626,2.626,0,0,0-1.654,1.453,7.293,7.293,0,0,0-.593,1.592,5.694,5.694,0,0,0-.08,3.531,3.6,3.6,0,0,0,.267.522c.421.673,1.014,1.245,1.429,1.924.516.848.649,2.12-.154,2.7a1.628,1.628,0,0,1-1.382.193,8.221,8.221,0,0,1-1.687-.747,3.452,3.452,0,0,0-3.368-.255c-.344.213-.62.522-.949.747a3.421,3.421,0,0,1-2.292.477c-1.886-.193-2.591-1.388-4.032-2.313-1.056-.682-3.261-.972-3.89.421-.4.889.2,2.01-.2,2.917s-1.648,1.186-2.23,2.028c-.765,1.109-.053,2.713-.614,3.943a2.01,2.01,0,0,1-.341.522,17.843,17.843,0,0,1,25.231-25.2l.8-.03c.78-.03,1.607-.071,2.44-.122a6.794,6.794,0,0,1,.46,1.3,10.851,10.851,0,0,1,.211,4.038Z" transform="translate(-283.517 -125.422)" opacity="0.1"/>
    <path id="Path_571" data-name="Path 571" d="M370.548,160.329c-.406.889.193,2.01-.2,2.914s-1.654,1.186-2.23,2.028c-.768,1.112-.056,2.716-.614,3.943-.64,1.4-2.574,1.622-4.056,1.213a8.3,8.3,0,0,1-5.532-5.174c-1.005-2.861-.356-6.01-.617-9.031a14.982,14.982,0,0,0-.83-3.792,16.091,16.091,0,0,1-1.156-3.614,5.372,5.372,0,0,1,2.9-5.28c1.222-.593,2.725-.762,3.614-1.779a7.809,7.809,0,0,0,1.144-2.882,6.833,6.833,0,0,1,6.226-4.818c2.247.018,4.447,1.343,6.644.821,1.242-.3,2.372-1.186,3.653-1.058a4.634,4.634,0,0,1,1.729.643,67.36,67.36,0,0,1,9.7,6.374,10.918,10.918,0,0,0,2.055,1.4,12.748,12.748,0,0,1,1.385.637,4.464,4.464,0,0,1,1.732,2.82,10.771,10.771,0,0,1,.219,4.038,2.687,2.687,0,0,1-1.408,2.336,2.215,2.215,0,0,1-1.583-.151c-1.482-.643-2.8-2.2-4.382-1.829-1.293.3-1.915,1.761-2.253,3.045a5.66,5.66,0,0,0-.08,3.534,20.528,20.528,0,0,0,1.693,2.443c.507.851.652,2.123-.154,2.7-.889.643-2.1-.042-3.072-.551a3.455,3.455,0,0,0-3.365-.258c-.341.213-.617.522-.949.75a3.451,3.451,0,0,1-2.289.474c-1.889-.193-2.594-1.388-4.032-2.313C373.38,159.224,371.18,158.933,370.548,160.329Z" transform="translate(-265.618 -110.314)" fill="#474463"/>
    <path id="Path_572" data-name="Path 572" d="M577.521,357.109c-.08.445-.691.5-.815.928-1.186,4.183-3.8,7.946-7.821,9.488-.774-1.219-1.414-2.016-1.414-2.016s7.513-13.772,7.931-11.9A15.518,15.518,0,0,0,577.521,357.109Z" transform="translate(-415.104 -265.023)" opacity="0.1"/>
    <path id="Path_573" data-name="Path 573" d="M536.75,323.422a13.724,13.724,0,1,1-4.02-9.753,13.775,13.775,0,0,1,4.02,9.753Z" transform="translate(-374.072 -234.2)" fill="#ffc1c8"/>
    <path id="Path_574" data-name="Path 574" d="M549.334,748.785l.1,1.82c-1.207.267-3.5.617-4.839-.2-1.729-1.058-4.281-1.316-6.621-2.757a9.881,9.881,0,0,0-.065-1.936Z" transform="translate(-394.275 -541.284)" opacity="0.1"/>
    <path id="Path_575" data-name="Path 575" d="M614.54,761.265c-.08.406-.154.655-.154.655s-9.206-.943-11.859-2.215c0-.919-.027-2.075-.027-2.075l11.587,1.408Z" transform="translate(-439.794 -549.67)" opacity="0.1"/>
    <path id="Path_576" data-name="Path 576" d="M563.845,592.233c-.626,1.669-.94,1.984-.311,2.817s.311,5.218-.685,5.633-4.744,2.92-4.744,2.92,2.075,2.713,2.138,3.854a3.493,3.493,0,0,0,.806,1.983s3.214,6.887,3.854,9.078,1.227,5.633,1.227,5.633-1.124,3.131-.347,4.907,0,4.382,0,4.382-11.21-1.147-12.452-2.621-.415-4.788-.415-4.788a11.988,11.988,0,0,0-1.565-4.175c-1.254-1.983.3-4.068,0-4.174a8.817,8.817,0,0,1-2.2-3.128c-.943-1.877-1.53-1.15-1.53-1.15s1.221,10.54,0,11.48-1.388.522-1.073,1.779a32.268,32.268,0,0,1,.522,3.653s-3.756,1.147-5.633,0-4.7-1.358-7.184-3.131,1.124-4.8,1.749-5.218-.208-6.469-.208-6.469l-.836-5.948s2.817.626,1.892-1.669-2-10.226-2.517-11.477,1.779-2.923,1.462-3.757,1.355-5.633,1.355-5.633.107-3.964,1.147-4.708a3.68,3.68,0,0,0,.827-2.1,26.129,26.129,0,0,0,.323-3.416s23.894-1.669,27.754.626c1.737,1.032,1.616,2.932.889,4.856a38,38,0,0,1-3.175,5.612C564.056,589.484,564.471,590.564,563.845,592.233Z" transform="translate(-391.14 -422.034)" fill="#575988"/>
    <path id="Path_577" data-name="Path 577" d="M581.618,582.271c-2.965.833-6.914,2.058-7.557,2.76-1.044,1.15-4.593-6.469-4.593-6.469s.211,5.728-4.486,3.333c-4.065-2.075-10.626-1.8-12.322-1.69a26.127,26.127,0,0,0,.323-3.416s23.894-1.669,27.754.626C582.475,578.446,582.353,580.347,581.618,582.271Z" transform="translate(-404.706 -421.88)" opacity="0.1"/>
    <path id="Path_578" data-name="Path 578" d="M566.548,379.695s2.075-2.505,2.505-1.565,2.879,2.817,2.879,2.817.7,2.191,1.939,2.505,10.522,12.835,10.522,12.835l-3.341,6.781-2.713,16.488s.119,2.609-.62,3.558-3.558.729-2.25,1.877,3.184,2.191,4.228,7.412a48.508,48.508,0,0,0,2.295,8.242s-9.808,2.505-10.851,3.653-4.593-6.469-4.593-6.469.211,5.725-4.486,3.333-12.731-1.663-12.731-1.663v-6.167s1.565-2.4.732-4.071.569-4.8.569-4.8a24.576,24.576,0,0,0-1.3-5.111c-.836-1.877-.522-10.748-.522-10.748s-.635-5.74-.056-8.663a25.915,25.915,0,0,1,2.571-7.258c1.147-2.236,1.874-4.323,1.563-5.159s2.754-2.645,2.754-2.645l1.7,2.748.433,1.643S566.759,382.826,566.548,379.695Z" transform="translate(-401.795 -282.328)" fill="#dce6f2"/>
    <path id="Path_579" data-name="Path 579" d="M603.069,432.83s5.844,5.737,6.469,6.677,2.722,5.826.009,7.308-13.342,3.768-14.4,2.98-7.412.889-7.412.889-10.632,2.609-8.337-1.669,7.723-3.558,7.723-3.558,8.77-.015,9.707-.889,8.005-2.751,6.4-6.618S603.069,432.83,603.069,432.83Z" transform="translate(-423.329 -320.934)" fill="#ffc1c8"/>
    <path id="Path_580" data-name="Path 580" d="M572.812,519.41S559.2,531.2,560.555,531.2,572.812,519.41,572.812,519.41Z" transform="translate(-410.168 -381.893)" opacity="0.1"/>
    <path id="Path_581" data-name="Path 581" d="M624.205,535.6s-4.326,1.041-3.49,1.669S624.205,535.6,624.205,535.6Z" transform="translate(-452.537 -393.28)" opacity="0.1"/>
    <path id="Path_582" data-name="Path 582" d="M581.29,439.16s5.4.483,4.447,2.173S581.29,439.16,581.29,439.16Z" transform="translate(-424.832 -325.374)" opacity="0.1"/>
    <path id="Path_583" data-name="Path 583" d="M569.168,610.09s-.732,2.123,0,3.261,0,3.854,0,3.854v9.488s-.1,6.887,2.4,9.286Z" transform="translate(-416.057 -445.771)" opacity="0.1"/>
    <path id="Path_584" data-name="Path 584" d="M545.83,709.81a17.826,17.826,0,0,1,1.669,2.92C547.71,713.513,545.83,709.81,545.83,709.81Z" transform="translate(-399.838 -516.028)" opacity="0.1"/>
    <path id="Path_585" data-name="Path 585" d="M547.06,694.49s3.392-.626,3.914-.261S547.06,694.49,547.06,694.49Z" transform="translate(-400.709 -504.986)" opacity="0.1"/>
    <path id="Path_586" data-name="Path 586" d="M543.13,738.49s-.993.1.99,1.186,5.844,2.452,5.894,1.984S543.13,738.49,543.13,738.49Z" transform="translate(-397.77 -536.205)" opacity="0.1"/>
    <path id="Path_587" data-name="Path 587" d="M592.69,703.353c.35,0,4.717-.261,4.465.418S592.69,703.353,592.69,703.353Z" transform="translate(-432.865 -511.451)" opacity="0.1"/>
    <path id="Path_588" data-name="Path 588" d="M612.7,680.1s.99-1.72,1.355-.99S612.7,680.1,612.7,680.1Z" transform="translate(-446.96 -494.204)" opacity="0.1"/>
    <path id="Path_589" data-name="Path 589" d="M536.757,323.371a13.723,13.723,0,0,1-.528,3.786,2.063,2.063,0,0,1-2.277.139,6.133,6.133,0,0,1-1.912-2.075A4.725,4.725,0,0,0,530,323.305a3.7,3.7,0,0,0-3.365.7c-.972.7-1.749,1.625-2.668,2.372a4.34,4.34,0,0,1-3.261,1.168,5.6,5.6,0,0,1-2.075-.955,18.632,18.632,0,0,0-2.82-1.809c-.975-.377-1.779.3-2.707.3-.738.267-1.542.875-1.393,1.643a2.547,2.547,0,0,0,.38.795,3.335,3.335,0,0,1-.436,3.673,13.775,13.775,0,1,1,25.1-7.836Z" transform="translate(-374.079 -234.144)" opacity="0.1"/>
    <path id="Path_590" data-name="Path 590" d="M506.694,311.789c-.738.267-1.542.875-1.4,1.645a2.642,2.642,0,0,0,.382.792,3.328,3.328,0,0,1-1.482,4.48,1.313,1.313,0,0,1-.824.13,1.458,1.458,0,0,1-.593-.356,5.488,5.488,0,0,1-1.711-2.95,35.553,35.553,0,0,1-.228-3.662c-.13-1.219-.549-2.419-.694-3.647a3.383,3.383,0,0,1,.187-1.8,4.192,4.192,0,0,1,.747-1.026,9.628,9.628,0,0,0,2.12-3.054c.661-1.874.181-4.26,1.628-5.633a9.047,9.047,0,0,1,2.437-1.26,17.168,17.168,0,0,0,2.238-1.42c2.683-1.844,5.945-3.261,9.135-2.609a12.99,12.99,0,0,1,3.62,1.482,40.7,40.7,0,0,1,5.93,3.985,9.226,9.226,0,0,1,2.075,2.132,7.394,7.394,0,0,1,.907,2.268,13,13,0,0,1,.172,5.337,34.514,34.514,0,0,0-1,5.189,3.353,3.353,0,0,1-.258,1.743,1.933,1.933,0,0,1-2.532.439,6.042,6.042,0,0,1-1.909-2.075A4.686,4.686,0,0,0,523.611,310a3.7,3.7,0,0,0-3.365.7c-.973.7-1.746,1.625-2.668,2.372a4.324,4.324,0,0,1-3.261,1.168,5.593,5.593,0,0,1-2.075-.952,18.3,18.3,0,0,0-2.817-1.809C508.452,311.107,507.619,311.789,506.694,311.789Z" transform="translate(-367.666 -221.247)" fill="#794f6a"/>
    <path id="Path_591" data-name="Path 591" d="M599.091,432.83s-15.337,14.19-12.209,21.285,16.9-5.426,16.9-5.426l4.91-11.361Z" transform="translate(-428.513 -320.94)" fill="#f8bdc5"/>
    <g id="Group_555" data-name="Group 555" transform="translate(132.443 82.652)" opacity="0.1">
      <path id="Path_592" data-name="Path 592" d="M504.212,355.681a1.3,1.3,0,0,1-.821.13,1.417,1.417,0,0,1-.593-.359,5.5,5.5,0,0,1-1.714-2.947c-.252-1.2-.095-2.446-.225-3.665s-.551-2.416-.694-3.647a.782.782,0,0,0-.015-.184,4.692,4.692,0,0,0,.015,1.02c.142,1.227.563,2.413.694,3.647a36.336,36.336,0,0,0,.225,3.662,5.494,5.494,0,0,0,1.714,2.95,1.44,1.44,0,0,0,.593.356,1.3,1.3,0,0,0,.821-.13,3.349,3.349,0,0,0,1.826-3.421A3.288,3.288,0,0,1,504.212,355.681Z" transform="translate(-500.13 -341.734)"/>
      <path id="Path_593" data-name="Path 593" d="M543.623,335.825a34.144,34.144,0,0,0-.993,5.189,3.324,3.324,0,0,1-.261,1.743,1.928,1.928,0,0,1-2.529.439,6.051,6.051,0,0,1-1.912-2.075,4.668,4.668,0,0,0-2.037-1.912,3.7,3.7,0,0,0-3.362.7c-.972.7-1.749,1.622-2.668,2.372a4.343,4.343,0,0,1-3.261,1.171,5.647,5.647,0,0,1-2.075-.955,18.522,18.522,0,0,0-2.817-1.809c-.972-.377-1.779.3-2.707.3-.738.27-1.542.875-1.4,1.648a1.23,1.23,0,0,0,.08.243A2.307,2.307,0,0,1,519,341.82c.925,0,1.743-.664,2.707-.3a17.861,17.861,0,0,1,2.817,1.809,5.508,5.508,0,0,0,2.075.952,4.278,4.278,0,0,0,3.261-1.168c.913-.756,1.7-1.69,2.668-2.372a3.74,3.74,0,0,1,3.362-.7,4.7,4.7,0,0,1,2.037,1.912,6.3,6.3,0,0,0,1.912,2.075,1.909,1.909,0,0,0,2.529-.439,3.54,3.54,0,0,0,.261-1.743,33.072,33.072,0,0,1,.993-5.189,13.12,13.12,0,0,0,.19-2.7A13.156,13.156,0,0,1,543.623,335.825Z" transform="translate(-512.409 -333.96)"/>
    </g>
    <path id="Path_594" data-name="Path 594" d="M562.408,175.222s-5.633,10.226,2.075,15.444,8.453,4.7,8.453,4.7a7.5,7.5,0,0,0,0,1.565c.107.314,2.075,1.041,2.075,1.041a16.872,16.872,0,0,0,5.841,5.532,8.165,8.165,0,0,1,4.071,5.633,3.556,3.556,0,0,0,1.779,2.609c1.779,1.251,3.149,4.9,3.149,4.9v3.341c0,.522.626,2.075-.729,2.241s-.211,3.288-.211,3.288-1.459,1.779-1.147,2.609-.626,2.5-.626,2.5-1.147,1.669-1.044,1.983-1.251,1.462-.94,2.191-1.562,1.669-1.251,2.505-1.334,1.251-1.334,1.251L578.059,249s9.488,2.075,11.937,7.3l11.96-21.913s6.677-16.381,6.887-17.424-1.462-4.8-1.462-4.8l-8.139-14.824L587.034,180.12S577.33,159.466,562.408,175.222Z" transform="translate(-410.221 -135.281)" opacity="0.1"/>
    <path id="Path_595" data-name="Path 595" d="M585.958,190.373s-14.658,5.144-6.938,10.362,8.453,4.693,8.453,4.693a7.718,7.718,0,0,0,0,1.565c.1.311,2.075,1.044,2.075,1.044a16.9,16.9,0,0,0,5.844,5.532,8.165,8.165,0,0,1,4.071,5.633,3.556,3.556,0,0,0,1.779,2.609c1.779,1.251,3.131,4.9,3.131,4.9v3.338c0,.522.626,2.075-.732,2.244s-.208,3.288-.208,3.288-1.462,1.779-1.147,2.606-.626,2.505-.626,2.505-1.147,1.669-1.044,1.984-1.254,1.462-.94,2.191-1.565,1.669-1.251,2.505-1.337,1.251-1.337,1.251l-4.507,10.433s7.815.4,10.282,5.633l13.612-20.229s6.68-16.381,6.887-17.425-1.456-4.812-1.456-4.812l-8.139-14.824L595.2,196.7S600.88,174.615,585.958,190.373Z" transform="translate(-421.743 -146.241)" opacity="0.1"/>
    <path id="Path_596" data-name="Path 596" d="M565.228,175.224s-5.633,10.226,2.075,15.444,8.453,4.7,8.453,4.7a7.715,7.715,0,0,0,0,1.565c.1.314,2.075,1.041,2.075,1.041a16.9,16.9,0,0,0,5.844,5.532,8.165,8.165,0,0,1,4.071,5.633,3.556,3.556,0,0,0,1.779,2.609c1.779,1.251,3.146,4.9,3.146,4.9v3.341c0,.522.626,2.075-.732,2.241s-.208,3.288-.208,3.288-1.462,1.779-1.147,2.609-.626,2.5-.626,2.5-1.147,1.669-1.044,1.983-1.254,1.462-.94,2.191-1.565,1.669-1.251,2.505-1.337,1.251-1.337,1.251L580.879,249s9.47,2.075,11.934,7.3l11.96-21.913s6.68-16.381,6.887-17.425-1.462-4.8-1.462-4.8l-8.139-14.824-12.206-17.211S580.147,159.469,565.228,175.224Z" transform="translate(-412.209 -135.284)" fill="#f50057"/>
    <g id="Group_556" data-name="Group 556" transform="translate(89.673 37.467)" opacity="0.1">
      <path id="Path_597" data-name="Path 597" d="M357.3,188.752a14.877,14.877,0,0,0-.83-3.8,16.091,16.091,0,0,1-1.156-3.614v-.113a4.836,4.836,0,0,0,0,.949,16.237,16.237,0,0,0,1.156,3.614,14.853,14.853,0,0,1,.83,3.792c.042.486.059.978.065,1.482C357.375,190.282,357.366,189.514,357.3,188.752Z" transform="translate(-355.291 -181.23)"/>
      <path id="Path_598" data-name="Path 598" d="M372.325,231.657c-.637,1.4-2.574,1.622-4.056,1.21a8.319,8.319,0,0,1-5.532-5.171,12.245,12.245,0,0,1-.593-3.946,13.567,13.567,0,0,0,.593,4.779,8.322,8.322,0,0,0,5.532,5.174c1.482.409,3.418.19,4.056-1.213a4.524,4.524,0,0,0,.231-1.957A3.057,3.057,0,0,1,372.325,231.657Z" transform="translate(-360.11 -211.143)"/>
      <path id="Path_599" data-name="Path 599" d="M470.037,182.316a2.68,2.68,0,0,1-1.408,2.333,2.218,2.218,0,0,1-1.58-.148c-1.482-.646-2.8-2.206-4.385-1.829-1.293.3-1.912,1.758-2.253,3.045a7.5,7.5,0,0,0-.317,2.511,9.783,9.783,0,0,1,.317-1.678c.341-1.284.961-2.737,2.253-3.045,1.583-.374,2.891,1.186,4.385,1.829a2.206,2.206,0,0,0,1.58.151,2.681,2.681,0,0,0,1.408-2.336,10.777,10.777,0,0,0,.089-1.829C470.111,181.652,470.081,181.987,470.037,182.316Z" transform="translate(-429.015 -181.293)"/>
      <path id="Path_600" data-name="Path 600" d="M423.978,219.568c-.889.643-2.1-.042-3.072-.554a3.455,3.455,0,0,0-3.365-.258c-.341.213-.617.522-.949.75a3.412,3.412,0,0,1-2.289.474c-1.889-.193-2.594-1.388-4.032-2.313-1.055-.679-3.261-.97-3.89.424a2.529,2.529,0,0,0-.122,1.284,1.67,1.67,0,0,1,.122-.448c.632-1.4,2.834-1.106,3.89-.424,1.438.925,2.144,2.12,4.032,2.313a3.43,3.43,0,0,0,2.289-.477c.332-.225.608-.534.949-.747a3.461,3.461,0,0,1,3.365.258c.975.51,2.176,1.186,3.072.551a1.644,1.644,0,0,0,.531-1.693A1.37,1.37,0,0,1,423.978,219.568Z" transform="translate(-391.125 -206.466)"/>
      <path id="Path_601" data-name="Path 601" d="M399.871,229.26c-.406.931-1.654,1.186-2.23,2.025a3.591,3.591,0,0,0-.379,2.179,2.467,2.467,0,0,1,.379-1.343c.575-.839,1.823-1.1,2.23-2.028a2.58,2.58,0,0,0,.113-1.263A1.673,1.673,0,0,1,399.871,229.26Z" transform="translate(-384.813 -214.717)"/>
    </g>
  </g>
</svg>
