<svg width="44" height="40" viewBox="0 0 44 40" fill="none" xmlns="http://www.w3.org/2000/svg">
<path d="M1.09541 16.3078C5.56263 23.4847 4.91241 30.7276 7.06596 34.1864C9.21952 37.6453 15.7291 43.6709 31.6387 33.7672C47.5484 23.8636 43.8011 12.6399 41.4336 8.83511C30.3456 -8.97755 -6.81604 3.59789 1.09541 16.3078Z" fill="#EFEFEF"/>
<path d="M35.546 8.29007V19.5956H31.3294C30.3638 19.5956 29.4838 20.1578 29.0927 21.0378L25.9638 28.0412C25.7805 28.469 25.3527 28.7623 24.8516 28.7623C24.3016 28.7623 23.8371 28.3956 23.6782 27.8945L18.6916 11.2967C18.5327 10.7956 18.0682 10.429 17.5182 10.429C16.9682 10.429 16.5038 10.7956 16.3449 11.2967L14.3771 17.8601C14.0594 18.8867 13.1182 19.5956 12.0305 19.5956H8.04602V8.29007C8.04602 6.94563 9.14602 5.84563 10.4905 5.84563H33.1016C34.446 5.84563 35.546 6.94563 35.546 8.29007Z" fill="#F3F3F1"/>
<path d="M35.546 19.5957V30.9012C35.546 32.2457 34.446 33.3457 33.1016 33.3457H10.4905C9.14602 33.3457 8.04602 32.2457 8.04602 30.9012V19.5957H12.0305C13.1182 19.5957 14.0594 18.8868 14.3771 17.8601L16.3449 11.2968C16.5038 10.7957 16.9682 10.429 17.5182 10.429C18.0682 10.429 18.5327 10.7957 18.6916 11.2968L23.6782 27.8946C23.8371 28.3957 24.3016 28.7624 24.8516 28.7624C25.3527 28.7624 25.7805 28.469 25.9638 28.0412L29.0927 21.0379C29.4838 20.1579 30.3638 19.5957 31.3294 19.5957H35.546Z" fill="#D4E1F7"/>
<path d="M13.546 5.84563H10.4905C9.14602 5.84563 8.04602 6.94563 8.04602 8.29007V19.5956H11.1016V8.29007C11.1016 6.94563 12.2016 5.84563 13.546 5.84563Z" fill="#D5DBE1"/>
<path d="M11.1016 30.9012V19.5956H8.04602V30.9012C8.04602 32.2456 9.14602 33.3456 10.4905 33.3456H13.546C12.2016 33.3456 11.1016 32.2456 11.1016 30.9012Z" fill="#CAD7DB"/>
<path d="M34.7822 35.4846H36.0044V37.929H34.7822V35.4846Z" fill="#A4AFC1"/>
<path d="M37.5322 32.429H39.9766V33.6512H37.5322V32.429Z" fill="#A4AFC1"/>
<path d="M6.45101 5.6342C5.44023 5.6342 4.61768 4.81164 4.61768 3.80086C4.61768 2.79009 5.44023 1.96753 6.45101 1.96753C7.46179 1.96753 8.28434 2.79009 8.28434 3.80086C8.28434 4.81164 7.46179 5.6342 6.45101 5.6342ZM6.45101 3.18975C6.1149 3.18975 5.8399 3.46353 5.8399 3.80086C5.8399 4.1382 6.1149 4.41197 6.45101 4.41197C6.78712 4.41197 7.06212 4.1382 7.06212 3.80086C7.06212 3.46353 6.78834 3.18975 6.45101 3.18975Z" fill="#A4AFC1"/>
<path d="M33.1019 34.2623H10.4907C8.63664 34.2623 7.12964 32.7553 7.12964 30.9012V8.29007C7.12964 6.43596 8.63664 4.92896 10.4907 4.92896H33.1019C34.956 4.92896 36.463 6.43596 36.463 8.29007V30.9012C36.463 32.7553 34.956 34.2623 33.1019 34.2623ZM10.4907 6.76229C9.64864 6.76229 8.96297 7.44796 8.96297 8.29007V30.9012C8.96297 31.7433 9.64864 32.429 10.4907 32.429H33.1019C33.944 32.429 34.6296 31.7433 34.6296 30.9012V8.29007C34.6296 7.44796 33.944 6.76229 33.1019 6.76229H10.4907Z" fill="#003366"/>
<path d="M24.8518 29.679C23.9119 29.679 23.0906 29.0727 22.8046 28.172L17.813 11.5608C17.7825 11.4605 17.6761 11.3456 17.5185 11.3456C17.3608 11.3456 17.2545 11.4605 17.219 11.5742L15.2561 18.1241C14.8137 19.5553 13.5181 20.5135 12.0307 20.5135H8.04623V18.6802H12.0307C12.709 18.6802 13.2993 18.2426 13.501 17.59L15.4663 11.034C15.756 10.1185 16.5786 9.51231 17.5185 9.51231C18.4583 9.51231 19.2797 10.1185 19.5657 11.0193L24.5572 27.6305C24.5878 27.7307 24.6941 27.8456 24.8518 27.8456C24.9985 27.8456 25.0865 27.7601 25.1231 27.6794L28.2557 20.6651C28.791 19.46 29.9986 18.679 31.3296 18.679H32.4907V20.5123H31.3296C30.7221 20.5123 30.1733 20.8655 29.9301 21.4106L26.8 28.4152C26.4725 29.1779 25.7061 29.679 24.8518 29.679Z" fill="#003366"/>
</svg>
