<svg xmlns="http://www.w3.org/2000/svg" width="53.837" height="59.683" viewBox="0 0 53.837 59.683">
  <g id="error" transform="translate(-2.29 -0.584)">
    <path id="Path_23427" data-name="Path 23427" d="M45.7,6.723C33.845,6.723,25.706.584,20,.584S2.29,3.867,2.29,30.14,18.426,60.267,24.707,60.267C54.122,60.269,66.687,6.723,45.7,6.723Z" transform="translate(0)" fill="#efefef"/>
    <g id="Group_3234" data-name="Group 3234" transform="translate(47.628 13.505)">
      <path id="Path_23428" data-name="Path 23428" d="M30.75,11.375h3.427v1.713H30.75Z" transform="translate(-27.323 -5.806)" fill="#a4afc1"/>
      <path id="Path_23429" data-name="Path 23429" d="M28.75,13.875h1.713V17.3H28.75Z" transform="translate(-28.75 -4.023)" fill="#a4afc1"/>
      <path id="Path_23430" data-name="Path 23430" d="M28.75,8.125h1.713v3.427H28.75Z" transform="translate(-28.75 -8.125)" fill="#a4afc1"/>
    </g>
    <path id="Path_23431" data-name="Path 23431" d="M30.06,40.163H9.927A3.426,3.426,0,0,1,6.5,36.736V10.177A3.426,3.426,0,0,1,9.927,6.75H30.06a3.426,3.426,0,0,1,3.427,3.427V36.736A3.426,3.426,0,0,1,30.06,40.163Z" transform="translate(3.004 4.399)" fill="#f3f3f1"/>
    <path id="Path_23432" data-name="Path 23432" d="M38.168,35.105a1.648,1.648,0,0,1-1.648,1.636H18.4a1.648,1.648,0,0,1-1.648-1.636,1.515,1.515,0,0,1,.247-.85l9.061-14.72a1.641,1.641,0,0,1,2.8,0l9.061,14.72A1.491,1.491,0,0,1,38.168,35.105Z" transform="translate(10.317 12.961)" fill="#fdbb06"/>
    <path id="Path_23433" data-name="Path 23433" d="M20.605,35.105a1.515,1.515,0,0,1,.247-.85l8.535-13.864-.528-.857a1.641,1.641,0,0,0-2.8,0L17,34.255a1.515,1.515,0,0,0-.247.85A1.648,1.648,0,0,0,18.4,36.741h3.855a1.648,1.648,0,0,1-1.648-1.636Z" transform="translate(10.317 12.961)" fill="none"/>
    <path id="Path_23434" data-name="Path 23434" d="M10.355,36.736V10.177A3.426,3.426,0,0,1,13.782,6.75H9.927A3.426,3.426,0,0,0,6.5,10.177V36.736a3.426,3.426,0,0,0,3.427,3.427h3.855A3.426,3.426,0,0,1,10.355,36.736Z" transform="translate(3.004 4.399)" fill="#d5dbe1"/>
    <path id="Path_23435" data-name="Path 23435" d="M37.055,38.562H18.933A2.931,2.931,0,0,1,16,35.642a2.8,2.8,0,0,1,.466-1.57L25.5,19.4a2.928,2.928,0,0,1,5,.021l9.049,14.7a2.753,2.753,0,0,1,.439,1.527A2.931,2.931,0,0,1,37.055,38.562ZM27.994,20.57a.343.343,0,0,0-.295.153L18.57,35.642a.362.362,0,0,0,.363.35H37.055a.362.362,0,0,0,.363-.35.249.249,0,0,0-.029-.134L28.3,20.745A.342.342,0,0,0,27.994,20.57Z" transform="translate(9.782 12.426)" fill="#036"/>
    <circle id="Ellipse_242" data-name="Ellipse 242" cx="1.285" cy="1.285" r="1.285" transform="translate(36.491 44.99)" fill="#036"/>
    <path id="Path_23436" data-name="Path 23436" d="M20.273,41.983H10.712A4.716,4.716,0,0,1,6,37.271V10.712A4.716,4.716,0,0,1,10.712,6h19.7a4.716,4.716,0,0,1,4.712,4.712V22.843h-2.57V10.712A2.145,2.145,0,0,0,30.417,8.57h-19.7A2.145,2.145,0,0,0,8.57,10.712V37.271a2.145,2.145,0,0,0,2.142,2.142h9.561Z" transform="translate(2.647 3.864)" fill="#036"/>
    <path id="Path_23437" data-name="Path 23437" d="M9.75,14H26.028v2.57H9.75Z" transform="translate(5.322 9.572)" fill="#036"/>
    <path id="Path_23438" data-name="Path 23438" d="M9.75,18h9.424v2.57H9.75Z" transform="translate(5.322 12.426)" fill="#036"/>
    <path id="Path_23439" data-name="Path 23439" d="M9.75,10h7.711v2.57H9.75Z" transform="translate(5.322 6.718)" fill="#036"/>
    <path id="Path_23440" data-name="Path 23440" d="M22.25,22h2.57v4.712H22.25Z" transform="translate(14.241 15.28)" fill="#036"/>
  </g>
</svg>
