<svg width="442" height="225" viewBox="0 0 442 225" fill="none" xmlns="http://www.w3.org/2000/svg">
<path opacity="0.09" d="M31.2668 224.389C31.2668 110.968 123.213 19.022 236.633 19.022C350.054 19.022 442 110.968 442 224.389" fill="#FF4188"/>
<g clip-path="url(#clip0_34_208)">
<path d="M410.297 222.02H62.9701V224.559H410.297V222.02Z" fill="#85848B"/>
<path d="M202.006 141.379C204.2 141.66 206.477 141.839 208.578 141.157C208.909 141.054 209.273 140.826 209.24 140.495C209.216 140.375 209.165 140.262 209.091 140.164C208.299 138.976 207.633 137.709 207.105 136.382C207.085 136.313 207.042 136.252 206.983 136.21C206.915 136.185 206.84 136.185 206.771 136.21C205.802 136.465 204.964 137.09 204.001 137.358C203.51 137.493 202.998 137.531 202.492 137.471C202.056 137.421 201.46 137.06 201.063 137.107C201.288 138.553 201.837 139.903 202.006 141.379Z" fill="#6C63FF"/>
<path d="M243.5 137.716C244.946 136.723 246.445 135.68 247.299 134.148C247.36 134.057 247.395 133.95 247.401 133.841C247.387 133.732 247.345 133.63 247.279 133.543C246.466 132.25 245.419 131.12 244.192 130.21C243.551 130.663 242.973 131.197 242.471 131.799C242.107 132.183 241.101 132.792 241.091 133.377C241.091 133.708 241.475 134.092 241.653 134.37C241.895 134.727 242.123 135.091 242.342 135.462C242.467 135.644 243.616 137.643 243.5 137.716Z" fill="#6C63FF"/>
<path d="M210.607 145.81C210.632 146.151 210.539 146.49 210.342 146.77C210.187 146.925 209.996 147.039 209.786 147.1C206.718 148.199 203.167 146.829 200.106 147.911C199.478 148.133 198.882 148.454 198.25 148.666C197.496 148.892 196.719 149.03 195.934 149.076C194.851 149.179 193.763 149.245 192.677 149.275C191.853 149.333 191.024 149.26 190.222 149.059C189.821 148.957 189.446 148.771 189.121 148.514C188.797 148.257 188.53 147.934 188.339 147.567C188.173 147.238 188.139 146.858 188.246 146.505C188.294 146.384 188.363 146.272 188.448 146.174C188.656 145.941 188.899 145.743 189.17 145.588L190.298 144.86C190.827 144.486 191.402 144.181 192.009 143.953C192.456 143.808 192.929 143.745 193.382 143.622C194.967 143.159 196.178 141.902 197.304 140.694L198.839 139.056C198.983 138.876 199.165 138.73 199.372 138.629C199.585 138.558 199.811 138.536 200.034 138.566C201.525 138.673 202.965 139.155 204.22 139.969C204.54 140.21 204.887 140.414 205.252 140.578C206.152 140.929 207.307 140.664 208.138 140.221C208.532 140.009 208.446 139.89 208.611 139.512C208.777 139.135 209.18 138.894 209.531 139.238C209.637 139.357 209.712 139.5 209.749 139.655C210.08 140.747 209.955 141.922 209.955 143.067C209.945 143.246 209.967 143.425 210.021 143.596C210.105 143.769 210.206 143.933 210.322 144.086C210.346 144.126 210.367 144.168 210.385 144.212C210.587 144.718 210.663 145.267 210.607 145.81Z" fill="#514E7F"/>
<path d="M210.607 145.81C210.632 146.151 210.539 146.49 210.342 146.769C210.187 146.925 209.996 147.039 209.786 147.1C206.718 148.199 203.167 146.829 200.106 147.911C199.478 148.133 198.882 148.454 198.25 148.666C197.496 148.892 196.719 149.03 195.934 149.076C194.851 149.178 193.763 149.245 192.677 149.274C191.853 149.333 191.024 149.26 190.222 149.059C189.821 148.957 189.446 148.771 189.121 148.514C188.797 148.256 188.53 147.934 188.339 147.567C188.173 147.238 188.139 146.857 188.246 146.505C188.294 146.384 188.363 146.272 188.448 146.174C188.627 146.548 188.756 147.044 188.868 147.223C189.02 147.488 189.227 147.717 189.475 147.896C189.722 148.074 190.005 148.198 190.305 148.259C190.753 148.286 191.202 148.229 191.628 148.09C194.408 147.401 197.363 147.392 200.034 146.349C200.95 145.988 201.824 145.509 202.787 145.29C203.75 145.072 204.772 145.131 205.765 145.049C207.334 144.923 208.853 144.45 210.398 144.201C210.598 144.713 210.669 145.265 210.607 145.81Z" fill="#464353"/>
<path d="M250.525 137.514C250.38 138.679 249.642 139.681 248.831 140.532C248.02 141.382 247.104 142.147 246.458 143.126C245.664 144.341 245.307 145.846 244.274 146.872C243.878 147.245 243.433 147.562 242.951 147.815C242.411 148.134 241.84 148.397 241.246 148.6C239.704 149.093 238.043 148.98 236.431 148.861C235.908 148.856 235.39 148.756 234.903 148.566C234.681 148.454 234.468 148.323 234.267 148.176C233.863 147.927 233.523 147.587 233.274 147.183C233.152 146.964 233.118 146.706 233.178 146.462C233.271 146.193 233.429 145.952 233.638 145.76C234.001 145.383 234.39 145.033 234.803 144.711C235.37 144.346 235.88 143.9 236.319 143.388C236.588 142.983 236.786 142.535 236.905 142.064C237.139 141.238 237.282 140.389 237.332 139.532C237.33 138.963 237.388 138.395 237.507 137.838C237.752 136.964 238.4 136.183 238.328 135.28C238.298 135.151 238.31 135.015 238.361 134.893C238.438 134.797 238.545 134.731 238.665 134.704C239.171 134.503 239.704 134.379 240.247 134.337C240.519 134.318 240.792 134.36 241.046 134.46C241.3 134.559 241.529 134.714 241.716 134.913C241.941 135.184 242.09 135.575 242.421 135.68C242.585 135.725 242.757 135.732 242.924 135.7C243.738 135.618 244.599 135.515 245.24 134.989C245.537 134.723 245.776 134.398 245.941 134.035C246.106 133.672 246.194 133.279 246.2 132.881C246.2 132.58 246.064 132.265 246.531 132.219C246.882 132.173 247.16 132.55 247.339 132.782C247.984 133.645 248.646 134.549 248.887 135.601C248.981 135.565 249.081 135.545 249.182 135.545C249.388 135.543 249.592 135.591 249.776 135.685C249.96 135.779 250.118 135.916 250.237 136.084C250.501 136.511 250.603 137.018 250.525 137.514Z" fill="#514E7F"/>
<path d="M250.525 137.514C250.38 138.678 249.642 139.681 248.831 140.532C248.02 141.382 247.104 142.146 246.458 143.126C245.664 144.34 245.307 145.846 244.274 146.872C243.878 147.245 243.433 147.562 242.951 147.815C242.411 148.134 241.84 148.397 241.246 148.599C239.704 149.093 238.043 148.98 236.432 148.861C235.908 148.856 235.39 148.756 234.903 148.566C234.681 148.454 234.468 148.323 234.267 148.176C233.863 147.927 233.523 147.587 233.275 147.183C233.585 147.034 233.923 146.953 234.267 146.945C234.982 146.985 235.505 147.66 236.19 147.868C237.166 148.163 238.139 147.474 239.129 147.239C239.774 147.087 240.452 147.127 241.091 146.908C241.623 146.703 242.115 146.405 242.544 146.028C243.131 145.608 243.654 145.104 244.096 144.532C244.462 143.961 244.767 143.352 245.006 142.716C245.528 141.497 246.143 140.32 246.846 139.195C246.949 139.017 247.075 138.852 247.219 138.705C247.375 138.563 247.55 138.463 247.726 138.338C248.388 137.838 248.662 137.014 248.894 136.206C248.957 135.961 249.044 135.723 249.155 135.495C249.362 135.493 249.566 135.541 249.749 135.635C249.933 135.729 250.092 135.866 250.211 136.034C250.496 136.471 250.608 136.999 250.525 137.514Z" fill="#464353"/>
<path d="M181.135 34.3395C181.958 34.9568 182.636 35.7476 183.12 36.656C183.584 37.5627 186.254 44.5981 186.099 45.6206C186.969 44.7437 190.401 44.6014 191.281 43.7244C191.648 43.3571 193.63 41.5238 193.928 41.0969C194.226 40.67 196.436 39.7732 196.678 39.3232C197.581 37.705 190.271 31.5731 191.208 29.9747C191.26 29.9013 191.286 29.8131 191.284 29.7232C191.263 29.6478 191.22 29.58 191.162 29.528C190.563 28.9158 189.768 28.5352 189.047 28.0819C188.326 27.6285 187.631 26.9964 187.435 26.1625C186.748 26.4792 186.116 26.9062 185.566 27.4266C184.224 28.576 182.906 29.7486 181.611 30.9443C181.105 31.4142 180.125 32.0397 179.89 32.7114C179.613 33.4328 180.652 33.9458 181.135 34.3395Z" fill="#A1616A"/>
<path d="M192.969 31.7351C191.847 32.4888 190.799 33.3464 189.838 34.2964C188.931 35.1932 188.071 36.2323 187.853 37.4865C187.76 37.9796 187.773 38.4793 187.697 38.979C187.366 41.1465 185.493 42.7349 184.666 44.7634C184.426 45.3895 184.25 46.0381 184.14 46.6993C183.907 47.9528 183.78 49.2236 183.759 50.4983C183.739 51.7326 184.95 52.5831 185.394 53.7347C185.837 54.8863 185.956 56.071 186.181 57.2523C186.605 59.4827 187.383 61.6337 188.167 63.7715C189.798 68.2786 195.086 80.7377 196.718 85.2481C201.718 83.9939 215.028 81.1116 219.455 78.4676C220.931 77.5873 209.213 67.6564 210.792 66.9714C210.882 66.9574 210.968 66.9226 211.042 66.8697C211.117 66.8168 211.178 66.7474 211.221 66.6668C211.264 66.5863 211.288 66.4968 211.29 66.4055C211.293 66.3142 211.274 66.2236 211.235 66.1408C209.657 59.2379 204.719 53.5659 202.479 46.8449C201.701 44.5119 200.305 42.5198 199.246 40.3026C198.286 38.294 197.773 36.0735 196.625 34.1641C196.409 33.7707 196.125 33.418 195.788 33.1217C195.502 32.9021 195.192 32.7145 194.865 32.5624C194.209 32.2447 193.601 32.0561 192.969 31.7351Z" fill="#FF0000"/>
<path d="M181.399 33.5553C185.722 33.5553 189.226 30.0514 189.226 25.7291C189.226 21.4067 185.722 17.9028 181.399 17.9028C177.077 17.9028 173.573 21.4067 173.573 25.7291C173.573 30.0514 177.077 33.5553 181.399 33.5553Z" fill="#A1616A"/>
<path d="M189.361 29.4055C189.751 29.0458 190.241 28.8127 190.767 28.7371C191.292 28.6615 191.828 28.7469 192.303 28.982C192.833 29.2566 193.296 29.8126 193.177 30.395L197.059 30.4545C197.676 30.4376 198.294 30.4943 198.899 30.6233C199.507 30.7558 200.05 31.0963 200.434 31.5863C200.48 31.6492 200.533 31.7253 200.613 31.7352C200.677 31.7362 200.74 31.7152 200.791 31.6756C201.389 31.3762 202.061 31.261 202.724 31.3447C204.822 31.4804 206.761 32.5294 208.406 33.8399C208.702 34.0437 208.933 34.3303 209.068 34.6638C209.203 35.104 209.041 35.6566 209.399 35.971C209.399 39.6111 210.65 43.0129 211.483 46.5604C211.632 47.1925 212.238 47.7517 212.658 48.2481C213.177 48.7984 213.601 49.4314 213.912 50.1211C214.621 51.961 213.644 54.1252 214.333 55.9718C214.624 56.7527 215.186 57.3947 215.656 58.0731C216.276 58.8564 216.667 59.7953 216.788 60.7866C216.818 61.2301 216.762 61.6768 216.788 62.1103C216.832 62.7066 216.943 63.296 217.119 63.8675C217.401 64.9353 217.697 66.0019 218.006 67.0675C218.509 68.7883 219.164 70.6447 220.706 71.5614C216.983 72.1934 213.059 72.8123 209.511 71.5184C209.016 71.3496 208.547 71.1147 208.115 70.8201C206.834 69.9068 206.215 68.3448 205.663 66.8689C205.047 65.2143 204.422 63.53 204.296 61.7695C204.297 61.2095 204.218 60.6523 204.061 60.1149C203.7 59.1552 202.737 58.5761 201.864 58.0433C200.877 57.5027 199.983 56.8079 199.216 55.985C198.836 55.5705 198.544 55.0824 198.36 54.5508C198.175 54.0191 198.102 53.4553 198.144 52.8942C198.21 52.3482 198.425 51.822 198.445 51.2727C198.465 50.7234 198.22 50.0946 197.694 49.949C194.984 49.1283 193.69 45.9184 193.088 43.1519C192.828 41.7221 192.711 40.2699 192.74 38.8169L192.704 35.9941C192.33 35.6539 192.029 35.2411 191.82 34.7808C191.61 34.3206 191.497 33.8225 191.486 33.317C191.522 33.0221 191.516 32.7235 191.469 32.4301C191.338 32.0715 191.125 31.7485 190.847 31.487C190.249 30.8729 189.748 30.171 189.361 29.4055Z" fill="#464353"/>
<path d="M181.026 38.3536C180.936 39.2272 181.135 40.124 180.94 40.9811C180.864 41.312 180.731 41.6429 180.635 41.9507C180.342 43.1843 180.469 44.4805 180.996 45.6338C181.522 46.7757 182.153 47.8668 182.879 48.8933C183.124 49.2438 183.327 49.6227 183.481 50.0218C183.606 50.4409 183.684 50.8726 183.713 51.3091C183.904 53.0615 184.212 54.7993 184.633 56.5111C185.003 57.9936 189.213 70.6679 190.192 71.8426C190.37 72.1027 190.639 72.286 190.947 72.3555C191.168 72.3639 191.388 72.3185 191.589 72.2232L193.574 71.4621C193.743 71.4104 193.899 71.3248 194.034 71.2106C194.22 70.9932 194.321 70.7157 194.319 70.4296C194.461 68.8147 190.242 56.0511 189.706 54.5256C188.084 49.9192 185.927 45.4783 184.871 40.7097C184.576 39.386 184.421 37.3476 183.451 36.2919C183.051 35.8551 183.187 36.0404 182.707 36.2688C182.464 36.374 182.23 36.4967 182.005 36.6361C181.724 36.8313 181.491 37.0869 181.321 37.384C181.152 37.6812 181.051 38.0124 181.026 38.3536Z" fill="#464353"/>
<path d="M187.052 47.0932C187.584 49.9093 188.134 52.7188 188.68 55.5349L196.45 53.4998C196.513 52.6857 196.079 51.9312 195.788 51.1833C195.08 49.4063 195.063 47.4274 194.491 45.6007C194.057 44.2109 193.303 42.9335 192.896 41.5337C192.661 40.7197 192.542 39.8791 192.31 39.0551C192.061 38.246 191.756 37.4553 191.397 36.6891C190.96 35.5778 190.392 34.5234 189.702 33.5486C188.71 33.9193 187.651 34.3495 187.085 35.2463C186.794 35.7516 186.629 36.3188 186.602 36.9009C186.466 38.6448 187.098 40.3987 186.889 42.1327C186.675 43.7841 186.73 45.4594 187.052 47.0932Z" fill="#DADADA"/>
<path d="M196.579 84.5533C197.016 86.2079 196.384 87.9485 195.867 89.5866C195.09 92.0539 194.56 94.5924 194.286 97.1646C194.252 97.8192 194.12 98.4651 193.895 99.0807C193.65 99.6333 193.233 100.1 192.949 100.626C192.168 102.009 192.188 103.697 192.356 105.279C192.469 106.321 192.638 107.36 192.846 108.386C193.101 109.64 193.415 110.951 193.048 112.175C193.663 112.039 194.08 112.837 194.041 113.462C194.001 114.088 193.799 114.786 194.1 115.326C194.861 115.603 194.868 116.649 194.845 117.46C194.857 118.866 195.035 120.265 195.374 121.63C196.526 127.167 197.748 132.689 199.041 138.195C201.837 139.062 205.103 139.966 207.771 138.765C208.267 138.543 208.763 138.189 208.876 137.653C208.905 137.364 208.869 137.072 208.77 136.799L207.506 132.199C207.198 131.087 206.89 129.939 207.052 128.797C207.175 127.947 207.546 127.03 207.129 126.279C206.986 126.021 206.761 125.819 206.596 125.574C205.934 124.605 206.281 123.307 206.334 122.133C206.355 121.869 206.337 121.604 206.281 121.345C206.191 121.043 206.064 120.753 205.904 120.481C204.859 118.453 204.358 116.189 204.448 113.909C204.488 113.618 204.448 113.322 204.332 113.052C204.252 112.941 204.18 112.823 204.117 112.701C204.068 112.489 204.092 112.266 204.187 112.069C203.807 111.782 203.465 111.448 203.167 111.077C203.351 110.962 203.506 110.808 203.621 110.625C203.737 110.442 203.809 110.236 203.832 110.021C203.856 109.806 203.83 109.589 203.758 109.385C203.685 109.182 203.567 108.997 203.412 108.846C203.547 108.819 203.672 108.755 203.773 108.661C203.874 108.567 203.946 108.447 203.983 108.315C204.02 108.182 204.019 108.042 203.981 107.909C203.942 107.777 203.868 107.658 203.766 107.565C203.604 107.453 203.389 107.403 203.273 107.235C203.095 106.99 203.24 106.649 203.386 106.387L204.157 104.994C204.733 103.958 204.862 102.678 205.481 101.685C206.367 100.239 206.947 98.6273 207.519 97.0323L209.746 90.8871L211.245 92.1876C211.745 92.5691 212.163 93.046 212.476 93.5907C212.689 94.129 212.824 94.6952 212.877 95.2718C213.426 98.6075 215.524 101.5 216.302 104.786C216.474 105.517 216.59 106.285 217.01 106.91C217.16 107.102 217.295 107.306 217.414 107.519C217.523 107.844 217.58 108.185 217.582 108.528C217.652 109.201 217.865 109.85 218.208 110.432C218.55 111.015 219.014 111.517 219.568 111.904C220.306 112.41 221.222 112.758 221.623 113.558C221.703 113.806 221.814 114.043 221.954 114.263C222.311 114.693 223.082 114.743 223.234 115.283C223.321 115.584 223.162 115.944 223.33 116.209C223.426 116.332 223.553 116.426 223.698 116.484L225.852 117.559C228.261 118.764 229.492 121.53 231.269 123.546C231.883 124.202 232.426 124.921 232.891 125.69C233.658 127.063 234.013 128.787 235.31 129.661C235.658 129.842 235.976 130.078 236.25 130.359C236.657 130.895 236.508 131.646 236.544 132.322C236.58 132.997 237.097 133.801 237.739 133.596C237.514 134.413 237.514 135.276 237.739 136.094C240.557 135.949 243.245 134.861 245.37 133.003C245.998 132.454 246.604 131.752 246.611 130.918C246.62 130.775 246.588 130.631 246.518 130.505C246.391 130.342 246.223 130.215 246.032 130.137C244.016 129.045 243.411 126.514 242.391 124.459C241.501 122.645 240.184 121.084 239.082 119.399C236.686 115.776 235.052 111.391 231.428 108.998C230.631 108.472 229.704 108.006 229.304 107.135C229.082 106.649 229.055 106.093 228.88 105.59C228.705 105.087 228.284 104.597 227.748 104.597C228.046 103.869 227.986 102.982 228.006 102.195C228.027 101.845 227.986 101.495 227.887 101.159C227.75 100.798 227.571 100.453 227.354 100.133C226.409 98.5323 225.936 96.6965 225.991 94.8383C226.018 93.8819 226.186 92.8958 225.898 91.9824C225.753 91.5225 225.498 91.1022 225.323 90.6588C225.058 89.8553 224.919 89.016 224.909 88.1703L224.71 84.9901C224.68 83.931 224.543 82.8777 224.3 81.8464C223.638 79.3777 222.976 69.0365 220.71 67.8716C218.443 66.7068 214.548 74.6654 211.996 74.821C210.868 74.8679 209.752 75.0832 208.687 75.4596C206.99 76.095 205.567 77.2797 204.18 78.4379L199.488 82.3792C198.495 83.1965 197.674 83.9775 196.579 84.5533Z" fill="#464353"/>
<path d="M174.056 17.039C175.089 15.6293 176.863 14.8814 178.61 14.8185C180.357 14.7556 182.078 15.3049 183.643 16.0826C184.105 16.3453 184.599 16.5477 185.112 16.6849C185.94 16.8537 186.86 16.6286 187.608 17.0158C188.6 17.542 188.792 18.8822 188.706 19.9941C188.62 21.106 188.412 22.3403 189.004 23.3033C189.214 23.5779 189.405 23.8665 189.577 24.167C189.831 24.7395 189.682 25.4013 189.53 26.0069C189.143 25.676 188.925 25.1763 188.581 24.7924C188.236 24.4085 187.637 24.1504 187.211 24.4383C186.784 24.7262 186.79 25.2491 186.767 25.719C186.744 26.1889 186.625 26.7515 186.181 26.9037C185.996 26.9458 185.803 26.9315 185.626 26.8624C185.449 26.7934 185.296 26.6729 185.189 26.5165C184.431 25.5899 184.735 24.1107 183.984 23.1775C183.557 22.6481 182.846 22.3899 182.452 21.834C182.141 21.3972 182.061 20.8412 181.79 20.3713C181.519 19.9014 180.887 19.5573 180.466 19.8816C180.323 20.0186 180.203 20.1785 180.112 20.3548C179.85 20.7302 179.469 21.0062 179.031 21.1383C178.593 21.2704 178.122 21.2509 177.697 21.0828C177.371 20.883 177.019 20.7304 176.651 20.6294C176.41 20.6174 176.17 20.673 175.959 20.7899C175.748 20.9069 175.574 21.0805 175.456 21.2913C175.219 21.7123 175.104 22.1916 175.125 22.6745C175.125 23.3364 175.244 24.0412 174.867 24.5707C174.724 24.77 174.544 24.9406 174.338 25.0737C173.785 25.4278 173.014 25.666 172.504 25.2623C172.332 25.1014 172.203 24.8988 172.131 24.674C172.06 24.4491 172.047 24.2096 172.094 23.9784C172.193 23.5178 172.324 23.0645 172.485 22.6216C172.776 21.5957 172.395 20.4408 172.713 19.4745C173.046 18.6043 173.498 17.7846 174.056 17.039Z" fill="#464353"/>
<path d="M178.249 40.3855C178.2 40.6266 178.225 40.8773 178.322 41.1036C178.42 41.2577 178.554 41.3859 178.713 41.4775C179.825 42.1708 181.091 42.5809 182.399 42.6721C182.577 42.6752 182.752 42.7206 182.909 42.8045C183.22 43.0097 183.24 43.4663 183.124 43.8303C182.969 44.1737 182.889 44.5459 182.889 44.9224C182.985 45.614 183.805 45.9151 184.497 46.0177C185.467 46.1402 186.529 46.0773 187.297 45.4717C187.817 44.9974 188.213 44.4033 188.452 43.741C190.351 39.3762 191.016 34.5514 192.939 30.1998C193.084 29.9156 193.182 29.6092 193.227 29.293C193.247 29.1348 193.225 28.974 193.162 28.8273C193.099 28.6807 192.998 28.5536 192.869 28.4591C192.512 28.2374 191.956 28.3632 191.714 28.0157C191.595 27.8403 191.609 27.602 191.503 27.4167C191.281 27.0229 190.698 27.0858 190.301 26.8575C189.99 26.692 189.775 26.3512 189.428 26.285C189.257 26.2753 189.087 26.3056 188.93 26.3734C188.773 26.4412 188.634 26.5446 188.524 26.6755C187.396 27.7278 186.804 29.2202 186.175 30.63C185.215 32.7908 184.091 34.8751 182.813 36.8645C182.962 36.6328 182.098 34.879 181.76 34.8029C181.168 34.6837 180.41 35.7228 180.089 36.11C179.082 37.3312 178.444 38.8144 178.249 40.3855Z" fill="#DADADA"/>
<path opacity="0.1" d="M190.272 27.1651C190.034 27.1691 189.8 27.2265 189.588 27.333C189.375 27.4396 189.189 27.5926 189.044 27.7807C188.69 28.2406 188.62 28.8495 188.531 29.4352C188.23 31.2909 187.567 33.0696 186.582 34.6704" fill="black"/>
<path opacity="0.1" d="M191.959 28.4855C191.631 28.4928 191.311 28.5855 191.029 28.7543C190.748 28.9232 190.515 29.1624 190.354 29.4485C190.135 29.969 189.999 30.5206 189.951 31.0832C189.667 32.3307 189.12 33.503 188.346 34.5215" fill="black"/>
<path d="M270.605 93.1802V89.0702C270.605 86.0446 269.402 83.1432 267.262 81.0041C265.123 78.865 262.221 77.6634 259.195 77.6634H96.8826C93.8571 77.6634 90.9554 78.865 88.8156 81.0041C86.6759 83.1432 85.4734 86.0446 85.4725 89.0702V96.6482L270.605 93.1802Z" fill="#33323D"/>
<path d="M142.037 72.8452C142.037 72.8452 141.573 101.589 146.669 111.047C151.766 120.504 153.95 161.648 153.95 161.648C153.95 161.648 207.373 167.174 244.602 155.029C281.83 142.884 361.046 137.917 361.046 137.917L347.697 47.9435C347.697 47.9435 281.748 43.7144 244.231 61.6072C206.715 79.5 142.037 72.8452 142.037 72.8452Z" fill="#8DD070"/>
<path opacity="0.1" d="M142.037 72.8452C142.037 72.8452 141.573 101.589 146.669 111.047C151.766 120.504 153.95 161.648 153.95 161.648C153.95 161.648 207.373 167.174 244.602 155.029C281.83 142.884 361.046 137.917 361.046 137.917L347.697 47.9435C347.697 47.9435 281.748 43.7144 244.231 61.6072C206.715 79.5 142.037 72.8452 142.037 72.8452Z" fill="black"/>
<path d="M153.86 83.3453C153.86 83.3453 152.189 107.062 156.382 114.64C160.575 122.218 160.77 156.048 160.77 156.048C160.77 156.048 208.849 158.279 243.05 146.637C277.25 134.995 349.12 127.444 349.12 127.444L340.952 53.8637C340.952 53.8637 281.486 53.2515 246.779 69.6387C212.072 86.0258 153.86 83.3453 153.86 83.3453Z" fill="#8DD070"/>
<path opacity="0.1" d="M246.251 133.165C253.092 132.313 257.156 119.728 255.329 105.056C253.501 90.3843 246.474 79.181 239.633 80.0331C232.792 80.8852 228.728 93.47 230.556 108.142C232.383 122.814 239.41 134.017 246.251 133.165Z" fill="black"/>
<path opacity="0.2" d="M311.54 4.1132C311.54 4.1132 247.471 20.3283 217.258 48.8701C187.045 77.4119 123.442 90.9266 123.442 90.9266C123.442 90.9266 131.821 118.423 139.571 125.862C147.321 133.301 162.021 171.793 162.021 171.793C162.021 171.793 214.561 160.655 246.263 137.662C277.965 114.67 351.85 85.6319 351.85 85.6319L311.54 4.1132Z" fill="black"/>
<path d="M122.479 86.8101C122.479 86.8101 130.855 114.31 138.598 121.749C146.342 129.188 161.048 167.677 161.048 167.677C161.048 167.677 213.595 156.542 245.3 133.549C277.006 110.557 350.883 81.5287 350.883 81.5287L310.574 0C310.574 0 246.508 16.2151 216.295 44.7569C186.082 73.2987 122.479 86.8101 122.479 86.8101Z" fill="#8DD070"/>
<path opacity="0.1" d="M122.479 86.8101C122.479 86.8101 130.855 114.31 138.598 121.749C146.342 129.188 161.048 167.677 161.048 167.677C161.048 167.677 213.595 156.542 245.3 133.549C277.006 110.557 350.883 81.5287 350.883 81.5287L310.574 0C310.574 0 246.508 16.2151 216.295 44.7569C186.082 73.2987 122.479 86.8101 122.479 86.8101Z" fill="black"/>
<path d="M136.944 93.1771C136.944 93.1771 142.632 116.265 148.95 122.189C155.267 128.112 165.827 160.245 165.827 160.245C165.827 160.245 212.268 147.61 241.246 126.034C270.225 104.458 336.316 75.2478 336.316 75.2478L305.968 7.70054C305.968 7.70054 249.185 25.3617 221.179 51.6103C193.174 77.8588 136.944 93.1771 136.944 93.1771Z" fill="#8DD070"/>
<path opacity="0.1" d="M240.175 112.241C246.424 109.331 246.431 96.106 240.189 82.7025C233.948 69.2991 223.822 60.7926 217.572 63.7028C211.323 66.613 211.317 79.8377 217.558 93.2412C223.8 106.645 233.926 115.151 240.175 112.241Z" fill="black"/>
<path opacity="0.1" d="M274.987 97.2143V211.382C274.987 212.678 274.732 213.962 274.235 215.16C273.739 216.358 273.012 217.446 272.095 218.363C271.178 219.28 270.089 220.007 268.891 220.502C267.693 220.998 266.409 221.253 265.112 221.253H95.3506C92.7331 221.252 90.2231 220.212 88.3726 218.361C86.5221 216.509 85.4825 213.999 85.4825 211.382V85.7049C90.3471 87.5118 90.3471 87.5118 95.3506 87.3595H265.112C267.728 87.3595 270.236 88.3972 272.088 90.2447C273.939 92.0923 274.982 94.5989 274.987 97.2143Z" fill="black"/>
<path d="M274.987 98.6671V212.834C274.986 215.453 273.945 217.963 272.094 219.815C270.242 221.666 267.731 222.706 265.112 222.706H95.3506C92.7331 222.705 90.2231 221.664 88.3726 219.813C86.5221 217.962 85.4825 215.452 85.4825 212.834V87.1544C90.3471 88.9579 90.3471 88.9579 95.3506 88.809H265.112C267.728 88.809 270.238 89.847 272.089 91.6953C273.94 93.5436 274.983 96.051 274.987 98.6671Z" fill="#D5E1ED"/>
<path opacity="0.1" d="M274.504 140.876V168.973H247.254C243.561 168.923 240.036 167.421 237.442 164.792C234.848 162.163 233.394 158.618 233.394 154.924C233.394 151.231 234.848 147.686 237.442 145.057C240.036 142.428 243.561 140.926 247.254 140.876H274.504Z" fill="black"/>
<path d="M274.987 139.903V167.883H247.856C244.179 167.834 240.669 166.338 238.086 163.72C235.504 161.103 234.056 157.573 234.056 153.896C234.056 150.218 235.504 146.689 238.086 144.071C240.669 141.453 244.179 139.957 247.856 139.908L274.987 139.903Z" fill="#33323D"/>
<path opacity="0.1" d="M241.276 166.251C245.207 166.251 248.394 163.064 248.394 159.133C248.394 155.202 245.207 152.015 241.276 152.015C237.345 152.015 234.158 155.202 234.158 159.133C234.158 163.064 237.345 166.251 241.276 166.251Z" fill="black"/>
<path d="M249.039 160.982C252.971 160.982 256.158 157.795 256.158 153.864C256.158 149.933 252.971 146.746 249.039 146.746C245.108 146.746 241.921 149.933 241.921 153.864C241.921 157.795 245.108 160.982 249.039 160.982Z" fill="#D5E1ED"/>
<path d="M219.561 67.3222C218.916 67.8962 218.319 68.5226 217.778 69.1952C217.232 69.8771 216.942 70.728 216.957 71.601C216.96 71.8542 217.041 72.1003 217.188 72.3059C217.264 72.4042 217.368 72.4766 217.487 72.5127C217.606 72.5489 217.733 72.5472 217.85 72.5077C217.983 72.4399 218.097 72.3398 218.181 72.2165C218.531 71.7962 218.902 71.3942 219.293 71.012C219.435 70.8697 219.624 70.7208 219.816 70.7737C219.902 70.8042 219.979 70.8553 220.041 70.9226C220.264 71.1151 220.426 71.368 220.508 71.6506C220.623 72.1569 220.329 72.6633 219.995 73.0604C219.66 73.4575 219.267 73.838 219.131 74.3377C219.08 74.4697 219.08 74.6161 219.131 74.748C219.195 74.8435 219.284 74.9192 219.389 74.9664C219.863 75.2274 220.388 75.381 220.928 75.4164C221.468 75.4519 222.009 75.3683 222.513 75.1716C223.175 74.9036 223.764 74.4436 224.446 74.2053C224.741 74.1246 225.027 74.0137 225.299 73.8744C225.494 73.7446 225.662 73.5775 225.792 73.3827C225.922 73.1879 226.012 72.9692 226.057 72.7394C226.143 72.2801 226.16 71.8104 226.107 71.3462C226.024 69.5485 225.639 67.7775 224.968 66.1077C224.93 66 224.863 65.9043 224.776 65.8298C224.677 65.7691 224.562 65.7381 224.446 65.7404C223.598 65.6511 222.209 65.2176 221.391 65.5319C221.105 65.6887 220.859 65.9082 220.67 66.1739C220.518 66.3427 219.561 67.1005 219.561 67.3222Z" fill="#A1616A"/>
<path d="M219.293 66.5745C219.293 65.7671 218.3 63.818 219.879 63.6889C219.879 62.8252 218.658 62.2891 218.886 61.3725C218.959 61.068 219.217 60.8199 219.247 60.5088C219.346 59.6252 217.751 59.1454 218.016 58.2982C218.115 57.9673 218.466 57.7754 218.542 57.4478C218.721 56.6834 217.354 56.3425 217.327 55.5582C217.327 55.2935 217.476 55.0453 217.463 54.7806C217.463 54.4496 217.175 54.1982 217.016 53.9103C216.603 53.1723 216.805 52.0306 216.05 51.6501C216.55 51.6931 216.712 50.9518 216.507 50.4985C216.302 50.0451 215.881 49.6513 215.878 49.1483C215.903 48.9661 215.903 48.7813 215.878 48.599C215.739 48.1158 214.948 48.0761 214.816 47.6062C214.799 47.4259 214.793 47.2446 214.799 47.0635C214.746 46.6896 214.362 46.4513 214.002 46.3454C213.627 46.2818 213.266 46.153 212.936 45.9649C212.705 45.7895 212.437 45.4983 212.188 45.634C212.096 45.6902 212.049 45.7961 211.98 45.8755C211.682 46.223 211.113 46.0708 210.739 45.816C209.634 45.0648 209.084 43.7179 208.849 42.4042C208.614 41.0904 208.621 39.7337 208.326 38.4331C208.237 38.0278 208.117 37.6297 207.969 37.2418C207.843 36.9109 207.44 36.3914 207.413 36.0571C207.354 35.296 208.929 35.8156 209.528 35.8917C210.109 35.9485 210.684 36.0593 211.245 36.2226C211.844 36.4488 212.43 36.7062 213.002 36.9936C215.392 38.0493 218.277 38.1783 220.197 39.9521C220.829 40.5345 221.361 41.2989 222.182 41.5636C222.558 41.6358 222.93 41.732 223.294 41.8515C224.204 42.2784 224.346 43.4863 224.843 44.3599C224.999 44.5906 225.135 44.8342 225.25 45.0879C225.345 45.3872 225.39 45.7004 225.382 46.0145L225.452 48.3078C225.564 52.1498 225.677 56.0017 225.266 59.8205C225.134 61.0813 224.935 62.3785 225.309 63.5897C225.409 63.9206 225.548 64.2316 225.64 64.5659C225.722 64.9577 225.764 65.3569 225.766 65.7572L225.819 67.243C225.837 67.3585 225.811 67.4768 225.746 67.5739C225.691 67.6188 225.626 67.6508 225.557 67.6674C225.487 67.684 225.415 67.6849 225.346 67.6699C223.277 67.4846 221.186 66.3197 219.234 67.0246" fill="#464353"/>
<g opacity="0.1">
<path opacity="0.1" d="M314.734 37.821C314.443 38.1373 314.079 38.3781 313.675 38.5225C311.504 39.4259 309.062 39.3234 306.725 39.1844C306.475 39.1869 306.227 39.1314 306.001 39.0222C305.643 38.8137 305.508 38.3769 305.398 37.9798C304.942 36.3252 304.521 34.8063 303.436 33.4264C303.227 33.1081 302.917 32.8692 302.556 32.748C302.215 32.7159 301.872 32.7484 301.543 32.844C301.379 32.8914 301.205 32.8956 301.039 32.8562C300.872 32.8168 300.719 32.7351 300.593 32.6189C300.458 32.4187 300.397 32.1776 300.421 31.9372C300.421 31.2423 300.577 30.4646 300.143 29.9252C299.902 29.6241 299.518 29.462 299.27 29.1641C299.108 28.9446 299.009 28.6852 298.982 28.4137C298.956 28.1421 299.004 27.8685 299.121 27.622C298.707 28.2839 298.532 29.1145 299.012 29.6837C299.26 29.9782 299.644 30.1403 299.885 30.4415C300.319 30.9842 300.173 31.7652 300.163 32.4535C300.138 32.6935 300.198 32.9347 300.332 33.1352C300.458 33.2524 300.611 33.3351 300.778 33.3751C300.945 33.4151 301.12 33.4111 301.285 33.3635C301.613 33.2647 301.957 33.2321 302.298 33.2675C302.656 33.3842 302.966 33.6171 303.178 33.9294C304.26 35.3093 304.684 36.8249 305.14 38.4861C305.194 38.8949 305.398 39.269 305.713 39.5351C305.94 39.6445 306.189 39.6989 306.441 39.694C308.787 39.8396 311.233 39.9455 313.39 39.0321C313.795 38.8887 314.159 38.6477 314.449 38.3306C314.595 38.1442 314.707 37.9336 314.78 37.7085C314.783 37.7515 314.76 37.7879 314.734 37.821Z" fill="black"/>
<path opacity="0.1" d="M299.756 26.5995C299.86 26.4866 299.94 26.3537 299.991 26.209C300.021 26.0415 300.021 25.8701 299.991 25.7027C299.927 24.7592 300.049 23.8123 300.352 22.9163L300.309 22.8667C299.856 23.9241 299.666 25.0755 299.756 26.2222C299.766 26.3478 299.766 26.4739 299.756 26.5995Z" fill="black"/>
</g>
<path d="M356.606 214.43C356.606 216.383 345.226 222.075 331.708 222.075C318.19 222.075 307.657 216.383 307.657 214.43C307.657 212.478 318.613 213.107 332.145 213.107C345.676 213.107 356.606 212.475 356.606 214.43Z" fill="#504F60"/>
<path opacity="0.2" d="M356.606 214.431C356.606 216.383 345.226 222.075 331.708 222.075C318.19 222.075 307.657 216.383 307.657 214.431" fill="black"/>
<path d="M332.141 217.968C345.658 217.968 356.616 216.384 356.616 214.43C356.616 212.477 345.658 210.893 332.141 210.893C318.624 210.893 307.667 212.477 307.667 214.43C307.667 216.384 318.624 217.968 332.141 217.968Z" fill="#504F60"/>
<path d="M353.198 214.603C352.768 212.759 352.5 211.141 352.5 211.141C352.5 211.141 352.599 209.136 351.699 207.63V207.127V203.421C351.955 202.748 352.268 202.098 352.635 201.478C353.297 200.313 352.635 196.045 352.635 196.045C352.635 196.045 350.163 190.025 350.762 186.206C351.361 182.387 345.686 169.25 345.686 169.25C345.721 167.983 345.9 166.724 346.219 165.497C346.279 165.239 346.304 164.974 346.292 164.71C346.292 164.677 346.292 164.647 346.292 164.614C346.292 164.581 346.292 164.634 346.292 164.644C346.206 162.125 344.213 157.406 344.213 157.406L344.481 148.412C344.481 148.412 345.752 143.117 343.681 135.986C342.956 133.501 342.493 131.512 342.198 129.976C342.165 129.804 342.132 129.646 342.105 129.477C346.371 128.815 349.631 128.285 349.631 128.285C349.631 128.285 347.155 117.931 345.484 116.118C343.813 114.304 342.476 108.609 342.476 108.609C342.476 108.609 341.606 101.299 343.012 99.1612C344.419 97.0235 344.617 93.337 344.617 93.337C344.617 93.337 347.824 91.0206 348.227 89.9716C348.631 88.9225 349.296 86.6061 349.296 85.3784C349.296 84.1507 348.896 83.062 349.028 82.4001C349.161 81.7383 348.092 79.2928 348.628 78.1279C348.767 77.7701 348.838 77.3899 348.84 77.0061C348.841 76.9951 348.841 76.984 348.84 76.973C348.845 75.9537 348.75 74.9363 348.558 73.9352C347.631 73.1519 346.548 72.5734 345.382 72.2376L345.312 71.9596L345.13 71.2316C345.028 71.1644 344.924 71.1026 344.816 71.0463V70.7815L344.786 69.7292L345.289 67.3664C346.282 63.2564 340.792 62.6442 340.792 62.6442C340.459 62.0138 339.905 61.5283 339.236 61.2808C338.134 60.8937 339.054 67.4624 339.567 67.8992C339.954 68.2301 341.152 70.2752 341.731 71.2878L341.824 71.4533C341.733 71.5348 341.649 71.6233 341.573 71.718L341.781 73.1443L341.814 73.3627C341.45 73.8145 341.155 74.3174 340.937 74.8552C340.937 74.8552 341.93 75.9538 341.741 77.1716C341.553 78.3894 342.049 79.9348 342.072 80.0175C342.013 79.948 341.308 79.1869 340.603 79.3722C339.898 79.5575 337.929 80.1499 337.929 80.1499C337.929 80.1499 336.46 80.408 336.606 80.7323C336.751 81.0566 335.613 82.4795 335.613 82.4795L331.662 78.7335C331.622 78.621 331.579 78.5085 331.546 78.4026C331.385 77.8625 331.274 77.3086 331.215 76.748C331.645 76.6457 332.068 76.5118 332.479 76.3476C332.894 76.2051 333.269 75.9644 333.571 75.6461C333.971 75.1728 334.048 74.5308 334.21 73.9418C334.521 72.7902 335.202 71.7677 335.676 70.6723C336.477 68.8214 336.735 66.7807 336.42 64.7886C336.36 64.1747 336.152 63.5844 335.815 63.0678C335.169 62.1809 333.998 61.8202 333.147 61.1121C332.297 60.4039 331.748 59.3218 330.755 58.7956C329.858 58.3158 328.769 58.372 327.757 58.5375C325.779 58.8636 323.879 59.5549 322.154 60.576C321.578 60.9069 320.943 61.3139 320.281 61.1915C319.712 61.0889 319.289 60.6355 318.931 60.1987C318.935 60.1806 318.941 60.1629 318.948 60.1458C318.932 60.1297 318.917 60.1119 318.905 60.0928C318.486 61.0222 318.276 62.032 318.289 63.0513C318.289 63.2101 318.289 63.3822 318.309 63.5245V63.6899C318.309 63.7363 318.309 63.7826 318.309 63.8256C318.309 63.8961 318.299 63.9663 318.279 64.0341C318.196 64.2365 318.069 64.4183 317.909 64.5669C317.787 64.7048 317.676 64.852 317.578 65.007C317.578 64.954 317.611 64.9011 317.631 64.8448C317.378 65.2133 317.236 65.646 317.22 66.0924C317.202 66.4173 317.308 66.737 317.518 66.9859C317.716 67.1783 317.932 67.3511 318.163 67.5021C318.085 67.939 318.045 68.3819 318.044 68.8258C318.052 70.1417 318.399 71.4334 319.051 72.576C319.704 73.7186 320.641 74.6735 321.77 75.3482C321.817 75.4574 321.86 75.5699 321.903 75.6791C322.409 77.0028 322.79 78.5581 322.621 79.9811C322.621 80.0837 322.591 80.1896 322.575 80.2922C322.558 80.3947 322.475 80.4014 322.432 80.4576C322.432 80.4576 315.903 80.5238 314.368 79.1339C312.832 77.7441 310.489 82.5325 310.489 82.5325C310.489 82.5325 308.15 82.9858 307.68 82.5325C307.21 82.0791 304.473 82.4696 304.473 82.4696C303.352 81.4725 301.893 80.94 300.393 80.9805C299.484 80.2898 298.481 79.7327 297.415 79.3259L297.342 79.2994C296.871 79.1278 296.368 79.0645 295.869 79.1141C295.869 79.1141 292.659 76.4667 291.723 75.0372C290.786 73.6076 286.329 68.3294 286.309 68.3063V68.0514L286.259 67.2837C286.127 67.3045 285.993 67.3156 285.859 67.3168C285.836 67.2407 285.803 67.1513 285.77 67.0488C285.513 66.2999 285.196 65.5729 284.823 64.8746C284.823 64.8746 284.823 63.905 285.105 63.6601C285.386 63.4153 284.989 59.8579 284.989 59.8579C284.989 59.8579 282.096 53.0972 279.505 58.1437C279.505 58.1437 274.608 61.4099 278.718 65.2155C278.718 65.2155 280.372 66.0097 280.591 66.6384C280.743 67.0455 281.299 68.1871 281.673 68.9549L281.842 69.2858L281.795 69.3255L281.855 69.9608L281.881 70.2057C281.107 70.6459 280.581 71.0827 280.71 71.4103C280.938 71.9709 281.095 72.5579 281.176 73.1575C281.176 73.1575 286.862 80.2789 287.596 83.3201C287.596 83.3201 302.842 92.3807 307.855 93.026L306.968 97.543C306.839 98.7687 306.773 100 306.77 101.233C306.836 102.202 306.168 106.604 306.168 106.604C306.168 106.604 305.297 113.076 304.563 113.983C303.828 114.89 303.96 118.771 303.96 118.771C303.787 120.63 303.455 122.47 302.968 124.271C302.233 126.73 302.766 129.775 302.766 129.775C302.766 129.775 300.228 135.599 306.31 131.651C306.31 131.651 309.288 131.466 312.736 131.346C312.736 131.459 312.736 131.575 312.736 131.677C312.736 132.121 312.736 132.601 312.713 133.104C312.667 136.439 312.647 141.046 312.799 144.514C313.067 150.662 314.94 162.83 314.94 162.83V168.955C314.819 169.53 314.759 170.116 314.762 170.703C314.722 172.858 315.296 174.98 316.416 176.821L316.886 180.898C316.886 180.898 317.985 183.585 318.005 185.2C318 185.33 317.985 185.46 317.958 185.587C317.915 185.793 317.898 186.003 317.905 186.213C317.842 188.066 318.958 192.5 318.958 192.5C318.958 192.5 319.024 196.964 319.692 197.226C320.265 197.448 318.928 199.797 318.531 200.472C318.52 200.431 318.512 200.389 318.508 200.346L318.425 200.479C318.287 200.84 318.216 201.224 318.216 201.611C318.179 201.915 318.228 202.225 318.36 202.502C318.491 202.78 318.698 203.015 318.958 203.179C320.228 203.957 320.91 204.602 319.831 204.86C319.434 204.922 319.041 205.005 318.653 205.108C318.653 205.059 318.613 205.006 318.597 204.96C318.445 205.019 318.318 205.129 318.238 205.272C318.157 205.414 318.129 205.58 318.157 205.74C318.167 206.265 318.302 206.78 318.551 207.243C319.619 209.639 320.361 210.552 320.361 210.552L320.874 210.496C320.798 210.692 320.698 210.877 320.576 211.048C320.381 211.326 320.122 211.553 319.821 211.71C319.541 211.878 319.229 211.985 318.905 212.025C318.542 212.036 318.186 212.124 317.86 212.283C317.534 212.441 317.245 212.667 317.012 212.945C316.35 213.808 315.926 214.983 317.243 216.016L322.025 217.67C322.025 217.67 330.252 218.739 329.815 216.892C329.378 215.046 329.114 213.431 329.114 213.431C329.149 212.304 328.922 211.183 328.452 210.158C328.365 209.991 328.268 209.83 328.16 209.675L328.452 209.645C328.452 209.645 329.054 205.565 329.855 204.791C330.04 204.612 330.083 204.46 330.04 204.367C330.123 204.145 329.911 204.016 329.643 203.94L329.583 204.102C329.321 204.045 329.054 204.015 328.786 204.013C328.786 204.013 328.518 201.879 329.388 201.101C329.458 201.012 329.51 200.91 329.539 200.801C329.568 200.692 329.574 200.577 329.557 200.466C329.564 200.173 329.532 199.88 329.464 199.595C329.456 199.614 329.446 199.631 329.435 199.648C328.998 197.709 327.515 194.628 327.515 194.628C327.515 194.628 327.449 192.689 327.985 191.911C328.521 191.134 327.916 181.362 327.916 181.362C327.916 181.362 328.117 176.639 327.515 174.439C326.913 172.238 328.25 169.647 328.25 169.647C328.25 169.647 328.25 169.597 328.25 169.508V169.475L328.174 168.73C328.172 168.746 328.172 168.761 328.174 168.777C328.038 167.526 327.783 165.259 327.595 164.213C327.327 162.724 327.664 155.609 327.664 155.609L328.865 152.565L331.006 157.81L333.28 164.799C333.28 164.799 334.405 166.275 334.431 167.777C334.431 167.85 334.431 167.923 334.431 167.996C334.413 168.151 334.404 168.306 334.405 168.462C334.365 169.345 334.607 170.218 335.097 170.954C335.097 170.954 335.699 174.263 336.635 175.094C337.572 175.925 337.572 177.553 337.572 177.553C337.572 177.553 338.707 182.344 339.226 183.178C339.676 183.887 339.7 185.826 339.696 186.431C339.696 186.541 339.696 186.603 339.696 186.603C339.696 186.603 339.855 188.318 339.849 189.754C339.849 189.932 339.849 190.105 339.849 190.267C339.85 190.255 339.85 190.242 339.849 190.23C339.848 190.623 339.802 191.014 339.71 191.395L339.69 191.461C339.69 191.379 339.69 191.299 339.713 191.22C339.48 192.195 339.369 193.195 339.382 194.198C339.352 195.919 339.614 197.957 340.656 199.162C342.463 201.233 343.598 200.975 343.598 200.975C343.598 200.975 342.731 203.563 341.659 204.083C341.618 204.102 341.58 204.126 341.546 204.155C341.546 204.102 341.526 204.053 341.52 204.003C341.4 204.132 341.309 204.285 341.252 204.451C341.195 204.618 341.173 204.794 341.189 204.969C341.113 206.108 341.831 207.948 342.512 208.805C342.766 209.053 343.076 209.235 343.416 209.334C343.362 209.372 343.306 209.407 343.247 209.437C343.128 209.502 343.005 209.561 342.88 209.612C342.706 209.686 342.522 209.734 342.334 209.755C341.971 209.764 341.614 209.851 341.288 210.01C340.961 210.169 340.673 210.395 340.441 210.674C339.779 211.535 339.355 212.71 340.673 213.742L345.454 215.397C345.454 215.397 353.628 216.446 353.198 214.603Z" fill="url(#paint0_linear_34_208)"/>
<path d="M321.79 217.66L317.157 216.005C315.88 214.973 316.287 213.798 316.932 212.935C317.154 212.659 317.433 212.434 317.749 212.276C318.065 212.117 318.412 212.028 318.766 212.015C319.079 211.975 319.381 211.867 319.649 211.7C319.943 211.541 320.195 211.314 320.384 211.038C320.722 210.502 320.904 209.882 320.91 209.248C320.91 209.248 325.993 207.759 327.383 209.248C327.631 209.518 327.838 209.822 327.998 210.152C328.46 211.179 328.686 212.298 328.66 213.424C328.66 213.424 328.918 215.039 329.339 216.886C329.759 218.732 321.79 217.66 321.79 217.66Z" fill="#2D293D"/>
<path d="M344.438 215.377L339.806 213.722C338.528 212.69 338.935 211.515 339.581 210.654C339.801 210.378 340.079 210.153 340.395 209.994C340.711 209.835 341.057 209.746 341.411 209.735C341.594 209.716 341.772 209.668 341.94 209.592C342.062 209.541 342.182 209.482 342.297 209.417C343.591 208.705 343.558 206.958 343.558 206.958C343.558 206.958 348.638 205.469 350.031 206.958C350.217 207.16 350.381 207.382 350.517 207.62C351.388 209.126 351.292 211.134 351.292 211.134C351.292 211.134 351.55 212.753 351.954 214.596C352.357 216.439 344.438 215.377 344.438 215.377Z" fill="#2D293D"/>
<path opacity="0.1" d="M327.386 209.245C327.634 209.514 327.841 209.819 328.002 210.148L320.39 211.032C320.728 210.495 320.911 209.876 320.917 209.242C320.917 209.242 325.996 207.756 327.386 209.245Z" fill="black"/>
<path opacity="0.1" d="M350.524 207.627V209.053C349.339 211.002 343.611 210.575 341.947 209.599C342.069 209.548 342.188 209.489 342.304 209.424C343.598 208.712 343.565 206.965 343.565 206.965C343.565 206.965 348.644 205.476 350.038 206.965C350.224 207.167 350.387 207.389 350.524 207.627Z" fill="black"/>
<path d="M351.427 201.478C351.073 202.1 350.771 202.749 350.524 203.421V208.533C349.227 210.668 342.499 209.956 341.589 208.792C340.679 207.627 339.729 204.596 340.752 204.069C341.774 203.543 342.628 200.962 342.628 200.962C342.628 200.962 341.526 201.22 339.779 199.149C338.032 197.077 338.551 192.484 338.876 191.385C339.2 190.287 338.876 186.597 338.876 186.597C338.876 186.597 338.942 184.006 338.426 183.165C337.909 182.325 336.807 177.54 336.807 177.54C336.807 177.54 336.807 175.921 335.901 175.081C334.994 174.24 334.411 170.938 334.411 170.938C333.881 170.112 333.653 169.129 333.766 168.155C333.958 166.536 332.664 164.789 332.664 164.789L330.464 157.797L328.392 152.555L327.227 155.596C327.227 155.596 326.896 162.714 327.164 164.2C327.432 165.686 327.826 169.637 327.826 169.637C327.826 169.637 326.532 172.225 327.115 174.426C327.697 176.626 327.485 181.355 327.485 181.355C327.485 181.355 328.068 191.124 327.548 191.901C327.029 192.679 327.095 194.622 327.095 194.622C327.095 194.622 329.742 200.313 328.908 201.091C328.074 201.869 328.326 204.003 328.326 204.003C328.326 204.003 330.136 204.003 329.362 204.781C328.587 205.558 328.002 209.635 328.002 209.635L320.175 210.552C320.175 210.552 319.461 209.649 318.425 207.243C317.389 204.837 318.617 205.108 319.659 204.847C320.701 204.586 320.043 203.944 318.812 203.166C317.581 202.388 318.296 200.641 318.296 200.641C318.296 200.641 320.172 197.471 319.523 197.213C318.875 196.955 318.812 192.487 318.812 192.487C318.812 192.487 317.518 187.192 317.842 185.756C318.167 184.32 316.807 180.905 316.807 180.905L316.353 176.828C314.969 174.515 314.463 171.78 314.93 169.124V162.837C314.93 162.837 313.117 150.672 312.859 144.524C312.693 140.586 312.74 135.212 312.793 131.859C312.826 129.98 312.859 128.732 312.859 128.732L340.815 125.82C340.815 125.82 340.788 127.111 341.321 129.973C341.609 131.509 342.056 133.497 342.757 135.983C344.763 143.101 343.535 148.405 343.535 148.405L343.274 157.403C343.274 157.403 345.732 163.419 345.216 165.491C344.904 166.721 344.729 167.981 344.693 169.25C344.693 169.25 350.193 182.388 349.611 186.206C349.028 190.025 351.421 196.045 351.421 196.045C351.421 196.045 352.076 200.313 351.427 201.478Z" fill="#464353"/>
<path opacity="0.05" d="M335.444 167.764L343.955 166.629C343.955 166.629 339.134 171.55 335.444 167.764Z" fill="black"/>
<path opacity="0.1" d="M342.724 158.313C342.724 158.313 343.015 161.324 341.172 162.456C341.172 162.456 344.471 161.94 342.724 158.313Z" fill="black"/>
<path opacity="0.1" d="M342.201 148.736C342.201 148.736 335.087 154.594 332.499 154.107C329.911 153.621 342.201 148.736 342.201 148.736Z" fill="black"/>
<path opacity="0.1" d="M324.894 170.511C324.894 170.511 319.49 171.738 319.328 173.909C319.166 176.08 324.894 170.511 324.894 170.511Z" fill="black"/>
<path opacity="0.05" d="M326.082 197.501C326.082 197.501 318.448 198.924 320.615 199.893C322.783 200.863 326.344 201.641 326.344 201.641C326.344 201.641 328.809 201.77 326.082 197.501Z" fill="black"/>
<g opacity="0.05">
<path opacity="0.05" d="M319.073 201.436C318.881 201.316 318.719 201.154 318.598 200.963C318.477 200.771 318.401 200.555 318.375 200.33L318.296 200.466C318.296 200.466 317.584 202.213 318.815 202.988C318.954 203.077 319.09 203.166 319.212 203.252C319.441 203.209 319.685 203.176 319.92 203.117C320.963 202.858 320.304 202.213 319.073 201.436Z" fill="black"/>
<path opacity="0.05" d="M328.908 200.916C329.12 200.724 329.113 200.227 328.984 199.592C328.653 200.092 328.557 200.873 328.551 201.465C328.631 201.259 328.753 201.073 328.908 200.916Z" fill="black"/>
<path opacity="0.05" d="M327.734 168.721C327.452 169.486 327.279 170.287 327.217 171.1C327.365 170.538 327.563 169.991 327.81 169.465L327.734 168.721Z" fill="black"/>
<path opacity="0.05" d="M345.219 165.325C345.27 165.093 345.294 164.855 345.289 164.617C345.193 165.1 345.127 165.547 345.077 165.941C345.12 165.739 345.167 165.547 345.219 165.325Z" fill="black"/>
<path opacity="0.05" d="M327.552 191.73C327.658 191.571 327.717 191.035 327.744 190.29C327.504 190.866 327.377 191.483 327.37 192.107C327.415 191.974 327.476 191.847 327.552 191.73Z" fill="black"/>
<path opacity="0.05" d="M329.14 203.934C328.739 205.232 328.441 206.56 328.25 207.905L320.423 208.808C320.423 208.808 319.709 207.905 318.673 205.499C318.589 205.313 318.515 205.123 318.451 204.93C317.981 205.145 317.789 205.631 318.412 207.051C319.447 209.447 320.165 210.36 320.165 210.36L327.992 209.453C327.992 209.453 328.574 205.376 329.348 204.599C329.746 204.225 329.501 204.03 329.14 203.934Z" fill="black"/>
<path opacity="0.05" d="M318.815 192.312C318.815 192.312 318.878 196.776 319.527 197.034C319.858 196.296 320.073 195.594 319.781 195.479C319.12 195.22 319.07 190.753 319.07 190.753C319.07 190.753 317.776 185.458 318.1 184.022C318.425 182.586 317.065 179.171 317.065 179.171L316.611 175.094C315.227 172.78 314.721 170.046 315.188 167.39V161.103C315.188 161.103 313.375 148.938 313.117 142.79C312.951 138.852 312.998 133.477 313.051 130.125C313.051 129.52 313.07 128.984 313.08 128.53L312.859 128.553C312.859 128.553 312.822 129.798 312.792 131.681C312.74 135.033 312.69 140.407 312.859 144.342C313.117 150.49 314.927 162.658 314.927 162.658V168.945C314.462 171.6 314.969 174.334 316.353 176.646L316.803 180.723C316.803 180.723 318.163 184.151 317.839 185.577C317.515 187.004 318.815 192.312 318.815 192.312Z" fill="black"/>
<path opacity="0.05" d="M341.854 207.064C341.218 206.144 340.794 205.094 340.613 203.99C339.815 204.711 340.732 207.511 341.606 208.623C342.509 209.788 349.24 210.499 350.54 208.361V207.13C348.777 208.861 342.708 208.166 341.854 207.064Z" fill="black"/>
<path opacity="0.05" d="M351.689 199.751C351.334 200.372 351.031 201.022 350.782 201.693V202.61C350.931 202.279 351.14 201.836 351.444 201.313C351.649 200.803 351.746 200.257 351.729 199.708C351.729 199.708 351.699 199.738 351.689 199.751Z" fill="black"/>
<path opacity="0.05" d="M342.251 200.774C342.497 200.275 342.71 199.761 342.89 199.235C342.89 199.235 341.788 199.493 340.04 197.421C338.77 195.916 338.697 193.07 338.879 191.21C338.548 192.312 338.035 196.905 339.782 198.977C340.924 200.33 341.788 200.688 342.251 200.774Z" fill="black"/>
<path opacity="0.05" d="M338.876 186.421C338.99 187.697 339.033 188.977 339.005 190.257C339.037 190.055 339.081 189.855 339.137 189.658C339.468 188.556 339.137 184.869 339.137 184.869C339.137 184.869 339.203 182.278 338.684 181.438C338.164 180.597 337.082 175.806 337.082 175.806C337.082 175.806 337.082 174.187 336.175 173.347C335.268 172.506 334.686 169.204 334.686 169.204C334.151 168.38 333.917 167.397 334.024 166.421C334.219 164.802 332.926 163.055 332.926 163.055L330.725 156.066L328.653 150.824L327.485 153.869C327.485 153.869 327.485 154.253 327.446 154.862L328.392 152.39L330.464 157.621L332.664 164.611C332.664 164.611 333.958 166.358 333.763 167.976C333.656 168.952 333.89 169.935 334.425 170.759C334.425 170.759 335.007 174.068 335.914 174.902C336.82 175.736 336.817 177.361 336.817 177.361C336.817 177.361 337.919 182.149 338.435 182.986C338.952 183.824 338.876 186.421 338.876 186.421Z" fill="black"/>
</g>
<path d="M344.309 67.3564L343.823 69.7191L343.853 70.7714L343.872 71.5458L341.172 71.8238L340.871 71.2645C340.312 70.2519 339.15 68.1936 338.776 67.8759C338.277 67.4589 337.386 60.8869 338.445 61.2774C339.097 61.5291 339.633 62.0137 339.948 62.6374C339.948 62.6374 345.266 63.2463 344.309 67.3564Z" fill="#FFCDD3"/>
<path opacity="0.1" d="M343.873 71.5459L341.172 71.8239L340.871 71.2647C341.234 70.8512 341.73 70.5764 342.273 70.4871C342.816 70.3978 343.373 70.4995 343.849 70.7749L343.873 71.5459Z" fill="black"/>
<path d="M344.554 72.8265L340.994 73.6505L340.917 73.121L340.716 71.6948C340.716 71.6948 342.125 69.8151 344.164 71.2249L344.342 71.9496L344.554 72.8265Z" fill="#6C63FF"/>
<path d="M286.875 67.6148L283.073 69.6533L282.742 68.9385C282.381 68.1807 281.842 67.039 281.693 66.622C281.468 65.9933 279.883 65.1991 279.883 65.1991C275.912 61.3968 280.644 58.1273 280.644 58.1273C283.152 53.0808 285.938 59.8415 285.938 59.8415C285.938 59.8415 286.329 63.4055 286.054 63.6438C285.78 63.882 285.78 64.8582 285.78 64.8582C286.142 65.5577 286.449 66.2846 286.696 67.0324C286.812 67.3931 286.875 67.6148 286.875 67.6148Z" fill="#FFCDD3"/>
<path opacity="0.1" d="M286.875 67.6145L283.073 69.6529L282.742 68.9382C283.278 68.4881 285.181 66.9526 285.806 67.0155C286.105 67.0528 286.406 67.0605 286.706 67.0387C286.812 67.3928 286.875 67.6145 286.875 67.6145Z" fill="black"/>
<path d="M287.262 68.763L282.99 70.8676L282.904 69.951L282.844 69.3156C282.844 69.3156 285.32 67.1944 286.051 67.2771C286.421 67.3307 286.796 67.3307 287.166 67.2771L287.216 68.0449L287.262 68.763Z" fill="#6C63FF"/>
<path d="M333.955 83.0521C333.955 83.0521 315.331 85.1535 318.812 84.0217C321.234 83.2308 322.197 81.7053 322.399 79.9845C322.564 78.5516 322.194 77.0062 321.707 75.6826C321.27 74.5083 320.715 73.3808 320.053 72.3171C320.053 72.3171 334.282 64.4875 331.44 71.6056C331.001 72.6823 330.729 73.8193 330.632 74.9777C330.547 76.1289 330.671 77.2861 331 78.3928C331.536 80.1886 332.559 81.801 333.955 83.0521Z" fill="#FFCDD3"/>
<path opacity="0.1" d="M331.43 71.5956C330.992 72.6723 330.719 73.8093 330.623 74.9677C329.282 76.0961 327.813 76.02 325.924 76.02C324.474 76.02 322.866 76.3708 321.708 75.6726C321.27 74.4983 320.716 73.3708 320.053 72.3071C320.053 72.3071 334.279 64.4776 331.43 71.5956Z" fill="black"/>
<path d="M325.672 76.5162C329.925 76.5162 333.372 73.0686 333.372 68.8157C333.372 64.5629 329.925 61.1152 325.672 61.1152C321.419 61.1152 317.971 64.5629 317.971 68.8157C317.971 73.0686 321.419 76.5162 325.672 76.5162Z" fill="#FFCDD3"/>
<path opacity="0.1" d="M333.955 83.052C333.955 83.052 315.331 85.1533 318.812 84.0216C321.234 83.2307 322.197 81.7052 322.399 79.9844C323.326 78.9916 325.189 78.2537 326.37 77.8698C327.462 77.5025 328.642 77.4829 329.745 77.8135C330.179 77.9443 330.593 78.136 330.973 78.3827C331.516 80.1851 332.548 81.8015 333.955 83.052Z" fill="black"/>
<path opacity="0.1" d="M344.554 72.8265L340.994 73.6505L340.917 73.1211C341.299 72.5974 341.832 72.2039 342.445 71.9943C343.058 71.7847 343.72 71.7691 344.342 71.9496L344.554 72.8265Z" fill="black"/>
<path opacity="0.1" d="M287.262 68.7629L282.99 70.8676L282.904 69.9509C284.288 69.2069 285.726 68.5686 287.206 68.0415L287.262 68.7629Z" fill="black"/>
<path opacity="0.1" d="M341.321 129.98C334.104 131.131 323.845 132.601 322.217 132.104C320.864 131.694 316.548 131.737 312.792 131.866C312.826 129.986 312.859 128.739 312.859 128.739L340.815 125.827C340.815 125.827 340.788 127.117 341.321 129.98Z" fill="black"/>
<path d="M348.515 128.285C348.515 128.285 324.765 132.362 322.217 131.595C319.669 130.827 306.581 131.657 306.581 131.657C300.691 135.605 303.15 129.781 303.15 129.781C303.15 129.781 302.633 126.74 303.345 124.281C303.823 122.476 304.149 120.634 304.321 118.775C304.321 118.775 304.192 114.89 304.903 113.983C305.615 113.076 306.459 106.607 306.459 106.607C306.459 106.607 307.104 102.206 307.041 101.236C306.978 100.266 307.233 97.5463 307.233 97.5463L308.077 93.016C303.222 92.3707 288.467 83.3101 288.467 83.3101C287.755 80.2689 282.255 73.1509 282.255 73.1509C282.175 72.5523 282.023 71.9656 281.802 71.4036C281.415 70.3678 287.239 68.2963 287.239 68.2963C287.239 68.2963 291.574 73.591 292.481 75.0272C293.387 76.4634 296.491 79.1041 296.491 79.1041C296.974 79.0545 297.461 79.1179 297.914 79.2894L297.991 79.3126C299.031 79.721 300.006 80.2783 300.886 80.9672C302.345 80.9326 303.761 81.4665 304.834 82.4563C304.834 82.4563 307.481 82.0658 307.941 82.5192C308.401 82.9726 310.658 82.5192 310.658 82.5192C310.658 82.5192 312.922 77.7308 314.411 79.1207C315.9 80.5105 322.217 80.4443 322.217 80.4443C323.058 79.3258 325.106 78.525 326.387 78.1279C327.479 77.7621 328.658 77.7425 329.762 78.0716C330.238 78.2138 330.686 78.4377 331.086 78.7335L334.928 82.4861C334.928 82.4861 336.026 81.0598 335.897 80.7388C335.768 80.4179 337.191 80.1564 337.191 80.1564C337.191 80.1564 339.068 79.574 339.779 79.3788C340.491 79.1835 341.142 79.9546 341.202 80.0241C341.179 79.9413 340.692 78.3695 340.871 77.1782C341.05 75.9868 340.093 74.8617 340.093 74.8617C342.357 69.2956 347.47 73.955 347.47 73.955C347.47 73.955 348.052 76.9961 347.536 78.161C347.02 79.3258 348.052 81.7846 347.923 82.4332C347.794 83.0818 348.184 84.1804 348.184 85.4114C348.184 86.6425 347.523 88.9688 347.149 90.0046C346.775 91.0404 343.654 93.3701 343.654 93.3701C343.654 93.3701 343.459 97.0598 342.099 99.1942C340.739 101.329 341.592 108.629 341.592 108.629C341.592 108.629 342.886 114.324 344.505 116.137C346.123 117.951 348.515 128.285 348.515 128.285Z" fill="#F87F7F"/>
<path opacity="0.1" d="M313.894 85.7026C313.894 85.7026 313.183 83.5682 312.534 83.3862C311.89 83.1493 311.264 82.8685 310.658 82.5457L311.075 81.7481C311.075 81.7481 313.504 82.41 313.894 83.1281C314.285 83.8462 313.894 85.7026 313.894 85.7026Z" fill="black"/>
<path opacity="0.1" d="M300.886 80.9804C300.757 81.6423 294.996 82.2081 294.996 82.2081L297.908 79.2894L297.981 79.3159C299.025 79.7265 300.004 80.2872 300.886 80.9804Z" fill="black"/>
<path d="M284.221 72.6147C284.506 72.6147 284.737 72.3836 284.737 72.0985C284.737 71.8134 284.506 71.5822 284.221 71.5822C283.936 71.5822 283.705 71.8134 283.705 72.0985C283.705 72.3836 283.936 72.6147 284.221 72.6147Z" fill="#575988"/>
<path d="M284.883 73.6506C285.168 73.6506 285.399 73.4195 285.399 73.1344C285.399 72.8493 285.168 72.6182 284.883 72.6182C284.598 72.6182 284.367 72.8493 284.367 73.1344C284.367 73.4195 284.598 73.6506 284.883 73.6506Z" fill="#575988"/>
<path d="M285.531 74.6069C285.816 74.6069 286.048 74.3758 286.048 74.0907C286.048 73.8056 285.816 73.5744 285.531 73.5744C285.246 73.5744 285.015 73.8056 285.015 74.0907C285.015 74.3758 285.246 74.6069 285.531 74.6069Z" fill="#575988"/>
<path d="M286.21 75.6392C286.495 75.6392 286.726 75.4081 286.726 75.123C286.726 74.8379 286.495 74.6068 286.21 74.6068C285.925 74.6068 285.693 74.8379 285.693 75.123C285.693 75.4081 285.925 75.6392 286.21 75.6392Z" fill="#575988"/>
<path d="M347.212 75.4873C347.444 75.4873 347.632 75.2991 347.632 75.067C347.632 74.8349 347.444 74.6467 347.212 74.6467C346.979 74.6467 346.791 74.8349 346.791 75.067C346.791 75.2991 346.979 75.4873 347.212 75.4873Z" fill="#575988"/>
<path d="M347.278 76.4436C347.51 76.4436 347.698 76.2554 347.698 76.0233C347.698 75.7912 347.51 75.603 347.278 75.603C347.046 75.603 346.857 75.7912 346.857 76.0233C346.857 76.2554 347.046 76.4436 347.278 76.4436Z" fill="#575988"/>
<path d="M347.334 77.3965C347.566 77.3965 347.754 77.2084 347.754 76.9763C347.754 76.7441 347.566 76.556 347.334 76.556C347.102 76.556 346.914 76.7441 346.914 76.9763C346.914 77.2084 347.102 77.3965 347.334 77.3965Z" fill="#575988"/>
<path opacity="0.1" d="M313.918 103.241C313.855 103.165 328.445 121.587 339.769 110.942C339.779 110.945 321.886 113.371 313.918 103.241Z" fill="black"/>
<path opacity="0.1" d="M305.545 112.818C305.545 112.818 314.275 113.057 315.188 115.568V118.183C314.94 118.32 314.66 118.393 314.376 118.393C314.092 118.393 313.812 118.32 313.564 118.183C312.683 117.706 307.405 115.026 305.545 116.316V112.818Z" fill="black"/>
<path d="M305.708 112.818C305.708 112.818 314.057 113.047 314.93 115.443V117.931C314.692 118.063 314.425 118.133 314.153 118.133C313.88 118.133 313.613 118.063 313.375 117.931C312.534 117.481 307.488 114.923 305.708 116.154V112.818Z" fill="#F87F7F"/>
<path opacity="0.1" d="M310.311 93.863C311.202 95.9274 312.339 97.8772 313.696 99.6706C315.172 101.653 316.96 103.382 318.991 104.79C318.991 104.79 310.456 95.0609 310.311 93.863Z" fill="black"/>
<path opacity="0.1" d="M307.455 83.7204C307.455 83.7204 308.911 90.0078 312.664 92.1423L307.455 83.7204Z" fill="black"/>
<path opacity="0.1" d="M305.221 84.3559C305.185 84.2401 303.927 89.3197 310.059 92.1424C310.059 92.1424 307.455 91.2589 305.221 84.3559Z" fill="black"/>
<path opacity="0.1" d="M343.34 80.14C343.244 80.14 346.364 82.1255 347.215 83.0521C347.215 83.0521 345.183 80.0076 343.34 80.14Z" fill="black"/>
<path d="M323.59 75.7951C323.591 75.9631 323.627 76.129 323.696 76.2824C323.765 76.4358 323.864 76.5732 323.989 76.6861C324.113 76.799 324.259 76.8849 324.419 76.9383C324.578 76.9917 324.747 77.0114 324.914 76.9963C327.26 77.1419 329.706 77.2445 331.863 76.3345C332.268 76.19 332.631 75.9493 332.922 75.6329C333.306 75.1597 333.382 74.5177 333.538 73.9287C333.842 72.7771 334.491 71.7546 334.957 70.6592C335.747 68.8086 336.011 66.7764 335.722 64.7854C335.661 64.1751 335.459 63.5872 335.133 63.0679C334.511 62.1778 333.376 61.817 332.552 61.1089C331.728 60.4007 331.198 59.3186 330.235 58.7924C329.368 58.3093 328.306 58.3689 327.33 58.5343C325.41 58.8604 323.57 59.5512 321.909 60.5695C321.35 60.9004 320.738 61.3074 320.096 61.185C319.533 61.0791 319.123 60.6059 318.772 60.1624C318.321 61.2214 318.131 62.3735 318.219 63.5213C318.244 63.6897 318.238 63.8611 318.203 64.0276C318.122 64.2289 317.999 64.4105 317.842 64.5604C317.263 65.2222 316.902 66.2977 317.475 66.9794C317.723 67.2739 318.107 67.4361 318.349 67.7372C318.782 68.2766 318.636 69.0609 318.626 69.7492C318.603 69.9895 318.663 70.2307 318.799 70.4309C318.924 70.5476 319.077 70.6299 319.243 70.6699C319.41 70.71 319.584 70.7063 319.748 70.6592C320.076 70.5605 320.42 70.5279 320.761 70.5633C321.12 70.6799 321.429 70.9128 321.641 71.2251C322.71 72.6183 323.134 74.1339 323.59 75.7951Z" fill="#2D293D"/>
<g opacity="0.1">
<path opacity="0.1" d="M333.197 75.0469C332.906 75.3632 332.543 75.604 332.138 75.7484C329.967 76.6518 327.525 76.5492 325.189 76.4103C324.938 76.4128 324.69 76.3573 324.464 76.2481C324.107 76.0396 323.971 75.6028 323.862 75.2057C323.405 73.5511 322.985 72.0322 321.899 70.6523C321.69 70.3339 321.38 70.0951 321.019 69.9739C320.679 69.9417 320.335 69.9743 320.007 70.0698C319.842 70.1173 319.669 70.1215 319.502 70.0821C319.336 70.0427 319.182 69.9609 319.057 69.8448C318.922 69.6446 318.861 69.4035 318.885 69.1631C318.885 68.4682 319.04 67.6905 318.607 67.1511C318.365 66.85 317.981 66.6878 317.733 66.39C317.571 66.1704 317.472 65.9111 317.446 65.6395C317.419 65.368 317.467 65.0944 317.584 64.8479C317.171 65.5098 316.995 66.3404 317.475 66.9096C317.723 67.2041 318.107 67.3662 318.349 67.6674C318.782 68.2101 318.637 68.991 318.627 69.6794C318.601 69.9193 318.661 70.1606 318.795 70.361C318.921 70.4783 319.075 70.561 319.242 70.601C319.409 70.641 319.583 70.637 319.748 70.5894C320.076 70.4906 320.42 70.458 320.761 70.4934C321.12 70.6101 321.43 70.8429 321.641 71.1553C322.723 72.5352 323.147 74.0508 323.604 75.712C323.657 76.1208 323.861 76.4949 324.176 76.761C324.403 76.8704 324.652 76.9248 324.904 76.9199C327.25 77.0655 329.696 77.1714 331.853 76.258C332.259 76.1146 332.622 75.8736 332.912 75.5565C333.058 75.3701 333.17 75.1595 333.243 74.9344C333.247 74.9774 333.223 75.0138 333.197 75.0469Z" fill="black"/>
<path opacity="0.1" d="M318.22 63.8253C318.324 63.7125 318.404 63.5796 318.455 63.4349C318.484 63.2674 318.484 63.096 318.455 62.9285C318.39 61.9851 318.513 61.0382 318.815 60.1422L318.772 60.0926C318.32 61.15 318.13 62.3014 318.22 63.4481C318.23 63.5736 318.23 63.6998 318.22 63.8253Z" fill="black"/>
</g>
<path opacity="0.1" d="M322.217 80.4611C322.217 80.4611 331.837 81.7385 332.701 80.2923L322.217 80.4611Z" fill="black"/>
<path opacity="0.1" d="M340.917 76.4799C340.917 76.4799 346.265 76.4799 347.44 78.4919L340.917 76.4799Z" fill="black"/>
</g>
<rect x="371.548" y="132.449" width="70.4516" height="23.9536" rx="11.2723" fill="white"/>
<rect x="0.972656" y="181.061" width="70.4516" height="23.9536" rx="11.2723" fill="white"/>
<defs>
<linearGradient id="paint0_linear_34_208" x1="315.135" y1="217.968" x2="315.135" y2="56.2608" gradientUnits="userSpaceOnUse">
<stop stop-color="#808080" stop-opacity="0.25"/>
<stop offset="0.54" stop-color="#808080" stop-opacity="0.12"/>
<stop offset="1" stop-color="#808080" stop-opacity="0.1"/>
</linearGradient>
<clipPath id="clip0_34_208">
<rect width="347.327" height="224.559" fill="white" transform="translate(62.9701)"/>
</clipPath>
</defs>
</svg>
