<svg xmlns="http://www.w3.org/2000/svg" width="42.67" height="42.669" viewBox="0 0 42.67 42.669"><g transform="translate(-362 -860)"><circle cx="21.335" cy="21.335" r="21.335" transform="translate(362 860)" fill="#d1f8f4"/><path d="M1.5,0H15a1.51,1.51,0,0,1,1.5,1.52V18.751a1.51,1.51,0,0,1-1.5,1.52H1.5A1.51,1.51,0,0,1,0,18.751V1.52A1.51,1.51,0,0,1,1.5,0Z" transform="translate(374.2 870)" fill="#fff"/><g transform="translate(374.037 869.764)"><path d="M15.524,20.878H1.367A1.366,1.366,0,0,1,0,19.513V1.367A1.366,1.366,0,0,1,1.367,0H15.524a1.368,1.368,0,0,1,1.367,1.367V19.513a1.369,1.369,0,0,1-1.367,1.365M1.367.7A.67.67,0,0,0,.7,1.365V19.51a.67.67,0,0,0,.669.669H15.524a.67.67,0,0,0,.669-.669V1.367A.67.67,0,0,0,15.524.7H1.367" fill="#638eff"/><rect width="11.2" height="0.695" transform="translate(2.992 3.868)" fill="#638eff"/><rect width="11.2" height="0.695" transform="translate(2.992 6.34)" fill="#638eff"/><path d="M11.41,47.737v-.68a.242.242,0,0,1,.21-.1q1.866,0,3.734,0c.15,0,.2.052.2.2v.375c0,.2-.039.244-.244.244h-.848c.055.123.108.231.147.344a.094.094,0,0,0,.108.076c.21,0,.422,0,.632,0,.147,0,.2.058.2.207v.375c0,.21-.034.244-.244.244h-.588a1.807,1.807,0,0,1-1.792,1.674c.034.031.055.05.073.068q.909.842,1.821,1.687c.066.06.129.121.089.22s-.121.094-.2.094c-.307,0-.617-.005-.924,0a.328.328,0,0,1-.249-.1c-.53-.5-1.065-.987-1.6-1.48-.178-.168-.352-.341-.53-.509v-.774a.208.208,0,0,1,.22-.118c.362,0,.724.005,1.086,0a.888.888,0,0,0,.732-.346.754.754,0,0,0,.165-.417h-.142c-.617,0-1.231,0-1.847,0a.223.223,0,0,1-.218-.1v-.609a.215.215,0,0,1,.22-.118c.567,0,1.131,0,1.7,0h.136a.9.9,0,0,0-.709-.349c-.375-.008-.748-.005-1.123,0A.231.231,0,0,1,11.41,47.737Z" transform="translate(-8.416 -34.637)" fill="#003974"/><path d="M49.69,52.37v9.413l2.28-1.113,2.335,1.168v-8.88L49.69,52.37" transform="translate(-36.651 -38.627)" fill="#fff"/><path d="M53.3,61.191a.376.376,0,0,1-.16-.037l-2.178-1.086L48.844,61.1a.358.358,0,0,1-.514-.32V51.366a.36.36,0,0,1,.121-.268.353.353,0,0,1,.281-.087l4.616.585a.357.357,0,0,1,.312.354v8.88a.355.355,0,0,1-.171.3.337.337,0,0,1-.186.055m-2.335-1.882a.376.376,0,0,1,.16.037l1.819.908V52.269l-3.9-.5v8.434l1.766-.861a.374.374,0,0,1,.157-.037" transform="translate(-35.648 -37.623)" fill="#003974"/><path d="M50.388,38.724a4.414,4.414,0,1,1-4.414-4.414,4.414,4.414,0,0,1,4.414,4.414" transform="translate(-30.654 -25.307)" fill="#fff"/><path d="M44.971,42.491a4.771,4.771,0,1,1,4.771-4.771A4.776,4.776,0,0,1,44.971,42.491Zm0-8.825a4.057,4.057,0,1,0,4.057,4.057A4.061,4.061,0,0,0,44.971,33.666Z" transform="translate(-29.651 -24.303)" fill="#003974"/><path d="M51.9,42.35a2.3,2.3,0,1,0,2.3,2.3,2.3,2.3,0,0,0-2.3-2.3" transform="translate(-36.584 -31.237)" fill="#ffc4c4"/></g></g></svg>