<svg width="52" height="51" viewBox="0 0 52 51" fill="none" xmlns="http://www.w3.org/2000/svg">
<path d="M1 49.6542C1 50.0729 1.33922 50.4117 1.75749 50.4117H50.2425C50.6608 50.4117 51 50.0729 51 49.6542C51 49.2356 50.6608 48.8967 50.2425 48.8967H1.75749C1.33922 48.8967 1 49.2356 1 49.6542Z" fill="#163B71" stroke="#163B71" stroke-width="0.5"/>
<path d="M25.6633 19.871C25.5476 19.9863 25.4402 20.1085 25.3414 20.2357C25.249 20.1182 25.1495 20.005 25.042 19.8975C23.8105 18.6686 21.8565 18.4587 20.4069 19.3966C20.1866 19.5343 19.976 19.7028 19.7759 19.9026C19.5782 20.1031 19.4154 20.3065 19.281 20.5196C18.3406 21.9792 18.5509 23.9315 19.7805 25.1604L24.968 30.345C25.1161 30.493 25.3098 30.5671 25.5038 30.5671C25.6975 30.5671 25.8915 30.493 26.0396 30.345L31.0887 25.2959C31.0891 25.2959 31.0891 25.2959 31.0894 25.2951C32.5818 23.7999 32.5818 21.3668 31.0883 19.8701C29.591 18.3756 27.1576 18.3767 25.6633 19.8708V19.871ZM30.0164 24.2258L25.5034 28.7388L20.8517 24.0897C20.123 23.3609 19.9983 22.2046 20.5585 21.3354C20.6376 21.2096 20.7353 21.0881 20.851 20.9706C20.9656 20.856 21.0867 20.759 21.2197 20.6756C21.5819 20.4417 21.9959 20.3278 22.408 20.3278C22.9787 20.3278 23.5464 20.5466 23.9698 20.9685C24.3054 21.3059 24.5203 21.7299 24.5914 22.1949C24.6479 22.564 24.9648 22.8371 25.3378 22.8378H25.3399C25.7122 22.8378 26.0295 22.5672 26.0877 22.1992C26.1636 21.7235 26.3871 21.2894 26.7335 20.9423C27.6379 20.0389 29.1102 20.0382 30.0154 20.9415C30.9198 21.8471 30.9198 23.3204 30.0164 24.2259L30.0164 24.2258Z" fill="#EE1C25" stroke="#EE1C25" stroke-width="0.5"/>
<path d="M16.0668 20.6383C16.3471 20.6383 16.612 20.4874 16.7485 20.2219C16.9379 19.851 16.7862 19.3961 16.4154 19.2067C16.0442 19.0098 15.5896 19.1614 15.3927 19.5323C15.2034 19.9035 15.355 20.366 15.7258 20.5553C15.8394 20.6089 15.9533 20.6383 16.0669 20.6383L16.0668 20.6383Z" fill="#163B71" stroke="#163B71" stroke-width="0.5"/>
<path d="M14.3088 22.8957C14.2409 23.3046 14.5283 23.6909 14.9376 23.7592C14.9757 23.7675 15.0213 23.7675 15.0591 23.7675C15.4227 23.7675 15.7487 23.5019 15.8015 23.1304C15.8694 22.7139 15.5895 22.3276 15.1726 22.2597C14.7637 22.1986 14.3774 22.4792 14.3088 22.8957V22.8957Z" fill="#163B71" stroke="#163B71" stroke-width="0.5"/>
<path d="M15.0512 27.0556C15.0968 27.0556 15.1349 27.0556 15.1726 27.048C15.5895 26.9873 15.8694 26.6003 15.8015 26.1838C15.7407 25.7749 15.3548 25.4871 14.9376 25.555C14.5287 25.6157 14.2408 26.0016 14.3088 26.4192C14.3691 26.7897 14.6875 27.0556 15.0512 27.0556V27.0556Z" fill="#163B71" stroke="#163B71" stroke-width="0.5"/>
<path d="M17.4754 16.6836C17.3317 16.8205 17.2559 17.0171 17.2559 17.214C17.2559 17.4181 17.3317 17.6075 17.4754 17.7519C17.6192 17.8964 17.8085 17.9715 18.0134 17.9715C18.2106 17.9715 18.4 17.896 18.5437 17.7519C18.6875 17.6078 18.7708 17.4185 18.7708 17.214C18.7708 17.0171 18.6875 16.8205 18.5437 16.6836C18.2635 16.4033 17.7561 16.4033 17.4754 16.6836H17.4754Z" fill="#163B71" stroke="#163B71" stroke-width="0.5"/>
<path d="M35.9603 23.7596C36.3771 23.6988 36.657 23.3129 36.597 22.8961C36.5288 22.4796 36.1425 22.1993 35.7332 22.2672C35.3163 22.328 35.0364 22.7139 35.0971 23.1307C35.1575 23.5019 35.4759 23.7678 35.8471 23.7678C35.8844 23.7678 35.9225 23.7678 35.9603 23.7596V23.7596Z" fill="#163B71" stroke="#163B71" stroke-width="0.5"/>
<path d="M35.7254 27.0555C35.7711 27.0631 35.8092 27.0631 35.8469 27.0631C36.2106 27.0631 36.5365 26.7982 36.5972 26.427C36.6576 26.0106 36.3776 25.6235 35.9604 25.5556C35.5515 25.4949 35.1652 25.7752 35.0969 26.1917C35.0287 26.6002 35.3165 26.9872 35.7254 27.0555L35.7254 27.0555Z" fill="#163B71" stroke="#163B71" stroke-width="0.5"/>
<path d="M34.158 29.0923C33.961 29.4635 34.1123 29.9181 34.4839 30.1074C34.5974 30.1681 34.711 30.1911 34.8324 30.1911C35.1052 30.1911 35.3704 30.0395 35.5062 29.7822C35.6956 29.411 35.5443 28.9493 35.1731 28.7599C34.8019 28.5702 34.3473 28.7218 34.158 29.0923L34.158 29.0923Z" fill="#163B71" stroke="#163B71" stroke-width="0.5"/>
<path d="M32.196 32.3884C32.2337 32.4793 32.2865 32.5623 32.3552 32.6302C32.5065 32.7743 32.6958 32.8581 32.8931 32.8581C32.9916 32.8581 33.09 32.8351 33.1809 32.7973C33.2719 32.7589 33.3552 32.7064 33.4311 32.6302C33.499 32.5623 33.5525 32.4793 33.5974 32.3884C33.6355 32.2975 33.6506 32.199 33.6506 32.1006C33.6506 31.9029 33.5672 31.7064 33.4311 31.5626C33.3552 31.494 33.2794 31.4333 33.1809 31.3955C32.9082 31.2823 32.5672 31.3503 32.3552 31.5626C32.2869 31.6306 32.2337 31.7136 32.196 31.812C32.1579 31.9029 32.1353 32.0014 32.1353 32.1006C32.1353 32.1987 32.1575 32.2971 32.196 32.3884V32.3884Z" fill="#163B71" stroke="#163B71" stroke-width="0.5"/>
<path d="M23.2809 47.8401C23.2824 47.8409 23.2835 47.8416 23.2849 47.8423C23.9777 48.2566 24.7571 48.469 25.5466 48.469C26.0314 48.469 26.5208 48.3892 26.9958 48.2257L47.0527 40.5991C48.6181 40.0708 49.4042 38.3457 48.8135 36.8378C48.2469 35.3552 46.6263 34.7364 45.545 35.0576L36.3843 37.8357C36.4005 37.7167 36.4091 37.5953 36.4091 37.4724C36.4091 36.0135 35.2276 34.8585 33.7952 34.8585H26.1434C25.6568 34.8585 25.1814 34.6936 24.8056 34.3953L18.9846 29.7494C18.0241 28.9897 16.8214 28.5708 15.5982 28.5708H12.5259C12.3955 27.2297 11.2746 26.1736 9.90019 26.1736H5.64375C4.18191 26.1736 2.99219 27.3634 2.99219 28.8251V42.8897C2.99219 44.3516 4.18201 45.5413 5.64375 45.5413H9.89983C11.3617 45.5413 12.5514 44.3515 12.5514 42.8897V42.8053H14.3632C14.7272 42.8053 15.0808 42.9037 15.3924 43.0924L23.0373 47.6927C23.0714 47.7135 23.1131 47.7387 23.1613 47.7653L23.1602 47.7667L23.2809 47.8401ZM11.036 42.8899C11.036 43.5166 10.5261 44.0262 9.89969 44.0262L5.64324 44.0265C5.01655 44.0265 4.50697 43.5166 4.50697 42.8903V28.8257C4.50697 28.199 5.01687 27.6894 5.64324 27.6894H9.89932C10.526 27.6894 11.0356 28.1993 11.0356 28.8257L11.036 42.8899ZM16.4092 41.9351L16.1724 41.7946C15.6298 41.4647 15.0042 41.2908 14.3627 41.2908H12.5523V30.0863H15.5977C16.5704 30.0863 17.421 30.4449 18.0416 30.9357C23.4939 35.0118 24.0031 36.374 26.1429 36.374H33.7944C34.3794 36.374 34.8928 36.8465 34.8928 37.4725C34.8928 38.0852 34.4041 38.5709 33.7944 38.5709H25.0519C24.6337 38.5709 24.2945 38.9098 24.2945 39.3284C24.2945 39.7471 24.6337 40.0859 25.0519 40.0859C32.1723 40.0841 33.8343 40.0895 33.9759 40.0791C34.0808 40.0938 34.1897 40.0867 34.2967 40.0525L45.9364 36.5212C46.5369 36.44 47.1708 36.7854 47.3996 37.384C47.6681 38.07 47.3472 38.8983 46.5405 39.1728L26.4799 46.8005C25.6786 47.0765 24.7986 46.9809 24.0647 46.544L24.0245 46.5195C24.0227 46.5174 24.0198 46.5167 24.0177 46.5152L16.4092 41.9351Z" fill="#163B71" stroke="#163B71" stroke-width="0.5"/>
<path d="M46.355 3.92636H42.0975C40.6357 3.92636 39.446 5.11618 39.446 6.57792V6.66237H37.6327C37.2723 6.66237 36.9187 6.56391 36.6108 6.37921L28.7142 1.62905C27.6003 0.95887 26.2563 0.814416 25.0015 1.24276L4.94557 8.86802C3.39211 9.39769 2.59473 11.1082 3.18734 12.6382C3.68072 13.9106 5.01677 14.6707 6.36031 14.4367C6.39121 14.4317 6.42211 14.4241 6.4523 14.4152L15.6155 11.6371C15.5989 11.7557 15.5903 11.8768 15.5903 11.9997C15.5903 13.4392 16.7621 14.6114 18.2024 14.6114H25.8589C26.3418 14.6114 26.8161 14.7771 27.1946 15.0789L33.0145 19.7162C33.44 20.0551 33.919 20.3145 34.4213 20.5114C34.509 20.5689 34.6068 20.6038 34.7088 20.621C35.2543 20.8003 35.826 20.9013 36.4052 20.9013H39.4722C39.6027 22.242 40.7235 23.2978 42.0979 23.2978H46.3554C47.8172 23.2978 49.007 22.108 49.007 20.6462V6.57797C49.007 5.11613 47.8175 3.92677 46.3554 3.92677L46.355 3.92636ZM33.9582 18.5309L28.1383 13.8936C27.4929 13.3794 26.683 13.0963 25.8586 13.0963H18.2022C17.5974 13.0963 17.1055 12.6043 17.1055 11.9999C17.1055 11.3948 17.5974 10.9028 18.2022 10.9028L26.9485 10.9024C27.3668 10.9024 27.706 10.5636 27.706 10.145C27.706 9.72632 27.3668 9.38746 26.9485 9.38746C19.4997 9.38926 18.1716 9.38423 18.0235 9.39321C17.7199 9.3562 18.3394 9.2545 6.06281 12.9496C5.44186 13.0362 4.82847 12.6805 4.59996 12.0908C4.32794 11.3901 4.6632 10.565 5.45878 10.293L25.5148 2.66772C26.3211 2.39247 27.2026 2.48734 27.9324 2.92681L35.8289 7.6766C36.373 8.00432 36.9968 8.17752 37.6321 8.17752H39.4454V19.3867H36.4042C35.5188 19.3863 34.65 19.0823 33.9575 18.5311L33.9582 18.5309ZM47.492 20.646C47.492 21.2727 46.9821 21.7823 46.3557 21.7823H42.0979C41.4712 21.7823 40.9616 21.2724 40.9616 20.646V20.1548C40.9616 20.1508 40.9638 20.1476 40.9638 20.1436V7.41938C40.9638 7.41543 40.9616 7.41219 40.9616 7.40824V6.57745C40.9616 5.95075 41.4715 5.44117 42.0979 5.44117H46.3553C46.982 5.44117 47.4916 5.95108 47.4916 6.57745L47.492 20.646Z" fill="#163B71" stroke="#163B71" stroke-width="0.5"/>
</svg>
