<svg width="60" height="59" viewBox="0 0 60 59" fill="none" xmlns="http://www.w3.org/2000/svg">
<path d="M48.5276 36.8261C49.2927 36.5318 49.9434 36.0009 50.3853 35.3105C51.0744 34.1202 50.7629 32.6509 50.4877 31.3552H50.4882C50.2557 30.5832 50.1823 29.7723 50.2721 28.9708C50.5871 28.2661 51.0399 27.6311 51.6041 27.104C52.5101 26.1025 53.5396 24.9672 53.5396 23.5389C53.5396 22.1106 52.5127 20.9761 51.6041 19.9738C51.0399 19.4467 50.5871 18.8121 50.2721 18.107C50.1823 17.306 50.2557 16.4951 50.4882 15.7234C50.7629 14.4278 51.0744 12.9584 50.3858 11.7673C49.6872 10.5593 48.2459 10.094 46.9753 9.68358C46.2037 9.50342 45.4761 9.17033 44.8363 8.7033C44.3697 8.06345 44.0366 7.33683 43.8569 6.56562C43.4465 5.29416 42.9811 3.85592 41.7723 3.15427C40.582 2.46517 39.1127 2.77581 37.817 3.05188V3.05145C37.045 3.28431 36.2341 3.35775 35.4326 3.26746C34.7279 2.9525 34.0929 2.49974 33.5658 1.9355C32.5643 1.02953 31.429 0 30.0007 0C28.5724 0 27.4378 1.02694 26.4356 1.9355C25.9085 2.49974 25.2738 2.9525 24.5688 3.26746C23.7678 3.35732 22.9569 3.28388 22.1852 3.05145C20.8896 2.77581 19.4216 2.46518 18.2291 3.15384C17.0211 3.85243 16.5558 5.29373 16.1454 6.5643C15.9652 7.33591 15.6321 8.06348 15.1651 8.70331C14.5252 9.16991 13.7986 9.503 13.0274 9.68272C11.7559 10.0932 10.3177 10.5537 9.61605 11.7673C8.92696 12.9576 9.23845 14.4269 9.51366 15.7226H9.51323C9.74567 16.4946 9.81911 17.3055 9.72924 18.107C9.41429 18.8117 8.96152 19.4467 8.39729 19.9738C7.49132 20.9753 6.46178 22.1106 6.46178 23.5389C6.46178 24.9672 7.48873 26.1017 8.39729 27.104C8.96152 27.6311 9.41429 28.2658 9.72924 28.9708C9.81911 29.7718 9.74566 30.5827 9.51323 31.3544C9.23846 32.65 8.92696 34.1194 9.61562 35.3105H9.61605C10.0585 36.0005 10.7091 36.5314 11.4738 36.8261L0.283287 48.0166C0.00678667 48.2935 -0.0761635 48.7096 0.0737549 49.0712C0.223673 49.4328 0.576211 49.6687 0.967625 49.6687H9.67738V57.4107C9.67738 57.8021 9.91327 58.1547 10.2749 58.3046C10.6365 58.4545 11.0525 58.3715 11.3295 58.095L25.2584 44.1694C25.6719 44.4688 26.0659 44.7937 26.4383 45.1432C27.4398 46.0491 28.5751 47.0787 30.0034 47.0787C31.4317 47.0787 32.5662 46.0517 33.5685 45.1432C33.9387 44.7941 34.331 44.4688 34.7423 44.1694L48.6679 58.095C48.9444 58.3737 49.3618 58.4579 49.7247 58.3076C50.0876 58.1577 50.3239 57.8034 50.3226 57.4107V49.6687H59.0324C59.4238 49.6687 59.7763 49.4328 59.9262 49.0712C60.0762 48.7096 59.9932 48.2935 59.7167 48.0166L48.5276 36.8261ZM10.6459 47.7327H3.30443L13.49 37.5471C14.0996 37.7047 14.6699 37.9864 15.1654 38.3744C15.632 39.0142 15.9651 39.7409 16.1448 40.5121C16.5552 41.7835 17.0206 43.2218 18.2294 43.9234C19.4197 44.6117 20.8877 44.301 22.1847 44.0258C22.3839 43.9843 22.5852 43.9424 22.7839 43.904L11.6133 55.0746V48.7008C11.6133 48.4442 11.5114 48.1979 11.3299 48.0165C11.1484 47.835 10.9022 47.7331 10.6456 47.7331L10.6459 47.7327ZM32.2672 43.707C31.493 44.4104 30.6838 45.1392 30.0007 45.1392C29.3177 45.1392 28.5124 44.4104 27.7334 43.707C26.9934 42.9186 26.0801 42.3133 25.0652 41.9396C24.7269 41.8528 24.3787 41.8105 24.0296 41.8139C23.271 41.8433 22.5175 41.95 21.7805 42.1332C20.9501 42.4291 20.0498 42.4693 19.1956 42.2486C18.6305 41.9215 18.3013 40.9023 17.9829 39.9173H17.9833C17.7323 38.8472 17.2355 37.8504 16.5317 37.0063C15.6871 36.3021 14.69 35.8053 13.6198 35.5547C12.6348 35.2354 11.6156 34.9062 11.2895 34.342C11.0679 33.4883 11.108 32.588 11.4044 31.7571C11.7228 30.6922 11.7889 29.5676 11.598 28.4729C11.2238 27.4589 10.619 26.546 9.8309 25.8064C9.12755 25.0322 8.39874 24.2231 8.39874 23.54C8.39874 22.857 9.12758 22.0517 9.8309 21.2727C10.6202 20.5326 11.2259 19.6189 11.6001 18.6036C11.791 17.5084 11.7249 16.3843 11.4065 15.3189C11.1106 14.4885 11.0704 13.5882 11.2912 12.734C11.6182 12.1689 12.6374 11.8397 13.6224 11.5213V11.5217C14.6925 11.2707 15.6893 10.7739 16.5334 10.0701C17.2376 9.22549 17.7344 8.2284 17.985 7.15823C18.3043 6.17321 18.6335 5.15405 19.1977 4.82789C20.0514 4.60626 20.9517 4.64644 21.7826 4.94282C22.8475 5.26122 23.9721 5.32733 25.0668 5.13637C26.0813 4.76309 26.9942 4.15868 27.7342 3.37108C28.5084 2.66773 29.3175 1.93892 30.0006 1.93892C30.6837 1.93892 31.4889 2.66775 32.2679 3.37108C33.008 4.15954 33.9213 4.76486 34.9361 5.13847C36.0313 5.329 37.1554 5.26246 38.2208 4.94492C39.0512 4.64811 39.952 4.60836 40.8057 4.82956C41.3708 5.15661 41.7 6.17579 42.0184 7.16079H42.018C42.269 8.23093 42.7658 9.22768 43.4696 10.0718C44.3142 10.776 45.3113 11.2728 46.3815 11.5234C47.3665 11.8427 48.3857 12.1719 48.7118 12.7361C48.9334 13.5898 48.8933 14.4901 48.5969 15.321C48.2785 16.3859 48.2124 17.5105 48.4033 18.6052C48.7775 19.6192 49.3823 20.5321 50.1704 21.2717C50.8738 22.0459 51.6026 22.8551 51.6026 23.5381C51.6026 24.2212 50.8737 25.0265 50.1704 25.8054C49.3811 26.5455 48.7754 27.4592 48.4012 28.4745C48.2103 29.5697 48.2764 30.6938 48.5948 31.7592C48.8907 32.5896 48.9309 33.4899 48.7101 34.3441C48.3831 34.9092 47.3639 35.2384 46.3789 35.5568V35.5564C45.3088 35.8074 44.312 36.3042 43.4679 37.008C42.7637 37.8526 42.2669 38.8497 42.0163 39.9199C41.697 40.9049 41.3678 41.9241 40.8036 42.2502C39.9499 42.4714 39.0496 42.4312 38.2187 42.1353C37.1538 41.8169 36.0292 41.7508 34.9345 41.9418C33.9201 42.315 33.0071 42.9194 32.2671 43.707H32.2672ZM49.356 47.7327C48.8216 47.7327 48.3882 48.166 48.3882 48.7004V55.0742L37.2187 43.9047C37.4123 43.9436 37.6175 43.985 37.8166 44.0265C39.1123 44.3022 40.5817 44.6128 41.7728 43.9241C42.9808 43.2255 43.4461 41.7842 43.8565 40.5137C44.0367 39.742 44.3698 39.0145 44.8368 38.3747C45.3323 37.9863 45.9031 37.705 46.5131 37.5482L56.6978 47.7329L49.356 47.7327Z" fill="#163B71"/>
<path d="M47.4199 23.5387C47.4199 18.9186 45.5846 14.488 42.318 11.2211C39.051 7.95456 34.6204 6.11926 30.0005 6.11926C25.3805 6.11926 20.9498 7.95456 17.6829 11.2211C14.4164 14.4881 12.5811 18.9187 12.5811 23.5387C12.5811 28.1586 14.4164 32.5893 17.6829 35.8562C20.9499 39.1228 25.3805 40.9581 30.0005 40.9581C34.6189 40.9529 39.0463 39.1159 42.3125 35.8501C45.5786 32.5843 47.4152 28.1569 47.4204 23.5381L47.4199 23.5387ZM30.0003 39.0227C25.8939 39.0227 21.9555 37.3913 19.0514 34.4876C16.1477 31.5835 14.5163 27.6451 14.5163 23.5387C14.5163 19.4322 16.1477 15.4938 19.0514 12.5897C21.9555 9.686 25.8939 8.05465 30.0003 8.05465C34.1068 8.05465 38.0452 9.686 40.9493 12.5897C43.853 15.4938 45.4844 19.4322 45.4844 23.5387C45.4796 27.6438 43.8465 31.5792 40.9437 34.482C38.0409 37.3848 34.1055 39.0179 30.0003 39.0227Z" fill="#163B71"/>
<path d="M30.0011 9.99011C26.408 9.99011 22.9617 11.4175 20.4209 13.9583C17.88 16.4991 16.4526 19.9454 16.4526 23.5386C16.4526 27.1318 17.88 30.5781 20.4209 33.1189C22.9617 35.6597 26.408 37.0871 30.0011 37.0871C33.5943 37.0871 37.0406 35.6597 39.5814 33.1189C42.1223 30.5781 43.5497 27.1318 43.5497 23.5386C43.5458 19.9467 42.1171 16.5026 39.5771 13.9626C37.0372 11.4227 33.5931 9.99398 30.0011 9.99011ZM30.0011 35.1516C26.9212 35.1516 23.9674 33.9282 21.7895 31.7502C19.6117 29.5723 18.3881 26.6186 18.3881 23.5386C18.3881 20.4586 19.6116 17.5048 21.7895 15.327C23.9675 13.1492 26.9212 11.9256 30.0011 11.9256C33.0811 11.9256 36.0349 13.1491 38.2128 15.327C40.3906 17.5049 41.6142 20.4586 41.6142 23.5386C41.6107 26.6177 40.3863 29.5693 38.2093 31.7468C36.0318 33.9239 33.0803 35.1482 30.0011 35.1516V35.1516Z" fill="#163B71"/>
<path d="M31.3691 22.7955H35.4512V25.1803H31.3691V29.8317H28.834V25.1803H24.7305V22.7955H28.834V18.4449H31.3691V22.7955Z" fill="#EE1C25"/>
</svg>
