<svg width="52" height="51" viewBox="0 0 52 51" fill="none" xmlns="http://www.w3.org/2000/svg">
<path d="M31.8425 12.506H25.7054C24.823 12.506 24.1045 11.7876 24.1045 10.9051C24.1045 10.0222 24.8229 9.30383 25.7054 9.30383H31.8425C32.7254 9.30383 33.4438 10.0223 33.4438 10.9051C33.4438 11.7875 32.7253 12.506 31.8425 12.506ZM25.7054 10.767C25.6324 10.767 25.5708 10.8286 25.5708 10.902C25.5708 10.9754 25.6324 11.037 25.7054 11.037H31.8425C31.9159 11.037 31.9775 10.9754 31.9775 10.902C31.9775 10.8287 31.9159 10.767 31.8425 10.767H25.7054Z" fill="#163B71" stroke="#163B71" stroke-width="0.3" stroke-linejoin="round"/>
<path d="M31.8419 10.7673C31.8419 10.7673 31.8419 10.7672 31.8419 10.7672C31.7073 10.7672 31.5723 10.7319 31.4519 10.6558C31.109 10.4388 31.0062 9.98722 31.2235 9.64431L33.7716 5.5988C33.9465 5.32115 33.7356 4.96175 33.4079 4.97906V4.97906C33.1615 4.97906 32.93 4.85311 32.795 4.6479C32.7805 4.6271 31.3405 2.4691 29.6369 2.4691H27.9187C26.23 2.4691 24.7758 4.62439 24.7609 4.64478C24.6259 4.85313 24.3944 4.97634 24.148 4.97634V4.97634C23.8007 4.97634 23.5906 5.36025 23.7779 5.65271L26.3323 9.6412C26.5493 9.98414 26.4469 10.4358 26.1039 10.6527C25.7606 10.8697 25.309 10.7641 25.092 10.424L22.128 5.71781C21.8494 5.27522 21.8318 4.7153 22.0837 4.2547C22.336 3.79445 22.8198 3.50997 23.3448 3.50997V3.50997C23.6147 3.50997 23.867 3.38287 24.0417 3.17726C24.757 2.33581 26.1671 1 27.9186 1H29.6368C31.3886 1 32.7988 2.33581 33.5141 3.17726C33.6888 3.38287 33.9412 3.50997 34.211 3.50997V3.50997C34.736 3.50997 35.2167 3.79444 35.4721 4.2547C35.724 4.7122 35.7095 5.27524 35.4309 5.71781L32.4665 10.424C32.3229 10.6468 32.0855 10.7673 31.8419 10.7673C31.8419 10.7673 31.8419 10.7673 31.8419 10.7673V10.7673Z" fill="#163B71" stroke="#163B71" stroke-width="0.3" stroke-linejoin="round"/>
<path d="M41.8321 35.5828C41.8321 35.5827 41.832 35.5827 41.8319 35.5827C41.2657 35.5827 40.5269 35.4744 39.5567 35.3191C38.8383 35.2045 38.0936 35.0872 37.4191 35.0346C37.0142 35.002 36.7152 34.6505 36.7446 34.2455C36.7768 33.841 37.1346 33.542 37.5333 33.5714C38.2662 33.6299 39.0404 33.75 39.7851 33.8704C39.9859 33.902 40.2111 33.9388 40.4412 33.9743C41.1361 34.0815 41.5325 33.4489 41.0786 32.9119C40.9352 32.7423 40.7771 32.569 40.6063 32.3982C40.0668 31.8587 40.0139 31.0025 39.9291 29.5834C39.8353 28.0061 39.6913 25.6192 38.794 22.3061C37.2578 16.6379 31.4696 12.4069 31.4111 12.363C31.0827 12.1253 31.0093 11.6682 31.2467 11.3397C31.4845 11.0113 31.9416 10.9379 32.2701 11.1753C32.5251 11.3601 38.5394 15.7582 40.2105 21.9221C41.1491 25.3789 41.2954 27.8567 41.3924 29.4956C41.439 30.2933 41.4948 31.1934 41.6415 31.3605C42.0931 31.8122 43.559 33.3777 43.4096 34.5125C43.3598 34.8821 43.1573 35.1869 42.8406 35.369C42.5829 35.5212 42.2573 35.5828 41.8324 35.5828C41.8323 35.5828 41.8322 35.5828 41.8321 35.5828V35.5828Z" fill="#163B71" stroke="#163B71" stroke-width="0.3" stroke-linejoin="round"/>
<path d="M17.1082 27.6151C17.1082 27.6151 17.1081 27.6152 17.1081 27.6152C17.0787 27.6151 17.0497 27.6124 17.0203 27.6093C16.6185 27.5622 16.3313 27.1957 16.3811 26.7943C16.5745 25.1758 16.8884 23.5835 17.3369 21.921C19.0052 15.7573 25.0223 11.359 25.2774 11.1742C25.6058 10.9368 26.0633 11.0102 26.3007 11.3386C26.5381 11.667 26.4651 12.1241 26.1367 12.3619C26.0779 12.4059 20.2841 16.6486 18.7534 22.305C18.3222 23.8969 18.0232 25.4216 17.8384 26.9672C17.7917 27.3422 17.4748 27.6149 17.1083 27.615C17.1083 27.615 17.1082 27.615 17.1082 27.6151V27.6151Z" fill="#163B71" stroke="#163B71" stroke-width="0.3" stroke-linejoin="round"/>
<path d="M31.1619 47.0678C31.1619 47.0678 31.1618 47.0678 31.1618 47.0678C30.8919 47.0678 30.6604 47.0411 30.4756 46.9827C28.1857 46.2878 16.6762 46.0767 12.4343 46.0531C12.0294 46.0504 11.7041 45.722 11.7041 45.317C11.7072 44.9153 12.0357 44.5872 12.4371 44.5872H12.4402C13.0703 44.59 27.9392 44.681 30.9014 45.5811C32.3088 46.0064 39.6948 43.2352 49.2892 38.6816C49.4446 38.6082 49.4972 38.4791 49.5148 38.4089C49.5325 38.3355 49.5497 38.1947 49.4473 38.0511C48.415 36.6115 46.5414 36.0574 44.8875 36.6993L35.9591 40.18C35.0064 40.5524 33.9446 40.5818 32.9743 40.2679L28.2741 38.7491C27.89 38.6231 27.6789 38.2096 27.8021 37.8254C27.9253 37.4413 28.3416 37.2302 28.7257 37.3534L33.4259 38.8723C34.0796 39.0834 34.7894 39.0626 35.4286 38.8134L44.3598 35.3331C46.6351 34.4475 49.2185 35.2127 50.6437 37.198C50.9721 37.6551 51.0808 38.2331 50.9399 38.7785C50.799 39.3207 50.4298 39.7692 49.9225 40.0097C42.9556 43.3084 34.3382 47.0677 31.162 47.0678C31.162 47.0678 31.162 47.0678 31.1619 47.0678V47.0678Z" fill="#163B71" stroke="#163B71" stroke-width="0.3" stroke-linejoin="round"/>
<path d="M34.2584 38.7779C34.2584 38.778 34.2584 38.778 34.2584 38.778H21.131C20.7265 38.778 20.3981 38.4496 20.3981 38.045C20.3981 37.6401 20.7265 37.3117 21.131 37.3117H33.2532C33.8075 37.3117 34.2716 36.8497 34.0977 36.3233C33.6913 35.093 32.5565 34.1983 31.1827 34.1538C28.8398 34.0777 27.0423 33.9486 25.846 33.7756C24.5939 33.5908 23.4297 33.2008 22.1953 32.7903C20.4359 32.201 18.6181 31.594 16.4483 31.594C13.0178 31.594 8.98887 36.1389 8.9508 36.186C8.68399 36.4908 8.2206 36.5203 7.91569 36.2534C7.61078 35.9866 7.58139 35.5232 7.8482 35.2183C8.02987 35.01 12.3609 30.1277 16.4482 30.1277C18.8554 30.1277 20.8757 30.8053 22.6586 31.4006C23.8283 31.7906 24.934 32.1598 26.0569 32.3269C27.1827 32.4913 28.9715 32.6173 31.2292 32.6907C33.7451 32.7727 35.7128 34.8075 35.7128 37.3234C35.7156 38.1238 35.0615 38.7778 34.2584 38.7779C34.2584 38.7779 34.2584 38.7779 34.2584 38.7779V38.7779Z" fill="#163B71" stroke="#163B71" stroke-width="0.3" stroke-linejoin="round"/>
<path d="M7.62889 50.1928C7.62889 50.1928 7.62886 50.1928 7.62883 50.1928C7.53507 50.1928 7.44131 50.1751 7.35305 50.1398C7.17138 50.0664 7.02777 49.926 6.95439 49.747L1.05785 35.807C0.981728 35.6281 0.981728 35.426 1.05196 35.2471C1.12534 35.0654 1.2662 34.9218 1.44473 34.8484L7.00699 32.4938C7.37974 32.3353 7.81056 32.5115 7.96908 32.8839L13.8656 46.8209C14.0241 47.1932 13.848 47.6241 13.4756 47.7826L7.91335 50.1372C7.82548 50.1721 7.72584 50.1929 7.62894 50.1929C7.62891 50.1929 7.62889 50.1929 7.62889 50.1928V50.1928ZM4.53585 35.131C3.6676 35.4983 3.23347 35.682 3.07785 36.0658C2.92222 36.4497 3.10587 36.8838 3.47316 37.7521L7.23972 46.6562C7.60704 47.5246 7.7907 47.9587 8.17457 48.1144C8.55843 48.27 8.99259 48.0863 9.86092 47.719L10.3906 47.4949C11.2589 47.1276 11.6931 46.9439 11.8487 46.5601C12.0043 46.1762 11.8207 45.742 11.4533 44.8737L7.68652 35.9697C7.31918 35.1013 7.13551 34.6672 6.75164 34.5116C6.36776 34.3559 5.93361 34.5396 5.06529 34.907L4.53585 35.131Z" fill="#163B71" stroke="#163B71" stroke-width="0.3" stroke-linejoin="round"/>
<path d="M32.6953 19.0547H30.9922C31.2578 19.4453 31.4297 19.9036 31.5078 20.4297H33.0859L32.6953 21.8516H31.5156C31.401 22.7109 31.0573 23.3698 30.4844 23.8281C29.9115 24.2812 29.1016 24.5521 28.0547 24.6406L31.6953 28.8984V29H29.4531L25.4766 24.3672L25.4688 23.1719H27.4453C28.0286 23.1719 28.4896 23.0521 28.8281 22.8125C29.1719 22.5677 29.401 22.2474 29.5156 21.8516H25.3125L25.7109 20.4297H29.4844C29.2292 19.6224 28.5391 19.2188 27.4141 19.2188H25.3125L25.7344 17.625H33.0938L32.6953 19.0547Z" fill="#EE1C25"/>
</svg>
