<svg width="50" height="45" viewBox="0 0 50 45" fill="none" xmlns="http://www.w3.org/2000/svg">
<path d="M15.8056 38.8369H15.8058C18.4223 38.8306 20.9299 37.7883 22.7798 35.938C24.6301 34.0881 25.6724 31.5805 25.6786 28.964V28.9638C25.6786 28.3622 26.1663 27.8745 26.7675 27.8745C27.3691 27.8745 27.8564 28.3621 27.8564 28.9637C27.8564 32.1596 26.5868 35.2248 24.327 37.4852C22.0667 39.7451 19.0015 41.0146 15.8056 41.0146C15.2039 41.0146 14.7163 40.5273 14.7163 39.9257C14.7163 39.3245 15.2039 38.8369 15.8056 38.8369ZM15.8057 31.9551V31.9547L15.7969 31.9555C14.9545 32.0293 14.1205 31.746 13.4971 31.1748C12.8738 30.6037 12.519 29.797 12.519 28.9516C12.519 28.1063 12.8738 27.2996 13.4971 26.7284C14.1204 26.1573 14.9549 25.8743 15.7973 25.9482L15.7973 25.9484L15.8041 25.9485C16.1995 25.9562 16.5904 26.0343 16.9583 26.1792L17.0193 26.2032L17.0656 26.1569L21.5836 21.6389L21.5839 21.6386C21.7883 21.4324 22.0666 21.3162 22.3572 21.3162C22.6472 21.3162 22.9255 21.4323 23.1303 21.6385C23.5446 22.0619 23.5447 22.739 23.1304 23.1624C23.1302 23.1626 23.1301 23.1627 23.13 23.1628L18.5888 27.7036L18.5421 27.7502L18.5667 27.8115C18.7138 28.1785 18.7922 28.5692 18.7971 28.9642C18.797 29.7573 18.482 30.5178 17.9212 31.0786C17.3602 31.6396 16.599 31.9551 15.8057 31.9551ZM16.4369 28.2955L16.4369 28.2955C16.2777 28.1048 16.0423 27.9946 15.7941 27.9946C15.5459 27.9946 15.3105 28.1047 15.1513 28.2954C14.9939 28.4835 14.9278 28.7313 14.9688 28.9727C14.9712 29.1898 15.0603 29.397 15.2165 29.5485L15.2166 29.5486C15.3745 29.7013 15.587 29.784 15.8073 29.7774C16.2527 29.7765 16.6145 29.4172 16.6193 28.9727C16.6604 28.7312 16.5937 28.4835 16.4369 28.2955ZM38.0226 28.1658L37.9679 28.1298L37.913 28.1657L30.922 32.7313L30.8891 32.7528L30.8796 32.791C29.7297 37.4387 26.5116 41.3021 22.1486 43.2733C17.7851 45.2445 12.759 45.1052 8.5108 42.8958C4.26347 40.6865 1.26388 36.6506 0.373087 31.9468L0.274833 31.9654L0.373085 31.9468C-0.518152 27.2425 0.79789 22.3896 3.94344 18.7795L4.00477 18.7091L3.93876 18.6431L3.08286 17.7872L3.0826 17.7869C2.87666 17.5825 2.76009 17.3041 2.76009 17.0136C2.76009 16.7237 2.87612 16.4455 3.0817 16.2412C3.51327 15.8233 4.19832 15.8232 4.62961 16.2405L5.48449 17.1194L5.55024 17.187L5.62157 17.1254C8.14269 14.9458 11.2996 13.636 14.6234 13.392L14.7161 13.3852V13.2923V11.5564V11.4564H14.6161H13.1183C12.5166 11.4564 12.029 10.9687 12.029 10.3675C12.029 9.76592 12.5167 9.27826 13.1183 9.27826H18.4684C19.07 9.27826 19.5573 9.76588 19.5573 10.3675C19.5573 10.9688 19.07 11.4564 18.4684 11.4564H16.9942H16.8942V11.5564V13.2923V13.3852L16.9868 13.392C20.2583 13.6339 23.369 14.9082 25.8704 17.0305L26.0351 17.1703V16.9543V1.18886C26.0351 0.58726 26.5227 0.1 27.1239 0.1H48.8108C49.0995 0.1 49.3768 0.21473 49.5807 0.418622C49.785 0.623004 49.9 0.900005 49.9 1.18901L49.9 33.9557C49.9 33.9559 49.9 33.956 49.9 33.9562C49.8964 34.3538 49.6805 34.7196 49.334 34.9149C49.1723 34.9991 48.9929 35.0439 48.8108 35.0455C48.6028 35.045 48.3989 34.9844 48.224 34.8715C48.2238 34.8714 48.2236 34.8713 48.2235 34.8712L38.0226 28.1658ZM20.1918 41.6492C24.5473 40.1243 27.8188 36.4792 28.8679 31.9897L28.9131 31.9914V31.8876V31.7792C29.1126 30.8536 29.2158 29.9102 29.2221 28.9635L29.2221 28.9631C29.2367 24.3209 26.8633 19.9973 22.9387 17.5173L22.8853 17.6019L22.9387 17.5173C19.0142 15.0378 14.0907 14.7504 9.9047 16.757C5.71855 18.7636 2.85849 22.7821 2.33337 27.3944C1.80822 32.007 3.69239 36.5649 7.32035 39.4605C10.9483 42.3565 15.8108 43.1833 20.1918 41.6492ZM47.7221 2.37797V2.27797H47.6221H28.3131H28.2131V2.37797V19.4746V19.5084L28.2336 19.5352C30.3045 22.2505 31.4256 25.5716 31.4235 28.9865H31.4234L31.4237 28.9916C31.4351 29.2179 31.4351 29.4447 31.4237 29.6711L31.4137 29.8675L31.5783 29.7598L37.4281 25.9316L37.4296 25.9305C37.783 25.6899 38.2475 25.6899 38.6009 25.9305L38.6022 25.9314L47.5671 31.8286L47.7221 31.9305V31.745V2.37797Z" fill="#163B71" stroke="#E2EAF8" stroke-width="0.2"/>
<path d="M32.7422 10.8125C32.7422 10.1146 32.9688 9.54948 33.4219 9.11719C33.875 8.67969 34.4688 8.46094 35.2031 8.46094C35.9479 8.46094 36.5469 8.67708 37 9.10938C37.4531 9.53646 37.6797 10.1172 37.6797 10.8516V11.4141C37.6797 12.1172 37.4531 12.6823 37 13.1094C36.5469 13.5365 35.9531 13.75 35.2188 13.75C34.4792 13.75 33.8802 13.5365 33.4219 13.1094C32.9688 12.6771 32.7422 12.0964 32.7422 11.3672V10.8125ZM34.2422 11.4141C34.2422 11.7266 34.3307 11.9792 34.5078 12.1719C34.6901 12.3594 34.9271 12.4531 35.2188 12.4531C35.5104 12.4531 35.7422 12.3568 35.9141 12.1641C36.0859 11.9714 36.1719 11.7135 36.1719 11.3906V10.8125C36.1719 10.5 36.0859 10.2474 35.9141 10.0547C35.7422 9.86198 35.5052 9.76562 35.2031 9.76562C34.9167 9.76562 34.6849 9.86198 34.5078 10.0547C34.3307 10.2422 34.2422 10.5052 34.2422 10.8438V11.4141ZM38.1797 17.2109C38.1797 16.5078 38.4089 15.9427 38.8672 15.5156C39.3255 15.0833 39.9193 14.8672 40.6484 14.8672C41.388 14.8672 41.9844 15.0807 42.4375 15.5078C42.8958 15.9297 43.125 16.513 43.125 17.2578V17.8203C43.125 18.5182 42.901 19.0833 42.4531 19.5156C42.0052 19.9427 41.4089 20.1562 40.6641 20.1562C39.9141 20.1562 39.3125 19.9401 38.8594 19.5078C38.4062 19.0755 38.1797 18.5026 38.1797 17.7891V17.2109ZM39.6797 17.8203C39.6797 18.1068 39.7734 18.3516 39.9609 18.5547C40.1484 18.7578 40.3828 18.8594 40.6641 18.8594C41.2995 18.8594 41.6172 18.5078 41.6172 17.8047V17.2109C41.6172 16.8984 41.5286 16.6484 41.3516 16.4609C41.1745 16.2682 40.9401 16.1719 40.6484 16.1719C40.3568 16.1719 40.1224 16.2682 39.9453 16.4609C39.7682 16.6484 39.6797 16.9062 39.6797 17.2344V17.8203ZM35.6641 19.1484L34.5625 18.5547L40.1172 9.66406L41.2188 10.2578L35.6641 19.1484Z" fill="#EE1C25"/>
<path d="M33.4219 9.11719L33.5599 9.2619L33.5608 9.26107L33.4219 9.11719ZM37 9.10938L36.8619 9.25409L36.8628 9.25492L37 9.10938ZM33.4219 13.1094L33.2838 13.2541L33.2855 13.2557L33.4219 13.1094ZM34.5078 12.1719L34.3605 12.3073L34.3644 12.3113L34.5078 12.1719ZM35.9141 12.1641L36.0633 12.2972L35.9141 12.1641ZM34.5078 10.0547L34.6532 10.192L34.6551 10.19L34.5078 10.0547ZM38.8672 15.5156L39.0035 15.6619L39.0044 15.6611L38.8672 15.5156ZM42.4375 15.5078L42.3003 15.6534L42.3021 15.655L42.4375 15.5078ZM42.4531 19.5156L42.5911 19.6604L42.592 19.6595L42.4531 19.5156ZM41.3516 16.4609L41.2043 16.5963L41.2062 16.5983L41.3516 16.4609ZM39.9453 16.4609L40.0907 16.5983L40.0926 16.5963L39.9453 16.4609ZM35.6641 19.1484L35.5692 19.3245L35.7343 19.4135L35.8337 19.2544L35.6641 19.1484ZM34.5625 18.5547L34.3929 18.4487L34.2799 18.6296L34.4676 18.7307L34.5625 18.5547ZM40.1172 9.66406L40.2121 9.48801L40.047 9.39901L39.9476 9.55809L40.1172 9.66406ZM41.2188 10.2578L41.3884 10.3638L41.5014 10.1829L41.3136 10.0818L41.2188 10.2578ZM32.9422 10.8125C32.9422 10.1624 33.1511 9.65194 33.5599 9.2619L33.2838 8.97248C32.7864 9.44702 32.5422 10.0668 32.5422 10.8125H32.9422ZM33.5608 9.26107C33.9705 8.86551 34.5113 8.66094 35.2031 8.66094V8.26094C34.4262 8.26094 33.7795 8.49386 33.283 8.97331L33.5608 9.26107ZM35.2031 8.66094C35.9069 8.66094 36.4529 8.86385 36.8619 9.25408L37.1381 8.96467C36.6408 8.49032 35.989 8.26094 35.2031 8.26094V8.66094ZM36.8628 9.25492C37.2687 9.63743 37.4797 10.1615 37.4797 10.8516H37.8797C37.8797 10.0728 37.6376 9.43549 37.1372 8.96383L36.8628 9.25492ZM37.4797 10.8516V11.4141H37.8797V10.8516H37.4797ZM37.4797 11.4141C37.4797 12.0699 37.2705 12.5796 36.8628 12.9638L37.1372 13.2549C37.6358 12.785 37.8797 12.1644 37.8797 11.4141H37.4797ZM36.8628 12.9638C36.4533 13.3498 35.9119 13.55 35.2188 13.55V13.95C35.9944 13.95 36.6404 13.7231 37.1372 13.2549L36.8628 12.9638ZM35.2188 13.55C34.52 13.55 33.973 13.3495 33.5582 12.9631L33.2855 13.2557C33.7874 13.7234 34.4383 13.95 35.2188 13.95V13.55ZM33.5599 12.9647C33.1529 12.5764 32.9422 12.0515 32.9422 11.3672H32.5422C32.5422 12.1412 32.7846 12.7778 33.2838 13.2541L33.5599 12.9647ZM32.9422 11.3672V10.8125H32.5422V11.3672H32.9422ZM34.0422 11.4141C34.0422 11.7664 34.1432 12.0706 34.3605 12.3072L34.6551 12.0366C34.5183 11.8877 34.4422 11.6867 34.4422 11.4141H34.0422ZM34.3644 12.3113C34.5889 12.5422 34.8799 12.6531 35.2188 12.6531V12.2531C34.9743 12.2531 34.7913 12.1766 34.6512 12.0325L34.3644 12.3113ZM35.2188 12.6531C35.5592 12.6531 35.8484 12.5382 36.0633 12.2972L35.7648 12.0309C35.636 12.1753 35.4616 12.2531 35.2188 12.2531V12.6531ZM36.0633 12.2972C36.2755 12.0593 36.3719 11.7499 36.3719 11.3906H35.9719C35.9719 11.6772 35.8964 11.8834 35.7648 12.0309L36.0633 12.2972ZM36.3719 11.3906V10.8125H35.9719V11.3906H36.3719ZM36.3719 10.8125C36.3719 10.4617 36.2744 10.1583 36.0633 9.92156L35.7648 10.1878C35.8974 10.3365 35.9719 10.5383 35.9719 10.8125H36.3719ZM36.0633 9.92156C35.8469 9.67896 35.5516 9.56562 35.2031 9.56562V9.96563C35.4588 9.96563 35.6374 10.045 35.7648 10.1878L36.0633 9.92156ZM35.2031 9.56562C34.8666 9.56562 34.5793 9.68128 34.3605 9.91936L34.6551 10.19C34.7905 10.0427 34.9667 9.96563 35.2031 9.96563V9.56562ZM34.3624 9.91736C34.1404 10.1524 34.0422 10.4706 34.0422 10.8438H34.4422C34.4422 10.5398 34.5211 10.3319 34.6532 10.192L34.3624 9.91736ZM34.0422 10.8438V11.4141H34.4422V10.8438H34.0422ZM38.3797 17.2109C38.3797 16.5558 38.591 16.0464 39.0035 15.6619L38.7308 15.3693C38.2267 15.839 37.9797 16.4598 37.9797 17.2109H38.3797ZM39.0044 15.6611C39.4198 15.2693 39.9617 15.0672 40.6484 15.0672V14.6672C39.8769 14.6672 39.2312 14.8973 38.73 15.3701L39.0044 15.6611ZM40.6484 15.0672C41.3472 15.0672 41.8911 15.2677 42.3003 15.6534L42.5747 15.3623C42.0776 14.8938 41.4288 14.6672 40.6484 14.6672V15.0672ZM42.3021 15.655C42.7112 16.0316 42.925 16.5571 42.925 17.2578H43.325C43.325 16.469 43.0804 15.8278 42.5729 15.3607L42.3021 15.655ZM42.925 17.2578V17.8203H43.325V17.2578H42.925ZM42.925 17.8203C42.925 18.4712 42.7182 18.9819 42.3142 19.3717L42.592 19.6595C43.0839 19.1848 43.325 18.5653 43.325 17.8203H42.925ZM42.3151 19.3709C41.9117 19.7555 41.3686 19.9563 40.6641 19.9563V20.3562C41.4492 20.3562 42.0987 20.1299 42.5911 19.6604L42.3151 19.3709ZM40.6641 19.9563C39.9547 19.9563 39.4062 19.7531 38.9974 19.3631L38.7213 19.6525C39.2188 20.1271 39.8734 20.3562 40.6641 20.3562V19.9563ZM38.9974 19.3631C38.5895 18.974 38.3797 18.4563 38.3797 17.7891H37.9797C37.9797 18.5489 38.223 19.1771 38.7213 19.6525L38.9974 19.3631ZM38.3797 17.7891V17.2109H37.9797V17.7891H38.3797ZM39.4797 17.8203C39.4797 18.155 39.591 18.4488 39.814 18.6903L40.1079 18.419C39.9558 18.2543 39.8797 18.0585 39.8797 17.8203H39.4797ZM39.814 18.6903C40.0401 18.9353 40.3281 19.0594 40.6641 19.0594V18.6594C40.4375 18.6594 40.2568 18.5803 40.1079 18.419L39.814 18.6903ZM40.6641 19.0594C41.0181 19.0594 41.3188 18.9605 41.5273 18.7298C41.7323 18.5029 41.8172 18.1824 41.8172 17.8047H41.4172C41.4172 18.1301 41.3432 18.3369 41.2305 18.4616C41.1213 18.5825 40.9454 18.6594 40.6641 18.6594V19.0594ZM41.8172 17.8047V17.2109H41.4172V17.8047H41.8172ZM41.8172 17.2109C41.8172 16.8588 41.7162 16.5558 41.497 16.3236L41.2062 16.5983C41.341 16.7411 41.4172 16.9381 41.4172 17.2109H41.8172ZM41.4988 16.3256C41.2793 16.0867 40.989 15.9719 40.6484 15.9719V16.3719C40.8912 16.3719 41.0696 16.4497 41.2043 16.5963L41.4988 16.3256ZM40.6484 15.9719C40.3079 15.9719 40.0176 16.0867 39.798 16.3256L40.0926 16.5963C40.2272 16.4497 40.4056 16.3719 40.6484 16.3719V15.9719ZM39.7999 16.3236C39.5789 16.5576 39.4797 16.8697 39.4797 17.2344H39.8797C39.8797 16.9428 39.9575 16.7393 40.0907 16.5983L39.7999 16.3236ZM39.4797 17.2344V17.8203H39.8797V17.2344H39.4797ZM35.759 18.9724L34.6574 18.3786L34.4676 18.7307L35.5692 19.3245L35.759 18.9724ZM34.7321 18.6607L40.2868 9.77004L39.9476 9.55809L34.3929 18.4487L34.7321 18.6607ZM40.0223 9.84012L41.1239 10.4339L41.3136 10.0818L40.2121 9.48801L40.0223 9.84012ZM41.0491 10.1518L35.4944 19.0425L35.8337 19.2544L41.3884 10.3638L41.0491 10.1518Z" fill="#EE1C25"/>
</svg>
