<svg width="49" height="48" viewBox="0 0 49 48" fill="none" xmlns="http://www.w3.org/2000/svg">
<path d="M4.46291 36.9567C4.46291 26.866 0 19.937 0 15.0706C0 10.2042 2.38634 0 21.4838 0C40.5812 0 43.3842 13.7376 43.3842 19.0862C43.3859 44.1302 4.46291 54.8282 4.46291 36.9567Z" fill="#FF0000" fill-opacity="0.1"/>
<path d="M21.2915 17.6036C21.9832 17.6036 22.544 16.9468 22.544 16.1366C22.544 15.3265 21.9832 14.6697 21.2915 14.6697C20.5998 14.6697 20.0391 15.3265 20.0391 16.1366C20.0391 16.9468 20.5998 17.6036 21.2915 17.6036Z" fill="#003366"/>
<path d="M37.3957 44.8363H5.52488C5.16669 44.8363 4.82317 45.003 4.56989 45.2996C4.31661 45.5963 4.17432 45.9986 4.17432 46.4182C4.17432 46.8377 4.31661 47.2401 4.56989 47.5367C4.82317 47.8334 5.16669 48 5.52488 48H37.3957C37.7539 48 38.0974 47.8334 38.3507 47.5367C38.6039 47.2401 38.7462 46.8377 38.7462 46.4182C38.7462 45.9986 38.6039 45.5963 38.3507 45.2996C38.0974 45.003 37.7539 44.8363 37.3957 44.8363Z" fill="#003366"/>
<path d="M38.7423 17.7102C38.7423 17.4041 38.6665 17.1047 38.5241 16.8481C38.3816 16.5915 38.1787 16.3889 37.9399 16.2647L21.9744 7.95975C21.8016 7.86967 21.6146 7.82312 21.4254 7.82312C21.2363 7.82312 21.0493 7.86967 20.8765 7.95975L4.9753 16.2657C4.73692 16.3901 4.53443 16.5927 4.39232 16.8491C4.25021 17.1054 4.17457 17.4045 4.17456 17.7102V21.9018C4.17456 21.9155 4.17456 21.9282 4.17456 21.9409C4.17456 21.9536 4.17456 21.9673 4.17456 21.98C4.17456 22.3994 4.31681 22.8016 4.57001 23.0982C4.82321 23.3948 5.16663 23.5614 5.52471 23.5614C5.69124 23.5687 5.85465 23.6165 6.00458 23.7017C6.1545 23.7869 6.28767 23.9077 6.39562 24.0564C6.50358 24.2051 6.58396 24.3785 6.63168 24.5655C6.67939 24.7525 6.69339 24.9491 6.67279 25.1428V39.8946C6.67279 39.9278 6.67279 39.9601 6.67696 39.9924C6.68114 40.0246 6.67279 40.0579 6.67279 40.0902C6.67279 40.5096 6.81504 40.9118 7.06824 41.2084C7.32144 41.5049 7.66485 41.6715 8.02294 41.6715H35.0325C35.3907 41.6715 35.7342 41.5049 35.9875 41.2082C36.2408 40.9116 36.3831 40.5092 36.3831 40.0897C36.3831 39.6701 36.2408 39.2678 35.9875 38.9711C35.7342 38.6745 35.3907 38.5078 35.0325 38.5078H30.9771V25.1438C30.9771 24.7242 31.1194 24.3219 31.3727 24.0252C31.6259 23.7285 31.9695 23.5619 32.3276 23.5619C32.6858 23.5619 33.0294 23.7285 33.2826 24.0252C33.5359 24.3219 33.6782 24.7242 33.6782 25.1438V32.1441C33.6782 32.5636 33.8205 32.966 34.0738 33.2627C34.3271 33.5593 34.6706 33.726 35.0288 33.726C35.387 33.726 35.7305 33.5593 35.9838 33.2627C36.237 32.966 36.3793 32.5636 36.3793 32.1441V25.1438C36.3793 24.7731 36.4528 23.5624 37.3922 23.5624C37.7502 23.5624 38.0937 23.3958 38.3469 23.0992C38.6001 22.8026 38.7423 22.4004 38.7423 21.981C38.7423 21.9673 38.7423 21.9546 38.7423 21.9419C38.7423 21.9292 38.7423 21.9155 38.7423 21.9027V17.7102ZM12.075 38.5097H9.37392V25.1438C9.37392 24.7242 9.51621 24.3219 9.76949 24.0252C10.0228 23.7285 10.3663 23.5619 10.7245 23.5619C11.0827 23.5619 11.4262 23.7285 11.6795 24.0252C11.9328 24.3219 12.075 24.7242 12.075 25.1438V38.5097ZM17.4765 38.5097H14.7787V25.1438C14.7787 24.7242 14.921 24.3219 15.1742 24.0252C15.4275 23.7285 15.771 23.5619 16.1292 23.5619C16.4874 23.5619 16.831 23.7285 17.0842 24.0252C17.3375 24.3219 17.4798 24.7242 17.4798 25.1438L17.4765 38.5097ZM22.8779 38.5097H20.1776V25.1438C20.1776 24.7242 20.3199 24.3219 20.5732 24.0252C20.8264 23.7285 21.17 23.5619 21.5282 23.5619C21.8863 23.5619 22.2299 23.7285 22.4831 24.0252C22.7364 24.3219 22.8787 24.7242 22.8787 25.1438L22.8779 38.5097ZM28.2793 38.5097H25.579V25.1438C25.579 24.7242 25.7213 24.3219 25.9746 24.0252C26.2279 23.7285 26.5714 23.5619 26.9296 23.5619C27.2878 23.5619 27.6313 23.7285 27.8846 24.0252C28.1378 24.3219 28.2801 24.7242 28.2801 25.1438L28.2793 38.5097ZM36.0445 20.3194H6.87569V18.737L21.4275 11.1372L36.0453 18.738L36.0445 20.3194Z" fill="#003366"/>
<path d="M36.4397 4.91526C36.0701 4.91526 35.7088 4.78689 35.4015 4.5464C35.0942 4.3059 34.8547 3.96407 34.7133 3.56413C34.5719 3.1642 34.5348 2.72412 34.607 2.29956C34.6791 1.87499 34.857 1.485 35.1184 1.1789C35.3797 0.872804 35.7127 0.66435 36.0751 0.579898C36.4376 0.495446 36.8134 0.53879 37.1548 0.704448C37.4963 0.870107 37.7881 1.15064 37.9934 1.51057C38.1988 1.8705 38.3084 2.29367 38.3084 2.72655C38.3079 3.30687 38.1109 3.86328 37.7606 4.27363C37.4102 4.68398 36.9352 4.91474 36.4397 4.91526ZM36.4397 1.99796C36.3165 1.99796 36.1961 2.04075 36.0937 2.12091C35.9912 2.20108 35.9114 2.31502 35.8642 2.44834C35.8171 2.58165 35.8048 2.72834 35.8288 2.86986C35.8528 3.01138 35.9121 3.14138 35.9993 3.24341C36.0864 3.34545 36.1974 3.41493 36.3182 3.44308C36.439 3.47123 36.5643 3.45678 36.6781 3.40156C36.7919 3.34634 36.8892 3.25283 36.9576 3.13286C37.0261 3.01288 37.0626 2.87182 37.0626 2.72753C37.0624 2.53411 36.9967 2.3487 36.8799 2.21193C36.7631 2.07517 36.6048 1.99822 36.4397 1.99796Z" fill="#A4AFC1"/>
<path d="M47.9624 13.2046C46.7044 13.2735 45.4478 13.0391 44.2704 12.5159C43.0929 11.9927 42.0197 11.1919 41.1173 10.1631C40.2147 11.1922 39.1413 11.9932 37.9635 12.5164C36.7858 13.0395 35.5288 13.2738 34.2706 13.2046C34.2706 18.6539 33.3079 26.4591 41.1173 29.6297C48.9251 26.4591 47.9624 18.6539 47.9624 13.2046ZM40.5495 22.7887L38.2692 20.1169L39.2904 18.9257L40.5495 20.4015L42.9401 17.5957L43.9612 18.7918L40.5495 22.7887Z" fill="#00A22C" stroke="white"/>
</svg>
