<svg width="48" height="51" viewBox="0 0 48 51" fill="none" xmlns="http://www.w3.org/2000/svg">
<path d="M36.229 4.77077C26.2407 4.9571 19.2828 -0.0897839 14.4699 0.00121611C9.65699 0.0922161 -0.402125 3.049 0.012431 25.1923C0.426986 47.3357 14.0871 50.3314 19.3824 50.2332C44.1734 49.7696 53.9205 4.43999 36.229 4.77077Z" fill="#EFEFEF"/>
<path d="M33.9716 37.8323V32.8643" stroke="#1B457B" stroke-width="2" stroke-miterlimit="10"/>
<mask id="path-3-outside-1_474_689" maskUnits="userSpaceOnUse" x="3.62671" y="4.04932" width="33" height="42" fill="black">
<rect fill="white" x="3.62671" y="4.04932" width="33" height="42"/>
<path d="M33.9715 15.7221V6.04932H5.62671V40.0187C5.62671 41.7367 7.01946 43.1333 8.73744 43.1333H8.74127C17.1514 43.1333 25.5614 43.1333 33.9715 43.1333"/>
</mask>
<path d="M33.9715 6.04932H35.9715V4.04932H33.9715V6.04932ZM5.62671 6.04932V4.04932H3.62671V6.04932H5.62671ZM35.9715 15.7221V6.04932H31.9715V15.7221H35.9715ZM33.9715 4.04932H5.62671V8.04932H33.9715V4.04932ZM3.62671 6.04932V40.0187H7.62671V6.04932H3.62671ZM3.62671 40.0187C3.62671 42.838 5.91169 45.1333 8.73744 45.1333V41.1333C8.12723 41.1333 7.62671 40.6353 7.62671 40.0187H3.62671ZM8.73744 45.1333H8.74127V41.1333H8.73744V45.1333ZM8.74127 45.1333C8.7577 45.1333 8.77412 45.1333 8.79055 45.1333C8.80697 45.1333 8.8234 45.1333 8.83983 45.1333C8.85625 45.1333 8.87268 45.1333 8.8891 45.1333C8.90553 45.1333 8.92196 45.1333 8.93838 45.1333C8.95481 45.1333 8.97123 45.1333 8.98766 45.1333C9.00409 45.1333 9.02051 45.1333 9.03694 45.1333C9.05336 45.1333 9.06979 45.1333 9.08622 45.1333C9.10264 45.1333 9.11907 45.1333 9.13549 45.1333C9.15192 45.1333 9.16835 45.1333 9.18477 45.1333C9.2012 45.1333 9.21762 45.1333 9.23405 45.1333C9.25047 45.1333 9.2669 45.1333 9.28333 45.1333C9.29975 45.1333 9.31618 45.1333 9.3326 45.1333C9.34903 45.1333 9.36546 45.1333 9.38188 45.1333C9.39831 45.1333 9.41473 45.1333 9.43116 45.1333C9.44759 45.1333 9.46401 45.1333 9.48044 45.1333C9.49686 45.1333 9.51329 45.1333 9.52972 45.1333C9.54614 45.1333 9.56257 45.1333 9.57899 45.1333C9.59542 45.1333 9.61185 45.1333 9.62827 45.1333C9.6447 45.1333 9.66112 45.1333 9.67755 45.1333C9.69398 45.1333 9.7104 45.1333 9.72683 45.1333C9.74325 45.1333 9.75968 45.1333 9.7761 45.1333C9.79253 45.1333 9.80896 45.1333 9.82538 45.1333C9.84181 45.1333 9.85823 45.1333 9.87466 45.1333C9.89109 45.1333 9.90751 45.1333 9.92394 45.1333C9.94036 45.1333 9.95679 45.1333 9.97322 45.1333C9.98964 45.1333 10.0061 45.1333 10.0225 45.1333C10.0389 45.1333 10.0553 45.1333 10.0718 45.1333C10.0882 45.1333 10.1046 45.1333 10.121 45.1333C10.1375 45.1333 10.1539 45.1333 10.1703 45.1333C10.1868 45.1333 10.2032 45.1333 10.2196 45.1333C10.236 45.1333 10.2525 45.1333 10.2689 45.1333C10.2853 45.1333 10.3017 45.1333 10.3182 45.1333C10.3346 45.1333 10.351 45.1333 10.3674 45.1333C10.3839 45.1333 10.4003 45.1333 10.4167 45.1333C10.4331 45.1333 10.4496 45.1333 10.466 45.1333C10.4824 45.1333 10.4988 45.1333 10.5153 45.1333C10.5317 45.1333 10.5481 45.1333 10.5646 45.1333C10.581 45.1333 10.5974 45.1333 10.6138 45.1333C10.6303 45.1333 10.6467 45.1333 10.6631 45.1333C10.6795 45.1333 10.696 45.1333 10.7124 45.1333C10.7288 45.1333 10.7452 45.1333 10.7617 45.1333C10.7781 45.1333 10.7945 45.1333 10.8109 45.1333C10.8274 45.1333 10.8438 45.1333 10.8602 45.1333C10.8766 45.1333 10.8931 45.1333 10.9095 45.1333C10.9259 45.1333 10.9423 45.1333 10.9588 45.1333C10.9752 45.1333 10.9916 45.1333 11.0081 45.1333C11.0245 45.1333 11.0409 45.1333 11.0573 45.1333C11.0738 45.1333 11.0902 45.1333 11.1066 45.1333C11.123 45.1333 11.1395 45.1333 11.1559 45.1333C11.1723 45.1333 11.1887 45.1333 11.2052 45.1333C11.2216 45.1333 11.238 45.1333 11.2544 45.1333C11.2709 45.1333 11.2873 45.1333 11.3037 45.1333C11.3201 45.1333 11.3366 45.1333 11.353 45.1333C11.3694 45.1333 11.3858 45.1333 11.4023 45.1333C11.4187 45.1333 11.4351 45.1333 11.4516 45.1333C11.468 45.1333 11.4844 45.1333 11.5008 45.1333C11.5173 45.1333 11.5337 45.1333 11.5501 45.1333C11.5665 45.1333 11.583 45.1333 11.5994 45.1333C11.6158 45.1333 11.6322 45.1333 11.6487 45.1333C11.6651 45.1333 11.6815 45.1333 11.6979 45.1333C11.7144 45.1333 11.7308 45.1333 11.7472 45.1333C11.7636 45.1333 11.7801 45.1333 11.7965 45.1333C11.8129 45.1333 11.8293 45.1333 11.8458 45.1333C11.8622 45.1333 11.8786 45.1333 11.8951 45.1333C11.9115 45.1333 11.9279 45.1333 11.9443 45.1333C11.9608 45.1333 11.9772 45.1333 11.9936 45.1333C12.01 45.1333 12.0265 45.1333 12.0429 45.1333C12.0593 45.1333 12.0757 45.1333 12.0922 45.1333C12.1086 45.1333 12.125 45.1333 12.1414 45.1333C12.1579 45.1333 12.1743 45.1333 12.1907 45.1333C12.2071 45.1333 12.2236 45.1333 12.24 45.1333C12.2564 45.1333 12.2728 45.1333 12.2893 45.1333C12.3057 45.1333 12.3221 45.1333 12.3386 45.1333C12.355 45.1333 12.3714 45.1333 12.3878 45.1333C12.4043 45.1333 12.4207 45.1333 12.4371 45.1333C12.4535 45.1333 12.47 45.1333 12.4864 45.1333C12.5028 45.1333 12.5192 45.1333 12.5357 45.1333C12.5521 45.1333 12.5685 45.1333 12.5849 45.1333C12.6014 45.1333 12.6178 45.1333 12.6342 45.1333C12.6506 45.1333 12.6671 45.1333 12.6835 45.1333C12.6999 45.1333 12.7163 45.1333 12.7328 45.1333C12.7492 45.1333 12.7656 45.1333 12.7821 45.1333C12.7985 45.1333 12.8149 45.1333 12.8313 45.1333C12.8478 45.1333 12.8642 45.1333 12.8806 45.1333C12.897 45.1333 12.9135 45.1333 12.9299 45.1333C12.9463 45.1333 12.9627 45.1333 12.9792 45.1333C12.9956 45.1333 13.012 45.1333 13.0284 45.1333C13.0449 45.1333 13.0613 45.1333 13.0777 45.1333C13.0941 45.1333 13.1106 45.1333 13.127 45.1333C13.1434 45.1333 13.1598 45.1333 13.1763 45.1333C13.1927 45.1333 13.2091 45.1333 13.2256 45.1333C13.242 45.1333 13.2584 45.1333 13.2748 45.1333C13.2913 45.1333 13.3077 45.1333 13.3241 45.1333C13.3405 45.1333 13.357 45.1333 13.3734 45.1333C13.3898 45.1333 13.4062 45.1333 13.4227 45.1333C13.4391 45.1333 13.4555 45.1333 13.4719 45.1333C13.4884 45.1333 13.5048 45.1333 13.5212 45.1333C13.5376 45.1333 13.5541 45.1333 13.5705 45.1333C13.5869 45.1333 13.6033 45.1333 13.6198 45.1333C13.6362 45.1333 13.6526 45.1333 13.6691 45.1333C13.6855 45.1333 13.7019 45.1333 13.7183 45.1333C13.7348 45.1333 13.7512 45.1333 13.7676 45.1333C13.784 45.1333 13.8005 45.1333 13.8169 45.1333C13.8333 45.1333 13.8497 45.1333 13.8662 45.1333C13.8826 45.1333 13.899 45.1333 13.9154 45.1333C13.9319 45.1333 13.9483 45.1333 13.9647 45.1333C13.9811 45.1333 13.9976 45.1333 14.014 45.1333C14.0304 45.1333 14.0469 45.1333 14.0633 45.1333C14.0797 45.1333 14.0961 45.1333 14.1126 45.1333C14.129 45.1333 14.1454 45.1333 14.1618 45.1333C14.1783 45.1333 14.1947 45.1333 14.2111 45.1333C14.2275 45.1333 14.244 45.1333 14.2604 45.1333C14.2768 45.1333 14.2932 45.1333 14.3097 45.1333C14.3261 45.1333 14.3425 45.1333 14.3589 45.1333C14.3754 45.1333 14.3918 45.1333 14.4082 45.1333C14.4246 45.1333 14.4411 45.1333 14.4575 45.1333C14.4739 45.1333 14.4903 45.1333 14.5068 45.1333C14.5232 45.1333 14.5396 45.1333 14.5561 45.1333C14.5725 45.1333 14.5889 45.1333 14.6053 45.1333C14.6218 45.1333 14.6382 45.1333 14.6546 45.1333C14.671 45.1333 14.6875 45.1333 14.7039 45.1333C14.7203 45.1333 14.7367 45.1333 14.7532 45.1333C14.7696 45.1333 14.786 45.1333 14.8024 45.1333C14.8189 45.1333 14.8353 45.1333 14.8517 45.1333C14.8681 45.1333 14.8846 45.1333 14.901 45.1333C14.9174 45.1333 14.9339 45.1333 14.9503 45.1333C14.9667 45.1333 14.9831 45.1333 14.9996 45.1333C15.016 45.1333 15.0324 45.1333 15.0488 45.1333C15.0653 45.1333 15.0817 45.1333 15.0981 45.1333C15.1145 45.1333 15.131 45.1333 15.1474 45.1333C15.1638 45.1333 15.1802 45.1333 15.1967 45.1333C15.2131 45.1333 15.2295 45.1333 15.2459 45.1333C15.2624 45.1333 15.2788 45.1333 15.2952 45.1333C15.3116 45.1333 15.3281 45.1333 15.3445 45.1333C15.3609 45.1333 15.3774 45.1333 15.3938 45.1333C15.4102 45.1333 15.4266 45.1333 15.4431 45.1333C15.4595 45.1333 15.4759 45.1333 15.4923 45.1333C15.5088 45.1333 15.5252 45.1333 15.5416 45.1333C15.558 45.1333 15.5745 45.1333 15.5909 45.1333C15.6073 45.1333 15.6237 45.1333 15.6402 45.1333C15.6566 45.1333 15.673 45.1333 15.6894 45.1333C15.7059 45.1333 15.7223 45.1333 15.7387 45.1333C15.7551 45.1333 15.7716 45.1333 15.788 45.1333C15.8044 45.1333 15.8209 45.1333 15.8373 45.1333C15.8537 45.1333 15.8701 45.1333 15.8866 45.1333C15.903 45.1333 15.9194 45.1333 15.9358 45.1333C15.9523 45.1333 15.9687 45.1333 15.9851 45.1333C16.0015 45.1333 16.018 45.1333 16.0344 45.1333C16.0508 45.1333 16.0672 45.1333 16.0837 45.1333C16.1001 45.1333 16.1165 45.1333 16.1329 45.1333C16.1494 45.1333 16.1658 45.1333 16.1822 45.1333C16.1986 45.1333 16.2151 45.1333 16.2315 45.1333C16.2479 45.1333 16.2644 45.1333 16.2808 45.1333C16.2972 45.1333 16.3136 45.1333 16.3301 45.1333C16.3465 45.1333 16.3629 45.1333 16.3793 45.1333C16.3958 45.1333 16.4122 45.1333 16.4286 45.1333C16.445 45.1333 16.4615 45.1333 16.4779 45.1333C16.4943 45.1333 16.5107 45.1333 16.5272 45.1333C16.5436 45.1333 16.56 45.1333 16.5764 45.1333C16.5929 45.1333 16.6093 45.1333 16.6257 45.1333C16.6421 45.1333 16.6586 45.1333 16.675 45.1333C16.6914 45.1333 16.7079 45.1333 16.7243 45.1333C16.7407 45.1333 16.7571 45.1333 16.7736 45.1333C16.79 45.1333 16.8064 45.1333 16.8228 45.1333C16.8393 45.1333 16.8557 45.1333 16.8721 45.1333C16.8885 45.1333 16.905 45.1333 16.9214 45.1333C16.9378 45.1333 16.9542 45.1333 16.9707 45.1333C16.9871 45.1333 17.0035 45.1333 17.0199 45.1333C17.0364 45.1333 17.0528 45.1333 17.0692 45.1333C17.0856 45.1333 17.1021 45.1333 17.1185 45.1333C17.1349 45.1333 17.1514 45.1333 17.1678 45.1333C17.1842 45.1333 17.2006 45.1333 17.2171 45.1333C17.2335 45.1333 17.2499 45.1333 17.2663 45.1333C17.2828 45.1333 17.2992 45.1333 17.3156 45.1333C17.332 45.1333 17.3485 45.1333 17.3649 45.1333C17.3813 45.1333 17.3977 45.1333 17.4142 45.1333C17.4306 45.1333 17.447 45.1333 17.4634 45.1333C17.4799 45.1333 17.4963 45.1333 17.5127 45.1333C17.5291 45.1333 17.5456 45.1333 17.562 45.1333C17.5784 45.1333 17.5949 45.1333 17.6113 45.1333C17.6277 45.1333 17.6441 45.1333 17.6606 45.1333C17.677 45.1333 17.6934 45.1333 17.7098 45.1333C17.7263 45.1333 17.7427 45.1333 17.7591 45.1333C17.7755 45.1333 17.792 45.1333 17.8084 45.1333C17.8248 45.1333 17.8412 45.1333 17.8577 45.1333C17.8741 45.1333 17.8905 45.1333 17.9069 45.1333C17.9234 45.1333 17.9398 45.1333 17.9562 45.1333C17.9726 45.1333 17.9891 45.1333 18.0055 45.1333C18.0219 45.1333 18.0384 45.1333 18.0548 45.1333C18.0712 45.1333 18.0876 45.1333 18.1041 45.1333C18.1205 45.1333 18.1369 45.1333 18.1533 45.1333C18.1698 45.1333 18.1862 45.1333 18.2026 45.1333C18.219 45.1333 18.2355 45.1333 18.2519 45.1333C18.2683 45.1333 18.2847 45.1333 18.3012 45.1333C18.3176 45.1333 18.334 45.1333 18.3504 45.1333C18.3669 45.1333 18.3833 45.1333 18.3997 45.1333C18.4162 45.1333 18.4326 45.1333 18.449 45.1333C18.4654 45.1333 18.4819 45.1333 18.4983 45.1333C18.5147 45.1333 18.5311 45.1333 18.5476 45.1333C18.564 45.1333 18.5804 45.1333 18.5968 45.1333C18.6133 45.1333 18.6297 45.1333 18.6461 45.1333C18.6625 45.1333 18.679 45.1333 18.6954 45.1333C18.7118 45.1333 18.7282 45.1333 18.7447 45.1333C18.7611 45.1333 18.7775 45.1333 18.7939 45.1333C18.8104 45.1333 18.8268 45.1333 18.8432 45.1333C18.8597 45.1333 18.8761 45.1333 18.8925 45.1333C18.9089 45.1333 18.9254 45.1333 18.9418 45.1333C18.9582 45.1333 18.9746 45.1333 18.9911 45.1333C19.0075 45.1333 19.0239 45.1333 19.0403 45.1333C19.0568 45.1333 19.0732 45.1333 19.0896 45.1333C19.106 45.1333 19.1225 45.1333 19.1389 45.1333C19.1553 45.1333 19.1717 45.1333 19.1882 45.1333C19.2046 45.1333 19.221 45.1333 19.2374 45.1333C19.2539 45.1333 19.2703 45.1333 19.2867 45.1333C19.3032 45.1333 19.3196 45.1333 19.336 45.1333C19.3524 45.1333 19.3689 45.1333 19.3853 45.1333C19.4017 45.1333 19.4181 45.1333 19.4346 45.1333C19.451 45.1333 19.4674 45.1333 19.4838 45.1333C19.5003 45.1333 19.5167 45.1333 19.5331 45.1333C19.5495 45.1333 19.566 45.1333 19.5824 45.1333C19.5988 45.1333 19.6152 45.1333 19.6317 45.1333C19.6481 45.1333 19.6645 45.1333 19.6809 45.1333C19.6974 45.1333 19.7138 45.1333 19.7302 45.1333C19.7467 45.1333 19.7631 45.1333 19.7795 45.1333C19.7959 45.1333 19.8124 45.1333 19.8288 45.1333C19.8452 45.1333 19.8616 45.1333 19.8781 45.1333C19.8945 45.1333 19.9109 45.1333 19.9273 45.1333C19.9438 45.1333 19.9602 45.1333 19.9766 45.1333C19.993 45.1333 20.0095 45.1333 20.0259 45.1333C20.0423 45.1333 20.0587 45.1333 20.0752 45.1333C20.0916 45.1333 20.108 45.1333 20.1244 45.1333C20.1409 45.1333 20.1573 45.1333 20.1737 45.1333C20.1902 45.1333 20.2066 45.1333 20.223 45.1333C20.2394 45.1333 20.2559 45.1333 20.2723 45.1333C20.2887 45.1333 20.3051 45.1333 20.3216 45.1333C20.338 45.1333 20.3544 45.1333 20.3708 45.1333C20.3873 45.1333 20.4037 45.1333 20.4201 45.1333C20.4365 45.1333 20.453 45.1333 20.4694 45.1333C20.4858 45.1333 20.5022 45.1333 20.5187 45.1333C20.5351 45.1333 20.5515 45.1333 20.5679 45.1333C20.5844 45.1333 20.6008 45.1333 20.6172 45.1333C20.6337 45.1333 20.6501 45.1333 20.6665 45.1333C20.6829 45.1333 20.6994 45.1333 20.7158 45.1333C20.7322 45.1333 20.7486 45.1333 20.7651 45.1333C20.7815 45.1333 20.7979 45.1333 20.8143 45.1333C20.8308 45.1333 20.8472 45.1333 20.8636 45.1333C20.88 45.1333 20.8965 45.1333 20.9129 45.1333C20.9293 45.1333 20.9457 45.1333 20.9622 45.1333C20.9786 45.1333 20.995 45.1333 21.0114 45.1333C21.0279 45.1333 21.0443 45.1333 21.0607 45.1333C21.0772 45.1333 21.0936 45.1333 21.11 45.1333C21.1264 45.1333 21.1429 45.1333 21.1593 45.1333C21.1757 45.1333 21.1921 45.1333 21.2086 45.1333C21.225 45.1333 21.2414 45.1333 21.2578 45.1333C21.2743 45.1333 21.2907 45.1333 21.3071 45.1333C21.3235 45.1333 21.34 45.1333 21.3564 45.1333C21.3728 45.1333 21.3892 45.1333 21.4057 45.1333C21.4221 45.1333 21.4385 45.1333 21.4549 45.1333C21.4714 45.1333 21.4878 45.1333 21.5042 45.1333C21.5207 45.1333 21.5371 45.1333 21.5535 45.1333C21.5699 45.1333 21.5864 45.1333 21.6028 45.1333C21.6192 45.1333 21.6356 45.1333 21.6521 45.1333C21.6685 45.1333 21.6849 45.1333 21.7013 45.1333C21.7178 45.1333 21.7342 45.1333 21.7506 45.1333C21.767 45.1333 21.7835 45.1333 21.7999 45.1333C21.8163 45.1333 21.8327 45.1333 21.8492 45.1333C21.8656 45.1333 21.882 45.1333 21.8984 45.1333C21.9149 45.1333 21.9313 45.1333 21.9477 45.1333C21.9642 45.1333 21.9806 45.1333 21.997 45.1333C22.0134 45.1333 22.0299 45.1333 22.0463 45.1333C22.0627 45.1333 22.0791 45.1333 22.0956 45.1333C22.112 45.1333 22.1284 45.1333 22.1448 45.1333C22.1613 45.1333 22.1777 45.1333 22.1941 45.1333C22.2105 45.1333 22.227 45.1333 22.2434 45.1333C22.2598 45.1333 22.2762 45.1333 22.2927 45.1333C22.3091 45.1333 22.3255 45.1333 22.3419 45.1333C22.3584 45.1333 22.3748 45.1333 22.3912 45.1333C22.4077 45.1333 22.4241 45.1333 22.4405 45.1333C22.4569 45.1333 22.4734 45.1333 22.4898 45.1333C22.5062 45.1333 22.5226 45.1333 22.5391 45.1333C22.5555 45.1333 22.5719 45.1333 22.5883 45.1333C22.6048 45.1333 22.6212 45.1333 22.6376 45.1333C22.654 45.1333 22.6705 45.1333 22.6869 45.1333C22.7033 45.1333 22.7197 45.1333 22.7362 45.1333C22.7526 45.1333 22.769 45.1333 22.7854 45.1333C22.8019 45.1333 22.8183 45.1333 22.8347 45.1333C22.8512 45.1333 22.8676 45.1333 22.884 45.1333C22.9004 45.1333 22.9169 45.1333 22.9333 45.1333C22.9497 45.1333 22.9661 45.1333 22.9826 45.1333C22.999 45.1333 23.0154 45.1333 23.0318 45.1333C23.0483 45.1333 23.0647 45.1333 23.0811 45.1333C23.0975 45.1333 23.114 45.1333 23.1304 45.1333C23.1468 45.1333 23.1632 45.1333 23.1797 45.1333C23.1961 45.1333 23.2125 45.1333 23.229 45.1333C23.2454 45.1333 23.2618 45.1333 23.2782 45.1333C23.2947 45.1333 23.3111 45.1333 23.3275 45.1333C23.3439 45.1333 23.3604 45.1333 23.3768 45.1333C23.3932 45.1333 23.4096 45.1333 23.4261 45.1333C23.4425 45.1333 23.4589 45.1333 23.4753 45.1333C23.4918 45.1333 23.5082 45.1333 23.5246 45.1333C23.541 45.1333 23.5575 45.1333 23.5739 45.1333C23.5903 45.1333 23.6067 45.1333 23.6232 45.1333C23.6396 45.1333 23.656 45.1333 23.6725 45.1333C23.6889 45.1333 23.7053 45.1333 23.7217 45.1333C23.7382 45.1333 23.7546 45.1333 23.771 45.1333C23.7874 45.1333 23.8039 45.1333 23.8203 45.1333C23.8367 45.1333 23.8531 45.1333 23.8696 45.1333C23.886 45.1333 23.9024 45.1333 23.9188 45.1333C23.9353 45.1333 23.9517 45.1333 23.9681 45.1333C23.9845 45.1333 24.001 45.1333 24.0174 45.1333C24.0338 45.1333 24.0502 45.1333 24.0667 45.1333C24.0831 45.1333 24.0995 45.1333 24.116 45.1333C24.1324 45.1333 24.1488 45.1333 24.1652 45.1333C24.1817 45.1333 24.1981 45.1333 24.2145 45.1333C24.2309 45.1333 24.2474 45.1333 24.2638 45.1333C24.2802 45.1333 24.2966 45.1333 24.3131 45.1333C24.3295 45.1333 24.3459 45.1333 24.3623 45.1333C24.3788 45.1333 24.3952 45.1333 24.4116 45.1333C24.428 45.1333 24.4445 45.1333 24.4609 45.1333C24.4773 45.1333 24.4937 45.1333 24.5102 45.1333C24.5266 45.1333 24.543 45.1333 24.5595 45.1333C24.5759 45.1333 24.5923 45.1333 24.6087 45.1333C24.6252 45.1333 24.6416 45.1333 24.658 45.1333C24.6744 45.1333 24.6909 45.1333 24.7073 45.1333C24.7237 45.1333 24.7401 45.1333 24.7566 45.1333C24.773 45.1333 24.7894 45.1333 24.8058 45.1333C24.8223 45.1333 24.8387 45.1333 24.8551 45.1333C24.8715 45.1333 24.888 45.1333 24.9044 45.1333C24.9208 45.1333 24.9372 45.1333 24.9537 45.1333C24.9701 45.1333 24.9865 45.1333 25.003 45.1333C25.0194 45.1333 25.0358 45.1333 25.0522 45.1333C25.0687 45.1333 25.0851 45.1333 25.1015 45.1333C25.1179 45.1333 25.1344 45.1333 25.1508 45.1333C25.1672 45.1333 25.1836 45.1333 25.2001 45.1333C25.2165 45.1333 25.2329 45.1333 25.2493 45.1333C25.2658 45.1333 25.2822 45.1333 25.2986 45.1333C25.315 45.1333 25.3315 45.1333 25.3479 45.1333C25.3643 45.1333 25.3807 45.1333 25.3972 45.1333C25.4136 45.1333 25.43 45.1333 25.4465 45.1333C25.4629 45.1333 25.4793 45.1333 25.4957 45.1333C25.5122 45.1333 25.5286 45.1333 25.545 45.1333C25.5614 45.1333 25.5779 45.1333 25.5943 45.1333C25.6107 45.1333 25.6271 45.1333 25.6436 45.1333C25.66 45.1333 25.6764 45.1333 25.6928 45.1333C25.7093 45.1333 25.7257 45.1333 25.7421 45.1333C25.7585 45.1333 25.775 45.1333 25.7914 45.1333C25.8078 45.1333 25.8242 45.1333 25.8407 45.1333C25.8571 45.1333 25.8735 45.1333 25.89 45.1333C25.9064 45.1333 25.9228 45.1333 25.9392 45.1333C25.9557 45.1333 25.9721 45.1333 25.9885 45.1333C26.0049 45.1333 26.0214 45.1333 26.0378 45.1333C26.0542 45.1333 26.0706 45.1333 26.0871 45.1333C26.1035 45.1333 26.1199 45.1333 26.1363 45.1333C26.1528 45.1333 26.1692 45.1333 26.1856 45.1333C26.202 45.1333 26.2185 45.1333 26.2349 45.1333C26.2513 45.1333 26.2677 45.1333 26.2842 45.1333C26.3006 45.1333 26.317 45.1333 26.3335 45.1333C26.3499 45.1333 26.3663 45.1333 26.3827 45.1333C26.3992 45.1333 26.4156 45.1333 26.432 45.1333C26.4484 45.1333 26.4649 45.1333 26.4813 45.1333C26.4977 45.1333 26.5141 45.1333 26.5306 45.1333C26.547 45.1333 26.5634 45.1333 26.5798 45.1333C26.5963 45.1333 26.6127 45.1333 26.6291 45.1333C26.6455 45.1333 26.662 45.1333 26.6784 45.1333C26.6948 45.1333 26.7113 45.1333 26.7277 45.1333C26.7441 45.1333 26.7605 45.1333 26.777 45.1333C26.7934 45.1333 26.8098 45.1333 26.8262 45.1333C26.8427 45.1333 26.8591 45.1333 26.8755 45.1333C26.8919 45.1333 26.9084 45.1333 26.9248 45.1333C26.9412 45.1333 26.9576 45.1333 26.9741 45.1333C26.9905 45.1333 27.0069 45.1333 27.0233 45.1333C27.0398 45.1333 27.0562 45.1333 27.0726 45.1333C27.089 45.1333 27.1055 45.1333 27.1219 45.1333C27.1383 45.1333 27.1548 45.1333 27.1712 45.1333C27.1876 45.1333 27.204 45.1333 27.2205 45.1333C27.2369 45.1333 27.2533 45.1333 27.2697 45.1333C27.2862 45.1333 27.3026 45.1333 27.319 45.1333C27.3354 45.1333 27.3519 45.1333 27.3683 45.1333C27.3847 45.1333 27.4011 45.1333 27.4176 45.1333C27.434 45.1333 27.4504 45.1333 27.4668 45.1333C27.4833 45.1333 27.4997 45.1333 27.5161 45.1333C27.5325 45.1333 27.549 45.1333 27.5654 45.1333C27.5818 45.1333 27.5983 45.1333 27.6147 45.1333C27.6311 45.1333 27.6475 45.1333 27.664 45.1333C27.6804 45.1333 27.6968 45.1333 27.7132 45.1333C27.7297 45.1333 27.7461 45.1333 27.7625 45.1333C27.7789 45.1333 27.7954 45.1333 27.8118 45.1333C27.8282 45.1333 27.8446 45.1333 27.8611 45.1333C27.8775 45.1333 27.8939 45.1333 27.9103 45.1333C27.9268 45.1333 27.9432 45.1333 27.9596 45.1333C27.976 45.1333 27.9925 45.1333 28.0089 45.1333C28.0253 45.1333 28.0418 45.1333 28.0582 45.1333C28.0746 45.1333 28.091 45.1333 28.1075 45.1333C28.1239 45.1333 28.1403 45.1333 28.1567 45.1333C28.1732 45.1333 28.1896 45.1333 28.206 45.1333C28.2224 45.1333 28.2389 45.1333 28.2553 45.1333C28.2717 45.1333 28.2881 45.1333 28.3046 45.1333C28.321 45.1333 28.3374 45.1333 28.3538 45.1333C28.3703 45.1333 28.3867 45.1333 28.4031 45.1333C28.4195 45.1333 28.436 45.1333 28.4524 45.1333C28.4688 45.1333 28.4853 45.1333 28.5017 45.1333C28.5181 45.1333 28.5345 45.1333 28.551 45.1333C28.5674 45.1333 28.5838 45.1333 28.6002 45.1333C28.6167 45.1333 28.6331 45.1333 28.6495 45.1333C28.6659 45.1333 28.6824 45.1333 28.6988 45.1333C28.7152 45.1333 28.7316 45.1333 28.7481 45.1333C28.7645 45.1333 28.7809 45.1333 28.7973 45.1333C28.8138 45.1333 28.8302 45.1333 28.8466 45.1333C28.863 45.1333 28.8795 45.1333 28.8959 45.1333C28.9123 45.1333 28.9288 45.1333 28.9452 45.1333C28.9616 45.1333 28.978 45.1333 28.9945 45.1333C29.0109 45.1333 29.0273 45.1333 29.0437 45.1333C29.0602 45.1333 29.0766 45.1333 29.093 45.1333C29.1094 45.1333 29.1259 45.1333 29.1423 45.1333C29.1587 45.1333 29.1751 45.1333 29.1916 45.1333C29.208 45.1333 29.2244 45.1333 29.2408 45.1333C29.2573 45.1333 29.2737 45.1333 29.2901 45.1333C29.3065 45.1333 29.323 45.1333 29.3394 45.1333C29.3558 45.1333 29.3723 45.1333 29.3887 45.1333C29.4051 45.1333 29.4215 45.1333 29.438 45.1333C29.4544 45.1333 29.4708 45.1333 29.4872 45.1333C29.5037 45.1333 29.5201 45.1333 29.5365 45.1333C29.5529 45.1333 29.5694 45.1333 29.5858 45.1333C29.6022 45.1333 29.6186 45.1333 29.6351 45.1333C29.6515 45.1333 29.6679 45.1333 29.6843 45.1333C29.7008 45.1333 29.7172 45.1333 29.7336 45.1333C29.75 45.1333 29.7665 45.1333 29.7829 45.1333C29.7993 45.1333 29.8158 45.1333 29.8322 45.1333C29.8486 45.1333 29.865 45.1333 29.8815 45.1333C29.8979 45.1333 29.9143 45.1333 29.9307 45.1333C29.9472 45.1333 29.9636 45.1333 29.98 45.1333C29.9964 45.1333 30.0129 45.1333 30.0293 45.1333C30.0457 45.1333 30.0621 45.1333 30.0786 45.1333C30.095 45.1333 30.1114 45.1333 30.1278 45.1333C30.1443 45.1333 30.1607 45.1333 30.1771 45.1333C30.1936 45.1333 30.21 45.1333 30.2264 45.1333C30.2428 45.1333 30.2593 45.1333 30.2757 45.1333C30.2921 45.1333 30.3085 45.1333 30.325 45.1333C30.3414 45.1333 30.3578 45.1333 30.3742 45.1333C30.3907 45.1333 30.4071 45.1333 30.4235 45.1333C30.4399 45.1333 30.4564 45.1333 30.4728 45.1333C30.4892 45.1333 30.5056 45.1333 30.5221 45.1333C30.5385 45.1333 30.5549 45.1333 30.5713 45.1333C30.5878 45.1333 30.6042 45.1333 30.6206 45.1333C30.6371 45.1333 30.6535 45.1333 30.6699 45.1333C30.6863 45.1333 30.7028 45.1333 30.7192 45.1333C30.7356 45.1333 30.752 45.1333 30.7685 45.1333C30.7849 45.1333 30.8013 45.1333 30.8177 45.1333C30.8342 45.1333 30.8506 45.1333 30.867 45.1333C30.8834 45.1333 30.8999 45.1333 30.9163 45.1333C30.9327 45.1333 30.9491 45.1333 30.9656 45.1333C30.982 45.1333 30.9984 45.1333 31.0148 45.1333C31.0313 45.1333 31.0477 45.1333 31.0641 45.1333C31.0806 45.1333 31.097 45.1333 31.1134 45.1333C31.1298 45.1333 31.1463 45.1333 31.1627 45.1333C31.1791 45.1333 31.1955 45.1333 31.212 45.1333C31.2284 45.1333 31.2448 45.1333 31.2612 45.1333C31.2777 45.1333 31.2941 45.1333 31.3105 45.1333C31.3269 45.1333 31.3434 45.1333 31.3598 45.1333C31.3762 45.1333 31.3926 45.1333 31.4091 45.1333C31.4255 45.1333 31.4419 45.1333 31.4583 45.1333C31.4748 45.1333 31.4912 45.1333 31.5076 45.1333C31.5241 45.1333 31.5405 45.1333 31.5569 45.1333C31.5733 45.1333 31.5898 45.1333 31.6062 45.1333C31.6226 45.1333 31.639 45.1333 31.6555 45.1333C31.6719 45.1333 31.6883 45.1333 31.7047 45.1333C31.7212 45.1333 31.7376 45.1333 31.754 45.1333C31.7704 45.1333 31.7869 45.1333 31.8033 45.1333C31.8197 45.1333 31.8361 45.1333 31.8526 45.1333C31.869 45.1333 31.8854 45.1333 31.9018 45.1333C31.9183 45.1333 31.9347 45.1333 31.9511 45.1333C31.9676 45.1333 31.984 45.1333 32.0004 45.1333C32.0168 45.1333 32.0333 45.1333 32.0497 45.1333C32.0661 45.1333 32.0825 45.1333 32.099 45.1333C32.1154 45.1333 32.1318 45.1333 32.1482 45.1333C32.1647 45.1333 32.1811 45.1333 32.1975 45.1333C32.2139 45.1333 32.2304 45.1333 32.2468 45.1333C32.2632 45.1333 32.2796 45.1333 32.2961 45.1333C32.3125 45.1333 32.3289 45.1333 32.3453 45.1333C32.3618 45.1333 32.3782 45.1333 32.3946 45.1333C32.4111 45.1333 32.4275 45.1333 32.4439 45.1333C32.4603 45.1333 32.4768 45.1333 32.4932 45.1333C32.5096 45.1333 32.526 45.1333 32.5425 45.1333C32.5589 45.1333 32.5753 45.1333 32.5917 45.1333C32.6082 45.1333 32.6246 45.1333 32.641 45.1333C32.6574 45.1333 32.6739 45.1333 32.6903 45.1333C32.7067 45.1333 32.7231 45.1333 32.7396 45.1333C32.756 45.1333 32.7724 45.1333 32.7888 45.1333C32.8053 45.1333 32.8217 45.1333 32.8381 45.1333C32.8546 45.1333 32.871 45.1333 32.8874 45.1333C32.9038 45.1333 32.9203 45.1333 32.9367 45.1333C32.9531 45.1333 32.9695 45.1333 32.986 45.1333C33.0024 45.1333 33.0188 45.1333 33.0352 45.1333C33.0517 45.1333 33.0681 45.1333 33.0845 45.1333C33.1009 45.1333 33.1174 45.1333 33.1338 45.1333C33.1502 45.1333 33.1666 45.1333 33.1831 45.1333C33.1995 45.1333 33.2159 45.1333 33.2323 45.1333C33.2488 45.1333 33.2652 45.1333 33.2816 45.1333C33.2981 45.1333 33.3145 45.1333 33.3309 45.1333C33.3473 45.1333 33.3638 45.1333 33.3802 45.1333C33.3966 45.1333 33.413 45.1333 33.4295 45.1333C33.4459 45.1333 33.4623 45.1333 33.4787 45.1333C33.4952 45.1333 33.5116 45.1333 33.528 45.1333C33.5444 45.1333 33.5609 45.1333 33.5773 45.1333C33.5937 45.1333 33.6101 45.1333 33.6266 45.1333C33.643 45.1333 33.6594 45.1333 33.6758 45.1333C33.6923 45.1333 33.7087 45.1333 33.7251 45.1333C33.7416 45.1333 33.758 45.1333 33.7744 45.1333C33.7908 45.1333 33.8073 45.1333 33.8237 45.1333C33.8401 45.1333 33.8565 45.1333 33.873 45.1333C33.8894 45.1333 33.9058 45.1333 33.9222 45.1333C33.9387 45.1333 33.9551 45.1333 33.9715 45.1333V41.1333C33.9551 41.1333 33.9387 41.1333 33.9222 41.1333C33.9058 41.1333 33.8894 41.1333 33.873 41.1333C33.8565 41.1333 33.8401 41.1333 33.8237 41.1333C33.8073 41.1333 33.7908 41.1333 33.7744 41.1333C33.758 41.1333 33.7416 41.1333 33.7251 41.1333C33.7087 41.1333 33.6923 41.1333 33.6758 41.1333C33.6594 41.1333 33.643 41.1333 33.6266 41.1333C33.6101 41.1333 33.5937 41.1333 33.5773 41.1333C33.5609 41.1333 33.5444 41.1333 33.528 41.1333C33.5116 41.1333 33.4952 41.1333 33.4787 41.1333C33.4623 41.1333 33.4459 41.1333 33.4295 41.1333C33.413 41.1333 33.3966 41.1333 33.3802 41.1333C33.3638 41.1333 33.3473 41.1333 33.3309 41.1333C33.3145 41.1333 33.2981 41.1333 33.2816 41.1333C33.2652 41.1333 33.2488 41.1333 33.2323 41.1333C33.2159 41.1333 33.1995 41.1333 33.1831 41.1333C33.1666 41.1333 33.1502 41.1333 33.1338 41.1333C33.1174 41.1333 33.1009 41.1333 33.0845 41.1333C33.0681 41.1333 33.0517 41.1333 33.0352 41.1333C33.0188 41.1333 33.0024 41.1333 32.986 41.1333C32.9695 41.1333 32.9531 41.1333 32.9367 41.1333C32.9203 41.1333 32.9038 41.1333 32.8874 41.1333C32.871 41.1333 32.8546 41.1333 32.8381 41.1333C32.8217 41.1333 32.8053 41.1333 32.7888 41.1333C32.7724 41.1333 32.756 41.1333 32.7396 41.1333C32.7231 41.1333 32.7067 41.1333 32.6903 41.1333C32.6739 41.1333 32.6574 41.1333 32.641 41.1333C32.6246 41.1333 32.6082 41.1333 32.5917 41.1333C32.5753 41.1333 32.5589 41.1333 32.5425 41.1333C32.526 41.1333 32.5096 41.1333 32.4932 41.1333C32.4768 41.1333 32.4603 41.1333 32.4439 41.1333C32.4275 41.1333 32.4111 41.1333 32.3946 41.1333C32.3782 41.1333 32.3618 41.1333 32.3453 41.1333C32.3289 41.1333 32.3125 41.1333 32.2961 41.1333C32.2796 41.1333 32.2632 41.1333 32.2468 41.1333C32.2304 41.1333 32.2139 41.1333 32.1975 41.1333C32.1811 41.1333 32.1647 41.1333 32.1482 41.1333C32.1318 41.1333 32.1154 41.1333 32.099 41.1333C32.0825 41.1333 32.0661 41.1333 32.0497 41.1333C32.0333 41.1333 32.0168 41.1333 32.0004 41.1333C31.984 41.1333 31.9676 41.1333 31.9511 41.1333C31.9347 41.1333 31.9183 41.1333 31.9018 41.1333C31.8854 41.1333 31.869 41.1333 31.8526 41.1333C31.8361 41.1333 31.8197 41.1333 31.8033 41.1333C31.7869 41.1333 31.7704 41.1333 31.754 41.1333C31.7376 41.1333 31.7212 41.1333 31.7047 41.1333C31.6883 41.1333 31.6719 41.1333 31.6555 41.1333C31.639 41.1333 31.6226 41.1333 31.6062 41.1333C31.5898 41.1333 31.5733 41.1333 31.5569 41.1333C31.5405 41.1333 31.5241 41.1333 31.5076 41.1333C31.4912 41.1333 31.4748 41.1333 31.4583 41.1333C31.4419 41.1333 31.4255 41.1333 31.4091 41.1333C31.3926 41.1333 31.3762 41.1333 31.3598 41.1333C31.3434 41.1333 31.3269 41.1333 31.3105 41.1333C31.2941 41.1333 31.2777 41.1333 31.2612 41.1333C31.2448 41.1333 31.2284 41.1333 31.212 41.1333C31.1955 41.1333 31.1791 41.1333 31.1627 41.1333C31.1463 41.1333 31.1298 41.1333 31.1134 41.1333C31.097 41.1333 31.0806 41.1333 31.0641 41.1333C31.0477 41.1333 31.0313 41.1333 31.0148 41.1333C30.9984 41.1333 30.982 41.1333 30.9656 41.1333C30.9491 41.1333 30.9327 41.1333 30.9163 41.1333C30.8999 41.1333 30.8834 41.1333 30.867 41.1333C30.8506 41.1333 30.8342 41.1333 30.8177 41.1333C30.8013 41.1333 30.7849 41.1333 30.7685 41.1333C30.752 41.1333 30.7356 41.1333 30.7192 41.1333C30.7028 41.1333 30.6863 41.1333 30.6699 41.1333C30.6535 41.1333 30.6371 41.1333 30.6206 41.1333C30.6042 41.1333 30.5878 41.1333 30.5713 41.1333C30.5549 41.1333 30.5385 41.1333 30.5221 41.1333C30.5056 41.1333 30.4892 41.1333 30.4728 41.1333C30.4564 41.1333 30.4399 41.1333 30.4235 41.1333C30.4071 41.1333 30.3907 41.1333 30.3742 41.1333C30.3578 41.1333 30.3414 41.1333 30.325 41.1333C30.3085 41.1333 30.2921 41.1333 30.2757 41.1333C30.2593 41.1333 30.2428 41.1333 30.2264 41.1333C30.21 41.1333 30.1936 41.1333 30.1771 41.1333C30.1607 41.1333 30.1443 41.1333 30.1278 41.1333C30.1114 41.1333 30.095 41.1333 30.0786 41.1333C30.0621 41.1333 30.0457 41.1333 30.0293 41.1333C30.0129 41.1333 29.9964 41.1333 29.98 41.1333C29.9636 41.1333 29.9472 41.1333 29.9307 41.1333C29.9143 41.1333 29.8979 41.1333 29.8815 41.1333C29.865 41.1333 29.8486 41.1333 29.8322 41.1333C29.8158 41.1333 29.7993 41.1333 29.7829 41.1333C29.7665 41.1333 29.75 41.1333 29.7336 41.1333C29.7172 41.1333 29.7008 41.1333 29.6843 41.1333C29.6679 41.1333 29.6515 41.1333 29.6351 41.1333C29.6186 41.1333 29.6022 41.1333 29.5858 41.1333C29.5694 41.1333 29.5529 41.1333 29.5365 41.1333C29.5201 41.1333 29.5037 41.1333 29.4872 41.1333C29.4708 41.1333 29.4544 41.1333 29.438 41.1333C29.4215 41.1333 29.4051 41.1333 29.3887 41.1333C29.3723 41.1333 29.3558 41.1333 29.3394 41.1333C29.323 41.1333 29.3065 41.1333 29.2901 41.1333C29.2737 41.1333 29.2573 41.1333 29.2408 41.1333C29.2244 41.1333 29.208 41.1333 29.1916 41.1333C29.1751 41.1333 29.1587 41.1333 29.1423 41.1333C29.1259 41.1333 29.1094 41.1333 29.093 41.1333C29.0766 41.1333 29.0602 41.1333 29.0437 41.1333C29.0273 41.1333 29.0109 41.1333 28.9945 41.1333C28.978 41.1333 28.9616 41.1333 28.9452 41.1333C28.9288 41.1333 28.9123 41.1333 28.8959 41.1333C28.8795 41.1333 28.863 41.1333 28.8466 41.1333C28.8302 41.1333 28.8138 41.1333 28.7973 41.1333C28.7809 41.1333 28.7645 41.1333 28.7481 41.1333C28.7316 41.1333 28.7152 41.1333 28.6988 41.1333C28.6824 41.1333 28.6659 41.1333 28.6495 41.1333C28.6331 41.1333 28.6167 41.1333 28.6002 41.1333C28.5838 41.1333 28.5674 41.1333 28.551 41.1333C28.5345 41.1333 28.5181 41.1333 28.5017 41.1333C28.4853 41.1333 28.4688 41.1333 28.4524 41.1333C28.436 41.1333 28.4195 41.1333 28.4031 41.1333C28.3867 41.1333 28.3703 41.1333 28.3538 41.1333C28.3374 41.1333 28.321 41.1333 28.3046 41.1333C28.2881 41.1333 28.2717 41.1333 28.2553 41.1333C28.2389 41.1333 28.2224 41.1333 28.206 41.1333C28.1896 41.1333 28.1732 41.1333 28.1567 41.1333C28.1403 41.1333 28.1239 41.1333 28.1075 41.1333C28.091 41.1333 28.0746 41.1333 28.0582 41.1333C28.0418 41.1333 28.0253 41.1333 28.0089 41.1333C27.9925 41.1333 27.976 41.1333 27.9596 41.1333C27.9432 41.1333 27.9268 41.1333 27.9103 41.1333C27.8939 41.1333 27.8775 41.1333 27.8611 41.1333C27.8446 41.1333 27.8282 41.1333 27.8118 41.1333C27.7954 41.1333 27.7789 41.1333 27.7625 41.1333C27.7461 41.1333 27.7297 41.1333 27.7132 41.1333C27.6968 41.1333 27.6804 41.1333 27.664 41.1333C27.6475 41.1333 27.6311 41.1333 27.6147 41.1333C27.5983 41.1333 27.5818 41.1333 27.5654 41.1333C27.549 41.1333 27.5325 41.1333 27.5161 41.1333C27.4997 41.1333 27.4833 41.1333 27.4668 41.1333C27.4504 41.1333 27.434 41.1333 27.4176 41.1333C27.4011 41.1333 27.3847 41.1333 27.3683 41.1333C27.3519 41.1333 27.3354 41.1333 27.319 41.1333C27.3026 41.1333 27.2862 41.1333 27.2697 41.1333C27.2533 41.1333 27.2369 41.1333 27.2205 41.1333C27.204 41.1333 27.1876 41.1333 27.1712 41.1333C27.1548 41.1333 27.1383 41.1333 27.1219 41.1333C27.1055 41.1333 27.089 41.1333 27.0726 41.1333C27.0562 41.1333 27.0398 41.1333 27.0233 41.1333C27.0069 41.1333 26.9905 41.1333 26.9741 41.1333C26.9576 41.1333 26.9412 41.1333 26.9248 41.1333C26.9084 41.1333 26.8919 41.1333 26.8755 41.1333C26.8591 41.1333 26.8427 41.1333 26.8262 41.1333C26.8098 41.1333 26.7934 41.1333 26.777 41.1333C26.7605 41.1333 26.7441 41.1333 26.7277 41.1333C26.7113 41.1333 26.6948 41.1333 26.6784 41.1333C26.662 41.1333 26.6455 41.1333 26.6291 41.1333C26.6127 41.1333 26.5963 41.1333 26.5798 41.1333C26.5634 41.1333 26.547 41.1333 26.5306 41.1333C26.5141 41.1333 26.4977 41.1333 26.4813 41.1333C26.4649 41.1333 26.4484 41.1333 26.432 41.1333C26.4156 41.1333 26.3992 41.1333 26.3827 41.1333C26.3663 41.1333 26.3499 41.1333 26.3335 41.1333C26.317 41.1333 26.3006 41.1333 26.2842 41.1333C26.2677 41.1333 26.2513 41.1333 26.2349 41.1333C26.2185 41.1333 26.202 41.1333 26.1856 41.1333C26.1692 41.1333 26.1528 41.1333 26.1363 41.1333C26.1199 41.1333 26.1035 41.1333 26.0871 41.1333C26.0706 41.1333 26.0542 41.1333 26.0378 41.1333C26.0214 41.1333 26.0049 41.1333 25.9885 41.1333C25.9721 41.1333 25.9557 41.1333 25.9392 41.1333C25.9228 41.1333 25.9064 41.1333 25.89 41.1333C25.8735 41.1333 25.8571 41.1333 25.8407 41.1333C25.8242 41.1333 25.8078 41.1333 25.7914 41.1333C25.775 41.1333 25.7585 41.1333 25.7421 41.1333C25.7257 41.1333 25.7093 41.1333 25.6928 41.1333C25.6764 41.1333 25.66 41.1333 25.6436 41.1333C25.6271 41.1333 25.6107 41.1333 25.5943 41.1333C25.5779 41.1333 25.5614 41.1333 25.545 41.1333C25.5286 41.1333 25.5122 41.1333 25.4957 41.1333C25.4793 41.1333 25.4629 41.1333 25.4465 41.1333C25.43 41.1333 25.4136 41.1333 25.3972 41.1333C25.3807 41.1333 25.3643 41.1333 25.3479 41.1333C25.3315 41.1333 25.315 41.1333 25.2986 41.1333C25.2822 41.1333 25.2658 41.1333 25.2493 41.1333C25.2329 41.1333 25.2165 41.1333 25.2001 41.1333C25.1836 41.1333 25.1672 41.1333 25.1508 41.1333C25.1344 41.1333 25.1179 41.1333 25.1015 41.1333C25.0851 41.1333 25.0687 41.1333 25.0522 41.1333C25.0358 41.1333 25.0194 41.1333 25.003 41.1333C24.9865 41.1333 24.9701 41.1333 24.9537 41.1333C24.9372 41.1333 24.9208 41.1333 24.9044 41.1333C24.888 41.1333 24.8715 41.1333 24.8551 41.1333C24.8387 41.1333 24.8223 41.1333 24.8058 41.1333C24.7894 41.1333 24.773 41.1333 24.7566 41.1333C24.7401 41.1333 24.7237 41.1333 24.7073 41.1333C24.6909 41.1333 24.6744 41.1333 24.658 41.1333C24.6416 41.1333 24.6252 41.1333 24.6087 41.1333C24.5923 41.1333 24.5759 41.1333 24.5595 41.1333C24.543 41.1333 24.5266 41.1333 24.5102 41.1333C24.4937 41.1333 24.4773 41.1333 24.4609 41.1333C24.4445 41.1333 24.428 41.1333 24.4116 41.1333C24.3952 41.1333 24.3788 41.1333 24.3623 41.1333C24.3459 41.1333 24.3295 41.1333 24.3131 41.1333C24.2966 41.1333 24.2802 41.1333 24.2638 41.1333C24.2474 41.1333 24.2309 41.1333 24.2145 41.1333C24.1981 41.1333 24.1817 41.1333 24.1652 41.1333C24.1488 41.1333 24.1324 41.1333 24.116 41.1333C24.0995 41.1333 24.0831 41.1333 24.0667 41.1333C24.0502 41.1333 24.0338 41.1333 24.0174 41.1333C24.001 41.1333 23.9845 41.1333 23.9681 41.1333C23.9517 41.1333 23.9353 41.1333 23.9188 41.1333C23.9024 41.1333 23.886 41.1333 23.8696 41.1333C23.8531 41.1333 23.8367 41.1333 23.8203 41.1333C23.8039 41.1333 23.7874 41.1333 23.771 41.1333C23.7546 41.1333 23.7382 41.1333 23.7217 41.1333C23.7053 41.1333 23.6889 41.1333 23.6725 41.1333C23.656 41.1333 23.6396 41.1333 23.6232 41.1333C23.6067 41.1333 23.5903 41.1333 23.5739 41.1333C23.5575 41.1333 23.541 41.1333 23.5246 41.1333C23.5082 41.1333 23.4918 41.1333 23.4753 41.1333C23.4589 41.1333 23.4425 41.1333 23.4261 41.1333C23.4096 41.1333 23.3932 41.1333 23.3768 41.1333C23.3604 41.1333 23.3439 41.1333 23.3275 41.1333C23.3111 41.1333 23.2947 41.1333 23.2782 41.1333C23.2618 41.1333 23.2454 41.1333 23.229 41.1333C23.2125 41.1333 23.1961 41.1333 23.1797 41.1333C23.1632 41.1333 23.1468 41.1333 23.1304 41.1333C23.114 41.1333 23.0975 41.1333 23.0811 41.1333C23.0647 41.1333 23.0483 41.1333 23.0318 41.1333C23.0154 41.1333 22.999 41.1333 22.9826 41.1333C22.9661 41.1333 22.9497 41.1333 22.9333 41.1333C22.9169 41.1333 22.9004 41.1333 22.884 41.1333C22.8676 41.1333 22.8512 41.1333 22.8347 41.1333C22.8183 41.1333 22.8019 41.1333 22.7854 41.1333C22.769 41.1333 22.7526 41.1333 22.7362 41.1333C22.7197 41.1333 22.7033 41.1333 22.6869 41.1333C22.6705 41.1333 22.654 41.1333 22.6376 41.1333C22.6212 41.1333 22.6048 41.1333 22.5883 41.1333C22.5719 41.1333 22.5555 41.1333 22.5391 41.1333C22.5226 41.1333 22.5062 41.1333 22.4898 41.1333C22.4734 41.1333 22.4569 41.1333 22.4405 41.1333C22.4241 41.1333 22.4077 41.1333 22.3912 41.1333C22.3748 41.1333 22.3584 41.1333 22.3419 41.1333C22.3255 41.1333 22.3091 41.1333 22.2927 41.1333C22.2762 41.1333 22.2598 41.1333 22.2434 41.1333C22.227 41.1333 22.2105 41.1333 22.1941 41.1333C22.1777 41.1333 22.1613 41.1333 22.1448 41.1333C22.1284 41.1333 22.112 41.1333 22.0956 41.1333C22.0791 41.1333 22.0627 41.1333 22.0463 41.1333C22.0299 41.1333 22.0134 41.1333 21.997 41.1333C21.9806 41.1333 21.9642 41.1333 21.9477 41.1333C21.9313 41.1333 21.9149 41.1333 21.8984 41.1333C21.882 41.1333 21.8656 41.1333 21.8492 41.1333C21.8327 41.1333 21.8163 41.1333 21.7999 41.1333C21.7835 41.1333 21.767 41.1333 21.7506 41.1333C21.7342 41.1333 21.7178 41.1333 21.7013 41.1333C21.6849 41.1333 21.6685 41.1333 21.6521 41.1333C21.6356 41.1333 21.6192 41.1333 21.6028 41.1333C21.5864 41.1333 21.5699 41.1333 21.5535 41.1333C21.5371 41.1333 21.5207 41.1333 21.5042 41.1333C21.4878 41.1333 21.4714 41.1333 21.4549 41.1333C21.4385 41.1333 21.4221 41.1333 21.4057 41.1333C21.3892 41.1333 21.3728 41.1333 21.3564 41.1333C21.34 41.1333 21.3235 41.1333 21.3071 41.1333C21.2907 41.1333 21.2743 41.1333 21.2578 41.1333C21.2414 41.1333 21.225 41.1333 21.2086 41.1333C21.1921 41.1333 21.1757 41.1333 21.1593 41.1333C21.1429 41.1333 21.1264 41.1333 21.11 41.1333C21.0936 41.1333 21.0772 41.1333 21.0607 41.1333C21.0443 41.1333 21.0279 41.1333 21.0114 41.1333C20.995 41.1333 20.9786 41.1333 20.9622 41.1333C20.9457 41.1333 20.9293 41.1333 20.9129 41.1333C20.8965 41.1333 20.88 41.1333 20.8636 41.1333C20.8472 41.1333 20.8308 41.1333 20.8143 41.1333C20.7979 41.1333 20.7815 41.1333 20.7651 41.1333C20.7486 41.1333 20.7322 41.1333 20.7158 41.1333C20.6994 41.1333 20.6829 41.1333 20.6665 41.1333C20.6501 41.1333 20.6337 41.1333 20.6172 41.1333C20.6008 41.1333 20.5844 41.1333 20.5679 41.1333C20.5515 41.1333 20.5351 41.1333 20.5187 41.1333C20.5022 41.1333 20.4858 41.1333 20.4694 41.1333C20.453 41.1333 20.4365 41.1333 20.4201 41.1333C20.4037 41.1333 20.3873 41.1333 20.3708 41.1333C20.3544 41.1333 20.338 41.1333 20.3216 41.1333C20.3051 41.1333 20.2887 41.1333 20.2723 41.1333C20.2559 41.1333 20.2394 41.1333 20.223 41.1333C20.2066 41.1333 20.1902 41.1333 20.1737 41.1333C20.1573 41.1333 20.1409 41.1333 20.1244 41.1333C20.108 41.1333 20.0916 41.1333 20.0752 41.1333C20.0587 41.1333 20.0423 41.1333 20.0259 41.1333C20.0095 41.1333 19.993 41.1333 19.9766 41.1333C19.9602 41.1333 19.9438 41.1333 19.9273 41.1333C19.9109 41.1333 19.8945 41.1333 19.8781 41.1333C19.8616 41.1333 19.8452 41.1333 19.8288 41.1333C19.8124 41.1333 19.7959 41.1333 19.7795 41.1333C19.7631 41.1333 19.7467 41.1333 19.7302 41.1333C19.7138 41.1333 19.6974 41.1333 19.6809 41.1333C19.6645 41.1333 19.6481 41.1333 19.6317 41.1333C19.6152 41.1333 19.5988 41.1333 19.5824 41.1333C19.566 41.1333 19.5495 41.1333 19.5331 41.1333C19.5167 41.1333 19.5003 41.1333 19.4838 41.1333C19.4674 41.1333 19.451 41.1333 19.4346 41.1333C19.4181 41.1333 19.4017 41.1333 19.3853 41.1333C19.3689 41.1333 19.3524 41.1333 19.336 41.1333C19.3196 41.1333 19.3032 41.1333 19.2867 41.1333C19.2703 41.1333 19.2539 41.1333 19.2374 41.1333C19.221 41.1333 19.2046 41.1333 19.1882 41.1333C19.1717 41.1333 19.1553 41.1333 19.1389 41.1333C19.1225 41.1333 19.106 41.1333 19.0896 41.1333C19.0732 41.1333 19.0568 41.1333 19.0403 41.1333C19.0239 41.1333 19.0075 41.1333 18.9911 41.1333C18.9746 41.1333 18.9582 41.1333 18.9418 41.1333C18.9254 41.1333 18.9089 41.1333 18.8925 41.1333C18.8761 41.1333 18.8597 41.1333 18.8432 41.1333C18.8268 41.1333 18.8104 41.1333 18.7939 41.1333C18.7775 41.1333 18.7611 41.1333 18.7447 41.1333C18.7282 41.1333 18.7118 41.1333 18.6954 41.1333C18.679 41.1333 18.6625 41.1333 18.6461 41.1333C18.6297 41.1333 18.6133 41.1333 18.5968 41.1333C18.5804 41.1333 18.564 41.1333 18.5476 41.1333C18.5311 41.1333 18.5147 41.1333 18.4983 41.1333C18.4819 41.1333 18.4654 41.1333 18.449 41.1333C18.4326 41.1333 18.4162 41.1333 18.3997 41.1333C18.3833 41.1333 18.3669 41.1333 18.3504 41.1333C18.334 41.1333 18.3176 41.1333 18.3012 41.1333C18.2847 41.1333 18.2683 41.1333 18.2519 41.1333C18.2355 41.1333 18.219 41.1333 18.2026 41.1333C18.1862 41.1333 18.1698 41.1333 18.1533 41.1333C18.1369 41.1333 18.1205 41.1333 18.1041 41.1333C18.0876 41.1333 18.0712 41.1333 18.0548 41.1333C18.0384 41.1333 18.0219 41.1333 18.0055 41.1333C17.9891 41.1333 17.9726 41.1333 17.9562 41.1333C17.9398 41.1333 17.9234 41.1333 17.9069 41.1333C17.8905 41.1333 17.8741 41.1333 17.8577 41.1333C17.8412 41.1333 17.8248 41.1333 17.8084 41.1333C17.792 41.1333 17.7755 41.1333 17.7591 41.1333C17.7427 41.1333 17.7263 41.1333 17.7098 41.1333C17.6934 41.1333 17.677 41.1333 17.6606 41.1333C17.6441 41.1333 17.6277 41.1333 17.6113 41.1333C17.5949 41.1333 17.5784 41.1333 17.562 41.1333C17.5456 41.1333 17.5291 41.1333 17.5127 41.1333C17.4963 41.1333 17.4799 41.1333 17.4634 41.1333C17.447 41.1333 17.4306 41.1333 17.4142 41.1333C17.3977 41.1333 17.3813 41.1333 17.3649 41.1333C17.3485 41.1333 17.332 41.1333 17.3156 41.1333C17.2992 41.1333 17.2828 41.1333 17.2663 41.1333C17.2499 41.1333 17.2335 41.1333 17.2171 41.1333C17.2006 41.1333 17.1842 41.1333 17.1678 41.1333C17.1514 41.1333 17.1349 41.1333 17.1185 41.1333C17.1021 41.1333 17.0856 41.1333 17.0692 41.1333C17.0528 41.1333 17.0364 41.1333 17.0199 41.1333C17.0035 41.1333 16.9871 41.1333 16.9707 41.1333C16.9542 41.1333 16.9378 41.1333 16.9214 41.1333C16.905 41.1333 16.8885 41.1333 16.8721 41.1333C16.8557 41.1333 16.8393 41.1333 16.8228 41.1333C16.8064 41.1333 16.79 41.1333 16.7736 41.1333C16.7571 41.1333 16.7407 41.1333 16.7243 41.1333C16.7079 41.1333 16.6914 41.1333 16.675 41.1333C16.6586 41.1333 16.6421 41.1333 16.6257 41.1333C16.6093 41.1333 16.5929 41.1333 16.5764 41.1333C16.56 41.1333 16.5436 41.1333 16.5272 41.1333C16.5107 41.1333 16.4943 41.1333 16.4779 41.1333C16.4615 41.1333 16.445 41.1333 16.4286 41.1333C16.4122 41.1333 16.3958 41.1333 16.3793 41.1333C16.3629 41.1333 16.3465 41.1333 16.3301 41.1333C16.3136 41.1333 16.2972 41.1333 16.2808 41.1333C16.2644 41.1333 16.2479 41.1333 16.2315 41.1333C16.2151 41.1333 16.1986 41.1333 16.1822 41.1333C16.1658 41.1333 16.1494 41.1333 16.1329 41.1333C16.1165 41.1333 16.1001 41.1333 16.0837 41.1333C16.0672 41.1333 16.0508 41.1333 16.0344 41.1333C16.018 41.1333 16.0015 41.1333 15.9851 41.1333C15.9687 41.1333 15.9523 41.1333 15.9358 41.1333C15.9194 41.1333 15.903 41.1333 15.8866 41.1333C15.8701 41.1333 15.8537 41.1333 15.8373 41.1333C15.8209 41.1333 15.8044 41.1333 15.788 41.1333C15.7716 41.1333 15.7551 41.1333 15.7387 41.1333C15.7223 41.1333 15.7059 41.1333 15.6894 41.1333C15.673 41.1333 15.6566 41.1333 15.6402 41.1333C15.6237 41.1333 15.6073 41.1333 15.5909 41.1333C15.5745 41.1333 15.558 41.1333 15.5416 41.1333C15.5252 41.1333 15.5088 41.1333 15.4923 41.1333C15.4759 41.1333 15.4595 41.1333 15.4431 41.1333C15.4266 41.1333 15.4102 41.1333 15.3938 41.1333C15.3774 41.1333 15.3609 41.1333 15.3445 41.1333C15.3281 41.1333 15.3116 41.1333 15.2952 41.1333C15.2788 41.1333 15.2624 41.1333 15.2459 41.1333C15.2295 41.1333 15.2131 41.1333 15.1967 41.1333C15.1802 41.1333 15.1638 41.1333 15.1474 41.1333C15.131 41.1333 15.1145 41.1333 15.0981 41.1333C15.0817 41.1333 15.0653 41.1333 15.0488 41.1333C15.0324 41.1333 15.016 41.1333 14.9996 41.1333C14.9831 41.1333 14.9667 41.1333 14.9503 41.1333C14.9339 41.1333 14.9174 41.1333 14.901 41.1333C14.8846 41.1333 14.8681 41.1333 14.8517 41.1333C14.8353 41.1333 14.8189 41.1333 14.8024 41.1333C14.786 41.1333 14.7696 41.1333 14.7532 41.1333C14.7367 41.1333 14.7203 41.1333 14.7039 41.1333C14.6875 41.1333 14.671 41.1333 14.6546 41.1333C14.6382 41.1333 14.6218 41.1333 14.6053 41.1333C14.5889 41.1333 14.5725 41.1333 14.5561 41.1333C14.5396 41.1333 14.5232 41.1333 14.5068 41.1333C14.4903 41.1333 14.4739 41.1333 14.4575 41.1333C14.4411 41.1333 14.4246 41.1333 14.4082 41.1333C14.3918 41.1333 14.3754 41.1333 14.3589 41.1333C14.3425 41.1333 14.3261 41.1333 14.3097 41.1333C14.2932 41.1333 14.2768 41.1333 14.2604 41.1333C14.244 41.1333 14.2275 41.1333 14.2111 41.1333C14.1947 41.1333 14.1783 41.1333 14.1618 41.1333C14.1454 41.1333 14.129 41.1333 14.1126 41.1333C14.0961 41.1333 14.0797 41.1333 14.0633 41.1333C14.0469 41.1333 14.0304 41.1333 14.014 41.1333C13.9976 41.1333 13.9811 41.1333 13.9647 41.1333C13.9483 41.1333 13.9319 41.1333 13.9154 41.1333C13.899 41.1333 13.8826 41.1333 13.8662 41.1333C13.8497 41.1333 13.8333 41.1333 13.8169 41.1333C13.8005 41.1333 13.784 41.1333 13.7676 41.1333C13.7512 41.1333 13.7348 41.1333 13.7183 41.1333C13.7019 41.1333 13.6855 41.1333 13.6691 41.1333C13.6526 41.1333 13.6362 41.1333 13.6198 41.1333C13.6033 41.1333 13.5869 41.1333 13.5705 41.1333C13.5541 41.1333 13.5376 41.1333 13.5212 41.1333C13.5048 41.1333 13.4884 41.1333 13.4719 41.1333C13.4555 41.1333 13.4391 41.1333 13.4227 41.1333C13.4062 41.1333 13.3898 41.1333 13.3734 41.1333C13.357 41.1333 13.3405 41.1333 13.3241 41.1333C13.3077 41.1333 13.2913 41.1333 13.2748 41.1333C13.2584 41.1333 13.242 41.1333 13.2256 41.1333C13.2091 41.1333 13.1927 41.1333 13.1763 41.1333C13.1598 41.1333 13.1434 41.1333 13.127 41.1333C13.1106 41.1333 13.0941 41.1333 13.0777 41.1333C13.0613 41.1333 13.0449 41.1333 13.0284 41.1333C13.012 41.1333 12.9956 41.1333 12.9792 41.1333C12.9627 41.1333 12.9463 41.1333 12.9299 41.1333C12.9135 41.1333 12.897 41.1333 12.8806 41.1333C12.8642 41.1333 12.8478 41.1333 12.8313 41.1333C12.8149 41.1333 12.7985 41.1333 12.7821 41.1333C12.7656 41.1333 12.7492 41.1333 12.7328 41.1333C12.7163 41.1333 12.6999 41.1333 12.6835 41.1333C12.6671 41.1333 12.6506 41.1333 12.6342 41.1333C12.6178 41.1333 12.6014 41.1333 12.5849 41.1333C12.5685 41.1333 12.5521 41.1333 12.5357 41.1333C12.5192 41.1333 12.5028 41.1333 12.4864 41.1333C12.47 41.1333 12.4535 41.1333 12.4371 41.1333C12.4207 41.1333 12.4043 41.1333 12.3878 41.1333C12.3714 41.1333 12.355 41.1333 12.3386 41.1333C12.3221 41.1333 12.3057 41.1333 12.2893 41.1333C12.2728 41.1333 12.2564 41.1333 12.24 41.1333C12.2236 41.1333 12.2071 41.1333 12.1907 41.1333C12.1743 41.1333 12.1579 41.1333 12.1414 41.1333C12.125 41.1333 12.1086 41.1333 12.0922 41.1333C12.0757 41.1333 12.0593 41.1333 12.0429 41.1333C12.0265 41.1333 12.01 41.1333 11.9936 41.1333C11.9772 41.1333 11.9608 41.1333 11.9443 41.1333C11.9279 41.1333 11.9115 41.1333 11.8951 41.1333C11.8786 41.1333 11.8622 41.1333 11.8458 41.1333C11.8293 41.1333 11.8129 41.1333 11.7965 41.1333C11.7801 41.1333 11.7636 41.1333 11.7472 41.1333C11.7308 41.1333 11.7144 41.1333 11.6979 41.1333C11.6815 41.1333 11.6651 41.1333 11.6487 41.1333C11.6322 41.1333 11.6158 41.1333 11.5994 41.1333C11.583 41.1333 11.5665 41.1333 11.5501 41.1333C11.5337 41.1333 11.5173 41.1333 11.5008 41.1333C11.4844 41.1333 11.468 41.1333 11.4516 41.1333C11.4351 41.1333 11.4187 41.1333 11.4023 41.1333C11.3858 41.1333 11.3694 41.1333 11.353 41.1333C11.3366 41.1333 11.3201 41.1333 11.3037 41.1333C11.2873 41.1333 11.2709 41.1333 11.2544 41.1333C11.238 41.1333 11.2216 41.1333 11.2052 41.1333C11.1887 41.1333 11.1723 41.1333 11.1559 41.1333C11.1395 41.1333 11.123 41.1333 11.1066 41.1333C11.0902 41.1333 11.0738 41.1333 11.0573 41.1333C11.0409 41.1333 11.0245 41.1333 11.0081 41.1333C10.9916 41.1333 10.9752 41.1333 10.9588 41.1333C10.9423 41.1333 10.9259 41.1333 10.9095 41.1333C10.8931 41.1333 10.8766 41.1333 10.8602 41.1333C10.8438 41.1333 10.8274 41.1333 10.8109 41.1333C10.7945 41.1333 10.7781 41.1333 10.7617 41.1333C10.7452 41.1333 10.7288 41.1333 10.7124 41.1333C10.696 41.1333 10.6795 41.1333 10.6631 41.1333C10.6467 41.1333 10.6303 41.1333 10.6138 41.1333C10.5974 41.1333 10.581 41.1333 10.5646 41.1333C10.5481 41.1333 10.5317 41.1333 10.5153 41.1333C10.4988 41.1333 10.4824 41.1333 10.466 41.1333C10.4496 41.1333 10.4331 41.1333 10.4167 41.1333C10.4003 41.1333 10.3839 41.1333 10.3674 41.1333C10.351 41.1333 10.3346 41.1333 10.3182 41.1333C10.3017 41.1333 10.2853 41.1333 10.2689 41.1333C10.2525 41.1333 10.236 41.1333 10.2196 41.1333C10.2032 41.1333 10.1868 41.1333 10.1703 41.1333C10.1539 41.1333 10.1375 41.1333 10.121 41.1333C10.1046 41.1333 10.0882 41.1333 10.0718 41.1333C10.0553 41.1333 10.0389 41.1333 10.0225 41.1333C10.0061 41.1333 9.98964 41.1333 9.97322 41.1333C9.95679 41.1333 9.94036 41.1333 9.92394 41.1333C9.90751 41.1333 9.89109 41.1333 9.87466 41.1333C9.85823 41.1333 9.84181 41.1333 9.82538 41.1333C9.80896 41.1333 9.79253 41.1333 9.7761 41.1333C9.75968 41.1333 9.74325 41.1333 9.72683 41.1333C9.7104 41.1333 9.69398 41.1333 9.67755 41.1333C9.66112 41.1333 9.6447 41.1333 9.62827 41.1333C9.61185 41.1333 9.59542 41.1333 9.57899 41.1333C9.56257 41.1333 9.54614 41.1333 9.52972 41.1333C9.51329 41.1333 9.49686 41.1333 9.48044 41.1333C9.46401 41.1333 9.44759 41.1333 9.43116 41.1333C9.41473 41.1333 9.39831 41.1333 9.38188 41.1333C9.36546 41.1333 9.34903 41.1333 9.3326 41.1333C9.31618 41.1333 9.29975 41.1333 9.28333 41.1333C9.2669 41.1333 9.25047 41.1333 9.23405 41.1333C9.21762 41.1333 9.2012 41.1333 9.18477 41.1333C9.16835 41.1333 9.15192 41.1333 9.13549 41.1333C9.11907 41.1333 9.10264 41.1333 9.08622 41.1333C9.06979 41.1333 9.05336 41.1333 9.03694 41.1333C9.02051 41.1333 9.00409 41.1333 8.98766 41.1333C8.97123 41.1333 8.95481 41.1333 8.93838 41.1333C8.92196 41.1333 8.90553 41.1333 8.8891 41.1333C8.87268 41.1333 8.85625 41.1333 8.83983 41.1333C8.8234 41.1333 8.80697 41.1333 8.79055 41.1333C8.77412 41.1333 8.7577 41.1333 8.74127 41.1333V45.1333Z" fill="#1B457B" mask="url(#path-3-outside-1_474_689)"/>
<path d="M11.1594 24.4429H29.0701" stroke="#1B457B" stroke-width="2" stroke-miterlimit="10"/>
<path d="M11.9093 27.9439H28.3201" stroke="#1B457B" stroke-width="2" stroke-miterlimit="10"/>
<path d="M14.9091 31.6477H25.3164" stroke="#1B457B" stroke-width="2" stroke-miterlimit="10"/>
<path d="M33.8566 24.5429C35.5965 24.5429 37.007 23.1324 37.007 21.3925C37.007 19.6526 35.5965 18.2422 33.8566 18.2422C32.1168 18.2422 30.7063 19.6526 30.7063 21.3925C30.7063 23.1324 32.1168 24.5429 33.8566 24.5429Z" stroke="#1B457B" stroke-width="2" stroke-miterlimit="10"/>
<path d="M40.6268 21.4121C40.6308 17.7334 37.6499 14.7527 33.9754 14.7527C30.2971 14.7527 27.3164 17.7334 27.3164 21.4117C27.3164 24.0242 28.8178 26.2802 31.0044 27.369L31.0047 27.3691C31.9002 27.8146 32.9093 28.0669 33.9754 28.0669C34.9289 28.0669 35.8386 27.8644 36.6583 27.5041L36.6595 27.5035C38.9956 26.4728 40.6266 24.1322 40.6268 21.4121ZM40.6268 21.4121C40.6268 21.4124 40.6268 21.4127 40.6268 21.4129L39.6268 21.4117H40.6268C40.6268 21.4118 40.6268 21.412 40.6268 21.4121Z" stroke="#1B457B" stroke-width="2" stroke-miterlimit="10"/>
<mask id="path-10-outside-2_474_689" maskUnits="userSpaceOnUse" x="29.6267" y="26.0493" width="10" height="11" fill="black">
<rect fill="white" x="29.6267" y="26.0493" width="10" height="11"/>
<path d="M36.3975 29.1045C36.4212 29.1003 36.4409 29.0939 36.4647 29.0875C36.4686 29.0875 36.4726 29.0854 36.4765 29.0854C36.5042 29.079 36.5279 29.0727 36.5556 29.0663C36.5793 29.0599 36.603 29.0536 36.6267 29.0493C36.6149 30.3826 36.603 31.716 36.5911 33.0493L34.105 31.7139L31.6267 33.0429V29.0642C31.6979 29.0812 31.7769 29.096 31.8639 29.113"/>
</mask>
<path d="M36.4647 29.0875V27.0875H36.2008L35.9459 27.156L36.4647 29.0875ZM36.4765 29.0854V31.0854H36.7037L36.9252 31.0344L36.4765 29.0854ZM36.5556 29.0663L37.0042 31.0153L37.0394 31.0072L37.0743 30.9979L36.5556 29.0663ZM36.6267 29.0493L38.6266 29.0671L38.6481 26.6556L36.2742 27.0806L36.6267 29.0493ZM36.5911 33.0493L35.6447 34.8112L38.5616 36.378L38.5911 33.0671L36.5911 33.0493ZM34.105 31.7139L35.0514 29.952L34.1057 29.444L33.1597 29.9513L34.105 31.7139ZM31.6267 33.0429H29.6267V36.385L32.572 34.8055L31.6267 33.0429ZM31.6267 29.0642L32.0911 27.1188L29.6267 26.5305V29.0642H31.6267ZM36.75 31.0732C36.8387 31.0573 36.9095 31.0392 36.9498 31.0284C36.9679 31.0235 36.9844 31.0189 36.9877 31.018C36.9942 31.0161 36.9897 31.0174 36.9834 31.0191L35.9459 27.156C35.9277 27.1609 35.9119 27.1653 35.9073 27.1666C35.8994 27.1688 35.905 27.1672 35.9123 27.1653C35.9309 27.1603 35.9799 27.1475 36.045 27.1358L36.75 31.0732ZM36.4647 31.0875C36.5544 31.0875 36.6337 31.0815 36.6996 31.0738C36.7653 31.0661 36.8207 31.0562 36.8627 31.0478C36.8839 31.0435 36.9027 31.0394 36.9183 31.0358C36.934 31.0322 36.9473 31.0289 36.9576 31.0263C36.9679 31.0237 36.9762 31.0215 36.9812 31.0202C36.9838 31.0195 36.986 31.0189 36.9873 31.0186C36.988 31.0184 36.9885 31.0182 36.9889 31.0181C36.9892 31.0181 36.9895 31.018 36.9896 31.018C36.9904 31.0177 36.9869 31.0187 36.9827 31.0198C36.9781 31.021 36.9703 31.023 36.9606 31.0255C36.9508 31.028 36.9379 31.0311 36.9228 31.0346C36.9076 31.0381 36.8894 31.0422 36.8686 31.0463C36.8276 31.0546 36.7732 31.0642 36.7085 31.0718C36.6436 31.0795 36.5653 31.0854 36.4765 31.0854V27.0854C36.3867 27.0854 36.3075 27.0914 36.2415 27.0992C36.1759 27.1069 36.1204 27.1167 36.0785 27.1252C36.0572 27.1294 36.0385 27.1336 36.0228 27.1372C36.0072 27.1408 35.9938 27.1441 35.9835 27.1467C35.9733 27.1492 35.965 27.1514 35.9599 27.1528C35.9573 27.1534 35.9552 27.154 35.9539 27.1544C35.9532 27.1546 35.9526 27.1547 35.9523 27.1548C35.9519 27.1549 35.9516 27.155 35.9516 27.155C35.9507 27.1552 35.9543 27.1543 35.9584 27.1532C35.963 27.1519 35.9708 27.1499 35.9806 27.1474C35.9904 27.145 36.0032 27.1418 36.0184 27.1383C36.0336 27.1348 36.0518 27.1308 36.0725 27.1266C36.1135 27.1184 36.168 27.1087 36.2326 27.1011C36.2976 27.0935 36.3758 27.0875 36.4647 27.0875V31.0875ZM36.9252 31.0344C36.9578 31.0269 36.9863 31.0198 36.9973 31.0171C37.012 31.0135 37.0091 31.0142 37.0042 31.0153L36.1069 27.1173C36.0743 27.1248 36.0458 27.1319 36.0348 27.1346C36.0201 27.1383 36.0229 27.1375 36.0278 27.1364L36.9252 31.0344ZM37.0743 30.9979C37.0897 30.9937 37.0812 30.9961 37.0693 30.999C37.0552 31.0025 37.0229 31.0102 36.9792 31.018L36.2742 27.0806C36.1522 27.1025 36.0455 27.1324 36.0368 27.1348L37.0743 30.9979ZM34.6268 29.0315C34.6209 29.6982 34.6149 30.3649 34.609 31.0315C34.6031 31.6982 34.5971 32.3649 34.5912 33.0315L38.5911 33.0671C38.597 32.4004 38.6029 31.7338 38.6088 31.0671C38.6148 30.4004 38.6207 29.7338 38.6266 29.0671L34.6268 29.0315ZM37.5375 31.2874L35.0514 29.952L33.1586 33.4758L35.6447 34.8112L37.5375 31.2874ZM33.1597 29.9513L30.6815 31.2804L32.572 34.8055L35.0502 33.4764L33.1597 29.9513ZM33.6267 33.0429V29.0642H29.6267V33.0429H33.6267ZM31.1623 31.0095C31.285 31.0388 31.4192 31.0639 31.4805 31.0759L32.2473 27.1501C32.1346 27.1281 32.1107 27.1235 32.0911 27.1188L31.1623 31.0095Z" fill="#1B457B" mask="url(#path-10-outside-2_474_689)"/>
<path d="M8.3924 42.16L8.4989 44.1543L38.6952 40.2356H39.6952V40.234C39.6952 40.2337 39.6952 40.2334 39.6952 40.2332L39.6952 38.1863V37.1863H38.6952H38.6425H38.5897H38.537H38.4842H38.4315H38.3787H38.326H38.2732H38.2205H38.1677H38.115H38.0622H38.0095H37.9567H37.904H37.8512H37.7985H37.7457H37.693H37.6402H37.5875H37.5347H37.482H37.4292H37.3765H37.3237H37.271H37.2183H37.1655H37.1128H37.06H37.0073H36.9545H36.9018H36.849H36.7963H36.7435H36.6908H36.638H36.5853H36.5325H36.4798H36.427H36.3743H36.3215H36.2688H36.216H36.1633H36.1105H36.0578H36.005H35.9523H35.8995H35.8468H35.794H35.7413H35.6885H35.6358H35.583H35.5303H35.4775H35.4248H35.372H35.3193H35.2665H35.2138H35.161H35.1083H35.0555H35.0028H34.95H34.8973H34.8445H34.7918H34.739H34.6863H34.6335H34.5808H34.528H34.4753H34.4225H34.3698H34.317H34.2643H34.2115H34.1588H34.106H34.0533H34.0005H33.9478H33.895H33.8423H33.7895H33.7368H33.684H33.6313H33.5785H33.5258H33.473H33.4203H33.3675H33.3148H33.262H33.2093H33.1565H33.1038H33.051H32.9983H32.9455H32.8928H32.84H32.7873H32.7345H32.6818H32.629H32.5763H32.5235H32.4708H32.418H32.3653H32.3125H32.2598H32.207H32.1543H32.1015H32.0488H31.996H31.9433H31.8905H31.8378H31.785H31.7323H31.6795H31.6268H31.574H31.5213H31.4685H31.4158H31.363H31.3103H31.2575H31.2048H31.152H31.0993H31.0465H30.9938H30.941H30.8883H30.8355H30.7828H30.73H30.6773H30.6245H30.5718H30.519H30.4663H30.4135H30.3608H30.308H30.2553H30.2025H30.1498H30.097H30.0443H29.9915H29.9388H29.886H29.8333H29.7805H29.7278H29.675H29.6223H29.5695H29.5168H29.464H29.4113H29.3585H29.3058H29.253H29.2003H29.1476H29.0948H29.0421H28.9893H28.9366H28.8838H28.8311H28.7783H28.7256H28.6728H28.6201H28.5673H28.5146H28.4618H28.4091H28.3563H28.3036H28.2508H28.1981H28.1453H28.0926H28.0398H27.9871H27.9343H27.8816H27.8288H27.7761H27.7233H27.6706H27.6178H27.5651H27.5123H27.4596H27.4068H27.3541H27.3013H27.2486H27.1958H27.1431H27.0903H27.0376H26.9848H26.9321H26.8793H26.8266H26.7738H26.7211H26.6683H26.6156H26.5628H26.5101H26.4573H26.4046H26.3518H26.2991H26.2463H26.1936H26.1408H26.0881H26.0353H25.9826H25.9298H25.8771H25.8243H25.7716H25.7188H25.6661H25.6133H25.5606H25.5078H25.4551H25.4023H25.3496H25.2968H25.2441H25.1913H25.1386H25.0858H25.0331H24.9803H24.9276H24.8748H24.8221H24.7693H24.7166H24.6638H24.6111H24.5583H24.5056H24.4528H24.4001H24.3473H24.2946H24.2418H24.1891H24.1363H24.0836H24.0308H23.9781H23.9253H23.8726H23.8198H23.7671H23.7143H23.6616H23.6088H23.5561H23.5033H23.4506H23.3978H23.3451H23.2923H23.2396H23.1868H23.1341H23.0813H23.0286H22.9758H22.9231H22.8703H22.8176H22.7648H22.7121H22.6593H22.6066H22.5538H22.5011H22.4483H22.3956H22.3428H22.2901H22.2373H22.1846H22.1318H22.0791H22.0263H21.9736H21.9208H21.8681H21.8153H21.7626H21.7098H21.6571H21.6043H21.5516H21.4988H21.4461H21.3933H21.3406H21.2878H21.2351H21.1823H21.1296H21.0768H21.0241H20.9714H20.9186H20.8659H20.8131H20.7604H20.7076H20.6549H20.6021H20.5494H20.4966H20.4439H20.3911H20.3384H20.2856H20.2329H20.1801H20.1274H20.0746H20.0219H19.9691H19.9164H19.8636H19.8109H19.7581H19.7054H19.6526H19.5999H19.5471H19.4944H19.4416H19.3889H19.3361H19.2834H19.2306H19.1779H19.1251H19.0724H19.0196H18.9669H18.9141H18.8614H18.8086H18.7559H18.7031H18.6504H18.5976H18.5449H18.4921H18.4394H18.3866H18.3339H18.2811H18.2284H18.1756H18.1229H18.0701H18.0174H17.9646H17.9119H17.8591H17.8064H17.7536H17.7009H17.6481H17.5954H17.5426H17.4899H17.4371H17.3844H17.3316H17.2789H17.2261H17.1734H17.1206H17.0679H17.0151H16.9624H16.9096H16.8569H16.8041H16.7514H16.6986H16.6459H16.5931H16.5404H16.4876H16.4349H16.3821H16.3294H16.2766H16.2239H16.1711H16.1184H16.0656H16.0129H15.9601H15.9074H15.8546H15.8019H15.7491H15.6964H15.6436H15.5909H15.5381H15.4854H15.4326H15.3799H15.3271H15.2744H15.2216H15.1689H15.1161H15.0634H15.0106H14.9579H14.9051H14.8524H14.7996H14.7469H14.6941H14.6414H14.5886H14.5359H14.4831H14.4304H14.3776H14.3249H14.2721H14.2194H14.1666H14.1139H14.0611H14.0084H13.9556H13.9029H13.8501H13.7974H13.7446H13.6919H13.6391H13.5864H13.5336H13.4809H13.4281H13.3754H13.3226H13.2699H13.2171H13.1644H13.1116H13.0589H13.0061H12.9534H12.9006H12.8479H12.7951H12.7424H12.6897H12.6369H12.5842H12.5314H12.4787H12.4259H12.3732H12.3204H12.2677H12.2149H12.1622H12.1094H12.0567H12.0039H11.9512H11.8984H11.8457H11.7929H11.7402H11.6874H10.2389L10.7523 38.5408C10.8421 38.7776 11.1265 39.6268 10.7507 40.5169L10.7498 40.5191C10.3852 41.3885 9.50066 42.0413 8.3924 42.16Z" stroke="#1B457B" stroke-width="2" stroke-miterlimit="10"/>
<path d="M16.9412 11.768C16.9412 12.0773 16.8836 12.3345 16.7684 12.5394C16.6531 12.7444 16.4906 12.8985 16.2808 13.0015C16.0722 13.1034 15.8266 13.1544 15.544 13.1544H14.6834V10.4945H15.604C15.8902 10.4945 16.1328 10.5436 16.3317 10.6419C16.5306 10.7401 16.6817 10.8838 16.7847 11.073C16.8891 11.2622 16.9412 11.4939 16.9412 11.768ZM16.1953 11.7935C16.1953 11.6322 16.1734 11.4988 16.1298 11.3932C16.0873 11.2865 16.023 11.2071 15.9369 11.1549C15.8508 11.1015 15.7423 11.0749 15.6113 11.0749H15.402V12.5649H15.5621C15.7805 12.5649 15.9406 12.5018 16.0425 12.3757C16.1443 12.2483 16.1953 12.0543 16.1953 11.7935ZM18.3057 11.0567C18.5059 11.0567 18.6787 11.0918 18.8242 11.1622C18.9698 11.2313 19.082 11.3356 19.1608 11.4751C19.2397 11.6146 19.2791 11.7893 19.2791 11.9991V12.3157H18.0074C18.0134 12.4236 18.0534 12.5121 18.1274 12.5813C18.2026 12.6504 18.313 12.685 18.4586 12.685C18.5871 12.685 18.7048 12.6722 18.8115 12.6468C18.9195 12.6213 19.0304 12.5819 19.1444 12.5285V13.0398C19.045 13.0919 18.9364 13.1301 18.8188 13.1544C18.7011 13.1786 18.5525 13.1908 18.373 13.1908C18.1656 13.1908 17.9801 13.1538 17.8163 13.0798C17.6526 13.0058 17.5234 12.8912 17.4288 12.7359C17.3354 12.5807 17.2887 12.3811 17.2887 12.1374C17.2887 11.8899 17.3312 11.6868 17.4161 11.5279C17.501 11.3678 17.6198 11.2495 17.7727 11.1731C17.9255 11.0955 18.1032 11.0567 18.3057 11.0567ZM18.3312 11.5406C18.2475 11.5406 18.1772 11.5673 18.1202 11.6207C18.0644 11.6728 18.0316 11.7553 18.0219 11.8681H18.6332C18.632 11.8074 18.6199 11.7523 18.5968 11.7025C18.5738 11.6528 18.5398 11.6134 18.4949 11.5843C18.4513 11.5552 18.3967 11.5406 18.3312 11.5406ZM20.6873 11.0567C20.948 11.0567 21.1518 11.1216 21.2986 11.2513C21.4453 11.3799 21.5187 11.5637 21.5187 11.8026V13.1544H21.0257L20.8892 12.8815H20.8746C20.8164 12.9542 20.7564 13.0137 20.6945 13.0598C20.6339 13.1046 20.5641 13.1374 20.4853 13.158C20.4065 13.1798 20.31 13.1908 20.196 13.1908C20.0772 13.1908 19.9704 13.1665 19.8758 13.118C19.7812 13.0695 19.7066 12.9961 19.652 12.8978C19.5975 12.7996 19.5702 12.6753 19.5702 12.5249C19.5702 12.3041 19.6466 12.1404 19.7994 12.0337C19.9522 11.9269 20.1736 11.8669 20.4635 11.8535L20.8073 11.8426V11.8135C20.8073 11.7213 20.7843 11.6558 20.7382 11.617C20.6933 11.5782 20.6327 11.5588 20.5563 11.5588C20.475 11.5588 20.384 11.5734 20.2834 11.6025C20.1839 11.6304 20.0838 11.6668 19.9832 11.7116L19.7776 11.2422C19.8964 11.1816 20.0311 11.1355 20.1815 11.104C20.3319 11.0724 20.5005 11.0567 20.6873 11.0567ZM20.811 12.2338L20.6472 12.2411C20.5162 12.2459 20.4241 12.269 20.3707 12.3102C20.3185 12.3502 20.2925 12.4078 20.2925 12.483C20.2925 12.5534 20.3113 12.6055 20.3489 12.6395C20.3865 12.6722 20.4362 12.6886 20.498 12.6886C20.5842 12.6886 20.6575 12.6613 20.7182 12.6067C20.78 12.5522 20.811 12.4812 20.811 12.3939V12.2338ZM23.0124 12.6286C23.0767 12.6286 23.1355 12.6219 23.1889 12.6086C23.2422 12.5952 23.298 12.5782 23.3562 12.5576V13.0761C23.2786 13.1101 23.1961 13.1374 23.1088 13.158C23.0227 13.1798 22.9123 13.1908 22.7777 13.1908C22.6443 13.1908 22.5266 13.1701 22.4247 13.1289C22.3228 13.0865 22.2434 13.0137 22.1864 12.9106C22.1306 12.8063 22.1027 12.6613 22.1027 12.4758V11.6261H21.8535V11.3368L22.17 11.1131L22.3538 10.6801H22.8195V11.0931H23.3253V11.6261H22.8195V12.4285C22.8195 12.4952 22.8365 12.5455 22.8705 12.5795C22.9044 12.6122 22.9517 12.6286 23.0124 12.6286ZM24.4278 10.3235V10.7255C24.4278 10.8784 24.4242 11.0069 24.4169 11.1112C24.4109 11.2143 24.4048 11.2932 24.3987 11.3478H24.4315C24.4764 11.2762 24.5273 11.2192 24.5843 11.1767C24.6413 11.1343 24.7044 11.104 24.7735 11.0858C24.8426 11.0664 24.9178 11.0567 24.9991 11.0567C25.135 11.0567 25.2575 11.0827 25.3666 11.1349C25.477 11.1871 25.5649 11.2689 25.6304 11.3805C25.6959 11.4909 25.7287 11.6352 25.7287 11.8135V13.1544H25.0137V12.03C25.0137 11.893 24.9937 11.7899 24.9536 11.7207C24.9136 11.6504 24.8517 11.6152 24.7681 11.6152C24.6819 11.6152 24.614 11.6401 24.5643 11.6898C24.5146 11.7383 24.4794 11.8099 24.4588 11.9045C24.4381 11.9979 24.4278 12.1125 24.4278 12.2483V13.1544H23.7165V10.3235H24.4278ZM13.4299 15.4945H14.3577C14.7422 15.4945 15.0163 15.5515 15.1801 15.6655C15.3438 15.7795 15.4257 15.9433 15.4257 16.1567C15.4257 16.2732 15.4045 16.372 15.362 16.4533C15.3208 16.5345 15.268 16.5988 15.2037 16.6461C15.1407 16.6934 15.0758 16.7256 15.0091 16.7426V16.7608C15.0818 16.7789 15.154 16.8093 15.2256 16.8517C15.2983 16.893 15.3584 16.9554 15.4057 17.0391C15.4542 17.1216 15.4785 17.2338 15.4785 17.3757C15.4785 17.537 15.4372 17.6759 15.3547 17.7923C15.2735 17.9088 15.157 17.9985 15.0054 18.0616C14.8538 18.1234 14.6737 18.1544 14.4651 18.1544H13.4299V15.4945ZM14.1485 16.5151H14.365C14.4839 16.5151 14.5676 16.4909 14.6161 16.4424C14.6646 16.3926 14.6889 16.3326 14.6889 16.2622C14.6889 16.1895 14.661 16.1343 14.6052 16.0967C14.5506 16.0579 14.4657 16.0385 14.3505 16.0385H14.1485V16.5151ZM14.1485 17.0409V17.5995H14.4014C14.5263 17.5995 14.6137 17.5728 14.6634 17.5194C14.7131 17.4648 14.738 17.3969 14.738 17.3157C14.738 17.2684 14.7271 17.2241 14.7052 17.1828C14.6846 17.1404 14.6488 17.1064 14.5979 17.081C14.5469 17.0543 14.4766 17.0409 14.3868 17.0409H14.1485ZM16.8266 16.0567C17.0267 16.0567 17.1996 16.0918 17.3451 16.1622C17.4907 16.2313 17.6028 16.3356 17.6817 16.4751C17.7605 16.6146 17.7999 16.7893 17.7999 16.9991V17.3157H16.5282C16.5343 17.4236 16.5743 17.5121 16.6483 17.5813C16.7235 17.6504 16.8339 17.685 16.9794 17.685C17.108 17.685 17.2256 17.6722 17.3324 17.6468C17.4403 17.6213 17.5513 17.5819 17.6653 17.5285V18.0398C17.5659 18.0919 17.4573 18.1301 17.3397 18.1544C17.222 18.1786 17.0734 18.1908 16.8939 18.1908C16.6865 18.1908 16.5009 18.1538 16.3372 18.0798C16.1734 18.0058 16.0443 17.8912 15.9497 17.7359C15.8563 17.5807 15.8096 17.3811 15.8096 17.1374C15.8096 16.8899 15.852 16.6868 15.9369 16.5279C16.0218 16.3678 16.1407 16.2495 16.2935 16.1731C16.4464 16.0955 16.624 16.0567 16.8266 16.0567ZM16.8521 16.5406C16.7684 16.5406 16.698 16.5673 16.641 16.6207C16.5852 16.6728 16.5525 16.7553 16.5428 16.8681H17.1541C17.1529 16.8074 17.1407 16.7523 17.1177 16.7025C17.0946 16.6528 17.0607 16.6134 17.0158 16.5843C16.9721 16.5552 16.9176 16.5406 16.8521 16.5406ZM19.4919 16.0567C19.7042 16.0567 19.8776 16.1167 20.0123 16.2368C20.1469 16.3569 20.2142 16.5491 20.2142 16.8135V18.1544H19.5029V17.03C19.5029 16.893 19.4828 16.7899 19.4428 16.7207C19.404 16.6504 19.3409 16.6152 19.2536 16.6152C19.119 16.6152 19.0286 16.6704 18.9825 16.7808C18.9364 16.8899 18.9134 17.047 18.9134 17.252V18.1544H18.202V16.0931H18.7387L18.8352 16.366H18.8624C18.9061 16.3005 18.9583 16.2447 19.0189 16.1986C19.0796 16.1525 19.1493 16.1173 19.2281 16.0931C19.307 16.0688 19.3949 16.0567 19.4919 16.0567ZM21.626 16.0567C21.8262 16.0567 21.999 16.0918 22.1446 16.1622C22.2901 16.2313 22.4023 16.3356 22.4811 16.4751C22.56 16.6146 22.5994 16.7893 22.5994 16.9991V17.3157H21.3277C21.3337 17.4236 21.3738 17.5121 21.4477 17.5813C21.5229 17.6504 21.6333 17.685 21.7789 17.685C21.9074 17.685 22.0251 17.6722 22.1318 17.6468C22.2398 17.6213 22.3507 17.5819 22.4648 17.5285V18.0398C22.3653 18.0919 22.2567 18.1301 22.1391 18.1544C22.0214 18.1786 21.8729 18.1908 21.6934 18.1908C21.4859 18.1908 21.3004 18.1538 21.1366 18.0798C20.9729 18.0058 20.8437 17.8912 20.7491 17.7359C20.6557 17.5807 20.609 17.3811 20.609 17.1374C20.609 16.8899 20.6515 16.6868 20.7364 16.5279C20.8213 16.3678 20.9401 16.2495 21.093 16.1731C21.2458 16.0955 21.4235 16.0567 21.626 16.0567ZM21.6515 16.5406C21.5678 16.5406 21.4975 16.5673 21.4405 16.6207C21.3847 16.6728 21.3519 16.7553 21.3422 16.8681H21.9535C21.9523 16.8074 21.9402 16.7523 21.9171 16.7025C21.8941 16.6528 21.8601 16.6134 21.8153 16.5843C21.7716 16.5552 21.717 16.5406 21.6515 16.5406ZM24.2605 16.6261H23.822V18.1544H23.1106V16.6261H22.8377V16.2768L23.1252 16.1021V16.0676C23.1252 15.8893 23.1488 15.7443 23.1961 15.6328C23.2434 15.52 23.3186 15.4369 23.4217 15.3835C23.5248 15.3301 23.6595 15.3035 23.8256 15.3035C23.9324 15.3035 24.0288 15.3119 24.1149 15.3289C24.2022 15.3459 24.2932 15.3702 24.3878 15.4017L24.235 15.862C24.1998 15.8523 24.1604 15.8438 24.1167 15.8365C24.0743 15.8292 24.0282 15.8256 23.9785 15.8256C23.9239 15.8256 23.8839 15.8426 23.8584 15.8765C23.8341 15.9093 23.822 15.9633 23.822 16.0385V16.0931H24.2605V16.6261ZM25.2556 16.0931V18.1544H24.5443V16.0931H25.2556ZM24.9027 15.2634C25.0046 15.2634 25.0931 15.2847 25.1683 15.3271C25.2447 15.3696 25.2829 15.4539 25.2829 15.58C25.2829 15.7025 25.2447 15.7856 25.1683 15.8292C25.0931 15.8717 25.0046 15.8929 24.9027 15.8929C24.7984 15.8929 24.7092 15.8717 24.6352 15.8292C24.5625 15.7856 24.5261 15.7025 24.5261 15.58C24.5261 15.4539 24.5625 15.3696 24.6352 15.3271C24.7092 15.2847 24.7984 15.2634 24.9027 15.2634ZM26.7621 17.6286C26.8263 17.6286 26.8852 17.6219 26.9385 17.6086C26.9919 17.5952 27.0477 17.5782 27.1059 17.5576V18.0761C27.0283 18.1101 26.9458 18.1374 26.8585 18.158C26.7724 18.1798 26.662 18.1908 26.5274 18.1908C26.3939 18.1908 26.2763 18.1701 26.1744 18.1289C26.0725 18.0865 25.9931 18.0137 25.9361 17.9106C25.8803 17.8063 25.8524 17.6613 25.8524 17.4758V16.6261H25.6031V16.3368L25.9197 16.1131L26.1035 15.6801H26.5692V16.0931H27.075V16.6261H26.5692V17.4285C26.5692 17.4952 26.5862 17.5455 26.6202 17.5795C26.6541 17.6122 26.7014 17.6286 26.7621 17.6286Z" fill="#1B457B"/>
<path d="M44.5067 6.35977L46.5495 4.31702L47.5708 5.3384L45.5281 7.38115L44.5067 6.35977Z" fill="#A4AFC1"/>
<path d="M38.6337 12.2305L40.6764 10.1877L41.6978 11.2091L39.655 13.2518L38.6337 12.2305Z" fill="#A4AFC1"/>
<path d="M38.6267 5.07072L39.6481 4.04935L41.6908 6.0921L40.6695 7.11348L38.6267 5.07072Z" fill="#A4AFC1"/>
<path d="M44.5061 10.9553L45.5275 9.93396L47.5702 11.9767L46.5489 12.9981L44.5061 10.9553Z" fill="#A4AFC1"/>
<path d="M2.30558 4.83095C1.11103 4.83095 0.138916 3.85884 0.138916 2.66429C0.138916 1.46973 1.11103 0.49762 2.30558 0.49762C3.50014 0.49762 4.47225 1.46973 4.47225 2.66429C4.47225 3.85884 3.50014 4.83095 2.30558 4.83095ZM2.30558 1.94206C1.90692 1.94206 1.58336 2.26706 1.58336 2.66429C1.58336 3.06151 1.90692 3.38651 2.30558 3.38651C2.70425 3.38651 3.02781 3.06151 3.02781 2.66429C3.02781 2.26706 2.70425 1.94206 2.30558 1.94206Z" fill="#A4AFC1"/>
</svg>
