<svg width="399" height="230" viewBox="0 0 399 230" fill="none" xmlns="http://www.w3.org/2000/svg">
<g clip-path="url(#clip0_34_12)">
<path opacity="0.2" d="M118.682 15.3085C114.677 15.8307 110.324 16.7098 107.677 20.2097C104.547 24.3475 104.967 30.6368 106.384 35.8752C107.802 41.1135 110.043 46.2196 110.02 51.7058C109.957 60.4276 104.002 67.8306 97.2231 71.7338C90.4447 75.6369 82.7938 76.8961 75.4766 79.1732C68.6522 81.3072 62.1258 84.2978 56.0535 88.0734C50.9011 91.2693 45.7189 95.4467 43.6567 101.753C40.2757 112.094 46.4956 123.069 52.6395 131.56C71.4777 157.593 95.4914 182.572 124.846 185.1C146.774 186.974 168.726 175.882 190.416 179.951C200.38 181.815 209.664 186.779 219.017 191.151C228.37 195.524 238.209 199.414 248.292 198.918C258.375 198.422 268.832 192.705 273.201 182.231C275.782 176.041 276.044 168.863 278.43 162.57C285.74 143.266 308.525 140.133 321.744 125.604C328.685 117.973 332.651 107.493 335.956 97.1091C341.293 80.2142 345.295 62.4072 344.403 44.4449C344.013 36.6254 342.552 28.5051 338.213 22.4703C335.057 18.0781 330.651 15.1631 326.348 12.344C316.552 5.92579 306.036 -0.700618 294.783 0.062823C288.298 0.50238 282.164 3.38759 275.977 5.64817C264.192 9.9446 251.898 12.073 239.666 14.1716C219.456 17.6418 198.956 21.112 178.472 19.3802C169.426 18.6101 160.883 15.5366 151.983 14.2774C141.159 12.7472 129.463 13.9039 118.682 15.3085Z" fill="#FFEEF4"/>
<path opacity="0.5" d="M281.92 68.7328C288.856 68.7328 294.479 63.1101 294.479 56.1741C294.479 49.238 288.856 43.6153 281.92 43.6153C274.984 43.6153 269.361 49.238 269.361 56.1741C269.361 63.1101 274.984 68.7328 281.92 68.7328Z" fill="#D4E1F7"/>
<path d="M242.37 100.51H127.447L134.014 80.3001H137.534L138.238 85.5418H229.236L229.705 80.3001H233.925L242.37 100.51Z" fill="#D4E1F7"/>
<path opacity="0.2" d="M242.37 100.51H127.447L134.014 80.3001H137.534L138.238 85.5418H229.236L229.705 80.3001H233.925L242.37 100.51Z" fill="black"/>
<path d="M250.344 105.001H117.129L113.844 96.7687H253.16L250.344 105.001Z" fill="#D4E1F7"/>
<path d="M246.124 110.243H120.411L117.129 105.001H250.344L246.124 110.243Z" fill="#D4E1F7"/>
<path d="M246.121 108.746H120.411V114.734H246.121V108.746Z" fill="#D4E1F7"/>
<path d="M346.036 200.065L20.499 197.821L29.8817 144.674H338.999L346.036 200.065Z" fill="#D4E1F7"/>
<g opacity="0.2">
<path opacity="0.2" d="M112.707 183.599H116.865C118.179 183.599 119.44 184.122 120.37 185.051C121.3 185.981 121.822 187.242 121.822 188.557V198.571H107.75V188.557C107.75 187.242 108.272 185.981 109.202 185.051C110.131 184.122 111.392 183.599 112.707 183.599Z" fill="black"/>
<path opacity="0.2" d="M143.195 183.6H147.353C148.667 183.6 149.928 184.122 150.858 185.052C151.788 185.981 152.31 187.242 152.31 188.557V198.571H138.238V188.557C138.238 187.242 138.76 185.981 139.69 185.052C140.619 184.122 141.88 183.6 143.195 183.6Z" fill="black"/>
<path opacity="0.2" d="M181.189 183.6H185.346C186.661 183.6 187.922 184.122 188.852 185.052C189.781 185.981 190.304 187.242 190.304 188.557V198.571H176.231V188.557C176.231 187.242 176.753 185.981 177.683 185.052C178.613 184.122 179.874 183.6 181.189 183.6Z" fill="black"/>
<path opacity="0.2" d="M220.59 183.6H224.744C226.059 183.6 227.32 184.122 228.25 185.052C229.18 185.981 229.702 187.242 229.702 188.557V198.571H215.633V188.557C215.633 187.242 216.155 185.981 217.085 185.052C218.014 184.122 219.275 183.6 220.59 183.6Z" fill="black"/>
<path opacity="0.2" d="M252.02 183.6H256.178C257.493 183.6 258.753 184.122 259.683 185.052C260.613 185.981 261.135 187.242 261.135 188.557V198.571H247.063V188.557C247.063 187.242 247.585 185.981 248.515 185.052C249.444 184.122 250.705 183.6 252.02 183.6Z" fill="black"/>
</g>
<path opacity="0.2" d="M190.773 146.921H175.762V176.864H190.773V146.921Z" fill="black"/>
<path d="M115.252 124.464H112.905V146.921H115.252V124.464Z" fill="#D4E1F7"/>
<path d="M128.855 124.464H126.508V146.921H128.855V124.464Z" fill="#D4E1F7"/>
<path d="M143.866 124.464H141.519V146.921H143.866V124.464Z" fill="#D4E1F7"/>
<path d="M158.408 124.464H156.061V146.921H158.408V124.464Z" fill="#D4E1F7"/>
<path d="M174.357 124.464H172.011V146.921H174.357V124.464Z" fill="#D4E1F7"/>
<path d="M195.932 124.464H193.585V146.921H195.932V124.464Z" fill="#D4E1F7"/>
<path d="M210.474 124.464H208.127V146.921H210.474V124.464Z" fill="#D4E1F7"/>
<path d="M226.893 124.464H224.546V146.921H226.893V124.464Z" fill="#D4E1F7"/>
<path d="M240.965 124.464H238.618V146.921H240.965V124.464Z" fill="#D4E1F7"/>
<path d="M255.976 124.464H253.63V146.921H255.976V124.464Z" fill="#D4E1F7"/>
<path d="M255.973 125.961H112.905L104.464 118.475H263.948L255.973 125.961Z" fill="#D4E1F7"/>
<path d="M118.533 125.961H112.905V128.955H118.533V125.961Z" fill="#D4E1F7"/>
<path d="M130.732 125.961H125.104V128.955H130.732V125.961Z" fill="#D4E1F7"/>
<path d="M145.27 125.961H139.642V128.955H145.27V125.961Z" fill="#D4E1F7"/>
<path d="M160.282 125.961H154.653V128.955H160.282V125.961Z" fill="#D4E1F7"/>
<path d="M176.231 125.961H170.603V128.955H176.231V125.961Z" fill="#D4E1F7"/>
<path d="M197.34 125.961H191.711V128.955H197.34V125.961Z" fill="#D4E1F7"/>
<path d="M212.351 125.961H206.723V128.955H212.351V125.961Z" fill="#D4E1F7"/>
<path d="M228.766 125.961H223.138V128.955H228.766V125.961Z" fill="#D4E1F7"/>
<path d="M255.973 125.961H250.344V128.955H255.973V125.961Z" fill="#D4E1F7"/>
<path d="M264.886 118.475H103.995L102.118 113.237H266.294L264.886 118.475Z" fill="#D4E1F7"/>
<path d="M183.267 116.978C185.339 116.978 187.018 114.297 187.018 110.99C187.018 107.682 185.339 105.001 183.267 105.001C181.196 105.001 179.516 107.682 179.516 110.99C179.516 114.297 181.196 116.978 183.267 116.978Z" fill="#D4E1F7"/>
<path opacity="0.2" d="M183.267 116.978C185.339 116.978 187.018 114.297 187.018 110.99C187.018 107.682 185.339 105.001 183.267 105.001C181.196 105.001 179.516 107.682 179.516 110.99C179.516 114.297 181.196 116.978 183.267 116.978Z" fill="black"/>
<path d="M183.267 114.731C184.563 114.731 185.614 113.056 185.614 110.99C185.614 108.924 184.563 107.249 183.267 107.249C181.971 107.249 180.921 108.924 180.921 110.99C180.921 113.056 181.971 114.731 183.267 114.731Z" fill="#D4E1F7"/>
<path d="M238.186 197.348L222.097 185.001C222.097 185.001 220.798 179.855 220.279 176.252C219.761 172.65 218.981 157.216 218.981 157.216C219.35 155.88 219.594 154.512 219.711 153.131C219.87 153.098 220.041 153.058 220.19 153.015C221.393 152.709 222.508 152.128 223.448 151.317C224.387 150.507 225.127 149.49 225.607 148.346C227.259 144.234 225.124 139.376 222.421 136.117C219.718 132.859 216.317 130.241 214.539 126.202C212.344 121.225 213.094 115.21 211.974 109.764C211.867 109 211.582 108.273 211.145 107.639C210.45 106.776 209.363 106.588 208.392 106.244C205.325 105.157 203.024 102.176 201.23 99.0656C198.325 94.0255 195.317 86.3614 189.332 85.9251C187.108 85.7632 184.784 86.5134 182.537 86.5068C179.05 86.5068 175.597 86.5498 172.14 87.029C170.904 87.1975 169.621 87.4289 168.59 88.2452C165.051 91.0445 166.653 98.4442 163.243 101.465C162.228 102.361 160.929 102.681 159.782 103.296C155.46 105.609 153.539 111.78 153.794 117.332C153.913 119.933 154.455 122.643 155.992 124.543C157.208 126.064 158.943 126.936 160.077 128.539C161.908 131.127 161.66 134.557 161.461 138.047C159.016 139.072 157.053 140.248 156.435 141.514C154.359 145.758 154.617 160.293 154.617 160.293C154.617 160.293 155.397 184.088 149.428 187.063L127.11 202.497C127.11 202.497 111.279 188.735 107.386 196.839C104.722 202.381 114.442 205.518 120.85 206.945C116.808 209.814 114.571 215.115 116.468 218.708C119.442 224.366 127.758 228.226 127.758 228.226C127.758 228.226 159.468 229.756 174.126 226.471H174.367C180.59 227.598 189.52 228.784 196.682 228.071C196.818 228.401 196.913 228.613 196.913 228.613C196.913 228.613 242.852 232.473 251.151 216.778C255.411 208.73 250.966 205.012 245.625 203.3C251.604 202.824 258.412 201.152 259.195 196.069C260.633 186.802 238.186 197.348 238.186 197.348ZM233.559 202.269C225.154 205.333 218.329 205.504 214.697 205.273C212.909 201.383 205.47 184.521 205.275 173.238C205.321 170.72 205.771 168.519 206.775 166.866C208.94 163.307 209.578 160.518 209.505 158.396C209.505 158.237 209.505 158.085 209.505 157.933C209.515 157.285 209.452 156.637 209.317 156.003C209.674 156.875 209.78 157.83 209.624 158.759C208.844 162.748 210.923 188.6 210.923 188.6C210.923 188.6 212.609 194.387 216.112 196.059L233.559 202.269ZM151.249 200.441L159.293 195.296C159.293 195.296 163.058 193.501 163.438 189.115L166.082 168.218C166.263 169.114 166.502 169.997 166.796 170.862C167.265 172.234 167.457 174.243 167.493 176.636C167.404 188.286 163.438 207.639 163.438 207.639H163.487L163.458 207.778L163.177 207.795C156.649 207.597 141.44 207.028 132.923 205.848L151.249 200.441ZM137.154 212.623V212.67H135.171L137.154 212.623Z" fill="url(#paint0_linear_34_12)"/>
<path d="M200.625 101.168C202.36 104.201 204.591 107.116 207.549 108.167C208.487 108.498 209.532 108.686 210.193 109.526C210.615 110.146 210.889 110.855 210.992 111.598C212.073 116.909 211.349 122.775 213.471 127.627C215.19 131.556 218.478 134.118 221.092 137.287C223.707 140.457 225.759 145.196 224.173 149.202C223.714 150.312 223.005 151.3 222.101 152.09C221.197 152.881 220.122 153.451 218.961 153.756C216.773 154.347 214.489 154.086 212.268 153.706C209.34 153.187 206.359 152.384 203.92 150.401C199.699 146.974 197.915 140.817 195.707 135.344C194.669 132.779 193.291 130.092 191.011 129.174C188.397 128.123 185.462 129.878 183.766 132.452C182.071 135.027 181.317 138.262 180.498 141.375C179.572 144.889 178.399 148.541 175.967 150.837C174.912 151.867 173.581 152.568 172.136 152.858C170.691 153.147 169.193 153.011 167.823 152.467C165.113 151.337 162.968 148.481 162.347 145.166C161.385 140.057 163.689 133.929 160.863 129.891C159.766 128.328 158.09 127.475 156.897 125.994C155.426 124.14 154.888 121.5 154.772 118.965C154.524 113.551 156.382 107.52 160.559 105.279C161.676 104.681 162.922 104.367 163.904 103.494C167.209 100.559 165.652 93.3447 169.073 90.6049C170.064 89.8084 171.307 89.587 172.503 89.4185C175.854 88.9525 179.182 88.8996 182.553 88.9095C184.728 88.9095 186.972 88.1857 189.124 88.3444C194.911 88.7806 197.809 96.2531 200.625 101.168Z" fill="#965D7B"/>
<path d="M138.581 210.578L139.847 225.572L228.38 225.047L226.694 208.677L196.761 205.194L144.272 208.36L138.581 210.578Z" fill="#575988"/>
<path opacity="0.05" d="M138.581 210.578L139.847 225.572L228.38 225.047L226.694 208.677L196.761 205.194L144.272 208.36L138.581 210.578Z" fill="black"/>
<path d="M196.837 221.061L167.364 223.82C167.364 223.82 187.557 228.963 199.346 226.464L196.837 221.061Z" fill="#F7C4A7"/>
<path opacity="0.1" d="M196.837 221.061L167.364 223.82C167.364 223.82 187.557 228.963 199.346 226.464L196.837 221.061Z" fill="black"/>
<path d="M174.387 115.458C174.387 115.458 180.157 130.634 171.627 137.406C163.097 144.178 170.124 163.119 170.124 163.119L202.985 161.615C202.985 161.615 206.247 140.295 204.488 135.777C204.488 135.777 196.712 138.034 194.957 133.268C193.202 128.503 191.946 115.458 191.946 115.458H174.387Z" fill="#F7C4A7"/>
<path d="M166.862 207.263C166.862 207.263 139.143 206.635 130.993 204.619C122.843 202.603 115.817 212.27 118.702 217.789C121.587 223.308 129.608 227.069 129.608 227.069C129.608 227.069 170.87 229.075 179.777 223.434C179.777 223.434 183.165 213.777 179.777 211.896H136.764L168.491 211.268L166.862 207.263Z" fill="#003366"/>
<path d="M210.887 204.381C210.887 204.381 220.167 206.387 232.96 201.37C232.96 201.37 256.915 200.617 248.89 215.912C240.866 231.207 196.464 227.449 196.464 227.449C196.464 227.449 193.82 221.805 196.464 220.301C199.108 218.797 222.051 209.14 229.183 209.639L209.353 213.526L210.887 204.381Z" fill="#003366"/>
<path opacity="0.1" d="M193.083 122.759C192.604 119.186 192.323 116.274 192.323 116.274H174.764C175.575 118.574 176.137 120.954 176.443 123.373C178.905 125.097 181.862 125.97 184.866 125.859C187.87 125.748 190.755 124.66 193.083 122.759Z" fill="black"/>
<path d="M183.981 125.049C191.6 125.049 197.776 118.873 197.776 111.254C197.776 103.636 191.6 97.4594 183.981 97.4594C176.363 97.4594 170.186 103.636 170.186 111.254C170.186 118.873 176.363 125.049 183.981 125.049Z" fill="#F7C4A7"/>
<path d="M175.894 135.275C175.894 135.275 159.34 138.411 157.334 142.545C155.327 146.68 155.579 160.858 155.579 160.858C155.579 160.858 156.332 184.062 150.562 186.944L128.99 201.995C128.99 201.995 113.688 188.573 109.927 196.475C106.166 204.378 127.989 207.263 127.989 207.263L152.32 199.992L160.096 194.975C160.096 194.975 163.732 193.22 164.109 188.953L167.371 163.115L180.415 159.354H201.478L204.3 151.297C204.3 151.297 209.505 155.468 208.752 159.354C207.998 163.241 210.004 188.438 210.004 188.438C210.004 188.438 211.634 194.083 215.021 195.709L234.59 202.755C234.59 202.755 255.285 204.761 256.663 195.732C258.042 186.703 236.345 196.984 236.345 196.984L220.792 184.944C220.792 184.944 219.539 179.928 219.037 176.414C218.534 172.901 217.784 157.854 217.784 157.854C217.784 157.854 222.55 142.05 208.755 139.293L190.945 133.774L175.894 135.275Z" fill="#F7C4A7"/>
<path opacity="0.1" d="M164.793 138.47L167.364 155.464C167.364 155.464 164.72 163.367 167.364 171.143C170.008 178.92 164.099 207.891 164.099 207.891C164.099 207.891 195.076 217.806 214.003 206.387C214.003 206.387 200.083 177.039 205.976 167.256C211.868 157.474 206.071 153.647 206.071 153.647L206.997 135.665L202.733 134.412L200.225 152.189C200.225 152.189 182.917 164.229 170.124 153.693L167.364 134.379L164.793 138.47Z" fill="black"/>
<path opacity="0.07" d="M182.686 158.67C181.346 156.529 179.257 154.964 176.825 154.28C174.394 153.596 171.795 153.843 169.535 154.972C173.736 158.115 178.366 158.954 182.686 158.67Z" fill="white"/>
<path opacity="0.07" d="M189.795 156.786C191.134 154.645 193.224 153.08 195.655 152.396C198.087 151.712 200.686 151.959 202.945 153.088C198.748 156.231 194.114 157.074 189.795 156.786Z" fill="white"/>
<path opacity="0.1" d="M164.793 138.47L167.364 154.585C167.364 154.585 164.72 162.487 167.364 170.264C170.008 178.04 164.099 207.012 164.099 207.012C164.099 207.012 195.076 216.926 214.003 205.508C214.003 205.508 200.083 176.16 205.976 166.377C211.868 156.595 206.071 152.768 206.071 152.768L206.977 134.772L202.714 133.52L200.205 151.33C200.205 151.33 182.897 163.37 170.104 152.834L167.344 133.52L164.793 138.47Z" fill="black"/>
<path d="M164.667 138.345L167.364 154.836C167.364 154.836 164.72 162.739 167.364 170.515C170.008 178.292 164.099 207.263 164.099 207.263C164.099 207.263 195.076 217.178 214.003 205.759C214.003 205.759 200.083 176.411 205.976 166.628C211.868 156.846 206.071 153.019 206.071 153.019L206.977 135.023L202.714 133.771L200.205 151.581C200.205 151.581 182.897 163.621 170.104 153.085L167.344 133.771L164.667 138.345Z" fill="#FF0000"/>
<path d="M177.398 213.41L183.928 212.531C183.928 212.531 191.454 202.874 196.847 210.274C196.847 210.274 199.105 215.039 201.864 215.918C203.751 216.489 205.681 216.907 207.635 217.171L196.474 220.307C196.474 220.307 191.583 223.193 186.44 222.439C183.413 221.978 180.32 222.236 177.411 223.193L177.398 213.41Z" fill="#F7C4A7"/>
<path opacity="0.1" d="M170.186 172.458C170.186 172.458 181.975 174.213 183.981 171.08L170.186 172.458Z" fill="black"/>
<path opacity="0.1" d="M192.521 170.452C192.521 170.452 194.779 172.71 203.808 171.08L192.521 170.452Z" fill="black"/>
<path opacity="0.1" d="M169.558 135.46C169.558 135.46 178.211 136.712 179.843 135.962L169.558 135.46Z" fill="black"/>
<path opacity="0.1" d="M188.625 135.46C188.625 135.46 197.277 136.712 198.91 135.962L188.625 135.46Z" fill="black"/>
<path opacity="0.1" d="M178.34 212.468C178.34 212.468 180.723 223.705 178.34 224.101C175.957 224.498 172.569 222.251 172.569 221.999C172.569 221.748 174.073 214.6 174.073 214.6L178.34 212.468Z" fill="black"/>
<path d="M178.089 212.468C178.089 212.468 180.471 223.705 178.089 224.101C175.706 224.498 172.318 222.251 172.318 221.999C172.318 221.748 173.822 214.6 173.822 214.6L178.089 212.468Z" fill="#575988"/>
<path opacity="0.1" d="M166.445 133.817C165.394 136.259 165.021 139.141 166.138 141.554C166.991 143.395 168.656 144.885 168.977 146.888C169.38 149.4 167.519 151.955 168.213 154.4C168.478 155.339 169.096 156.132 169.724 156.876C171.634 159.133 174.172 161.317 177.12 161.142C177.586 156.588 173.65 152.169 174.939 147.777C175.402 146.204 176.486 144.895 177.14 143.395C178.227 140.906 178.072 138.064 177.679 135.377C177.107 131.48 175.659 126.698 171.796 124.874C170.018 124.034 167.5 123.975 166.865 126.252C166.534 127.468 167.328 128.612 167.437 129.802C167.576 131.312 167.03 132.459 166.445 133.817Z" fill="black"/>
<path d="M166.445 133.44C165.394 135.883 165.021 138.765 166.138 141.177C166.991 143.018 168.656 144.509 168.977 146.511C169.38 149.023 167.519 151.578 168.213 154.023C168.478 154.962 169.096 155.755 169.724 156.499C171.634 158.756 174.172 160.941 177.12 160.766C177.586 156.211 173.65 151.793 174.939 147.4C175.402 145.827 176.486 144.518 177.14 143.018C178.227 140.529 178.072 137.687 177.679 135C177.107 131.104 175.659 126.321 171.796 124.497C170.018 123.658 167.5 123.598 166.865 125.875C166.534 127.092 167.328 128.235 167.437 129.425C167.576 130.938 167.03 132.085 166.445 133.44Z" fill="#965D7B"/>
<path opacity="0.1" d="M167.427 104.482C167.427 104.482 185.739 101.974 186.238 105.735C186.738 109.496 202.919 115.65 202.919 115.65L198.906 105.735L191.507 93.4439C191.507 93.4439 177.956 92.4524 177.335 93.4439C176.714 94.4354 169.558 97.7073 169.558 97.7073L167.427 104.482Z" fill="black"/>
<path d="M167.427 104.231C167.427 104.231 185.739 101.723 186.238 105.484C186.738 109.245 202.919 115.399 202.919 115.399L198.906 105.484L191.507 93.196C191.507 93.196 177.956 92.2046 177.335 93.196C176.714 94.1875 169.558 97.4594 169.558 97.4594L167.427 104.231Z" fill="#965D7B"/>
<path opacity="0.1" d="M199.293 131.038C200.184 132.104 200.813 133.364 201.131 134.716C201.435 136.008 201.445 137.36 201.735 138.655C202.353 141.415 204.178 143.735 206.085 145.824C206.702 146.581 207.455 147.215 208.306 147.695C209.178 148.124 210.289 148.213 211.098 147.695C210.332 147.067 209.915 146.105 209.641 145.15C209.255 143.818 209.083 142.434 209.132 141.048C209.214 138.735 209.892 136.292 208.93 134.184C208.375 132.968 207.341 132.042 206.286 131.209C205.554 130.614 204.763 130.094 203.927 129.656C202.37 128.879 200.582 128.539 198.863 128.371C196.623 128.139 198.582 130.185 199.293 131.038Z" fill="black"/>
<path d="M199.293 130.658C200.184 131.726 200.814 132.988 201.131 134.343C201.435 135.635 201.445 136.986 201.735 138.282C202.353 141.042 204.178 143.362 206.085 145.45C206.702 146.207 207.455 146.842 208.306 147.321C209.178 147.751 210.289 147.84 211.098 147.321C210.332 146.693 209.915 145.731 209.641 144.776C209.255 143.445 209.083 142.06 209.132 140.675C209.214 138.361 209.892 135.919 208.93 133.81C208.375 132.594 207.341 131.669 206.286 130.836C205.554 130.24 204.763 129.72 203.927 129.283C202.37 128.506 200.582 128.166 198.863 127.997C196.623 127.762 198.582 129.808 199.293 130.658Z" fill="#965D7B"/>
<path opacity="0.1" d="M191.093 54.667H188.82C189.035 54.6768 189.249 54.6429 189.451 54.5673C189.653 54.4918 189.837 54.3762 189.993 54.2274C190.148 54.0787 190.272 53.8999 190.357 53.702C190.441 53.504 190.485 53.291 190.485 53.0757C190.485 52.8604 190.441 52.6473 190.357 52.4493C190.272 52.2514 190.148 52.0726 189.993 51.9239C189.837 51.7752 189.653 51.6595 189.451 51.584C189.249 51.5084 189.035 51.4745 188.82 51.4843H170.401C169.992 51.503 169.605 51.6788 169.322 51.9752C169.039 52.2716 168.881 52.6657 168.881 53.0757C168.881 53.4856 169.039 53.8797 169.322 54.1761C169.605 54.4725 169.992 54.6483 170.401 54.667H172.675C172.46 54.6572 172.245 54.6911 172.043 54.7666C171.842 54.8422 171.658 54.9578 171.502 55.1065C171.346 55.2553 171.222 55.434 171.138 55.632C171.053 55.83 171.009 56.043 171.009 56.2583C171.009 56.4736 171.053 56.6867 171.138 56.8846C171.222 57.0826 171.346 57.2614 171.502 57.4101C171.658 57.5588 171.842 57.6745 172.043 57.75C172.245 57.8256 172.46 57.8594 172.675 57.8496H169.492C169.277 57.8398 169.062 57.8737 168.861 57.9493C168.659 58.0248 168.475 58.1405 168.319 58.2892C168.164 58.4379 168.04 58.6167 167.955 58.8146C167.87 59.0126 167.827 59.2257 167.827 59.441C167.827 59.6563 167.87 59.8693 167.955 60.0673C168.04 60.2653 168.164 60.444 168.319 60.5927C168.475 60.7415 168.659 60.8571 168.861 60.9327C169.062 61.0082 169.277 61.0421 169.492 61.0323H187.911C188.126 61.0421 188.341 61.0082 188.542 60.9327C188.744 60.8571 188.928 60.7415 189.084 60.5927C189.239 60.444 189.363 60.2653 189.448 60.0673C189.533 59.8693 189.576 59.6563 189.576 59.441C189.576 59.2257 189.533 59.0126 189.448 58.8146C189.363 58.6167 189.239 58.4379 189.084 58.2892C188.928 58.1405 188.744 58.0248 188.542 57.9493C188.341 57.8737 188.126 57.8398 187.911 57.8496H191.093C191.308 57.8594 191.523 57.8256 191.725 57.75C191.927 57.6745 192.111 57.5588 192.266 57.4101C192.422 57.2614 192.546 57.0826 192.631 56.8846C192.715 56.6867 192.759 56.4736 192.759 56.2583C192.759 56.043 192.715 55.83 192.631 55.632C192.546 55.434 192.422 55.2553 192.266 55.1065C192.111 54.9578 191.927 54.8422 191.725 54.7666C191.523 54.6911 191.308 54.6572 191.093 54.667Z" fill="white"/>
<path opacity="0.1" d="M280.327 54.667H278.053C278.268 54.6768 278.483 54.6429 278.685 54.5673C278.886 54.4918 279.07 54.3762 279.226 54.2274C279.382 54.0787 279.506 53.8999 279.59 53.702C279.675 53.504 279.719 53.291 279.719 53.0757C279.719 52.8604 279.675 52.6473 279.59 52.4493C279.506 52.2514 279.382 52.0726 279.226 51.9239C279.07 51.7752 278.886 51.6595 278.685 51.584C278.483 51.5084 278.268 51.4745 278.053 51.4843H259.635C259.225 51.503 258.839 51.6788 258.555 51.9752C258.272 52.2716 258.114 52.6657 258.114 53.0757C258.114 53.4856 258.272 53.8797 258.555 54.1761C258.839 54.4725 259.225 54.6483 259.635 54.667H261.908C261.693 54.6572 261.478 54.6911 261.277 54.7666C261.075 54.8422 260.891 54.9578 260.735 55.1065C260.58 55.2553 260.456 55.434 260.371 55.632C260.286 55.83 260.243 56.043 260.243 56.2583C260.243 56.4736 260.286 56.6867 260.371 56.8846C260.456 57.0826 260.58 57.2614 260.735 57.4101C260.891 57.5588 261.075 57.6745 261.277 57.75C261.478 57.8256 261.693 57.8594 261.908 57.8496H258.726C258.511 57.8398 258.296 57.8737 258.094 57.9493C257.893 58.0248 257.708 58.1405 257.553 58.2892C257.397 58.4379 257.273 58.6167 257.188 58.8146C257.104 59.0126 257.06 59.2257 257.06 59.441C257.06 59.6563 257.104 59.8693 257.188 60.0673C257.273 60.2653 257.397 60.444 257.553 60.5927C257.708 60.7415 257.893 60.8571 258.094 60.9327C258.296 61.0082 258.511 61.0421 258.726 61.0323H277.144C277.359 61.0421 277.574 61.0082 277.776 60.9327C277.977 60.8571 278.161 60.7415 278.317 60.5927C278.473 60.444 278.597 60.2653 278.681 60.0673C278.766 59.8693 278.81 59.6563 278.81 59.441C278.81 59.2257 278.766 59.0126 278.681 58.8146C278.597 58.6167 278.473 58.4379 278.317 58.2892C278.161 58.1405 277.977 58.0248 277.776 57.9493C277.574 57.8737 277.359 57.8398 277.144 57.8496H280.327C280.542 57.8594 280.757 57.8256 280.958 57.75C281.16 57.6745 281.344 57.5588 281.5 57.4101C281.655 57.2614 281.779 57.0826 281.864 56.8846C281.949 56.6867 281.992 56.4736 281.992 56.2583C281.992 56.043 281.949 55.83 281.864 55.632C281.779 55.434 281.655 55.2553 281.5 55.1065C281.344 54.9578 281.16 54.8422 280.958 54.7666C280.757 54.6911 280.542 54.6572 280.327 54.667Z" fill="white"/>
<path opacity="0.1" d="M90.2927 95.3178H88.0189C88.234 95.3276 88.4488 95.2937 88.6505 95.2181C88.8521 95.1426 89.0363 95.0269 89.1919 94.8782C89.3476 94.7295 89.4715 94.5507 89.5562 94.3528C89.6408 94.1548 89.6844 93.9417 89.6844 93.7264C89.6844 93.5111 89.6408 93.2981 89.5562 93.1001C89.4715 92.9021 89.3476 92.7234 89.1919 92.5747C89.0363 92.4259 88.8521 92.3103 88.6505 92.2347C88.4488 92.1592 88.234 92.1253 88.0189 92.1351H69.6005C69.191 92.1538 68.8045 92.3296 68.5213 92.626C68.2381 92.9223 68.0801 93.3165 68.0801 93.7264C68.0801 94.1364 68.2381 94.5305 68.5213 94.8269C68.8045 95.1233 69.191 95.2991 69.6005 95.3178H71.8743C71.4648 95.3364 71.0783 95.5122 70.7951 95.8086C70.5119 96.105 70.3539 96.4992 70.3539 96.9091C70.3539 97.319 70.5119 97.7132 70.7951 98.0095C71.0783 98.3059 71.4648 98.4817 71.8743 98.5004H68.6916C68.4766 98.4906 68.2617 98.5245 68.0601 98.6001C67.8585 98.6756 67.6743 98.7912 67.5186 98.94C67.363 99.0887 67.2391 99.2675 67.1544 99.4654C67.0698 99.6634 67.0261 99.8764 67.0261 100.092C67.0261 100.307 67.0698 100.52 67.1544 100.718C67.2391 100.916 67.363 101.095 67.5186 101.244C67.6743 101.392 67.8585 101.508 68.0601 101.583C68.2617 101.659 68.4766 101.693 68.6916 101.683H87.1101C87.3251 101.693 87.54 101.659 87.7416 101.583C87.9432 101.508 88.1274 101.392 88.2831 101.244C88.4387 101.095 88.5626 100.916 88.6473 100.718C88.732 100.52 88.7756 100.307 88.7756 100.092C88.7756 99.8764 88.732 99.6634 88.6473 99.4654C88.5626 99.2675 88.4387 99.0887 88.2831 98.94C88.1274 98.7912 87.9432 98.6756 87.7416 98.6001C87.54 98.5245 87.3251 98.4906 87.1101 98.5004H90.2927C90.7022 98.4817 91.0888 98.3059 91.372 98.0095C91.6551 97.7132 91.8132 97.319 91.8132 96.9091C91.8132 96.4992 91.6551 96.105 91.372 95.8086C91.0888 95.5122 90.7022 95.3364 90.2927 95.3178Z" fill="white"/>
<path d="M281.17 223.123C281.17 223.123 273.016 195.441 282.7 175.066C286.765 166.516 288.113 156.915 286.236 147.635C285.338 143.229 284.039 138.914 282.353 134.746" stroke="#535461" stroke-width="0.660988" stroke-miterlimit="10"/>
<path d="M288.364 121.886C288.364 125.28 282.221 135.106 282.221 135.106C282.221 135.106 276.077 125.267 276.077 121.886C276.058 121.068 276.203 120.253 276.503 119.492C276.803 118.73 277.252 118.036 277.824 117.45C278.397 116.864 279.08 116.399 279.835 116.081C280.59 115.763 281.4 115.6 282.219 115.6C283.038 115.6 283.848 115.763 284.603 116.081C285.358 116.399 286.041 116.864 286.613 117.45C287.186 118.036 287.635 118.73 287.935 119.492C288.235 120.253 288.38 121.068 288.361 121.886H288.364Z" fill="#D4E1F7"/>
<path d="M298.53 140.678C296.686 143.527 286.183 148.445 286.183 148.445C286.183 148.445 286.375 136.848 288.219 133.999C289.124 132.676 290.509 131.759 292.081 131.443C293.652 131.127 295.285 131.438 296.63 132.309C297.975 133.18 298.927 134.542 299.282 136.105C299.637 137.668 299.367 139.308 298.53 140.675V140.678Z" fill="#D4E1F7"/>
<path d="M298.084 172.792C295.054 174.319 283.506 173.265 283.506 173.265C283.506 173.265 289.525 163.35 292.555 161.823C293.277 161.441 294.068 161.206 294.882 161.133C295.696 161.06 296.516 161.15 297.295 161.398C298.074 161.646 298.795 162.047 299.417 162.577C300.039 163.107 300.548 163.756 300.916 164.486C301.284 165.215 301.503 166.011 301.56 166.826C301.616 167.641 301.51 168.46 301.247 169.233C300.983 170.007 300.568 170.72 300.026 171.331C299.483 171.942 298.824 172.439 298.088 172.792H298.084Z" fill="#D4E1F7"/>
<path d="M292.278 197.014C289.551 199.03 277.987 199.942 277.987 199.942C277.987 199.942 282.244 189.155 284.97 187.136C285.618 186.648 286.357 186.294 287.142 186.093C287.928 185.892 288.746 185.849 289.548 185.966C290.351 186.083 291.122 186.357 291.818 186.774C292.514 187.19 293.12 187.74 293.603 188.392C294.085 189.044 294.433 189.785 294.628 190.572C294.822 191.359 294.859 192.177 294.736 192.979C294.613 193.781 294.332 194.55 293.91 195.242C293.488 195.935 292.933 196.537 292.278 197.014Z" fill="#D4E1F7"/>
<path d="M273.284 149.102C275.716 151.465 287.056 153.914 287.056 153.914C287.056 153.914 284.28 142.654 281.847 140.288C280.67 139.198 279.114 138.612 277.51 138.654C275.907 138.696 274.383 139.364 273.266 140.515C272.148 141.665 271.524 143.207 271.528 144.811C271.533 146.415 272.164 147.954 273.287 149.099L273.284 149.102Z" fill="#D4E1F7"/>
<path d="M266.853 177.515C269.883 179.042 281.431 177.988 281.431 177.988C281.431 177.988 275.412 168.073 272.382 166.546C271.66 166.163 270.868 165.929 270.055 165.856C269.241 165.783 268.421 165.873 267.642 166.121C266.863 166.369 266.142 166.77 265.52 167.3C264.898 167.83 264.389 168.479 264.021 169.208C263.653 169.938 263.434 170.734 263.377 171.549C263.32 172.364 263.427 173.182 263.69 173.956C263.954 174.729 264.369 175.443 264.911 176.054C265.454 176.665 266.112 177.162 266.849 177.515H266.853Z" fill="#D4E1F7"/>
<path d="M264.39 205.99C267.117 208.006 278.681 208.919 278.681 208.919C278.681 208.919 274.424 198.128 271.694 196.112C271.046 195.624 270.308 195.27 269.522 195.069C268.737 194.869 267.919 194.825 267.116 194.942C266.314 195.059 265.543 195.333 264.847 195.75C264.151 196.166 263.544 196.716 263.062 197.368C262.58 198.02 262.231 198.761 262.037 199.548C261.842 200.336 261.806 201.154 261.929 201.955C262.052 202.757 262.333 203.526 262.755 204.219C263.176 204.911 263.731 205.513 264.387 205.99H264.39Z" fill="#D4E1F7"/>
<path d="M288.364 121.886C288.364 125.28 282.221 135.106 282.221 135.106C282.221 135.106 276.077 125.267 276.077 121.886C276.058 121.068 276.203 120.253 276.503 119.492C276.803 118.73 277.252 118.036 277.824 117.45C278.397 116.864 279.08 116.399 279.835 116.081C280.59 115.763 281.4 115.6 282.219 115.6C283.038 115.6 283.848 115.763 284.603 116.081C285.358 116.399 286.041 116.864 286.613 117.45C287.186 118.036 287.635 118.73 287.935 119.492C288.235 120.253 288.38 121.068 288.361 121.886H288.364Z" fill="#FC6681"/>
<path d="M298.53 140.678C296.686 143.527 286.183 148.445 286.183 148.445C286.183 148.445 286.375 136.848 288.219 133.999C289.124 132.676 290.509 131.759 292.081 131.443C293.652 131.127 295.285 131.438 296.63 132.309C297.975 133.18 298.927 134.542 299.282 136.105C299.637 137.668 299.367 139.308 298.53 140.675V140.678Z" fill="#FC6681"/>
<path d="M298.084 172.792C295.054 174.319 283.506 173.265 283.506 173.265C283.506 173.265 289.525 163.35 292.555 161.823C293.277 161.441 294.068 161.206 294.882 161.133C295.696 161.06 296.516 161.15 297.295 161.398C298.074 161.646 298.795 162.047 299.417 162.577C300.039 163.107 300.548 163.756 300.916 164.486C301.284 165.215 301.503 166.011 301.56 166.826C301.616 167.641 301.51 168.46 301.247 169.233C300.983 170.007 300.568 170.72 300.026 171.331C299.483 171.942 298.824 172.439 298.088 172.792H298.084Z" fill="#FC6681"/>
<path d="M292.278 197.014C289.551 199.03 277.987 199.942 277.987 199.942C277.987 199.942 282.244 189.155 284.97 187.136C285.618 186.648 286.357 186.294 287.142 186.093C287.928 185.892 288.746 185.849 289.548 185.966C290.351 186.083 291.122 186.357 291.818 186.774C292.514 187.19 293.12 187.74 293.603 188.392C294.085 189.044 294.433 189.785 294.628 190.572C294.822 191.359 294.859 192.177 294.736 192.979C294.613 193.781 294.332 194.55 293.91 195.242C293.488 195.935 292.933 196.537 292.278 197.014Z" fill="#FC6681"/>
<path d="M273.284 149.102C275.716 151.465 287.056 153.914 287.056 153.914C287.056 153.914 284.28 142.654 281.847 140.288C280.67 139.198 279.114 138.612 277.51 138.654C275.907 138.696 274.383 139.364 273.266 140.515C272.148 141.665 271.524 143.207 271.528 144.811C271.533 146.415 272.164 147.954 273.287 149.099L273.284 149.102Z" fill="#FC6681"/>
<path d="M266.853 177.515C269.883 179.042 281.431 177.988 281.431 177.988C281.431 177.988 275.412 168.073 272.382 166.546C271.66 166.163 270.868 165.929 270.055 165.856C269.241 165.783 268.421 165.873 267.642 166.121C266.863 166.369 266.142 166.77 265.52 167.3C264.898 167.83 264.389 168.479 264.021 169.208C263.653 169.938 263.434 170.734 263.377 171.549C263.32 172.364 263.427 173.182 263.69 173.956C263.954 174.729 264.369 175.443 264.911 176.054C265.454 176.665 266.112 177.162 266.849 177.515H266.853Z" fill="#FC6681"/>
<path d="M264.39 205.99C267.117 208.006 278.681 208.919 278.681 208.919C278.681 208.919 274.424 198.128 271.694 196.112C271.046 195.624 270.308 195.27 269.522 195.069C268.737 194.869 267.919 194.825 267.116 194.942C266.314 195.059 265.543 195.333 264.847 195.75C264.151 196.166 263.544 196.716 263.062 197.368C262.58 198.02 262.231 198.761 262.037 199.548C261.842 200.336 261.806 201.154 261.929 201.955C262.052 202.757 262.333 203.526 262.755 204.219C263.176 204.911 263.731 205.513 264.387 205.99H264.39Z" fill="#FC6681"/>
<path d="M88.822 222.462C88.822 222.462 80.6687 194.78 90.3522 174.405C94.4172 165.855 95.7657 156.254 93.8885 146.974C92.9908 142.568 91.6909 138.253 90.0051 134.085" stroke="#535461" stroke-width="0.660988" stroke-miterlimit="10"/>
<path d="M96.0168 121.225C96.0168 124.619 89.873 134.445 89.873 134.445C89.873 134.445 83.7291 124.606 83.7291 121.225C83.7101 120.407 83.8549 119.592 84.1551 118.831C84.4552 118.069 84.9046 117.375 85.4768 116.789C86.0491 116.203 86.7326 115.738 87.4873 115.42C88.2419 115.102 89.0525 114.939 89.8713 114.939C90.6901 114.939 91.5007 115.102 92.2553 115.42C93.01 115.738 93.6935 116.203 94.2658 116.789C94.838 117.375 95.2874 118.069 95.5876 118.831C95.8877 119.592 96.0325 120.407 96.0135 121.225H96.0168Z" fill="#D4E1F7"/>
<path d="M106.183 140.017C104.339 142.866 93.8357 147.784 93.8357 147.784C93.8357 147.784 94.0274 136.187 95.8715 133.338C96.7761 132.015 98.1619 131.098 99.7332 130.782C101.305 130.466 102.937 130.777 104.282 131.648C105.628 132.519 106.58 133.881 106.935 135.444C107.29 137.007 107.02 138.647 106.183 140.014V140.017Z" fill="#D4E1F7"/>
<path d="M105.737 172.131C102.706 173.658 91.1587 172.604 91.1587 172.604C91.1587 172.604 97.177 162.689 100.208 161.162C101.658 160.467 103.323 160.367 104.845 160.886C106.368 161.404 107.626 162.499 108.35 163.935C109.074 165.371 109.207 167.034 108.719 168.566C108.231 170.098 107.161 171.378 105.74 172.131H105.737Z" fill="#D4E1F7"/>
<path d="M99.93 196.353C97.2034 198.369 85.6394 199.281 85.6394 199.281C85.6394 199.281 89.8962 188.494 92.6227 186.475C93.2708 185.987 94.009 185.633 94.7947 185.432C95.5804 185.231 96.3981 185.188 97.2006 185.305C98.0031 185.422 98.7746 185.696 99.4705 186.113C100.166 186.529 100.773 187.079 101.255 187.731C101.737 188.383 102.086 189.124 102.28 189.911C102.475 190.698 102.512 191.516 102.388 192.318C102.265 193.12 101.985 193.889 101.563 194.581C101.141 195.274 100.586 195.876 99.93 196.353Z" fill="#D4E1F7"/>
<path d="M80.9365 148.441C83.3689 150.804 94.7081 153.253 94.7081 153.253C94.7081 153.253 91.932 141.993 89.4996 139.627C88.3227 138.537 86.7662 137.951 85.1627 137.993C83.5592 138.035 82.0358 138.703 80.918 139.854C79.8003 141.004 79.1769 142.546 79.1809 144.15C79.185 145.754 79.8162 147.293 80.9398 148.438L80.9365 148.441Z" fill="#D4E1F7"/>
<path d="M74.5051 176.854C77.5357 178.381 89.0832 177.326 89.0832 177.326C89.0832 177.326 83.0649 167.412 80.0342 165.885C78.5841 165.189 76.9191 165.09 75.3967 165.609C73.8743 166.127 72.6159 167.222 71.8917 168.658C71.1674 170.094 71.0351 171.756 71.5231 173.289C72.0111 174.821 73.0805 176.101 74.5018 176.854H74.5051Z" fill="#D4E1F7"/>
<path d="M72.0429 205.329C74.7695 207.345 86.3335 208.258 86.3335 208.258C86.3335 208.258 82.0767 197.467 79.3468 195.451C78.6987 194.963 77.9606 194.609 77.1748 194.408C76.3891 194.208 75.5715 194.164 74.7689 194.281C73.9664 194.398 73.195 194.672 72.4991 195.089C71.8032 195.505 71.1967 196.055 70.7144 196.707C70.2321 197.359 69.8837 198.1 69.6892 198.887C69.4947 199.675 69.458 200.493 69.5812 201.294C69.7044 202.096 69.9851 202.865 70.407 203.558C70.8289 204.25 71.3838 204.852 72.0396 205.329H72.0429Z" fill="#D4E1F7"/>
<path d="M96.0168 121.225C96.0168 124.619 89.873 134.445 89.873 134.445C89.873 134.445 83.7291 124.606 83.7291 121.225C83.7101 120.407 83.8549 119.592 84.1551 118.831C84.4552 118.069 84.9046 117.375 85.4768 116.789C86.0491 116.203 86.7326 115.738 87.4873 115.42C88.2419 115.102 89.0525 114.939 89.8713 114.939C90.6901 114.939 91.5007 115.102 92.2553 115.42C93.01 115.738 93.6935 116.203 94.2658 116.789C94.838 117.375 95.2874 118.069 95.5876 118.831C95.8877 119.592 96.0325 120.407 96.0135 121.225H96.0168Z" fill="#FC6681"/>
<path d="M106.183 140.017C104.339 142.866 93.8357 147.784 93.8357 147.784C93.8357 147.784 94.0274 136.187 95.8715 133.338C96.7761 132.015 98.1619 131.098 99.7332 130.782C101.305 130.466 102.937 130.777 104.282 131.648C105.628 132.519 106.58 133.881 106.935 135.444C107.29 137.007 107.02 138.647 106.183 140.014V140.017Z" fill="#FC6681"/>
<path d="M105.737 172.131C102.706 173.658 91.1587 172.604 91.1587 172.604C91.1587 172.604 97.177 162.689 100.208 161.162C101.658 160.467 103.323 160.367 104.845 160.886C106.368 161.404 107.626 162.499 108.35 163.935C109.074 165.371 109.207 167.034 108.719 168.566C108.231 170.098 107.161 171.378 105.74 172.131H105.737Z" fill="#FC6681"/>
<path d="M99.93 196.353C97.2034 198.369 85.6394 199.281 85.6394 199.281C85.6394 199.281 89.8962 188.494 92.6227 186.475C93.2708 185.987 94.009 185.633 94.7947 185.432C95.5804 185.231 96.3981 185.188 97.2006 185.305C98.0031 185.422 98.7746 185.696 99.4705 186.113C100.166 186.529 100.773 187.079 101.255 187.731C101.737 188.383 102.086 189.124 102.28 189.911C102.475 190.698 102.512 191.516 102.388 192.318C102.265 193.12 101.985 193.889 101.563 194.581C101.141 195.274 100.586 195.876 99.93 196.353Z" fill="#FC6681"/>
<path d="M80.9365 148.441C83.3689 150.804 94.7081 153.253 94.7081 153.253C94.7081 153.253 91.932 141.993 89.4996 139.627C88.3227 138.537 86.7662 137.951 85.1627 137.993C83.5592 138.035 82.0358 138.703 80.918 139.854C79.8003 141.004 79.1769 142.546 79.1809 144.15C79.185 145.754 79.8162 147.293 80.9398 148.438L80.9365 148.441Z" fill="#FC6681"/>
<path d="M74.5051 176.854C77.5357 178.381 89.0832 177.326 89.0832 177.326C89.0832 177.326 83.0649 167.412 80.0342 165.885C78.5841 165.189 76.9191 165.09 75.3967 165.609C73.8743 166.127 72.6159 167.222 71.8917 168.658C71.1674 170.094 71.0351 171.756 71.5231 173.289C72.0111 174.821 73.0805 176.101 74.5018 176.854H74.5051Z" fill="#FC6681"/>
<path d="M72.0429 205.329C74.7695 207.345 86.3335 208.258 86.3335 208.258C86.3335 208.258 82.0767 197.467 79.3468 195.451C78.6987 194.963 77.9606 194.609 77.1748 194.408C76.3891 194.208 75.5715 194.164 74.7689 194.281C73.9664 194.398 73.195 194.672 72.4991 195.089C71.8032 195.505 71.1967 196.055 70.7144 196.707C70.2321 197.359 69.8837 198.1 69.6892 198.887C69.4947 199.675 69.458 200.493 69.5812 201.294C69.7044 202.096 69.9851 202.865 70.407 203.558C70.8289 204.25 71.3838 204.852 72.0396 205.329H72.0429Z" fill="#FC6681"/>
<g clip-path="url(#clip1_34_12)">
<path d="M309.369 219.886C309.815 219.261 310.42 218.804 311.179 218.633C311.842 218.484 312.523 218.509 313.197 218.514L321.711 218.58C322.441 218.585 323.14 219.217 323.106 219.974C323.072 220.725 322.493 221.375 321.711 221.369C319.217 221.35 316.723 221.33 314.229 221.311C313.641 221.307 313.052 221.296 312.464 221.298C312.332 221.298 312.201 221.305 312.069 221.307C312.037 221.307 312.014 221.307 311.997 221.306C311.993 221.308 311.99 221.309 311.984 221.31C311.916 221.329 311.845 221.342 311.776 221.36C311.8 221.361 311.731 221.404 311.696 221.419C311.691 221.428 311.681 221.445 311.664 221.47C311.641 221.515 311.57 221.65 311.567 221.646C311.462 221.912 311.375 222.186 311.307 222.464C311.145 223.078 311.109 223.207 311.086 223.783C311.057 224.511 310.466 225.212 309.692 225.178C308.961 225.145 308.265 224.564 308.297 223.783C308.35 222.468 308.581 220.99 309.369 219.886Z" fill="#E6E6E6"/>
<path d="M321.211 223.033C321.371 222.064 321.528 221.094 321.691 220.126C321.856 219.143 322.194 218.243 322.959 217.598C323.163 217.426 323.375 217.265 323.588 217.105C323.662 217.048 323.737 216.992 323.811 216.934C323.815 216.931 323.818 216.929 323.822 216.926C323.83 216.919 323.84 216.91 323.853 216.899C324.172 216.63 324.48 216.348 324.773 216.048C325.034 215.782 325.283 215.505 325.52 215.216C325.58 215.144 325.638 215.072 325.696 214.998C325.706 214.986 325.76 214.916 325.795 214.871C325.828 214.826 325.888 214.744 325.898 214.73C325.966 214.634 326.032 214.538 326.097 214.44C326.542 213.775 326.926 213.071 327.247 212.338C327.279 212.266 327.31 212.193 327.34 212.119C327.348 212.097 327.359 212.068 327.373 212.029C327.437 211.852 327.502 211.674 327.561 211.494C327.686 211.113 327.794 210.725 327.884 210.332C327.929 210.138 327.969 209.943 328.005 209.747C328.023 209.646 328.041 209.545 328.057 209.444C328.059 209.427 328.075 209.318 328.084 209.256C328.091 209.194 328.104 209.084 328.105 209.067C328.116 208.965 328.125 208.863 328.133 208.761C328.15 208.531 328.163 208.3 328.169 208.069C328.18 207.659 328.172 207.249 328.147 206.838C328.132 206.608 328.112 206.378 328.086 206.148C328.085 206.134 328.084 206.123 328.082 206.113C328.081 206.103 328.079 206.091 328.077 206.077C328.058 205.95 328.039 205.823 328.016 205.697C327.933 205.218 327.824 204.743 327.691 204.275C327.627 204.054 327.559 203.834 327.485 203.617C327.452 203.52 327.417 203.424 327.382 203.328C327.385 203.334 327.279 203.065 327.278 203.056C326.86 202.068 326.176 201.168 326.175 200.047C326.175 199.287 326.817 198.56 327.57 198.595C327.945 198.609 328.3 198.768 328.561 199.039C328.821 199.31 328.966 199.671 328.965 200.047C328.965 200.064 328.965 200.078 328.965 200.092C328.972 200.116 328.978 200.136 328.983 200.153C329.064 200.33 329.164 200.499 329.254 200.671C329.499 201.144 329.708 201.632 329.906 202.128C330.231 202.934 330.48 203.77 330.65 204.623C331.018 206.492 331.046 208.412 330.734 210.292C330.193 213.587 328.41 216.742 325.931 218.863C325.716 219.047 325.496 219.225 325.273 219.399C325.181 219.471 325.089 219.542 324.995 219.612C324.951 219.645 324.769 219.789 324.849 219.719C324.676 219.867 324.603 219.941 324.559 220.05C324.553 220.075 324.544 220.109 324.532 220.155C324.501 220.278 324.471 220.4 324.446 220.524C324.23 221.609 324.08 222.713 323.9 223.805C323.776 224.556 322.852 225.044 322.185 224.819C321.408 224.557 321.078 223.837 321.211 223.033Z" fill="#E6E6E6"/>
<path d="M309.228 225.848C309.814 225.85 310.376 225.619 310.792 225.206C311.208 224.794 311.443 224.233 311.445 223.647V222.056C313.111 222.243 318.814 222.2 320.449 221.937V223.584C320.453 224.169 320.689 224.729 321.104 225.141C321.52 225.553 322.081 225.784 322.666 225.784C323.251 225.784 323.813 225.553 324.228 225.141C324.644 224.729 324.879 224.169 324.884 223.584V220.351C327.098 219.121 328.944 217.322 330.231 215.14C331.518 212.959 332.199 210.473 332.205 207.94C332.205 203.597 330.237 199.546 326.805 196.825C324.573 195.049 321.862 193.982 319.019 193.759C318.634 193.729 318.245 193.713 317.866 193.713C316.527 193.713 310.49 193.92 308.976 194.356L305.522 190.929C305.471 190.878 305.406 190.843 305.335 190.829C305.265 190.815 305.192 190.822 305.125 190.85C305.058 190.876 305.001 190.923 304.961 190.982C304.92 191.042 304.899 191.113 304.9 191.185V191.73L304.227 191.064C304.177 191.013 304.112 190.978 304.041 190.964C303.971 190.95 303.897 190.957 303.831 190.985C303.764 191.011 303.707 191.058 303.666 191.117C303.626 191.177 303.605 191.248 303.605 191.32V197.409C301.872 198.972 300.551 200.938 299.76 203.133C298.968 205.328 298.73 207.684 299.067 209.993C299.404 212.302 300.305 214.492 301.69 216.37C303.076 218.247 304.904 219.754 307.011 220.756V223.647C307.014 224.233 307.249 224.794 307.664 225.206C308.08 225.619 308.642 225.85 309.228 225.848ZM311.271 221.859V223.647C311.267 224.186 311.05 224.702 310.667 225.081C310.284 225.461 309.767 225.674 309.228 225.674C308.689 225.674 308.172 225.461 307.789 225.081C307.407 224.702 307.19 224.186 307.185 223.647V220.646L307.135 220.623C304.771 219.501 302.764 217.745 301.337 215.551C299.518 212.752 298.762 209.394 299.205 206.085C299.647 202.777 301.26 199.736 303.751 197.513L303.78 197.487V191.32C303.779 191.283 303.79 191.246 303.811 191.215C303.832 191.184 303.862 191.16 303.897 191.146C303.931 191.131 303.97 191.127 304.007 191.135C304.044 191.142 304.078 191.16 304.104 191.187L305.074 192.148V191.185C305.074 191.147 305.084 191.111 305.105 191.08C305.126 191.048 305.156 191.025 305.191 191.011C305.226 190.996 305.264 190.992 305.301 191C305.339 191.007 305.373 191.025 305.399 191.053L308.927 194.553L308.977 194.537C310.385 194.097 316.517 193.888 317.866 193.888C318.241 193.888 318.625 193.903 319.006 193.933C321.814 194.153 324.492 195.208 326.696 196.961C330.086 199.649 332.031 203.651 332.031 207.94C332.025 210.451 331.347 212.914 330.067 215.074C328.788 217.234 326.953 219.012 324.754 220.223L324.709 220.248V223.584C324.705 224.123 324.488 224.638 324.105 225.017C323.722 225.397 323.205 225.61 322.666 225.61C322.127 225.61 321.61 225.397 321.228 225.017C320.845 224.638 320.628 224.123 320.623 223.584V221.728L320.52 221.748C319.051 222.024 312.865 222.068 311.37 221.872L311.271 221.859Z" fill="#3F3D56"/>
<path d="M315.455 180.987C317.04 180.988 318.563 181.605 319.701 182.709C320.84 183.813 321.504 185.316 321.553 186.901C321.555 186.963 321.556 187.026 321.556 187.088C321.556 188.295 321.198 189.475 320.528 190.478C319.857 191.481 318.904 192.263 317.789 192.725C316.675 193.187 315.448 193.308 314.264 193.072C313.081 192.837 311.994 192.256 311.141 191.403C310.287 190.549 309.706 189.462 309.471 188.279C309.235 187.095 309.356 185.868 309.818 184.754C310.28 183.639 311.062 182.686 312.065 182.016C313.068 181.345 314.248 180.987 315.455 180.987ZM315.455 193.015C317.026 193.014 318.533 192.389 319.644 191.277C320.755 190.166 321.38 188.66 321.381 187.088C321.381 187.007 321.38 186.927 321.376 186.848C321.329 185.687 320.942 184.565 320.262 183.623C319.583 182.68 318.641 181.958 317.555 181.547C316.468 181.135 315.284 181.052 314.151 181.307C313.018 181.563 311.984 182.146 311.179 182.984C310.375 183.822 309.834 184.878 309.625 186.021C309.416 187.164 309.547 188.343 310.002 189.412C310.458 190.481 311.218 191.393 312.187 192.033C313.156 192.674 314.293 193.015 315.455 193.015Z" fill="#3F3D56"/>
<path d="M310.312 187.089C310.312 188.452 310.854 189.76 311.818 190.725C312.783 191.689 314.091 192.231 315.455 192.231C316.819 192.231 318.126 191.689 319.091 190.725C320.055 189.76 320.597 188.452 320.597 187.089C320.597 186.926 320.589 186.765 320.574 186.607C320.45 185.29 319.824 184.072 318.826 183.206C317.828 182.339 316.534 181.89 315.213 181.952C313.893 182.014 312.647 182.582 311.734 183.539C310.821 184.495 310.312 185.766 310.312 187.089Z" fill="#FEE500"/>
<path d="M331.604 203.584C332.82 203.404 333.983 202.964 335.013 202.294C335.524 201.963 335.997 201.576 336.423 201.141C336.844 200.712 337.246 200.224 337.455 199.653C337.655 199.124 337.645 198.538 337.426 198.017C337.21 197.499 336.797 197.087 336.278 196.873C335.756 196.665 335.125 196.642 334.617 196.87C334.375 196.976 334.166 197.145 334.01 197.359C333.938 197.458 333.885 197.569 333.853 197.686C333.823 197.793 333.82 197.906 333.845 198.014C333.874 198.122 333.927 198.222 333.999 198.309C334.071 198.395 334.16 198.464 334.261 198.513C334.483 198.627 334.723 198.7 334.971 198.73C335.221 198.764 335.579 198.795 335.779 198.594C335.82 198.555 335.853 198.507 335.874 198.454C335.889 198.413 335.895 198.37 335.889 198.327C335.892 198.346 335.877 198.286 335.878 198.288C335.881 198.297 335.895 198.319 335.875 198.285C335.869 198.274 335.863 198.264 335.855 198.254C335.862 198.262 335.876 198.277 335.85 198.252C335.829 198.229 335.801 198.212 335.771 198.203C335.759 198.199 335.746 198.197 335.734 198.193C335.704 198.185 335.765 198.194 335.733 198.193C335.721 198.192 335.709 198.193 335.697 198.192C335.666 198.191 335.727 198.184 335.698 198.191C335.686 198.194 335.675 198.197 335.664 198.2C335.639 198.208 335.681 198.182 335.664 198.202C335.645 198.224 335.685 198.18 335.663 198.202C335.652 198.212 335.641 198.224 335.632 198.236C335.593 198.274 335.541 198.295 335.487 198.295C335.433 198.295 335.381 198.274 335.343 198.236C335.305 198.197 335.285 198.145 335.285 198.092C335.285 198.038 335.305 197.986 335.343 197.947C335.544 197.697 335.942 197.759 336.146 197.97C336.406 198.239 336.303 198.666 336.05 198.901C335.764 199.167 335.358 199.185 334.99 199.141C334.679 199.111 334.376 199.025 334.095 198.888C333.816 198.751 333.598 198.515 333.483 198.226C333.431 198.072 333.412 197.909 333.428 197.747C333.444 197.585 333.494 197.429 333.575 197.288C333.9 196.677 334.573 196.363 335.238 196.309C335.581 196.282 335.925 196.324 336.252 196.431C336.578 196.538 336.88 196.709 337.14 196.933C337.641 197.384 337.95 198.011 338.002 198.683C338.06 199.38 337.79 200.057 337.395 200.619C336.983 201.191 336.49 201.7 335.933 202.132C334.844 203.001 333.566 203.604 332.201 203.891C332.039 203.925 331.876 203.954 331.712 203.978C331.66 203.99 331.605 203.982 331.558 203.956C331.512 203.929 331.477 203.886 331.461 203.835C331.447 203.783 331.454 203.727 331.481 203.68C331.507 203.633 331.551 203.598 331.603 203.584L331.604 203.584Z" fill="#3F3D56"/>
<path d="M312.133 194.704C313.915 194.679 315.691 194.724 317.462 194.84C318.067 194.879 318.591 195.093 318.591 195.452C318.591 195.753 318.071 196.105 317.462 196.065C315.692 195.95 313.916 195.905 312.133 195.93C310.68 195.95 310.681 194.724 312.133 194.704Z" fill="#CCCCCC"/>
<path d="M314.767 195.869C314.959 195.869 319.483 195.862 319.483 195.237C319.483 194.613 314.959 194.605 314.767 194.605C314.574 194.605 310.051 194.613 310.051 195.237C310.051 195.862 314.574 195.869 314.767 195.869ZM319.306 195.237C319.182 195.427 317.519 195.695 314.767 195.695C312.014 195.695 310.352 195.427 310.228 195.237C310.352 195.048 312.014 194.78 314.767 194.78C317.519 194.78 319.182 195.048 319.306 195.237V195.237Z" fill="#3F3D56"/>
<path d="M300.416 212.294C299.415 212.267 298.168 212.232 297.208 211.53C296.922 211.313 296.688 211.036 296.52 210.718C296.353 210.4 296.257 210.05 296.239 209.691C296.219 209.137 296.42 208.654 296.803 208.33C297.304 207.907 298.036 207.807 298.825 208.039L298.008 202.064L298.608 201.982L299.569 209.006L299.068 208.776C298.487 208.51 297.689 208.374 297.194 208.793C297.072 208.902 296.977 209.038 296.916 209.191C296.856 209.343 296.831 209.507 296.844 209.67C296.859 209.937 296.931 210.197 297.056 210.434C297.18 210.671 297.354 210.878 297.566 211.041C298.313 211.587 299.306 211.657 300.433 211.689L300.416 212.294Z" fill="#3F3D56"/>
<path d="M302.075 202.579H305.338V203.185H302.075V202.579Z" fill="#3F3D56"/>
<path d="M281.693 225.889H346.042C346.069 225.889 346.096 225.878 346.115 225.858C346.135 225.839 346.145 225.813 346.145 225.785C346.145 225.758 346.135 225.731 346.115 225.712C346.096 225.692 346.069 225.681 346.042 225.681H281.693C281.666 225.681 281.639 225.692 281.62 225.712C281.6 225.731 281.589 225.758 281.589 225.785C281.589 225.813 281.6 225.839 281.62 225.858C281.639 225.878 281.666 225.889 281.693 225.889Z" fill="#3F3D56"/>
</g>
<path d="M317.495 185.971L317.299 186.644H313.35L313.545 185.971H317.495ZM315.724 190.652L313.473 188.022L313.469 187.495H314.507C314.808 187.495 315.056 187.445 315.252 187.346C315.451 187.244 315.6 187.106 315.699 186.933C315.798 186.76 315.848 186.566 315.848 186.35C315.848 186.109 315.801 185.897 315.707 185.716C315.614 185.531 315.466 185.388 315.265 185.286C315.066 185.181 314.805 185.128 314.482 185.128H313.358L313.558 184.456H314.482C314.975 184.456 315.383 184.531 315.703 184.682C316.027 184.829 316.268 185.045 316.427 185.328C316.586 185.612 316.665 185.956 316.665 186.358C316.665 186.705 316.598 187.015 316.465 187.29C316.334 187.563 316.117 187.777 315.814 187.933C315.513 188.089 315.107 188.167 314.597 188.167L316.69 190.601V190.652H315.724ZM317.495 184.456L317.299 185.128H314.116L314.312 184.456H317.495Z" fill="#003366"/>
</g>
<circle cx="45.9472" cy="76.6746" r="33.0494" fill="#FFEEF4"/>
<circle cx="342.4" cy="80.3101" r="33.0494" fill="#FFEEF4"/>
<path d="M5.81592 78.56C5.81592 78.3793 5.78795 78.2179 5.73201 78.0759C5.68037 77.9296 5.58354 77.7983 5.44153 77.6821C5.30383 77.5617 5.10803 77.4455 4.85413 77.3336C4.60454 77.2174 4.28179 77.0969 3.88589 76.9721C3.44695 76.8344 3.03814 76.6795 2.65944 76.5073C2.28075 76.3352 1.94725 76.1351 1.65893 75.907C1.37491 75.679 1.15329 75.4165 0.994064 75.1195C0.834842 74.8183 0.755231 74.4697 0.755231 74.0738C0.755231 73.6865 0.836993 73.3337 1.00052 73.0152C1.16835 72.6968 1.40503 72.4235 1.71056 72.1954C2.0161 71.9631 2.37543 71.7845 2.78854 71.6597C3.20596 71.5349 3.66642 71.4725 4.16991 71.4725C4.86704 71.4725 5.4695 71.5994 5.97729 71.8533C6.48939 72.1072 6.88529 72.4515 7.16501 72.8861C7.44472 73.3207 7.58458 73.8092 7.58458 74.3514H5.81592C5.81592 74.0588 5.75352 73.8006 5.62873 73.5768C5.50823 73.353 5.32319 73.1766 5.0736 73.0475C4.82831 72.9184 4.51847 72.8538 4.14409 72.8538C3.78261 72.8538 3.48138 72.9076 3.24039 73.0152C3.00371 73.1228 2.82512 73.2691 2.70463 73.4541C2.58844 73.6392 2.53035 73.8458 2.53035 74.0738C2.53035 74.246 2.57123 74.4009 2.65299 74.5386C2.73475 74.672 2.8574 74.7989 3.02092 74.9194C3.18445 75.0356 3.3867 75.1453 3.62769 75.2486C3.87298 75.3476 4.157 75.4466 4.47974 75.5456C4.99614 75.7005 5.44799 75.8726 5.83529 76.062C6.22689 76.2513 6.55179 76.4665 6.80998 76.7075C7.07249 76.9484 7.26829 77.2195 7.39739 77.5208C7.53079 77.822 7.59749 78.1641 7.59749 78.5471C7.59749 78.9516 7.51788 79.3131 7.35866 79.6315C7.19943 79.95 6.97136 80.2211 6.67443 80.4449C6.3775 80.6686 6.02033 80.8386 5.60291 80.9548C5.18979 81.071 4.72718 81.1291 4.21509 81.1291C3.75894 81.1291 3.30709 81.0689 2.85955 80.9484C2.41631 80.8236 2.01395 80.6385 1.65247 80.3932C1.29099 80.1436 1.00267 79.8295 0.787505 79.4508C0.57234 79.0678 0.464757 78.6203 0.464757 78.1082H2.24633C2.24633 78.4051 2.29366 78.659 2.38834 78.8699C2.48731 79.0764 2.62502 79.2464 2.80145 79.3798C2.98219 79.5089 3.19305 79.6036 3.43404 79.6638C3.67502 79.7241 3.93538 79.7542 4.21509 79.7542C4.57657 79.7542 4.8735 79.7047 5.10587 79.6057C5.34256 79.5024 5.51899 79.3604 5.63518 79.1797C5.75567 78.999 5.81592 78.7924 5.81592 78.56ZM12.684 79.5154V76.2943C12.684 76.0577 12.6431 75.8532 12.5614 75.6811C12.4796 75.509 12.3548 75.3756 12.187 75.2809C12.0191 75.1862 11.8061 75.1389 11.5479 75.1389C11.3199 75.1389 11.1197 75.1776 10.9476 75.2551C10.7798 75.3325 10.6507 75.4423 10.5603 75.5843C10.4699 75.722 10.4248 75.8812 10.4248 76.062H8.7142C8.7142 75.7736 8.78305 75.5004 8.92076 75.2422C9.05846 74.9797 9.25426 74.7473 9.50816 74.545C9.76636 74.3385 10.074 74.1771 10.4312 74.0609C10.7927 73.9447 11.1972 73.8866 11.6448 73.8866C12.1741 73.8866 12.6453 73.977 13.0584 74.1577C13.4758 74.3342 13.8029 74.601 14.0395 74.9582C14.2805 75.3153 14.401 75.765 14.401 76.3072V79.354C14.401 79.7026 14.4225 80.0016 14.4656 80.2512C14.5129 80.4965 14.5818 80.7095 14.6721 80.8903V81H12.9357C12.854 80.8236 12.7916 80.5998 12.7486 80.3287C12.7055 80.0533 12.684 79.7822 12.684 79.5154ZM12.9228 76.7462L12.9357 77.7596H11.8578C11.591 77.7596 11.3564 77.7876 11.1542 77.8435C10.9519 77.8952 10.7862 77.9726 10.6571 78.0759C10.528 78.1749 10.4312 78.2954 10.3667 78.4374C10.3021 78.5751 10.2698 78.7322 10.2698 78.9086C10.2698 79.0807 10.3086 79.2356 10.386 79.3733C10.4678 79.5111 10.584 79.6208 10.7346 79.7026C10.8895 79.78 11.0703 79.8187 11.2768 79.8187C11.5781 79.8187 11.8406 79.7585 12.0643 79.638C12.2881 79.5132 12.4624 79.3626 12.5872 79.1862C12.712 79.0097 12.7787 78.8419 12.7873 78.6827L13.2779 79.4185C13.2176 79.595 13.1272 79.7822 13.0067 79.9801C12.8863 80.1781 12.7313 80.3631 12.542 80.5352C12.3526 80.7074 12.1246 80.8494 11.8578 80.9613C11.591 81.0732 11.2811 81.1291 10.9283 81.1291C10.4764 81.1291 10.0719 81.0387 9.71472 80.858C9.35754 80.6773 9.07568 80.4298 8.86912 80.1157C8.66256 79.8015 8.55928 79.4444 8.55928 79.0441C8.55928 78.6741 8.62813 78.347 8.76584 78.063C8.90354 77.779 9.10795 77.5401 9.37906 77.3465C9.65017 77.1485 9.98583 77.0001 10.386 76.9011C10.7905 76.7978 11.2532 76.7462 11.7739 76.7462H12.9228ZM18.1514 79.709L19.778 74.0157H21.5596L19.1648 81H18.0803L18.1514 79.709ZM16.9636 74.0157L18.6097 79.7219L18.6678 81H17.5769L15.1756 74.0157H16.9636ZM24.2642 74.0157V81H22.5536V74.0157H24.2642ZM22.4374 72.189C22.4374 71.9351 22.5235 71.7242 22.6956 71.5564C22.8721 71.3886 23.1088 71.3046 23.4057 71.3046C23.7026 71.3046 23.9371 71.3886 24.1093 71.5564C24.2857 71.7242 24.3739 71.9351 24.3739 72.189C24.3739 72.4386 24.2857 72.6473 24.1093 72.8151C23.9371 72.9829 23.7026 73.0669 23.4057 73.0669C23.1088 73.0669 22.8721 72.9829 22.6956 72.8151C22.5235 72.6473 22.4374 72.4386 22.4374 72.189ZM27.5627 75.5068V81H25.8586V74.0157H27.4594L27.5627 75.5068ZM27.2916 77.2561H26.7881C26.7924 76.7483 26.8612 76.2879 26.9947 75.8748C27.1281 75.4616 27.3152 75.1066 27.5562 74.8097C27.8015 74.5128 28.092 74.2847 28.4277 74.1255C28.7633 73.9662 29.1377 73.8866 29.5508 73.8866C29.8865 73.8866 30.1899 73.934 30.461 74.0286C30.7321 74.1233 30.9645 74.2739 31.1581 74.4805C31.3561 74.687 31.5067 74.9582 31.6099 75.2938C31.7175 75.6252 31.7713 76.034 31.7713 76.5203V81H30.0543V76.5073C30.0543 76.1889 30.007 75.9372 29.9123 75.7521C29.8219 75.5671 29.6885 75.4358 29.5121 75.3584C29.34 75.2809 29.1269 75.2422 28.873 75.2422C28.6105 75.2422 28.3803 75.296 28.1824 75.4035C27.9887 75.5068 27.8252 75.651 27.6918 75.836C27.5627 76.0211 27.4637 76.2341 27.3949 76.4751C27.326 76.7161 27.2916 76.9764 27.2916 77.2561ZM37.7163 74.0157H39.2655V80.787C39.2655 81.4196 39.1278 81.9553 38.8524 82.3943C38.5813 82.8375 38.2005 83.1732 37.7099 83.4012C37.2193 83.6336 36.6491 83.7498 35.9993 83.7498C35.7196 83.7498 35.4162 83.7111 35.0892 83.6336C34.7664 83.5562 34.4544 83.4335 34.1532 83.2657C33.8563 83.1022 33.6088 82.8892 33.4109 82.6267L34.179 81.6197C34.4114 81.8908 34.6739 82.0952 34.9665 82.2329C35.2592 82.3749 35.5754 82.4459 35.9154 82.4459C36.2597 82.4459 36.5523 82.3814 36.7933 82.2523C37.0386 82.1275 37.2258 81.9424 37.3549 81.6971C37.4883 81.4562 37.555 81.1592 37.555 80.8064V75.6101L37.7163 74.0157ZM32.9978 77.5918V77.4562C32.9978 76.9226 33.0623 76.4385 33.1914 76.0039C33.3205 75.5649 33.5056 75.1884 33.7465 74.8742C33.9918 74.5601 34.2866 74.317 34.6309 74.1448C34.9794 73.9727 35.371 73.8866 35.8057 73.8866C36.2661 73.8866 36.6534 73.9705 36.9676 74.1384C37.286 74.3062 37.5485 74.545 37.7551 74.8549C37.9659 75.1647 38.1295 75.5326 38.2456 75.9587C38.3661 76.3804 38.4587 76.8452 38.5232 77.3529V77.7209C38.463 78.2158 38.3661 78.6698 38.2327 79.0829C38.1036 79.496 37.9315 79.8575 37.7163 80.1673C37.5012 80.4728 37.2344 80.7095 36.9159 80.8774C36.5975 81.0452 36.2231 81.1291 35.7928 81.1291C35.3624 81.1291 34.9751 81.0409 34.6309 80.8644C34.2866 80.688 33.9918 80.4406 33.7465 80.1221C33.5056 79.8037 33.3205 79.4293 33.1914 78.999C33.0623 78.5686 32.9978 78.0996 32.9978 77.5918ZM34.7019 77.4562V77.5918C34.7019 77.893 34.732 78.1749 34.7922 78.4374C34.8525 78.6999 34.945 78.9323 35.0698 79.1345C35.1946 79.3325 35.3517 79.4874 35.541 79.5993C35.7304 79.7112 35.9563 79.7671 36.2188 79.7671C36.5717 79.7671 36.86 79.6939 37.0838 79.5476C37.3118 79.397 37.484 79.1926 37.6002 78.9344C37.7206 78.6719 37.7981 78.3771 37.8325 78.0501V77.0367C37.811 76.7785 37.7637 76.5396 37.6905 76.3202C37.6217 76.1007 37.5248 75.9113 37.4 75.7521C37.2753 75.5929 37.116 75.4681 36.9224 75.3777C36.7287 75.2874 36.4985 75.2422 36.2317 75.2422C35.9735 75.2422 35.7476 75.3003 35.5539 75.4165C35.3603 75.5283 35.2011 75.6854 35.0763 75.8877C34.9515 76.0899 34.8568 76.3245 34.7922 76.5913C34.732 76.8581 34.7019 77.1464 34.7019 77.4562ZM44.6425 79.0893C44.6425 78.943 44.6038 78.8118 44.5263 78.6956C44.4489 78.5794 44.3026 78.474 44.0874 78.3793C43.8765 78.2803 43.5667 78.1878 43.1579 78.1017C42.7964 78.0243 42.4629 77.9274 42.1574 77.8112C41.8518 77.6951 41.5893 77.5552 41.3698 77.3917C41.1504 77.2238 40.9782 77.028 40.8535 76.8043C40.733 76.5762 40.6727 76.3137 40.6727 76.0168C40.6727 75.7284 40.7351 75.4573 40.8599 75.2034C40.9847 74.9452 41.1654 74.7193 41.4021 74.5257C41.6388 74.3277 41.9271 74.1728 42.2671 74.0609C42.6071 73.9447 42.99 73.8866 43.4161 73.8866C44.0099 73.8866 44.5199 73.9835 44.9459 74.1771C45.3762 74.3708 45.7054 74.6376 45.9335 74.9775C46.1616 75.3132 46.2756 75.6919 46.2756 76.1136H44.5715C44.5715 75.9286 44.5285 75.7607 44.4424 75.6101C44.3606 75.4595 44.2337 75.339 44.0616 75.2486C43.8894 75.154 43.6721 75.1066 43.4096 75.1066C43.1729 75.1066 42.9728 75.1453 42.8093 75.2228C42.6501 75.3003 42.5296 75.4014 42.4478 75.5262C42.3661 75.651 42.3252 75.7887 42.3252 75.9393C42.3252 76.0512 42.3467 76.1523 42.3897 76.2427C42.4371 76.3288 42.5124 76.4084 42.6157 76.4815C42.7189 76.5547 42.8588 76.6214 43.0352 76.6816C43.216 76.7419 43.4376 76.8 43.7001 76.8559C44.2208 76.9592 44.6748 77.0969 45.0621 77.269C45.4537 77.4369 45.7592 77.6606 45.9787 77.9403C46.1982 78.2201 46.3079 78.5772 46.3079 79.0119C46.3079 79.3217 46.2412 79.6057 46.1078 79.8639C45.9744 80.1178 45.7807 80.3394 45.5268 80.5288C45.2729 80.7181 44.9696 80.8666 44.6167 80.9742C44.2638 81.0775 43.8658 81.1291 43.4225 81.1291C42.7813 81.1291 42.2391 81.0151 41.7959 80.787C41.3526 80.5546 41.017 80.262 40.7889 79.9091C40.5608 79.5519 40.4468 79.1819 40.4468 78.7989H42.0799C42.0928 79.07 42.166 79.2873 42.2994 79.4508C42.4328 79.6143 42.6006 79.7327 42.8029 79.8058C43.0094 79.8747 43.2267 79.9091 43.4548 79.9091C43.713 79.9091 43.9303 79.8747 44.1068 79.8058C44.2832 79.7327 44.4166 79.6359 44.507 79.5154C44.5973 79.3906 44.6425 79.2486 44.6425 79.0893Z" fill="#003366"/>
<path d="M331.23 74.1394V77.7994C331.092 77.9758 330.875 78.1673 330.578 78.3739C330.286 78.5804 329.903 78.759 329.429 78.9096C328.956 79.0559 328.375 79.1291 327.686 79.1291C327.088 79.1291 326.542 79.0301 326.047 78.8322C325.552 78.6299 325.126 78.3351 324.769 77.9478C324.411 77.5605 324.136 77.0872 323.942 76.5277C323.749 75.9683 323.652 75.3293 323.652 74.6106V73.9909C323.652 73.2723 323.742 72.6333 323.923 72.0738C324.108 71.5144 324.371 71.041 324.711 70.6537C325.055 70.2664 325.466 69.9717 325.943 69.7694C326.425 69.5671 326.963 69.466 327.557 69.466C328.353 69.466 329.007 69.5973 329.52 69.8598C330.036 70.1223 330.432 70.4838 330.707 70.9442C330.983 71.4004 331.155 71.9254 331.224 72.5192H329.494C329.446 72.1922 329.352 71.906 329.21 71.6607C329.068 71.4111 328.865 71.2175 328.603 71.0798C328.345 70.9378 328.009 70.8667 327.596 70.8667C327.247 70.8667 326.94 70.9356 326.673 71.0733C326.406 71.211 326.182 71.4111 326.002 71.6736C325.821 71.9361 325.683 72.261 325.588 72.6483C325.498 73.0356 325.453 73.4789 325.453 73.978V74.6106C325.453 75.1141 325.505 75.5617 325.608 75.9533C325.711 76.3406 325.86 76.6676 326.053 76.9344C326.251 77.1969 326.494 77.397 326.783 77.5347C327.075 77.6681 327.407 77.7348 327.777 77.7348C328.112 77.7348 328.39 77.7069 328.609 77.6509C328.833 77.5907 329.012 77.5197 329.145 77.4379C329.279 77.3561 329.382 77.2765 329.455 77.1991V75.4369H327.589V74.1394H331.23ZM336.936 77.3411V72.0157H338.653V79H337.04L336.936 77.3411ZM337.156 75.8952L337.685 75.8823C337.685 76.3513 337.633 76.7838 337.53 77.1797C337.427 77.5756 337.265 77.9199 337.046 78.2125C336.831 78.5008 336.558 78.7267 336.226 78.8903C335.895 79.0495 335.503 79.1291 335.051 79.1291C334.707 79.1291 334.393 79.0818 334.109 78.9871C333.825 78.8881 333.58 78.7353 333.373 78.5288C333.171 78.3179 333.014 78.049 332.902 77.7219C332.79 77.3906 332.734 76.9925 332.734 76.5277V72.0157H334.438V76.5407C334.438 76.773 334.464 76.9667 334.516 77.1216C334.572 77.2765 334.647 77.4035 334.742 77.5024C334.841 77.5971 334.955 77.666 335.084 77.709C335.217 77.7477 335.359 77.7671 335.51 77.7671C335.923 77.7671 336.248 77.6853 336.484 77.5218C336.725 77.354 336.898 77.1302 337.001 76.8505C337.104 76.5665 337.156 76.248 337.156 75.8952ZM344.011 77.5154V74.2943C344.011 74.0577 343.97 73.8532 343.888 73.6811C343.806 73.509 343.682 73.3756 343.514 73.2809C343.346 73.1862 343.133 73.1389 342.875 73.1389C342.647 73.1389 342.447 73.1776 342.275 73.2551C342.107 73.3325 341.978 73.4423 341.887 73.5843C341.797 73.722 341.752 73.8812 341.752 74.062H340.041C340.041 73.7736 340.11 73.5004 340.248 73.2422C340.385 72.9797 340.581 72.7473 340.835 72.545C341.093 72.3385 341.401 72.1771 341.758 72.0609C342.12 71.9447 342.524 71.8866 342.972 71.8866C343.501 71.8866 343.972 71.977 344.385 72.1577C344.803 72.3342 345.13 72.601 345.366 72.9582C345.607 73.3153 345.728 73.765 345.728 74.3072V77.354C345.728 77.7026 345.749 78.0016 345.792 78.2512C345.84 78.4965 345.909 78.7095 345.999 78.8903V79H344.263C344.181 78.8236 344.118 78.5998 344.075 78.3287C344.032 78.0533 344.011 77.7822 344.011 77.5154ZM344.25 74.7462L344.263 75.7596H343.185C342.918 75.7596 342.683 75.7876 342.481 75.8435C342.279 75.8952 342.113 75.9726 341.984 76.0759C341.855 76.1749 341.758 76.2954 341.694 76.4374C341.629 76.5751 341.597 76.7322 341.597 76.9086C341.597 77.0807 341.635 77.2356 341.713 77.3733C341.795 77.5111 341.911 77.6208 342.062 77.7026C342.216 77.78 342.397 77.8187 342.604 77.8187C342.905 77.8187 343.167 77.7585 343.391 77.638C343.615 77.5132 343.789 77.3626 343.914 77.1862C344.039 77.0097 344.106 76.8419 344.114 76.6827L344.605 77.4185C344.545 77.595 344.454 77.7822 344.334 77.9801C344.213 78.1781 344.058 78.3631 343.869 78.5352C343.68 78.7074 343.451 78.8494 343.185 78.9613C342.918 79.0732 342.608 79.1291 342.255 79.1291C341.803 79.1291 341.399 79.0387 341.042 78.858C340.684 78.6773 340.403 78.4298 340.196 78.1157C339.989 77.8015 339.886 77.4444 339.886 77.0441C339.886 76.6741 339.955 76.347 340.093 76.063C340.23 75.779 340.435 75.5401 340.706 75.3465C340.977 75.1485 341.313 75.0001 341.713 74.9011C342.117 74.7978 342.58 74.7462 343.101 74.7462H344.25ZM348.968 73.4423V79H347.264V72.0157H348.878L348.968 73.4423ZM351.092 71.9705L351.066 73.5585C350.972 73.5413 350.864 73.5283 350.743 73.5197C350.627 73.5111 350.518 73.5068 350.414 73.5068C350.152 73.5068 349.921 73.5434 349.724 73.6166C349.526 73.6854 349.36 73.7865 349.227 73.9199C349.097 74.0533 348.998 74.2169 348.93 74.4105C348.861 74.5999 348.822 74.815 348.813 75.056L348.445 75.0108C348.445 74.5676 348.491 74.1566 348.581 73.7779C348.671 73.3992 348.803 73.0679 348.975 72.7839C349.147 72.4999 349.362 72.2804 349.62 72.1255C349.883 71.9662 350.184 71.8866 350.524 71.8866C350.619 71.8866 350.72 71.8952 350.827 71.9125C350.939 71.9254 351.027 71.9447 351.092 71.9705ZM355.656 77.5154V74.2943C355.656 74.0577 355.615 73.8532 355.533 73.6811C355.451 73.509 355.326 73.3756 355.159 73.2809C354.991 73.1862 354.778 73.1389 354.52 73.1389C354.292 73.1389 354.091 73.1776 353.919 73.2551C353.751 73.3325 353.622 73.4423 353.532 73.5843C353.442 73.722 353.396 73.8812 353.396 74.062H351.686C351.686 73.7736 351.755 73.5004 351.892 73.2422C352.03 72.9797 352.226 72.7473 352.48 72.545C352.738 72.3385 353.046 72.1771 353.403 72.0609C353.764 71.9447 354.169 71.8866 354.616 71.8866C355.146 71.8866 355.617 71.977 356.03 72.1577C356.447 72.3342 356.775 72.601 357.011 72.9582C357.252 73.3153 357.373 73.765 357.373 74.3072V77.354C357.373 77.7026 357.394 78.0016 357.437 78.2512C357.485 78.4965 357.553 78.7095 357.644 78.8903V79H355.907C355.826 78.8236 355.763 78.5998 355.72 78.3287C355.677 78.0533 355.656 77.7822 355.656 77.5154ZM355.894 74.7462L355.907 75.7596H354.829C354.563 75.7596 354.328 75.7876 354.126 75.8435C353.924 75.8952 353.758 75.9726 353.629 76.0759C353.5 76.1749 353.403 76.2954 353.338 76.4374C353.274 76.5751 353.241 76.7322 353.241 76.9086C353.241 77.0807 353.28 77.2356 353.358 77.3733C353.439 77.5111 353.556 77.6208 353.706 77.7026C353.861 77.78 354.042 77.8187 354.248 77.8187C354.55 77.8187 354.812 77.7585 355.036 77.638C355.26 77.5132 355.434 77.3626 355.559 77.1862C355.684 77.0097 355.75 76.8419 355.759 76.6827L356.25 77.4185C356.189 77.595 356.099 77.7822 355.978 77.9801C355.858 78.1781 355.703 78.3631 355.514 78.5352C355.324 78.7074 355.096 78.8494 354.829 78.9613C354.563 79.0732 354.253 79.1291 353.9 79.1291C353.448 79.1291 353.044 79.0387 352.686 78.858C352.329 78.6773 352.047 78.4298 351.841 78.1157C351.634 77.8015 351.531 77.4444 351.531 77.0441C351.531 76.6741 351.6 76.347 351.737 76.063C351.875 75.779 352.08 75.5401 352.351 75.3465C352.622 75.1485 352.957 75.0001 353.358 74.9011C353.762 74.7978 354.225 74.7462 354.746 74.7462H355.894ZM360.581 73.5068V79H358.877V72.0157H360.478L360.581 73.5068ZM360.31 75.2561H359.806C359.81 74.7483 359.879 74.2879 360.013 73.8748C360.146 73.4616 360.333 73.1066 360.574 72.8097C360.82 72.5128 361.11 72.2847 361.446 72.1255C361.781 71.9662 362.156 71.8866 362.569 71.8866C362.905 71.8866 363.208 71.934 363.479 72.0286C363.75 72.1233 363.983 72.2739 364.176 72.4805C364.374 72.687 364.525 72.9582 364.628 73.2938C364.736 73.6252 364.789 74.034 364.789 74.5203V79H363.072V74.5073C363.072 74.1889 363.025 73.9372 362.93 73.7521C362.84 73.5671 362.707 73.4358 362.53 73.3584C362.358 73.2809 362.145 73.2422 361.891 73.2422C361.629 73.2422 361.398 73.296 361.2 73.4035C361.007 73.5068 360.843 73.651 360.71 73.836C360.581 74.0211 360.482 74.2341 360.413 74.4751C360.344 74.7161 360.31 74.9764 360.31 75.2561ZM370.141 77.5154V74.2943C370.141 74.0577 370.1 73.8532 370.018 73.6811C369.936 73.509 369.811 73.3756 369.644 73.2809C369.476 73.1862 369.263 73.1389 369.005 73.1389C368.776 73.1389 368.576 73.1776 368.404 73.2551C368.236 73.3325 368.107 73.4423 368.017 73.5843C367.927 73.722 367.881 73.8812 367.881 74.062H366.171C366.171 73.7736 366.24 73.5004 366.377 73.2422C366.515 72.9797 366.711 72.7473 366.965 72.545C367.223 72.3385 367.531 72.1771 367.888 72.0609C368.249 71.9447 368.654 71.8866 369.101 71.8866C369.631 71.8866 370.102 71.977 370.515 72.1577C370.932 72.3342 371.259 72.601 371.496 72.9582C371.737 73.3153 371.858 73.765 371.858 74.3072V77.354C371.858 77.7026 371.879 78.0016 371.922 78.2512C371.969 78.4965 372.038 78.7095 372.129 78.8903V79H370.392C370.311 78.8236 370.248 78.5998 370.205 78.3287C370.162 78.0533 370.141 77.7822 370.141 77.5154ZM370.379 74.7462L370.392 75.7596H369.314C369.048 75.7596 368.813 75.7876 368.611 75.8435C368.409 75.8952 368.243 75.9726 368.114 76.0759C367.985 76.1749 367.888 76.2954 367.823 76.4374C367.759 76.5751 367.726 76.7322 367.726 76.9086C367.726 77.0807 367.765 77.2356 367.843 77.3733C367.924 77.5111 368.041 77.6208 368.191 77.7026C368.346 77.78 368.527 77.8187 368.733 77.8187C369.035 77.8187 369.297 77.7585 369.521 77.638C369.745 77.5132 369.919 77.3626 370.044 77.1862C370.169 77.0097 370.235 76.8419 370.244 76.6827L370.734 77.4185C370.674 77.595 370.584 77.7822 370.463 77.9801C370.343 78.1781 370.188 78.3631 369.999 78.5352C369.809 78.7074 369.581 78.8494 369.314 78.9613C369.048 79.0732 368.738 79.1291 368.385 79.1291C367.933 79.1291 367.528 79.0387 367.171 78.858C366.814 78.6773 366.532 78.4298 366.326 78.1157C366.119 77.8015 366.016 77.4444 366.016 77.0441C366.016 76.6741 366.085 76.347 366.222 76.063C366.36 75.779 366.565 75.5401 366.836 75.3465C367.107 75.1485 367.442 75.0001 367.843 74.9011C368.247 74.7978 368.71 74.7462 369.23 74.7462H370.379ZM376.699 72.0157V73.2422H372.697V72.0157H376.699ZM373.768 70.2987H375.479V76.9861C375.479 77.1926 375.507 77.3518 375.563 77.4637C375.619 77.5756 375.703 77.6509 375.814 77.6896C375.926 77.7284 376.06 77.7477 376.215 77.7477C376.327 77.7477 376.43 77.7413 376.525 77.7284C376.619 77.7155 376.699 77.7026 376.763 77.6896L376.77 78.9677C376.628 79.0151 376.466 79.0538 376.286 79.0839C376.109 79.114 375.909 79.1291 375.685 79.1291C375.302 79.1291 374.967 79.0645 374.678 78.9355C374.39 78.802 374.166 78.589 374.007 78.2964C373.848 77.9995 373.768 77.6079 373.768 77.1216V70.2987ZM380.972 79.1291C380.443 79.1291 379.967 79.043 379.545 78.8709C379.124 78.6988 378.764 78.4599 378.467 78.1544C378.175 77.8446 377.949 77.4852 377.79 77.0764C377.635 76.6633 377.557 76.2201 377.557 75.7467V75.4885C377.557 74.9506 377.635 74.4622 377.79 74.0232C377.945 73.58 378.164 73.1991 378.448 72.8807C378.732 72.5623 379.072 72.317 379.468 72.1448C379.864 71.9727 380.301 71.8866 380.778 71.8866C381.273 71.8866 381.71 71.9705 382.089 72.1384C382.467 72.3019 382.784 72.5343 383.038 72.8355C383.291 73.1367 383.483 73.4982 383.612 73.9199C383.741 74.3374 383.806 74.8 383.806 75.3078V76.0243H378.332V74.8495H382.127V74.7204C382.119 74.4493 382.067 74.2018 381.973 73.978C381.878 73.75 381.732 73.5692 381.534 73.4358C381.336 73.2981 381.08 73.2293 380.765 73.2293C380.512 73.2293 380.29 73.2852 380.101 73.3971C379.916 73.5047 379.761 73.6596 379.636 73.8619C379.515 74.0598 379.425 74.2965 379.365 74.5719C379.304 74.8473 379.274 75.1528 379.274 75.4885V75.7467C379.274 76.0393 379.313 76.3104 379.391 76.56C379.472 76.8096 379.591 77.0269 379.746 77.212C379.905 77.3927 380.094 77.5347 380.314 77.638C380.537 77.737 380.791 77.7865 381.075 77.7865C381.432 77.7865 381.755 77.7176 382.044 77.5799C382.336 77.4379 382.59 77.2292 382.805 76.9538L383.664 77.8446C383.517 78.0597 383.319 78.2663 383.07 78.4642C382.825 78.6622 382.528 78.8236 382.179 78.9484C381.831 79.0689 381.428 79.1291 380.972 79.1291ZM388.085 79.1291C387.556 79.1291 387.081 79.043 386.659 78.8709C386.237 78.6988 385.878 78.4599 385.581 78.1544C385.288 77.8446 385.062 77.4852 384.903 77.0764C384.748 76.6633 384.671 76.2201 384.671 75.7467V75.4885C384.671 74.9506 384.748 74.4622 384.903 74.0232C385.058 73.58 385.277 73.1991 385.561 72.8807C385.846 72.5623 386.185 72.317 386.581 72.1448C386.977 71.9727 387.414 71.8866 387.892 71.8866C388.387 71.8866 388.823 71.9705 389.202 72.1384C389.581 72.3019 389.897 72.5343 390.151 72.8355C390.405 73.1367 390.596 73.4982 390.725 73.9199C390.855 74.3374 390.919 74.8 390.919 75.3078V76.0243H385.445V74.8495H389.241V74.7204C389.232 74.4493 389.181 74.2018 389.086 73.978C388.991 73.75 388.845 73.5692 388.647 73.4358C388.449 73.2981 388.193 73.2293 387.879 73.2293C387.625 73.2293 387.403 73.2852 387.214 73.3971C387.029 73.5047 386.874 73.6596 386.749 73.8619C386.629 74.0598 386.538 74.2965 386.478 74.5719C386.418 74.8473 386.388 75.1528 386.388 75.4885V75.7467C386.388 76.0393 386.426 76.3104 386.504 76.56C386.586 76.8096 386.704 77.0269 386.859 77.212C387.018 77.3927 387.208 77.5347 387.427 77.638C387.651 77.737 387.905 77.7865 388.189 77.7865C388.546 77.7865 388.869 77.7176 389.157 77.5799C389.45 77.4379 389.703 77.2292 389.919 76.9538L390.777 77.8446C390.631 78.0597 390.433 78.2663 390.183 78.4642C389.938 78.6622 389.641 78.8236 389.292 78.9484C388.944 79.0689 388.542 79.1291 388.085 79.1291ZM396.251 77.5154V69.0852H397.968V79H396.419L396.251 77.5154ZM391.765 75.5918V75.4562C391.765 74.9226 391.825 74.4385 391.945 74.0039C392.07 73.5649 392.251 73.1884 392.488 72.8742C392.724 72.5601 393.011 72.317 393.346 72.1448C393.686 71.9727 394.071 71.8866 394.502 71.8866C394.919 71.8866 395.283 71.9705 395.592 72.1384C395.907 72.3062 396.173 72.545 396.393 72.8549C396.617 73.1647 396.795 73.5326 396.929 73.9587C397.062 74.3804 397.159 74.8452 397.219 75.3529V75.7209C397.159 76.2158 397.062 76.6698 396.929 77.0829C396.795 77.496 396.617 77.8575 396.393 78.1673C396.173 78.4728 395.907 78.7095 395.592 78.8774C395.278 79.0452 394.91 79.1291 394.489 79.1291C394.063 79.1291 393.68 79.0409 393.34 78.8644C393.004 78.688 392.718 78.4406 392.481 78.1221C392.249 77.8037 392.07 77.4293 391.945 76.999C391.825 76.5686 391.765 76.0996 391.765 75.5918ZM393.475 75.4562V75.5918C393.475 75.893 393.501 76.1749 393.553 76.4374C393.604 76.6999 393.688 76.9323 393.804 77.1345C393.921 77.3325 394.069 77.4874 394.25 77.5993C394.435 77.7112 394.659 77.7671 394.921 77.7671C395.257 77.7671 395.532 77.6939 395.747 77.5476C395.967 77.397 396.137 77.1926 396.257 76.9344C396.378 76.6719 396.455 76.3771 396.49 76.0501V75.0367C396.473 74.7785 396.427 74.5396 396.354 74.3202C396.285 74.1007 396.186 73.9113 396.057 73.7521C395.932 73.5929 395.778 73.4681 395.592 73.3777C395.407 73.2874 395.188 73.2422 394.934 73.2422C394.672 73.2422 394.448 73.3003 394.263 73.4165C394.078 73.5283 393.927 73.6854 393.811 73.8877C393.695 74.0899 393.609 74.3245 393.553 74.5913C393.501 74.8581 393.475 75.1464 393.475 75.4562ZM323.897 89.6016H327.312C328.026 89.6016 328.639 89.7092 329.152 89.9243C329.664 90.1395 330.057 90.4579 330.333 90.8797C330.608 91.3014 330.746 91.8199 330.746 92.4353C330.746 92.9216 330.66 93.3433 330.488 93.7005C330.316 94.0577 330.072 94.3567 329.758 94.5977C329.449 94.8387 329.083 95.028 328.661 95.1658L328.106 95.4498H325.091L325.078 94.049H327.331C327.697 94.049 328 93.9845 328.241 93.8554C328.482 93.7263 328.663 93.5477 328.784 93.3196C328.908 93.0916 328.971 92.8312 328.971 92.5386C328.971 92.2244 328.911 91.9533 328.79 91.7253C328.67 91.4929 328.487 91.3143 328.241 91.1895C327.996 91.0647 327.686 91.0023 327.312 91.0023H325.672V99H323.897V89.6016ZM329.203 99L327.028 94.7914L328.906 94.7849L331.107 98.9096V99H329.203ZM335.31 99.1291C334.78 99.1291 334.305 99.043 333.883 98.8709C333.461 98.6988 333.102 98.4599 332.805 98.1544C332.512 97.8446 332.287 97.4852 332.127 97.0764C331.972 96.6633 331.895 96.2201 331.895 95.7467V95.4885C331.895 94.9506 331.972 94.4622 332.127 94.0232C332.282 93.58 332.502 93.1991 332.786 92.8807C333.07 92.5623 333.41 92.317 333.806 92.1448C334.202 91.9727 334.638 91.8866 335.116 91.8866C335.611 91.8866 336.048 91.9705 336.426 92.1384C336.805 92.3019 337.121 92.5343 337.375 92.8355C337.629 93.1367 337.821 93.4982 337.95 93.9199C338.079 94.3374 338.143 94.8 338.143 95.3078V96.0243H332.67V94.8495H336.465V94.7204C336.456 94.4493 336.405 94.2018 336.31 93.978C336.215 93.75 336.069 93.5692 335.871 93.4358C335.673 93.2981 335.417 93.2293 335.103 93.2293C334.849 93.2293 334.628 93.2852 334.438 93.3971C334.253 93.5047 334.098 93.6596 333.973 93.8619C333.853 94.0598 333.763 94.2965 333.702 94.5719C333.642 94.8473 333.612 95.1528 333.612 95.4885V95.7467C333.612 96.0393 333.651 96.3104 333.728 96.56C333.81 96.8096 333.928 97.0269 334.083 97.212C334.242 97.3927 334.432 97.5347 334.651 97.638C334.875 97.737 335.129 97.7865 335.413 97.7865C335.77 97.7865 336.093 97.7176 336.381 97.5799C336.674 97.4379 336.928 97.2292 337.143 96.9538L338.001 97.8446C337.855 98.0597 337.657 98.2663 337.407 98.4642C337.162 98.6622 336.865 98.8236 336.517 98.9484C336.168 99.0689 335.766 99.1291 335.31 99.1291ZM342.591 92.0157V93.2422H338.589V92.0157H342.591ZM339.66 90.2987H341.371V96.9861C341.371 97.1926 341.399 97.3518 341.455 97.4637C341.511 97.5756 341.595 97.6509 341.706 97.6896C341.818 97.7284 341.952 97.7477 342.107 97.7477C342.219 97.7477 342.322 97.7413 342.417 97.7284C342.511 97.7155 342.591 97.7026 342.655 97.6896L342.662 98.9677C342.52 99.0151 342.358 99.0538 342.178 99.0839C342.001 99.114 341.801 99.1291 341.577 99.1291C341.194 99.1291 340.859 99.0645 340.57 98.9355C340.282 98.802 340.058 98.589 339.899 98.2964C339.74 97.9995 339.66 97.6079 339.66 97.1216V90.2987ZM347.884 97.3411V92.0157H349.601V99H347.987L347.884 97.3411ZM348.103 95.8952L348.633 95.8823C348.633 96.3513 348.581 96.7838 348.478 97.1797C348.374 97.5756 348.213 97.9199 347.994 98.2125C347.778 98.5008 347.505 98.7267 347.174 98.8903C346.842 99.0495 346.451 99.1291 345.999 99.1291C345.655 99.1291 345.341 99.0818 345.057 98.9871C344.773 98.8881 344.527 98.7353 344.321 98.5288C344.118 98.3179 343.961 98.049 343.85 97.7219C343.738 97.3906 343.682 96.9925 343.682 96.5277V92.0157H345.386V96.5407C345.386 96.773 345.412 96.9667 345.463 97.1216C345.519 97.2765 345.595 97.4035 345.689 97.5024C345.788 97.5971 345.902 97.666 346.031 97.709C346.165 97.7477 346.307 97.7671 346.457 97.7671C346.87 97.7671 347.195 97.6853 347.432 97.5218C347.673 97.354 347.845 97.1302 347.948 96.8505C348.052 96.5665 348.103 96.248 348.103 95.8952ZM352.815 93.4423V99H351.111V92.0157H352.725L352.815 93.4423ZM354.939 91.9705L354.913 93.5585C354.819 93.5413 354.711 93.5283 354.591 93.5197C354.474 93.5111 354.365 93.5068 354.261 93.5068C353.999 93.5068 353.769 93.5434 353.571 93.6166C353.373 93.6854 353.207 93.7865 353.074 93.9199C352.945 94.0533 352.846 94.2169 352.777 94.4105C352.708 94.5999 352.669 94.815 352.661 95.056L352.293 95.0108C352.293 94.5676 352.338 94.1566 352.428 93.7779C352.519 93.3992 352.65 93.0679 352.822 92.7839C352.994 92.4999 353.209 92.2804 353.467 92.1255C353.73 91.9662 354.031 91.8866 354.371 91.8866C354.466 91.8866 354.567 91.8952 354.674 91.9125C354.786 91.9254 354.875 91.9447 354.939 91.9705ZM357.547 93.5068V99H355.843V92.0157H357.444L357.547 93.5068ZM357.276 95.2561H356.772C356.777 94.7483 356.846 94.2879 356.979 93.8748C357.112 93.4616 357.3 93.1066 357.54 92.8097C357.786 92.5128 358.076 92.2847 358.412 92.1255C358.748 91.9662 359.122 91.8866 359.535 91.8866C359.871 91.8866 360.174 91.934 360.445 92.0286C360.716 92.1233 360.949 92.2739 361.142 92.4805C361.34 92.687 361.491 92.9582 361.594 93.2938C361.702 93.6252 361.756 94.034 361.756 94.5203V99H360.039V94.5073C360.039 94.1889 359.991 93.9372 359.897 93.7521C359.806 93.5671 359.673 93.4358 359.496 93.3584C359.324 93.2809 359.111 93.2422 358.857 93.2422C358.595 93.2422 358.365 93.296 358.167 93.4035C357.973 93.5068 357.809 93.651 357.676 93.836C357.547 94.0211 357.448 94.2341 357.379 94.4751C357.31 94.7161 357.276 94.9764 357.276 95.2561ZM367.1 97.0893C367.1 96.943 367.062 96.8118 366.984 96.6956C366.907 96.5794 366.76 96.474 366.545 96.3793C366.334 96.2803 366.024 96.1878 365.616 96.1017C365.254 96.0243 364.921 95.9274 364.615 95.8112C364.31 95.6951 364.047 95.5552 363.828 95.3917C363.608 95.2238 363.436 95.028 363.311 94.8043C363.191 94.5762 363.13 94.3137 363.13 94.0168C363.13 93.7284 363.193 93.4573 363.318 93.2034C363.442 92.9452 363.623 92.7193 363.86 92.5257C364.097 92.3277 364.385 92.1728 364.725 92.0609C365.065 91.9447 365.448 91.8866 365.874 91.8866C366.468 91.8866 366.978 91.9835 367.404 92.1771C367.834 92.3708 368.163 92.6376 368.391 92.9775C368.619 93.3132 368.733 93.6919 368.733 94.1136H367.029C367.029 93.9286 366.986 93.7607 366.9 93.6101C366.818 93.4595 366.691 93.339 366.519 93.2486C366.347 93.154 366.13 93.1066 365.867 93.1066C365.631 93.1066 365.431 93.1453 365.267 93.2228C365.108 93.3003 364.987 93.4014 364.906 93.5262C364.824 93.651 364.783 93.7887 364.783 93.9393C364.783 94.0512 364.804 94.1523 364.848 94.2427C364.895 94.3288 364.97 94.4084 365.073 94.4815C365.177 94.5547 365.317 94.6214 365.493 94.6816C365.674 94.7419 365.895 94.8 366.158 94.8559C366.679 94.9592 367.133 95.0969 367.52 95.269C367.911 95.4369 368.217 95.6606 368.436 95.9403C368.656 96.2201 368.766 96.5772 368.766 97.0119C368.766 97.3217 368.699 97.6057 368.566 97.8639C368.432 98.1178 368.239 98.3394 367.985 98.5288C367.731 98.7181 367.427 98.8666 367.074 98.9742C366.722 99.0775 366.324 99.1291 365.88 99.1291C365.239 99.1291 364.697 99.0151 364.254 98.787C363.81 98.5546 363.475 98.262 363.247 97.9091C363.019 97.5519 362.905 97.1819 362.905 96.7989H364.538C364.551 97.07 364.624 97.2873 364.757 97.4508C364.891 97.6143 365.058 97.7327 365.261 97.8058C365.467 97.8747 365.685 97.9091 365.913 97.9091C366.171 97.9091 366.388 97.8747 366.565 97.8058C366.741 97.7327 366.874 97.6359 366.965 97.5154C367.055 97.3906 367.1 97.2486 367.1 97.0893Z" fill="#003366"/>
<defs>
<linearGradient id="paint0_linear_34_12" x1="183.105" y1="229.026" x2="183.105" y2="85.9218" gradientUnits="userSpaceOnUse">
<stop stop-color="#808080" stop-opacity="0.25"/>
<stop offset="0.54" stop-color="#808080" stop-opacity="0.12"/>
<stop offset="1" stop-color="#808080" stop-opacity="0.1"/>
</linearGradient>
<clipPath id="clip0_34_12">
<rect width="325.537" height="229.022" fill="white" transform="translate(20.4991)"/>
</clipPath>
<clipPath id="clip1_34_12">
<rect width="64.5564" height="52.0491" fill="white" transform="matrix(-1 0 0 1 346.146 173.84)"/>
</clipPath>
</defs>
</svg>
