<svg xmlns="http://www.w3.org/2000/svg" xmlns:xlink="http://www.w3.org/1999/xlink" width="223.305" height="223.136" viewBox="0 0 223.305 223.136">
  <defs>
    <linearGradient id="linear-gradient" x1="-0.001" y1="0.5" x2="0.999" y2="0.5" gradientUnits="objectBoundingBox">
      <stop offset="0" stop-opacity="0.278"/>
      <stop offset="1" stop-opacity="0.039"/>
    </linearGradient>
    <linearGradient id="linear-gradient-2" x1="-11.62" y1="-2.542" x2="-13.144" y2="4.745" gradientUnits="objectBoundingBox">
      <stop offset="0" stop-color="#ff928e"/>
      <stop offset="1" stop-color="#fe7062"/>
    </linearGradient>
    <linearGradient id="linear-gradient-3" x1="-33.987" y1="0.5" x2="-32.987" y2="0.5" gradientUnits="objectBoundingBox">
      <stop offset="0" stop-color="#febbba"/>
      <stop offset="1" stop-color="#ff928e"/>
    </linearGradient>
    <filter id="Path_833" x="173.38" y="95.43" width="21.719" height="22.061" filterUnits="userSpaceOnUse">
      <feOffset dy="3" input="SourceAlpha"/>
      <feGaussianBlur stdDeviation="3" result="blur"/>
      <feFlood flood-opacity="0.161"/>
      <feComposite operator="in" in2="blur"/>
      <feComposite in="SourceGraphic"/>
    </filter>
    <linearGradient id="linear-gradient-4" x1="19.439" y1="12.232" x2="19.096" y2="16.641" gradientUnits="objectBoundingBox">
      <stop offset="0" stop-color="#50e7b7"/>
      <stop offset="1" stop-color="#323992"/>
    </linearGradient>
    <linearGradient id="linear-gradient-5" x1="19.439" y1="12.232" x2="19.096" y2="16.641" xlink:href="#linear-gradient-4"/>
  </defs>
  <g id="Illustration" transform="translate(-477.279 -463.419)">
    <path id="Path_795" data-name="Path 795" d="M673.715,654.242a85.484,85.484,0,0,1-14.992,12.172c-38.834,25.933-83.228,18.456-96.952,15.9-22.144-4.122-40.836-7.029-56.9-21.539-36.493-32.97-34.718-101.749-6.833-144.354,3.306-5.052,31.15-46.324,75.639-52.139,1.088-.143,1.9-.224,2.611-.3,6.883-.729,49.531-4.575,84.306,24.56a103.837,103.837,0,0,1,20.422,23.166C708.174,553.663,708.26,618.635,673.715,654.242Z" transform="translate(0 0)" fill="#e9deee"/>
    <path id="Path_796" data-name="Path 796" d="M1762.434,539.418c4.5,22.3,25.4,153.118-93.844,194.778,0,0-35.928-82.58,90.674-195.838A1.925,1.925,0,0,1,1762.434,539.418Z" transform="translate(-1090.439 -68.416)" fill="#f3949b"/>
    <path id="Path_797" data-name="Path 797" d="M1922.835,853.819c-2.323,6.888-4.786,13.725-7.309,20.539s-5.129,13.6-7.812,20.352c-5.366,13.506-11.034,26.9-17.113,40.107s-12.561,26.236-19.742,38.9q-5.354,9.511-11.406,18.62a183.673,183.673,0,0,1-13.087,17.521.782.782,0,1,1-1.188-1.017h0a182.087,182.087,0,0,0,13.064-17.307c4.05-6,7.861-12.175,11.449-18.477,7.219-12.578,13.75-25.553,19.9-38.7s11.868-26.5,17.3-39.965q4.072-10.1,7.91-20.292c2.555-6.8,5.053-13.615,7.407-20.48h0a.331.331,0,0,1,.627.213Z" transform="translate(-1256.872 -358.382)" fill="#fff" opacity="0.45"/>
    <path id="Path_798" data-name="Path 798" d="M1972.146,1363.749s-1.521-22.194,18.775-46.617c18.832-22.66,65.392-75.352,74.729-103.053a1.2,1.2,0,0,1,2.326.254,146.746,146.746,0,0,1-18.7,85.328C2022.437,1346.878,1972.146,1363.749,1972.146,1363.749Z" transform="translate(-1373.7 -689.069)" fill="#f3949b"/>
    <path id="Path_799" data-name="Path 799" d="M2124.2,1537.706a51.476,51.476,0,0,1-1.3,9.114c-.081.376-.156.754-.243,1.127l-.286,1.118-.573,2.234-.666,2.209c-.229.734-.426,1.48-.7,2.2a108.765,108.765,0,0,1-7.41,16.9c-.682,1.383-1.506,2.685-2.28,4.016l-1.174,1.99c-.2.329-.382.669-.6.989l-.634.964-2.54,3.86c-.405.653-.885,1.26-1.336,1.883l-1.368,1.864-1.369,1.864-.688.917-.729.891-2.917,3.581c-.486.593-.963,1.2-1.468,1.783l-1.513,1.736-3.027,3.472-3.065,3.436c-1.025,1.143-2.04,2.3-3.08,3.422q-3.1,3.4-6.255,6.759c-2.092,2.246-4.219,4.457-6.334,6.681l-6.414,6.6c-4.278,4.394-8.564,8.779-12.7,13.3-1.048,1.116-2.039,2.28-3.049,3.429-.513.567-.985,1.169-1.472,1.758s-.977,1.177-1.443,1.783c-.906,1.228-1.864,2.426-2.678,3.714l-.638.95c-.1.162-.218.315-.314.479l-.285.5-1.144,1.984v.007a.166.166,0,0,1-.293-.157,54.381,54.381,0,0,1,4.892-7.827c.456-.62.942-1.216,1.412-1.826s.939-1.22,1.441-1.8c.989-1.177,1.959-2.371,2.985-3.515l1.521-1.732c.511-.573,1.036-1.135,1.553-1.7l1.557-1.7,1.573-1.681c2.094-2.245,4.214-4.463,6.321-6.691,4.22-4.452,8.44-8.9,12.609-13.39s8.277-9.039,12.342-13.623l3.018-3.466,1.509-1.733c.5-.577.973-1.176,1.464-1.763l2.911-3.538.729-.885.686-.916,1.366-1.839a134.974,134.974,0,0,0,10.01-15.329,107.947,107.947,0,0,0,7.693-16.613c.287-.71.5-1.445.75-2.166l.729-2.173.641-2.2.319-1.1c.1-.37.186-.742.279-1.113.177-.744.378-1.483.537-2.232l.459-2.249a44.983,44.983,0,0,0,.632-4.548.021.021,0,0,1,.021-.02A.023.023,0,0,1,2124.2,1537.706Z" transform="translate(-1438.106 -987.203)" fill="#fff" opacity="0.45"/>
    <path id="Path_800" data-name="Path 800" d="M516.5,804.19a14.02,14.02,0,0,1,14.02-14.02H649.761A12.353,12.353,0,0,1,662.1,801.9l8.8,172.875a9.111,9.111,0,0,1-8.932,9.572L525.3,986.824a8.648,8.648,0,0,1-8.8-8.646Z" transform="translate(-36.042 -300.271)" fill="#036"/>
    <path id="Path_801" data-name="Path 801" d="M593,2806.266h0l-15.291-.2a9.431,9.431,0,0,1-9.273-9.394v-23.088a.327.327,0,1,1,.653,0v23.088a8.775,8.775,0,0,0,8.628,8.741l15.292.2a.327.327,0,0,1,0,.653Z" transform="translate(-83.764 -2122.652)" fill="#91b3fa"/>
    <path id="Path_802" data-name="Path 802" d="M568.784,2643.262a.324.324,0,0,1-.324-.324V2639.2a.327.327,0,1,1,.653,0v3.736a.324.324,0,0,1-.329.33Z" transform="translate(-83.792 -1999.153)" fill="#91b3fa"/>
    <path id="Path_803" data-name="Path 803" d="M637,776.523a4.072,4.072,0,0,1,4.619-4.062c16.289,2.206,72.281,9.036,118.576,5.482a3.766,3.766,0,0,1,4.056,3.552l9.229,173.646a4.335,4.335,0,0,1-4.071,4.558c-19.471,1.152-99.658,5.606-128.26,2.61a3.434,3.434,0,0,1-3.072-3.4Z" transform="translate(-146.776 -283.964)" fill="#036"/>
    <path id="Path_804" data-name="Path 804" d="M660.709,831.947a3.92,3.92,0,0,1,4.446-3.909c15.67,2.125,69.556,8.7,114.1,5.277a3.624,3.624,0,0,1,3.9,3.418l8.881,167.1a4.17,4.17,0,0,1-3.918,4.387c-18.737,1.109-95.9,5.395-123.429,2.512a3.3,3.3,0,0,1-2.957-3.27Z" transform="translate(-168.565 -335.038)" fill="#dce6f2"/>
    <rect id="Rectangle_109" data-name="Rectangle 109" width="106.429" height="14.327" rx="7.164" transform="translate(502.566 507.503)" fill="#fff" opacity="0.58"/>
    <rect id="Rectangle_110" data-name="Rectangle 110" width="108.412" height="7.163" rx="3.582" transform="translate(502.33 581.729)" fill="#fff" opacity="0.58"/>
    <rect id="Rectangle_111" data-name="Rectangle 111" width="108.412" height="7.163" rx="3.582" transform="translate(502.33 592.782)" fill="#fff" opacity="0.58"/>
    <rect id="Rectangle_112" data-name="Rectangle 112" width="110.677" height="7.163" rx="3.582" transform="translate(502.42 655.889)" fill="#fff" opacity="0.58"/>
    <path id="Path_805" data-name="Path 805" d="M892.093,1334.06H789a2.6,2.6,0,0,1-2.6-2.6v-38.6a2.6,2.6,0,0,1,2.6-2.6H890.341a2.6,2.6,0,0,1,2.593,2.481l1.748,38.6a2.6,2.6,0,0,1-2.59,2.717Z" transform="translate(-284.07 -759.834)" fill="#fff" opacity="0.25"/>
    <path id="Path_806" data-name="Path 806" d="M888.256,1329.877H785.163a3.006,3.006,0,0,1-3-3v-38.606a3.006,3.006,0,0,1,3-3H886.508a3,3,0,0,1,3,2.868l1.75,38.6a3,3,0,0,1-3,3.139Zm-103.093-43.8a2.2,2.2,0,0,0-2.2,2.2v38.6a2.2,2.2,0,0,0,2.2,2.194H888.256a2.2,2.2,0,0,0,2.193-2.294l-1.748-38.6a2.188,2.188,0,0,0-2.193-2.1Z" transform="translate(-280.173 -755.249)" fill="#fff"/>
    <path id="Path_807" data-name="Path 807" d="M894.76,2287.8H790.807a3.3,3.3,0,0,1-3.3-3.3V2247.3a3.3,3.3,0,0,1,3.3-3.3H893.322a3.3,3.3,0,0,1,3.293,3.169l1.442,37.206a3.3,3.3,0,0,1-3.3,3.428Z" transform="translate(-285.09 -1636.284)" fill="#fff" opacity="0.25"/>
    <path id="Path_808" data-name="Path 808" d="M890.184,2283.657H786.23a3.7,3.7,0,0,1-3.7-3.7v-37.206a3.7,3.7,0,0,1,3.7-3.7H888.746a3.69,3.69,0,0,1,3.7,3.558l1.442,37.206a3.7,3.7,0,0,1-3.7,3.844Zm-103.954-43.8a2.9,2.9,0,0,0-2.892,2.893v37.206a2.9,2.9,0,0,0,2.892,2.892H890.184a2.892,2.892,0,0,0,2.891-3l-1.442-37.205a2.884,2.884,0,0,0-2.89-2.781Z" transform="translate(-280.513 -1631.734)" fill="#fff"/>
    <rect id="Rectangle_113" data-name="Rectangle 113" width="0.808" height="43.805" transform="matrix(1, -0.017, 0.017, 1, 534.033, 530.435)" fill="#fff"/>
    <rect id="Rectangle_114" data-name="Rectangle 114" width="0.808" height="43.816" transform="matrix(1, -0.027, 0.027, 1, 573.703, 530.428)" fill="#fff"/>
    <rect id="Rectangle_115" data-name="Rectangle 115" width="74.6" height="0.808" transform="matrix(1, -0.014, 0.014, 1, 534.796, 543.854)" fill="#fff"/>
    <rect id="Rectangle_116" data-name="Rectangle 116" width="75.15" height="0.808" transform="translate(534.958 560.396)" fill="#fff"/>
    <rect id="Rectangle_117" data-name="Rectangle 117" width="43.803" height="0.808" transform="translate(534.04 651.52) rotate(-89.29)" fill="#fff"/>
    <rect id="Rectangle_118" data-name="Rectangle 118" width="76.767" height="0.808" transform="translate(535.227 617.769)" fill="#fff"/>
    <rect id="Rectangle_119" data-name="Rectangle 119" width="77.575" height="0.808" transform="translate(534.689 628.274)" fill="#fff"/>
    <rect id="Rectangle_120" data-name="Rectangle 120" width="0.808" height="77.88" transform="translate(534.787 640.107) rotate(-89.29)" fill="#fff"/>
    <path id="Path_809" data-name="Path 809" d="M1352.643,469.673c-4.307-3-8.052-2.938-10.688-2.16a5.258,5.258,0,0,0-3.735,5.529l1.135,12.41,13.534,1.2S1361.09,475.55,1352.643,469.673Zm-5.949,10.012a3.374,3.374,0,1,1,3.373-3.373,3.374,3.374,0,0,1-3.373,3.373Z" transform="translate(-791.149 -3.347)" fill="#036"/>
    <path id="Path_810" data-name="Path 810" d="M1359.7,500.831a.324.324,0,0,1-.324-.3l-.177-1.977a.326.326,0,1,1,.648-.059l.181,1.976a.324.324,0,0,1-.295.355Zm-.355-3.873a.324.324,0,0,1-.324-.3l-.137-1.5a5.02,5.02,0,0,1,3.559-5.268,10.109,10.109,0,0,1,4.943-.2.326.326,0,0,1-.13.639,9.481,9.481,0,0,0-4.629.19,4.365,4.365,0,0,0-3.093,4.581l.137,1.5a.324.324,0,0,1-.295.355Z" transform="translate(-810.136 -23.946)" fill="#91b3fa"/>
    <path id="Path_811" data-name="Path 811" d="M1124.66,679.024v-6.24a3.809,3.809,0,0,1,3.938-3.809l43.017,1.474a3.7,3.7,0,0,1,3.566,3.479l.359,6Z" transform="translate(-594.917 -188.896)" fill="#036"/>
    <path id="Path_812" data-name="Path 812" d="M1297.934,690.648h-1.85a.324.324,0,1,1,0-.648h1.85a.324.324,0,0,1,0,.648Z" transform="translate(-752.151 -208.219)" fill="#91b3fa"/>
    <path id="Path_813" data-name="Path 813" d="M1149.714,696.385a.324.324,0,0,1-.324-.324v-2.526a3.541,3.541,0,0,1,3.534-3.535h6.8a.324.324,0,1,1,0,.648h-6.8a2.888,2.888,0,0,0-2.884,2.884v2.524a.324.324,0,0,1-.326.329Z" transform="translate(-617.643 -208.219)" fill="#91b3fa"/>
    <path id="Path_814" data-name="Path 814" d="M906.451,768.649a4.052,4.052,0,0,1,4.052-3.859h75.223a5.561,5.561,0,0,1,5.479,4.612l.063.368a4.775,4.775,0,0,1-4.7,5.592H909.386a3.1,3.1,0,0,1-3.1-3.261Z" transform="translate(-394.236 -276.948)" fill="#e8505b"/>
    <path id="Path_815" data-name="Path 815" d="M1455.912,2162.228c-15.529,8.833-28.494,8.281-43.153.578a2.755,2.755,0,0,1-1.474-2.57l.029-.621a2.755,2.755,0,0,1,3.785-2.417c12.73,5.187,22.3,8.032,38.243.167a2.749,2.749,0,0,1,3.957,2.285h0A2.755,2.755,0,0,1,1455.912,2162.228Z" transform="translate(-858.312 -1556.332)" fill="#036"/>
    <path id="Path_816" data-name="Path 816" d="M1848.283,2141.679l8.573-12.15a.6.6,0,0,0-.417-.939l-14.2-1.737a.693.693,0,0,0-.725.955,30.659,30.659,0,0,1,5.729,13.756.6.6,0,0,0,1.039.115Z" transform="translate(-1253.629 -1528.624)" fill="#036"/>
    <path id="Path_817" data-name="Path 817" d="M1349.242,936.338c15.634-9.657,28.98-9.573,44.336-2.2a2.837,2.837,0,0,1,1.611,2.587l-.007.639a2.83,2.83,0,0,1-3.8,2.625c-13.278-4.858-23.224-7.426-39.316,1.253a2.828,2.828,0,0,1-4.153-2.2h0A2.837,2.837,0,0,1,1349.242,936.338Z" transform="translate(-800.064 -427.692)" fill="#036"/>
    <path id="Path_818" data-name="Path 818" d="M1302.6,926.217l-8.36,12.808a.617.617,0,0,0,.464.951l14.661,1.257a.714.714,0,0,0,.71-1.01,31.509,31.509,0,0,1-6.4-13.927.614.614,0,0,0-1.072-.079Z" transform="translate(-750.662 -425.037)" fill="#036"/>
    <path id="Path_819" data-name="Path 819" d="M2984.718,3110.451s1,1.583,1.257,6.014a.723.723,0,0,1-.717.765H2977.4a.463.463,0,0,1-.441-.609,12.565,12.565,0,0,1,4.957-6.581Z" transform="translate(-2297.088 -2432.14)" fill="#131123"/>
    <path id="Path_820" data-name="Path 820" d="M3035.574,3073.41l-.444,3.728a.7.7,0,0,1-.612.615,6.221,6.221,0,0,1-1.661-.016,1.149,1.149,0,0,1-.948-1.141V3073Z" transform="translate(-2347.603 -2398.102)" fill="#ffbe9d"/>
    <path id="Path_821" data-name="Path 821" d="M2689.05,3110a10.972,10.972,0,0,1,1.471,5.544,1.388,1.388,0,0,1-1.4,1.357h-12.2a.584.584,0,0,1-.336-1.062c2.309-1.621,6.845-4.648,10.13-5.839Z" transform="translate(-2020.853 -2432.103)" fill="#131123"/>
    <path id="Path_822" data-name="Path 822" d="M2807.348,3040.146l-.943,4.6a.949.949,0,0,1-1.123.746,3.431,3.431,0,0,1-1.072-.449,1.089,1.089,0,0,1-.486-1.111l.979-5.573Z" transform="translate(-2137.894 -2366.269)" fill="#ffbe9d"/>
    <path id="Path_823" data-name="Path 823" d="M2819.441,2271.19s3.294,2.9,3.914,6.4-1.757,60.293-1.757,60.293-3.294.549-4.992-.481c0,0-2.015-36.86-3.545-45.378,0,0-8.029,38.183-10.254,45.081,0,0-3.174.387-4.2-.218,0,0,2.1-49.5,4.746-58.295Z" transform="translate(-2133.211 -1661.27)" fill="#263238"/>
    <path id="Path_824" data-name="Path 824" d="M2974.4,2422.724a.33.33,0,0,1-.317-.416l1.4-5.368a.332.332,0,0,1,.141-.2l3.024-1.939a.331.331,0,0,1,.357.557l-2.917,1.869-1.366,5.242a.329.329,0,0,1-.32.25Z" transform="translate(-2294.452 -1793.199)" fill="url(#linear-gradient)"/>
    <path id="Path_825" data-name="Path 825" d="M2512.023,1850.47c13.868-1.152,17.493,1.718,17.493,1.718l-6.665,10.522s-13.624-.265-23.392-7.8a23.89,23.89,0,0,0,3.911-5.835A18.356,18.356,0,0,0,2512.023,1850.47Z" transform="translate(-1858.304 -1273.368)" fill="url(#linear-gradient-2)"/>
    <path id="Path_826" data-name="Path 826" d="M2381.054,1610.353a.425.425,0,0,1,.81-.162l1.77,3.776a3.929,3.929,0,0,1,.313,2.34l-.621,2.2a3.793,3.793,0,0,0,.774,3.02,26.388,26.388,0,0,0,10.019,7.794,23.7,23.7,0,0,1-3.911,5.835,23.927,23.927,0,0,1-8.324-11.56,1.856,1.856,0,0,1-1.31-1.844Z" transform="translate(-1749.052 -1053.611)" fill="url(#linear-gradient-3)"/>
    <path id="Path_827" data-name="Path 827" d="M2451.439,1842.9c4.882-5.261,14.182-7.638,19.565-8.614a4.944,4.944,0,0,1,5.521,3.131c2.422,6.513,9.012,23.459,10.292,26.371,1.048,2.389,2.142,4.723,2.837,6.182a1.751,1.751,0,0,1-.817,2.334c-4.53,2.183-12.681,4.654-15.986,5.618a1.135,1.135,0,0,1-1.451-1.091,3.543,3.543,0,0,0-.505-1.824l-12.515-20.855c-7.8,8.649-14.633,9.44-19.88,7.547a39.491,39.491,0,0,0,1.737-8.2C2447.987,1852.181,2451.439,1842.9,2451.439,1842.9Z" transform="translate(-1802.284 -1259.7)" fill="#455a64"/>
    <path id="Path_828" data-name="Path 828" d="M2274.86,2018.751l2.534-1.481c4.529,3.11,9.363,4.994,12.462,4.463a39.473,39.473,0,0,1-1.737,8.2C2281.206,2027.435,2274.86,2018.751,2274.86,2018.751Z" transform="translate(-1651.905 -1427.928)" fill="#ffbe9d"/>
    <path id="Path_829" data-name="Path 829" d="M2125.049,1980.372c1.576-.857,6.253-1.6,6.253-1.6s5.375-3.145,6.923-3.764c1.285-.514,1.838,1.409,1.989,2.075.031.136.045.219.045.219l-.2,1.278-5.43,2.414a6.918,6.918,0,0,1-3.707.537l-5.8-.759a.216.216,0,0,1-.075-.405Z" transform="translate(-1514.131 -1389.015)" fill="#ffbe9d"/>
    <path id="Path_830" data-name="Path 830" d="M2674.05,1716l4.159,10.149s-4.781,3.308-8.624,2.993l-2.075-9.125Z" transform="translate(-2012.735 -1151.072)" fill="#ffbe9d"/>
    <path id="Path_831" data-name="Path 831" d="M2627.408,1623.851c-.095.135-3.008,10.66-3.008,10.66l6.046,1.536,4.243-9.563S2629,1621.592,2627.408,1623.851Z" transform="translate(-1973.119 -1065.844)" fill="#ffbe9d"/>
    <path id="Path_832" data-name="Path 832" d="M2621.289,1581.51l-1.839,5.211a.785.785,0,0,1-.1.186c-.25.355-1.2,1.511-2.323.469a6.929,6.929,0,0,0-2.836-1.945.771.771,0,0,0-.878.554,33.392,33.392,0,0,0-1.016,5.078.77.77,0,0,0,.626.83,24.878,24.878,0,0,0,5.773.481.774.774,0,0,0,.648-.448c.576-1.258,2.34-5.077,3-6.065.616-.927,2.126-.9,2.755-.845a.76.76,0,0,0,.567-.186,2,2,0,0,0,.125-3.21.774.774,0,0,1,.018-1.113,2,2,0,0,0,.257-2.979,2.834,2.834,0,0,0-3.375-.81.773.773,0,0,1-.929-.344.609.609,0,0,0-.631-.294.76.76,0,0,1-.811-.78,2.3,2.3,0,0,0-1.783-2.405c-2.64-.822-4.287,1.729-4.45,3.633s2.75,2.632,4.464,2.5c1.3-.1,2.269,1.194,2.658,1.818A.764.764,0,0,1,2621.289,1581.51Z" transform="translate(-1961.997 -1019.419)" fill="#131123"/>
    <g transform="matrix(1, 0, 0, 1, 477.28, 463.42)" filter="url(#Path_833)">
      <path id="Path_833-2" data-name="Path 833" d="M2727.78,1718.512s.427-3.3,1.8-3.467,2.713.968,1.346,2.823C2729.228,1720.174,2727.78,1718.512,2727.78,1718.512Z" transform="translate(-2545.4 -1613.6)" fill="#ffbe9d"/>
    </g>
    <rect id="Rectangle_121" data-name="Rectangle 121" width="94.747" height="44.467" transform="matrix(1, -0.003, 0.003, 1, 545.696, 544.034)" fill="#e8505b"/>
    <path id="Path_834" data-name="Path 834" d="M1474.124,1523.376l.081,25.277a4.062,4.062,0,0,0-3.719,4.227q.019.171.02.344l-76.476.243c0-.291.007-.272.007-.344a3.971,3.971,0,0,0-3.744-4.133c-.03,0-.081-.065-.081-.065l-.081-24.708c3.485-.011,3.818-2.371,3.809-4.624a.3.3,0,0,0-.023-.129l76.476-.243a.371.371,0,0,0-.018.13A3.9,3.9,0,0,0,1474.124,1523.376Z" transform="translate(-838.874 -970.239)" fill="#fff" opacity="0.5"/>
    <circle id="Ellipse_224" data-name="Ellipse 224" cx="13.898" cy="13.898" r="13.898" transform="translate(573.565 565.928) rotate(-45)" fill="url(#linear-gradient-4)"/>
    <path id="Path_835" data-name="Path 835" d="M1838.343,1621.737l0-1.469a11.992,11.992,0,0,1-4.127-.881.85.85,0,0,1-.473-1l.37-1.371a.856.856,0,0,1,1.161-.567,9.945,9.945,0,0,0,3.809.789c1.476,0,2.574-.509,2.571-1.534,0-.925-.855-1.473-2.908-2.016-2.928-.791-5.033-2.059-5.042-4.635-.007-2.326,1.687-4.107,4.637-4.591l0-1.47a.857.857,0,0,1,.853-.859h.864a.857.857,0,0,1,.859.853v1.319a10.935,10.935,0,0,1,3.27.577.851.851,0,0,1,.536,1.027l-.339,1.266a.854.854,0,0,1-1.126.58,8.922,8.922,0,0,0-3.208-.567c-1.75.006-2.248.729-2.246,1.382,0,.8,1.054,1.347,3.333,2.041,3.255.964,4.609,2.311,4.619,4.737.007,2.225-1.637,4.232-4.836,4.742l.005,1.644a.856.856,0,0,1-.854.859h-.863A.856.856,0,0,1,1838.343,1621.737Z" transform="translate(-1246.496 -1046.43)" fill="#fff"/>
    <path id="Path_836" data-name="Path 836" d="M1353.541,1497.686a.189.189,0,0,1-.013-.068l-.028-8.573a.189.189,0,0,1,.189-.19l23.1-.075a.189.189,0,0,1,0,.378l-22.916.074.027,8.385a.189.189,0,0,1-.365.069Z" transform="translate(-805.212 -942.266)" fill="#fff"/>
    <path id="Path_837" data-name="Path 837" d="M2170.912,1869.968a.188.188,0,0,1,.175-.257l22.917-.075-.028-8.384a.19.19,0,0,1,.379,0l.028,8.574a.192.192,0,0,1-.055.134.188.188,0,0,1-.134.056l-23.1.075A.189.189,0,0,1,2170.912,1869.968Z" transform="translate(-1556.369 -1284.391)" fill="#fff"/>
    <rect id="Rectangle_122" data-name="Rectangle 122" width="94.747" height="44.467" transform="matrix(1, -0.003, 0.003, 1, 544.497, 545.161)" fill="#f94754"/>
    <path id="Path_838" data-name="Path 838" d="M1459.334,1537.3l.081,25.277a4.06,4.06,0,0,0-3.719,4.226c0,.071.015.053.019.344l-76.476.243c0-.291.006-.273.006-.344a3.971,3.971,0,0,0-3.744-4.133c-.031,0-.081-.064-.081-.064l-.081-24.708c3.485-.011,3.817-2.371,3.809-4.624a.324.324,0,0,0-.022-.129l76.476-.243a.368.368,0,0,0-.018.129A3.9,3.9,0,0,0,1459.334,1537.3Z" transform="translate(-825.282 -983.041)" fill="#fff" opacity="0.5"/>
    <circle id="Ellipse_225" data-name="Ellipse 225" cx="13.898" cy="13.898" r="13.898" transform="translate(572.367 567.056) rotate(-45)" fill="url(#linear-gradient-5)"/>
    <path id="Path_839" data-name="Path 839" d="M1823.578,1635.657v-1.469a12,12,0,0,1-4.126-.881.851.851,0,0,1-.473-1l.369-1.371a.857.857,0,0,1,1.161-.567,9.961,9.961,0,0,0,3.809.789c1.476,0,2.575-.509,2.572-1.534,0-.926-.855-1.473-2.908-2.016-2.929-.791-5.033-2.06-5.042-4.635-.008-2.327,1.687-4.107,4.637-4.592l0-1.47a.856.856,0,0,1,.853-.859h.863a.856.856,0,0,1,.859.853l0,1.319a10.91,10.91,0,0,1,3.27.576.852.852,0,0,1,.536,1.027l-.339,1.267a.853.853,0,0,1-1.125.58,8.907,8.907,0,0,0-3.207-.567c-1.751.005-2.249.729-2.247,1.383,0,.8,1.054,1.347,3.333,2.04,3.254.965,4.609,2.311,4.619,4.737.007,2.226-1.637,4.232-4.836,4.743l0,1.645a.856.856,0,0,1-.853.859h-.864a.856.856,0,0,1-.865-.854Z" transform="translate(-1232.933 -1059.222)" fill="#fff"/>
    <path id="Path_840" data-name="Path 840" d="M1338.73,1511.605a.185.185,0,0,1-.013-.068l-.027-8.574a.189.189,0,0,1,.188-.19l23.105-.074a.189.189,0,1,1,0,.377l-22.916.074.027,8.384a.189.189,0,0,1-.365.07Z" transform="translate(-791.602 -955.058)" fill="#fff"/>
    <path id="Path_841" data-name="Path 841" d="M2156.133,1883.755a.171.171,0,0,1-.013-.068.188.188,0,0,1,.188-.19l22.917-.074-.027-8.384a.189.189,0,1,1,.378,0l.028,8.574a.188.188,0,0,1-.188.19l-23.105.075A.191.191,0,0,1,2156.133,1883.755Z" transform="translate(-1542.788 -1297.049)" fill="#fff"/>
    <rect id="Rectangle_123" data-name="Rectangle 123" width="94.747" height="44.467" transform="translate(543.406 546.606) rotate(-0.29)" fill="#e8505b"/>
    <path id="Path_842" data-name="Path 842" d="M1446.1,1553.28l.129,25.277a4.06,4.06,0,0,0-3.732,4.214c0,.072-.007.032,0,.324l-76.476.389c0-.291.006-.251.006-.324a3.946,3.946,0,0,0-3.728-4.117c-.031,0-.058-.053-.058-.053l-.126-24.708c3.485-.017,3.791-2.4,3.78-4.652a.319.319,0,0,0-.045-.15l76.476-.389s0,.081,0,.151A3.934,3.934,0,0,0,1446.1,1553.28Z" transform="translate(-813.124 -997.689)" fill="#f3949b"/>
    <circle id="Ellipse_226" data-name="Ellipse 226" cx="13.898" cy="13.898" r="13.898" transform="translate(571.268 568.461) rotate(-45)" fill="#e8505b"/>
    <path id="Path_844" data-name="Path 844" d="M1321.706,1529a.188.188,0,0,1-.042-.117l-.044-8.574a.188.188,0,0,1,.055-.134.186.186,0,0,1,.133-.056l23.4-.119a.19.19,0,0,1,0,.378L1322,1520.5l.042,8.384a.189.189,0,0,1-.335.12Z" transform="translate(-775.916 -970.956)" fill="#bdd0fb"/>
    <path id="Path_845" data-name="Path 845" d="M2143.531,1899.665a.19.19,0,0,1,.147-.308l22.917-.116-.04-8.382a.189.189,0,1,1,.378,0l.043,8.574a.191.191,0,0,1-.054.134.188.188,0,0,1-.134.056l-23.105.117A.191.191,0,0,1,2143.531,1899.665Z" transform="translate(-1531.182 -1311.587)" fill="#bdd0fb"/>
    <path id="Path_846" data-name="Path 846" d="M1488.715,1732.586a3.937,3.937,0,1,1-3.957-3.917A3.937,3.937,0,0,1,1488.715,1732.586Z" transform="translate(-922.233 -1162.715)" fill="#e8505b" opacity="0.46"/>
    <circle id="Ellipse_227" data-name="Ellipse 227" cx="3.937" cy="3.937" r="3.937" transform="translate(617.194 572.763) rotate(-79.79)" fill="#e8505b" opacity="0.46"/>
    <path id="Path_847" data-name="Path 847" d="M1664.293,1143.043a.312.312,0,0,1-.276-.452,7.663,7.663,0,0,1,6.874-4.232,7.769,7.769,0,0,1,1.388.125.311.311,0,0,1-.112.611,7.127,7.127,0,0,0-1.276-.114,7.044,7.044,0,0,0-6.321,3.89A.309.309,0,0,1,1664.293,1143.043Z" transform="translate(-1090.535 -620.244)" fill="#fff" opacity="0.5"/>
    <path id="rupee" d="M11.259,4.288V5.567a.386.386,0,0,1-.4.4H8.752A4.686,4.686,0,0,1,7.134,8.9a6.36,6.36,0,0,1-3.461,1.379Q5.767,12.513,9.428,17a.343.343,0,0,1,.05.426.364.364,0,0,1-.363.226H6.67a.369.369,0,0,1-.313-.151Q2.52,12.9.113,10.344A.375.375,0,0,1,0,10.068V8.476a.385.385,0,0,1,.119-.282A.385.385,0,0,1,.4,8.074h1.4A5.66,5.66,0,0,0,4.47,7.535,2.45,2.45,0,0,0,5.755,5.968H.4a.386.386,0,0,1-.4-.4V4.288a.386.386,0,0,1,.4-.4H5.579Q4.865,2.47,2.219,2.47H.4a.385.385,0,0,1-.282-.119A.385.385,0,0,1,0,2.069V.4A.386.386,0,0,1,.4,0H10.833a.386.386,0,0,1,.4.4V1.68a.386.386,0,0,1-.4.4H7.912a4.334,4.334,0,0,1,.8,1.806h2.144a.386.386,0,0,1,.4.4Z" transform="translate(585.413 561.43)" fill="#fff"/>
  </g>
</svg>
