<svg id="Layer_2" data-name="Layer 2" xmlns="http://www.w3.org/2000/svg" width="349.277" height="204.638" viewBox="0 0 349.277 204.638">
  <g id="Background_Complete" data-name="Background Complete" transform="translate(0.43)">
    <path id="Path_615" data-name="Path 615" d="M541.379,68.63l.5,1.787-1.61,11.341-2.993.833,1.585-10.841-3.952,1.105.545,1.928-2.448.681L531.85,71.28Z" transform="translate(-263.846 -33.991)" fill="#e0e0e0"/>
    <path id="Path_616" data-name="Path 616" d="M564.846,71.534c.585,2.1-.454,4.371-3.851,5.32a8.535,8.535,0,0,1-4.9,0l.5-2.408a5.92,5.92,0,0,0,3.679.126c1.378-.379,2.064-1.2,1.8-2.165s-1.045-1.378-3.2-.777l-3.028.848L554.6,65.609l7.258-2.019.616,2.211-4.961,1.383.439,2.312.969-.267C562.423,68.233,564.255,69.425,564.846,71.534Z" transform="translate(-275.114 -31.495)" fill="#e0e0e0"/>
    <path id="Path_617" data-name="Path 617" d="M574.287,62.688c-.54-1.938.187-3.533,1.787-3.977s3.028.5,3.583,2.483-.207,3.533-1.787,3.977S574.822,64.626,574.287,62.688Zm4.542-1.262c-.434-1.544-1.418-2.261-2.524-1.953s-1.575,1.449-1.151,2.978,1.4,2.266,2.524,1.953,1.56-1.428,1.131-2.978Zm4.5-4.633,1.009-.283-4.815,14.162-1.01.278Zm-.187,9.474c-.54-1.938.2-3.533,1.787-3.977s3.028.545,3.583,2.483-.192,3.533-1.787,3.977S583.674,68.2,583.139,66.266Zm4.542-1.257c-.424-1.514-1.4-2.266-2.524-1.953s-1.58,1.428-1.151,2.978,1.418,2.261,2.524,1.953S588.086,66.539,587.682,65.009Z" transform="translate(-284.777 -27.988)" fill="#e0e0e0"/>
    <rect id="Rectangle_99" data-name="Rectangle 99" width="35.537" height="44.859" transform="translate(338.996 200.6) rotate(-179.55)" fill="#ebebeb"/>
    <path id="Path_618" data-name="Path 618" d="M639.528,311.165l-.636,43.436-5.612-.045,1.2-43.426Z" transform="translate(-314.083 -154.097)" fill="#fafafa"/>
    <path id="Path_619" data-name="Path 619" d="M562.038,310.55l20.391.162,35.532.278-35.572,4.679-.3,38.48-20.381-.162Z" transform="translate(-278.636 -153.81)" fill="#e0e0e0"/>
    <path id="Path_620" data-name="Path 620" d="M577.619,310.68l-.807,43.431-6.052-.05.989-43.431Z" transform="translate(-283.118 -153.85)" fill="#fafafa"/>
    <path id="Path_621" data-name="Path 621" d="M600.991,272.027a4.5,4.5,0,0,1-1.691.3,44.486,44.486,0,0,1-4.664.207,26.274,26.274,0,0,1-6.955-.909,5.278,5.278,0,0,1-1.009-.454,2.883,2.883,0,0,1-.929-.878,2.472,2.472,0,0,1-.373-1.3,5.127,5.127,0,0,1,.151-1.191,27.1,27.1,0,0,1,1.317-4.27,10.841,10.841,0,0,1,1.151-2.019,6.509,6.509,0,0,1,1.691-1.676,3.684,3.684,0,0,1,1.176-.5,2.988,2.988,0,0,1,1.287.025,5.123,5.123,0,0,1,1.963,1.075,20.376,20.376,0,0,1,4.623,5.264,16.9,16.9,0,0,1,1.872,4.325c.278,1.08.313,1.7.232,1.716-.222.071-.722-2.357-2.887-5.552a21.382,21.382,0,0,0-4.593-4.825,4.108,4.108,0,0,0-1.514-.808,1.918,1.918,0,0,0-1.514.323A5.365,5.365,0,0,0,589,262.23a10.086,10.086,0,0,0-1.009,1.807,27.17,27.17,0,0,0-1.272,4.038,2.019,2.019,0,0,0,.035,1.514,2.443,2.443,0,0,0,1.277.853,15.659,15.659,0,0,0,1.751.464c.586.136,1.156.232,1.716.323,1.115.172,2.17.273,3.134.338,1.933.136,3.533.161,4.608.212A4.3,4.3,0,0,1,600.991,272.027Z" transform="translate(-290.354 -128.414)" fill="#e0e0e0"/>
    <path id="Path_622" data-name="Path 622" d="M614.86,270.585a5.691,5.691,0,0,1,1.847-.555c1.2-.273,2.937-.626,5.047-1.141a47.57,47.57,0,0,0,7.258-2.291,7.927,7.927,0,0,0,1.822-.969,2.02,2.02,0,0,0,.585-.646,1.08,1.08,0,0,0,.1-.732,3.925,3.925,0,0,0-.348-.959c-.167-.363-.338-.722-.5-1.09a18.39,18.39,0,0,0-1.166-2.09,9.048,9.048,0,0,0-1.514-1.761,5.7,5.7,0,0,0-1.807-1.161,2.821,2.821,0,0,0-1.872-.081,4.849,4.849,0,0,0-1.676,1.009,25.619,25.619,0,0,0-4.866,5.729,21.67,21.67,0,0,0-2.155,4.618c-.379,1.151-.5,1.817-.636,1.8s-.1-.707.141-1.933a17.576,17.576,0,0,1,1.847-4.951,24.082,24.082,0,0,1,4.866-6.173,6.057,6.057,0,0,1,2.095-1.3,4.1,4.1,0,0,1,2.69.066,5.85,5.85,0,0,1,1.206.6,9.165,9.165,0,0,1,1.04.8,10.236,10.236,0,0,1,1.716,2.019,18.279,18.279,0,0,1,1.242,2.246c.172.374.348.742.5,1.11a5.247,5.247,0,0,1,.439,1.292,2.4,2.4,0,0,1-.252,1.544,3.189,3.189,0,0,1-.949,1.045,8.921,8.921,0,0,1-2.12,1.09,40.912,40.912,0,0,1-7.52,2.079c-2.175.4-3.947.616-5.173.737A5.13,5.13,0,0,1,614.86,270.585Z" transform="translate(-304.96 -126.65)" fill="#fafafa"/>
    <rect id="Rectangle_100" data-name="Rectangle 100" width="52.238" height="14.849" transform="translate(329.173 157.09) rotate(-179.55)" fill="#e0e0e0"/>
    <rect id="Rectangle_101" data-name="Rectangle 101" width="47.216" height="14.849" transform="translate(343.362 157.197) rotate(-179.55)" fill="#ebebeb"/>
    <path id="Path_623" data-name="Path 623" d="M646.95,281.8l-.333,14.914-5.506-.111.384-14.844Z" transform="translate(-317.961 -139.551)" fill="#fafafa"/>
    <path id="Path_624" data-name="Path 624" d="M568.7,281.261l-.535,14.783-6.052-.05.323-14.854Z" transform="translate(-278.834 -139.244)" fill="#fafafa"/>
    <rect id="Rectangle_102" data-name="Rectangle 102" width="16.232" height="20.492" transform="translate(346.798 200.974) rotate(-179.55)" fill="#ebebeb"/>
    <path id="Path_625" data-name="Path 625" d="M672.892,358.79l-.288,19.84-2.564-.02.55-19.84Z" transform="translate(-332.29 -177.693)" fill="#fafafa"/>
    <path id="Path_626" data-name="Path 626" d="M637.491,358.51l9.312.076,16.232.126-16.247,2.135-.136,17.579-9.312-.076Z" transform="translate(-316.094 -177.564)" fill="#e0e0e0"/>
    <path id="Path_627" data-name="Path 627" d="M644.614,358.57l-.373,19.84-2.761-.02.449-19.84Z" transform="translate(-318.144 -177.584)" fill="#fafafa"/>
    <path id="Path_628" data-name="Path 628" d="M654.945,340.583c0,.167-1.085.419-2.912.5a11.316,11.316,0,0,1-3.276-.353,1.948,1.948,0,0,1-1.07-.742,1.434,1.434,0,0,1-.227-.767,2.52,2.52,0,0,1,.076-.631,11.907,11.907,0,0,1,.611-2.019,5.284,5.284,0,0,1,.565-1.009,3.352,3.352,0,0,1,.873-.853,1.817,1.817,0,0,1,1.393-.247,2.66,2.66,0,0,1,1.009.565,8.893,8.893,0,0,1,2.125,2.524c.914,1.666.9,2.877.752,2.9s-.5-1.009-1.514-2.392a10.093,10.093,0,0,0-2.094-2.085,1.448,1.448,0,0,0-.555-.293.5.5,0,0,0-.419.111,2.136,2.136,0,0,0-.5.53,4.536,4.536,0,0,0-.419.757,12.922,12.922,0,0,0-.565,1.787c-.076.278-.061.4-.035.434a.767.767,0,0,0,.4.262,10.7,10.7,0,0,0,1.514.373c.5.091.969.151,1.4.2C653.814,340.31,654.94,340.386,654.945,340.583Z" transform="translate(-321.106 -165.632)" fill="#e0e0e0"/>
    <path id="Path_629" data-name="Path 629" d="M661.557,339.929c-.03-.187,1.186-.5,3.1-1.009a24.519,24.519,0,0,0,3.245-1.105,3.218,3.218,0,0,0,.747-.409.555.555,0,0,0,.167-.187.162.162,0,0,0,0-.116,6.383,6.383,0,0,0-.368-.838,8.306,8.306,0,0,0-.5-.908,3.935,3.935,0,0,0-.621-.742,2.332,2.332,0,0,0-.707-.464.964.964,0,0,0-.636-.04,1.846,1.846,0,0,0-.651.389,12.149,12.149,0,0,0-2.221,2.493c-1.065,1.6-1.287,2.842-1.514,2.806-.086,0-.141-.338-.076-.919a7.351,7.351,0,0,1,.762-2.352,10.816,10.816,0,0,1,2.226-2.943,3.03,3.03,0,0,1,1.07-.671,2.226,2.226,0,0,1,1.448.025,3.138,3.138,0,0,1,.626.308,3.944,3.944,0,0,1,.5.4,5.045,5.045,0,0,1,.843.984,8.391,8.391,0,0,1,.591,1.07l.237.5a2.522,2.522,0,0,1,.222.681,1.428,1.428,0,0,1-.151.924,1.792,1.792,0,0,1-.535.585,4.184,4.184,0,0,1-1.05.53,17.3,17.3,0,0,1-3.533.893C662.834,340.11,661.587,340.1,661.557,339.929Z" transform="translate(-328.056 -164.832)" fill="#fafafa"/>
    <rect id="Rectangle_103" data-name="Rectangle 103" width="23.858" height="6.783" transform="translate(342.307 181.098) rotate(-179.55)" fill="#e0e0e0"/>
    <rect id="Rectangle_104" data-name="Rectangle 104" width="21.567" height="6.783" transform="translate(348.794 181.15) rotate(-179.55)" fill="#ebebeb"/>
    <path id="Path_630" data-name="Path 630" d="M676.28,345.38l-.151,6.814-2.518-.056.177-6.778Z" transform="translate(-334.058 -171.051)" fill="#fafafa"/>
    <path id="Path_631" data-name="Path 631" d="M640.538,345.135l-.247,6.753-2.761-.025.146-6.783Z" transform="translate(-316.188 -170.912)" fill="#fafafa"/>
    <rect id="Rectangle_105" data-name="Rectangle 105" width="29.112" height="36.748" transform="translate(50.826 201.005) rotate(-179.55)" fill="#ebebeb"/>
    <path id="Path_632" data-name="Path 632" d="M74.543,327.545l-.515,35.578-4.6-.035.984-35.578Z" transform="translate(-34.818 -162.21)" fill="#fafafa"/>
    <path id="Path_633" data-name="Path 633" d="M11.063,327.04l16.7.131,29.112.227-29.142,3.836-.247,31.52-16.7-.131Z" transform="translate(-5.774 -161.977)" fill="#e0e0e0"/>
    <path id="Path_634" data-name="Path 634" d="M23.828,327.15l-.661,35.578-4.956-.04.813-35.578Z" transform="translate(-9.449 -162.012)" fill="#fafafa"/>
    <path id="Path_635" data-name="Path 635" d="M42.236,294.731c0,.182-.5.373-1.378.555a24.371,24.371,0,0,1-3.846.414,23.024,23.024,0,0,1-2.72-.066c-.5-.045-1.009-.1-1.514-.187a12.619,12.619,0,0,1-1.666-.368,4.489,4.489,0,0,1-.984-.429,2.933,2.933,0,0,1-1.009-.944,2.746,2.746,0,0,1-.429-1.449,4.779,4.779,0,0,1,.131-1.161,21.661,21.661,0,0,1,1.105-3.634,9.991,9.991,0,0,1,1.009-1.817,8.731,8.731,0,0,1,.691-.818,5.374,5.374,0,0,1,.914-.742,3.64,3.64,0,0,1,1.216-.5,3.245,3.245,0,0,1,1.378.03,4.81,4.81,0,0,1,1.883,1.04,16.222,16.222,0,0,1,3.816,4.588,12.078,12.078,0,0,1,1.358,3.745c.146.934.071,1.464-.1,1.514-.389.1-1.009-1.812-2.826-4.24a18.319,18.319,0,0,0-3.745-3.689,2.589,2.589,0,0,0-.954-.5.848.848,0,0,0-.646.182,2.776,2.776,0,0,0-.424.373,6.384,6.384,0,0,0-.444.55,7.787,7.787,0,0,0-.737,1.332,23.377,23.377,0,0,0-1.009,3.18,2.838,2.838,0,0,0-.1.53.561.561,0,0,0,0,.151,1.293,1.293,0,0,0,.651.419,13.231,13.231,0,0,0,1.337.389c.459.116.914.207,1.353.293.888.167,1.731.278,2.524.368,1.555.177,2.847.283,3.745.419S42.231,294.549,42.236,294.731Z" transform="translate(-14.64 -140.423)" fill="#e0e0e0"/>
    <path id="Path_636" data-name="Path 636" d="M54.256,293.55c-.066-.379,2.12-.984,5.552-1.928A44.317,44.317,0,0,0,65.6,289.6a5.821,5.821,0,0,0,1.312-.717.974.974,0,0,0,.267-.293c0-.051,0,0,0-.126a3.027,3.027,0,0,0-.232-.591L66.525,287a14.179,14.179,0,0,0-.9-1.62,6.451,6.451,0,0,0-1.09-1.3,5.73,5.73,0,0,0-.626-.5,2.852,2.852,0,0,0-.6-.318,1.63,1.63,0,0,0-1.05-.076,3.184,3.184,0,0,0-1.131.666,22.071,22.071,0,0,0-3.977,4.426c-1.928,2.847-2.362,5.047-2.761,4.987-.172-.025-.288-.611-.182-1.661a12.9,12.9,0,0,1,1.317-4.245,19.124,19.124,0,0,1,3.992-5.32,5.492,5.492,0,0,1,1.963-1.242,4.114,4.114,0,0,1,2.685.045,5.632,5.632,0,0,1,1.146.565,8.246,8.246,0,0,1,.949.722,8.913,8.913,0,0,1,1.514,1.8,15.143,15.143,0,0,1,1.07,1.933l.424.929a4.911,4.911,0,0,1,.409,1.252,2.7,2.7,0,0,1-.288,1.741,3.432,3.432,0,0,1-1.009,1.1,7.924,7.924,0,0,1-1.918.964,31.182,31.182,0,0,1-6.314,1.58,33.1,33.1,0,0,1-4.305.363C54.861,293.812,54.286,293.726,54.256,293.55Z" transform="translate(-27.26 -138.975)" fill="#fafafa"/>
    <rect id="Rectangle_106" data-name="Rectangle 106" width="42.79" height="12.164" transform="translate(42.789 165.356) rotate(-179.55)" fill="#e0e0e0"/>
    <rect id="Rectangle_107" data-name="Rectangle 107" width="38.682" height="12.164" transform="translate(54.409 165.445) rotate(-179.55)" fill="#ebebeb"/>
    <path id="Path_637" data-name="Path 637" d="M80.625,303.485,80.352,315.7l-4.512-.091.313-12.164Z" transform="translate(-37.993 -150.294)" fill="#fafafa"/>
    <path id="Path_638" data-name="Path 638" d="M16.515,303.051l-.434,12.108-4.961-.04.267-12.169Z" transform="translate(-5.938 -150.046)" fill="#fafafa"/>
    <path id="Path_639" data-name="Path 639" d="M100.307,19.226l.5,1.918-7.727,1.978L92.7,21.608l2.973-4.734c.681-1.09.712-1.655.58-2.15-.2-.8-.878-1.126-1.953-.848a2.559,2.559,0,0,0-1.847,1.56l-2.019-.666a4.913,4.913,0,0,1,3.558-2.927c2.271-.585,4.083.192,4.542,2.019.252,1.009.207,1.963-.878,3.654l-1.777,2.811Z" transform="translate(-45.219 -5.77)" fill="#e0e0e0"/>
    <path id="Path_640" data-name="Path 640" d="M109.976,13.473c-.863-3.361.5-5.749,3.028-6.39s4.855.787,5.718,4.149-.5,5.739-3.028,6.39S110.839,16.835,109.976,13.473Zm6.359-1.635c-.591-2.312-1.655-3.064-2.831-2.761s-1.736,1.469-1.141,3.78,1.655,3.069,2.821,2.771S116.926,14.154,116.335,11.838Z" transform="translate(-54.771 -3.434)" fill="#e0e0e0"/>
    <path id="Path_641" data-name="Path 641" d="M128.554,5.088c-.424-1.661.222-3,1.59-3.356s2.579.5,3.028,2.175-.237,3.028-1.59,3.356S128.978,6.748,128.554,5.088Zm3.871-1.009c-.338-1.322-1.166-1.948-2.115-1.706s-1.363,1.2-1.009,2.524,1.156,1.953,2.115,1.706,1.337-1.186,1.009-2.508ZM136.331.222,137.189,0l-4.341,11.972-.858.222Zm-.3,8.075c-.424-1.661.237-3.028,1.59-3.356s2.584.5,3.028,2.175-.217,3.028-1.585,3.356-2.6-.525-3.033-2.185ZM139.9,7.288c-.333-1.312-1.151-1.953-2.11-1.706s-1.373,1.186-1.009,2.524,1.171,1.948,2.115,1.706,1.343-1.232,1-2.519Z" transform="translate(-64.037)" fill="#e0e0e0"/>
    <path id="Path_642" data-name="Path 642" d="M289.8,81.485c.035,2.079-1.539,4.038-5.047,4.073A8.479,8.479,0,0,1,280,84.317l1.075-2.206a5.951,5.951,0,0,0,3.533,1.05c1.428,0,2.3-.621,2.281-1.625s-.712-1.514-2.337-1.479h-1.307l-.03-1.888,2.488-2.917-5.2.111-.04-2.291,8.646-.151.03,1.852-2.756,3.235C288.611,78.31,289.766,79.668,289.8,81.485Z" transform="translate(-139.11 -36.116)" fill="#e0e0e0"/>
    <path id="Path_643" data-name="Path 643" d="M302,78.735c-.071-4.073,2.145-6.425,5.178-6.476s5.335,2.216,5.406,6.294-2.13,6.425-5.183,6.476S302.039,82.808,302,78.735Zm7.707-.131c-.05-2.806-1.055-3.952-2.483-3.932s-2.382,1.206-2.332,4.013,1.055,3.952,2.468,3.927,2.372-1.206,2.322-4.007Z" transform="translate(-150.004 -35.788)" fill="#e0e0e0"/>
    <path id="Path_644" data-name="Path 644" d="M325.679,75.532c-.035-2.019,1.075-3.372,2.731-3.4s2.811,1.277,2.847,3.306-1.09,3.372-2.73,3.4S325.715,77.546,325.679,75.532Zm4.694-.081c-.025-1.6-.8-2.524-1.948-2.524s-1.888,1.009-1.862,2.589.787,2.524,1.948,2.524,1.872-.984,1.872-2.589Zm5.517-3.361h1.045l-8.222,12.477h-1.04Zm-2.524,9.135c-.035-2.019,1.085-3.372,2.725-3.4s2.8,1.287,2.831,3.306-1.07,3.371-2.73,3.4-2.811-1.292-2.842-3.3Zm4.689-.081c-.025-1.59-.782-2.524-1.948-2.524s-1.888,1.009-1.862,2.594.8,2.524,1.953,2.524,1.873-1.009,1.842-2.609Z" transform="translate(-161.733 -35.705)" fill="#e0e0e0"/>
    <path id="Path_645" data-name="Path 645" d="M410.484,7.411c-.242,1.58-1.61,2.776-4.154,2.387a6.269,6.269,0,0,1-3.25-1.474l1.055-1.454a4.361,4.361,0,0,0,2.438,1.186c1.009.162,1.731-.177,1.842-.9s-.283-1.226-1.9-1.474l-2.276-.348,1.2-4.941,5.436.813-.262,1.671L406.9,2.308l-.4,1.671.722.111C409.863,4.488,410.726,5.831,410.484,7.411Z" transform="translate(-200.069 -0.193)" fill="#f5f5f5"/>
    <path id="Path_646" data-name="Path 646" d="M419.83,7.275c.449-2.937,2.332-4.356,4.517-4.038s3.563,2.251,3.114,5.188-2.322,4.356-4.542,4.038S419.365,10.212,419.83,7.275Zm5.552.848c.308-2.019-.273-2.973-1.307-3.129s-1.857.575-2.165,2.6.278,2.973,1.292,3.124,1.878-.555,2.185-2.574Z" transform="translate(-208.319 -1.582)" fill="#f5f5f5"/>
    <path id="Path_647" data-name="Path 647" d="M437.7,7.654c.222-1.454,1.186-2.3,2.382-2.11s1.862,1.257,1.64,2.72-1.2,2.291-2.382,2.11S437.477,9.1,437.7,7.654Zm7.768-1.226.747.116-7.44,7.975-.752-.111Zm-4.381,1.741c.177-1.156-.268-1.928-1.1-2.054s-1.479.5-1.655,1.635.252,1.923,1.1,2.054,1.479-.479,1.655-1.635Zm1.433,4.542c.217-1.454,1.2-2.291,2.377-2.11a2.152,2.152,0,0,1,1.64,2.72c-.222,1.449-1.181,2.291-2.377,2.11s-1.862-1.3-1.64-2.746Zm3.382.5c.177-1.146-.252-1.928-1.09-2.054s-1.479.474-1.655,1.635.262,1.928,1.09,2.054,1.479-.51,1.661-1.65Z" transform="translate(-217.194 -2.733)" fill="#f5f5f5"/>
    <path id="Path_648" data-name="Path 648" d="M12.745,98.387,10.9,106.276l-1.827-.4,1.514-6.425L9,99.054l.343-1.464Z" transform="translate(-4.888 -48.335)" fill="#f5f5f5"/>
    <path id="Path_649" data-name="Path 649" d="M17.143,104.3c.611-2.6,2.4-3.74,4.336-3.291s3.028,2.271,2.428,4.876-2.387,3.745-4.341,3.286S16.532,106.9,17.143,104.3Zm4.926,1.151c.419-1.792-.04-2.68-.954-2.9s-1.706.389-2.125,2.18.035,2.68.939,2.892S21.65,107.244,22.069,105.447Z" transform="translate(-8.836 -49.979)" fill="#f5f5f5"/>
    <path id="Path_650" data-name="Path 650" d="M40.248,105.207l.666.156-7.238,6.627L33,111.834Zm-7.066.55c.3-1.287,1.221-1.973,2.281-1.726a1.923,1.923,0,0,1,1.277,2.559c-.3,1.3-1.232,1.973-2.281,1.726a1.925,1.925,0,0,1-1.257-2.559Zm3,.7c.237-1.009-.106-1.746-.838-1.918s-1.363.333-1.6,1.348.091,1.746.838,1.918,1.378-.323,1.62-1.348Zm.964,4.149c.3-1.282,1.237-1.968,2.281-1.721a1.94,1.94,0,0,1,1.282,2.554c-.3,1.282-1.221,1.973-2.281,1.726s-1.56-1.272-1.262-2.559Zm3,.7c.237-1.009-.091-1.741-.833-1.918s-1.363.323-1.6,1.348.1,1.751.833,1.923,1.383-.338,1.62-1.353Z" transform="translate(-16.775 -51.5)" fill="#f5f5f5"/>
  </g>
  <g id="Plant" transform="translate(9.59 60.823)">
    <path id="Path_651" data-name="Path 651" d="M77.024,250.379a36.311,36.311,0,0,0-34.694-9.514,63.216,63.216,0,0,0,35.1,10.968" transform="translate(-30.555 -179.547)" fill="#e8505b"/>
    <path id="Path_652" data-name="Path 652" d="M77.75,149.668c1.449-10.221-2.524-21.7-10.18-29.158-.252,10.135,4.038,21.536,10.18,29.158" transform="translate(-43.05 -120.51)" fill="#e8505b"/>
    <path id="Path_653" data-name="Path 653" d="M75.279,193.034A54.615,54.615,0,0,0,50.21,169.07a34.44,34.44,0,0,0,25.165,24.07" transform="translate(-34.458 -144.561)" fill="#e8505b"/>
    <path id="Path_654" data-name="Path 654" d="M68.983,213.163a64.862,64.862,0,0,1-18.4-1.625c-5.976-1.58-11.689-4.618-15.646-9.347a61.49,61.49,0,0,1,33.967,10.372" transform="translate(-26.895 -160.965)" fill="#e8505b"/>
    <path id="Path_655" data-name="Path 655" d="M96.18,173.647c3.134-11.745,8.308-19.871,17.539-26.457A24.428,24.428,0,0,1,96.18,173.647" transform="translate(-57.226 -133.724)" fill="#e8505b"/>
    <path id="Path_656" data-name="Path 656" d="M131.994,223.946A17.382,17.382,0,0,0,121.43,207.84c.5,6.057,5.279,13.082,10.564,16.106" transform="translate(-69.732 -163.763)" fill="#e8505b"/>
    <path id="Path_657" data-name="Path 657" d="M148.21,198.442a25.911,25.911,0,0,1,16.974-22.1c-2.13,9.817-7.808,17.988-16.974,22.1" transform="translate(-82.995 -148.162)" fill="#e8505b"/>
    <path id="Path_658" data-name="Path 658" d="M139.4,247.992a16.371,16.371,0,0,1,9.408-6.011,48.569,48.569,0,0,1,11.321-1.131,26.462,26.462,0,0,1-20.426,8.489" transform="translate(-78.632 -180.112)" fill="#e8505b"/>
    <path id="Path_659" data-name="Path 659" d="M130.66,303.291a29,29,0,0,1,35.406,16.777c-12.865-2.443-25.554-8.156-35.406-16.777" transform="translate(-74.303 -210.398)" fill="#e8505b"/>
    <path id="Path_660" data-name="Path 660" d="M98.817,287.32c2.135,6.319,1.726,13.95-3.028,19.391a23.161,23.161,0,0,1,3.028-19.391" transform="translate(-56.577 -203.128)" fill="#e8505b"/>
    <path id="Path_661" data-name="Path 661" d="M71.57,280.37a23.762,23.762,0,0,1-13.123,19.28,1.479,1.479,0,0,1-1.161.192c-.575-.237-.631-1.009-.56-1.65.934-8.075,6.925-15.914,14.844-17.822" transform="translate(-37.673 -199.686)" fill="#e8505b"/>
    <path id="Path_662" data-name="Path 662" d="M47.446,277.856A19.477,19.477,0,0,1,19,277.982c9.05-1.009,19.487-1.65,28.461-.141" transform="translate(-19 -197.99)" fill="#e8505b"/>
    <path id="Path_663" data-name="Path 663" d="M72.68,135.44a1.374,1.374,0,0,0,.081.268c.071.187.162.439.278.767l1.09,2.927c.5,1.267,1.05,2.831,1.7,4.643l1.05,2.907c.353,1.035.732,2.125,1.126,3.271,1.6,4.583,3.387,10.094,5.3,16.2s3.871,12.906,5.819,20.052,3.629,14,5.077,20.249,2.625,11.911,3.5,16.686c.222,1.191.439,2.327.641,3.4s.353,2.095.5,3.028c.328,1.9.611,3.533.8,4.881s.363,2.367.474,3.089c.056.343.1.606.131.8a1.7,1.7,0,0,0,.056.273,1.116,1.116,0,0,0,0-.273c0-.2-.056-.469-.1-.808-.1-.727-.237-1.772-.414-3.1s-.429-2.988-.737-4.891c-.151-.954-.318-1.968-.5-3.028l-.621-3.412c-.843-4.78-2.019-10.443-3.427-16.711s-3.134-13.123-5.047-20.269-3.942-13.92-5.845-20.052-3.745-11.608-5.38-16.191q-.606-1.711-1.151-3.266c-.384-1.009-.742-1.994-1.075-2.9-.666-1.807-1.247-3.366-1.756-4.628s-.883-2.221-1.151-2.907L72.8,135.7A1.978,1.978,0,0,0,72.68,135.44Z" transform="translate(-45.587 -127.905)" fill="#263238"/>
    <path id="Path_664" data-name="Path 664" d="M146.827,186.72a.967.967,0,0,0-.156.146l-.429.454c-.379.4-.929,1.009-1.61,1.8a62.552,62.552,0,0,0-5.33,7.1,47.585,47.585,0,0,0-5.552,11.916,113.59,113.59,0,0,0-3.341,15.772c-1.842,11.28-4.1,21.385-5.734,28.693-.823,3.634-1.514,6.587-1.958,8.651-.222,1.009-.394,1.792-.5,2.352-.056.257-.1.459-.126.616a1.009,1.009,0,0,0-.035.212,1.662,1.662,0,0,0,.071-.2l.156-.606c.141-.56.338-1.343.585-2.342.5-2.059,1.2-5,2.069-8.626,1.7-7.3,3.992-17.4,5.835-28.693a118.447,118.447,0,0,1,3.3-15.732,48.378,48.378,0,0,1,5.471-11.881,68.137,68.137,0,0,1,5.2-7.147c.666-.808,1.2-1.423,1.56-1.842l.4-.474A1.011,1.011,0,0,0,146.827,186.72Z" transform="translate(-70.039 -153.303)" fill="#263238"/>
    <path id="Path_665" data-name="Path 665" d="M70,277.988a.96.96,0,0,0,.323.061l.939.106.676.066.8.121c.57.086,1.226.167,1.938.328l1.126.222,1.2.3c.838.192,1.706.5,2.625.777a38.243,38.243,0,0,1,5.729,2.524,32.151,32.151,0,0,1,5.143,3.568,26.456,26.456,0,0,1,1.973,1.893,20.788,20.788,0,0,1,1.56,1.8,19.083,19.083,0,0,1,1.151,1.59,12.671,12.671,0,0,1,.792,1.257c.192.328.348.6.5.813a1.268,1.268,0,0,0,.187.273,1.855,1.855,0,0,0-.126-.3l-.424-.848a10.124,10.124,0,0,0-.747-1.3,17.09,17.09,0,0,0-1.146-1.64,20.493,20.493,0,0,0-1.544-1.842,24.782,24.782,0,0,0-1.968-1.938,31.57,31.57,0,0,0-5.178-3.629,36.64,36.64,0,0,0-5.8-2.524c-.929-.273-1.807-.57-2.655-.752l-1.216-.288-1.136-.2c-.722-.141-1.383-.212-1.963-.278l-.808-.1-.681-.061h-.944A1.163,1.163,0,0,0,70,277.988Z" transform="translate(-44.259 -198.5)" fill="#263238"/>
    <path id="Path_666" data-name="Path 666" d="M64.9,187.15a4.59,4.59,0,0,0,.651.626l1.862,1.615c1.585,1.353,3.785,3.2,6.228,5.229s4.674,3.851,6.294,5.153l1.933,1.514a4.5,4.5,0,0,0,.737.5,4.59,4.59,0,0,0-.651-.585l-1.862-1.62c-1.585-1.353-3.785-3.2-6.228-5.229s-4.669-3.846-6.289-5.153l-1.933-1.514a4.271,4.271,0,0,0-.742-.54Z" transform="translate(-41.733 -153.516)" fill="#263238"/>
    <path id="Path_667" data-name="Path 667" d="M60.5,210.856c-.03.091,4.719,1.575,10.6,3.316s10.68,3.074,10.705,2.983-4.719-1.575-10.6-3.316S60.525,210.765,60.5,210.856Z" transform="translate(-39.554 -165.255)" fill="#263238"/>
    <path id="Path_668" data-name="Path 668" d="M95.25,184.823a3.906,3.906,0,0,0,.5-.681l1.252-1.908c1.065-1.61,2.574-3.8,4.356-6.132s3.5-4.366,4.77-5.819l1.514-1.716a4.351,4.351,0,0,0,.5-.656,4.036,4.036,0,0,0-.626.565c-.384.373-.929.939-1.585,1.645-1.317,1.413-3.074,3.427-4.865,5.769s-3.271,4.568-4.285,6.213c-.5.823-.9,1.514-1.161,1.968a4.3,4.3,0,0,0-.379.752Z" transform="translate(-56.765 -143.986)" fill="#263238"/>
    <path id="Path_669" data-name="Path 669" d="M127.94,214.58a15.5,15.5,0,0,0,1.115,1.832c.707,1.115,1.671,2.67,2.67,4.421s1.837,3.372,2.433,4.542a15.648,15.648,0,0,0,1.009,1.893,11.572,11.572,0,0,0-.782-2.019c-.545-1.211-1.353-2.857-2.357-4.618s-2.019-3.3-2.766-4.386A11.727,11.727,0,0,0,127.94,214.58Z" transform="translate(-72.956 -167.101)" fill="#263238"/>
    <path id="Path_670" data-name="Path 670" d="M139.12,249.78c0,.045.929-.394,2.413-1.065s3.533-1.539,5.9-2.357,4.507-1.428,6.057-1.832a26.149,26.149,0,0,0,2.549-.676,3.056,3.056,0,0,0-.707.076c-.449.066-1.1.192-1.9.363a52.783,52.783,0,0,0-6.137,1.741,51,51,0,0,0-5.885,2.468c-.732.358-1.317.671-1.711.9A2.867,2.867,0,0,0,139.12,249.78Z" transform="translate(-78.493 -181.598)" fill="#263238"/>
    <path id="Path_671" data-name="Path 671" d="M130.32,304.64a1.06,1.06,0,0,0,.293.1l.853.217,3.16.727a104.31,104.31,0,0,1,10.321,2.725,45.62,45.62,0,0,1,9.625,4.542c1.151.732,2.049,1.378,2.655,1.847a9.535,9.535,0,0,0,.954.707,2.317,2.317,0,0,0-.212-.227c-.146-.141-.363-.343-.661-.585a28.292,28.292,0,0,0-2.6-1.948,42.362,42.362,0,0,0-9.65-4.643,86.26,86.26,0,0,0-10.357-2.655l-3.18-.621A7.685,7.685,0,0,0,130.32,304.64Z" transform="translate(-74.135 -211.706)" fill="#263238"/>
    <path id="Path_672" data-name="Path 672" d="M98.466,302.075c.1,0,.661-3.321,1.262-7.445s1.009-7.48.924-7.49-.661,3.316-1.267,7.44S98.37,302.059,98.466,302.075Z" transform="translate(-58.351 -203.039)" fill="#263238"/>
    <path id="Path_673" data-name="Path 673" d="M65.33,292.7a17.077,17.077,0,0,0,1.514-1.792c.9-1.125,2.155-2.675,3.573-4.361s2.731-3.185,3.679-4.27a16.277,16.277,0,0,0,1.514-1.8,2.352,2.352,0,0,0-.5.414c-.293.278-.7.7-1.2,1.216-1.009,1.045-2.347,2.524-3.77,4.214s-2.645,3.271-3.5,4.436c-.429.58-.767,1.06-1.009,1.4A2.1,2.1,0,0,0,65.33,292.7Z" transform="translate(-41.946 -199.74)" fill="#263238"/>
    <path id="Path_674" data-name="Path 674" d="M118.133,335.43V343.7h-2.064l-7.349,23.192h-16.3l-7.117-22.96L82.55,343.7V335.43Z" transform="translate(-50.475 -226.956)" fill="#455a64"/>
    <path id="Path_675" data-name="Path 675" d="M85.28,352.1c0,.1,7.2.172,16.07.172s16.07-.076,16.07-.172-7.2-.177-16.07-.177S85.28,352,85.28,352.1Z" transform="translate(-51.827 -235.123)" fill="#263238"/>
    <path id="Path_676" data-name="Path 676" d="M62.06,246.91a5.881,5.881,0,0,0,1.045.283l2.862.691c2.407.6,5.718,1.514,9.307,2.71s6.778,2.488,9.085,3.467l2.7,1.181a7.038,7.038,0,0,0,1.009.4,6.821,6.821,0,0,0-.944-.5c-.621-.323-1.514-.762-2.655-1.282a94.226,94.226,0,0,0-18.412-6.193c-1.216-.273-2.206-.469-2.892-.585a7.569,7.569,0,0,0-1.1-.172Z" transform="translate(-40.327 -183.114)" fill="#263238"/>
    <path id="Path_677" data-name="Path 677" d="M96,377.612c0,.1,5.047.177,11.275.177s11.27-.081,11.27-.177-5.047-.172-11.27-.172S96,377.516,96,377.612Z" transform="translate(-57.137 -247.763)" fill="#fafafa"/>
    <path id="Path_678" data-name="Path 678" d="M94.74,373.832c0,.1,5.35.177,11.947.177s11.952-.081,11.952-.177-5.35-.172-11.952-.172S94.74,373.731,94.74,373.832Z" transform="translate(-56.513 -245.891)" fill="#fafafa"/>
  </g>
  <g id="Label" transform="translate(137.712 28.128)">
    <path id="Path_679" data-name="Path 679" d="M442.167,229.17l-33.649-37.8a14.238,14.238,0,0,0-10.539-4.775L287.2,185.79a14.253,14.253,0,0,0-14.354,14.278l.187,78.448a14.253,14.253,0,0,0,14.309,14.213l110.392-.464a14.263,14.263,0,0,0,10.745-4.961l33.846-39.368a14.248,14.248,0,0,0-.162-18.765ZM423.448,242.8a21.485,21.485,0,1,1,0-.02Z" transform="translate(-272.85 -120.146)" fill="#e8505b"/>
    <g id="Group_2598" data-name="Group 2598" transform="translate(0 65.643)" opacity="0.4">
      <path id="Path_680" data-name="Path 680" d="M442.167,229.17l-33.649-37.8a14.238,14.238,0,0,0-10.539-4.775L287.2,185.79a14.253,14.253,0,0,0-14.354,14.278l.187,78.448a14.253,14.253,0,0,0,14.309,14.213l110.392-.464a14.263,14.263,0,0,0,10.745-4.961l33.846-39.368a14.248,14.248,0,0,0-.162-18.765ZM423.448,242.8a21.485,21.485,0,1,1,0-.02Z" transform="translate(-272.85 -185.789)"/>
    </g>
    <path id="Path_681" data-name="Path 681" d="M453.722,229.17l-33.645-37.8a14.243,14.243,0,0,0-10.539-4.775l-110.78-.808a14.243,14.243,0,0,0-14.349,14.278l.187,78.448a14.243,14.243,0,0,0,14.3,14.213l110.392-.464a14.248,14.248,0,0,0,10.745-4.961l33.846-39.368A14.248,14.248,0,0,0,453.722,229.17ZM435,242.8a21.337,21.337,0,1,1,0-.02Z" transform="translate(-278.575 -120.146)" fill="#e8505b"/>
    <path id="Path_682" data-name="Path 682" d="M357.409,251.4c.091-9.509,5.946-15.495,14.167-15.419s13.88,6.092,13.794,15.682-5.865,15.495-14.087,15.419S357.323,260.907,357.409,251.4Zm19.9.187c.061-6.057-2.251-8.964-5.8-9-3.462-.03-5.905,2.927-5.961,8.888s2.332,8.969,5.794,9C374.892,260.509,377.255,257.627,377.31,251.585Zm27.86-14.637,9.59.086-39.04,56.024-9.59-.086Zm-9.655,41.387c.091-9.509,5.946-15.495,14.087-15.419,8.217.076,13.966,6.173,13.875,15.682s-5.946,15.495-14.167,15.419c-8.136-.066-13.88-6.163-13.794-15.671Zm19.825.187c.055-5.966-2.256-8.969-5.8-9-3.467-.03-5.91,2.847-5.966,8.888s2.332,8.969,5.8,9,5.91-2.917,5.966-8.878Z" transform="translate(-314.73 -145.004)" fill="#fff"/>
    <path id="Path_683" data-name="Path 683" d="M585.047,307.033a5.3,5.3,0,0,1,1.1.792c.692.55,1.7,1.383,2.978,2.473s2.831,2.448,4.583,4.083,3.7,3.533,5.724,5.789a58.507,58.507,0,0,1,6.016,7.843l.717,1.146c.222.4.449.792.676,1.2a25.075,25.075,0,0,1,1.282,2.524,15.716,15.716,0,0,1,1.459,5.819,9.084,9.084,0,0,1-.464,3.18,8.228,8.228,0,0,1-1.65,2.857,10.78,10.78,0,0,1-5.779,3.306,15.712,15.712,0,0,1-6.819-.161,29.974,29.974,0,0,1-6.5-2.392,40.479,40.479,0,0,1-10.856-8.075,52.231,52.231,0,0,1-4.2-4.881q-1.9-2.493-3.614-4.946a94.4,94.4,0,0,1-10.3-18.518c-.55-1.4-1.01-2.761-1.449-4.063-.2-.651-.394-1.287-.55-1.913a11.508,11.508,0,0,1-.363-1.867,4.6,4.6,0,0,1,.828-3.387,4.926,4.926,0,0,1,2.392-1.666,6.655,6.655,0,0,1,1.206-.278,6.561,6.561,0,0,1,1.08-.025,5.047,5.047,0,0,1,1.64.363,3.092,3.092,0,0,1,.878.54c.172.156.252.242.232.257s-.121-.035-.313-.151a4.122,4.122,0,0,0-.888-.4,5.189,5.189,0,0,0-1.565-.217,5.873,5.873,0,0,0-1.01.081,6.287,6.287,0,0,0-1.1.308,4.5,4.5,0,0,0-2.064,1.555,3.983,3.983,0,0,0-.606,2.927,11.031,11.031,0,0,0,.394,1.751c.172.606.373,1.227.585,1.862.439,1.267.944,2.594,1.514,3.972a97.6,97.6,0,0,0,10.423,18.17c1.146,1.61,2.352,3.24,3.619,4.876a51.563,51.563,0,0,0,4.123,4.744,39.66,39.66,0,0,0,10.523,7.813,28.862,28.862,0,0,0,6.2,2.291,14.445,14.445,0,0,0,6.259.177,9.529,9.529,0,0,0,5.108-2.872,7.414,7.414,0,0,0,1.857-5.183,14.576,14.576,0,0,0-1.307-5.38,23.943,23.943,0,0,0-1.206-2.448l-.636-1.161-.686-1.125a59.961,59.961,0,0,0-5.794-7.823c-1.953-2.256-3.846-4.2-5.552-5.87s-3.19-3.084-4.416-4.23l-2.811-2.66A5.155,5.155,0,0,1,585.047,307.033Z" transform="translate(-413.579 -174.661)" fill="#263238"/>
    <path id="Path_684" data-name="Path 684" d="M502.459,119.433c-.076,0-1.514-9.867-3.165-22.056s-2.973-22.091-2.9-22.1,1.484,9.862,3.16,22.056S502.529,119.423,502.459,119.433Z" transform="translate(-383.567 -65.413)" fill="#263238"/>
    <path id="Path_685" data-name="Path 685" d="M570.009,55.73a1.379,1.379,0,0,1-.051.151l-.161.444c-.156.4-.373.959-.646,1.676l-2.408,6.168c-2.019,5.209-4.785,12.421-7.717,20.426s-5.486,15.293-7.308,20.582c-.9,2.63-1.635,4.765-2.145,6.258l-.591,1.7c-.066.182-.116.328-.161.439a.6.6,0,0,1-.061.146.892.892,0,0,1,.035-.156l.136-.444.545-1.716c.474-1.489,1.181-3.639,2.064-6.289,1.777-5.3,4.3-12.618,7.238-20.613S564.5,69.292,566.572,64.1c1.035-2.594,1.883-4.689,2.483-6.132.293-.712.5-1.267.691-1.661l.187-.429a.655.655,0,0,1,.076-.146Z" transform="translate(-409.503 -55.73)" fill="#263238"/>
    <path id="Path_686" data-name="Path 686" d="M618.1,132.69c.04.061-7.182,5.718-16.151,12.618s-16.257,12.487-16.3,12.431,7.177-5.718,16.151-12.618S618.053,132.634,618.1,132.69Z" transform="translate(-427.774 -93.847)" fill="#263238"/>
    <path id="Path_687" data-name="Path 687" d="M461.649,150.65c-.061.045-2.852-3.533-6.238-7.949s-6.087-8.075-6.031-8.111,2.852,3.533,6.238,7.949S461.7,150.6,461.649,150.65Z" transform="translate(-360.281 -94.788)" fill="#263238"/>
    <path id="Path_688" data-name="Path 688" d="M623.849,215.9c0,.071-4.447-1.156-9.887-2.741s-9.832-2.932-9.812-3,4.447,1.156,9.887,2.746S623.869,215.831,623.849,215.9Z" transform="translate(-436.937 -132.214)" fill="#263238"/>
    <path id="Path_689" data-name="Path 689" d="M517.16,216.064l3.281-1.893,1.746-3.361,1.888,3.281,3.361,1.746-3.281,1.888-1.746,3.361-1.888-3.281Z" transform="translate(-393.852 -132.538)" fill="#fff"/>
    <path id="Path_690" data-name="Path 690" d="M482.02,209.087l1.151-.661.611-1.176.661,1.151,1.176.611-1.146.661-.611,1.176L483.2,209.7Z" transform="translate(-376.448 -130.775)" fill="#fff"/>
    <path id="Path_691" data-name="Path 691" d="M504.46,253.333l2.221-1.277,1.181-2.276L509.139,252l2.276,1.181-2.221,1.277-1.181,2.276-1.277-2.221Z" transform="translate(-387.562 -151.84)" fill="#fff"/>
  </g>
  <g id="Floor" transform="translate(0 200.625)">
    <path id="Path_692" data-name="Path 692" d="M347.75,397.631c0,.076-77.853.131-173.86.131S0,397.707,0,397.631s77.832-.131,173.88-.131S347.75,397.561,347.75,397.631Z" transform="translate(0 -397.5)" fill="#263238"/>
  </g>
  <g id="Character" transform="translate(56.409 64.02)">
    <path id="Path_693" data-name="Path 693" d="M178.588,380s-21.077,5.835-21.92,6.132c-1.272.449-1.06,5.1.919,5.047.934-.035,16.186.57,18.114.449s7.117-2.17,7.117-2.17Z" transform="translate(-133.61 -252.227)" fill="#455a64"/>
    <path id="Path_694" data-name="Path 694" d="M181.091,391.866a19.692,19.692,0,0,0-.929-2.266,17.715,17.715,0,0,0-1.514-1.938,3.651,3.651,0,0,1,1.8,1.767A4.007,4.007,0,0,1,181.091,391.866Z" transform="translate(-144.89 -256.018)" fill="#263238"/>
    <path id="Path_695" data-name="Path 695" d="M185.848,390.047c-.1,0-.318-.974-.878-2.079s-1.221-1.867-1.146-1.943a3.822,3.822,0,0,1,1.459,1.787A4.2,4.2,0,0,1,185.848,390.047Z" transform="translate(-147.451 -255.208)" fill="#263238"/>
    <path id="Path_696" data-name="Path 696" d="M190.291,388.773a11.138,11.138,0,0,0-.5-2.226c-.5-1.166-1.221-1.893-1.151-1.973a3.036,3.036,0,0,1,1.479,1.842A3.458,3.458,0,0,1,190.291,388.773Z" transform="translate(-149.835 -254.489)" fill="#263238"/>
    <path id="Path_697" data-name="Path 697" d="M190.953,382.715a3.826,3.826,0,0,1-.222-1.57,7.251,7.251,0,0,1,.212-1.721,7.016,7.016,0,0,1,.313-.974,1.141,1.141,0,0,1,.338-.5.555.555,0,0,1,.722.035.924.924,0,0,1,.283.6,4.239,4.239,0,0,1,.025.56,4.791,4.791,0,0,1-.126,1.009,6.174,6.174,0,0,1-.651,1.61,4.25,4.25,0,0,1-.949,1.272c-.045-.035.308-.5.727-1.388a6.951,6.951,0,0,0,.555-1.565,4.543,4.543,0,0,0,.1-.964c0-.323,0-.727-.2-.883a.207.207,0,0,0-.278-.025.929.929,0,0,0-.232.368,8.515,8.515,0,0,0-.318.934,8.172,8.172,0,0,0-.278,1.645C190.918,382.11,191.014,382.705,190.953,382.715Z" transform="translate(-150.871 -251.152)" fill="#263238"/>
    <path id="Path_698" data-name="Path 698" d="M191.24,386.858a2.9,2.9,0,0,1,1.358-.217,6,6,0,0,1,1.514.182,3.477,3.477,0,0,1,.863.318.888.888,0,0,1,.474.964,1.055,1.055,0,0,1-.8.732,1.942,1.942,0,0,1-.949,0,3.608,3.608,0,0,1-1.368-.671,3.755,3.755,0,0,1-.979-.964,9,9,0,0,1,1.12.757,3.776,3.776,0,0,0,1.3.56,1.62,1.62,0,0,0,.777,0,.707.707,0,0,0,.5-.5.545.545,0,0,0-.313-.59,3.568,3.568,0,0,0-.762-.3,7.277,7.277,0,0,0-1.423-.247C191.765,386.817,191.245,386.913,191.24,386.858Z" transform="translate(-151.127 -255.512)" fill="#263238"/>
    <path id="Path_699" data-name="Path 699" d="M175.644,392.925a11.773,11.773,0,0,0-.414-1.9,14.008,14.008,0,0,0-1.035-1.65c.066-.081.919.414,1.358,1.514A2.527,2.527,0,0,1,175.644,392.925Z" transform="translate(-142.683 -256.865)" fill="#263238"/>
    <path id="Path_700" data-name="Path 700" d="M184.006,398.334a3.946,3.946,0,0,1-.818.384,17.109,17.109,0,0,1-2.342.727,33.31,33.31,0,0,1-8.05.762c-3.16-.03-6-.177-8.076-.257l-2.443-.131a4.514,4.514,0,0,1-.9-.1,4.576,4.576,0,0,1,.9-.04h2.448l8.075.162a37.939,37.939,0,0,0,7.99-.656C182.805,398.789,183.981,398.269,184.006,398.334Z" transform="translate(-136.338 -261.305)" fill="#263238"/>
    <path id="Path_701" data-name="Path 701" d="M197.406,397.547c-.025.05-.606-.288-1.58-.712a7.339,7.339,0,0,0-3.987-.666,6.326,6.326,0,0,0-3.447,2.054,12.819,12.819,0,0,1-1.211,1.242,6.058,6.058,0,0,1,1.009-1.413,8.278,8.278,0,0,1,1.423-1.307,5.007,5.007,0,0,1,2.175-.924,6.976,6.976,0,0,1,4.149.787A5.624,5.624,0,0,1,197.406,397.547Z" transform="translate(-149.116 -260.038)" fill="#263238"/>
    <path id="Path_702" data-name="Path 702" d="M164.607,395.989a8.1,8.1,0,0,1,.308-.8,3.849,3.849,0,0,0-.7-3.775c-.333-.4-.6-.6-.57-.636a1.645,1.645,0,0,1,.722.5,3.609,3.609,0,0,1,.732,3.987C164.879,395.767,164.632,396.009,164.607,395.989Z" transform="translate(-137.46 -257.566)" fill="#263238"/>
    <path id="Path_703" data-name="Path 703" d="M240.8,381.27s21.617,3.286,22.5,3.483c1.312.293,1.655,4.936-.318,5.1-.934.081-16,2.488-17.933,2.6s-7.975-1.474-7.975-1.474Z" transform="translate(-173.826 -252.856)" fill="#455a64"/>
    <path id="Path_704" data-name="Path 704" d="M263.537,390.621a19.386,19.386,0,0,1,.656-2.357c.54-1.237,1.322-2.019,1.247-2.1a3.621,3.621,0,0,0-1.575,1.963A3.807,3.807,0,0,0,263.537,390.621Z" transform="translate(-186.892 -255.277)" fill="#263238"/>
    <path id="Path_705" data-name="Path 705" d="M259,389.423c.106,0,.2-1.009.626-2.17s1.009-2.019.909-2.064a3.829,3.829,0,0,0-1.242,1.948A4.105,4.105,0,0,0,259,389.423Z" transform="translate(-184.658 -254.796)" fill="#263238"/>
    <path id="Path_706" data-name="Path 706" d="M254.632,388.716a14.9,14.9,0,0,1,.222-2.271,21.359,21.359,0,0,1,.909-2.09,3,3,0,0,0-1.247,2.019A3.233,3.233,0,0,0,254.632,388.716Z" transform="translate(-182.399 -254.382)" fill="#263238"/>
    <path id="Path_707" data-name="Path 707" d="M252.914,382.878a3.664,3.664,0,0,0,.04-1.585,7.278,7.278,0,0,0-.419-1.681,6.607,6.607,0,0,0-.424-.934,1.2,1.2,0,0,0-.4-.474.56.56,0,0,0-.712.121.949.949,0,0,0-.212.626,4.865,4.865,0,0,0,.04.555,4.763,4.763,0,0,0,.252,1.009,6.3,6.3,0,0,0,.838,1.514,4.205,4.205,0,0,0,1.09,1.146c.04-.04-.368-.5-.888-1.287a6.818,6.818,0,0,1-.732-1.514,4.682,4.682,0,0,1-.217-.944c-.03-.323-.081-.727.086-.9a.207.207,0,0,1,.278-.056.909.909,0,0,1,.273.338,8.829,8.829,0,0,1,.429.883,9.023,9.023,0,0,1,.469,1.605C252.869,382.272,252.844,382.873,252.914,382.878Z" transform="translate(-180.621 -251.3)" fill="#263238"/>
    <path id="Path_708" data-name="Path 708" d="M250.891,387.011a2.938,2.938,0,0,0-1.373-.056,6.148,6.148,0,0,0-1.464.358,3.312,3.312,0,0,0-.818.419.883.883,0,0,0-.358,1.009,1.05,1.05,0,0,0,.843.656,1.974,1.974,0,0,0,.939-.116,3.613,3.613,0,0,0,1.287-.818,3.533,3.533,0,0,0,.858-1.075,10.738,10.738,0,0,0-1.009.893,3.75,3.75,0,0,1-1.216.707,1.63,1.63,0,0,1-.777.081.722.722,0,0,1-.57-.434.545.545,0,0,1,.242-.621,3.23,3.23,0,0,1,.727-.389,7.382,7.382,0,0,1,1.378-.414C250.366,387.046,250.891,387.071,250.891,387.011Z" transform="translate(-178.663 -255.644)" fill="#263238"/>
    <path id="Path_709" data-name="Path 709" d="M269.781,391.074a10.929,10.929,0,0,1,.187-1.938,15.248,15.248,0,0,1,.828-1.761c-.076-.071-.863.5-1.171,1.666A2.482,2.482,0,0,0,269.781,391.074Z" transform="translate(-189.891 -255.877)" fill="#263238"/>
    <path id="Path_710" data-name="Path 710" d="M241.34,398.795a4.168,4.168,0,0,0,.858.288,18.062,18.062,0,0,0,2.413.439,33.283,33.283,0,0,0,8.075-.2c3.134-.409,5.941-.893,7.985-1.221l2.407-.419a5.254,5.254,0,0,0,.878-.2,4.257,4.257,0,0,0-.9.066l-2.428.308-7.985,1.115a37.631,37.631,0,0,1-8.015.3C242.587,399.1,241.36,398.755,241.34,398.795Z" transform="translate(-175.941 -260.887)" fill="#263238"/>
    <path id="Path_711" data-name="Path 711" d="M240.23,398.837c.035.04.565-.358,1.484-.9A7.324,7.324,0,0,1,245.6,396.8a6.3,6.3,0,0,1,3.664,1.63,12.4,12.4,0,0,0,1.358,1.085,6.691,6.691,0,0,0-1.2-1.277,8.169,8.169,0,0,0-1.539-1.13,5.048,5.048,0,0,0-2.271-.661,6.95,6.95,0,0,0-4.038,1.277,5.45,5.45,0,0,0-1.343,1.11Z" transform="translate(-175.391 -260.375)" fill="#263238"/>
    <path id="Path_712" data-name="Path 712" d="M329.336,194.689a1.378,1.378,0,0,0-.636-.621l.5-1.009a2.952,2.952,0,0,0-.3-1.04c-.247-.434-1.136-.4-1.136-.4l.136-.288a1.277,1.277,0,0,0-.111-1.272l-.126-.167a2.11,2.11,0,0,0-1.12-.57s.5-.969.278-1.373a2.09,2.09,0,0,0-2.15-.853,31.522,31.522,0,0,0-3.912,1.867.919.919,0,0,1-1.312-.479,13.248,13.248,0,0,0-1.908-3.594,1.987,1.987,0,0,0-2.362-.853.429.429,0,0,0-.212.621,22.715,22.715,0,0,1,1.373,2.524,56.37,56.37,0,0,1,.5,5.633l-1.363,2.594-13.754,21.7s-20.769-14-20.693-14.349l-.979,16.05,15.646,10.4a11.023,11.023,0,0,0,16.191-4.765l10.533-22.859,1.277-1.873,4.961-3.175S329.492,195.108,329.336,194.689Z" transform="translate(-195.118 -155.11)" fill="#ffbe9d"/>
    <path id="Path_713" data-name="Path 713" d="M367.168,193.149a.506.506,0,0,1-.1.091l-.3.237-1.11.863-1.655,1.267a11.839,11.839,0,0,1-1.009.727,1.469,1.469,0,0,1-1.317.172,1.009,1.009,0,0,1-.5-.5,1.4,1.4,0,0,1-.111-.666,1.852,1.852,0,0,1,.5-1.131,7.062,7.062,0,0,1,.828-.757l.747-.621c.444-.368.813-.671,1.085-.888l.3-.242.111-.076a.791.791,0,0,1-.091.1l-.288.257-1.06.924-.737.631a7.393,7.393,0,0,0-.808.752,1.8,1.8,0,0,0-.5,1.06.944.944,0,0,0,1.151,1.105,1.725,1.725,0,0,0,.586-.227c.358-.212.676-.5,1.009-.712l1.671-1.242,1.136-.833.313-.217A.5.5,0,0,1,367.168,193.149Z" transform="translate(-235.237 -158.926)" fill="#eb996e"/>
    <path id="Path_714" data-name="Path 714" d="M369.923,199.28a1.518,1.518,0,0,1-.232.187c-.151.116-.379.283-.656.479-.565.394-1.358.914-2.261,1.449a6.815,6.815,0,0,1-.676.368,1.453,1.453,0,0,1-.722.136,1.136,1.136,0,0,1-.934-.752,1.11,1.11,0,0,1,.066-.818,1.011,1.011,0,0,1,.121-.187c.035-.035.056-.056.061-.05a1.989,1.989,0,0,0-.136.257,1.07,1.07,0,0,0,0,.767,1.035,1.035,0,0,0,.858.666,1.3,1.3,0,0,0,.661-.136,6.13,6.13,0,0,0,.661-.363c.9-.53,1.7-1.04,2.276-1.413l.681-.444a1.169,1.169,0,0,1,.232-.146Z" transform="translate(-236.887 -162.72)" fill="#eb996e"/>
    <path id="Path_715" data-name="Path 715" d="M371.637,203.79a1.111,1.111,0,0,1-.237.141l-.671.338c-.57.278-1.363.661-2.236,1.07-.222.1-.434.212-.656.288a1.262,1.262,0,0,1-.681.056.762.762,0,0,1-.5-.363.817.817,0,0,1-.076-.535,1.11,1.11,0,0,1,.394-.651.757.757,0,0,1,.232-.156s-.076.066-.2.192a1.115,1.115,0,0,0-.343.626.757.757,0,0,0,.081.474.646.646,0,0,0,.439.3,1.181,1.181,0,0,0,.616-.056c.212-.076.424-.182.641-.283.878-.414,1.676-.782,2.251-1.04l.691-.3a1.01,1.01,0,0,1,.257-.1Z" transform="translate(-237.96 -164.953)" fill="#eb996e"/>
    <path id="Path_716" data-name="Path 716" d="M372.971,207.633a4.6,4.6,0,0,1-.787.207c-.5.111-1.171.257-1.923.409l-.55.111a2.377,2.377,0,0,1-.53.066.782.782,0,0,1-.469-.172.5.5,0,0,1-.182-.4.732.732,0,0,1,.3-.5.444.444,0,0,1,.2-.091,1.535,1.535,0,0,0-.172.131.7.7,0,0,0-.242.5.4.4,0,0,0,.156.318.687.687,0,0,0,.409.136,2.645,2.645,0,0,0,.5-.071l.55-.111c.752-.156,1.433-.288,1.928-.373a5.659,5.659,0,0,1,.8-.162Z" transform="translate(-238.936 -166.672)" fill="#eb996e"/>
    <path id="Path_717" data-name="Path 717" d="M363.911,205.726a6.415,6.415,0,0,0-1.408-.141,6.7,6.7,0,0,0-1.393.273,2.645,2.645,0,0,1,1.388-.4A2.594,2.594,0,0,1,363.911,205.726Z" transform="translate(-235.261 -165.774)" fill="#eb996e"/>
    <path id="Path_718" data-name="Path 718" d="M214.226,162.03s-6.985-5.9-5.365-9.953,6.1-6.057,8.3-13.446c1.761-5.9,12.255-17.256,24.691-8.716,0,0,4.209-.666,6.6,1.252s2.973,5.744,3.987,10.165c1.57,6.809,2.428,12.043-.606,15.369s-4.139,4.23-3.977,8.015c.212,4.941,2.392,4.28.5,7.884l-10.427-3.407-.111-2.872-1.055,2.705-6.057-2.185Z" transform="translate(-159.734 -126.843)" fill="#263238"/>
    <path id="Path_719" data-name="Path 719" d="M271.354,147.33c-.676,1.555-.121,3.356.5,4.926s1.393,3.235,1.065,4.9c-.575,2.953-4.24,4.6-4.648,7.571-.217,1.6.585,3.225.273,4.8a5.455,5.455,0,0,1-2.932,3.457c-1.353.772-2.862,1.282-4.139,2.18,0,0-2.806,2.3-7.636-1.514" transform="translate(-182.132 -136.99)" fill="#263238"/>
    <path id="Path_720" data-name="Path 720" d="M236.278,139.624a2.574,2.574,0,0,0-3.028,1.706h0l-10.019,33.276c-1.3,3.891,3.6,8.045,7.773,9.4h0c4.219,1.368,5.047-.636,6.415-4.3,2.236-6.117,3.028-8.429,3.028-8.393s5.6.964,9.085-5.552c1.741-3.245,3.533-8.928,4.83-13.627,1.181-4.23.2-10.261-4.073-11.26Z" transform="translate(-166.867 -133.14)" fill="#ffbe9d"/>
    <path id="Path_721" data-name="Path 721" d="M276.312,170.185a.934.934,0,0,1-1.166.6.888.888,0,0,1-.631-1.11.934.934,0,0,1,1.161-.6.9.9,0,0,1,.636,1.115Z" transform="translate(-192.354 -147.737)" fill="#263238"/>
    <path id="Path_722" data-name="Path 722" d="M277.438,167.286c-.151.081-.651-.651-1.605-.979s-1.817-.1-1.878-.247c-.035-.071.151-.237.535-.353a2.524,2.524,0,0,1,1.549.056,2.438,2.438,0,0,1,1.226.924C277.509,167.013,277.509,167.255,277.438,167.286Z" transform="translate(-192.093 -146.044)" fill="#263238"/>
    <path id="Path_723" data-name="Path 723" d="M257.6,164.213a.939.939,0,0,1-1.166.6.9.9,0,0,1-.636-1.115.934.934,0,0,1,1.166-.6.9.9,0,0,1,.636,1.115Z" transform="translate(-183.084 -144.778)" fill="#263238"/>
    <path id="Path_724" data-name="Path 724" d="M258.579,161.643c-.151.076-.651-.656-1.605-.984s-1.817-.1-1.878-.247c-.03-.066.151-.237.535-.353a2.589,2.589,0,0,1,1.555.056,2.443,2.443,0,0,1,1.221.924C258.64,161.366,258.665,161.608,258.579,161.643Z" transform="translate(-182.753 -143.248)" fill="#263238"/>
    <path id="Path_725" data-name="Path 725" d="M264,171.726a6.9,6.9,0,0,1,1.645.257c.252.061.5.091.6-.061a1.282,1.282,0,0,0,.091-.777c-.025-.666-.05-1.368-.076-2.1a33.994,33.994,0,0,1,.066-5.406,33.986,33.986,0,0,1,.368,5.4c0,.737.03,1.433.04,2.1a1.514,1.514,0,0,1-.207,1.009.656.656,0,0,1-.5.217,1.884,1.884,0,0,1-.434-.086A6.713,6.713,0,0,1,264,171.726Z" transform="translate(-187.164 -145.068)" fill="#263238"/>
    <path id="Path_726" data-name="Path 726" d="M249.323,196.868a18.568,18.568,0,0,1-8.383-5.678s.681,5.552,7.813,7.313Z" transform="translate(-175.743 -158.713)" fill="#eb996e"/>
    <path id="Path_727" data-name="Path 727" d="M258.6,182.732a1.807,1.807,0,0,0-1.317-1.171,1.655,1.655,0,0,0-1.282.2,1.055,1.055,0,0,0-.469,1.11,1.221,1.221,0,0,0,1.136.752,3.947,3.947,0,0,0,1.474-.3,1.221,1.221,0,0,0,.368-.192.343.343,0,0,0,.121-.353" transform="translate(-182.956 -153.919)" fill="#eb996e"/>
    <path id="Path_728" data-name="Path 728" d="M258.917,156.727c-.151.252-1.115-.066-2.307-.146s-2.185.056-2.3-.212c-.045-.131.167-.353.6-.54a4.038,4.038,0,0,1,3.5.273C258.806,156.358,258.983,156.611,258.917,156.727Z" transform="translate(-182.364 -141.062)" fill="#263238"/>
    <path id="Path_729" data-name="Path 729" d="M279.734,160.991c-.267.162-1.009-.293-1.968-.575s-1.822-.353-1.943-.636c-.05-.136.136-.318.555-.429a3.3,3.3,0,0,1,1.7.091,3.155,3.155,0,0,1,1.449.888C279.8,160.653,279.855,160.91,279.734,160.991Z" transform="translate(-193.015 -142.908)" fill="#263238"/>
    <path id="Path_730" data-name="Path 730" d="M226.18,160.1q2.821-9.438,5.638-18.881a6.436,6.436,0,0,1,1.908-3.483,5.927,5.927,0,0,1,3.644-.883,69.283,69.283,0,0,1,16.353,1.615,2.792,2.792,0,0,1-2.09,2.912,13.331,13.331,0,0,1-3.891.283,4.874,4.874,0,0,0-3.614,1.211c-.883.959-1.035,2.6-1.923,3.674-1.514,1.837-4.724,1.449-6.243,3.3-1.151,1.4-.838,3.442-1.216,5.209-.429,2.019-.429,2.019-2.019,4.956-.964,1.807,1.459,5.259-.954,9.741l-4.674-1.332,2.059-6.92-2.786,6.491Z" transform="translate(-168.432 -131.795)" fill="#263238"/>
    <path id="Path_731" data-name="Path 731" d="M257.768,179.42c.1.055.045.308.04.671a2.438,2.438,0,0,0,1.186,2.261c.3.2.535.3.5.419s-.283.2-.737.1a2.211,2.211,0,0,1-1.514-2.9C257.435,179.541,257.682,179.365,257.768,179.42Z" transform="translate(-183.753 -152.879)" fill="#263238"/>
    <path id="Path_732" data-name="Path 732" d="M247.953,149.37a1.049,1.049,0,0,1-.257.146c-.177.086-.429.222-.747.414a8.949,8.949,0,0,0-4.129,6.233,10.206,10.206,0,0,0,0,2.715,16.691,16.691,0,0,1,.182,2.968,5.522,5.522,0,0,1-.323,1.514,8.961,8.961,0,0,1-.671,1.317,6.592,6.592,0,0,0-1.06,2.468,8.579,8.579,0,0,0,.066,2.448c.106.767.242,1.484.3,2.155a5.724,5.724,0,0,1-.464,3.1,3.261,3.261,0,0,1-.5.7,1.21,1.21,0,0,1-.232.2,4.674,4.674,0,0,0,.641-.944,5.794,5.794,0,0,0,.368-3.028c-.066-.656-.212-1.368-.328-2.14a8.43,8.43,0,0,1-.086-2.524c.2-1.857,1.989-3.22,2.019-5.264a16.938,16.938,0,0,0-.172-2.922,10.226,10.226,0,0,1,0-2.776,8.893,8.893,0,0,1,1.918-4.25,8.433,8.433,0,0,1,2.4-2.019,6.4,6.4,0,0,1,.772-.368A1.388,1.388,0,0,1,247.953,149.37Z" transform="translate(-175.332 -138)" fill="#263238"/>
    <path id="Path_733" data-name="Path 733" d="M293.392,173.07a.288.288,0,0,1-.086.071,2.877,2.877,0,0,1-.267.182,4.3,4.3,0,0,1-1.146.469,4.855,4.855,0,0,1-1.963.071,4.416,4.416,0,0,1-2.322-1.156,4.755,4.755,0,0,1-1.388-2.816,4.427,4.427,0,0,1,.116-1.772,5.421,5.421,0,0,1,.833-1.686,22.4,22.4,0,0,1,2.786-2.847,10.32,10.32,0,0,0,1.373-1.549,7.408,7.408,0,0,0,.944-1.9,12.325,12.325,0,0,0,.53-4.164,29.092,29.092,0,0,0-.409-3.927,36.812,36.812,0,0,0-1.686-6.481,38.057,38.057,0,0,0-1.767-4.164c-.237-.5-.429-.848-.56-1.1a2.992,2.992,0,0,1-.187-.389,2.107,2.107,0,0,1,.232.363c.146.242.353.6.606,1.075a34.385,34.385,0,0,1,1.852,4.154,35.749,35.749,0,0,1,1.766,6.5,29.394,29.394,0,0,1,.429,3.962,12.432,12.432,0,0,1-.54,4.255,7.669,7.669,0,0,1-.974,1.963,10.919,10.919,0,0,1-1.408,1.585,22.6,22.6,0,0,0-2.771,2.8,5.189,5.189,0,0,0-.808,1.61,4.239,4.239,0,0,0-.121,1.681,4.542,4.542,0,0,0,1.3,2.705,4.275,4.275,0,0,0,2.221,1.146,4.77,4.77,0,0,0,1.908,0,5.411,5.411,0,0,0,1.5-.646Z" transform="translate(-198.149 -133.32)" fill="#263238"/>
    <path id="Path_734" data-name="Path 734" d="M215.4,164.67a4.421,4.421,0,0,0,1.625-.8,6.526,6.526,0,0,0,2.15-4.341,24.535,24.535,0,0,0,.086-3.447,15.183,15.183,0,0,1,.308-3.982,7.475,7.475,0,0,1,.818-2.019,4.87,4.87,0,0,1,1.59-1.635c1.368-.838,3.028-.8,4.542-1.317a4.8,4.8,0,0,0,1.933-1.267,11.536,11.536,0,0,0,1.368-1.842,10.252,10.252,0,0,1,2.811-3.4,4.75,4.75,0,0,1,1.948-.681,10.649,10.649,0,0,1,1.948-.086,20.424,20.424,0,0,0,3.442-.025A10.306,10.306,0,0,0,244.552,138a10.915,10.915,0,0,0,1.05-.858l.257-.242c.061-.056.091-.081.1-.076a7.142,7.142,0,0,1-1.343,1.257,10.135,10.135,0,0,1-4.618,1.933,19.18,19.18,0,0,1-3.472.061,6.454,6.454,0,0,0-3.765.782,10.708,10.708,0,0,0-2.725,3.331,11.767,11.767,0,0,1-1.4,1.888,5.047,5.047,0,0,1-2.019,1.332c-1.555.535-3.2.5-4.487,1.292a5.522,5.522,0,0,0-2.307,3.5,15.077,15.077,0,0,0-.328,3.922,23.988,23.988,0,0,1-.121,3.472,6.521,6.521,0,0,1-2.271,4.4,3.836,3.836,0,0,1-1.216.631,2.231,2.231,0,0,1-.348.076.373.373,0,0,1-.136-.02Z" transform="translate(-163.093 -131.784)" fill="#455a64"/>
    <path id="Path_735" data-name="Path 735" d="M225.42,142.6a5.937,5.937,0,0,0,1.009.268,4.916,4.916,0,0,0,2.726-.449,11.463,11.463,0,0,0,3.266-2.564c.55-.565,1.131-1.171,1.787-1.741a8.141,8.141,0,0,1,2.276-1.459,7.389,7.389,0,0,1,2.66-.5,23.17,23.17,0,0,1,2.5.136c.787.076,1.514.156,2.236.162a9.677,9.677,0,0,0,1.933-.156,5.375,5.375,0,0,0,2.524-1.115,9.079,9.079,0,0,0,.712-.747,1.413,1.413,0,0,1-.136.232,1.512,1.512,0,0,1-.2.262,2.64,2.64,0,0,1-.313.328,5.229,5.229,0,0,1-2.564,1.221,9.539,9.539,0,0,1-1.968.192c-.717,0-1.469-.066-2.261-.136a22.9,22.9,0,0,0-2.468-.121,7.2,7.2,0,0,0-2.564.474,12.879,12.879,0,0,0-3.992,3.124,11.317,11.317,0,0,1-3.361,2.569,4.866,4.866,0,0,1-2.816.379,3.533,3.533,0,0,1-.742-.232A1.083,1.083,0,0,1,225.42,142.6Z" transform="translate(-168.056 -130.601)" fill="#455a64"/>
    <path id="Path_736" data-name="Path 736" d="M288.434,157.86a4.439,4.439,0,0,0,.247-.959,4.194,4.194,0,0,0-.722-2.554,16.627,16.627,0,0,0-2.771-2.932,7.46,7.46,0,0,1-1.469-1.938,6.783,6.783,0,0,1-.621-2.524c-.121-1.792.187-3.467.146-4.982a6.181,6.181,0,0,0-1.11-3.765,3.735,3.735,0,0,0-2.216-1.423,4.235,4.235,0,0,0-1.009-.025.842.842,0,0,1,.252-.066,2.523,2.523,0,0,1,.752,0,3.745,3.745,0,0,1,2.347,1.408,6.1,6.1,0,0,1,1.206,3.876c.02,1.539-.242,3.225-.131,4.971a6.612,6.612,0,0,0,.6,2.443,7.208,7.208,0,0,0,1.408,1.878A15.572,15.572,0,0,1,288.1,154.3a4.164,4.164,0,0,1,.666,2.66,2.474,2.474,0,0,1-.217.722,1.123,1.123,0,0,1-.111.182Z" transform="translate(-194.549 -131.707)" fill="#455a64"/>
    <path id="Path_737" data-name="Path 737" d="M207.173,158.4a1.514,1.514,0,0,1-.323-.177,3.615,3.615,0,0,1-.787-.707,4.573,4.573,0,0,1-.969-3.684,4.371,4.371,0,0,1,.429-1.232,4.829,4.829,0,0,1,.893-1.1,11.1,11.1,0,0,1,2.625-1.62,10.3,10.3,0,0,0,2.8-1.787,6.6,6.6,0,0,0,1.59-3.139c.308-1.2.5-2.407.908-3.533a15.031,15.031,0,0,1,1.464-3.074,15.843,15.843,0,0,1,3.841-4.26,14.676,14.676,0,0,1,3.336-1.963,8.911,8.911,0,0,1,1.009-.368l.353-.1c0,.03-.474.182-1.3.565a15.8,15.8,0,0,0-3.266,2.019,16,16,0,0,0-3.745,4.24,15.268,15.268,0,0,0-1.428,3.028c-.384,1.1-.585,2.291-.9,3.508a6.8,6.8,0,0,1-1.655,3.255,10.382,10.382,0,0,1-2.882,1.822,11.034,11.034,0,0,0-2.584,1.565,4.593,4.593,0,0,0-.863,1.009,4.315,4.315,0,0,0-.424,1.171,4.633,4.633,0,0,0,.121,2.135,4.179,4.179,0,0,0,.747,1.449A4.866,4.866,0,0,0,207.173,158.4Z" transform="translate(-157.955 -129.229)" fill="#263238"/>
    <path id="Path_738" data-name="Path 738" d="M295.1,159.278a7.1,7.1,0,0,0,.535-.717,6.091,6.091,0,0,0,.9-2.236,8.388,8.388,0,0,0-.126-3.563,14.132,14.132,0,0,0-1.807-4.038c-.833-1.337-1.726-2.524-2.483-3.7a20.9,20.9,0,0,1-1.787-3.19,10.845,10.845,0,0,1-.732-2.352,6.2,6.2,0,0,1-.081-.666.721.721,0,0,1,0-.237c.025,0,.056.318.182.883a11.921,11.921,0,0,0,.8,2.3,22.5,22.5,0,0,0,1.817,3.134c.762,1.131,1.666,2.342,2.524,3.689a14.164,14.164,0,0,1,1.822,4.093,8.429,8.429,0,0,1,.071,3.659,5.814,5.814,0,0,1-1.009,2.256,4.458,4.458,0,0,1-.444.5.9.9,0,0,1-.182.182Z" transform="translate(-199.799 -132.656)" fill="#263238"/>
    <path id="Path_739" data-name="Path 739" d="M154.648,318.663l-4.149,7.207s-20.6-7.535-32.655-5.34c-4.588.838-9.494,11.24-2.811,17.917,6.516,6.516,18.17,15.732,40.039,18.715.545.076,9.5,2.019,8.954,1.933s12.557,2.019,12.557,2.019l3.074-11.664,24.423,3.836c14.395-.984,21.44-16.378,12.774-21.329-8.075-4.623-23.293-4.992-23.293-4.992l-5.512-8.646Z" transform="translate(-111.764 -221.678)" fill="#263238"/>
    <path id="Path_740" data-name="Path 740" d="M196.926,368.478c.066-.394.237-1.454.6-3.624.192-1.161.429-2.579.742-4.2.151-.813.328-1.681.5-2.594.106-.454.217-.924.353-1.4.066-.237.136-.479.227-.722a2.206,2.206,0,0,1,.368-.717l.035.177c-5.2-1.847-11.694-4.285-18.624-7.2-4.26-1.812-8.277-3.644-11.81-5.552a38,38,0,0,1-4.845-3.028c-1.438-1.06-2.72-2.12-3.917-3.028a21.353,21.353,0,0,0-6.147-3.6,9.02,9.02,0,0,0-1.075-.318,6.438,6.438,0,0,0-.8-.177l-.5-.091a.579.579,0,0,1-.167-.04h.172l.5.066a5.386,5.386,0,0,1,.813.151,9.209,9.209,0,0,1,1.09.293,14.363,14.363,0,0,1,2.826,1.262,29.818,29.818,0,0,1,3.4,2.291c1.211.914,2.5,1.968,3.932,3.028a38.612,38.612,0,0,0,4.83,2.968c3.533,1.888,7.571,3.71,11.8,5.522,6.925,2.917,13.41,5.37,18.594,7.248l.146.05-.086.156a2.054,2.054,0,0,0-.318.631c-.086.232-.156.469-.227.707-.136.469-.247.934-.358,1.388-.212.9-.389,1.772-.55,2.579-.323,1.625-.58,3.028-.792,4.194s-.379,2.044-.5,2.675c-.061.308-.106.54-.146.7a1.705,1.705,0,0,1-.056.212Z" transform="translate(-131.623 -228.632)" fill="#455a64"/>
    <path id="Path_741" data-name="Path 741" d="M261.963,347.455a.434.434,0,0,1-.131,0l-.384-.061c-.333-.04-.818-.167-1.459-.227a27.989,27.989,0,0,0-5.416-.192,39.911,39.911,0,0,0-7.929,1.307c-1.469.394-2.993.853-4.542,1.393s-3.149,1.166-4.78,1.812a43.946,43.946,0,0,1-4.871,1.61c-1.6.439-3.16.787-4.653,1.075-2.988.58-5.708.939-7.99,1.216s-4.134.469-5.411.6l-1.474.141-.384.03a.373.373,0,0,1-.131,0l.126-.03.384-.056,1.469-.192,5.4-.681c2.276-.3,4.987-.681,7.964-1.272,1.484-.3,3.028-.646,4.628-1.085a45.316,45.316,0,0,0,4.845-1.6c1.63-.651,3.23-1.272,4.795-1.812s3.1-1.009,4.568-1.383a39.015,39.015,0,0,1,7.985-1.262,26.248,26.248,0,0,1,5.441.278c.641.076,1.126.217,1.454.278l.379.086A.382.382,0,0,1,261.963,347.455Z" transform="translate(-161.612 -235.758)" fill="#455a64"/>
    <path id="Path_742" data-name="Path 742" d="M216.528,337.695c0,.172-1.1.449-2.922.621a36.81,36.81,0,0,1-7.172-.091,37.4,37.4,0,0,1-7.026-1.428c-1.751-.555-2.776-1.06-2.72-1.226.116-.368,4.442.782,9.887,1.348S216.528,337.311,216.528,337.695Z" transform="translate(-153.824 -230.187)" fill="#263238"/>
    <path id="Path_743" data-name="Path 743" d="M256.376,335.8a4.655,4.655,0,0,1-.808.217c-.262.056-.58.136-.944.247s-.782.212-1.231.374a30.823,30.823,0,0,0-3.119,1.242c-1.141.54-2.372,1.186-3.624,1.933a57.427,57.427,0,0,0-6.117,4.3c-.747.6-1.348,1.1-1.756,1.438a5,5,0,0,1-.656.5,4.775,4.775,0,0,1,.591-.586c.389-.368.969-.888,1.706-1.514a48.62,48.62,0,0,1,6.1-4.381,40.072,40.072,0,0,1,3.659-1.933,27.891,27.891,0,0,1,3.165-1.2c.454-.151.878-.252,1.252-.343a9.466,9.466,0,0,1,.959-.2A5.593,5.593,0,0,1,256.376,335.8Z" transform="translate(-174.346 -230.336)" fill="#455a64"/>
    <path id="Path_744" data-name="Path 744" d="M219.822,351.9a6.056,6.056,0,0,1-1.449-.409,30.785,30.785,0,0,1-3.3-1.514l-3.2-1.676a10.822,10.822,0,0,1-1.317-.717,7.124,7.124,0,0,1,1.4.545c.843.389,1.984.969,3.24,1.615s2.408,1.2,3.255,1.555A12.761,12.761,0,0,1,219.822,351.9Z" transform="translate(-160.691 -236.17)" fill="#455a64"/>
    <path id="Path_745" data-name="Path 745" d="M232.857,320.69c.035,0-.03.757-.111,1.973s-.141,2.9-.111,4.759.172,3.533.3,4.749a18.767,18.767,0,0,1,.182,1.968,2.1,2.1,0,0,1-.131-.5c-.071-.338-.151-.828-.237-1.433a41.422,41.422,0,0,1-.373-4.765,40.3,40.3,0,0,1,.192-4.78c.061-.606.121-1.1.182-1.438A1.792,1.792,0,0,1,232.857,320.69Z" transform="translate(-171.496 -222.852)" fill="#455a64"/>
    <path id="Path_746" data-name="Path 746" d="M237.094,321.959a2.6,2.6,0,0,0-.217.227,1.433,1.433,0,0,0-.318.742,1.373,1.373,0,0,0,.313,1.105,1.3,1.3,0,0,0,2.155-.8,1.4,1.4,0,0,0-.5-1.045,1.438,1.438,0,0,0-.732-.353c-.192-.03-.308,0-.313-.035a.54.54,0,0,1,.323-.066,1.388,1.388,0,0,1,.838.313,1.544,1.544,0,0,1,.606,1.191,1.438,1.438,0,0,1-1.009,1.287,1.418,1.418,0,0,1-1.585-.333,1.514,1.514,0,0,1-.323-1.3,1.393,1.393,0,0,1,.434-.782C236.967,321.974,237.089,321.949,237.094,321.959Z" transform="translate(-173.441 -223.369)" fill="#455a64"/>
    <path id="Path_747" data-name="Path 747" d="M236.264,305.7a2.68,2.68,0,0,1-.394.5,13.183,13.183,0,0,1-1.211,1.282,19.515,19.515,0,0,1-2.019,1.676,20.108,20.108,0,0,1-5.729,2.852,19.15,19.15,0,0,1-2.549.606,13.631,13.631,0,0,1-1.756.2,2.891,2.891,0,0,1-.646,0c0-.05.919-.1,2.367-.384a22.156,22.156,0,0,0,2.524-.651,24.394,24.394,0,0,0,2.937-1.2,23.14,23.14,0,0,0,2.725-1.625,20.486,20.486,0,0,0,2.019-1.61C235.633,306.355,236.228,305.669,236.264,305.7Z" transform="translate(-166.342 -215.427)" fill="#263238"/>
    <path id="Path_748" data-name="Path 748" d="M264.736,316.711c0,.081-.914.081-1.984.348s-1.878.681-1.913.611a3.962,3.962,0,0,1,1.852-.868A4.037,4.037,0,0,1,264.736,316.711Z" transform="translate(-185.599 -220.837)" fill="#263238"/>
    <g id="Group_2599" data-name="Group 2599" transform="translate(57.187 90.641)" opacity="0.3">
      <path id="Path_749" data-name="Path 749" d="M225.837,312.926a19.3,19.3,0,0,0,11.245-6.5,4.543,4.543,0,0,1-1.1,4.628c1.282.611,2.781.207,4.184,0s3.124,0,3.8,1.247a147.541,147.541,0,0,1-18.892.54" transform="translate(-225.07 -306.43)"/>
    </g>
    <path id="Path_750" data-name="Path 750" d="M187.932,297.633a6.879,6.879,0,0,0-2.175-1.413,6.979,6.979,0,0,0-2.746-.459,7.484,7.484,0,0,0-3.3.883,14.315,14.315,0,0,0-4.5,4.341,13.088,13.088,0,0,0-1.009,1.64,3.276,3.276,0,0,1-.353.616,3.873,3.873,0,0,1,.257-.661,11.182,11.182,0,0,1,.934-1.7c.464-.681,1.07-1.433,1.772-2.266a9.746,9.746,0,0,1,2.761-2.2,7.571,7.571,0,0,1,3.412-.893,6.884,6.884,0,0,1,2.836.535,5.607,5.607,0,0,1,1.64,1.045,3.488,3.488,0,0,1,.358.389C187.906,297.572,187.942,297.628,187.932,297.633Z" transform="translate(-142.514 -210.384)" fill="#263238"/>
    <path id="Path_751" data-name="Path 751" d="M221.021,203.79l-7.051,1.5,3.528,13.188,12.472,2.68,8.56-6.077,1.176-7.268-7.339-2.776Z" transform="translate(-162.385 -164.953)" fill="#ffbe9d"/>
    <path id="Path_752" data-name="Path 752" d="M198.17,205.68s4.765,13.849,13.577,12.572S219.822,208,219.822,208s9.2,2.8,12.038,5.784,1.181,9.469,1.181,9.469l-2.387,11.72-5.183,22.455s1.984,6.122-3.084,7.636l-1.6-2.524-30.419.863s-6.506,7.5-8.53,4.911a38.255,38.255,0,0,1-3.982-7.631l13.96-53.323Z" transform="translate(-144.495 -165.89)" fill="#455a64"/>
    <path id="Path_753" data-name="Path 753" d="M275.177,218.23c.247.141,21.6,15.646,21.6,15.646s-1.676,12.764,8.58,10.73c0,0-4.139,10.675-9.741,8.434-1.595-.641-21.274-13.092-21.274-13.092l-4.179-8.908Z" transform="translate(-190.215 -172.105)" fill="#455a64"/>
    <path id="Path_754" data-name="Path 754" d="M194.46,207a12.619,12.619,0,0,0-1.3.091c-4.184.4-19.608,3.594-21.037,14.48-.747,5.693-.959,22.344-1.767,29.324,0,0,1.287,9.7,1.767,11.5.853,3.195,16.328-1.923,16.328-1.923l.035-30.813,5.486-22.652" transform="translate(-140.786 -166.543)" fill="#455a64"/>
    <path id="Path_755" data-name="Path 755" d="M198.725,262.45a1.224,1.224,0,0,1,0,.252,6.65,6.65,0,0,0,.05.712,10.518,10.518,0,0,0,.651,2.524c.394,1.04,1.009,2.221,1.6,3.578a16.8,16.8,0,0,1,.843,2.2,12.98,12.98,0,0,1,.419,2.473,29.959,29.959,0,0,1-.121,4.815c-.126,1.469-.252,2.8-.434,3.9a16.86,16.86,0,0,1-.611,2.584c-.1.293-.182.5-.252.671s-.1.232-.111.227.1-.333.268-.929a20.7,20.7,0,0,0,.5-2.579c.156-1.1.257-2.428.373-3.9a31.461,31.461,0,0,0,.1-4.775,12.9,12.9,0,0,0-.4-2.428,16.4,16.4,0,0,0-.777-2.155c-.585-1.348-1.176-2.549-1.549-3.609a9.442,9.442,0,0,1-.58-2.589,4.2,4.2,0,0,1,0-.722A.833.833,0,0,1,198.725,262.45Z" transform="translate(-154.812 -194.007)" fill="#263238"/>
    <path id="Path_756" data-name="Path 756" d="M200.124,254.76c.04,0,.081.782.252,2.019a27.171,27.171,0,0,0,1.131,4.795c.156.454.313.9.5,1.317a1.571,1.571,0,0,0,.126.288l.177.278c.121.192.232.379.328.57a4.785,4.785,0,0,1,.565,2.185,3.881,3.881,0,0,1-.3,1.489,1.947,1.947,0,0,1-.278.479,5.3,5.3,0,0,0,.394-1.968,4.85,4.85,0,0,0-.6-2.074,6.165,6.165,0,0,0-.323-.545l-.182-.278a1.692,1.692,0,0,1-.151-.328c-.172-.424-.333-.873-.5-1.332a22.671,22.671,0,0,1-1.06-4.855c-.071-.631-.086-1.146-.1-1.514a1.892,1.892,0,0,1,.015-.525Z" transform="translate(-155.514 -190.198)" fill="#263238"/>
    <path id="Path_757" data-name="Path 757" d="M194.559,236c-.04,0-.268-.626-.727-1.625a22.832,22.832,0,0,0-2.135-3.7,23.289,23.289,0,0,0-2.8-3.23c-.792-.757-1.322-1.186-1.3-1.216a1.645,1.645,0,0,1,.4.257,12.789,12.789,0,0,1,1.009.823,19.114,19.114,0,0,1,4.982,6.99,12.835,12.835,0,0,1,.444,1.232,1.474,1.474,0,0,1,.121.469Z" transform="translate(-149.323 -176.068)" fill="#263238"/>
    <path id="Path_758" data-name="Path 758" d="M287.163,227.67a6.479,6.479,0,0,1-.106,1.226c-.091.747-.217,1.787-.338,2.932s-.212,2.185-.278,2.937a6.53,6.53,0,0,1-.146,1.216,5.134,5.134,0,0,1-.035-1.226c0-.757.076-1.807.2-2.958s.278-2.185.414-2.932A5.279,5.279,0,0,1,287.163,227.67Z" transform="translate(-198.178 -176.781)" fill="#263238"/>
    <path id="Path_759" data-name="Path 759" d="M288.959,253.328c0,.05-.666.111-1.7.409a7.949,7.949,0,0,0-3.533,2.085,9.453,9.453,0,0,0-1.358,1.847,13.146,13.146,0,0,0-.782,1.711c-.086.247-.172.474-.247.686s-.111.363-.161.5a1.513,1.513,0,0,1-.167.444,1.867,1.867,0,0,1,.071-.469c.035-.167.076-.343.116-.54l.212-.707a11.5,11.5,0,0,1,.747-1.767,9.015,9.015,0,0,1,1.378-1.913,7.687,7.687,0,0,1,3.7-2.085,7.061,7.061,0,0,1,.722-.146c.212-.035.4-.061.55-.071A1.514,1.514,0,0,1,288.959,253.328Z" transform="translate(-195.589 -189.478)" fill="#263238"/>
    <path id="Path_760" data-name="Path 760" d="M322.363,265.242a3.319,3.319,0,0,1-.343-.565c-.106-.187-.227-.419-.348-.691s-.283-.585-.414-.944a18.859,18.859,0,0,1-.813-2.549,20.91,20.91,0,0,1-.5-3.24,20.591,20.591,0,0,1,.056-3.281,19.009,19.009,0,0,1,.464-2.635c.081-.373.2-.7.283-1.009a6.973,6.973,0,0,1,.252-.732,3.879,3.879,0,0,1,.262-.606c.05,0-.288.9-.616,2.372a21.134,21.134,0,0,0-.4,2.614,22.785,22.785,0,0,0-.035,3.235,22.492,22.492,0,0,0,.469,3.2,20.56,20.56,0,0,0,.752,2.524C321.969,264.389,322.408,265.217,322.363,265.242Z" transform="translate(-214.85 -187.34)" fill="#263238"/>
    <path id="Path_761" data-name="Path 761" d="M313.185,261.51a2.281,2.281,0,0,1-.2-.54,9.9,9.9,0,0,1-.318-1.514,12.027,12.027,0,0,1,.474-5.128,11.608,11.608,0,0,1,2.579-4.462,2.276,2.276,0,0,1,1.388-.747.964.964,0,0,1,.429.086c.091.05.131.081.126.086a1.56,1.56,0,0,0-.545-.066,2.211,2.211,0,0,0-1.262.772,12.239,12.239,0,0,0-2.463,4.411,12.855,12.855,0,0,0-.545,5.047C312.983,260.718,313.235,261.5,313.185,261.51Z" transform="translate(-211.224 -187.404)" fill="#263238"/>
    <path id="Path_762" data-name="Path 762" d="M234.827,268.69a2.477,2.477,0,0,1-.121.6,6.094,6.094,0,0,1-.207.686,9.343,9.343,0,0,1-.338.888,14.343,14.343,0,0,1-1.151,2.2,16.571,16.571,0,0,1-1.893,2.372,16.064,16.064,0,0,1-2.332,1.948,13.944,13.944,0,0,1-2.165,1.2c-.318.156-.621.257-.883.358a6.15,6.15,0,0,1-.681.222,2.421,2.421,0,0,1-.6.136c0-.05.828-.278,2.084-.883a15.835,15.835,0,0,0,2.1-1.237,17.221,17.221,0,0,0,2.281-1.928,17.965,17.965,0,0,0,1.878-2.322,16.657,16.657,0,0,0,1.186-2.135C234.575,269.523,234.781,268.675,234.827,268.69Z" transform="translate(-167.58 -197.097)" fill="#263238"/>
    <g id="Group_2600" data-name="Group 2600" transform="translate(44.879 64.749)" opacity="0.3">
      <path id="Path_763" data-name="Path 763" d="M205.577,266.976l-2.907-10.624c-.141-.5-.379-1.126-.908-1.221a1.009,1.009,0,0,0-1.009.868,5.724,5.724,0,0,0-.03,1.555c.232,2.3.414,3.871,1.484,5.658,2.095,3.483.717,5.168.717,5.168a47.7,47.7,0,0,1-1.514,14.379l1.242,5.254c1.186-3.9,3.881-7.162,4.341-11.215C207.344,273.487,206.455,270.206,205.577,266.976Z" transform="translate(-200.683 -255.13)"/>
    </g>
    <g id="Group_2601" data-name="Group 2601" transform="translate(86.158 67.8)" opacity="0.3">
      <path id="Path_764" data-name="Path 764" d="M282.47,262.526c3.457,1.8,6.531,4.28,9.9,6.2a15.83,15.83,0,0,0-6.2-6.93,3.881,3.881,0,0,0-2.342-.616c-.813.116-1.4.575-1.277,1.388" transform="translate(-282.47 -261.176)"/>
    </g>
    <g id="Group_2602" data-name="Group 2602" transform="translate(101.301 61.352)" opacity="0.3">
      <path id="Path_765" data-name="Path 765" d="M317.145,248.592c-1.181-.025-2.074,1.045-2.655,2.074a15.994,15.994,0,0,0-1.908,9.645c.076.6.293,1.312.883,1.428a1.009,1.009,0,0,0,1.045-.616,2.9,2.9,0,0,0,.2-1.282,42.6,42.6,0,0,1,.151-6.057,8.9,8.9,0,0,1,2.524-5.385" transform="translate(-312.473 -248.4)"/>
    </g>
    <path id="Path_766" data-name="Path 766" d="M216,255.22a.378.378,0,0,1,.121,0h.348l1.368-.076,5.173-.237,18.3-.777h.121v.121c.146,6.158.323,13.239.5,20.739v.883h-.131a180.135,180.135,0,0,0-22.536,1.681h-.1l-.025-.1a81.051,81.051,0,0,1-2.69-16.237c-.116-1.984-.141-3.533-.141-4.613v-1.524a.844.844,0,0,1,0-.106s0,.035,0,.106v1.524c0,1.065.066,2.625.207,4.6a82.335,82.335,0,0,0,2.771,16.186l-.126-.081A175.389,175.389,0,0,1,241.73,275.6l-.126.131v-.752c-.172-7.5-.338-14.581-.479-20.739l.121.111-18.306.681-5.173.177-1.368.035H216Z" transform="translate(-163.39 -189.886)" fill="#fff"/>
    <path id="Path_767" data-name="Path 767" d="M226.613,271.618c-.071,0-.7-3.4-1.408-7.621s-1.221-7.646-1.151-7.657.7,3.4,1.408,7.616S226.683,271.6,226.613,271.618Z" transform="translate(-167.376 -190.981)" fill="#fff"/>
    <path id="Path_768" data-name="Path 768" d="M229.788,294.052a29.692,29.692,0,0,1-.868-5.552,29.694,29.694,0,0,1,.868,5.552Z" transform="translate(-169.789 -206.909)" fill="#fff"/>
    <path id="Path_769" data-name="Path 769" d="M238,267.815a1.67,1.67,0,0,1-.126-.459c-.076-.3-.172-.747-.278-1.3-.212-1.1-.449-2.635-.621-4.346s-.237-3.26-.247-4.381v-1.332a2.09,2.09,0,0,1,.045-.5,14.248,14.248,0,0,1,.131,1.812c.055,1.115.151,2.66.323,4.361s.379,3.235.545,4.341A16.026,16.026,0,0,1,238,267.815Z" transform="translate(-173.657 -190.56)" fill="#fff"/>
    <path id="Path_770" data-name="Path 770" d="M237.258,291.132a23.644,23.644,0,0,1-.565-3.563,23.93,23.93,0,0,1-.313-3.6,24.878,24.878,0,0,1,.57,3.563A25.2,25.2,0,0,1,237.258,291.132Z" transform="translate(-173.484 -204.665)" fill="#fff"/>
    <path id="Path_771" data-name="Path 771" d="M247.033,276.622a4.619,4.619,0,0,1-.106-.828c-.05-.586-.116-1.348-.2-2.271-.167-1.918-.409-4.542-.747-7.48s-.7-5.552-.969-7.455c-.131-.919-.242-1.676-.323-2.256a5.43,5.43,0,0,1-.091-.833,4.851,4.851,0,0,1,.192.818c.106.53.247,1.3.4,2.246.323,1.9.712,4.542,1.05,7.45s.555,5.552.671,7.5c.061.959.1,1.741.116,2.276A5.931,5.931,0,0,1,247.033,276.622Z" transform="translate(-177.555 -190.565)" fill="#fff"/>
    <path id="Path_772" data-name="Path 772" d="M258.018,276.776a4.889,4.889,0,0,1-.035-.848v-2.312c0-1.948-.071-4.638-.212-7.611s-.343-5.653-.5-7.6c-.086-.939-.151-1.716-.2-2.3a5.872,5.872,0,0,1-.045-.848,4.879,4.879,0,0,1,.146.838c.081.54.177,1.322.283,2.291.217,1.943.449,4.628.591,7.606s.162,5.673.136,7.621c0,.979-.04,1.767-.066,2.312A5.816,5.816,0,0,1,258.018,276.776Z" transform="translate(-183.706 -190.446)" fill="#fff"/>
    <g id="Group_2603" data-name="Group 2603" transform="translate(57.152 72.425)" opacity="0.3">
      <path id="Path_773" data-name="Path 773" d="M225.136,280.156a4.255,4.255,0,0,0,2.655.646,8.453,8.453,0,0,0,2.685-.707,8.075,8.075,0,0,0,3.054-2.019,7.066,7.066,0,0,0,1.514-3.578,20.94,20.94,0,0,0,.131-3.937.3.3,0,0,0-.035-.167.212.212,0,0,0-.288,0,.616.616,0,0,0-.151.283,14.637,14.637,0,0,1-9.7,9.2" transform="translate(-225 -270.338)"/>
    </g>
    <path id="Path_774" data-name="Path 774" d="M197.863,335.2l-3.064-5.784-6.935-32.458s-6.38-3.659-11.609,4.371c-.212.323,7.182,23.565,9.246,30.036l.288,6.183s-.363,7.323,0,7.964a2.933,2.933,0,0,0,1.282,1.009,1.78,1.78,0,0,0,1.832,2.019s.182,2.019,1.741,1.741a2.973,2.973,0,0,0,2.1-1.282s0,2.564,1.373,2.286,1.595-1.373,1.852-1.736a27.555,27.555,0,0,0,.54-4.119v-6.2l3.578,2.9c1.009.5,2.524,1.151,3.4.384Z" transform="translate(-143.703 -210.684)" fill="#ffbe9d"/>
    <path id="Path_775" data-name="Path 775" d="M216.211,380.89a11.27,11.27,0,0,1,.207,3.341c-.045.858-.081,1.64-.116,2.357a3.963,3.963,0,0,1-.091.979,15.387,15.387,0,0,1-.056-3.346C216.241,382.384,216.146,380.9,216.211,380.89Z" transform="translate(-163.435 -252.668)" fill="#eb996e"/>
    <path id="Path_776" data-name="Path 776" d="M208.417,389.45a17.663,17.663,0,0,1,.177,3.064,18.514,18.514,0,0,1-.091,3.069,17.306,17.306,0,0,1-.172-3.064,18.213,18.213,0,0,1,.086-3.069Z" transform="translate(-159.578 -256.908)" fill="#eb996e"/>
    <path id="Path_777" data-name="Path 777" d="M201.583,391.68a8.373,8.373,0,0,1-.409,4.245c-.071,0,.111-.959.217-2.125A19.728,19.728,0,0,1,201.583,391.68Z" transform="translate(-156.04 -258.012)" fill="#eb996e"/>
    <path id="Path_778" data-name="Path 778" d="M197.449,390.26a7.363,7.363,0,0,1-.273,2.761,3.79,3.79,0,0,1,0-1.393,3.841,3.841,0,0,1,.273-1.368Z" transform="translate(-154.036 -257.309)" fill="#eb996e"/>
  </g>
  <g id="Speech_Bubble" data-name="Speech Bubble" transform="translate(61.438 28.864)">
    <path id="Path_779" data-name="Path 779" d="M167.1,98.838l-4.643-8.181A21.94,21.94,0,1,0,157.2,96.5h0Z" transform="translate(-121.785 -57.193)" fill="#fff"/>
    <path id="Path_780" data-name="Path 780" d="M167.043,98.833l-9.918-2.266a.071.071,0,0,1-.05-.081v-.025h0l.091.091a21.829,21.829,0,0,1-10.5,4.431,20.078,20.078,0,0,1-3.467.177c-.6-.035-1.206-.05-1.817-.1l-1.852-.283a22.1,22.1,0,0,1-13.678-8.782,21.869,21.869,0,0,1-3.7-8.459,22.329,22.329,0,0,1,.262-9.741,21.612,21.612,0,0,1,4.689-9l.9-1.009c.293-.328.641-.6.959-.908a7.525,7.525,0,0,1,1.009-.863l1.05-.787a9.658,9.658,0,0,1,1.09-.717l1.11-.676,1.161-.565a10.55,10.55,0,0,1,1.176-.5,22.324,22.324,0,0,1,9.817-1.514,21.627,21.627,0,0,1,9,2.66,22.208,22.208,0,0,1,10.4,12.795,23.722,23.722,0,0,1,.954,7.106,21.87,21.87,0,0,1-1.07,6.153,22.209,22.209,0,0,1-2.2,4.709V90.6l4.588,8.217-4.7-8.151a.076.076,0,0,1,0-.066,22.051,22.051,0,0,0,2.16-4.694,21.813,21.813,0,0,0,1.035-6.107,23.64,23.64,0,0,0-.964-7.066,22.041,22.041,0,0,0-10.316-12.618A21.354,21.354,0,0,0,145.35,57.5a22.112,22.112,0,0,0-9.7,1.514,10.293,10.293,0,0,0-1.161.5l-1.146.56c-.368.217-.732.444-1.1.666a8.808,8.808,0,0,0-1.075.712l-1.035.772c-.358.252-.651.575-.984.858a8.877,8.877,0,0,0-.949.9l-.883.969a21.324,21.324,0,0,0-4.638,8.9,22.031,22.031,0,0,0-.262,9.625,21.587,21.587,0,0,0,3.644,8.368,21.91,21.91,0,0,0,13.526,8.722l1.832.283c.606.05,1.211.071,1.8.106a19.75,19.75,0,0,0,3.437-.162,21.945,21.945,0,0,0,5.961-1.681,22.379,22.379,0,0,0,4.492-2.67.071.071,0,0,1,.091,0,.076.076,0,0,1,0,.081h0l-.035-.106Z" transform="translate(-121.728 -57.188)" fill="#263238"/>
    <path id="Path_781" data-name="Path 781" d="M148.6,92.214a3.644,3.644,0,0,0-4.093.833c2.367,1.373,5.592,3.195,7.9,4.507l2.912-1.666C153.226,94.733,150.592,93.279,148.6,92.214Z" transform="translate(-133.012 -74.386)" fill="#e8505b"/>
    <g id="Group_2604" data-name="Group 2604" transform="translate(11.498 17.526)" opacity="0.3">
      <path id="Path_782" data-name="Path 782" d="M148.6,92.214a3.644,3.644,0,0,0-4.093.833c2.367,1.373,5.592,3.195,7.9,4.507l2.912-1.666C153.226,94.733,150.592,93.279,148.6,92.214Z" transform="translate(-144.51 -91.912)"/>
    </g>
    <path id="Path_783" data-name="Path 783" d="M157.368,97.7l-.106-.086c-.727-.419-1.514-1.221-2.226-1.206-.283,0-.585.247-1.307.656-1.2.676-3.225,1.862-4.431,2.524a4.474,4.474,0,0,1-3.467.626,4.85,4.85,0,0,1-1.63-1.009l13.168-7.631c-.071-.2-.141-.384-.2-.575a3.765,3.765,0,1,1,3.149,2.524,1.827,1.827,0,0,0-.878.177c-.5.242-.969.55-1.57.9,1.009.454,1.706,1.176,2.887,1.065a3.533,3.533,0,0,1,3.583,2.614,3.77,3.77,0,1,1-7.172-.086C157.222,98.065,157.292,97.894,157.368,97.7Zm3.361-6.057a1.8,1.8,0,0,0,1.822-1.837,1.868,1.868,0,1,0-1.8,1.857Zm0,9.63a1.832,1.832,0,0,0,1.842-1.767,1.8,1.8,0,0,0-1.817-1.893,1.837,1.837,0,0,0-1.852,1.756,1.862,1.862,0,0,0,1.807,1.9Z" transform="translate(-132.858 -71.465)" fill="#e8505b"/>
    <path id="Path_784" data-name="Path 784" d="M165.433,102.045a1.187,1.187,0,0,0-.394-.611.777.777,0,0,0-.717-.081.742.742,0,0,0,0,1.383.777.777,0,0,0,.717-.086c.368-.262.348-.621.394-.606s.04.076.025.222a.863.863,0,0,1-.308.535.954.954,0,0,1-.908.162.969.969,0,0,1,0-1.837.929.929,0,0,1,.908.162.863.863,0,0,1,.308.535C165.473,101.954,165.448,102.045,165.433,102.045Z" transform="translate(-142.457 -78.923)" fill="#263238"/>
    <path id="Path_785" data-name="Path 785" d="M166.681,101.7a1.447,1.447,0,0,1-.268.182l-.747.454-2.493,1.459-2.524,1.438-.767.424a2.8,2.8,0,0,1-.283.141,1.656,1.656,0,0,1,.268-.177l.747-.454L163.1,103.7l2.524-1.433.767-.424A1.87,1.87,0,0,1,166.681,101.7Z" transform="translate(-140.485 -79.234)" fill="#263238"/>
    <path id="Path_786" data-name="Path 786" d="M156.863,97.7a1.032,1.032,0,0,1-.121.086l-.363.227-1.343.813c-1.131.681-2.7,1.62-4.462,2.614l-4.5,2.554-1.368.762-.379.207a.5.5,0,0,1-.131.061l.121-.081.368-.222,1.353-.792,4.482-2.579c1.756-1.009,3.331-1.923,4.477-2.589l1.358-.782.374-.207Z" transform="translate(-132.858 -77.253)" fill="#263238"/>
  </g>
  <g id="Stars" transform="translate(166.118 39.317)">
    <path id="Path_787" data-name="Path 787" d="M331.835,152.16l.959,1.751,1.751.954-1.751.959-.959,1.751-.954-1.751-1.751-.959,1.751-.954Z" transform="translate(-329.13 -114.68)" fill="#e8505b"/>
    <path id="Path_788" data-name="Path 788" d="M347.17,103.986l.994-.066.808-.591.066.994.591.8-.994.066-.8.6-.066-1Z" transform="translate(-338.065 -90.495)" fill="#e8505b"/>
    <path id="Path_789" data-name="Path 789" d="M667.03,261.786l1-.066.8-.59.066.994.591.8-.994.066-.8.591-.066-.994Z" transform="translate(-496.486 -168.651)" fill="#e8505b"/>
    <path id="Path_790" data-name="Path 790" d="M441.72,163.056l1-.066.8-.591.066.994.591.8-.994.066-.8.6-.066-1Z" transform="translate(-384.894 -119.751)" fill="#e8505b"/>
    <path id="Path_791" data-name="Path 791" d="M453.74,78.561l.994-.066.8-.6.066,1,.6.8-1,.066-.8.591-.066-.994Z" transform="translate(-390.847 -77.9)" fill="#e8505b"/>
    <path id="Path_792" data-name="Path 792" d="M393.19,129.268l1.514-.873.808-1.555.868,1.519,1.555.8-1.514.873-.808,1.549-.873-1.514Z" transform="translate(-360.858 -102.139)" fill="#e8505b"/>
    <path id="Path_793" data-name="Path 793" d="M645.24,299.773l1.514-.868.8-1.555.873,1.514,1.549.808-1.514.873-.8,1.549-.873-1.514Z" transform="translate(-485.694 -186.59)" fill="#e8505b"/>
    <path id="Path_794" data-name="Path 794" d="M630.17,244.923l1.519-.873.8-1.549.873,1.514,1.549.808-1.514.868-.8,1.555-.873-1.514Z" transform="translate(-478.23 -159.424)" fill="#e8505b"/>
  </g>
</svg>
