<svg width="389" height="230" viewBox="0 0 389 230" fill="none" xmlns="http://www.w3.org/2000/svg">
<g clip-path="url(#clip0_34_12)">
<path opacity="0.2" d="M118.682 15.3085C114.677 15.8307 110.324 16.7098 107.677 20.2097C104.547 24.3475 104.967 30.6368 106.384 35.8752C107.802 41.1135 110.043 46.2196 110.02 51.7058C109.957 60.4276 104.002 67.8306 97.2231 71.7338C90.4447 75.6369 82.7938 76.8961 75.4766 79.1732C68.6522 81.3072 62.1258 84.2978 56.0535 88.0734C50.9011 91.2693 45.7189 95.4467 43.6567 101.753C40.2757 112.094 46.4956 123.069 52.6395 131.56C71.4777 157.593 95.4914 182.572 124.846 185.1C146.774 186.974 168.726 175.882 190.416 179.951C200.38 181.815 209.664 186.779 219.017 191.151C228.37 195.524 238.209 199.414 248.292 198.918C258.375 198.422 268.832 192.705 273.201 182.231C275.782 176.041 276.044 168.863 278.43 162.57C285.74 143.266 308.525 140.133 321.744 125.604C328.685 117.973 332.651 107.493 335.956 97.1091C341.293 80.2142 345.295 62.4072 344.403 44.4449C344.013 36.6254 342.552 28.5051 338.213 22.4703C335.057 18.0781 330.651 15.1631 326.348 12.344C316.552 5.92579 306.036 -0.700618 294.783 0.062823C288.298 0.50238 282.164 3.38759 275.977 5.64817C264.192 9.9446 251.898 12.073 239.666 14.1716C219.456 17.6418 198.956 21.112 178.472 19.3802C169.426 18.6101 160.883 15.5366 151.983 14.2774C141.159 12.7472 129.463 13.9039 118.682 15.3085Z" fill="#FFEEF4"/>
<path opacity="0.5" d="M281.92 68.7328C288.856 68.7328 294.479 63.1101 294.479 56.1741C294.479 49.238 288.856 43.6153 281.92 43.6153C274.984 43.6153 269.361 49.238 269.361 56.1741C269.361 63.1101 274.984 68.7328 281.92 68.7328Z" fill="#D4E1F7"/>
<path d="M242.37 100.51H127.447L134.014 80.3001H137.534L138.238 85.5418H229.236L229.705 80.3001H233.925L242.37 100.51Z" fill="#D4E1F7"/>
<path opacity="0.2" d="M242.37 100.51H127.447L134.014 80.3001H137.534L138.238 85.5418H229.236L229.705 80.3001H233.925L242.37 100.51Z" fill="black"/>
<path d="M250.344 105.001H117.129L113.844 96.7687H253.16L250.344 105.001Z" fill="#D4E1F7"/>
<path d="M246.124 110.243H120.411L117.129 105.001H250.344L246.124 110.243Z" fill="#D4E1F7"/>
<path d="M246.121 108.746H120.411V114.734H246.121V108.746Z" fill="#D4E1F7"/>
<path d="M346.036 200.065L20.499 197.821L29.8817 144.674H338.999L346.036 200.065Z" fill="#D4E1F7"/>
<g opacity="0.2">
<path opacity="0.2" d="M112.707 183.599H116.865C118.179 183.599 119.44 184.122 120.37 185.051C121.3 185.981 121.822 187.242 121.822 188.557V198.571H107.75V188.557C107.75 187.242 108.272 185.981 109.202 185.051C110.131 184.122 111.392 183.599 112.707 183.599Z" fill="black"/>
<path opacity="0.2" d="M143.195 183.6H147.353C148.667 183.6 149.928 184.122 150.858 185.052C151.788 185.981 152.31 187.242 152.31 188.557V198.571H138.238V188.557C138.238 187.242 138.76 185.981 139.69 185.052C140.619 184.122 141.88 183.6 143.195 183.6Z" fill="black"/>
<path opacity="0.2" d="M181.189 183.6H185.346C186.661 183.6 187.922 184.122 188.852 185.052C189.781 185.981 190.304 187.242 190.304 188.557V198.571H176.231V188.557C176.231 187.242 176.753 185.981 177.683 185.052C178.613 184.122 179.874 183.6 181.189 183.6Z" fill="black"/>
<path opacity="0.2" d="M220.59 183.6H224.744C226.059 183.6 227.32 184.122 228.25 185.052C229.18 185.981 229.702 187.242 229.702 188.557V198.571H215.633V188.557C215.633 187.242 216.155 185.981 217.085 185.052C218.014 184.122 219.275 183.6 220.59 183.6Z" fill="black"/>
<path opacity="0.2" d="M252.02 183.6H256.178C257.493 183.6 258.753 184.122 259.683 185.052C260.613 185.981 261.135 187.242 261.135 188.557V198.571H247.063V188.557C247.063 187.242 247.585 185.981 248.515 185.052C249.444 184.122 250.705 183.6 252.02 183.6Z" fill="black"/>
</g>
<path opacity="0.2" d="M190.773 146.921H175.762V176.864H190.773V146.921Z" fill="black"/>
<path d="M115.252 124.464H112.905V146.921H115.252V124.464Z" fill="#D4E1F7"/>
<path d="M128.855 124.464H126.508V146.921H128.855V124.464Z" fill="#D4E1F7"/>
<path d="M143.866 124.464H141.519V146.921H143.866V124.464Z" fill="#D4E1F7"/>
<path d="M158.408 124.464H156.061V146.921H158.408V124.464Z" fill="#D4E1F7"/>
<path d="M174.357 124.464H172.011V146.921H174.357V124.464Z" fill="#D4E1F7"/>
<path d="M195.932 124.464H193.585V146.921H195.932V124.464Z" fill="#D4E1F7"/>
<path d="M210.474 124.464H208.127V146.921H210.474V124.464Z" fill="#D4E1F7"/>
<path d="M226.893 124.464H224.546V146.921H226.893V124.464Z" fill="#D4E1F7"/>
<path d="M240.965 124.464H238.618V146.921H240.965V124.464Z" fill="#D4E1F7"/>
<path d="M255.976 124.464H253.63V146.921H255.976V124.464Z" fill="#D4E1F7"/>
<path d="M255.973 125.961H112.905L104.464 118.475H263.948L255.973 125.961Z" fill="#D4E1F7"/>
<path d="M118.533 125.961H112.905V128.955H118.533V125.961Z" fill="#D4E1F7"/>
<path d="M130.732 125.961H125.104V128.955H130.732V125.961Z" fill="#D4E1F7"/>
<path d="M145.27 125.961H139.642V128.955H145.27V125.961Z" fill="#D4E1F7"/>
<path d="M160.282 125.961H154.653V128.955H160.282V125.961Z" fill="#D4E1F7"/>
<path d="M176.231 125.961H170.603V128.955H176.231V125.961Z" fill="#D4E1F7"/>
<path d="M197.34 125.961H191.711V128.955H197.34V125.961Z" fill="#D4E1F7"/>
<path d="M212.351 125.961H206.723V128.955H212.351V125.961Z" fill="#D4E1F7"/>
<path d="M228.766 125.961H223.138V128.955H228.766V125.961Z" fill="#D4E1F7"/>
<path d="M255.973 125.961H250.344V128.955H255.973V125.961Z" fill="#D4E1F7"/>
<path d="M264.886 118.475H103.995L102.118 113.237H266.294L264.886 118.475Z" fill="#D4E1F7"/>
<path d="M183.267 116.978C185.339 116.978 187.018 114.297 187.018 110.99C187.018 107.682 185.339 105.001 183.267 105.001C181.196 105.001 179.516 107.682 179.516 110.99C179.516 114.297 181.196 116.978 183.267 116.978Z" fill="#D4E1F7"/>
<path opacity="0.2" d="M183.267 116.978C185.339 116.978 187.018 114.297 187.018 110.99C187.018 107.682 185.339 105.001 183.267 105.001C181.196 105.001 179.516 107.682 179.516 110.99C179.516 114.297 181.196 116.978 183.267 116.978Z" fill="black"/>
<path d="M183.267 114.731C184.563 114.731 185.614 113.056 185.614 110.99C185.614 108.924 184.563 107.249 183.267 107.249C181.971 107.249 180.921 108.924 180.921 110.99C180.921 113.056 181.971 114.731 183.267 114.731Z" fill="#D4E1F7"/>
<path d="M238.186 197.348L222.097 185.001C222.097 185.001 220.798 179.855 220.279 176.252C219.761 172.65 218.981 157.216 218.981 157.216C219.35 155.88 219.594 154.512 219.711 153.131C219.87 153.098 220.041 153.058 220.19 153.015C221.393 152.709 222.508 152.128 223.448 151.317C224.387 150.507 225.127 149.49 225.607 148.346C227.259 144.234 225.124 139.376 222.421 136.117C219.718 132.859 216.317 130.241 214.539 126.202C212.344 121.225 213.094 115.21 211.974 109.764C211.867 109 211.582 108.273 211.145 107.639C210.45 106.776 209.363 106.588 208.392 106.244C205.325 105.157 203.024 102.176 201.23 99.0656C198.325 94.0255 195.317 86.3614 189.332 85.9251C187.108 85.7632 184.784 86.5134 182.537 86.5068C179.05 86.5068 175.597 86.5498 172.14 87.029C170.904 87.1975 169.621 87.4289 168.59 88.2452C165.051 91.0445 166.653 98.4442 163.243 101.465C162.228 102.361 160.929 102.681 159.782 103.296C155.46 105.609 153.539 111.78 153.794 117.332C153.913 119.933 154.455 122.643 155.992 124.543C157.208 126.064 158.943 126.936 160.077 128.539C161.908 131.127 161.66 134.557 161.461 138.047C159.016 139.072 157.053 140.248 156.435 141.514C154.359 145.758 154.617 160.293 154.617 160.293C154.617 160.293 155.397 184.088 149.428 187.063L127.11 202.497C127.11 202.497 111.279 188.735 107.386 196.839C104.722 202.381 114.442 205.518 120.85 206.945C116.808 209.814 114.571 215.115 116.468 218.708C119.442 224.366 127.758 228.226 127.758 228.226C127.758 228.226 159.468 229.756 174.126 226.471H174.367C180.59 227.598 189.52 228.784 196.682 228.071C196.818 228.401 196.913 228.613 196.913 228.613C196.913 228.613 242.852 232.473 251.151 216.778C255.411 208.73 250.966 205.012 245.625 203.3C251.604 202.824 258.412 201.152 259.195 196.069C260.633 186.802 238.186 197.348 238.186 197.348ZM233.559 202.269C225.154 205.333 218.329 205.504 214.697 205.273C212.909 201.383 205.47 184.521 205.275 173.238C205.321 170.72 205.771 168.519 206.775 166.866C208.94 163.307 209.578 160.518 209.505 158.396C209.505 158.237 209.505 158.085 209.505 157.933C209.515 157.285 209.452 156.637 209.317 156.003C209.674 156.875 209.78 157.83 209.624 158.759C208.844 162.748 210.923 188.6 210.923 188.6C210.923 188.6 212.609 194.387 216.112 196.059L233.559 202.269ZM151.249 200.441L159.293 195.296C159.293 195.296 163.058 193.501 163.438 189.115L166.082 168.218C166.263 169.114 166.502 169.997 166.796 170.862C167.265 172.234 167.457 174.243 167.493 176.636C167.404 188.286 163.438 207.639 163.438 207.639H163.487L163.458 207.778L163.177 207.795C156.649 207.597 141.44 207.028 132.923 205.848L151.249 200.441ZM137.154 212.623V212.67H135.171L137.154 212.623Z" fill="url(#paint0_linear_34_12)"/>
<path d="M200.625 101.168C202.36 104.201 204.591 107.116 207.549 108.167C208.487 108.498 209.532 108.686 210.193 109.526C210.615 110.146 210.889 110.855 210.992 111.598C212.073 116.909 211.349 122.775 213.471 127.627C215.19 131.556 218.478 134.118 221.092 137.287C223.707 140.457 225.759 145.196 224.173 149.202C223.714 150.312 223.005 151.3 222.101 152.09C221.197 152.881 220.122 153.451 218.961 153.756C216.773 154.347 214.489 154.086 212.268 153.706C209.34 153.187 206.359 152.384 203.92 150.401C199.699 146.974 197.915 140.817 195.707 135.344C194.669 132.779 193.291 130.092 191.011 129.174C188.397 128.123 185.462 129.878 183.766 132.452C182.071 135.027 181.317 138.262 180.498 141.375C179.572 144.889 178.399 148.541 175.967 150.837C174.912 151.867 173.581 152.568 172.136 152.858C170.691 153.147 169.193 153.011 167.823 152.467C165.113 151.337 162.968 148.481 162.347 145.166C161.385 140.057 163.689 133.929 160.863 129.891C159.766 128.328 158.09 127.475 156.897 125.994C155.426 124.14 154.888 121.5 154.772 118.965C154.524 113.551 156.382 107.52 160.559 105.279C161.676 104.681 162.922 104.367 163.904 103.494C167.209 100.559 165.652 93.3447 169.073 90.6049C170.064 89.8084 171.307 89.587 172.503 89.4185C175.854 88.9525 179.182 88.8996 182.553 88.9095C184.728 88.9095 186.972 88.1857 189.124 88.3444C194.911 88.7806 197.809 96.2531 200.625 101.168Z" fill="#965D7B"/>
<path d="M138.581 210.578L139.847 225.572L228.38 225.047L226.694 208.677L196.761 205.194L144.272 208.36L138.581 210.578Z" fill="#575988"/>
<path opacity="0.05" d="M138.581 210.578L139.847 225.572L228.38 225.047L226.694 208.677L196.761 205.194L144.272 208.36L138.581 210.578Z" fill="black"/>
<path d="M196.837 221.061L167.364 223.82C167.364 223.82 187.557 228.963 199.346 226.464L196.837 221.061Z" fill="#F7C4A7"/>
<path opacity="0.1" d="M196.837 221.061L167.364 223.82C167.364 223.82 187.557 228.963 199.346 226.464L196.837 221.061Z" fill="black"/>
<path d="M174.387 115.458C174.387 115.458 180.157 130.634 171.627 137.406C163.097 144.178 170.124 163.119 170.124 163.119L202.985 161.615C202.985 161.615 206.247 140.295 204.488 135.777C204.488 135.777 196.712 138.034 194.957 133.268C193.202 128.503 191.946 115.458 191.946 115.458H174.387Z" fill="#F7C4A7"/>
<path d="M166.862 207.263C166.862 207.263 139.143 206.635 130.993 204.619C122.843 202.603 115.817 212.27 118.702 217.789C121.587 223.308 129.608 227.069 129.608 227.069C129.608 227.069 170.87 229.075 179.777 223.434C179.777 223.434 183.165 213.777 179.777 211.896H136.764L168.491 211.268L166.862 207.263Z" fill="#003366"/>
<path d="M210.887 204.381C210.887 204.381 220.167 206.387 232.96 201.37C232.96 201.37 256.915 200.617 248.89 215.912C240.866 231.207 196.464 227.449 196.464 227.449C196.464 227.449 193.82 221.805 196.464 220.301C199.108 218.797 222.051 209.14 229.183 209.639L209.353 213.526L210.887 204.381Z" fill="#003366"/>
<path opacity="0.1" d="M193.083 122.759C192.604 119.186 192.323 116.274 192.323 116.274H174.764C175.575 118.574 176.137 120.954 176.443 123.373C178.905 125.097 181.862 125.97 184.866 125.859C187.87 125.748 190.755 124.66 193.083 122.759Z" fill="black"/>
<path d="M183.981 125.049C191.6 125.049 197.776 118.873 197.776 111.254C197.776 103.636 191.6 97.4594 183.981 97.4594C176.363 97.4594 170.186 103.636 170.186 111.254C170.186 118.873 176.363 125.049 183.981 125.049Z" fill="#F7C4A7"/>
<path d="M175.894 135.275C175.894 135.275 159.34 138.411 157.334 142.545C155.327 146.68 155.579 160.858 155.579 160.858C155.579 160.858 156.332 184.062 150.562 186.944L128.99 201.995C128.99 201.995 113.688 188.573 109.927 196.475C106.166 204.378 127.989 207.263 127.989 207.263L152.32 199.992L160.096 194.975C160.096 194.975 163.732 193.22 164.109 188.953L167.371 163.115L180.415 159.354H201.478L204.3 151.297C204.3 151.297 209.505 155.468 208.752 159.354C207.998 163.241 210.004 188.438 210.004 188.438C210.004 188.438 211.634 194.083 215.021 195.709L234.59 202.755C234.59 202.755 255.285 204.761 256.663 195.732C258.042 186.703 236.345 196.984 236.345 196.984L220.792 184.944C220.792 184.944 219.539 179.928 219.037 176.414C218.534 172.901 217.784 157.854 217.784 157.854C217.784 157.854 222.55 142.05 208.755 139.293L190.945 133.774L175.894 135.275Z" fill="#F7C4A7"/>
<path opacity="0.1" d="M164.793 138.47L167.364 155.464C167.364 155.464 164.72 163.367 167.364 171.143C170.008 178.92 164.099 207.891 164.099 207.891C164.099 207.891 195.076 217.806 214.003 206.387C214.003 206.387 200.083 177.039 205.976 167.256C211.868 157.474 206.071 153.647 206.071 153.647L206.997 135.665L202.733 134.412L200.225 152.189C200.225 152.189 182.917 164.229 170.124 153.693L167.364 134.379L164.793 138.47Z" fill="black"/>
<path opacity="0.07" d="M182.686 158.67C181.346 156.529 179.257 154.964 176.825 154.28C174.394 153.596 171.795 153.843 169.535 154.972C173.736 158.115 178.366 158.954 182.686 158.67Z" fill="white"/>
<path opacity="0.07" d="M189.795 156.786C191.134 154.645 193.224 153.08 195.655 152.396C198.087 151.712 200.686 151.959 202.945 153.088C198.748 156.231 194.114 157.074 189.795 156.786Z" fill="white"/>
<path opacity="0.1" d="M164.793 138.47L167.364 154.585C167.364 154.585 164.72 162.487 167.364 170.264C170.008 178.04 164.099 207.012 164.099 207.012C164.099 207.012 195.076 216.926 214.003 205.508C214.003 205.508 200.083 176.16 205.976 166.377C211.868 156.595 206.071 152.768 206.071 152.768L206.977 134.772L202.714 133.52L200.205 151.33C200.205 151.33 182.897 163.37 170.104 152.834L167.344 133.52L164.793 138.47Z" fill="black"/>
<path d="M164.667 138.345L167.364 154.836C167.364 154.836 164.72 162.739 167.364 170.515C170.008 178.292 164.099 207.263 164.099 207.263C164.099 207.263 195.076 217.178 214.003 205.759C214.003 205.759 200.083 176.411 205.976 166.628C211.868 156.846 206.071 153.019 206.071 153.019L206.977 135.023L202.714 133.771L200.205 151.581C200.205 151.581 182.897 163.621 170.104 153.085L167.344 133.771L164.667 138.345Z" fill="#FF0000"/>
<path d="M177.398 213.41L183.928 212.531C183.928 212.531 191.454 202.874 196.847 210.274C196.847 210.274 199.105 215.039 201.864 215.918C203.751 216.489 205.681 216.907 207.635 217.171L196.474 220.307C196.474 220.307 191.583 223.193 186.44 222.439C183.413 221.978 180.32 222.236 177.411 223.193L177.398 213.41Z" fill="#F7C4A7"/>
<path opacity="0.1" d="M170.186 172.458C170.186 172.458 181.975 174.213 183.981 171.08L170.186 172.458Z" fill="black"/>
<path opacity="0.1" d="M192.521 170.452C192.521 170.452 194.779 172.71 203.808 171.08L192.521 170.452Z" fill="black"/>
<path opacity="0.1" d="M169.558 135.46C169.558 135.46 178.211 136.712 179.843 135.962L169.558 135.46Z" fill="black"/>
<path opacity="0.1" d="M188.625 135.46C188.625 135.46 197.277 136.712 198.91 135.962L188.625 135.46Z" fill="black"/>
<path opacity="0.1" d="M178.34 212.468C178.34 212.468 180.723 223.705 178.34 224.101C175.957 224.498 172.569 222.251 172.569 221.999C172.569 221.748 174.073 214.6 174.073 214.6L178.34 212.468Z" fill="black"/>
<path d="M178.089 212.468C178.089 212.468 180.471 223.705 178.089 224.101C175.706 224.498 172.318 222.251 172.318 221.999C172.318 221.748 173.822 214.6 173.822 214.6L178.089 212.468Z" fill="#575988"/>
<path opacity="0.1" d="M166.445 133.817C165.394 136.259 165.021 139.141 166.138 141.554C166.991 143.395 168.656 144.885 168.977 146.888C169.38 149.4 167.519 151.955 168.213 154.4C168.478 155.339 169.096 156.132 169.724 156.876C171.634 159.133 174.172 161.317 177.12 161.142C177.586 156.588 173.65 152.169 174.939 147.777C175.402 146.204 176.486 144.895 177.14 143.395C178.227 140.906 178.072 138.064 177.679 135.377C177.107 131.48 175.659 126.698 171.796 124.874C170.018 124.034 167.5 123.975 166.865 126.252C166.534 127.468 167.328 128.612 167.437 129.802C167.576 131.312 167.03 132.459 166.445 133.817Z" fill="black"/>
<path d="M166.445 133.44C165.394 135.883 165.021 138.765 166.138 141.177C166.991 143.018 168.656 144.509 168.977 146.511C169.38 149.023 167.519 151.578 168.213 154.023C168.478 154.962 169.096 155.755 169.724 156.499C171.634 158.756 174.172 160.941 177.12 160.766C177.586 156.211 173.65 151.793 174.939 147.4C175.402 145.827 176.486 144.518 177.14 143.018C178.227 140.529 178.072 137.687 177.679 135C177.107 131.104 175.659 126.321 171.796 124.497C170.018 123.658 167.5 123.598 166.865 125.875C166.534 127.092 167.328 128.235 167.437 129.425C167.576 130.938 167.03 132.085 166.445 133.44Z" fill="#965D7B"/>
<path opacity="0.1" d="M167.427 104.482C167.427 104.482 185.739 101.974 186.238 105.735C186.738 109.496 202.919 115.65 202.919 115.65L198.906 105.735L191.507 93.4439C191.507 93.4439 177.956 92.4524 177.335 93.4439C176.714 94.4354 169.558 97.7073 169.558 97.7073L167.427 104.482Z" fill="black"/>
<path d="M167.427 104.231C167.427 104.231 185.739 101.723 186.238 105.484C186.738 109.245 202.919 115.399 202.919 115.399L198.906 105.484L191.507 93.196C191.507 93.196 177.956 92.2046 177.335 93.196C176.714 94.1875 169.558 97.4594 169.558 97.4594L167.427 104.231Z" fill="#965D7B"/>
<path opacity="0.1" d="M199.293 131.038C200.184 132.104 200.813 133.364 201.131 134.716C201.435 136.008 201.445 137.36 201.735 138.655C202.353 141.415 204.178 143.735 206.085 145.824C206.702 146.581 207.455 147.215 208.306 147.695C209.178 148.124 210.289 148.213 211.098 147.695C210.332 147.067 209.915 146.105 209.641 145.15C209.255 143.818 209.083 142.434 209.132 141.048C209.214 138.735 209.892 136.292 208.93 134.184C208.375 132.968 207.341 132.042 206.286 131.209C205.554 130.614 204.763 130.094 203.927 129.656C202.37 128.879 200.582 128.539 198.863 128.371C196.623 128.139 198.582 130.185 199.293 131.038Z" fill="black"/>
<path d="M199.293 130.658C200.184 131.726 200.814 132.988 201.131 134.343C201.435 135.635 201.445 136.986 201.735 138.282C202.353 141.042 204.178 143.362 206.085 145.45C206.702 146.207 207.455 146.842 208.306 147.321C209.178 147.751 210.289 147.84 211.098 147.321C210.332 146.693 209.915 145.731 209.641 144.776C209.255 143.445 209.083 142.06 209.132 140.675C209.214 138.361 209.892 135.919 208.93 133.81C208.375 132.594 207.341 131.669 206.286 130.836C205.554 130.24 204.763 129.72 203.927 129.283C202.37 128.506 200.582 128.166 198.863 127.997C196.623 127.762 198.582 129.808 199.293 130.658Z" fill="#965D7B"/>
<path opacity="0.1" d="M191.093 54.667H188.82C189.035 54.6768 189.249 54.6429 189.451 54.5673C189.653 54.4918 189.837 54.3762 189.993 54.2274C190.148 54.0787 190.272 53.8999 190.357 53.702C190.441 53.504 190.485 53.291 190.485 53.0757C190.485 52.8604 190.441 52.6473 190.357 52.4493C190.272 52.2514 190.148 52.0726 189.993 51.9239C189.837 51.7752 189.653 51.6595 189.451 51.584C189.249 51.5084 189.035 51.4745 188.82 51.4843H170.401C169.992 51.503 169.605 51.6788 169.322 51.9752C169.039 52.2716 168.881 52.6657 168.881 53.0757C168.881 53.4856 169.039 53.8797 169.322 54.1761C169.605 54.4725 169.992 54.6483 170.401 54.667H172.675C172.46 54.6572 172.245 54.6911 172.043 54.7666C171.842 54.8422 171.658 54.9578 171.502 55.1065C171.346 55.2553 171.222 55.434 171.138 55.632C171.053 55.83 171.009 56.043 171.009 56.2583C171.009 56.4736 171.053 56.6867 171.138 56.8846C171.222 57.0826 171.346 57.2614 171.502 57.4101C171.658 57.5588 171.842 57.6745 172.043 57.75C172.245 57.8256 172.46 57.8594 172.675 57.8496H169.492C169.277 57.8398 169.062 57.8737 168.861 57.9493C168.659 58.0248 168.475 58.1405 168.319 58.2892C168.164 58.4379 168.04 58.6167 167.955 58.8146C167.87 59.0126 167.827 59.2257 167.827 59.441C167.827 59.6563 167.87 59.8693 167.955 60.0673C168.04 60.2653 168.164 60.444 168.319 60.5927C168.475 60.7415 168.659 60.8571 168.861 60.9327C169.062 61.0082 169.277 61.0421 169.492 61.0323H187.911C188.126 61.0421 188.341 61.0082 188.542 60.9327C188.744 60.8571 188.928 60.7415 189.084 60.5927C189.239 60.444 189.363 60.2653 189.448 60.0673C189.533 59.8693 189.576 59.6563 189.576 59.441C189.576 59.2257 189.533 59.0126 189.448 58.8146C189.363 58.6167 189.239 58.4379 189.084 58.2892C188.928 58.1405 188.744 58.0248 188.542 57.9493C188.341 57.8737 188.126 57.8398 187.911 57.8496H191.093C191.308 57.8594 191.523 57.8256 191.725 57.75C191.927 57.6745 192.111 57.5588 192.266 57.4101C192.422 57.2614 192.546 57.0826 192.631 56.8846C192.715 56.6867 192.759 56.4736 192.759 56.2583C192.759 56.043 192.715 55.83 192.631 55.632C192.546 55.434 192.422 55.2553 192.266 55.1065C192.111 54.9578 191.927 54.8422 191.725 54.7666C191.523 54.6911 191.308 54.6572 191.093 54.667Z" fill="white"/>
<path opacity="0.1" d="M280.327 54.667H278.053C278.268 54.6768 278.483 54.6429 278.685 54.5673C278.886 54.4918 279.07 54.3762 279.226 54.2274C279.382 54.0787 279.506 53.8999 279.59 53.702C279.675 53.504 279.719 53.291 279.719 53.0757C279.719 52.8604 279.675 52.6473 279.59 52.4493C279.506 52.2514 279.382 52.0726 279.226 51.9239C279.07 51.7752 278.886 51.6595 278.685 51.584C278.483 51.5084 278.268 51.4745 278.053 51.4843H259.635C259.225 51.503 258.839 51.6788 258.555 51.9752C258.272 52.2716 258.114 52.6657 258.114 53.0757C258.114 53.4856 258.272 53.8797 258.555 54.1761C258.839 54.4725 259.225 54.6483 259.635 54.667H261.908C261.693 54.6572 261.478 54.6911 261.277 54.7666C261.075 54.8422 260.891 54.9578 260.735 55.1065C260.58 55.2553 260.456 55.434 260.371 55.632C260.286 55.83 260.243 56.043 260.243 56.2583C260.243 56.4736 260.286 56.6867 260.371 56.8846C260.456 57.0826 260.58 57.2614 260.735 57.4101C260.891 57.5588 261.075 57.6745 261.277 57.75C261.478 57.8256 261.693 57.8594 261.908 57.8496H258.726C258.511 57.8398 258.296 57.8737 258.094 57.9493C257.893 58.0248 257.708 58.1405 257.553 58.2892C257.397 58.4379 257.273 58.6167 257.188 58.8146C257.104 59.0126 257.06 59.2257 257.06 59.441C257.06 59.6563 257.104 59.8693 257.188 60.0673C257.273 60.2653 257.397 60.444 257.553 60.5927C257.708 60.7415 257.893 60.8571 258.094 60.9327C258.296 61.0082 258.511 61.0421 258.726 61.0323H277.144C277.359 61.0421 277.574 61.0082 277.776 60.9327C277.977 60.8571 278.161 60.7415 278.317 60.5927C278.473 60.444 278.597 60.2653 278.681 60.0673C278.766 59.8693 278.81 59.6563 278.81 59.441C278.81 59.2257 278.766 59.0126 278.681 58.8146C278.597 58.6167 278.473 58.4379 278.317 58.2892C278.161 58.1405 277.977 58.0248 277.776 57.9493C277.574 57.8737 277.359 57.8398 277.144 57.8496H280.327C280.542 57.8594 280.757 57.8256 280.958 57.75C281.16 57.6745 281.344 57.5588 281.5 57.4101C281.655 57.2614 281.779 57.0826 281.864 56.8846C281.949 56.6867 281.992 56.4736 281.992 56.2583C281.992 56.043 281.949 55.83 281.864 55.632C281.779 55.434 281.655 55.2553 281.5 55.1065C281.344 54.9578 281.16 54.8422 280.958 54.7666C280.757 54.6911 280.542 54.6572 280.327 54.667Z" fill="white"/>
<path opacity="0.1" d="M90.2927 95.3178H88.0189C88.234 95.3276 88.4488 95.2937 88.6505 95.2181C88.8521 95.1426 89.0363 95.0269 89.1919 94.8782C89.3476 94.7295 89.4715 94.5507 89.5562 94.3528C89.6408 94.1548 89.6844 93.9417 89.6844 93.7264C89.6844 93.5111 89.6408 93.2981 89.5562 93.1001C89.4715 92.9021 89.3476 92.7234 89.1919 92.5747C89.0363 92.4259 88.8521 92.3103 88.6505 92.2347C88.4488 92.1592 88.234 92.1253 88.0189 92.1351H69.6005C69.191 92.1538 68.8045 92.3296 68.5213 92.626C68.2381 92.9223 68.0801 93.3165 68.0801 93.7264C68.0801 94.1364 68.2381 94.5305 68.5213 94.8269C68.8045 95.1233 69.191 95.2991 69.6005 95.3178H71.8743C71.4648 95.3364 71.0783 95.5122 70.7951 95.8086C70.5119 96.105 70.3539 96.4992 70.3539 96.9091C70.3539 97.319 70.5119 97.7132 70.7951 98.0095C71.0783 98.3059 71.4648 98.4817 71.8743 98.5004H68.6916C68.4766 98.4906 68.2617 98.5245 68.0601 98.6001C67.8585 98.6756 67.6743 98.7912 67.5186 98.94C67.363 99.0887 67.2391 99.2675 67.1544 99.4654C67.0698 99.6634 67.0261 99.8764 67.0261 100.092C67.0261 100.307 67.0698 100.52 67.1544 100.718C67.2391 100.916 67.363 101.095 67.5186 101.244C67.6743 101.392 67.8585 101.508 68.0601 101.583C68.2617 101.659 68.4766 101.693 68.6916 101.683H87.1101C87.3251 101.693 87.54 101.659 87.7416 101.583C87.9432 101.508 88.1274 101.392 88.2831 101.244C88.4387 101.095 88.5626 100.916 88.6473 100.718C88.732 100.52 88.7756 100.307 88.7756 100.092C88.7756 99.8764 88.732 99.6634 88.6473 99.4654C88.5626 99.2675 88.4387 99.0887 88.2831 98.94C88.1274 98.7912 87.9432 98.6756 87.7416 98.6001C87.54 98.5245 87.3251 98.4906 87.1101 98.5004H90.2927C90.7022 98.4817 91.0888 98.3059 91.372 98.0095C91.6551 97.7132 91.8132 97.319 91.8132 96.9091C91.8132 96.4992 91.6551 96.105 91.372 95.8086C91.0888 95.5122 90.7022 95.3364 90.2927 95.3178Z" fill="white"/>
<path d="M281.17 223.123C281.17 223.123 273.016 195.441 282.7 175.066C286.765 166.516 288.113 156.915 286.236 147.635C285.338 143.229 284.039 138.914 282.353 134.746" stroke="#535461" stroke-width="0.660988" stroke-miterlimit="10"/>
<path d="M288.364 121.886C288.364 125.28 282.221 135.106 282.221 135.106C282.221 135.106 276.077 125.267 276.077 121.886C276.058 121.068 276.203 120.253 276.503 119.492C276.803 118.73 277.252 118.036 277.824 117.45C278.397 116.864 279.08 116.399 279.835 116.081C280.59 115.763 281.4 115.6 282.219 115.6C283.038 115.6 283.848 115.763 284.603 116.081C285.358 116.399 286.041 116.864 286.613 117.45C287.186 118.036 287.635 118.73 287.935 119.492C288.235 120.253 288.38 121.068 288.361 121.886H288.364Z" fill="#D4E1F7"/>
<path d="M298.53 140.678C296.686 143.527 286.183 148.445 286.183 148.445C286.183 148.445 286.375 136.848 288.219 133.999C289.124 132.676 290.509 131.759 292.081 131.443C293.652 131.127 295.285 131.438 296.63 132.309C297.975 133.18 298.927 134.542 299.282 136.105C299.637 137.668 299.367 139.308 298.53 140.675V140.678Z" fill="#D4E1F7"/>
<path d="M298.084 172.792C295.054 174.319 283.506 173.265 283.506 173.265C283.506 173.265 289.525 163.35 292.555 161.823C293.277 161.441 294.068 161.206 294.882 161.133C295.696 161.06 296.516 161.15 297.295 161.398C298.074 161.646 298.795 162.047 299.417 162.577C300.039 163.107 300.548 163.756 300.916 164.486C301.284 165.215 301.503 166.011 301.56 166.826C301.616 167.641 301.51 168.46 301.247 169.233C300.983 170.007 300.568 170.72 300.026 171.331C299.483 171.942 298.824 172.439 298.088 172.792H298.084Z" fill="#D4E1F7"/>
<path d="M292.278 197.014C289.551 199.03 277.987 199.942 277.987 199.942C277.987 199.942 282.244 189.155 284.97 187.136C285.618 186.648 286.357 186.294 287.142 186.093C287.928 185.892 288.746 185.849 289.548 185.966C290.351 186.083 291.122 186.357 291.818 186.774C292.514 187.19 293.12 187.74 293.603 188.392C294.085 189.044 294.433 189.785 294.628 190.572C294.822 191.359 294.859 192.177 294.736 192.979C294.613 193.781 294.332 194.55 293.91 195.242C293.488 195.935 292.933 196.537 292.278 197.014Z" fill="#D4E1F7"/>
<path d="M273.284 149.102C275.716 151.465 287.056 153.914 287.056 153.914C287.056 153.914 284.28 142.654 281.847 140.288C280.67 139.198 279.114 138.612 277.51 138.654C275.907 138.696 274.383 139.364 273.266 140.515C272.148 141.665 271.524 143.207 271.528 144.811C271.533 146.415 272.164 147.954 273.287 149.099L273.284 149.102Z" fill="#D4E1F7"/>
<path d="M266.853 177.515C269.883 179.042 281.431 177.988 281.431 177.988C281.431 177.988 275.412 168.073 272.382 166.546C271.66 166.163 270.868 165.929 270.055 165.856C269.241 165.783 268.421 165.873 267.642 166.121C266.863 166.369 266.142 166.77 265.52 167.3C264.898 167.83 264.389 168.479 264.021 169.208C263.653 169.938 263.434 170.734 263.377 171.549C263.32 172.364 263.427 173.182 263.69 173.956C263.954 174.729 264.369 175.443 264.911 176.054C265.454 176.665 266.112 177.162 266.849 177.515H266.853Z" fill="#D4E1F7"/>
<path d="M264.39 205.99C267.117 208.006 278.681 208.919 278.681 208.919C278.681 208.919 274.424 198.128 271.694 196.112C271.046 195.624 270.308 195.27 269.522 195.069C268.737 194.869 267.919 194.825 267.116 194.942C266.314 195.059 265.543 195.333 264.847 195.75C264.151 196.166 263.544 196.716 263.062 197.368C262.58 198.02 262.231 198.761 262.037 199.548C261.842 200.336 261.806 201.154 261.929 201.955C262.052 202.757 262.333 203.526 262.755 204.219C263.176 204.911 263.731 205.513 264.387 205.99H264.39Z" fill="#D4E1F7"/>
<path d="M288.364 121.886C288.364 125.28 282.221 135.106 282.221 135.106C282.221 135.106 276.077 125.267 276.077 121.886C276.058 121.068 276.203 120.253 276.503 119.492C276.803 118.73 277.252 118.036 277.824 117.45C278.397 116.864 279.08 116.399 279.835 116.081C280.59 115.763 281.4 115.6 282.219 115.6C283.038 115.6 283.848 115.763 284.603 116.081C285.358 116.399 286.041 116.864 286.613 117.45C287.186 118.036 287.635 118.73 287.935 119.492C288.235 120.253 288.38 121.068 288.361 121.886H288.364Z" fill="#FC6681"/>
<path d="M298.53 140.678C296.686 143.527 286.183 148.445 286.183 148.445C286.183 148.445 286.375 136.848 288.219 133.999C289.124 132.676 290.509 131.759 292.081 131.443C293.652 131.127 295.285 131.438 296.63 132.309C297.975 133.18 298.927 134.542 299.282 136.105C299.637 137.668 299.367 139.308 298.53 140.675V140.678Z" fill="#FC6681"/>
<path d="M298.084 172.792C295.054 174.319 283.506 173.265 283.506 173.265C283.506 173.265 289.525 163.35 292.555 161.823C293.277 161.441 294.068 161.206 294.882 161.133C295.696 161.06 296.516 161.15 297.295 161.398C298.074 161.646 298.795 162.047 299.417 162.577C300.039 163.107 300.548 163.756 300.916 164.486C301.284 165.215 301.503 166.011 301.56 166.826C301.616 167.641 301.51 168.46 301.247 169.233C300.983 170.007 300.568 170.72 300.026 171.331C299.483 171.942 298.824 172.439 298.088 172.792H298.084Z" fill="#FC6681"/>
<path d="M292.278 197.014C289.551 199.03 277.987 199.942 277.987 199.942C277.987 199.942 282.244 189.155 284.97 187.136C285.618 186.648 286.357 186.294 287.142 186.093C287.928 185.892 288.746 185.849 289.548 185.966C290.351 186.083 291.122 186.357 291.818 186.774C292.514 187.19 293.12 187.74 293.603 188.392C294.085 189.044 294.433 189.785 294.628 190.572C294.822 191.359 294.859 192.177 294.736 192.979C294.613 193.781 294.332 194.55 293.91 195.242C293.488 195.935 292.933 196.537 292.278 197.014Z" fill="#FC6681"/>
<path d="M273.284 149.102C275.716 151.465 287.056 153.914 287.056 153.914C287.056 153.914 284.28 142.654 281.847 140.288C280.67 139.198 279.114 138.612 277.51 138.654C275.907 138.696 274.383 139.364 273.266 140.515C272.148 141.665 271.524 143.207 271.528 144.811C271.533 146.415 272.164 147.954 273.287 149.099L273.284 149.102Z" fill="#FC6681"/>
<path d="M266.853 177.515C269.883 179.042 281.431 177.988 281.431 177.988C281.431 177.988 275.412 168.073 272.382 166.546C271.66 166.163 270.868 165.929 270.055 165.856C269.241 165.783 268.421 165.873 267.642 166.121C266.863 166.369 266.142 166.77 265.52 167.3C264.898 167.83 264.389 168.479 264.021 169.208C263.653 169.938 263.434 170.734 263.377 171.549C263.32 172.364 263.427 173.182 263.69 173.956C263.954 174.729 264.369 175.443 264.911 176.054C265.454 176.665 266.112 177.162 266.849 177.515H266.853Z" fill="#FC6681"/>
<path d="M264.39 205.99C267.117 208.006 278.681 208.919 278.681 208.919C278.681 208.919 274.424 198.128 271.694 196.112C271.046 195.624 270.308 195.27 269.522 195.069C268.737 194.869 267.919 194.825 267.116 194.942C266.314 195.059 265.543 195.333 264.847 195.75C264.151 196.166 263.544 196.716 263.062 197.368C262.58 198.02 262.231 198.761 262.037 199.548C261.842 200.336 261.806 201.154 261.929 201.955C262.052 202.757 262.333 203.526 262.755 204.219C263.176 204.911 263.731 205.513 264.387 205.99H264.39Z" fill="#FC6681"/>
<path d="M88.822 222.462C88.822 222.462 80.6687 194.78 90.3522 174.405C94.4172 165.855 95.7657 156.254 93.8885 146.974C92.9908 142.568 91.6909 138.253 90.0051 134.085" stroke="#535461" stroke-width="0.660988" stroke-miterlimit="10"/>
<path d="M96.0168 121.225C96.0168 124.619 89.873 134.445 89.873 134.445C89.873 134.445 83.7291 124.606 83.7291 121.225C83.7101 120.407 83.8549 119.592 84.1551 118.831C84.4552 118.069 84.9046 117.375 85.4768 116.789C86.0491 116.203 86.7326 115.738 87.4873 115.42C88.2419 115.102 89.0525 114.939 89.8713 114.939C90.6901 114.939 91.5007 115.102 92.2553 115.42C93.01 115.738 93.6935 116.203 94.2658 116.789C94.838 117.375 95.2874 118.069 95.5876 118.831C95.8877 119.592 96.0325 120.407 96.0135 121.225H96.0168Z" fill="#D4E1F7"/>
<path d="M106.183 140.017C104.339 142.866 93.8357 147.784 93.8357 147.784C93.8357 147.784 94.0274 136.187 95.8715 133.338C96.7761 132.015 98.1619 131.098 99.7332 130.782C101.305 130.466 102.937 130.777 104.282 131.648C105.628 132.519 106.58 133.881 106.935 135.444C107.29 137.007 107.02 138.647 106.183 140.014V140.017Z" fill="#D4E1F7"/>
<path d="M105.737 172.131C102.706 173.658 91.1587 172.604 91.1587 172.604C91.1587 172.604 97.177 162.689 100.208 161.162C101.658 160.467 103.323 160.367 104.845 160.886C106.368 161.404 107.626 162.499 108.35 163.935C109.074 165.371 109.207 167.034 108.719 168.566C108.231 170.098 107.161 171.378 105.74 172.131H105.737Z" fill="#D4E1F7"/>
<path d="M99.93 196.353C97.2034 198.369 85.6394 199.281 85.6394 199.281C85.6394 199.281 89.8962 188.494 92.6227 186.475C93.2708 185.987 94.009 185.633 94.7947 185.432C95.5804 185.231 96.3981 185.188 97.2006 185.305C98.0031 185.422 98.7746 185.696 99.4705 186.113C100.166 186.529 100.773 187.079 101.255 187.731C101.737 188.383 102.086 189.124 102.28 189.911C102.475 190.698 102.512 191.516 102.388 192.318C102.265 193.12 101.985 193.889 101.563 194.581C101.141 195.274 100.586 195.876 99.93 196.353Z" fill="#D4E1F7"/>
<path d="M80.9365 148.441C83.3689 150.804 94.7081 153.253 94.7081 153.253C94.7081 153.253 91.932 141.993 89.4996 139.627C88.3227 138.537 86.7662 137.951 85.1627 137.993C83.5592 138.035 82.0358 138.703 80.918 139.854C79.8003 141.004 79.1769 142.546 79.1809 144.15C79.185 145.754 79.8162 147.293 80.9398 148.438L80.9365 148.441Z" fill="#D4E1F7"/>
<path d="M74.5051 176.854C77.5357 178.381 89.0832 177.326 89.0832 177.326C89.0832 177.326 83.0649 167.412 80.0342 165.885C78.5841 165.189 76.9191 165.09 75.3967 165.609C73.8743 166.127 72.6159 167.222 71.8917 168.658C71.1674 170.094 71.0351 171.756 71.5231 173.289C72.0111 174.821 73.0805 176.101 74.5018 176.854H74.5051Z" fill="#D4E1F7"/>
<path d="M72.0429 205.329C74.7695 207.345 86.3335 208.258 86.3335 208.258C86.3335 208.258 82.0767 197.467 79.3468 195.451C78.6987 194.963 77.9606 194.609 77.1748 194.408C76.3891 194.208 75.5715 194.164 74.7689 194.281C73.9664 194.398 73.195 194.672 72.4991 195.089C71.8032 195.505 71.1967 196.055 70.7144 196.707C70.2321 197.359 69.8837 198.1 69.6892 198.887C69.4947 199.675 69.458 200.493 69.5812 201.294C69.7044 202.096 69.9851 202.865 70.407 203.558C70.8289 204.25 71.3838 204.852 72.0396 205.329H72.0429Z" fill="#D4E1F7"/>
<path d="M96.0168 121.225C96.0168 124.619 89.873 134.445 89.873 134.445C89.873 134.445 83.7291 124.606 83.7291 121.225C83.7101 120.407 83.8549 119.592 84.1551 118.831C84.4552 118.069 84.9046 117.375 85.4768 116.789C86.0491 116.203 86.7326 115.738 87.4873 115.42C88.2419 115.102 89.0525 114.939 89.8713 114.939C90.6901 114.939 91.5007 115.102 92.2553 115.42C93.01 115.738 93.6935 116.203 94.2658 116.789C94.838 117.375 95.2874 118.069 95.5876 118.831C95.8877 119.592 96.0325 120.407 96.0135 121.225H96.0168Z" fill="#FC6681"/>
<path d="M106.183 140.017C104.339 142.866 93.8357 147.784 93.8357 147.784C93.8357 147.784 94.0274 136.187 95.8715 133.338C96.7761 132.015 98.1619 131.098 99.7332 130.782C101.305 130.466 102.937 130.777 104.282 131.648C105.628 132.519 106.58 133.881 106.935 135.444C107.29 137.007 107.02 138.647 106.183 140.014V140.017Z" fill="#FC6681"/>
<path d="M105.737 172.131C102.706 173.658 91.1587 172.604 91.1587 172.604C91.1587 172.604 97.177 162.689 100.208 161.162C101.658 160.467 103.323 160.367 104.845 160.886C106.368 161.404 107.626 162.499 108.35 163.935C109.074 165.371 109.207 167.034 108.719 168.566C108.231 170.098 107.161 171.378 105.74 172.131H105.737Z" fill="#FC6681"/>
<path d="M99.93 196.353C97.2034 198.369 85.6394 199.281 85.6394 199.281C85.6394 199.281 89.8962 188.494 92.6227 186.475C93.2708 185.987 94.009 185.633 94.7947 185.432C95.5804 185.231 96.3981 185.188 97.2006 185.305C98.0031 185.422 98.7746 185.696 99.4705 186.113C100.166 186.529 100.773 187.079 101.255 187.731C101.737 188.383 102.086 189.124 102.28 189.911C102.475 190.698 102.512 191.516 102.388 192.318C102.265 193.12 101.985 193.889 101.563 194.581C101.141 195.274 100.586 195.876 99.93 196.353Z" fill="#FC6681"/>
<path d="M80.9365 148.441C83.3689 150.804 94.7081 153.253 94.7081 153.253C94.7081 153.253 91.932 141.993 89.4996 139.627C88.3227 138.537 86.7662 137.951 85.1627 137.993C83.5592 138.035 82.0358 138.703 80.918 139.854C79.8003 141.004 79.1769 142.546 79.1809 144.15C79.185 145.754 79.8162 147.293 80.9398 148.438L80.9365 148.441Z" fill="#FC6681"/>
<path d="M74.5051 176.854C77.5357 178.381 89.0832 177.326 89.0832 177.326C89.0832 177.326 83.0649 167.412 80.0342 165.885C78.5841 165.189 76.9191 165.09 75.3967 165.609C73.8743 166.127 72.6159 167.222 71.8917 168.658C71.1674 170.094 71.0351 171.756 71.5231 173.289C72.0111 174.821 73.0805 176.101 74.5018 176.854H74.5051Z" fill="#FC6681"/>
<path d="M72.0429 205.329C74.7695 207.345 86.3335 208.258 86.3335 208.258C86.3335 208.258 82.0767 197.467 79.3468 195.451C78.6987 194.963 77.9606 194.609 77.1748 194.408C76.3891 194.208 75.5715 194.164 74.7689 194.281C73.9664 194.398 73.195 194.672 72.4991 195.089C71.8032 195.505 71.1967 196.055 70.7144 196.707C70.2321 197.359 69.8837 198.1 69.6892 198.887C69.4947 199.675 69.458 200.493 69.5812 201.294C69.7044 202.096 69.9851 202.865 70.407 203.558C70.8289 204.25 71.3838 204.852 72.0396 205.329H72.0429Z" fill="#FC6681"/>
<g clip-path="url(#clip1_34_12)">
<path d="M309.369 219.886C309.815 219.261 310.42 218.804 311.179 218.633C311.842 218.484 312.523 218.509 313.197 218.514L321.711 218.58C322.441 218.585 323.14 219.217 323.106 219.974C323.072 220.725 322.493 221.375 321.711 221.369C319.217 221.35 316.723 221.33 314.229 221.311C313.641 221.307 313.052 221.296 312.464 221.298C312.332 221.298 312.201 221.305 312.069 221.307C312.037 221.307 312.014 221.307 311.997 221.306C311.993 221.308 311.99 221.309 311.984 221.31C311.916 221.329 311.845 221.342 311.776 221.36C311.8 221.361 311.731 221.404 311.696 221.419C311.691 221.428 311.681 221.445 311.664 221.47C311.641 221.515 311.57 221.65 311.567 221.646C311.462 221.912 311.375 222.186 311.307 222.464C311.145 223.078 311.109 223.207 311.086 223.783C311.057 224.511 310.466 225.212 309.692 225.178C308.961 225.145 308.265 224.564 308.297 223.783C308.35 222.468 308.581 220.99 309.369 219.886Z" fill="#E6E6E6"/>
<path d="M321.211 223.033C321.371 222.064 321.528 221.094 321.691 220.126C321.856 219.143 322.194 218.243 322.959 217.598C323.163 217.426 323.375 217.265 323.588 217.105C323.662 217.048 323.737 216.992 323.811 216.934C323.815 216.931 323.818 216.929 323.822 216.926C323.83 216.919 323.84 216.91 323.853 216.899C324.172 216.63 324.48 216.348 324.773 216.048C325.034 215.782 325.283 215.505 325.52 215.216C325.58 215.144 325.638 215.072 325.696 214.998C325.706 214.986 325.76 214.916 325.795 214.871C325.828 214.826 325.888 214.744 325.898 214.73C325.966 214.634 326.032 214.538 326.097 214.44C326.542 213.775 326.926 213.071 327.247 212.338C327.279 212.266 327.31 212.193 327.34 212.119C327.348 212.097 327.359 212.068 327.373 212.029C327.437 211.852 327.502 211.674 327.561 211.494C327.686 211.113 327.794 210.725 327.884 210.332C327.929 210.138 327.969 209.943 328.005 209.747C328.023 209.646 328.041 209.545 328.057 209.444C328.059 209.427 328.075 209.318 328.084 209.256C328.091 209.194 328.104 209.084 328.105 209.067C328.116 208.965 328.125 208.863 328.133 208.761C328.15 208.531 328.163 208.3 328.169 208.069C328.18 207.659 328.172 207.249 328.147 206.838C328.132 206.608 328.112 206.378 328.086 206.148C328.085 206.134 328.084 206.123 328.082 206.113C328.081 206.103 328.079 206.091 328.077 206.077C328.058 205.95 328.039 205.823 328.016 205.697C327.933 205.218 327.824 204.743 327.691 204.275C327.627 204.054 327.559 203.834 327.485 203.617C327.452 203.52 327.417 203.424 327.382 203.328C327.385 203.334 327.279 203.065 327.278 203.056C326.86 202.068 326.176 201.168 326.175 200.047C326.175 199.287 326.817 198.56 327.57 198.595C327.945 198.609 328.3 198.768 328.561 199.039C328.821 199.31 328.966 199.671 328.965 200.047C328.965 200.064 328.965 200.078 328.965 200.092C328.972 200.116 328.978 200.136 328.983 200.153C329.064 200.33 329.164 200.499 329.254 200.671C329.499 201.144 329.708 201.632 329.906 202.128C330.231 202.934 330.48 203.77 330.65 204.623C331.018 206.492 331.046 208.412 330.734 210.292C330.193 213.587 328.41 216.742 325.931 218.863C325.716 219.047 325.496 219.225 325.273 219.399C325.181 219.471 325.089 219.542 324.995 219.612C324.951 219.645 324.769 219.789 324.849 219.719C324.676 219.867 324.603 219.941 324.559 220.05C324.553 220.075 324.544 220.109 324.532 220.155C324.501 220.278 324.471 220.4 324.446 220.524C324.23 221.609 324.08 222.713 323.9 223.805C323.776 224.556 322.852 225.044 322.185 224.819C321.408 224.557 321.078 223.837 321.211 223.033Z" fill="#E6E6E6"/>
<path d="M309.228 225.848C309.814 225.85 310.376 225.619 310.792 225.206C311.208 224.794 311.443 224.233 311.445 223.647V222.056C313.111 222.243 318.814 222.2 320.449 221.937V223.584C320.453 224.169 320.689 224.729 321.104 225.141C321.52 225.553 322.081 225.784 322.666 225.784C323.251 225.784 323.813 225.553 324.228 225.141C324.644 224.729 324.879 224.169 324.884 223.584V220.351C327.098 219.121 328.944 217.322 330.231 215.14C331.518 212.959 332.199 210.473 332.205 207.94C332.205 203.597 330.237 199.546 326.805 196.825C324.573 195.049 321.862 193.982 319.019 193.759C318.634 193.729 318.245 193.713 317.866 193.713C316.527 193.713 310.49 193.92 308.976 194.356L305.522 190.929C305.471 190.878 305.406 190.843 305.335 190.829C305.265 190.815 305.192 190.822 305.125 190.85C305.058 190.876 305.001 190.923 304.961 190.982C304.92 191.042 304.899 191.113 304.9 191.185V191.73L304.227 191.064C304.177 191.013 304.112 190.978 304.041 190.964C303.971 190.95 303.897 190.957 303.831 190.985C303.764 191.011 303.707 191.058 303.666 191.117C303.626 191.177 303.605 191.248 303.605 191.32V197.409C301.872 198.972 300.551 200.938 299.76 203.133C298.968 205.328 298.73 207.684 299.067 209.993C299.404 212.302 300.305 214.492 301.69 216.37C303.076 218.247 304.904 219.754 307.011 220.756V223.647C307.014 224.233 307.249 224.794 307.664 225.206C308.08 225.619 308.642 225.85 309.228 225.848ZM311.271 221.859V223.647C311.267 224.186 311.05 224.702 310.667 225.081C310.284 225.461 309.767 225.674 309.228 225.674C308.689 225.674 308.172 225.461 307.789 225.081C307.407 224.702 307.19 224.186 307.185 223.647V220.646L307.135 220.623C304.771 219.501 302.764 217.745 301.337 215.551C299.518 212.752 298.762 209.394 299.205 206.085C299.647 202.777 301.26 199.736 303.751 197.513L303.78 197.487V191.32C303.779 191.283 303.79 191.246 303.811 191.215C303.832 191.184 303.862 191.16 303.897 191.146C303.931 191.131 303.97 191.127 304.007 191.135C304.044 191.142 304.078 191.16 304.104 191.187L305.074 192.148V191.185C305.074 191.147 305.084 191.111 305.105 191.08C305.126 191.048 305.156 191.025 305.191 191.011C305.226 190.996 305.264 190.992 305.301 191C305.339 191.007 305.373 191.025 305.399 191.053L308.927 194.553L308.977 194.537C310.385 194.097 316.517 193.888 317.866 193.888C318.241 193.888 318.625 193.903 319.006 193.933C321.814 194.153 324.492 195.208 326.696 196.961C330.086 199.649 332.031 203.651 332.031 207.94C332.025 210.451 331.347 212.914 330.067 215.074C328.788 217.234 326.953 219.012 324.754 220.223L324.709 220.248V223.584C324.705 224.123 324.488 224.638 324.105 225.017C323.722 225.397 323.205 225.61 322.666 225.61C322.127 225.61 321.61 225.397 321.228 225.017C320.845 224.638 320.628 224.123 320.623 223.584V221.728L320.52 221.748C319.051 222.024 312.865 222.068 311.37 221.872L311.271 221.859Z" fill="#3F3D56"/>
<path d="M315.455 180.987C317.04 180.988 318.563 181.605 319.701 182.709C320.84 183.813 321.504 185.316 321.553 186.901C321.555 186.963 321.556 187.026 321.556 187.088C321.556 188.295 321.198 189.475 320.528 190.478C319.857 191.481 318.904 192.263 317.789 192.725C316.675 193.187 315.448 193.308 314.264 193.072C313.081 192.837 311.994 192.256 311.141 191.403C310.287 190.549 309.706 189.462 309.471 188.279C309.235 187.095 309.356 185.868 309.818 184.754C310.28 183.639 311.062 182.686 312.065 182.016C313.068 181.345 314.248 180.987 315.455 180.987ZM315.455 193.015C317.026 193.014 318.533 192.389 319.644 191.277C320.755 190.166 321.38 188.66 321.381 187.088C321.381 187.007 321.38 186.927 321.376 186.848C321.329 185.687 320.942 184.565 320.262 183.623C319.583 182.68 318.641 181.958 317.555 181.547C316.468 181.135 315.284 181.052 314.151 181.307C313.018 181.563 311.984 182.146 311.179 182.984C310.375 183.822 309.834 184.878 309.625 186.021C309.416 187.164 309.547 188.343 310.002 189.412C310.458 190.481 311.218 191.393 312.187 192.033C313.156 192.674 314.293 193.015 315.455 193.015Z" fill="#3F3D56"/>
<path d="M310.312 187.089C310.312 188.452 310.854 189.76 311.818 190.725C312.783 191.689 314.091 192.231 315.455 192.231C316.819 192.231 318.126 191.689 319.091 190.725C320.055 189.76 320.597 188.452 320.597 187.089C320.597 186.926 320.589 186.765 320.574 186.607C320.45 185.29 319.824 184.072 318.826 183.206C317.828 182.339 316.534 181.89 315.213 181.952C313.893 182.014 312.647 182.582 311.734 183.539C310.821 184.495 310.312 185.766 310.312 187.089Z" fill="#FEE500"/>
<path d="M331.604 203.584C332.82 203.404 333.983 202.964 335.013 202.294C335.524 201.963 335.997 201.576 336.423 201.141C336.844 200.712 337.246 200.224 337.455 199.653C337.655 199.124 337.645 198.538 337.426 198.017C337.21 197.499 336.797 197.087 336.278 196.873C335.756 196.665 335.125 196.642 334.617 196.87C334.375 196.976 334.166 197.145 334.01 197.359C333.938 197.458 333.885 197.569 333.853 197.686C333.823 197.793 333.82 197.906 333.845 198.014C333.874 198.122 333.927 198.222 333.999 198.309C334.071 198.395 334.16 198.464 334.261 198.513C334.483 198.627 334.723 198.7 334.971 198.73C335.221 198.764 335.579 198.795 335.779 198.594C335.82 198.555 335.853 198.507 335.874 198.454C335.889 198.413 335.895 198.37 335.889 198.327C335.892 198.346 335.877 198.286 335.878 198.288C335.881 198.297 335.895 198.319 335.875 198.285C335.869 198.274 335.863 198.264 335.855 198.254C335.862 198.262 335.876 198.277 335.85 198.252C335.829 198.229 335.801 198.212 335.771 198.203C335.759 198.199 335.746 198.197 335.734 198.193C335.704 198.185 335.765 198.194 335.733 198.193C335.721 198.192 335.709 198.193 335.697 198.192C335.666 198.191 335.727 198.184 335.698 198.191C335.686 198.194 335.675 198.197 335.664 198.2C335.639 198.208 335.681 198.182 335.664 198.202C335.645 198.224 335.685 198.18 335.663 198.202C335.652 198.212 335.641 198.224 335.632 198.236C335.593 198.274 335.541 198.295 335.487 198.295C335.433 198.295 335.381 198.274 335.343 198.236C335.305 198.197 335.285 198.145 335.285 198.092C335.285 198.038 335.305 197.986 335.343 197.947C335.544 197.697 335.942 197.759 336.146 197.97C336.406 198.239 336.303 198.666 336.05 198.901C335.764 199.167 335.358 199.185 334.99 199.141C334.679 199.111 334.376 199.025 334.095 198.888C333.816 198.751 333.598 198.515 333.483 198.226C333.431 198.072 333.412 197.909 333.428 197.747C333.444 197.585 333.494 197.429 333.575 197.288C333.9 196.677 334.573 196.363 335.238 196.309C335.581 196.282 335.925 196.324 336.252 196.431C336.578 196.538 336.88 196.709 337.14 196.933C337.641 197.384 337.95 198.011 338.002 198.683C338.06 199.38 337.79 200.057 337.395 200.619C336.983 201.191 336.49 201.7 335.933 202.132C334.844 203.001 333.566 203.604 332.201 203.891C332.039 203.925 331.876 203.954 331.712 203.978C331.66 203.99 331.605 203.982 331.558 203.956C331.512 203.929 331.477 203.886 331.461 203.835C331.447 203.783 331.454 203.727 331.481 203.68C331.507 203.633 331.551 203.598 331.603 203.584L331.604 203.584Z" fill="#3F3D56"/>
<path d="M312.133 194.704C313.915 194.679 315.691 194.724 317.462 194.84C318.067 194.879 318.591 195.093 318.591 195.452C318.591 195.753 318.071 196.105 317.462 196.065C315.692 195.95 313.916 195.905 312.133 195.93C310.68 195.95 310.681 194.724 312.133 194.704Z" fill="#CCCCCC"/>
<path d="M314.767 195.869C314.959 195.869 319.483 195.862 319.483 195.237C319.483 194.613 314.959 194.605 314.767 194.605C314.574 194.605 310.051 194.613 310.051 195.237C310.051 195.862 314.574 195.869 314.767 195.869ZM319.306 195.237C319.182 195.427 317.519 195.695 314.767 195.695C312.014 195.695 310.352 195.427 310.228 195.237C310.352 195.048 312.014 194.78 314.767 194.78C317.519 194.78 319.182 195.048 319.306 195.237V195.237Z" fill="#3F3D56"/>
<path d="M300.416 212.294C299.415 212.267 298.168 212.232 297.208 211.53C296.922 211.313 296.688 211.036 296.52 210.718C296.353 210.4 296.257 210.05 296.239 209.691C296.219 209.137 296.42 208.654 296.803 208.33C297.304 207.907 298.036 207.807 298.825 208.039L298.008 202.064L298.608 201.982L299.569 209.006L299.068 208.776C298.487 208.51 297.689 208.374 297.194 208.793C297.072 208.902 296.977 209.038 296.916 209.191C296.856 209.343 296.831 209.507 296.844 209.67C296.859 209.937 296.931 210.197 297.056 210.434C297.18 210.671 297.354 210.878 297.566 211.041C298.313 211.587 299.306 211.657 300.433 211.689L300.416 212.294Z" fill="#3F3D56"/>
<path d="M302.075 202.579H305.338V203.185H302.075V202.579Z" fill="#3F3D56"/>
<path d="M281.693 225.889H346.042C346.069 225.889 346.096 225.878 346.115 225.858C346.135 225.839 346.145 225.813 346.145 225.785C346.145 225.758 346.135 225.731 346.115 225.712C346.096 225.692 346.069 225.681 346.042 225.681H281.693C281.666 225.681 281.639 225.692 281.62 225.712C281.6 225.731 281.589 225.758 281.589 225.785C281.589 225.813 281.6 225.839 281.62 225.858C281.639 225.878 281.666 225.889 281.693 225.889Z" fill="#3F3D56"/>
</g>
<path d="M317.495 185.971L317.299 186.644H313.35L313.545 185.971H317.495ZM315.724 190.652L313.473 188.022L313.469 187.495H314.507C314.808 187.495 315.056 187.445 315.252 187.346C315.451 187.244 315.6 187.106 315.699 186.933C315.798 186.76 315.848 186.566 315.848 186.35C315.848 186.109 315.801 185.897 315.707 185.716C315.614 185.531 315.466 185.388 315.265 185.286C315.066 185.181 314.805 185.128 314.482 185.128H313.358L313.558 184.456H314.482C314.975 184.456 315.383 184.531 315.703 184.682C316.027 184.829 316.268 185.045 316.427 185.328C316.586 185.612 316.665 185.956 316.665 186.358C316.665 186.705 316.598 187.015 316.465 187.29C316.334 187.563 316.117 187.777 315.814 187.933C315.513 188.089 315.107 188.167 314.597 188.167L316.69 190.601V190.652H315.724ZM317.495 184.456L317.299 185.128H314.116L314.312 184.456H317.495Z" fill="#003366"/>
</g>
<circle cx="45.9472" cy="76.6746" r="33.0494" fill="#FFEEF4"/>
<circle cx="342.4" cy="80.3101" r="33.0494" fill="#FFEEF4"/>
<path d="M9.13794 77.5724H6.71733V76.1781H9.13794C9.53384 76.1781 9.85444 76.1136 10.0997 75.9845C10.3493 75.8511 10.5322 75.6704 10.6484 75.4423C10.7646 75.2099 10.8227 74.9452 10.8227 74.6483C10.8227 74.36 10.7646 74.091 10.6484 73.8414C10.5322 73.5919 10.3493 73.3896 10.0997 73.2347C9.85444 73.0798 9.53384 73.0023 9.13794 73.0023H7.29827V81H5.52316V71.6016H9.13794C9.8695 71.6016 10.4935 71.7328 11.0099 71.9953C11.5306 72.2535 11.9265 72.6129 12.1976 73.0733C12.473 73.5295 12.6107 74.0502 12.6107 74.6354C12.6107 75.2422 12.473 75.765 12.1976 76.204C11.9265 76.6429 11.5306 76.9807 11.0099 77.2174C10.4935 77.4541 9.8695 77.5724 9.13794 77.5724ZM15.58 75.4423V81H13.8759V74.0157H15.4896L15.58 75.4423ZM17.7037 73.9705L17.6779 75.5585C17.5832 75.5413 17.4756 75.5283 17.3551 75.5197C17.2389 75.5111 17.1292 75.5068 17.0259 75.5068C16.7634 75.5068 16.5332 75.5434 16.3352 75.6166C16.1373 75.6854 15.9716 75.7865 15.8382 75.9199C15.7091 76.0533 15.6101 76.2169 15.5413 76.4105C15.4724 76.5999 15.4337 76.815 15.4251 77.056L15.0571 77.0108C15.0571 76.5676 15.1023 76.1566 15.1927 75.7779C15.2831 75.3992 15.4143 75.0679 15.5864 74.7839C15.7586 74.4999 15.9737 74.2804 16.2319 74.1255C16.4944 73.9662 16.7957 73.8866 17.1356 73.8866C17.2303 73.8866 17.3314 73.8952 17.439 73.9125C17.5509 73.9254 17.6391 73.9447 17.7037 73.9705ZM18.1555 77.5789V77.4433C18.1555 76.9312 18.2287 76.46 18.375 76.0297C18.5213 75.595 18.7343 75.2185 19.014 74.9001C19.2937 74.5816 19.6359 74.3342 20.0404 74.1577C20.4449 73.977 20.9053 73.8866 21.4217 73.8866C21.9467 73.8866 22.4115 73.977 22.816 74.1577C23.2248 74.3342 23.5691 74.5816 23.8488 74.9001C24.1285 75.2185 24.3415 75.595 24.4878 76.0297C24.6341 76.46 24.7073 76.9312 24.7073 77.4433V77.5789C24.7073 78.0867 24.6341 78.5579 24.4878 78.9925C24.3415 79.4228 24.1285 79.7994 23.8488 80.1221C23.5691 80.4406 23.227 80.688 22.8225 80.8644C22.4179 81.0409 21.9553 81.1291 21.4346 81.1291C20.9182 81.1291 20.4556 81.0409 20.0468 80.8644C19.638 80.688 19.2937 80.4406 19.014 80.1221C18.7343 79.7994 18.5213 79.4228 18.375 78.9925C18.2287 78.5579 18.1555 78.0867 18.1555 77.5789ZM19.8596 77.4433V77.5789C19.8596 77.8844 19.8898 78.1706 19.95 78.4374C20.0102 78.7042 20.1028 78.9387 20.2276 79.141C20.3524 79.3432 20.5137 79.5024 20.7117 79.6186C20.9139 79.7305 21.1549 79.7865 21.4346 79.7865C21.7101 79.7865 21.9467 79.7305 22.1447 79.6186C22.3426 79.5024 22.504 79.3432 22.6288 79.141C22.7579 78.9387 22.8526 78.7042 22.9128 78.4374C22.9731 78.1706 23.0032 77.8844 23.0032 77.5789V77.4433C23.0032 77.1421 22.9731 76.8602 22.9128 76.5977C22.8526 76.3309 22.7579 76.0964 22.6288 75.8941C22.504 75.6876 22.3405 75.5262 22.1382 75.41C21.9403 75.2895 21.7014 75.2293 21.4217 75.2293C21.1463 75.2293 20.9096 75.2895 20.7117 75.41C20.5137 75.5262 20.3524 75.6876 20.2276 75.8941C20.1028 76.0964 20.0102 76.3309 19.95 76.5977C19.8898 76.8602 19.8596 77.1421 19.8596 77.4433ZM29.2516 74.0157V75.2422H25.2495V74.0157H29.2516ZM26.321 72.2987H28.0316V78.9861C28.0316 79.1926 28.0596 79.3518 28.1155 79.4637C28.1715 79.5756 28.2554 79.6509 28.3673 79.6896C28.4792 79.7284 28.6126 79.7477 28.7675 79.7477C28.8794 79.7477 28.9826 79.7413 29.0773 79.7284C29.172 79.7155 29.2516 79.7026 29.3161 79.6896L29.3226 80.9677C29.1806 81.0151 29.0192 81.0538 28.8385 81.0839C28.662 81.114 28.4619 81.1291 28.2382 81.1291C27.8552 81.1291 27.5195 81.0645 27.2312 80.9355C26.9429 80.802 26.7191 80.589 26.5599 80.2964C26.4007 79.9995 26.321 79.6079 26.321 79.1216V72.2987ZM33.5248 81.1291C32.9955 81.1291 32.52 81.043 32.0982 80.8709C31.6765 80.6988 31.3172 80.4599 31.0203 80.1544C30.7276 79.8446 30.5017 79.4852 30.3425 79.0764C30.1876 78.6633 30.1101 78.2201 30.1101 77.7467V77.4885C30.1101 76.9506 30.1876 76.4622 30.3425 76.0232C30.4974 75.58 30.7169 75.1991 31.0009 74.8807C31.2849 74.5623 31.6249 74.317 32.0208 74.1448C32.4167 73.9727 32.8535 73.8866 33.3311 73.8866C33.826 73.8866 34.2628 73.9705 34.6415 74.1384C35.0202 74.3019 35.3365 74.5343 35.5904 74.8355C35.8443 75.1367 36.0358 75.4982 36.1649 75.9199C36.294 76.3374 36.3585 76.8 36.3585 77.3078V78.0243H30.8847V76.8495H34.6802V76.7204C34.6716 76.4493 34.62 76.2018 34.5253 75.978C34.4306 75.75 34.2843 75.5692 34.0864 75.4358C33.8884 75.2981 33.6324 75.2293 33.3182 75.2293C33.0643 75.2293 32.8427 75.2852 32.6534 75.3971C32.4683 75.5047 32.3134 75.6596 32.1886 75.8619C32.0681 76.0598 31.9777 76.2965 31.9175 76.5719C31.8572 76.8473 31.8271 77.1528 31.8271 77.4885V77.7467C31.8271 78.0393 31.8659 78.3104 31.9433 78.56C32.0251 78.8096 32.1434 79.0269 32.2983 79.212C32.4576 79.3927 32.6469 79.5347 32.8664 79.638C33.0901 79.737 33.344 79.7865 33.6281 79.7865C33.9852 79.7865 34.308 79.7176 34.5963 79.5799C34.8889 79.4379 35.1428 79.2292 35.358 78.9538L36.2165 79.8446C36.0702 80.0597 35.8722 80.2663 35.6226 80.4642C35.3774 80.6622 35.0804 80.8236 34.7319 80.9484C34.3833 81.0689 33.9809 81.1291 33.5248 81.1291ZM40.367 79.7865C40.608 79.7865 40.8232 79.7391 41.0125 79.6445C41.2019 79.5498 41.3525 79.4164 41.4644 79.2443C41.5806 79.0721 41.643 78.872 41.6516 78.6439H43.2589C43.2503 79.1173 43.1169 79.5412 42.8587 79.9156C42.6005 80.29 42.2562 80.5869 41.8259 80.8064C41.3998 81.0215 40.9222 81.1291 40.3929 81.1291C39.8549 81.1291 39.3859 81.0387 38.9857 80.858C38.5855 80.6773 38.252 80.4255 37.9852 80.1028C37.7227 79.78 37.5247 79.4056 37.3913 78.9796C37.2622 78.5536 37.1977 78.0974 37.1977 77.6111V77.4046C37.1977 76.9183 37.2622 76.4622 37.3913 76.0361C37.5247 75.6101 37.7227 75.2357 37.9852 74.913C38.252 74.5902 38.5855 74.3385 38.9857 74.1577C39.3859 73.977 39.8528 73.8866 40.3864 73.8866C40.9501 73.8866 41.445 73.9964 41.871 74.2158C42.3014 74.4353 42.637 74.7451 42.878 75.1453C43.1233 75.5456 43.2503 76.0168 43.2589 76.559H41.6516C41.643 76.3094 41.587 76.0856 41.4837 75.8877C41.3805 75.6897 41.2342 75.5305 41.0448 75.41C40.8555 75.2895 40.6252 75.2293 40.3541 75.2293C40.0658 75.2293 39.8248 75.2895 39.6312 75.41C39.4418 75.5305 39.2934 75.6962 39.1858 75.907C39.0825 76.1136 39.0093 76.346 38.9663 76.6042C38.9276 76.8581 38.9082 77.1249 38.9082 77.4046V77.6111C38.9082 77.8952 38.9276 78.1663 38.9663 78.4245C39.0093 78.6827 39.0825 78.915 39.1858 79.1216C39.2934 79.3239 39.4418 79.4852 39.6312 79.6057C39.8248 79.7262 40.0701 79.7865 40.367 79.7865ZM47.6999 74.0157V75.2422H43.6978V74.0157H47.6999ZM44.7693 72.2987H46.4799V78.9861C46.4799 79.1926 46.5079 79.3518 46.5638 79.4637C46.6198 79.5756 46.7037 79.6509 46.8156 79.6896C46.9274 79.7284 47.0608 79.7477 47.2158 79.7477C47.3276 79.7477 47.4309 79.7413 47.5256 79.7284C47.6203 79.7155 47.6999 79.7026 47.7644 79.6896L47.7709 80.9677C47.6289 81.0151 47.4675 81.0538 47.2868 81.0839C47.1103 81.114 46.9102 81.1291 46.6865 81.1291C46.3035 81.1291 45.9678 81.0645 45.6795 80.9355C45.3912 80.802 45.1674 80.589 45.0082 80.2964C44.8489 79.9995 44.7693 79.6079 44.7693 79.1216V72.2987ZM50.6433 74.0157V81H48.9328V74.0157H50.6433ZM48.8166 72.189C48.8166 71.9351 48.9027 71.7242 49.0748 71.5564C49.2512 71.3886 49.4879 71.3046 49.7848 71.3046C50.0818 71.3046 50.3163 71.3886 50.4884 71.5564C50.6649 71.7242 50.7531 71.9351 50.7531 72.189C50.7531 72.4386 50.6649 72.6473 50.4884 72.8151C50.3163 72.9829 50.0818 73.0669 49.7848 73.0669C49.4879 73.0669 49.2512 72.9829 49.0748 72.8151C48.9027 72.6473 48.8166 72.4386 48.8166 72.189ZM51.9666 77.5789V77.4433C51.9666 76.9312 52.0398 76.46 52.1861 76.0297C52.3324 75.595 52.5454 75.2185 52.8251 74.9001C53.1048 74.5816 53.4469 74.3342 53.8515 74.1577C54.256 73.977 54.7164 73.8866 55.2328 73.8866C55.7578 73.8866 56.2226 73.977 56.6271 74.1577C57.0359 74.3342 57.3802 74.5816 57.6599 74.9001C57.9396 75.2185 58.1526 75.595 58.2989 76.0297C58.4452 76.46 58.5184 76.9312 58.5184 77.4433V77.5789C58.5184 78.0867 58.4452 78.5579 58.2989 78.9925C58.1526 79.4228 57.9396 79.7994 57.6599 80.1221C57.3802 80.4406 57.0381 80.688 56.6335 80.8644C56.229 81.0409 55.7664 81.1291 55.2457 81.1291C54.7293 81.1291 54.2667 81.0409 53.8579 80.8644C53.4491 80.688 53.1048 80.4406 52.8251 80.1221C52.5454 79.7994 52.3324 79.4228 52.1861 78.9925C52.0398 78.5579 51.9666 78.0867 51.9666 77.5789ZM53.6707 77.4433V77.5789C53.6707 77.8844 53.7008 78.1706 53.7611 78.4374C53.8213 78.7042 53.9139 78.9387 54.0387 79.141C54.1634 79.3432 54.3248 79.5024 54.5228 79.6186C54.725 79.7305 54.966 79.7865 55.2457 79.7865C55.5211 79.7865 55.7578 79.7305 55.9558 79.6186C56.1537 79.5024 56.3151 79.3432 56.4399 79.141C56.569 78.9387 56.6637 78.7042 56.7239 78.4374C56.7842 78.1706 56.8143 77.8844 56.8143 77.5789V77.4433C56.8143 77.1421 56.7842 76.8602 56.7239 76.5977C56.6637 76.3309 56.569 76.0964 56.4399 75.8941C56.3151 75.6876 56.1516 75.5262 55.9493 75.41C55.7514 75.2895 55.5125 75.2293 55.2328 75.2293C54.9574 75.2293 54.7207 75.2895 54.5228 75.41C54.3248 75.5262 54.1634 75.6876 54.0387 75.8941C53.9139 76.0964 53.8213 76.3309 53.7611 76.5977C53.7008 76.8602 53.6707 77.1421 53.6707 77.4433ZM61.4296 75.5068V81H59.7255V74.0157H61.3263L61.4296 75.5068ZM61.1585 77.2561H60.655C60.6593 76.7483 60.7281 76.2879 60.8615 75.8748C60.995 75.4616 61.1821 75.1066 61.4231 74.8097C61.6684 74.5128 61.9589 74.2847 62.2945 74.1255C62.6302 73.9662 63.0046 73.8866 63.4177 73.8866C63.7534 73.8866 64.0568 73.934 64.3279 74.0286C64.599 74.1233 64.8313 74.2739 65.025 74.4805C65.223 74.687 65.3736 74.9582 65.4768 75.2938C65.5844 75.6252 65.6382 76.034 65.6382 76.5203V81H63.9212V76.5073C63.9212 76.1889 63.8739 75.9372 63.7792 75.7521C63.6888 75.5671 63.5554 75.4358 63.379 75.3584C63.2069 75.2809 62.9938 75.2422 62.7399 75.2422C62.4774 75.2422 62.2472 75.296 62.0493 75.4035C61.8556 75.5068 61.6921 75.651 61.5587 75.836C61.4296 76.0211 61.3306 76.2341 61.2618 76.4751C61.1929 76.7161 61.1585 76.9764 61.1585 77.2561Z" fill="#003366"/>
<path d="M325.153 74.6408V84.0392H323.378V74.6408H325.153ZM328.613 78.546V84.0392H326.908V77.0549H328.509L328.613 78.546ZM328.341 80.2953H327.838C327.842 79.7875 327.911 79.3271 328.045 78.9139C328.178 78.5008 328.365 78.1458 328.606 77.8489C328.851 77.5519 329.142 77.3239 329.478 77.1647C329.813 77.0054 330.188 76.9258 330.601 76.9258C330.936 76.9258 331.24 76.9732 331.511 77.0678C331.782 77.1625 332.014 77.3131 332.208 77.5197C332.406 77.7262 332.557 77.9973 332.66 78.333C332.767 78.6644 332.821 79.0732 332.821 79.5594V84.0392H331.104V79.5465C331.104 79.2281 331.057 78.9763 330.962 78.7913C330.872 78.6063 330.738 78.475 330.562 78.3975C330.39 78.3201 330.177 78.2814 329.923 78.2814C329.66 78.2814 329.43 78.3351 329.232 78.4427C329.039 78.546 328.875 78.6902 328.742 78.8752C328.613 79.0603 328.514 79.2733 328.445 79.5143C328.376 79.7552 328.341 80.0156 328.341 80.2953ZM336.643 82.7482L338.269 77.0549H340.051L337.656 84.0392H336.572L336.643 82.7482ZM335.455 77.0549L337.101 82.7611L337.159 84.0392H336.068L333.667 77.0549H335.455ZM343.995 84.1683C343.465 84.1683 342.99 84.0822 342.568 83.9101C342.146 83.738 341.787 83.4991 341.49 83.1936C341.198 82.8837 340.972 82.5244 340.812 82.1156C340.658 81.7025 340.58 81.2592 340.58 80.7859V80.5277C340.58 79.9898 340.658 79.5013 340.812 79.0624C340.967 78.6192 341.187 78.2383 341.471 77.9199C341.755 77.6014 342.095 77.3561 342.491 77.184C342.887 77.0119 343.323 76.9258 343.801 76.9258C344.296 76.9258 344.733 77.0097 345.111 77.1776C345.49 77.3411 345.806 77.5735 346.06 77.8747C346.314 78.1759 346.506 78.5374 346.635 78.9591C346.764 79.3766 346.828 79.8392 346.828 80.3469V81.0634H341.355V79.8886H345.15V79.7595C345.142 79.4884 345.09 79.241 344.995 79.0172C344.901 78.7891 344.754 78.6084 344.556 78.475C344.358 78.3373 344.102 78.2684 343.788 78.2684C343.534 78.2684 343.313 78.3244 343.123 78.4363C342.938 78.5439 342.783 78.6988 342.659 78.901C342.538 79.099 342.448 79.3357 342.387 79.6111C342.327 79.8865 342.297 80.192 342.297 80.5277V80.7859C342.297 81.0785 342.336 81.3496 342.413 81.5992C342.495 81.8488 342.613 82.0661 342.768 82.2512C342.928 82.4319 343.117 82.5739 343.336 82.6772C343.56 82.7762 343.814 82.8257 344.098 82.8257C344.455 82.8257 344.778 82.7568 345.066 82.6191C345.359 82.4771 345.613 82.2684 345.828 81.993L346.686 82.8837C346.54 83.0989 346.342 83.3055 346.093 83.5034C345.847 83.7014 345.55 83.8627 345.202 83.9875C344.853 84.108 344.451 84.1683 343.995 84.1683ZM351.812 82.1285C351.812 81.9822 351.773 81.851 351.696 81.7348C351.618 81.6186 351.472 81.5131 351.257 81.4185C351.046 81.3195 350.736 81.227 350.327 81.1409C349.966 81.0634 349.632 80.9666 349.327 80.8504C349.021 80.7342 348.759 80.5944 348.539 80.4309C348.32 80.263 348.147 80.0672 348.023 79.8435C347.902 79.6154 347.842 79.3529 347.842 79.056C347.842 78.7676 347.904 78.4965 348.029 78.2426C348.154 77.9844 348.335 77.7585 348.571 77.5649C348.808 77.3669 349.096 77.212 349.436 77.1001C349.776 76.9839 350.159 76.9258 350.585 76.9258C351.179 76.9258 351.689 77.0226 352.115 77.2163C352.545 77.4099 352.875 77.6767 353.103 78.0167C353.331 78.3524 353.445 78.7311 353.445 79.1528H351.741C351.741 78.9677 351.698 78.7999 351.612 78.6493C351.53 78.4987 351.403 78.3782 351.231 78.2878C351.059 78.1931 350.841 78.1458 350.579 78.1458C350.342 78.1458 350.142 78.1845 349.978 78.262C349.819 78.3395 349.699 78.4406 349.617 78.5654C349.535 78.6902 349.494 78.8279 349.494 78.9785C349.494 79.0904 349.516 79.1915 349.559 79.2819C349.606 79.3679 349.682 79.4476 349.785 79.5207C349.888 79.5939 350.028 79.6606 350.204 79.7208C350.385 79.7811 350.607 79.8392 350.869 79.8951C351.39 79.9984 351.844 80.1361 352.231 80.3082C352.623 80.476 352.928 80.6998 353.148 80.9795C353.367 81.2592 353.477 81.6164 353.477 82.0511C353.477 82.3609 353.41 82.6449 353.277 82.9031C353.144 83.157 352.95 83.3786 352.696 83.568C352.442 83.7573 352.139 83.9058 351.786 84.0134C351.433 84.1166 351.035 84.1683 350.592 84.1683C349.951 84.1683 349.408 84.0542 348.965 83.8262C348.522 83.5938 348.186 83.3012 347.958 82.9483C347.73 82.5911 347.616 82.221 347.616 81.838H349.249C349.262 82.1092 349.335 82.3265 349.469 82.49C349.602 82.6535 349.77 82.7719 349.972 82.845C350.179 82.9139 350.396 82.9483 350.624 82.9483C350.882 82.9483 351.1 82.9139 351.276 82.845C351.452 82.7719 351.586 82.675 351.676 82.5545C351.767 82.4297 351.812 82.2877 351.812 82.1285ZM358.079 77.0549V78.2814H354.077V77.0549H358.079ZM355.149 75.3379H356.859V82.0252C356.859 82.2318 356.887 82.391 356.943 82.5029C356.999 82.6148 357.083 82.6901 357.195 82.7288C357.307 82.7676 357.44 82.7869 357.595 82.7869C357.707 82.7869 357.811 82.7805 357.905 82.7676C358 82.7546 358.079 82.7417 358.144 82.7288L358.15 84.0069C358.008 84.0542 357.847 84.093 357.666 84.1231C357.49 84.1532 357.29 84.1683 357.066 84.1683C356.683 84.1683 356.347 84.1037 356.059 83.9746C355.771 83.8412 355.547 83.6282 355.388 83.3356C355.229 83.0387 355.149 82.6471 355.149 82.1608V75.3379ZM360.913 78.4879V84.0392H359.209V77.0549H360.816L360.913 78.4879ZM360.661 80.2953H360.139C360.139 79.809 360.197 79.3615 360.313 78.9527C360.433 78.5439 360.61 78.1888 360.842 77.8876C361.075 77.5821 361.361 77.3454 361.701 77.1776C362.045 77.0097 362.443 76.9258 362.895 76.9258C363.209 76.9258 363.497 76.9732 363.76 77.0678C364.022 77.1582 364.248 77.3024 364.438 77.5003C364.631 77.694 364.78 77.9479 364.883 78.262C364.986 78.5718 365.038 78.9441 365.038 79.3787V84.0392H363.334V79.553C363.334 79.2259 363.286 78.9699 363.192 78.7848C363.101 78.5998 362.97 78.4707 362.798 78.3975C362.626 78.3201 362.419 78.2814 362.178 78.2814C361.912 78.2814 361.681 78.3351 361.488 78.4427C361.298 78.546 361.141 78.6902 361.016 78.8752C360.896 79.0603 360.806 79.2733 360.745 79.5143C360.689 79.7552 360.661 80.0156 360.661 80.2953ZM364.909 79.979L364.205 80.1081C364.21 79.6692 364.27 79.2582 364.386 78.8752C364.502 78.4879 364.672 78.1501 364.896 77.8618C365.124 77.5692 365.406 77.3411 365.742 77.1776C366.081 77.0097 366.473 76.9258 366.916 76.9258C367.261 76.9258 367.57 76.9753 367.846 77.0743C368.126 77.169 368.364 77.3217 368.562 77.5326C368.76 77.7391 368.911 78.0081 369.014 78.3395C369.122 78.6708 369.176 79.0753 369.176 79.553V84.0392H367.459V79.5465C367.459 79.2066 367.411 78.9462 367.317 78.7655C367.226 78.5847 367.095 78.4599 366.923 78.3911C366.751 78.3179 366.548 78.2814 366.316 78.2814C366.079 78.2814 365.873 78.3265 365.696 78.4169C365.524 78.503 365.378 78.6235 365.257 78.7784C365.141 78.9333 365.053 79.114 364.993 79.3206C364.937 79.5229 364.909 79.7423 364.909 79.979ZM373.842 84.1683C373.313 84.1683 372.838 84.0822 372.416 83.9101C371.994 83.738 371.635 83.4991 371.338 83.1936C371.045 82.8837 370.819 82.5244 370.66 82.1156C370.505 81.7025 370.428 81.2592 370.428 80.7859V80.5277C370.428 79.9898 370.505 79.5013 370.66 79.0624C370.815 78.6192 371.035 78.2383 371.319 77.9199C371.603 77.6014 371.943 77.3561 372.338 77.184C372.734 77.0119 373.171 76.9258 373.649 76.9258C374.144 76.9258 374.581 77.0097 374.959 77.1776C375.338 77.3411 375.654 77.5735 375.908 77.8747C376.162 78.1759 376.353 78.5374 376.483 78.9591C376.612 79.3766 376.676 79.8392 376.676 80.3469V81.0634H371.202V79.8886H374.998V79.7595C374.989 79.4884 374.938 79.241 374.843 79.0172C374.748 78.7891 374.602 78.6084 374.404 78.475C374.206 78.3373 373.95 78.2684 373.636 78.2684C373.382 78.2684 373.16 78.3244 372.971 78.4363C372.786 78.5439 372.631 78.6988 372.506 78.901C372.386 79.099 372.295 79.3357 372.235 79.6111C372.175 79.8865 372.145 80.192 372.145 80.5277V80.7859C372.145 81.0785 372.184 81.3496 372.261 81.5992C372.343 81.8488 372.461 82.0661 372.616 82.2512C372.775 82.4319 372.965 82.5739 373.184 82.6772C373.408 82.7762 373.662 82.8257 373.946 82.8257C374.303 82.8257 374.626 82.7568 374.914 82.6191C375.207 82.4771 375.461 82.2684 375.676 81.993L376.534 82.8837C376.388 83.0989 376.19 83.3055 375.94 83.5034C375.695 83.7014 375.398 83.8627 375.05 83.9875C374.701 84.108 374.299 84.1683 373.842 84.1683ZM379.491 78.546V84.0392H377.786V77.0549H379.387L379.491 78.546ZM379.219 80.2953H378.716C378.72 79.7875 378.789 79.3271 378.923 78.9139C379.056 78.5008 379.243 78.1458 379.484 77.8489C379.729 77.5519 380.02 77.3239 380.356 77.1647C380.691 77.0054 381.066 76.9258 381.479 76.9258C381.814 76.9258 382.118 76.9732 382.389 77.0678C382.66 77.1625 382.892 77.3131 383.086 77.5197C383.284 77.7262 383.435 77.9973 383.538 78.333C383.645 78.6644 383.699 79.0732 383.699 79.5594V84.0392H381.982V79.5465C381.982 79.2281 381.935 78.9763 381.84 78.7913C381.75 78.6063 381.616 78.475 381.44 78.3975C381.268 78.3201 381.055 78.2814 380.801 78.2814C380.538 78.2814 380.308 78.3351 380.11 78.4427C379.917 78.546 379.753 78.6902 379.62 78.8752C379.491 79.0603 379.392 79.2733 379.323 79.5143C379.254 79.7552 379.219 80.0156 379.219 80.2953ZM388.508 77.0549V78.2814H384.506V77.0549H388.508ZM385.578 75.3379H387.288V82.0252C387.288 82.2318 387.316 82.391 387.372 82.5029C387.428 82.6148 387.512 82.6901 387.624 82.7288C387.736 82.7676 387.869 82.7869 388.024 82.7869C388.136 82.7869 388.239 82.7805 388.334 82.7676C388.429 82.7546 388.508 82.7417 388.573 82.7288L388.579 84.0069C388.437 84.0542 388.276 84.093 388.095 84.1231C387.919 84.1532 387.719 84.1683 387.495 84.1683C387.112 84.1683 386.776 84.1037 386.488 83.9746C386.199 83.8412 385.976 83.6282 385.816 83.3356C385.657 83.0387 385.578 82.6471 385.578 82.1608V75.3379Z" fill="#003366"/>
<defs>
<linearGradient id="paint0_linear_34_12" x1="183.105" y1="229.026" x2="183.105" y2="85.9218" gradientUnits="userSpaceOnUse">
<stop stop-color="#808080" stop-opacity="0.25"/>
<stop offset="0.54" stop-color="#808080" stop-opacity="0.12"/>
<stop offset="1" stop-color="#808080" stop-opacity="0.1"/>
</linearGradient>
<clipPath id="clip0_34_12">
<rect width="325.537" height="229.022" fill="white" transform="translate(20.4991)"/>
</clipPath>
<clipPath id="clip1_34_12">
<rect width="64.5564" height="52.0491" fill="white" transform="matrix(-1 0 0 1 346.146 173.84)"/>
</clipPath>
</defs>
</svg>
