<svg width="576" height="336" viewBox="0 0 576 336" fill="none" xmlns="http://www.w3.org/2000/svg">
<path d="M443.177 278.623C443.177 278.568 443.478 272.369 440.489 270.942L440.709 270.75C442.08 271.217 443.588 272.698 444.191 274.81C444.63 276.373 444.301 276.703 444.301 276.757L443.177 278.623Z" fill="#A4C8FC"/>
<path d="M423.349 262.576C423.349 262.576 424.363 270.558 429.217 272.89C434.071 275.221 440.927 271.025 440.927 271.025C440.927 271.025 439.913 263.042 435.059 260.711C430.205 258.379 423.349 262.576 423.349 262.576Z" fill="#A4C8FC"/>
<path d="M442.683 290.226C442.628 289.924 441.559 282.627 444.301 274.508C446.961 266.691 445.48 260.08 445.48 260.025H447.428C447.482 260.299 447.619 266.8 445.535 275.715C443.671 283.725 447.153 290.253 446.413 290.253H442.683V290.226Z" fill="#A4C8FC"/>
<path d="M446.768 268.693C446.768 268.638 447.701 263.317 450.224 262.713C449.099 262.85 447.673 263.673 446.878 265.154C446.275 266.252 446.494 266.581 446.494 266.636L446.768 268.693Z" fill="#A4C8FC"/>
<path d="M454.805 269.241C451.048 268.473 448.964 263.179 448.964 263.179C448.964 263.179 452.94 259.12 456.697 259.86C460.454 260.628 462.539 265.922 462.539 265.922C462.539 265.922 458.562 270.01 454.805 269.241Z" fill="#A4C8FC"/>
<path d="M425.709 251.988C419.758 242.936 422.254 230.757 431.304 224.777C440.353 218.825 452.529 221.321 458.508 230.373C464.459 239.425 461.963 251.604 452.913 257.556C443.864 263.536 431.687 261.04 425.709 251.988Z" fill="#FFB93E"/>
<path d="M452.088 256.322C448.112 258.955 443.313 259.86 438.651 258.9C433.961 257.94 429.957 255.197 427.325 251.22C424.692 247.243 423.787 242.442 424.747 237.779C425.707 233.089 428.449 229.084 432.426 226.451C436.402 223.817 441.201 222.912 445.863 223.872C450.525 224.832 454.556 227.575 457.189 231.553C459.822 235.53 460.727 240.33 459.767 244.993C458.807 249.656 456.065 253.689 452.088 256.322ZM433.001 227.328C425.268 232.43 423.101 242.881 428.202 250.617C433.303 258.352 443.751 260.519 451.485 255.417C459.218 250.315 461.385 239.864 456.284 232.129C451.183 224.393 440.735 222.226 433.001 227.328Z" fill="#FFA412"/>
<path d="M462.29 288.333L461.906 294.367L460.452 316.696H433.276L431.685 294.669L431.246 288.607L431.219 288.333H462.29Z" fill="#B4C9F7"/>
<path d="M462.291 288.333L461.907 294.34C459.85 293.627 454.173 291.926 446.769 291.926C437.417 291.926 431.686 294.669 431.686 294.669L431.247 288.607L462.291 288.333Z" fill="#9BB8EA"/>
<path d="M463.222 291.515H430.232L429.848 287.674H463.661L463.222 291.515Z" fill="#B4C9F7"/>
<path d="M460.864 317.875H432.7L432.371 316.531H461.221L460.864 317.875Z" fill="#B4C9F7"/>
<path d="M168.584 311.127V315.9C168.584 316.284 168.447 316.641 168.2 316.915C167.954 317.217 167.597 317.463 167.158 317.601C167.021 317.655 166.884 317.683 166.747 317.683C166.61 317.71 166.5 317.71 166.363 317.71H75.7554C74.5762 317.71 73.6164 316.942 73.5615 315.955C73.5615 315.927 73.5615 315.9 73.5615 315.873V311.1C73.5615 311.072 73.5615 311.045 73.5615 311.017C73.6164 310.057 74.5762 309.262 75.7554 309.262H166.39C166.528 309.262 166.665 309.262 166.774 309.289C166.912 309.317 167.049 309.344 167.186 309.372C167.597 309.509 167.954 309.756 168.228 310.057C168.447 310.387 168.584 310.743 168.584 311.127Z" fill="#FFB93E"/>
<path d="M124.077 317.739H75.5369C74.4948 317.739 73.6447 316.971 73.5898 315.983C73.5898 315.956 73.5898 315.929 73.5898 315.901V311.128C73.5898 311.101 73.5898 311.073 73.5898 311.046C73.6447 310.086 74.4948 309.291 75.5369 309.291H118.126C118.811 311.759 120.402 315.215 124.077 317.739Z" fill="#FFA412"/>
<path d="M157.588 309.289H156.546V317.765H157.588V309.289Z" fill="#FFA412"/>
<path d="M154.106 309.289H153.063V317.765H154.106V309.289Z" fill="#FFA412"/>
<path d="M149.909 309.289H148.867V317.765H149.909V309.289Z" fill="#FFA412"/>
<path d="M143.494 309.289H142.452V317.765H143.494V309.289Z" fill="#FFA412"/>
<path d="M136.719 309.289H135.677V317.765H136.719V309.289Z" fill="#FFA412"/>
<path d="M126.326 309.289H125.284V317.765H126.326V309.289Z" fill="#FFA412"/>
<path d="M116.591 309.289H115.549V317.765H116.591V309.289Z" fill="#FFA412"/>
<path d="M107.924 309.29H106.882V317.766H107.924V309.29Z" fill="#FFA412"/>
<path d="M160.906 309.289H159.864V317.765H160.906V309.289Z" fill="#FFA412"/>
<path d="M163.1 309.289H162.058V317.765H163.1V309.289Z" fill="#FFA412"/>
<path d="M165.212 309.289H164.17V317.765H165.212V309.289Z" fill="#FFA412"/>
<path d="M166.804 309.317V317.71C166.667 317.738 166.557 317.738 166.42 317.738H165.789V309.262H166.42C166.529 309.289 166.667 309.289 166.804 309.317Z" fill="#FFA412"/>
<path d="M168.23 310.085V316.915C167.983 317.217 167.626 317.463 167.188 317.601V309.372C167.626 309.536 167.983 309.783 168.23 310.085Z" fill="#FFA412"/>
<path d="M158.905 302.651V307.424C158.905 307.808 158.768 308.165 158.521 308.439C158.274 308.741 157.917 308.988 157.479 309.125C157.342 309.18 157.204 309.207 157.067 309.207C156.93 309.235 156.82 309.235 156.683 309.235H66.0757C64.8965 309.235 63.9367 308.467 63.8818 307.479C63.8818 307.452 63.8818 307.424 63.8818 307.397V302.624C63.8818 302.596 63.8818 302.569 63.8818 302.542C63.9367 301.582 64.8965 300.786 66.0757 300.786H156.711C156.766 300.786 156.82 300.786 156.875 300.786C156.903 300.786 156.93 300.786 156.958 300.786C156.985 300.786 157.012 300.786 157.04 300.786C157.067 300.786 157.067 300.786 157.095 300.786C157.232 300.814 157.369 300.841 157.506 300.868C157.534 300.868 157.534 300.868 157.561 300.896C157.588 300.896 157.588 300.896 157.616 300.923C157.643 300.951 157.698 300.951 157.725 300.978C157.753 300.978 157.78 301.006 157.78 301.006C157.808 301.006 157.808 301.033 157.835 301.033C157.863 301.06 157.917 301.06 157.945 301.088C157.972 301.115 158.027 301.143 158.055 301.17C158.082 301.198 158.109 301.198 158.137 301.225C158.164 301.225 158.164 301.252 158.192 301.28C158.247 301.335 158.301 301.362 158.356 301.417C158.384 301.444 158.384 301.444 158.411 301.472C158.438 301.499 158.438 301.499 158.466 301.527C158.493 301.554 158.521 301.582 158.548 301.609C158.768 301.911 158.905 302.267 158.905 302.651Z" fill="#FFB93E"/>
<path d="M114.396 309.291H65.8289C64.7868 309.291 63.9367 308.522 63.8818 307.535C63.8818 307.508 63.8818 307.48 63.8818 307.453V302.68C63.8818 302.652 63.8818 302.625 63.8818 302.598C63.9367 301.638 64.7868 300.842 65.8289 300.842H108.418C108.445 300.924 108.445 300.979 108.473 301.061C109.213 303.503 110.804 306.822 114.396 309.291Z" fill="#FFA412"/>
<path d="M147.879 300.813H146.837V309.289H147.879V300.813Z" fill="#FFA412"/>
<path d="M144.396 300.813H143.354V309.289H144.396V300.813Z" fill="#FFA412"/>
<path d="M140.229 300.813H139.187V309.289H140.229V300.813Z" fill="#FFA412"/>
<path d="M133.81 300.813H132.768V309.289H133.81V300.813Z" fill="#FFA412"/>
<path d="M127.036 300.813H125.994V309.289H127.036V300.813Z" fill="#FFA412"/>
<path d="M116.644 300.813H115.602V309.289H116.644V300.813Z" fill="#FFA412"/>
<path d="M106.908 300.813H105.866V309.289H106.908V300.813Z" fill="#FFA412"/>
<path d="M98.2179 300.814H97.1758V309.29H98.2179V300.814Z" fill="#FFA412"/>
<path d="M151.196 300.813H150.154V309.289H151.196V300.813Z" fill="#FFA412"/>
<path d="M153.39 300.813H152.348V309.289H153.39V300.813Z" fill="#FFA412"/>
<path d="M155.529 300.813H154.487V309.289H155.529V300.813Z" fill="#FFA412"/>
<path d="M157.093 300.841V309.234C156.956 309.262 156.846 309.262 156.709 309.262H156.078V300.786H156.709C156.846 300.813 156.983 300.813 157.093 300.841Z" fill="#FFA412"/>
<path d="M158.519 301.636V308.466C158.272 308.768 157.915 309.015 157.477 309.152V300.923C157.915 301.088 158.272 301.307 158.519 301.636Z" fill="#FFA412"/>
<path d="M163.599 294.395V299.168C163.599 299.552 163.462 299.909 163.215 300.183C162.968 300.485 162.612 300.732 162.173 300.869C162.036 300.924 161.899 300.951 161.762 300.951C161.624 300.978 161.515 300.978 161.378 300.978H70.7701C70.4136 300.978 70.057 300.896 69.7554 300.759C69.1246 300.485 68.6584 299.936 68.5762 299.305C68.5762 299.278 68.5762 299.25 68.5762 299.223C68.5762 299.195 68.5762 299.168 68.5762 299.141V294.368C68.5762 294.34 68.5762 294.313 68.5762 294.285C68.631 293.325 69.5908 292.53 70.7701 292.53H161.405C161.542 292.53 161.679 292.53 161.789 292.557C161.926 292.585 162.063 292.612 162.2 292.64C162.612 292.777 162.968 293.024 163.242 293.325C163.462 293.682 163.599 294.011 163.599 294.395Z" fill="#FFB93E"/>
<path d="M119.087 301.033H70.5194C70.1903 301.033 69.8886 300.951 69.6144 300.814C69.0385 300.54 68.6271 299.991 68.5723 299.36C68.5723 299.333 68.5723 299.305 68.5723 299.278C68.5723 299.25 68.5723 299.223 68.5723 299.196V294.423C68.5723 294.395 68.5723 294.368 68.5723 294.34C68.6271 293.38 69.4773 292.585 70.5194 292.585H113.108C113.766 294.999 115.275 298.345 118.785 300.841C118.895 300.896 118.977 300.951 119.087 301.033Z" fill="#FFA412"/>
<path d="M152.569 292.557H151.527V301.033H152.569V292.557Z" fill="#FFA412"/>
<path d="M149.088 292.557H148.046V301.033H149.088V292.557Z" fill="#FFA412"/>
<path d="M144.892 292.557H143.85V301.033H144.892V292.557Z" fill="#FFA412"/>
<path d="M138.502 292.557H137.46V301.033H138.502V292.557Z" fill="#FFA412"/>
<path d="M131.728 292.557H130.686V301.033H131.728V292.557Z" fill="#FFA412"/>
<path d="M121.336 292.557H120.294V301.033H121.336V292.557Z" fill="#FFA412"/>
<path d="M111.6 292.557H110.558V301.033H111.6V292.557Z" fill="#FFA412"/>
<path d="M102.906 292.557H101.864V301.033H102.906V292.557Z" fill="#FFA412"/>
<path d="M155.889 292.557H154.847V301.033H155.889V292.557Z" fill="#FFA412"/>
<path d="M158.082 292.557H157.04V301.033H158.082V292.557Z" fill="#FFA412"/>
<path d="M160.195 292.557H159.153V301.033H160.195V292.557Z" fill="#FFA412"/>
<path d="M161.787 292.584V300.978C161.65 301.005 161.54 301.005 161.403 301.005H160.772V292.53H161.403C161.54 292.557 161.65 292.584 161.787 292.584Z" fill="#FFA412"/>
<path d="M163.211 293.38V300.21C162.964 300.512 162.608 300.759 162.169 300.896V292.667C162.608 292.831 162.964 293.078 163.211 293.38Z" fill="#FFA412"/>
<path d="M165.76 285.946V290.719C165.76 291.103 165.623 291.459 165.376 291.734C165.129 292.035 164.773 292.282 164.334 292.419C164.197 292.474 164.06 292.502 163.923 292.502C163.786 292.529 163.676 292.529 163.539 292.529H72.9312C71.752 292.529 70.7922 291.761 70.7373 290.774C70.7373 290.746 70.7373 290.719 70.7373 290.691V285.918C70.7373 285.891 70.7373 285.864 70.7373 285.836C70.7922 284.931 71.6149 284.218 72.657 284.108C72.7392 284.108 72.8215 284.108 72.9038 284.108H163.539C163.676 284.108 163.813 284.108 163.923 284.136C164.06 284.163 164.197 284.19 164.334 284.218C164.745 284.355 165.102 284.602 165.376 284.904C165.623 285.205 165.76 285.562 165.76 285.946Z" fill="#FFB93E"/>
<path d="M121.252 292.556H72.6844C71.6423 292.556 70.7922 291.788 70.7373 290.801C70.7373 290.773 70.7373 290.746 70.7373 290.719V285.946C70.7373 285.918 70.7373 285.891 70.7373 285.863C70.7922 284.958 71.5326 284.245 72.465 284.135C72.5473 284.135 72.6295 284.135 72.6844 284.135H115.273C115.986 286.604 117.549 290.033 121.252 292.556Z" fill="#FFA412"/>
<path d="M154.736 284.108H153.694V292.584H154.736V284.108Z" fill="#FFA412"/>
<path d="M151.254 284.108H150.212V292.584H151.254V284.108Z" fill="#FFA412"/>
<path d="M147.087 284.108H146.045V292.584H147.087V284.108Z" fill="#FFA412"/>
<path d="M140.667 284.108H139.625V292.584H140.667V284.108Z" fill="#FFA412"/>
<path d="M133.894 284.108H132.852V292.584H133.894V284.108Z" fill="#FFA412"/>
<path d="M123.501 284.108H122.459V292.584H123.501V284.108Z" fill="#FFA412"/>
<path d="M113.767 284.108H112.725V292.584H113.767V284.108Z" fill="#FFA412"/>
<path d="M105.073 284.109H104.031V292.585H105.073V284.109Z" fill="#FFA412"/>
<path d="M158.054 284.108H157.012V292.584H158.054V284.108Z" fill="#FFA412"/>
<path d="M160.248 284.108H159.206V292.584H160.248V284.108Z" fill="#FFA412"/>
<path d="M162.361 284.108H161.319V292.584H162.361V284.108Z" fill="#FFA412"/>
<path d="M163.951 284.136V292.53C163.814 292.557 163.704 292.557 163.567 292.557H162.937V284.081H163.567C163.704 284.109 163.841 284.109 163.951 284.136Z" fill="#FFA412"/>
<path d="M165.376 284.904V291.734C165.129 292.036 164.773 292.283 164.334 292.42V284.191C164.773 284.355 165.129 284.602 165.376 284.904Z" fill="#FFA412"/>
<path d="M159.095 277.498V282.271C159.095 282.655 158.958 283.012 158.711 283.286C158.464 283.588 158.108 283.834 157.669 283.972C157.532 284.027 157.395 284.054 157.258 284.054C157.203 284.054 157.175 284.054 157.121 284.081C157.093 284.081 157.066 284.081 157.038 284.081C157.011 284.081 156.983 284.081 156.956 284.081C156.929 284.081 156.874 284.081 156.846 284.081H66.2662C65.0869 284.081 64.1271 283.313 64.0723 282.326C64.0723 282.298 64.0723 282.271 64.0723 282.244V277.471C64.0723 277.443 64.0723 277.416 64.0723 277.388C64.0723 277.361 64.0723 277.334 64.0723 277.306C64.1545 276.538 64.8401 275.88 65.7177 275.688C65.7451 275.688 65.7725 275.688 65.7725 275.688C65.9371 275.66 66.0742 275.633 66.2387 275.633H156.874C156.929 275.633 157.011 275.633 157.066 275.633C157.093 275.633 157.121 275.633 157.148 275.633C157.175 275.633 157.203 275.633 157.258 275.66C157.395 275.688 157.532 275.715 157.669 275.743C158.08 275.88 158.437 276.127 158.711 276.428C158.958 276.758 159.095 277.114 159.095 277.498Z" fill="#FFB93E"/>
<path d="M114.587 284.109H66.0193C64.9772 284.109 64.1271 283.341 64.0723 282.353C64.0723 282.326 64.0723 282.298 64.0723 282.271V277.498C64.0723 277.471 64.0723 277.443 64.0723 277.416C64.0723 277.388 64.0723 277.361 64.0723 277.334C64.1545 276.538 64.7853 275.88 65.5806 275.715C65.608 275.715 65.6354 275.715 65.6628 275.688C65.7725 275.66 65.8822 275.66 66.0193 275.66H108.608C108.608 275.688 108.608 275.688 108.636 275.715C109.321 278.184 110.912 281.585 114.587 284.109C114.559 284.109 114.587 284.109 114.587 284.109Z" fill="#FFA412"/>
<path d="M148.069 275.66H147.027V284.136H148.069V275.66Z" fill="#FFA412"/>
<path d="M144.587 275.66H143.545V284.136H144.587V275.66Z" fill="#FFA412"/>
<path d="M140.418 275.66H139.376V284.136H140.418V275.66Z" fill="#FFA412"/>
<path d="M134.001 275.66H132.959V284.136H134.001V275.66Z" fill="#FFA412"/>
<path d="M127.228 275.66H126.186V284.136H127.228V275.66Z" fill="#FFA412"/>
<path d="M116.834 275.66H115.792V284.136H116.834V275.66Z" fill="#FFA412"/>
<path d="M107.098 275.66H106.056V284.136H107.098V275.66Z" fill="#FFA412"/>
<path d="M98.4064 275.661H97.3643V284.137H98.4064V275.661Z" fill="#FFA412"/>
<path d="M151.388 275.66H150.346V284.136H151.388V275.66Z" fill="#FFA412"/>
<path d="M153.581 275.66H152.539V284.136H153.581V275.66Z" fill="#FFA412"/>
<path d="M155.692 275.66H154.65V284.136H155.692V275.66Z" fill="#FFA412"/>
<path d="M157.284 275.687V284.081C157.147 284.109 157.037 284.109 156.9 284.109H156.27V275.633H156.9C157.037 275.66 157.174 275.66 157.284 275.687Z" fill="#FFA412"/>
<path d="M158.709 276.455V283.286C158.462 283.587 158.106 283.834 157.667 283.971V275.77C158.106 275.907 158.462 276.154 158.709 276.455Z" fill="#FFA412"/>
<path d="M158.903 269.077V273.85C158.903 274.234 158.766 274.59 158.519 274.865C158.272 275.166 157.915 275.413 157.477 275.55C157.367 275.578 157.257 275.605 157.175 275.633C157.148 275.633 157.12 275.633 157.093 275.66C156.956 275.688 156.846 275.688 156.709 275.688H66.0738C65.9915 275.688 65.8818 275.688 65.7995 275.66C65.7721 275.66 65.7173 275.66 65.6898 275.633C64.7026 275.496 63.9347 274.782 63.8799 273.905C63.8799 273.877 63.8799 273.85 63.8799 273.822V269.049C63.8799 269.022 63.8799 268.995 63.8799 268.967C63.9347 268.007 64.8946 267.212 66.0738 267.212H156.709C156.764 267.212 156.819 267.212 156.873 267.212C156.901 267.212 156.928 267.212 156.956 267.212C156.983 267.212 157.011 267.212 157.038 267.212C157.065 267.212 157.065 267.212 157.093 267.212C157.23 267.239 157.367 267.267 157.504 267.294C157.532 267.294 157.532 267.294 157.559 267.321C157.586 267.321 157.586 267.321 157.614 267.349C157.641 267.376 157.696 267.376 157.724 267.404C157.751 267.431 157.806 267.431 157.833 267.459C157.861 267.486 157.915 267.486 157.943 267.513C157.97 267.541 158.025 267.568 158.053 267.596C158.08 267.623 158.107 267.623 158.135 267.651C158.162 267.651 158.162 267.678 158.19 267.705C158.245 267.76 158.299 267.788 158.354 267.843C158.382 267.87 158.382 267.87 158.409 267.897C158.437 267.925 158.437 267.925 158.464 267.952C158.491 267.98 158.519 268.007 158.546 268.035C158.766 268.364 158.903 268.693 158.903 269.077Z" fill="#FFB93E"/>
<path d="M114.395 275.717H65.828C65.8006 275.717 65.7458 275.717 65.7183 275.717C65.6635 275.717 65.6361 275.717 65.5812 275.717C64.6488 275.607 63.9084 274.866 63.8535 273.989C63.8535 273.961 63.8535 273.934 63.8535 273.906V269.133C63.8535 269.106 63.8535 269.079 63.8535 269.051C63.9084 268.091 64.7585 267.296 65.8006 267.296H108.389C108.417 267.378 108.417 267.433 108.444 267.515C109.157 269.956 110.72 273.248 114.258 275.717C114.34 275.662 114.368 275.689 114.395 275.717Z" fill="#FFA412"/>
<path d="M147.879 267.239H146.837V275.715H147.879V267.239Z" fill="#FFA412"/>
<path d="M144.396 267.239H143.354V275.715H144.396V267.239Z" fill="#FFA412"/>
<path d="M140.228 267.239H139.186V275.715H140.228V267.239Z" fill="#FFA412"/>
<path d="M133.81 267.239H132.768V275.715H133.81V267.239Z" fill="#FFA412"/>
<path d="M127.036 267.239H125.994V275.715H127.036V267.239Z" fill="#FFA412"/>
<path d="M116.644 267.239H115.602V275.715H116.644V267.239Z" fill="#FFA412"/>
<path d="M106.908 267.239H105.866V275.715H106.908V267.239Z" fill="#FFA412"/>
<path d="M98.215 267.239H97.1729V275.715H98.215V267.239Z" fill="#FFA412"/>
<path d="M151.196 267.239H150.154V275.715H151.196V267.239Z" fill="#FFA412"/>
<path d="M153.39 267.239H152.348V275.715H153.39V267.239Z" fill="#FFA412"/>
<path d="M155.529 267.239H154.487V275.715H155.529V267.239Z" fill="#FFA412"/>
<path d="M157.093 267.266V275.66C156.956 275.688 156.846 275.688 156.709 275.688H156.078V267.212H156.709C156.846 267.239 156.983 267.266 157.093 267.266Z" fill="#FFA412"/>
<path d="M158.52 268.062V274.892C158.273 275.194 157.916 275.441 157.478 275.578V267.349C157.916 267.513 158.273 267.76 158.52 268.062Z" fill="#FFA412"/>
<path d="M163.599 260.82V265.593C163.599 265.977 163.462 266.334 163.215 266.608C162.968 266.91 162.612 267.157 162.173 267.294C162.036 267.349 161.899 267.376 161.762 267.376C161.624 267.404 161.515 267.404 161.378 267.404H70.7701C70.4136 267.404 70.057 267.321 69.7554 267.184C69.1246 266.91 68.6584 266.361 68.5762 265.73C68.5762 265.703 68.5762 265.676 68.5762 265.648C68.5762 265.621 68.5762 265.593 68.5762 265.566V260.793C68.5762 260.766 68.5762 260.738 68.5762 260.711C68.631 259.751 69.5908 258.955 70.7701 258.955H161.405C161.542 258.955 161.679 258.955 161.789 258.983C161.926 259.01 162.063 259.037 162.2 259.065C162.612 259.202 162.968 259.449 163.242 259.751C163.462 260.107 163.599 260.436 163.599 260.82Z" fill="#FFB93E"/>
<path d="M119.088 267.459H70.5203C70.1912 267.459 69.8896 267.377 69.6153 267.24C69.0394 266.965 68.6281 266.417 68.5732 265.786C68.5732 265.758 68.5732 265.731 68.5732 265.703C68.5732 265.676 68.5732 265.649 68.5732 265.621V260.848C68.5732 260.821 68.5732 260.793 68.5732 260.766C68.6281 259.806 69.4782 259.01 70.5203 259.01H113.109C113.767 261.424 115.276 264.771 118.786 267.267C118.896 267.322 118.978 267.377 119.088 267.459Z" fill="#FFA412"/>
<path d="M152.569 258.983H151.527V267.459H152.569V258.983Z" fill="#FFA412"/>
<path d="M149.088 258.983H148.046V267.459H149.088V258.983Z" fill="#FFA412"/>
<path d="M144.892 258.983H143.85V267.459H144.892V258.983Z" fill="#FFA412"/>
<path d="M138.502 258.983H137.46V267.459H138.502V258.983Z" fill="#FFA412"/>
<path d="M131.728 258.983H130.686V267.459H131.728V258.983Z" fill="#FFA412"/>
<path d="M121.336 258.983H120.294V267.459H121.336V258.983Z" fill="#FFA412"/>
<path d="M111.6 258.983H110.558V267.459H111.6V258.983Z" fill="#FFA412"/>
<path d="M102.906 258.983H101.864V267.459H102.906V258.983Z" fill="#FFA412"/>
<path d="M155.889 258.983H154.847V267.459H155.889V258.983Z" fill="#FFA412"/>
<path d="M158.082 258.983H157.04V267.459H158.082V258.983Z" fill="#FFA412"/>
<path d="M160.195 258.983H159.153V267.459H160.195V258.983Z" fill="#FFA412"/>
<path d="M161.787 259.01V267.404C161.65 267.431 161.54 267.431 161.403 267.431H160.772V258.983H161.403C161.54 258.983 161.65 259.01 161.787 259.01Z" fill="#FFA412"/>
<path d="M163.211 259.806V266.636C162.964 266.937 162.608 267.184 162.169 267.321V259.092C162.608 259.257 162.964 259.504 163.211 259.806Z" fill="#FFA412"/>
<path d="M170.997 252.371V257.144C170.997 257.528 170.86 257.885 170.613 258.159C170.367 258.461 170.01 258.708 169.571 258.845C169.434 258.9 169.297 258.927 169.16 258.927C169.023 258.955 168.913 258.955 168.776 258.955H78.1685C76.9893 258.955 76.0295 258.187 75.9746 257.199C75.9746 257.172 75.9746 257.144 75.9746 257.117V252.344C75.9746 252.317 75.9746 252.289 75.9746 252.262C76.0295 251.357 76.8522 250.643 77.8943 250.534C77.9765 250.534 78.0588 250.534 78.1411 250.534H168.776C168.913 250.534 169.05 250.534 169.16 250.561C169.297 250.589 169.434 250.616 169.571 250.643C169.983 250.781 170.339 251.027 170.613 251.329C170.86 251.631 170.997 251.987 170.997 252.371Z" fill="#FFB93E"/>
<path d="M126.489 258.983H77.9217C76.8796 258.983 76.0295 258.214 75.9746 257.227C75.9746 257.2 75.9746 257.172 75.9746 257.145V252.372C75.9746 252.344 75.9746 252.317 75.9746 252.29C76.0295 251.384 76.7699 250.671 77.7023 250.562C77.7846 250.562 77.8668 250.562 77.9217 250.562H120.511C121.196 253.03 122.787 256.459 126.489 258.983Z" fill="#FFA412"/>
<path d="M159.973 250.534H158.931V259.01H159.973V250.534Z" fill="#FFA412"/>
<path d="M156.49 250.534H155.448V259.01H156.49V250.534Z" fill="#FFA412"/>
<path d="M152.324 250.534H151.282V259.01H152.324V250.534Z" fill="#FFA412"/>
<path d="M145.904 250.534H144.862V259.01H145.904V250.534Z" fill="#FFA412"/>
<path d="M139.13 250.534H138.088V259.01H139.13V250.534Z" fill="#FFA412"/>
<path d="M128.737 250.534H127.695V259.01H128.737V250.534Z" fill="#FFA412"/>
<path d="M119.002 250.534H117.96V259.01H119.002V250.534Z" fill="#FFA412"/>
<path d="M110.31 250.535H109.268V259.011H110.31V250.535Z" fill="#FFA412"/>
<path d="M163.29 250.534H162.248V259.01H163.29V250.534Z" fill="#FFA412"/>
<path d="M165.484 250.534H164.442V259.01H165.484V250.534Z" fill="#FFA412"/>
<path d="M167.598 250.534H166.556V259.01H167.598V250.534Z" fill="#FFA412"/>
<path d="M169.187 250.561V258.955C169.049 258.983 168.94 258.983 168.803 258.983H168.172V250.507H168.803C168.94 250.534 169.049 250.534 169.187 250.561Z" fill="#FFA412"/>
<path d="M170.612 251.33V258.16C170.366 258.461 170.009 258.708 169.57 258.845V250.616C170.009 250.781 170.366 251.028 170.612 251.33Z" fill="#FFA412"/>
<path d="M159.095 243.924V248.696C159.095 249.081 158.958 249.437 158.711 249.711C158.464 250.013 158.108 250.26 157.669 250.397C157.532 250.452 157.395 250.479 157.258 250.479C157.203 250.479 157.175 250.479 157.121 250.507C157.093 250.507 157.066 250.507 157.011 250.507C156.983 250.507 156.983 250.507 156.956 250.507C156.929 250.507 156.874 250.507 156.846 250.507H66.2662C65.0869 250.507 64.1271 249.739 64.0723 248.751C64.0723 248.724 64.0723 248.696 64.0723 248.669V243.896C64.0723 243.869 64.0723 243.841 64.0723 243.814C64.1271 242.854 65.0869 242.058 66.2662 242.058H156.901C156.929 242.058 156.983 242.058 157.011 242.058C157.093 242.058 157.203 242.058 157.285 242.086C157.422 242.113 157.559 242.141 157.696 242.168C157.751 242.196 157.834 242.223 157.888 242.25C157.916 242.278 157.971 242.278 157.998 242.305C158.026 242.333 158.08 242.333 158.108 242.36C158.108 242.36 158.108 242.36 158.135 242.36C158.163 242.388 158.19 242.388 158.245 242.415C158.327 242.47 158.382 242.525 158.464 242.58C158.492 242.607 158.519 242.607 158.519 242.634L158.547 242.662C158.574 242.689 158.601 242.717 158.601 242.717C158.629 242.744 158.656 242.772 158.684 242.826C158.958 243.183 159.095 243.54 159.095 243.924Z" fill="#FFB93E"/>
<path d="M114.587 250.535H66.0193C64.9772 250.535 64.1271 249.767 64.0723 248.779C64.0723 248.752 64.0723 248.724 64.0723 248.697V243.924C64.0723 243.896 64.0723 243.869 64.0723 243.842C64.1271 242.882 64.9772 242.086 66.0193 242.086H108.608C108.636 242.141 108.636 242.223 108.663 242.278C109.376 244.747 110.967 248.066 114.587 250.535C114.559 250.535 114.587 250.535 114.587 250.535Z" fill="#FFA412"/>
<path d="M148.069 242.086H147.027V250.562H148.069V242.086Z" fill="#FFA412"/>
<path d="M144.587 242.086H143.545V250.562H144.587V242.086Z" fill="#FFA412"/>
<path d="M140.418 242.086H139.376V250.562H140.418V242.086Z" fill="#FFA412"/>
<path d="M134.001 242.086H132.959V250.562H134.001V242.086Z" fill="#FFA412"/>
<path d="M127.228 242.086H126.186V250.562H127.228V242.086Z" fill="#FFA412"/>
<path d="M116.834 242.086H115.792V250.562H116.834V242.086Z" fill="#FFA412"/>
<path d="M107.098 242.086H106.056V250.562H107.098V242.086Z" fill="#FFA412"/>
<path d="M98.4064 242.086H97.3643V250.562H98.4064V242.086Z" fill="#FFA412"/>
<path d="M151.388 242.086H150.346V250.562H151.388V242.086Z" fill="#FFA412"/>
<path d="M153.581 242.086H152.539V250.562H153.581V242.086Z" fill="#FFA412"/>
<path d="M155.692 242.086H154.65V250.562H155.692V242.086Z" fill="#FFA412"/>
<path d="M157.284 242.113V250.507C157.147 250.534 157.037 250.534 156.9 250.534H156.27V242.058H156.9C157.037 242.086 157.174 242.086 157.284 242.113Z" fill="#FFA412"/>
<path d="M158.709 242.881V249.711C158.462 250.013 158.106 250.26 157.667 250.397V242.168C158.106 242.332 158.462 242.579 158.709 242.881Z" fill="#FFA412"/>
<path d="M165.762 235.64V240.413C165.762 240.797 165.625 241.153 165.378 241.428C165.131 241.729 164.775 241.976 164.336 242.113C164.199 242.168 164.062 242.196 163.925 242.196C163.788 242.223 163.678 242.223 163.541 242.223H72.9331C72.5766 242.223 72.2475 242.141 71.9459 242.031C71.2877 241.757 70.8215 241.208 70.7393 240.55C70.7393 240.523 70.7393 240.495 70.7393 240.468C70.7393 240.44 70.7393 240.413 70.7393 240.385V235.613C70.7393 235.585 70.7393 235.558 70.7393 235.53C70.7941 234.625 71.6168 233.912 72.6589 233.802C72.7412 233.802 72.8234 233.802 72.9057 233.802H163.541C163.678 233.802 163.815 233.802 163.925 233.83C164.062 233.857 164.199 233.884 164.336 233.912C164.747 234.049 165.104 234.296 165.378 234.598C165.625 234.927 165.762 235.256 165.762 235.64Z" fill="#FFB93E"/>
<path d="M121.254 242.279H72.6863C72.3847 242.279 72.083 242.197 71.8088 242.087C71.2054 241.813 70.7941 241.264 70.7393 240.606C70.7393 240.579 70.7393 240.551 70.7393 240.524C70.7393 240.496 70.7393 240.469 70.7393 240.442V235.669C70.7393 235.641 70.7393 235.614 70.7393 235.586C70.7941 234.681 71.5345 233.968 72.4669 233.858C72.5492 233.858 72.6315 233.858 72.6863 233.858H115.275C115.933 236.272 117.469 239.619 120.952 242.115C121.062 242.142 121.171 242.197 121.254 242.279Z" fill="#FFA412"/>
<path d="M154.738 233.802H153.696V242.278H154.738V233.802Z" fill="#FFA412"/>
<path d="M151.254 233.802H150.212V242.278H151.254V233.802Z" fill="#FFA412"/>
<path d="M147.088 233.802H146.046V242.278H147.088V233.802Z" fill="#FFA412"/>
<path d="M140.67 233.802H139.628V242.278H140.67V233.802Z" fill="#FFA412"/>
<path d="M133.895 233.802H132.853V242.278H133.895V233.802Z" fill="#FFA412"/>
<path d="M123.502 233.802H122.46V242.278H123.502V233.802Z" fill="#FFA412"/>
<path d="M113.767 233.802H112.725V242.278H113.767V233.802Z" fill="#FFA412"/>
<path d="M105.072 233.802H104.03V242.278H105.072V233.802Z" fill="#FFA412"/>
<path d="M158.057 233.802H157.015V242.278H158.057V233.802Z" fill="#FFA412"/>
<path d="M160.25 233.802H159.208V242.278H160.25V233.802Z" fill="#FFA412"/>
<path d="M162.361 233.802H161.319V242.278H162.361V233.802Z" fill="#FFA412"/>
<path d="M163.952 233.829V242.223C163.815 242.25 163.705 242.25 163.568 242.25H162.938V233.774H163.568C163.705 233.802 163.842 233.829 163.952 233.829Z" fill="#FFA412"/>
<path d="M165.377 234.625V241.455C165.13 241.756 164.774 242.003 164.335 242.141V233.939C164.774 234.076 165.13 234.295 165.377 234.625Z" fill="#FFA412"/>
<path d="M168.584 227.191V231.964C168.584 232.348 168.447 232.705 168.2 232.979C167.954 233.281 167.597 233.527 167.158 233.665C167.021 233.719 166.884 233.747 166.747 233.747C166.692 233.747 166.665 233.747 166.61 233.774C166.582 233.774 166.555 233.774 166.528 233.774C166.5 233.774 166.473 233.774 166.445 233.774C166.418 233.774 166.363 233.774 166.336 233.774H75.7554C74.5762 233.774 73.6164 233.006 73.5615 232.019C73.5615 231.991 73.5615 231.964 73.5615 231.937V227.164C73.5615 227.136 73.5615 227.109 73.5615 227.081C73.6164 226.121 74.5762 225.326 75.7554 225.326H166.39C166.528 225.326 166.665 225.326 166.774 225.353C166.912 225.381 167.049 225.408 167.186 225.436C167.597 225.573 167.954 225.82 168.228 226.121C168.447 226.451 168.584 226.807 168.584 227.191Z" fill="#FFB93E"/>
<path d="M124.076 233.83H75.536C74.4939 233.83 73.6437 233.062 73.5889 232.074C73.5889 232.047 73.5889 232.019 73.5889 231.992V227.219C73.5889 227.192 73.5889 227.164 73.5889 227.137C73.6437 226.177 74.4939 225.381 75.536 225.381H118.125C118.81 227.85 120.374 231.279 124.076 233.83C124.076 233.802 124.076 233.802 124.076 233.83Z" fill="#FFA412"/>
<path d="M157.588 225.353H156.546V233.829H157.588V225.353Z" fill="#FFA412"/>
<path d="M154.106 225.353H153.063V233.829H154.106V225.353Z" fill="#FFA412"/>
<path d="M149.909 225.353H148.867V233.829H149.909V225.353Z" fill="#FFA412"/>
<path d="M143.494 225.353H142.452V233.829H143.494V225.353Z" fill="#FFA412"/>
<path d="M136.719 225.353H135.677V233.829H136.719V225.353Z" fill="#FFA412"/>
<path d="M126.326 225.353H125.284V233.829H126.326V225.353Z" fill="#FFA412"/>
<path d="M116.591 225.353H115.549V233.829H116.591V225.353Z" fill="#FFA412"/>
<path d="M107.924 225.354H106.882V233.83H107.924V225.354Z" fill="#FFA412"/>
<path d="M160.906 225.353H159.864V233.829H160.906V225.353Z" fill="#FFA412"/>
<path d="M163.1 225.353H162.058V233.829H163.1V225.353Z" fill="#FFA412"/>
<path d="M165.212 225.353H164.17V233.829H165.212V225.353Z" fill="#FFA412"/>
<path d="M166.804 225.381V233.774C166.667 233.802 166.557 233.802 166.42 233.802H165.789V225.326H166.42C166.529 225.353 166.667 225.353 166.804 225.381Z" fill="#FFA412"/>
<path d="M168.23 226.176V233.006C167.983 233.308 167.626 233.555 167.188 233.692V225.463C167.626 225.628 167.983 225.847 168.23 226.176Z" fill="#FFA412"/>
<path d="M98.7796 305.137C115.604 288.308 115.604 261.023 98.7796 244.195C81.955 227.366 54.6769 227.366 37.8523 244.195C21.0277 261.023 21.0277 288.308 37.8523 305.136C54.6769 321.965 81.955 321.965 98.7796 305.137Z" fill="#E2810E"/>
<path d="M95.0218 305.136C111.846 288.307 111.846 261.023 95.0217 244.194C78.1971 227.366 50.9191 227.366 34.0945 244.194C17.2699 261.023 17.2699 288.307 34.0945 305.136C50.9191 321.964 78.1972 321.964 95.0218 305.136Z" fill="#FFB93E"/>
<path d="M64.5694 314.446C54.0936 314.446 44.221 310.359 36.8167 302.953C29.4123 295.547 25.3262 285.672 25.3262 275.194C25.3262 264.716 29.4123 254.841 36.8167 247.435C44.221 240.028 54.0936 235.941 64.5694 235.941C75.0452 235.941 84.9177 240.028 92.3221 247.435C99.7265 254.841 103.813 264.716 103.813 275.194C103.813 285.672 99.7265 295.547 92.3221 302.953C84.8903 310.359 75.0452 314.446 64.5694 314.446ZM64.5694 238.273C44.2211 238.273 27.6572 254.841 27.6572 275.194C27.6572 295.547 44.2211 312.115 64.5694 312.115C84.9177 312.115 101.482 295.547 101.482 275.194C101.454 254.841 84.9177 238.273 64.5694 238.273Z" fill="#FFA412"/>
<path d="M143.768 215.506C139.353 223.186 133.813 226.149 133.813 226.149H110.723C110.723 226.149 147.141 209.663 143.768 215.506Z" fill="#233862"/>
<path d="M126.053 274.919C125.45 275.605 125.368 276.373 125.669 277.196C126.218 278.705 128.028 280.406 130.139 282.106C130.414 282.326 130.66 282.518 130.852 282.71C130.907 282.765 130.962 282.819 131.017 282.847C131.072 282.874 131.099 282.929 131.154 282.957C133.128 284.767 132.388 285.178 135.926 288.881C139.957 293.078 142.727 293.161 143.522 292.776C144.18 292.447 142.836 290.226 141.328 287.729C141.246 287.62 141.191 287.482 141.109 287.373C140.917 287.044 140.697 286.714 140.505 286.358C138.75 283.341 139.189 281.942 139.6 277.443C139.93 273.795 145.277 257.09 145.277 257.09L137.544 255.746C137.544 255.746 135.213 269.049 132.662 271.107C131.291 272.204 129.755 272.204 128.439 273.027C128.357 273.082 128.247 273.137 128.165 273.191C127.424 273.713 126.656 274.234 126.053 274.919Z" fill="#FFB27D"/>
<path d="M126.053 274.92C125.45 275.605 125.368 276.373 125.669 277.196C126.355 278.705 128.11 280.406 130.167 282.106C130.441 282.326 130.66 282.518 130.88 282.71C130.935 282.765 130.989 282.819 131.044 282.847C131.099 282.874 131.127 282.929 131.181 282.957C133.156 284.767 132.415 285.178 135.953 288.881C139.984 293.078 142.754 293.161 143.549 292.777C144.208 292.447 142.864 290.226 141.356 287.729C140.56 287.455 136.913 285.946 134.171 282.435C131.73 279.336 130.112 275.358 128.466 273.027C128.384 273.082 128.274 273.137 128.192 273.191C127.424 273.713 126.656 274.234 126.053 274.92Z" fill="#E62452"/>
<path d="M188.414 270.092C188.88 272.478 192.28 272.094 196.092 271.162C199.904 270.229 198.999 271.326 204.402 270.75C209.804 270.174 211.449 268.144 211.614 267.321C211.751 266.608 209.091 266.361 206.212 266.032C205.855 266.005 205.499 265.95 205.115 265.895C201.879 265.484 199.493 263.399 196.558 261.671C193.761 260.052 189.62 253.414 189.62 253.414L182.188 253.99C182.188 253.99 186.083 259.915 187.591 262.466C188.468 263.975 188.441 265.977 188.331 267.513C188.277 268.391 188.222 269.241 188.414 270.092Z" fill="#FFB27D"/>
<path d="M196.094 271.162C199.906 270.229 199.001 271.326 204.403 270.75C209.806 270.174 211.451 268.144 211.616 267.321C211.753 266.608 209.093 266.361 206.213 266.032L206.186 266.087C206.186 266.087 202.95 268.391 198.425 268.501C194.75 268.583 190.856 267.541 188.333 267.568C188.278 268.419 188.223 269.269 188.388 270.119C188.882 272.478 192.282 272.094 196.094 271.162Z" fill="#E62452"/>
<path d="M159.975 222.638L153.037 241.318L143.988 265.703C143.988 265.703 141.519 265.95 139.188 265.264C137.022 264.633 134.526 262.987 134.526 262.987C134.526 262.987 137.049 236.819 141.739 221.787C142.945 217.92 144.289 214.82 145.77 213.065C153.037 204.452 159.975 222.638 159.975 222.638Z" fill="#1F1D40"/>
<path d="M152.927 192.986C148.374 191.532 135.43 193.397 122.404 195.948L119.689 191.45L91.5801 189.255C91.5801 189.255 82.3109 209.828 87.3842 222.967C88.1247 224.887 89.9895 225.71 92.5124 225.737C92.5124 225.737 109.296 226.149 114.726 226.149C128.712 226.149 144.316 216.521 146.345 216.137C149.663 215.479 150.98 222.089 154.27 229.029C157.589 235.969 185.341 259.778 185.341 259.778C185.341 259.778 189.619 259.833 191.375 259.147C193.267 258.434 193.952 257.501 193.952 257.501C193.952 257.501 163.156 196.305 152.927 192.986Z" fill="#1F1D40"/>
<path d="M116.672 108.858C114.56 107.596 112.504 107.431 111.27 107.459C110.365 107.486 109.487 107.404 108.582 107.294C97.9143 105.868 91.5246 121.338 91.1406 126.056C90.4551 134.697 85.8753 136.014 79.4308 141.445C66.5143 152.307 70.2987 164.925 77.374 169.615C81.5972 172.441 89.0839 169.615 89.0839 169.615C89.1936 169.698 109.514 158.259 119.524 152.746C134.497 150.579 122.705 112.451 116.672 108.858Z" fill="#233862"/>
<path d="M111.108 148.028C111.162 148.055 106.171 149.756 102.853 148.275C99.7267 146.903 97.3683 141.746 97.3957 141.746C98.8218 141.691 100.385 140.43 101.592 132.283L102.195 132.502L112.369 136.178C112.369 136.178 111.629 139.442 111.162 142.569C110.778 145.148 110.559 147.671 111.108 148.028Z" fill="#FFB27D"/>
<path d="M112.395 136.151C112.395 136.151 111.654 139.415 111.188 142.542C105.347 141.499 103.043 135.657 102.221 132.502L112.395 136.151Z" fill="#ED975D"/>
<path d="M113.905 139.415C113.905 139.415 99.974 137.55 101.263 128.882C102.552 120.214 101.647 114.152 110.587 114.975C119.527 115.798 120.761 119.363 121.035 122.353C121.31 125.343 117.553 139.662 113.905 139.415Z" fill="#FFB27D"/>
<path d="M120.54 117.608C120.54 117.608 111.627 125.288 105.539 125.919C99.4784 126.55 97.1748 124.603 97.1748 124.603C97.1748 124.603 100.74 121.64 102.906 116.84C103.537 115.414 104.881 114.453 106.417 114.316C110.75 113.932 118.977 113.768 120.54 117.608Z" fill="#233862"/>
<path d="M114.946 116.922C114.946 116.922 117.935 119.802 118.868 121.942C119.773 123.999 120.047 128.937 119.334 130.912C119.334 130.912 123.996 121.86 121.363 117.471C118.566 112.808 114.946 116.922 114.946 116.922Z" fill="#233862"/>
<path d="M122.845 168.573C122.434 196.799 122.735 190.901 119.636 193.562C118.896 194.193 116.812 194.604 114.042 194.769C105.404 195.345 90.1834 193.918 89.6075 192.327C87.6056 186.787 89.0316 185.086 87.3588 176.61C87.1942 175.705 86.9749 174.745 86.728 173.675C85.3294 167.86 83.9857 165.885 88.9219 156.531C93.392 148.055 98.0266 141.198 98.4379 141.445C110.23 148.439 111.162 142.569 111.162 142.569C111.162 142.569 123.037 154.803 122.845 168.573Z" fill="#C7131B"/>
<path d="M153.037 241.318L143.988 265.703C143.988 265.703 141.519 265.95 139.188 265.264C137.022 264.633 134.526 262.987 134.526 262.987C134.526 262.987 137.049 236.819 141.739 221.787L153.037 241.318Z" fill="#2F2C5E"/>
<path d="M111.161 142.542C111.161 142.542 123.282 144.599 124.708 149.811C126.134 155.023 134.499 185.717 134.499 185.717C134.499 185.717 128.328 186.814 125.476 183.989C122.624 181.136 115.576 157.574 115.576 157.574L111.161 142.542Z" fill="#C7131B"/>
<path d="M114.04 194.769C105.401 195.345 90.1811 193.918 89.6052 192.327C87.6033 186.787 89.0293 185.086 87.3564 176.61L91.5248 164.87C91.5248 164.87 90.8392 177.954 94.706 181.383C98.5727 184.812 110.502 188.021 112.367 190.901C113.272 192.273 113.875 193.644 114.04 194.769Z" fill="#B70000"/>
<path d="M104.142 189.255C104.142 189.255 112.67 187.363 114.042 188.103C115.413 188.871 118.786 191.614 119.197 192.574C119.609 193.534 116.126 191.834 115.001 191.532C114.261 191.34 112.341 191.998 111.381 192.328C107.35 193.672 104.882 192.986 104.882 192.986L104.142 189.255Z" fill="#FFB27D"/>
<path d="M98.4372 141.417C98.4372 141.417 86.9742 142.13 83.0252 147.644C77.4307 155.434 66.379 188.624 72.7139 193.068C79.8715 198.06 105.238 194.385 105.238 194.385C105.238 194.385 106.088 190.435 104.909 188.515C103.73 186.595 84.6431 183.522 83.7382 182.645C82.8606 181.767 94.7625 165.446 94.7625 162.813C94.7625 160.179 98.4372 141.417 98.4372 141.417Z" fill="#C7131B"/>
<path d="M114.479 190.49C114.479 190.49 116.262 192.794 116.865 193.068C117.469 193.342 117.825 193.288 117.825 193.288L116.619 191.121L114.479 190.49Z" fill="#FFB27D"/>
<path d="M114.041 188.131L119.251 190.654C119.251 190.654 119.032 191.011 118.401 190.983C117.771 190.956 116.153 190.353 116.153 190.353L114.041 188.131Z" fill="#FFB27D"/>
<path d="M116.837 196.607H157.945L170.34 165.857H129.26L116.837 196.607Z" fill="#D7D7D7"/>
<path d="M158.438 195.4H104.14V196.607H157.945L158.438 195.4Z" fill="#747474"/>
<path d="M147.579 181.218C147.881 180.149 147.277 179.271 146.18 179.271C145.111 179.271 143.959 180.149 143.658 181.218C143.356 182.288 143.959 183.166 145.056 183.166C146.153 183.166 147.277 182.316 147.579 181.218Z" fill="white"/>
<path d="M352.789 199.569C352.789 199.404 353.694 180.752 344.699 176.445L345.33 175.842C349.444 177.296 354.023 181.739 355.861 188.021C357.232 192.684 356.19 193.726 356.19 193.891L352.789 199.569Z" fill="#A4C8FC"/>
<path d="M329.26 162.621C329.26 162.621 328.218 172.221 333.264 176.308C338.282 180.395 347.469 177.405 347.469 177.405C347.469 177.405 348.511 167.805 343.465 163.718C338.447 159.631 329.26 162.621 329.26 162.621Z" fill="#A4C8FC"/>
<path d="M351.253 234.542C351.089 233.61 347.825 211.638 356.135 187.143C364.115 163.608 359.7 143.666 359.672 143.474H365.541C365.705 144.325 366.089 163.91 359.837 190.736C354.215 214.875 364.718 234.542 362.497 234.542H351.253Z" fill="#A4C8FC"/>
<path d="M363.594 169.698C363.621 169.56 366.418 153.486 373.987 151.649C370.614 152.087 366.336 154.501 363.923 159C362.14 162.346 362.771 163.279 362.744 163.416L363.594 169.698Z" fill="#A4C8FC"/>
<path d="M333.401 126.989C333.401 126.989 325.256 115.496 316.014 112.122C316.014 112.122 319.469 139.086 314.423 139.415C309.377 139.744 312.751 109.077 312.751 109.077C312.751 109.077 288.673 95.6912 278.882 96.0752C278.882 96.0752 292.731 123.012 287.74 122.106C282.749 121.174 267.035 93.826 267.035 93.826C267.035 93.826 241.888 87.6268 236.952 102.466C231.988 117.279 238.131 125.206 241.86 126.358C245.563 127.51 269.75 128.635 268.928 131.734C268.105 134.834 251.514 138.894 242.574 135.547C242.574 135.547 251.157 160.92 264.403 160.454C277.648 159.96 282.201 152.06 290.4 151.895C298.6 151.758 304.414 154.282 300.218 156.257C296.022 158.204 282.283 155.928 275.372 161.139C268.461 166.351 262.922 169.506 275.016 172.715C287.109 175.924 305.346 172.303 314.012 166.516C314.039 166.488 321.087 165.94 326.654 198.636C328.793 211.254 327.148 229.961 327.148 229.961L331.645 229.276C334.141 192.602 320.895 162.127 320.895 162.127C320.895 162.127 343.328 145.532 333.401 126.989Z" fill="#A4C8FC"/>
<path d="M406.786 175.376C406.786 175.376 379.747 164.02 389.427 143.337C389.427 143.337 397.572 130.39 407.417 126.194C407.417 126.194 405.25 155.626 410.763 155.708C416.275 155.791 410.817 122.737 410.817 122.737C410.817 122.737 436.157 106.828 446.77 106.636C446.77 106.636 433.332 136.672 438.68 135.383C444.027 134.093 459.44 103.481 459.44 103.481C459.44 103.481 486.315 95.2798 492.567 111.052C498.82 126.824 492.622 135.767 488.673 137.248C484.724 138.729 458.562 141.335 459.632 144.654C460.701 147.973 478.938 151.402 488.426 147.232C488.426 147.232 480.611 175.266 466.213 175.513C451.816 175.76 446.413 167.448 437.528 167.778C428.643 168.107 422.473 171.206 427.135 173.072C431.824 174.937 446.55 171.673 454.366 176.912C462.182 182.151 468.352 185.251 455.436 189.447C442.519 193.644 418.606 194.659 412.682 185.004C406.786 175.376 406.786 175.376 406.786 175.376Z" fill="#D2E3FC"/>
<path d="M480.61 117.553C480.61 117.553 412.024 148.686 406.786 175.376C406.786 175.376 408.431 186.869 402.81 200.913L403.385 205.988C403.385 205.988 408.898 187.856 412.682 185.004C412.682 185.031 394.226 164.431 480.61 117.553Z" fill="#A4C8FC"/>
<path d="M402.81 200.913C402.81 200.913 393.705 218.825 402.261 238.437L405.004 237.368C405.004 237.368 399.738 215.314 404.208 203.409C408.678 191.505 402.81 200.913 402.81 200.913Z" fill="#A4C8FC"/>
<path d="M378.266 156.175C374.399 157.244 369.901 153.267 369.901 153.267C369.901 153.267 371.711 147.534 375.578 146.464C379.445 145.395 383.942 149.372 383.942 149.372C383.942 149.372 382.16 155.077 378.266 156.175Z" fill="#A4C8FC"/>
<path d="M404.992 125.51C428.093 102.405 428.093 64.9426 404.992 41.8368C381.892 18.731 344.439 18.731 321.339 41.8368C298.238 64.9426 298.238 102.404 321.339 125.51C344.439 148.616 381.892 148.616 404.992 125.51Z" fill="#E2810E"/>
<path d="M399.878 126.171C422.979 103.065 422.979 65.6033 399.878 42.4975C376.778 19.3917 339.325 19.3917 316.224 42.4975C293.124 65.6033 293.124 103.065 316.224 126.171C339.325 149.277 376.778 149.277 399.878 126.171Z" fill="#FFB93E"/>
<path d="M364.88 138.51C350.592 140.32 336.469 136.425 325.116 127.62C313.735 118.787 306.495 106.06 304.685 91.7687C302.875 77.4777 306.769 63.3512 315.572 51.9951C324.403 40.6116 337.127 33.3701 351.415 31.5597C365.702 29.7493 379.826 33.6444 391.179 42.4494C402.56 51.2819 409.8 64.0095 411.61 78.3006C413.42 92.5916 409.525 106.718 400.722 118.074C391.865 129.458 379.14 136.699 364.88 138.51ZM351.799 34.7416C324.073 38.2252 304.356 63.6255 307.866 91.3573C311.349 119.089 336.743 138.811 364.468 135.3C392.194 131.817 411.911 106.416 408.401 78.6846C404.918 50.9528 379.524 31.258 351.799 34.7416Z" fill="#FFA412"/>
<path d="M410.35 228.837V228.892L409.171 246.996L404.783 314.282H322.951L318.124 247.928L316.78 229.632L316.726 228.837H410.35Z" fill="#3A6CDB"/>
<path d="M410.35 228.892L409.17 247.023C403 244.883 385.86 239.699 363.538 239.699C335.346 239.699 318.124 247.928 318.124 247.928L316.808 229.632L410.35 228.892Z" fill="#0048C2"/>
<path d="M413.202 238.41H313.764L312.612 226.862H414.464L413.202 238.41Z" fill="#3A6CDB"/>
<path d="M406.045 317.875H321.169L320.209 313.843H407.142L406.045 317.875Z" fill="#618DD8"/>
<path d="M259.25 280.405C259.168 279.994 257.714 270.092 261.444 259.092C265.037 248.504 263.035 239.535 263.035 239.452H265.667C265.722 239.836 265.914 248.641 263.117 260.711C260.594 271.573 265.311 280.405 264.296 280.405H259.25Z" fill="#A4C8FC"/>
<path d="M264.789 251.22C264.817 251.165 266.078 243.923 269.451 243.101C267.943 243.293 265.996 244.39 264.926 246.42C264.131 247.928 264.405 248.34 264.378 248.422L264.789 251.22Z" fill="#A4C8FC"/>
<path d="M258.508 249.519C258.508 249.519 255.19 244.115 251.131 242.333C251.131 242.333 251.899 254.539 249.623 254.539C247.347 254.539 249.733 240.879 249.733 240.879C249.733 240.879 239.312 234.186 234.896 234.049C234.896 234.049 240.326 246.557 238.132 245.981C235.911 245.432 229.658 232.677 229.658 232.677C229.658 232.677 218.552 229.166 215.892 235.667C213.232 242.168 215.755 245.898 217.4 246.529C219.018 247.16 229.85 248.34 229.384 249.711C228.918 251.083 221.349 252.427 217.455 250.644C217.455 250.644 220.581 262.274 226.532 262.439C232.483 262.603 234.759 259.175 238.461 259.367C242.136 259.531 244.687 260.848 242.74 261.616C240.792 262.384 234.704 260.958 231.441 263.097C228.178 265.237 225.6 266.498 230.947 268.281C236.268 270.092 244.577 268.967 248.636 266.636C248.636 266.636 251.844 266.581 253.38 281.42C253.983 287.153 252.694 295.492 252.694 295.492L254.724 295.327C256.89 278.952 251.844 264.88 251.844 264.88C251.844 264.88 262.43 258.132 258.508 249.519Z" fill="#A4C8FC"/>
<path d="M291.443 205.796C285.355 209.773 285.41 220.635 285.41 220.635C285.41 220.635 295.338 225.024 301.426 221.019C307.514 217.042 307.459 206.18 307.459 206.18C307.459 206.18 297.531 201.818 291.443 205.796Z" fill="#A4C8FC"/>
<path d="M291.443 205.794C285.355 209.771 285.41 220.633 285.41 220.633L307.459 206.178C307.459 206.205 297.531 201.816 291.443 205.794Z" fill="#D2E3FC"/>
<path d="M283.405 231.358C293.793 220.967 293.793 204.121 283.405 193.73C273.017 183.339 256.174 183.339 245.786 193.73C235.398 204.121 235.398 220.967 245.786 231.358C256.174 241.749 273.017 241.749 283.405 231.358Z" fill="#E2810E"/>
<path d="M264.033 239.378C278.693 238.421 289.802 225.757 288.845 211.094C287.888 196.43 275.228 185.318 260.568 186.275C245.907 187.232 234.798 199.896 235.755 214.559C236.712 229.223 249.372 240.335 264.033 239.378Z" fill="#FFB93E"/>
<path d="M265.364 237.203C258.946 237.999 252.584 236.271 247.483 232.293C242.383 228.316 239.119 222.61 238.297 216.164C237.501 209.746 239.229 203.382 243.205 198.28C247.182 193.178 252.913 189.914 259.33 189.091C265.748 188.295 272.11 190.023 277.211 194.001C282.311 197.978 285.575 203.711 286.397 210.13C287.22 216.548 285.465 222.912 281.489 228.014C277.512 233.116 271.781 236.38 265.364 237.203ZM259.495 190.517C247.017 192.081 238.159 203.519 239.723 215.972C241.286 228.453 252.721 237.313 265.172 235.749C277.649 234.186 286.507 222.748 284.944 210.294C283.381 197.814 271.945 188.954 259.495 190.517Z" fill="#FFA412"/>
<path d="M285.821 277.827V277.855L285.3 286.001L283.325 316.257H246.495L244.329 286.413L243.726 278.184L243.698 277.827H285.821Z" fill="#B4C9F7"/>
<path d="M285.821 277.855L285.3 286.001C282.53 285.041 274.824 282.71 264.787 282.71C252.117 282.71 244.356 286.413 244.356 286.413L243.753 278.184L285.821 277.855Z" fill="#9BB8EA"/>
<path d="M287.111 282.134H242.383L241.862 276.949H287.66L287.111 282.134Z" fill="#B4C9F7"/>
<path d="M283.874 317.875H245.7L245.262 316.065H284.368L283.874 317.875Z" fill="#B4C9F7"/>
<path d="M437.528 162.319C437.528 162.319 433.332 161.496 432.372 162.319C431.412 163.142 426.86 167.778 427.82 169.286C428.807 170.795 433.469 168.024 434.456 167.778C435.443 167.531 438.158 166.461 438.158 166.461L437.528 162.319Z" fill="#FFB27D"/>
<path d="M482.228 311.017L486.725 312.691C486.725 312.691 506.305 285.535 508.719 261.643C509.158 257.364 508.993 253.25 508.088 249.437C508.088 249.437 508.28 248.34 508.609 246.42C508.774 245.514 508.966 244.445 509.185 243.183C509.816 239.535 510.693 234.542 511.708 228.864C514.011 215.78 517.001 199.075 519.304 186.787L518.098 186.403L504.962 182.151L502.247 173.51L492.457 170.932C492.457 170.932 490.263 175.211 488.316 195.4C487.959 198.06 487.63 200.968 487.383 204.15C486.615 213.833 486.56 225.82 488.316 239.535C488.754 243.046 489.33 246.667 490.043 250.397C490.564 253.14 490.647 256.843 490.427 261.122C489.385 280.652 482.228 311.017 482.228 311.017Z" fill="#2B478B"/>
<path d="M487.355 204.15L508.609 246.392C508.773 245.487 508.965 244.417 509.185 243.155C509.815 239.507 510.693 234.515 511.708 228.837C514.011 215.753 517 199.048 519.304 186.759L518.097 186.375L504.961 182.124L502.247 173.483L492.456 170.905C492.456 170.905 490.262 175.184 488.315 195.372C487.931 198.033 487.602 200.968 487.355 204.15Z" fill="#233862"/>
<path d="M496.709 176.336L497.203 172.112C505.43 174.306 527.451 165.995 527.451 165.995C527.451 165.995 535.431 173.017 534.389 189.831C533.868 198.033 532.936 232.951 531.976 243.265C531.619 246.996 531.318 249.684 531.18 250.726C531.153 251.055 531.263 251.357 531.427 251.631C532.853 254.073 534.06 256.624 535.02 259.202C544.591 284.74 533.539 316.174 533.539 316.174L530.659 315.022C530.659 315.022 524.379 280.022 519.251 264.578C518.374 261.945 517.551 259.888 516.783 258.654C514.562 255.06 512.505 249.19 510.613 242.223C507.075 229.029 504.223 211.885 502.331 198.664C502.111 198.719 496.709 176.336 496.709 176.336Z" fill="#2B478B"/>
<path d="M437.527 162.319L438.131 166.461C438.131 166.461 438.405 166.461 438.871 166.434C440.379 166.324 444.027 166.132 448.14 165.693C454.338 165.09 461.715 163.992 464.649 162.182C469.119 159.439 476.442 151.1 481.241 142.734C481.378 142.542 481.487 142.323 481.57 142.131C484.065 137.687 485.793 133.298 485.93 129.787C486.04 127.647 485.793 125.782 485.354 124.191C484.778 122.079 483.818 120.406 482.831 119.144C482.694 118.952 482.557 118.733 482.365 118.568C480.72 116.621 479.129 115.798 479.129 115.798C478.306 115.468 477.429 115.853 476.496 116.867V116.895C475.756 117.69 474.933 118.87 474.138 120.378C474.11 120.406 474.083 120.433 474.083 120.488C473.919 120.79 473.754 121.147 473.535 121.503C473.48 121.558 473.425 121.668 473.397 121.75C473.014 122.545 472.657 123.341 472.273 124.219C468.077 133.353 463.607 147.205 459.878 151.347C458.287 153.13 450.938 156.614 445.096 159.192C440.955 160.948 437.527 162.319 437.527 162.319Z" fill="#FFB27D"/>
<path d="M480.938 125.151C483.516 126.358 486.643 127.181 490.427 127.373C504.605 128.141 507.814 115.715 508.39 107.486C506.36 106.746 504.55 106.828 503.536 106.883C502.521 106.938 501.479 107.047 500.629 107.157C498.901 106.252 495.775 101.863 493.992 94.4844L493.389 94.7587L483.16 99.5589C483.16 99.5589 484.257 102.878 485.052 106.06C485.683 108.556 486.122 110.97 485.738 111.628C484.942 111.957 484.449 112.149 484.449 112.149C484.339 112.451 482.118 118.129 480.938 125.151Z" fill="#FFB27D"/>
<path d="M477.401 134.45C477.511 134.724 477.62 134.999 477.757 135.3C481.35 143.036 487.986 175.047 487.986 175.047C487.054 180.807 531.234 173.922 531.343 168.683C532.906 163.115 525.831 154.2 521.827 149.729C521.334 149.153 520.867 148.549 520.483 147.918C519.496 146.327 518.866 144.517 518.674 142.624C517.878 135.191 518.18 128.223 518.125 123.999C517.357 123.423 516.589 122.875 515.876 122.381C514.807 121.585 513.847 120.872 513.161 120.132C512.394 119.309 511.9 118.486 511.845 117.553C511.818 116.84 511.818 116.127 511.9 115.386C511.927 115.057 511.982 114.7 512.037 114.371C512.585 110.778 514.094 107.514 514.094 107.514C510.282 105.978 503.536 106.883 503.536 106.883C503.536 106.883 503.536 107.267 503.536 107.87C503.563 110.339 503.536 116.675 502.74 117.882C501.753 119.364 483.654 125.919 482.694 123.889C481.761 121.887 484.339 112.561 484.421 112.204C478.361 114.591 476.194 116.593 476.194 116.593C479.869 118.952 474.576 126.962 477.401 134.45Z" fill="#C7131B"/>
<path d="M489.606 67.6578C489.634 67.0543 490.1 60.4162 500.192 60.0871C500.192 60.0871 495.228 60.6905 494.378 62.8575C494.378 62.8575 497.751 60.1694 500.493 61.0197C503.236 61.8975 504.854 66.6977 504.881 68.2887C504.909 69.8796 503.373 74.9816 501.618 75.4205C500.959 75.5851 500.192 75.5302 499.506 75.4205C499.972 76.1337 500.438 76.9566 500.85 77.8343C504.881 86.0908 500.713 94.1553 497.312 93.2775C495.118 92.7015 494.515 96.432 494.515 96.432L473.289 79.2607C473.316 79.2607 481.105 63.1318 489.606 67.6578Z" fill="#2C3A64"/>
<path d="M483.161 99.5864C483.161 99.5864 484.258 102.905 485.053 106.087C491.032 104.414 492.842 98.1326 493.39 94.7587L483.161 99.5864Z" fill="#ED985F"/>
<path d="M481.901 103.097C481.901 103.097 496.188 99.7784 493.994 90.9185C491.801 82.0586 492.157 75.6399 482.943 77.368C473.728 79.0961 472.796 82.9363 472.796 86.0634C472.823 89.2178 478.116 103.728 481.901 103.097Z" fill="#FFB27D"/>
<path d="M472 81.0437C473.536 77.8344 475.346 77.9989 476.47 78.575C483.189 72.3483 489.77 77.4503 489.77 77.4503C492.293 83.5673 497.805 86.0908 497.805 86.0908C497.805 86.0908 495.612 88.3401 489.249 88.2852C487.302 88.2578 485.355 87.38 483.573 86.1457C487.001 89.6019 491.032 91.714 491.032 91.714C483.052 90.1779 477.731 80.9614 477.183 79.9739C476.497 80.9614 475.208 83.1009 475.099 84.8839C474.962 87.3252 475.784 92.0431 474.386 92.2351C474.386 92.2077 469.696 85.8714 472 81.0437Z" fill="#2C3A64"/>
<path d="M476.222 116.566C476.222 116.566 472.767 122.573 472.273 124.109C472.273 124.109 476.743 123.944 478.553 127.373C478.526 127.373 478.965 117.388 476.222 116.566Z" fill="#EE1C25"/>
<path d="M499.889 164.294C508.61 164.212 515.987 155.16 520.512 147.918C519.525 146.327 518.894 144.517 518.702 142.624C517.907 135.191 518.208 128.223 518.154 123.999C517.386 123.423 516.618 122.875 515.905 122.381C514.835 121.585 513.875 120.872 513.19 120.132C506.032 132.173 488.07 164.431 499.889 164.294Z" fill="#B70000"/>
<path d="M466.953 169.039L468.16 173.401C468.16 173.401 469.668 173.126 472.054 172.688C472.767 172.55 473.178 172.441 473.178 172.441C475.098 172.057 477.374 171.563 479.87 171.014H479.897C484.148 169.999 488.947 168.765 492.951 167.394C495.775 166.406 498.243 165.336 499.916 164.294C500.081 164.184 500.218 164.102 500.382 163.965C504.386 161.057 509.103 152.526 512.805 143.392C513.326 142.13 513.793 140.869 514.259 139.634C515.959 135.054 517.33 130.555 518.153 126.66C518.674 124.328 519.003 122.216 519.085 120.488C519.113 119.885 519.168 119.281 519.113 118.76C519.058 108.858 514.122 107.514 514.122 107.514C514.012 107.486 513.93 107.459 513.793 107.404C512.943 107.267 512.065 107.843 511.133 108.967C509.981 110.366 508.747 112.643 507.485 115.414C505.538 119.802 503.481 125.508 501.589 131.186C500.52 134.285 499.505 137.385 498.49 140.265C497.914 141.993 497.339 143.639 496.79 145.148C495.721 148.001 494.788 150.332 493.938 151.813C493.389 152.773 491.826 154.09 489.742 155.599C486.122 158.232 480.829 161.386 476.222 163.992C474.303 165.089 472.493 166.077 471.012 166.9C468.544 168.189 466.953 169.039 466.953 169.039Z" fill="#FFB27D"/>
<path d="M507.486 115.414C514.041 113.603 519.114 118.733 519.114 118.733C519.032 108.858 514.123 107.514 514.123 107.514C512.121 106.691 509.845 110.12 507.486 115.414Z" fill="#EE1C25"/>
<path d="M516.864 318.588H539.571C539.571 318.588 540.119 315.132 538.94 312.499C537.816 309.975 536.033 308.823 536.445 305.778C534.991 307.26 532.66 308.933 529.369 308.494C528.958 309.152 526.764 312.636 525.42 313.596C523.94 314.666 517.303 314.282 516.864 318.588Z" fill="#233862"/>
<path d="M468.104 318.588H490.81C490.81 318.588 491.66 314.967 490.179 312.499C488.863 310.304 489.357 309.07 490.344 307.26C489.302 307.671 487.986 308.055 486.532 307.973C485.408 307.918 484.201 307.397 483.159 306.793C482.172 307.918 478.003 312.663 476.687 313.596C475.179 314.666 468.57 314.282 468.104 318.588Z" fill="#233862"/>
<path d="M465.581 189.283L460.179 176.116C459.466 174.388 457.601 173.51 455.846 173.977C454.063 170.603 451.595 167.887 448.798 165.967C445.864 163.937 442.545 162.84 439.309 162.84C437.582 162.84 435.881 163.169 434.236 163.855C426.557 167.009 423.129 176.692 425.954 186.211L425.543 186.375C425.543 186.375 424.226 186.293 422.032 186.293C415.094 186.293 399.298 187.225 388.219 194.906C388.219 194.906 387.534 195.646 387.506 196.771C387.479 197.155 387.561 197.567 387.753 198.005C387.753 198.005 405.551 186.485 421.978 198.335C422.992 199.048 423.98 199.734 424.912 200.365L426.393 203.958C428.833 209.938 435.717 212.818 441.695 210.376L456.751 204.205L459.877 202.915C465.197 200.721 467.775 194.577 465.581 189.283ZM436.375 178.612L430.232 181.136C428.559 181.822 427.682 183.632 428.12 185.333L427.462 185.607C424.967 176.939 428.011 168.189 434.867 165.391C435.827 165.007 436.814 164.733 437.828 164.623C440.982 164.212 444.273 165.062 447.235 166.9C450.032 168.655 452.555 171.289 454.337 174.608L453.432 174.992C452.555 173.483 450.663 172.797 448.99 173.483L442.847 176.007C442.381 174.827 441.229 174.114 440.022 174.114C439.638 174.114 439.254 174.196 438.898 174.333L438.048 174.69C436.485 175.293 435.744 177.049 436.375 178.612Z" fill="#C94C43"/>
<path d="M424.885 200.365C423.925 199.734 422.966 199.075 421.951 198.335C405.497 186.485 387.726 198.006 387.726 198.006C387.534 197.567 387.479 197.128 387.479 196.771C389.975 195.125 399.299 189.667 410.872 191.532C424.419 193.726 426.86 195.619 424.885 200.365Z" fill="#B23B38"/>
<path d="M459.877 202.916L456.75 204.205C461.467 201.626 455.626 190.764 452.225 183.605C448.825 176.445 443.669 179.71 443.669 179.71C442.49 177.296 439.967 177.433 439.967 177.433C439.83 175.129 438.075 174.663 438.075 174.663L438.925 174.306C439.309 174.169 439.693 174.087 440.049 174.087C441.256 174.087 442.38 174.8 442.874 175.979L449.017 173.456C450.69 172.77 452.582 173.456 453.459 174.964L454.364 174.58C452.554 171.261 450.059 168.6 447.262 166.872C444.3 165.035 441.009 164.184 437.855 164.596C438.349 164.184 438.87 163.636 439.364 162.868C442.627 162.84 445.918 163.965 448.852 165.995C451.65 167.915 454.118 170.63 455.9 174.004C457.655 173.51 459.52 174.416 460.233 176.144L465.635 189.31C467.775 194.577 465.197 200.721 459.877 202.916Z" fill="#B23B38"/>
<path d="M452.828 173.264C455.022 174.196 458.093 177.378 463.002 175.458C466.512 174.087 470.242 173.126 472.052 172.688C472.765 172.55 473.176 172.441 473.176 172.441L471.229 166.79C471.229 166.79 471.174 166.818 470.982 166.845C469.721 167.119 463.304 168.491 460.315 167.805C456.941 167.01 451.265 171.069 451.265 171.069C451.265 171.069 450.634 172.386 452.828 173.264Z" fill="#FFB27D"/>
<path d="M391.182 207.524C391.182 205.467 387.48 199.158 387.48 199.158C387.48 199.158 383.777 205.494 383.777 207.524C383.777 209.581 385.45 211.227 387.48 211.227C389.536 211.254 391.182 209.581 391.182 207.524Z" fill="#AFCDFB"/>
<path d="M574.79 318.252H1.21008C0.541773 318.252 0 318.794 0 319.462C0 320.131 0.541764 320.672 1.21008 320.672H574.79C575.458 320.672 576 320.131 576 319.462C576 318.794 575.458 318.252 574.79 318.252Z" fill="url(#paint0_linear)"/>
<path d="M379.854 71.853H372.277C371.682 68.3084 370.099 65.0068 367.711 62.3328H379.854C380.688 62.3328 381.488 61.9992 382.078 61.4054C382.669 60.8115 383 60.0062 383 59.1664C383 58.3266 382.669 57.5212 382.078 56.9274C381.488 56.3336 380.688 56 379.854 56H343.146C342.312 56 341.512 56.3336 340.922 56.9274C340.332 57.5212 340 58.3266 340 59.1664C340 60.0062 340.332 60.8115 340.922 61.4054C341.512 61.9992 342.312 62.3328 343.146 62.3328H353.65C356.444 62.3369 359.158 63.2737 361.366 64.9965C363.575 66.7194 365.153 69.1308 365.854 71.853H343.147C342.313 71.853 341.513 72.1866 340.923 72.7804C340.333 73.3743 340.001 74.1796 340.001 75.0194C340.001 75.8592 340.333 76.6646 340.923 77.2584C341.513 77.8522 342.313 78.1858 343.147 78.1858H365.857C365.157 80.9087 363.579 83.3208 361.37 85.043C359.161 86.7653 356.446 87.7002 353.651 87.7008H343.146C342.517 87.7008 341.901 87.891 341.38 88.2469C340.859 88.6028 340.456 89.1079 340.223 89.6969C339.99 90.2859 339.938 90.9317 340.074 91.5507C340.21 92.1696 340.528 92.7332 340.985 93.1686L367.237 118.135C367.843 118.712 368.653 119.022 369.487 118.999C370.321 118.975 371.112 118.619 371.685 118.008C372.258 117.398 372.567 116.583 372.543 115.744C372.519 114.905 372.165 114.109 371.559 113.532L351.055 94.033H353.649C358.114 94.0335 362.436 92.442 365.846 89.5409C369.256 86.6398 371.535 82.6166 372.278 78.1853H379.854C380.688 78.1853 381.488 77.8517 382.078 77.2579C382.669 76.664 383 75.8587 383 75.0189C383 74.1791 382.669 73.3737 382.078 72.7799C381.488 72.1861 380.688 71.8525 379.854 71.8525V71.853Z" fill="#FFA412"/>
<path d="M85.202 270.503L78.7343 268.77C79.0276 265.645 78.4221 262.499 76.9885 259.698L87.3532 262.475C88.0655 262.666 88.824 262.568 89.4618 262.202C90.0997 261.836 90.5646 261.233 90.7544 260.525C90.9441 259.817 90.8431 259.062 90.4736 258.426C90.1041 257.79 89.4964 257.326 88.7841 257.135L57.4504 248.739C56.7381 248.548 55.9796 248.647 55.3418 249.012C54.7039 249.378 54.239 249.981 54.0492 250.69C53.8595 251.398 53.9605 252.153 54.33 252.788C54.6995 253.424 55.3072 253.888 56.0195 254.079L64.9854 256.482C67.3697 257.124 69.4746 258.535 70.9705 260.493C72.4663 262.451 73.2685 264.845 73.2514 267.301L53.8693 262.108C53.157 261.917 52.3985 262.015 51.7606 262.381C51.1228 262.747 50.6578 263.35 50.4681 264.058C50.2783 264.766 50.3793 265.521 50.7488 266.157C51.1183 266.793 51.7261 267.257 52.4384 267.448L71.8232 272.642C70.6111 274.778 68.7189 276.451 66.4439 277.398C64.1689 278.345 61.64 278.513 59.2543 277.874L50.2875 275.471C49.7499 275.327 49.1816 275.347 48.6563 275.528C48.1309 275.709 47.6727 276.043 47.3409 276.486C47.0091 276.929 46.819 277.462 46.7952 278.015C46.7714 278.568 46.915 279.116 47.2074 279.588L63.9747 306.646C64.3621 307.271 64.9827 307.718 65.7001 307.889C66.4175 308.059 67.1729 307.94 67.8 307.556C68.4272 307.173 68.8747 306.556 69.0443 305.843C69.2138 305.13 69.0914 304.378 68.704 303.753L55.6078 282.62L57.8218 283.213C61.6335 284.235 65.6818 283.881 69.2484 282.215C72.8151 280.549 75.6694 277.677 77.3049 274.11L83.7713 275.843C84.4836 276.034 85.2421 275.936 85.8799 275.57C86.5178 275.204 86.9827 274.601 87.1725 273.893C87.3622 273.184 87.2612 272.429 86.8917 271.794C86.5222 271.158 85.9145 270.694 85.2022 270.503L85.202 270.503Z" fill="#FFA412"/>
<path d="M273.39 206.052H269.514C269.209 204.252 268.399 202.575 267.178 201.217H273.39C273.817 201.217 274.227 201.047 274.529 200.746C274.83 200.444 275 200.035 275 199.608C275 199.182 274.83 198.773 274.529 198.471C274.227 198.169 273.817 198 273.39 198H254.61C254.183 198 253.773 198.169 253.472 198.471C253.17 198.773 253 199.182 253 199.608C253 200.035 253.17 200.444 253.472 200.746C253.773 201.047 254.183 201.217 254.61 201.217H259.984C261.413 201.219 262.802 201.695 263.932 202.57C265.062 203.445 265.869 204.67 266.227 206.052H254.61C254.183 206.052 253.774 206.222 253.472 206.523C253.17 206.825 253.001 207.234 253.001 207.661C253.001 208.087 253.17 208.496 253.472 208.798C253.774 209.1 254.183 209.269 254.61 209.269H266.229C265.871 210.652 265.064 211.877 263.934 212.752C262.803 213.627 261.414 214.102 259.984 214.102H254.61C254.288 214.102 253.973 214.199 253.706 214.379C253.439 214.56 253.233 214.817 253.114 215.116C252.995 215.415 252.968 215.743 253.038 216.057C253.108 216.372 253.27 216.658 253.504 216.879L266.935 229.561C267.245 229.854 267.66 230.011 268.086 229.999C268.513 229.987 268.918 229.806 269.211 229.496C269.504 229.186 269.662 228.773 269.65 228.346C269.638 227.92 269.457 227.516 269.146 227.223L258.656 217.318H259.983C262.268 217.319 264.479 216.51 266.224 215.037C267.968 213.563 269.134 211.52 269.514 209.269H273.39C273.817 209.269 274.227 209.099 274.529 208.798C274.83 208.496 275 208.087 275 207.66C275 207.234 274.83 206.825 274.529 206.523C274.227 206.222 273.817 206.052 273.39 206.052V206.052Z" fill="#FFA412"/>
<path d="M447.348 233.864L444.817 235.325C443.939 234.264 442.778 233.475 441.469 233.049L445.525 230.707C445.804 230.546 446.007 230.281 446.091 229.97C446.174 229.66 446.13 229.329 445.97 229.05C445.809 228.772 445.544 228.568 445.233 228.485C444.922 228.402 444.591 228.446 444.312 228.607L432.051 235.686C431.772 235.847 431.569 236.112 431.485 236.423C431.402 236.733 431.445 237.064 431.606 237.343C431.767 237.621 432.032 237.824 432.343 237.908C432.654 237.991 432.985 237.947 433.263 237.786L436.772 235.76C437.706 235.223 438.792 235.01 439.86 235.156C440.927 235.301 441.916 235.796 442.671 236.564L435.087 240.943C434.808 241.104 434.604 241.369 434.521 241.68C434.438 241.99 434.481 242.321 434.642 242.6C434.803 242.878 435.068 243.081 435.378 243.165C435.689 243.248 436.02 243.204 436.299 243.043L443.885 238.663C444.173 239.701 444.107 240.806 443.699 241.803C443.291 242.8 442.563 243.634 441.629 244.173L438.121 246.199C437.91 246.32 437.741 246.502 437.635 246.72C437.529 246.939 437.491 247.184 437.526 247.424C437.561 247.665 437.667 247.889 437.831 248.068C437.995 248.247 438.209 248.373 438.446 248.429L451.995 251.645C452.308 251.72 452.637 251.667 452.912 251.498C453.186 251.329 453.382 251.059 453.456 250.746C453.531 250.433 453.478 250.103 453.309 249.829C453.141 249.555 452.87 249.36 452.557 249.285L441.975 246.773L442.841 246.273C444.333 245.412 445.472 244.051 446.055 242.431C446.639 240.811 446.63 239.038 446.03 237.425L448.56 235.964C448.839 235.803 449.042 235.538 449.126 235.227C449.209 234.917 449.166 234.586 449.005 234.307C448.844 234.029 448.579 233.825 448.268 233.742C447.958 233.659 447.626 233.703 447.348 233.864L447.348 233.864Z" fill="#FFA412"/>
<defs>
<linearGradient id="paint0_linear" x1="569" y1="318.252" x2="6" y2="318.252" gradientUnits="userSpaceOnUse">
<stop offset="0.0416667" stop-color="#D2E3FC" stop-opacity="0"/>
<stop offset="0.505208" stop-color="#D2E3FC"/>
<stop offset="1" stop-color="#D2E3FC" stop-opacity="0"/>
</linearGradient>
</defs>
</svg>
