<svg xmlns="http://www.w3.org/2000/svg" width="74.872" height="66.555" viewBox="0 0 74.872 66.555"><defs><style>.a{fill:rgba(255,0,0,0.1);}.b{fill:#a4afc1;}.c{fill:#f3f3f1;}.d{fill:#2fdf84;}.e{fill:#d5dbe1;}.f{fill:#00b871;}.g,.h,.j{fill:#036;}.i,.j{stroke:none;}</style></defs><g transform="translate(-683 -147)"><path class="a" d="M8.093,55.382c0-14.5-7.509-24.451-7.509-31.437S4.6,2.29,36.734,2.29s36.85,19.736,36.85,27.419C73.586,65.687,8.093,81.055,8.093,55.382Z" transform="translate(682.416 144.71)"/><g transform="translate(686 144)"><g transform="translate(60.617 22.551)"><path class="b" d="M26.625,12.25h2.648v5.3H26.625Z" transform="translate(-26.625 -12.25)"/><g transform="translate(5.958 7.944)"><path class="b" d="M28.875,15.25h5.3V17.9h-5.3Z" transform="translate(-28.875 -15.25)"/></g></g><g transform="translate(7.986 7.986)"><path class="c" d="M45.148,53.277V12.046a5.3,5.3,0,0,0-5.3-5.3H12.046a5.3,5.3,0,0,0-5.3,5.3V53.277a5.3,5.3,0,0,0,5.3,5.3H39.851A5.3,5.3,0,0,0,45.148,53.277Z" transform="translate(-6.75 -6.75)"/></g><g transform="translate(39.763 50.356)"><path class="d" d="M22.722,39.963H21.4a2.649,2.649,0,0,1-2.648-2.648V25.4A2.649,2.649,0,0,1,21.4,22.75h1.324A2.649,2.649,0,0,1,25.37,25.4V37.315A2.656,2.656,0,0,1,22.722,39.963Z" transform="translate(-18.75 -22.75)"/></g><g transform="translate(46.304 39.816)"><path class="d" d="M21.22,30.21c1.483-.927,5.217-3.6,5.217-7.07,0-3.1,1.3-4.369,2.516-4.369,1.245,0,3.1,1.88,3.1,5.588a9.474,9.474,0,0,1-1.245,4.952h6.62a5.074,5.074,0,0,1,5.058,5.058c0,.715-1.456,7.918-1.483,7.918a5.206,5.206,0,0,1-5.137,4.237H34.514c-7.1,0-11.069-1.827-12.552-2.675Z" transform="translate(-21.22 -18.77)"/></g><g transform="translate(7.986 7.986)"><path class="e" d="M12.708,53.277V12.046A5.3,5.3,0,0,1,18,6.75H12.046a5.3,5.3,0,0,0-5.3,5.3V53.277a5.3,5.3,0,0,0,5.3,5.3H18A5.3,5.3,0,0,1,12.708,53.277Z" transform="translate(-6.75 -6.75)"/></g><g transform="translate(39.763 50.356)"><path class="f" d="M24.708,37.315V25.4a2.587,2.587,0,0,1,.331-1.213,2.622,2.622,0,0,0-2.317-1.435H21.4A2.649,2.649,0,0,0,18.75,25.4V37.315A2.649,2.649,0,0,0,21.4,39.963h1.324a2.631,2.631,0,0,0,2.317-1.438A2.576,2.576,0,0,1,24.708,37.315Z" transform="translate(-18.75 -22.75)"/></g><g transform="translate(46.304 39.816)"><path class="f" d="M27.92,43.848,27.178,30.21c1.21-.757,3.887-2.685,4.843-5.251.011-.2.029-.389.029-.6,0-3.707-1.854-5.588-3.1-5.588-1.218,0-2.516,1.271-2.516,4.369,0,3.469-3.734,6.144-5.217,7.07l.741,13.638c1.483.847,5.455,2.675,12.552,2.675h1.351a5.26,5.26,0,0,0,1.226-.164A22.872,22.872,0,0,1,27.92,43.848Z" transform="translate(-21.22 -18.77)"/></g><g transform="translate(37.777 48.37)"><path class="g" d="M23.958,43.185H22.634A4.639,4.639,0,0,1,18,38.551V26.634A4.639,4.639,0,0,1,22.634,22h1.324a4.639,4.639,0,0,1,4.634,4.634V38.551A4.639,4.639,0,0,1,23.958,43.185ZM22.634,25.972a.662.662,0,0,0-.662.662V38.551a.662.662,0,0,0,.662.662h1.324a.669.669,0,0,0,.662-.662V26.634a.662.662,0,0,0-.662-.662Z" transform="translate(-18 -22)"/></g><g transform="translate(45.253 37.83)"><path class="g" d="M36.518,49.744H35.168c-7.306,0-11.617-1.838-13.537-2.934l1.97-3.45c1.268.726,4.939,2.412,11.567,2.412h1.351A3.226,3.226,0,0,0,39.7,43.2a2.179,2.179,0,0,1,.05-.228c.191-.821,1.348-6.649,1.409-7.444a3.067,3.067,0,0,0-3.074-3H31.46a1.986,1.986,0,0,1-1.65-3.093c.408-.609.908-1.459.908-3.845s-.935-3.488-1.274-3.623a10.644,10.644,0,0,0-.368,2.4c0,4.433-4.3,7.6-6.149,8.755l-2.105-3.368c2.071-1.292,4.282-3.387,4.282-5.386,0-4.391,2.261-6.355,4.5-6.355,2.5,0,5.084,2.833,5.084,7.574a13.036,13.036,0,0,1-.336,2.966h3.726A7.051,7.051,0,0,1,45.125,35.6a30.957,30.957,0,0,1-.768,4.605c-.328,1.689-.551,2.841-.771,3.625l.029.005a7.187,7.187,0,0,1-7.1,5.905Z" transform="translate(-20.823 -18.02)"/></g><g transform="translate(6 6)"><path class="g" d="M30.5,61.61H13.282A7.288,7.288,0,0,1,6,54.328V13.282A7.288,7.288,0,0,1,13.282,6H41.087a7.288,7.288,0,0,1,7.282,7.282V35.791H44.4V13.282a3.315,3.315,0,0,0-3.31-3.31H13.282a3.315,3.315,0,0,0-3.31,3.31V54.328a3.315,3.315,0,0,0,3.31,3.31H30.5Z" transform="translate(-6 -6)"/></g><g class="h" transform="translate(17.361 18.136)"><path class="i" d="M 21.3715763092041 3.821679353713989 L 0.4999971985816956 3.821679353713989 L 0.4999971985816956 0.4999993145465851 L 21.3715763092041 0.4999993145465851 L 21.3715763092041 3.821679353713989 Z"/><path class="j" d="M 0.9999980926513672 0.9999992847442627 L 0.9999980926513672 3.321679353713989 L 20.8715763092041 3.321679353713989 L 20.8715763092041 0.9999992847442627 L 0.9999980926513672 0.9999992847442627 M -1.9073486328125e-06 -4.76837158203125e-07 L 21.8715763092041 -4.76837158203125e-07 L 21.8715763092041 4.32167911529541 L -1.9073486328125e-06 4.32167911529541 L -1.9073486328125e-06 -4.76837158203125e-07 Z"/></g><g class="h" transform="translate(17.361 23.81)"><path class="i" d="M 16.08859825134277 3.821679353713989 L 0.4999991357326508 3.821679353713989 L 0.4999991357326508 0.4999993145465851 L 16.08859825134277 0.4999993145465851 L 16.08859825134277 3.821679353713989 Z"/><path class="j" d="M 0.9999990463256836 0.9999992847442627 L 0.9999990463256836 3.321679353713989 L 15.58859920501709 3.321679353713989 L 15.58859920501709 0.9999992847442627 L 0.9999990463256836 0.9999992847442627 M 0 -4.76837158203125e-07 L 16.58859825134277 -4.76837158203125e-07 L 16.58859825134277 4.32167911529541 L 0 4.32167911529541 L 0 -4.76837158203125e-07 Z"/></g><g class="h" transform="translate(17.361 29.483)"><path class="i" d="M 13.68397617340088 3.821679353713989 L 0.4999961853027344 3.821679353713989 L 0.4999961853027344 0.4999993145465851 L 13.68397617340088 0.4999993145465851 L 13.68397617340088 3.821679353713989 Z"/><path class="j" d="M 0.9999961853027344 0.9999992847442627 L 0.9999961853027344 3.321679353713989 L 13.18397617340088 3.321679353713989 L 13.18397617340088 0.9999992847442627 L 0.9999961853027344 0.9999992847442627 M -3.814697265625e-06 -4.76837158203125e-07 L 14.18397617340088 -4.76837158203125e-07 L 14.18397617340088 4.32167911529541 L -3.814697265625e-06 4.32167911529541 L -3.814697265625e-06 -4.76837158203125e-07 Z"/></g></g></g></svg>