<svg width="80" height="80" viewBox="0 0 80 80" fill="none" xmlns="http://www.w3.org/2000/svg">
<path d="M21.272 12.5631C21.272 11.1475 22.4195 10 23.8351 10H65.3108C66.7264 10 67.8739 11.1475 67.8739 12.5631V67.4369C67.8739 68.8525 66.7264 70 65.3108 70H23.8351C22.4195 70 21.272 68.8525 21.272 67.4369V12.5631Z" fill="#EBEFF2"/>
<path d="M13 43.6699C13 42.1256 14.2519 40.8738 15.7961 40.8738H52.4951C54.0394 40.8738 55.2913 42.1256 55.2913 43.6699V55.3204C55.2913 56.8646 54.0394 58.1165 52.4951 58.1165H15.7961C14.2519 58.1165 13 56.8646 13 55.3204V43.6699Z" fill="#F15642"/>
<path d="M24.7937 49.912C25.1328 49.912 25.4283 49.8708 25.6804 49.7883C25.9324 49.7012 26.1409 49.5798 26.3059 49.424C26.4755 49.2636 26.6015 49.0711 26.684 48.8466C26.7664 48.6175 26.8077 48.3631 26.8077 48.0836C26.8077 47.8178 26.7664 47.5772 26.684 47.3619C26.6015 47.1465 26.4777 46.9632 26.3128 46.812C26.1478 46.6607 25.9393 46.5462 25.6873 46.4683C25.4352 46.3858 25.1374 46.3445 24.7937 46.3445H23.412V49.912H24.7937ZM24.7937 44.9148C25.4581 44.9148 26.0332 44.9927 26.519 45.1485C27.0047 45.3043 27.4057 45.522 27.7219 45.8015C28.0381 46.081 28.2718 46.4156 28.423 46.8051C28.5788 47.1946 28.6567 47.6208 28.6567 48.0836C28.6567 48.5648 28.5765 49.007 28.4162 49.4103C28.2558 49.8089 28.0152 50.1526 27.6944 50.4413C27.3736 50.73 26.9704 50.9546 26.4846 51.115C26.0035 51.2753 25.4398 51.3555 24.7937 51.3555H23.412V54.8543H21.563V44.9148H24.7937Z" fill="white"/>
<path d="M39.1756 49.8845C39.1756 50.6132 39.0541 51.2822 38.8113 51.8917C38.5684 52.5012 38.227 53.0259 37.7871 53.4658C37.3471 53.9057 36.8179 54.2471 36.1992 54.49C35.5806 54.7329 34.8932 54.8543 34.1371 54.8543H30.3496V44.9148H34.1371C34.8932 44.9148 35.5806 45.0385 36.1992 45.286C36.8179 45.5289 37.3471 45.8703 37.7871 46.3102C38.227 46.7455 38.5684 47.2679 38.8113 47.8774C39.0541 48.4869 39.1756 49.1559 39.1756 49.8845ZM37.2784 49.8845C37.2784 49.3392 37.2051 48.8512 37.0584 48.4204C36.9164 47.9851 36.7079 47.6185 36.4329 47.3206C36.1626 47.0182 35.8326 46.7868 35.4431 46.6264C35.0582 46.466 34.6228 46.3858 34.1371 46.3858H32.2055V53.3833H34.1371C34.6228 53.3833 35.0582 53.3031 35.4431 53.1427C35.8326 52.9823 36.1626 52.7532 36.4329 52.4553C36.7079 52.1529 36.9164 51.7863 37.0584 51.3555C37.2051 50.9202 37.2784 50.4299 37.2784 49.8845Z" fill="white"/>
<path d="M42.9389 46.3858V49.3278H46.6644V50.8056H42.9389V54.8543H41.0829V44.9148H47.3518V46.3858H42.9389Z" fill="white"/>
</svg>
