<svg width="42" height="42" viewBox="0 0 42 42" fill="none" xmlns="http://www.w3.org/2000/svg">
<path d="M9.46633 6.49135C7.3605 14.2812 1.87833 18.5395 0.863328 22.2939C-0.151672 26.0482 -0.124839 34.5147 17.1442 39.1837C34.4132 43.8527 39.8148 33.9325 40.9302 29.8025C46.158 10.4685 13.1962 -7.30565 9.46633 6.49135Z" fill="#EFEFEF"/>
<path d="M32.0833 32.0833H7.58331L8.21331 29.5517C8.48165 28.49 9.26331 27.65 10.29 27.3117L14.98 25.7483C15.6333 25.48 16.0066 24.8967 16.2283 24.2667C16.31 24.0333 16.3683 23.8 16.415 23.5783C16.4383 23.4733 16.4616 23.3683 16.4733 23.275C16.555 22.7267 16.555 22.2483 16.555 22.05C15.7966 21.42 14.8633 20.335 14.8633 19.4133C14.8633 18.4917 14.3383 18.3517 14.3383 18.3517C14.3383 18.3517 13.8133 17.0333 13.8133 16.24C13.8133 16.24 13.8133 16.2283 13.825 16.2167C13.86 16.1117 14.035 15.715 14.385 15.715C14.385 15.715 14.385 15.3067 14.385 14.7117C14.385 14.7 14.385 14.7 14.385 14.6883C14.4083 14.1283 14.4433 13.4167 14.4433 12.5417C14.4433 11.8417 14.77 10.99 15.33 10.1967C15.54 10.0683 15.715 10.0217 15.715 9.90499C15.715 9.82332 15.7383 9.72999 15.7733 9.62499C16.7533 8.49332 18.2 7.58332 19.8333 7.58332C21.4666 7.58332 22.9133 8.49332 23.8933 9.62499C23.9283 9.72999 23.9516 9.82332 23.9516 9.90499C23.9516 10.0217 24.1266 10.0683 24.3366 10.1967C24.8966 10.99 25.2233 11.8417 25.2233 12.5417C25.2233 13.4167 25.2583 14.1283 25.2816 14.6883V14.7117V15.715C25.6316 15.715 25.8066 16.1117 25.8416 16.2167C25.8533 16.2283 25.8533 16.24 25.8533 16.24C25.8533 17.0333 25.3283 18.3517 25.3283 18.3517C25.3283 18.3517 24.8033 18.4917 24.8033 19.4133C24.8033 20.335 23.87 21.42 23.1116 22.05C23.1116 22.2367 23.1116 22.715 23.1933 23.275C23.205 23.3683 23.2283 23.4733 23.2516 23.5783C23.2983 23.8117 23.3566 24.0333 23.4383 24.2667C23.66 24.8967 24.0333 25.48 24.6866 25.7483L29.3766 27.3117C30.4033 27.65 31.185 28.49 31.4533 29.5517L32.0833 32.0833Z" fill="#F3F3F1"/>
<path d="M28 34.4167C28 34.4167 34.4167 31.7088 34.4167 26.292C34.4167 24.1255 34.4167 21.4165 34.4167 21.4165L28 19.25L21.5834 21.4165V26.292C21.5834 31.7088 28 34.4167 28 34.4167Z" fill="#D4E1F7"/>
<path d="M18.8883 22.05C18.8883 22.2483 18.8883 22.7267 18.8067 23.275C18.795 23.3683 18.7717 23.4733 18.7483 23.5783C18.7017 23.8 18.6433 24.0333 18.5617 24.2667C18.34 24.8967 17.9667 25.48 17.3133 25.7483L12.6233 27.3117C11.5967 27.65 10.815 28.49 10.5466 29.5517L9.91665 32.0833H7.58331L8.21331 29.5517C8.48165 28.49 9.26331 27.65 10.29 27.3117L14.98 25.7483C15.6333 25.48 16.0067 24.8967 16.2283 24.2667C16.31 24.0333 16.3683 23.8 16.415 23.5783C16.4383 23.4733 16.4617 23.3683 16.4733 23.275C16.555 22.7267 16.555 22.2483 16.555 22.05C15.7967 21.42 14.8633 20.335 14.8633 19.4133C14.8633 18.4917 14.3383 18.3517 14.3383 18.3517C14.3383 18.3517 13.8133 17.0333 13.8133 16.24C13.8133 16.24 13.8133 16.2283 13.825 16.2167C13.86 16.1117 14.035 15.715 14.385 15.715C14.385 15.715 14.385 15.3067 14.385 14.7117C14.385 14.7 14.385 14.7 14.385 14.6883C14.4083 14.1283 14.4433 13.4167 14.4433 12.5417C14.4433 11.8417 14.77 10.99 15.33 10.1967C15.54 10.0683 15.715 10.0217 15.715 9.90499C15.715 9.82332 15.7383 9.72999 15.7733 9.62499C16.7533 8.49332 18.2 7.58332 19.8333 7.58332C20.23 7.58332 20.6267 7.64165 21 7.74665C19.8567 8.03832 18.8417 8.77332 18.1067 9.62499C18.0717 9.72999 18.0483 9.82332 18.0483 9.90499C18.0483 10.0217 17.8733 10.0683 17.6633 10.1967C17.1033 10.99 16.7767 11.8417 16.7767 12.5417C16.7767 13.4167 16.7417 14.1283 16.7183 14.6883V14.7117V15.715C16.3683 15.715 16.1933 16.1117 16.1583 16.2167C16.1467 16.2283 16.1467 16.24 16.1467 16.24C16.1467 17.0333 16.6717 18.3517 16.6717 18.3517C16.6717 18.3517 17.1967 18.4917 17.1967 19.4133C17.1967 20.335 18.13 21.42 18.8883 22.05Z" fill="#D5DBE1"/>
<path d="M29.1667 33.81C28.4784 34.2183 28 34.4167 28 34.4167C28 34.4167 21.5834 31.71 21.5834 26.2967C21.5834 23.0417 21.5834 21.42 21.5834 21.42L28 19.25L29.1667 19.6467L23.9167 21.42V26.2967C23.9167 30.24 27.3234 32.7483 29.1667 33.81Z" fill="#CAD7DB"/>
<path d="M19.8567 32.9583H7.58335C7.31501 32.9583 7.05951 32.8347 6.89385 32.6223C6.72701 32.41 6.66985 32.1335 6.73401 31.8722L7.36401 29.3405C7.70585 27.9837 8.69751 26.915 10.0158 26.481L14.7023 24.9188C15.2425 24.6925 15.6112 23.7708 15.6718 22.4373C15.0418 21.8493 13.9883 20.6757 13.9883 19.4145C13.9883 19.2698 13.9673 19.1812 13.9522 19.138C13.7597 19.0435 13.6068 18.8802 13.5263 18.6772C13.4657 18.5267 12.9383 17.1757 12.9383 16.2412C12.9383 16.1712 12.9465 16.1012 12.9628 16.0323C13.041 15.7127 13.2183 15.3918 13.4797 15.1632C13.4855 15.0593 13.4913 14.9473 13.4972 14.8283C13.5275 14.2555 13.5683 13.4925 13.5683 12.5428C13.5683 10.248 16.2587 6.70951 19.8333 6.70951C22.848 6.70951 24.3833 8.29267 24.7427 9.41967C25.4672 9.84667 26.1567 10.6062 26.1567 12.5428V15.1737C26.4063 15.386 26.5872 15.6753 26.6828 15.9635C26.7132 16.0533 26.7283 16.1467 26.7283 16.2412L25.7775 16.2668L25.0238 16.5188C25.0297 16.5188 25.137 16.5923 25.2817 16.5923C24.7987 16.5923 24.4067 16.2003 24.4067 15.7173V12.544C24.4067 11.2012 24.0345 11.0133 23.7872 10.8897C23.5935 10.7905 23.0767 10.5303 23.0767 9.90501C23.0323 9.71717 22.2308 8.45834 19.8333 8.45834C17.2702 8.45834 15.3183 11.1802 15.3183 12.5417C15.3183 13.5298 15.2775 14.3232 15.2448 14.9193C15.2273 15.2507 15.2133 15.5167 15.2133 15.715C15.2133 16.065 15.008 16.3672 14.7105 16.5072C14.7677 16.8863 14.9193 17.388 15.0523 17.7648C15.4047 18.0495 15.7383 18.5675 15.7383 19.4133C15.7383 19.8812 16.3298 20.7258 17.115 21.3768C17.3145 21.5437 17.4312 21.7898 17.4312 22.05C17.4312 24.3903 16.6798 25.991 15.316 26.5568L10.5688 28.1423C9.81868 28.3897 9.25751 28.9963 9.06385 29.7663L8.70335 31.2083H19.8567V32.9583ZM14.1108 19.1963H14.1132C14.112 19.1975 14.1108 19.1963 14.1108 19.1963Z" fill="#003366"/>
<path d="M28 35.2917C27.8833 35.2917 27.769 35.2683 27.6593 35.2228C27.3758 35.1027 20.7083 32.221 20.7083 26.292V21.4165C20.7083 21.0408 20.9475 20.7083 21.3033 20.5882L27.72 18.4217C27.902 18.3598 28.098 18.3598 28.28 18.4217L34.6967 20.5882C35.0525 20.7083 35.2917 21.042 35.2917 21.4165V26.292C35.2917 32.221 28.6242 35.1038 28.3407 35.2228C28.231 35.2683 28.1167 35.2917 28 35.2917ZM22.4583 22.0453V26.292C22.4583 30.394 26.7435 32.8265 27.9988 33.4507C29.253 32.823 33.5417 30.3788 33.5417 26.292V22.0453L28 20.174L22.4583 22.0453Z" fill="#003366"/>
<path d="M27.4166 29.4583C27.4003 29.4583 27.3851 29.4583 27.3688 29.4571C27.1191 29.4431 26.8893 29.3241 26.7329 29.1305L24.3996 26.2138L25.7669 25.1195L27.4901 27.2731L30.8816 23.8816L32.1194 25.1195L28.0361 29.2028C27.8716 29.3661 27.6476 29.4583 27.4166 29.4583Z" fill="#003366"/>
<path d="M26.126 4.80963L26.951 3.98467L28.6009 5.63459L27.7759 6.45955L26.126 4.80963Z" fill="#A4AFC1"/>
<path d="M30.8728 9.56298L31.6977 8.73802L33.3476 10.3879L32.5227 11.2129L30.8728 9.56298Z" fill="#A4AFC1"/>
<path d="M30.8691 5.42816L32.519 3.77824L33.344 4.6032L31.6941 6.25312L30.8691 5.42816Z" fill="#A4AFC1"/>
</svg>
