<svg xmlns="http://www.w3.org/2000/svg" xmlns:xlink="http://www.w3.org/1999/xlink" width="290.084" height="180.481" viewBox="0 0 290.084 180.481"><defs><style>.a,.e,.x{fill:red;}.a,.b,.h{opacity:0.1;}.c{fill:#f7f7fd;}.d,.n{opacity:0.2;}.f{fill:#fff;}.g{fill:#d38884;}.i{fill:#4c4981;}.j,.x{opacity:0.05;}.k{fill:#ceddf9;}.l{fill:#cc8294;}.m{fill:#1e1637;}.o{fill:#ffd2c6;}.p{fill:#626696;}.q{fill:#ffcde5;}.r{fill:#985c7e;}.s{fill:url(#a);}.t{fill:#db8b8b;}.u{fill:#2e3037;}.v{fill:#474463;}.w{fill:#fc6681;}.y{fill:#472727;}</style><linearGradient id="a" x1="31.936" y1="1" x2="31.936" gradientUnits="objectBoundingBox"><stop offset="0" stop-color="gray" stop-opacity="0.251"/><stop offset="0.54" stop-color="gray" stop-opacity="0.122"/><stop offset="1" stop-color="gray" stop-opacity="0.102"/></linearGradient></defs><g transform="translate(-0.006 0.002)"><path class="a" d="M239.719,96.085c-12.447,8.714-28.592,8.152-42.74,3.617S169.835,87.094,156.05,81.356a133.005,133.005,0,0,0-35.961-9.374c-17.569-2.01-37.188.439-49.428,14.533C57.03,102.2,58.077,130.5,72.814,144.916c7.5,7.326,17.321,10.921,25.885,16.64s16.5,15.211,15.768,26.245c-.676,10.227-8.526,18.064-16.651,22.986-6.279,3.8-14.011,7.955-14.767,15.833-.732,7.622,5.77,13.594,11.979,16.99a68.04,68.04,0,0,0,65.4-.269c7.2-4.023,13.806-9.363,21.355-12.479,19.821-8.214,41.664.056,62.653,3.079a125.247,125.247,0,0,0,53.287-3.878c10.394-3.071,20.828-7.764,28.129-16.508,5.267-6.306,8.547-14.283,11.626-22.165q4.925-12.6,9.471-25.387c1.817-5.113,3.606-10.329,4.077-15.8.85-9.917-2.734-19.722-7.616-28.092-11.591-19.889-31.114-33.862-52.256-37.411s-43.51,3.383-59.908,18.554" transform="translate(-61.06 -71.37)"/><g class="b" transform="translate(144.483 27.496)"><path d="M598.925,173.873,597.9,233.35s37.118,0,68.7,10.254l.614-60.085S616.561,171.41,598.925,173.873Z" transform="translate(-597.9 -173.542)"/></g><path class="c" d="M595.925,169.873,594.9,229.35s37.118,0,68.7,10.254l.614-60.085S613.561,167.41,595.925,169.873Z" transform="translate(-451.225 -143.123)"/><g class="b" transform="translate(58.585 29.203)"><path d="M347.018,180.211l1.025,59.477s-37.118,0-68.7,10.254l-.616-60.085S329.382,177.762,347.018,180.211Z" transform="translate(-278.73 -179.883)"/></g><path class="c" d="M350.018,175.211l1.025,59.477s-37.118,0-68.7,10.254l-.616-60.085S332.382,172.762,350.018,175.211Z" transform="translate(-222.337 -147.026)"/><g class="d" transform="translate(74.386 34.947)"><path class="e" d="M374.063,201.4l.552,31.894s-19.915,0-36.844,5.5l-.331-32.223S364.606,200.09,374.063,201.4Z" transform="translate(-337.44 -201.227)"/></g><g class="b" transform="translate(235.674 49.704)"><path d="M936.74,256.06v58.856s12.111-1.437,37.53,29.94L976.525,286S950.07,257.494,936.74,256.06Z" transform="translate(-936.74 -256.06)"/></g><path class="c" d="M934.74,253.06v58.856s12.111-1.437,37.53,29.94L974.525,283S948.07,254.494,934.74,253.06Z" transform="translate(-699.604 -204.163)"/><g class="b" transform="translate(0.141 49.973)"><path d="M101.352,257.06v58.856s-12.1-1.437-37.514,29.94L61.57,287S88.023,258.494,101.352,257.06Z" transform="translate(-61.57 -257.06)"/></g><path class="c" d="M104.352,253.06v58.856s-12.1-1.437-37.514,29.94L64.57,283S91.023,254.494,104.352,253.06Z" transform="translate(-63.621 -204.163)"/><g class="d" transform="translate(154.618 39.122)"><path class="e" d="M574.5,145.37l25.145,4.5v3.663L574.5,148.7Z" transform="translate(-574.5 -145.37)"/></g><path class="f" d="M326.222,276.87l-25.142,4.5v3.663l25.142-4.828Z" transform="translate(-220.047 -202.358)"/><path class="f" d="M575.74,170.74l45.956,9.492v3.663l-45.956-9.823Z" transform="translate(-420.788 -124.79)"/><path class="f" d="M575.74,196.11,621.7,205.6v3.665l-45.956-9.826Z" transform="translate(-420.788 -143.333)"/><g class="d" transform="translate(245.852 67.902)"><path class="e" d="M913.5,252.31v3.232l9.858,8.009.463-2.772Z" transform="translate(-913.5 -252.31)"/></g><path class="f" d="M913.5,368.31v3.232l9.858,8.009.463-2.772Z" transform="translate(-667.648 -269.189)"/><path class="f" d="M913.656,272.91l-.156,3.235L932.137,293.7l-.307-3.7Z" transform="translate(-667.648 -199.464)"/><path class="f" d="M913.5,295.23v3.079l18.637,17.867v-4Z" transform="translate(-667.648 -215.777)"/><g class="d" transform="translate(11.377 68.602)"><path class="e" d="M60.741,254.91l.153,3.235L42.26,275.7l.307-3.7Z" transform="translate(-42.26 -254.91)"/></g><g class="d" transform="translate(11.377 74.609)"><path class="e" d="M60.894,277.23v3.079L42.26,298.176v-4Z" transform="translate(-42.26 -277.23)"/></g><ellipse class="a" cx="15.34" cy="2.761" rx="15.34" ry="2.761" transform="translate(39.73 164.603)"/><ellipse class="a" cx="25.298" cy="4.333" rx="25.298" ry="4.333" transform="translate(136.317 122.347)"/><path class="g" d="M627.319,322.663a3.529,3.529,0,0,0-.269.826q-.024.108-.048.226c-.162.824-.269,1.86-.326,2.463-.027.3-.04.5-.04.5s-5.837-.39-4.826-1.37a2.152,2.152,0,0,0,.538-.969c.03-.1.054-.21.075-.318a5.439,5.439,0,0,0,.094-.74v-.188a7.637,7.637,0,0,0-.056-1.208s1.9,0,3.329.153C626.754,322.144,627.5,322.335,627.319,322.663Z" transform="translate(-470.806 -254.462)"/><path class="g" d="M600.78,378.33c-1.989-.065-.522-4.206-.293-4.764s-.339-1.922-.339-1.922-.673-3.945-.673-4.2a10.548,10.548,0,0,0-.226-1.6,2.691,2.691,0,0,1,.269-1.566,5.629,5.629,0,0,0,.194-1.792v-1.857l.444-.587,1.133,1.077.315.3.554,2.078-.2,2.977-.1,2.9.686,4.01S602.782,378.4,600.78,378.33Z" transform="translate(-454.387 -282.352)"/><path class="h" d="M541.676,290.246l-1.7-.705v-.275l.441-.587,1.136,1.071Z" transform="translate(-394.652 -210.989)"/><path class="i" d="M601.955,350.11a7.82,7.82,0,0,0-.471,1.663,7.376,7.376,0,0,1-.444,1.6l1.884.783Z" transform="translate(-455.712 -275.095)"/><path class="j" d="M601.955,350.11a7.82,7.82,0,0,0-.471,1.663,7.376,7.376,0,0,1-.444,1.6l1.884.783Z" transform="translate(-455.712 -275.095)"/><path class="g" d="M642.644,466.483l-.156.334s-.17,1.106-.17,1.133-.49.764-.49.764l-1.23.269-.522-.065a7.331,7.331,0,0,0-.14-.9c-.019-.083-.038-.17-.062-.256a6.911,6.911,0,0,0-.859-1.948,16.071,16.071,0,0,0-1.238-2.543,10.475,10.475,0,0,1-1.434-3.978,20.881,20.881,0,0,0-.051-2.81c-.054-.9-.113-1.65-.113-1.65l3.1-1.83.361.568.215.336a1.552,1.552,0,0,1-.013.172v.04a5.744,5.744,0,0,1-.269,1.346s-.232,1.663,0,1.957a35.027,35.027,0,0,1,1.133,6.028v.164a3.639,3.639,0,0,0,1.1,2.121h0c.032.038.067.073.1.108A7.1,7.1,0,0,0,642.644,466.483Z" transform="translate(-481.395 -350.294)"/><path class="h" d="M650.126,503.285l.522.065,1.23-.269s.49-.74.49-.764.169-1.133.169-1.133l.156-.334.019-.04a6.534,6.534,0,0,1-.845-.7h0c-.03-.027-.059-.054-.086-.083a1.6,1.6,0,0,1-.762,1.558c-.455.234-.829.414-1.09.538Z" transform="translate(-491.445 -384.665)"/><path class="k" d="M653.063,501.568l-.175.374s-.17,1.106-.17,1.133-.49.764-.49.764l-1.23.269-.708-.083a4.691,4.691,0,0,0-.059-.589c-.022-.148-.051-.312-.092-.49.269-.121.686-.32,1.222-.6a1.526,1.526,0,0,0,.762-1.558,7.424,7.424,0,0,0,.643.57C652.9,501.452,653,501.525,653.063,501.568Z" transform="translate(-491.598 -385.222)"/><path class="h" d="M653.311,503.117l-.175.374s-.17,1.106-.17,1.133-.49.764-.49.764l-1.23.269-.708-.083a4.677,4.677,0,0,0-.059-.589,2.445,2.445,0,0,1,.447.062s1.679.358,1.76-.972c.048-.754.2-1.05.328-1.165C653.144,503,653.249,503.074,653.311,503.117Z" transform="translate(-491.847 -386.772)"/><path class="l" d="M652.142,500.811s-.417-.091-.5,1.235-1.76.972-1.76.972-.823-.2-.832.137a3.2,3.2,0,0,0,.221.92,2.866,2.866,0,0,0,.2.98c.156.188.057.888.057.888s.065.522,1.362,0a3.777,3.777,0,0,0,2.118-1.679c.032-.048-.113-.2.727-.5s3.229-2.234,3.057-3.178a.807.807,0,0,0-.571-.678.982.982,0,0,0-.751.1,5.956,5.956,0,0,1-.7.323,3.448,3.448,0,0,1-1,.239,3.851,3.851,0,0,0-.778.148A1.615,1.615,0,0,1,652.142,500.811Z" transform="translate(-490.801 -384.555)"/><path class="g" d="M601.584,465.858a2.28,2.28,0,0,0-.474.538c-.474.724-.759,1.736-1.076,2.172a4.3,4.3,0,0,0-.538,1.663,35.829,35.829,0,0,1-2.053,5.259,17.16,17.16,0,0,0-.99,2.543,2.007,2.007,0,0,0-.3,1.41.281.281,0,0,0,.016.126.048.048,0,0,1,0,.051v.019l-.565.961-1.8-.25-.929-.63a3.151,3.151,0,0,0,.2-.385,17.015,17.015,0,0,0,.851-3.09,21.174,21.174,0,0,0,.463-2.788,21.107,21.107,0,0,1,.148-2.153,52.528,52.528,0,0,1,1.868-5.019,2.012,2.012,0,0,0,.339-.928.77.77,0,0,0,0-.2l.608-.606S602.364,465.236,601.584,465.858Z" transform="translate(-449.748 -358.736)"/><path class="h" d="M596.241,519.526v.213l-.565.961-1.8-.25-.929-.63a3.146,3.146,0,0,0,.2-.385,3.665,3.665,0,0,1,1.486.237s1.117.213,1.588-.129A.029.029,0,0,1,596.241,519.526Z" transform="translate(-449.8 -398.829)"/><path class="k" d="M594.049,522.631l-1.825.436-1.674-1.238.086-.7a1.2,1.2,0,0,0,.307-.269,1.1,1.1,0,0,0,.242-.5c.1-.514,1.687.049,1.687.049s1.163.221,1.615-.148a2.836,2.836,0,0,0,.086,1.007.75.75,0,0,0,.269.4C595.308,521.99,594.049,522.631,594.049,522.631Z" transform="translate(-448.046 -399.369)"/><path class="h" d="M594.049,524.578l-1.825.436-1.674-1.238.086-.7a1.205,1.205,0,0,0,.307-.269h.366c.269.027.942,1.225.942,1.225,1.652.11,2.153-.431,2.323-.829a.751.751,0,0,0,.269.4C595.308,523.938,594.049,524.578,594.049,524.578Z" transform="translate(-448.046 -401.316)"/><path class="l" d="M587.866,524.741s-.662-1.2-.942-1.222a6.358,6.358,0,0,0-.711,0,8.981,8.981,0,0,1-1,1.884c-.269.148-.662.98-.662.98s1.938,1.884,3.811,1.515a3.883,3.883,0,0,1,1.717.428c.867.452,4.486.11,4.928-.684.328-.6.46-1.031.17-1.346a.786.786,0,0,0-.681-.231,2.563,2.563,0,0,1-2.374-1.05,21.531,21.531,0,0,0-1.787-1.515C590.2,523.5,590.444,524.913,587.866,524.741Z" transform="translate(-443.66 -401.821)"/><path class="h" d="M639.856,454.1l-.013.016a6.163,6.163,0,0,1-1.152,1.06,11.512,11.512,0,0,0-1.173.519s-.49.654-.88.686a1.538,1.538,0,0,0-.345.091c-.054-.9-.113-1.65-.113-1.65l3.1-1.825.361.568c.081.229.172.441.2.509Z" transform="translate(-481.395 -350.294)"/><path class="k" d="M606.545,408.619a3.341,3.341,0,0,0,0,3.658,12.183,12.183,0,0,0,2.479,3.13l4.107,8.51a6.712,6.712,0,0,1,1.469-.619c.393-.032.88-.684.88-.684a11.391,11.391,0,0,1,1.173-.522c.269-.065,1.165-1.077,1.165-1.077s-.449-.977-.35-1.238-.293-.915-.293-.915a5.377,5.377,0,0,1-.269-1.009,2.65,2.65,0,0,0-.425-.88,2.786,2.786,0,0,1-.423-1.012,9.637,9.637,0,0,0-.632-1.771l-.164-6.19Z" transform="translate(-459.344 -317.405)"/><path class="j" d="M617.762,421.015a6.513,6.513,0,0,1-1.165,1.077,11.4,11.4,0,0,0-1.173.522s-.49.651-.88.684a3.121,3.121,0,0,0-.807.288c-.35.159-.665.331-.665.331l-4.11-8.51a8.89,8.89,0,0,1-1-1.023,14.135,14.135,0,0,1-1.48-2.107,3.529,3.529,0,0,1-.468-2.538,2.921,2.921,0,0,1,.468-1.117l2.923-.207,5.821-.414.048,1.833.108,4.357s.094.218.213.506A5.531,5.531,0,0,1,616,415.95a2.764,2.764,0,0,0,.423,1.012,2.735,2.735,0,0,1,.425.88,5.454,5.454,0,0,0,.269,1.012s.393.651.3.91S617.762,421.015,617.762,421.015Z" transform="translate(-459.3 -317.405)"/><path class="h" d="M612.064,465.814a2.285,2.285,0,0,0-.474.538,10.038,10.038,0,0,1-4.371-1.055.776.776,0,0,0,0-.2l.608-.606S612.845,465.192,612.064,465.814Z" transform="translate(-460.229 -358.692)"/><path class="k" d="M616.945,408.89s-.269.912-.358,1.3-.293,2.317-.293,2.317l-.113.538-1.862,8.881-.406,1.93c-.716.393-2.508-.654-2.508-.654a9.953,9.953,0,0,1-4.664-1.106,6.744,6.744,0,0,0,.326-2.053,1.575,1.575,0,0,1,.587-1.241,15.5,15.5,0,0,1,.423-3.326s.132-1.009.622-1.27-.065-.651-.2-.883a1,1,0,0,1,.046-.6,4.413,4.413,0,0,1,.151-.444,6.176,6.176,0,0,1-1.437-4.266,6.887,6.887,0,0,1,.035-.789l2.691-.471,5.88-1.028.6,1.846h0l.151.463Z" transform="translate(-459.878 -315.746)"/><path class="h" d="M629.408,322.656a3.526,3.526,0,0,0-.269.826q-.024.108-.048.226a2.472,2.472,0,0,1-1.644.371c-.25,0-.39-.479-.627-.538,0,0-.355-1.281-.455-.2-.683-.14-1.273.393-1.757-.073h0v-.188a7.622,7.622,0,0,0-.057-1.208s1.9,0,3.329.153C628.842,322.136,629.593,322.328,629.408,322.656Z" transform="translate(-472.895 -254.455)"/><path class="g" d="M627.877,306.768a3.639,3.639,0,0,1-4.363,3.561h0a3.633,3.633,0,1,1,3.9-5.345A3.568,3.568,0,0,1,627.877,306.768Z" transform="translate(-470.019 -240.763)"/><path class="h" d="M626.676,332.844c-.027.3-.04.5-.04.5s-5.837-.39-4.825-1.37a2.154,2.154,0,0,0,.538-.969l2.532.414s.716.554,1.27,1.077A2.3,2.3,0,0,0,626.676,332.844Z" transform="translate(-470.806 -261.128)"/><path class="h" d="M616.232,408.188a1.884,1.884,0,0,1-.767-.057,1.553,1.553,0,0,1-.31-.137c-.49-.293-2.118.067-2.118.067s-4.435.293-4.632,0c-.11-.17-.893-.145-1.534-.094-.269.022-.5.048-.662.065a2.92,2.92,0,0,1,.468-1.117l2.923-.207,5.88-1.028.6,1.846h0A6.644,6.644,0,0,0,616.232,408.188Z" transform="translate(-459.491 -315.709)"/><path class="i" d="M610.982,331.852l-3.181-.522a.947.947,0,0,1-.6.522,7.808,7.808,0,0,0-3.162,2.25l-.848,1.176s-.686.848-.457,1.531a25.861,25.861,0,0,1,.49,3l.326,2.576a7.372,7.372,0,0,1,.425,2.675,27.669,27.669,0,0,0,.1,4.239l-.651,4.239s2.215-.293,2.422,0,4.632,0,4.632,0,1.615-.361,2.118-.067a1.771,1.771,0,0,0,1.076.2,4.865,4.865,0,0,1-.164-2.086,8.362,8.362,0,0,0,.164-2.121,9.712,9.712,0,0,0,.161-2.347c-.164-.358.361-1.663.361-1.663l1.728-9.1s-.21-1.631-1.133-2.185a19.867,19.867,0,0,1-2.519-1.238C611.711,332.412,610.982,331.852,610.982,331.852Z" transform="translate(-456.916 -261.369)"/><path class="g" d="M639,364.587v1.077l1,2.707.363,2.511a12.392,12.392,0,0,1,.654,2.422,20.338,20.338,0,0,0,1.6,3.62s.436,1.012.218,1.206-2.107,4.5.269,4.371,1.631-4.629,1.631-4.629l-.326-1.957s-.457-4.893-.457-5.251c0,0-.587-2.086-.651-2.543s-.49-2.772-.49-2.772l-.358-1.5Z" transform="translate(-483.456 -285.137)"/><path class="h" d="M561.075,307.82l-3.544,2.029-1.1,1.663,1.467-1.491Z" transform="translate(-406.675 -224.978)"/><path class="h" d="M617.473,393.63a7.075,7.075,0,0,1-2.374,1.052c-.759,0-2.519,1.809-2.519,1.809a22.587,22.587,0,0,1,2.691-1.564A15.139,15.139,0,0,0,617.473,393.63Z" transform="translate(-464.147 -306.902)"/><path class="h" d="M612.171,395.72s-1.515,1.37-1.125,1.518,2.422-1.518,2.422-1.518Z" transform="translate(-462.978 -308.43)"/><path class="h" d="M637.828,377.55s-1.173,1.591-.856,1.566,1.222-.931,1.222-.931Z" transform="translate(-481.934 -295.15)"/><path class="h" d="M637.608,383.37s-1.27,1.443-1.222,1.809S637.608,383.37,637.608,383.37Z" transform="translate(-481.545 -299.403)"/><path class="h" d="M640.542,386.05s-.856,1.529-.49,1.846S640.542,386.05,640.542,386.05Z" transform="translate(-484.159 -301.362)"/><path class="h" d="M637.07,371.46s-.638,1.076-.172,1.149.511,0,.511,0Z" transform="translate(-481.796 -290.699)"/><path class="h" d="M636.2,356.83a11.24,11.24,0,0,1-.651,1.919,8.9,8.9,0,0,1-.253-.961A6.556,6.556,0,0,1,636.2,356.83Z" transform="translate(-480.752 -280.006)"/><path class="h" d="M627.418,305a1.584,1.584,0,0,1-.245.379,2.8,2.8,0,0,0-.441.506,2.713,2.713,0,0,0-.159.864c-.048.291-.231.614-.538.622a1.093,1.093,0,0,1-.431-.129.439.439,0,0,0-.428.013.478.478,0,0,0-.137.323,4.269,4.269,0,0,0-.043.764,1.924,1.924,0,0,0,.016.3,1.708,1.708,0,0,1-.057.969,1.173,1.173,0,0,1-.6.484,3.727,3.727,0,0,1-.845.237h0a9.292,9.292,0,0,1-1.666.054.411.411,0,0,1-.151-.024.213.213,0,0,1-.065-.04,5.086,5.086,0,0,0,.1-.928,3.633,3.633,0,1,1,5.692-4.4Z" transform="translate(-470.025 -240.776)"/><path class="m" d="M621.645,298.558a3.158,3.158,0,0,0-.977.215,9.952,9.952,0,0,1-2.062-.156,3.827,3.827,0,0,0-1.7.506,4.092,4.092,0,0,0-1.13.791,1.844,1.844,0,0,0-.538,1.243,2.035,2.035,0,0,1-.024.807,2.277,2.277,0,0,1-.248.377,1.119,1.119,0,0,0-.116.934,3.1,3.1,0,0,0,.557.834c.447.573.727,1.26,1.128,1.868a5.81,5.81,0,0,0,.587.745.414.414,0,0,0,.126.1.388.388,0,0,0,.148.022,5.943,5.943,0,0,0,2.514-.291,1.15,1.15,0,0,0,.6-.484,1.709,1.709,0,0,0,.059-.969,4.444,4.444,0,0,1,.024-1.077.474.474,0,0,1,.137-.32.431.431,0,0,1,.431-.013,1.172,1.172,0,0,0,.428.129c.293,0,.479-.334.538-.624a1.464,1.464,0,0,1,.6-1.37,2.055,2.055,0,0,0-1.09-3.267Z" transform="translate(-465.77 -237.413)"/><path class="h" d="M639.268,346.112a4.233,4.233,0,0,0,0,1.346c-.032.361,0,2.349,0,2.349-1.077-.328-3.814.326-3.814.326l-.326-.977a2.42,2.42,0,0,1-.409-.807,8.947,8.947,0,0,1-.253-.963,20,20,0,0,1-.32-2.048c-.137-1.036,1.4-2.153,2.573-2.772s2.191,2.021,2.191,2.021A3.258,3.258,0,0,1,639.268,346.112Z" transform="translate(-479.903 -269.511)"/><path class="i" d="M639.268,345.413a4.25,4.25,0,0,0,0,1.346c-.032.358,0,2.347,0,2.347-1.077-.326-3.814.326-3.814.326l-.326-.977a2.393,2.393,0,0,1-.409-.807,8.888,8.888,0,0,1-.253-.961,20.123,20.123,0,0,1-.32-2.048c-.137-1.039,1.4-2.153,2.573-2.775s2.191,2.021,2.191,2.021A3.232,3.232,0,0,1,639.268,345.413Z" transform="translate(-479.903 -268.998)"/><path class="n" d="M623.094,302.455a2.157,2.157,0,0,0-.24-.525c.016.046.032.089.046.135a2.072,2.072,0,0,1-.369,1.838,1.464,1.464,0,0,0-.6,1.37c-.046.291-.232.611-.538.622a1.093,1.093,0,0,1-.431-.129.439.439,0,0,0-.428.013.479.479,0,0,0-.137.323,4.407,4.407,0,0,0-.024,1.077,1.74,1.74,0,0,1-.059.972,1.2,1.2,0,0,1-.6.484,5.942,5.942,0,0,1-2.514.291.391.391,0,0,1-.148-.024.348.348,0,0,1-.126-.1,5.226,5.226,0,0,1-.587-.745c-.4-.608-.681-1.292-1.128-1.868a5.506,5.506,0,0,1-.369-.474v.032a2.978,2.978,0,0,0,.557.834c.444.573.727,1.26,1.125,1.868a5.61,5.61,0,0,0,.589.745.4.4,0,0,0,.124.1.4.4,0,0,0,.148.022,5.937,5.937,0,0,0,2.514-.291,1.149,1.149,0,0,0,.6-.484,1.708,1.708,0,0,0,.059-.969,4.733,4.733,0,0,1,.024-1.077.5.5,0,0,1,.137-.32.431.431,0,0,1,.431-.013,1.173,1.173,0,0,0,.428.129c.3,0,.479-.334.538-.624a2.644,2.644,0,0,1,.159-.864,2.706,2.706,0,0,1,.441-.506A2.078,2.078,0,0,0,623.094,302.455Z" transform="translate(-465.798 -239.881)"/><path class="o" d="M720.153,299.147l-2.325,4.941a4.23,4.23,0,0,1-.563,1.1,25.606,25.606,0,0,0-1.2,3.106l-2.495,3.843h0l-.17.269-.977-.269-.686-2.562.04-.743v-.094A15.027,15.027,0,0,1,713.664,307s.269.032.78-1.219.98-1.521.98-1.521l.269-.9,2.888-4.6s2.422-3.469,3.082-1.93S720.153,299.147,720.153,299.147Z" transform="translate(-536.62 -235.866)"/><path class="o" d="M689.134,433.056a.555.555,0,0,1-.078.237c-.269.393-1.784,8.389-1.784,8.389a4.54,4.54,0,0,1-.441,2.1,30.849,30.849,0,0,0-.711,3.03,52.109,52.109,0,0,1-.436,6.335,6.668,6.668,0,0,0,.1,2.691,4.117,4.117,0,0,0,.778,2.188l.059.086c.1.14.161.221.161.221a1.3,1.3,0,0,0,.342.423l.07.054a3.95,3.95,0,0,0,1.37.579h.048c.194.043.323.062.323.062l.121.662-1.294.269-2.471.17s-2.912.223-2.25-1.077a2.08,2.08,0,0,0,.118-.269h0a2.017,2.017,0,0,0,.067-.194,6.7,6.7,0,0,0,.129-2.761l-.563-4.424a17.854,17.854,0,0,1,.729-8.682,2.141,2.141,0,0,1,.175-1.294,8.755,8.755,0,0,0,0-2.96s-.17-2.616-.39-3.91a7.931,7.931,0,0,1-.089-1.65,8.219,8.219,0,0,1,.089-.963l5.574-.74A4.191,4.191,0,0,1,689.134,433.056Z" transform="translate(-515.257 -334.675)"/><path class="h" d="M690.229,531.529l-1.294.269-2.471.17s-2.912.223-2.25-1.076a2.066,2.066,0,0,0,.118-.269h0a2.037,2.037,0,0,0,.067-.194,4.577,4.577,0,0,1,1.475.3,1.354,1.354,0,0,0,1.453-.514l.4-.77.059-.11c.1.14.161.221.161.221a1.345,1.345,0,0,0,.412.476l-.07.143-.39.824s.5.051,1.184.161a.538.538,0,0,0,.646-.353h.048c.194.043.323.062.323.062Z" transform="translate(-516.43 -406.082)"/><path class="p" d="M690.851,532.656c-.1.441-2.823.576-2.823.576s-1.518-.145-1.943.207-1.677.269-1.725.269-.708-.024-.966-1.208.337-1.346.363-1.364h0a4.465,4.465,0,0,1,1.542.3,1.354,1.354,0,0,0,1.453-.514l.463-.88c.1.14.161.221.161.221a1.345,1.345,0,0,0,.412.476l-.46.966s.5.051,1.184.159a.568.568,0,0,0,.694-.538.6.6,0,0,0,0-.073s.425.124.953.269A.982.982,0,0,1,690.851,532.656Z" transform="translate(-515.855 -406.6)"/><path class="o" d="M713.792,437.126c-.065.39-.132,1.4-.132,1.4a8.035,8.035,0,0,1-.358,2.861l-.293,1.149a23.341,23.341,0,0,1-.807,5.054s-.627,3.326-.953,4.761a3.935,3.935,0,0,0,.169,2.4l.024.059a.444.444,0,0,0,.019.081.822.822,0,0,0,.038.116,1.72,1.72,0,0,0,.32.538,1.569,1.569,0,0,0,.175.18h0a3.555,3.555,0,0,0,1.039.641h0l.164.065a5.074,5.074,0,0,0,.519.161h.059l-.132.77-1.728-.444-2.314-.751-1.122-.63a.716.716,0,0,1,.035-.18.055.055,0,0,0,0-.022,1.157,1.157,0,0,1,.035-.18,24.628,24.628,0,0,0,.4-5.921c-.269-2.576.807-6.131,1.058-6.976a4.214,4.214,0,0,0,.2-1.5,10.187,10.187,0,0,1-.522-3.1s-.783-1.6-1.429-3.294a8.412,8.412,0,0,1-.466-1.714,5.805,5.805,0,0,1-.094-1.251s5.251-4.793,5.827-.153c.019.159.038.307.057.455C714.086,435.966,713.854,436.747,713.792,437.126Z" transform="translate(-533.659 -332.916)"/><path class="h" d="M715.943,526.089l-.132.77-1.728-.444-2.315-.751-1.138-.651a.717.717,0,0,1,.035-.18.058.058,0,0,0,0-.021,1.168,1.168,0,0,1,.035-.18h.162a2.127,2.127,0,0,1,.969.132,2.328,2.328,0,0,0,.971.234,1.227,1.227,0,0,1,.554-.1l.24-.538.038-.081a1.69,1.69,0,0,0,.32.538,2.1,2.1,0,0,0,.186.191v.186l-.013.269a3.363,3.363,0,0,0,.832.382.479.479,0,0,0,.232,0h0l.164.065a5.1,5.1,0,0,0,.519.161h0Z" transform="translate(-535.809 -402.391)"/><path class="p" d="M714.568,528.316c-.482-.137-1.644-.361-1.833-.188a6.27,6.27,0,0,1-1.8,0,.98.98,0,0,1-.832-.487,4.972,4.972,0,0,1-.065-2.209h.118l.2-.022h0a2.152,2.152,0,0,1,.969.129,2.3,2.3,0,0,0,.972.237,1.2,1.2,0,0,1,.554-.1l.269-.605a1.718,1.718,0,0,0,.32.538,1.764,1.764,0,0,0,.186.188l-.024.449a3.44,3.44,0,0,0,.832.385.336.336,0,0,0,.4-.126.322.322,0,0,0,.03-.067h0a2.977,2.977,0,0,0,.684.226h0a1.249,1.249,0,0,1,1.346.958C717.146,528.372,715.049,528.453,714.568,528.316Z" transform="translate(-535.3 -402.968)"/><path class="h" d="M691.063,433.056l-.3.091a4.169,4.169,0,0,1-.719.151,29.936,29.936,0,0,1-4.9.035,8.246,8.246,0,0,1,.089-.963l5.574-.74A4.215,4.215,0,0,1,691.063,433.056Z" transform="translate(-517.186 -334.675)"/><path class="p" d="M694.6,411.056s-2.045.318-3.711.681c-.554.121-1.076.25-1.451.371a4.42,4.42,0,0,1-.719.153,31.276,31.276,0,0,1-5.148.019c-.9-2.934,1.1-6.629,1.1-6.629a3.756,3.756,0,0,1,.417-1.195v-.03l.285-1.047h7.6l.094.449.194.915,1.195,5.671Z" transform="translate(-515.862 -314.028)"/><path class="h" d="M713.606,431.788l-.046.019-.891.4a17.87,17.87,0,0,1-4.844.538,5.813,5.813,0,0,1-.094-1.251s5.251-4.793,5.827-.153C713.569,431.492,713.588,431.651,713.606,431.788Z" transform="translate(-533.688 -332.982)"/><path class="p" d="M700.849,412.38l-.186.083-.891.4a18.287,18.287,0,0,1-4.909.538h-.25a1.134,1.134,0,0,1-.88-.538c0-.059-.046-.35-.083-.6-.035-.2-.062-.371-.062-.371a23.527,23.527,0,0,1-2.96-1.531c-.745-.509-.557-4.123-.414-5.94.051-.627.1-1.039.1-1.039l7.7.449,1.077.062.616.137.164.035a25.657,25.657,0,0,0,.662,3.5c.218.269.075,1.173.048,1.69a3.075,3.075,0,0,1-.073.659,4.071,4.071,0,0,1,.245,1.41A2.821,2.821,0,0,0,700.849,412.38Z" transform="translate(-520.79 -314.028)"/><circle class="o" cx="3.154" cy="3.154" r="3.154" transform="translate(168.664 65.241)"/><path class="o" d="M686.7,330.366s.218,2.987-.393,3.674a27.793,27.793,0,0,1-2.2,1.981l.49,2.029,2.764.318,3.23-3.447-.735-.891a5.283,5.283,0,0,1-.1-2.861C690.222,330.216,686.7,330.366,686.7,330.366Z" transform="translate(-516.426 -260.658)"/><path class="h" d="M713.573,345.016h0l-.17.269-.977-.269-.686-2.562.04-.743.2-.291s1.076.024,1.031,1A8.577,8.577,0,0,0,713.573,345.016Z" transform="translate(-536.62 -268.743)"/><path class="h" d="M699.7,404.435s-.778.172-1.669.288a4.819,4.819,0,0,1-2.341-.07c-.708-.42-4.543-.3-5.652-.256h-.188l.285-1.047h7.6l.094.449,1.076.062.616.137C699.638,404.262,699.7,404.435,699.7,404.435Z" transform="translate(-520.621 -314.006)"/><path class="q" d="M685.381,342.13s1.076.024,1.028,1A9.024,9.024,0,0,0,687,345.8l-.245.562s-.342,1.37-.073,1.712,1.246.342.684,3.154a10.063,10.063,0,0,0,.172,2.788c.293.684.293,2.323.732,3.009a16.252,16.252,0,0,1,1.028,2.274s-3.178.708-4.01.221-5.942-.245-5.942-.245.024-.856,0-.955a.791.791,0,0,1,.121-.622c.172-.234.441-.624.293-.966s.366-.848.1-1.378-.595-.635-.538-.926a1.246,1.246,0,0,0-.3-.926c-.194-.245-1.515-2.829-1.515-2.829l-.221-1.206s-1.7-1.246-1.669-1.833a3.471,3.471,0,0,1,.643-1.4l1.636-1.615s.907.977,1.787.635a15.943,15.943,0,0,0,2.772-1.981s.675-.366.724-.635.466-.024.466-.024.611-.336.732-.218a2.154,2.154,0,0,0,.662.218Z" transform="translate(-510.212 -269.262)"/><path class="o" d="M656.227,361.06l-.519.409a6.877,6.877,0,0,0-.654,2.664,35.113,35.113,0,0,1-.659,4.128l-1.028,1.838a46.828,46.828,0,0,0-1.908,4.486,11.773,11.773,0,0,1-1.222,2.533s-3.4,3.055-1.028,3.606,2.446-2.422,2.446-2.422a3.5,3.5,0,0,0,.643-1.028c.1-.417,3.1-5.735,3.1-5.735s1.052-1.432.832-2.191a22.976,22.976,0,0,0,1.37-4.037,14.2,14.2,0,0,0-.221-2.013l.221-1.687Z" transform="translate(-490.303 -283.098)"/><path class="h" d="M695.814,386.11a24.419,24.419,0,0,1-2.861,1.321c-.466.067,2.029-.269,2.029-.269Z" transform="translate(-522.846 -301.406)"/><path class="h" d="M698.575,389.74s-3.178,1.077-4.575.883C694,390.617,697.477,391.282,698.575,389.74Z" transform="translate(-523.654 -304.059)"/><path class="h" d="M699.388,391.05s-2.863,1.8-4.548,1.507c0,0,3.937.783,4.548.366l-1.76-.487S699.582,391.4,699.388,391.05Z" transform="translate(-524.268 -305.017)"/><path class="h" d="M675.377,304.646a2.977,2.977,0,0,0-2.422.455c-.49.385-.807.974-1.367,1.262a7.317,7.317,0,0,1-.893.315,2.581,2.581,0,0,0-1.574,2.777c.086.484.312.931.425,1.41a5.543,5.543,0,0,1-.194,2.6,27.375,27.375,0,0,1-2.718,6.742.715.715,0,0,0-.135.452.665.665,0,0,0,.167.288,6.377,6.377,0,0,0,4.7,1.814,3.628,3.628,0,0,0,1.862-.309,2.82,2.82,0,0,0,.907-.832,4.42,4.42,0,0,0,.845-2.842,7.977,7.977,0,0,1-.113-2.444.624.624,0,0,1,.145-.3c.186-.191.5-.14.759-.172a1.675,1.675,0,0,0,1.268-1.558,16.926,16.926,0,0,0-.1-2.153,4.538,4.538,0,0,1,.853-2.662,2.933,2.933,0,0,0,.624-1.063,1.754,1.754,0,0,0-.455-1.3,6.4,6.4,0,0,0-1.208-1.86A3.26,3.26,0,0,0,675.377,304.646Z" transform="translate(-503.553 -241.803)"/><path class="r" d="M674.689,303.92a2.96,2.96,0,0,0-2.406.455c-.49.388-.807.977-1.37,1.265a7.809,7.809,0,0,1-.893.312,2.581,2.581,0,0,0-1.574,2.772c.086.484.312.931.425,1.41a5.509,5.509,0,0,1-.194,2.6,27.325,27.325,0,0,1-2.715,6.728.69.69,0,0,0-.135.452.622.622,0,0,0,.164.288,6.367,6.367,0,0,0,4.7,1.814,3.647,3.647,0,0,0,1.862-.307,2.859,2.859,0,0,0,.907-.834,4.422,4.422,0,0,0,.842-2.842,7.884,7.884,0,0,1-.116-2.444.678.678,0,0,1,.145-.3c.188-.191.5-.14.762-.169a1.678,1.678,0,0,0,1.265-1.558,17.457,17.457,0,0,0-.1-2.153,4.509,4.509,0,0,1,.853-2.659,2.96,2.96,0,0,0,.624-1.077,1.771,1.771,0,0,0-.458-1.3,6.435,6.435,0,0,0-1.208-1.86A3.26,3.26,0,0,0,674.689,303.92Z" transform="translate(-503.062 -241.274)"/><path class="h" d="M694.84,417.76s.627,2.936,1.671,3.733Z" transform="translate(-524.268 -324.538)"/><g class="b" transform="translate(162.759 65.566)"><path d="M675.95,323.532c-.032-.113-.07-.229-.11-.342C675.883,323.306,675.91,323.408,675.95,323.532Z" transform="translate(-673.141 -320.986)"/><path d="M677.541,315a1.079,1.079,0,0,1,0,.269,2.862,2.862,0,0,1-.624,1.063,4.545,4.545,0,0,0-.853,2.662,18.151,18.151,0,0,1,.1,2.153A1.667,1.667,0,0,1,674.9,322.7c-.269.032-.573-.019-.759.172a.68.68,0,0,0-.148.3,7.992,7.992,0,0,0,.116,2.444,4.422,4.422,0,0,1-.856,2.839,2.791,2.791,0,0,1-.907.832,3.614,3.614,0,0,1-1.86.31,6.459,6.459,0,0,1-4.64-1.752.447.447,0,0,0-.027.237.621.621,0,0,0,.164.288,6.366,6.366,0,0,0,4.7,1.814,3.647,3.647,0,0,0,1.862-.307,2.857,2.857,0,0,0,.907-.834,4.422,4.422,0,0,0,.842-2.842,7.876,7.876,0,0,1-.116-2.444.675.675,0,0,1,.145-.3c.188-.191.5-.14.762-.17a1.678,1.678,0,0,0,1.265-1.558,17.433,17.433,0,0,0-.1-2.153,4.511,4.511,0,0,1,.853-2.659,2.962,2.962,0,0,0,.624-1.077A1.209,1.209,0,0,0,677.541,315Z" transform="translate(-665.81 -315)"/></g><path class="s" d="M223.624,453.389a3.162,3.162,0,0,0,3.526-.229l-.016,2.183a56.579,56.579,0,0,0,1.959,6.952l1.305,4.489a35.1,35.1,0,0,1,1.437,9.761,9.328,9.328,0,0,0,.417,3.073c.694,1.884-.269,4.306-.694,5.2a21.744,21.744,0,0,1-2.153.606,1.471,1.471,0,0,0-.194.059v-.014a8.88,8.88,0,0,1-2.831.67.759.759,0,0,0-.538,1.324,3.946,3.946,0,0,1-1.305.172c-.872-.108-1.305,1.391.326,1.819s10.889,0,10.889,0a1.313,1.313,0,0,0,.7-1.451c.711-.027,1.155-.048,1.155-.048s1.634-.748,0-2.78l-.086.067-.35-1.028v-1.391s2.07-9.958,1.416-11.12-.98-7.164-.98-7.164l.218-6.524a15.483,15.483,0,0,0,1.047-4.621,9.847,9.847,0,0,0,.417-2.193c.024-.35.046-.719.059-1.1a7.388,7.388,0,0,0-.4-2.462,24.336,24.336,0,0,1,2.465-3.1,3.173,3.173,0,0,0,.98-2.78l-.538-3.636-1.308-6.19a4.738,4.738,0,0,0-.592-3.273c.094-.554.183-1.112.25-1.669a21.357,21.357,0,0,0-.382-7.266,4.931,4.931,0,0,0-1.028-2.315c-.662-.713-1.733-1.149-1.978-2.083a6.783,6.783,0,0,0-.151-.7c-.24-.614-1-.834-1.658-.915a8.991,8.991,0,0,0-4.015.21,4.87,4.87,0,0,0-2.312,2.169,1.859,1.859,0,0,0-.269,1.346,1.763,1.763,0,0,0,.188.455,4.1,4.1,0,0,0-.269,1.434A4.174,4.174,0,0,0,231,423.2c.024.081.048.162.07.242a4.038,4.038,0,0,1,.1.581c-.019.379-.043.759-.062,1.136a1.278,1.278,0,0,1-.04.153,27.943,27.943,0,0,0-2.737,1.4c.654.961-.108,5.025-.108,5.025a4.142,4.142,0,0,0-1.526,5.988,6.339,6.339,0,0,1,.762,5.315l-.269,4.182h0l-.054.834h.022l-.022.318h.046v.342a5.016,5.016,0,0,0-2.549,1.884,6.751,6.751,0,0,1-1.141,1.4.84.84,0,0,0,.132,1.394Zm13.147-11.11a3.97,3.97,0,0,1,.388-2.1h.77c.027.18.057.353.094.509C238.243,441.639,237.36,442.088,236.771,442.279Z" transform="translate(-179.545 -321.491)"/><path class="t" d="M250.88,671.92l.42,1.257-1.356,1.362-4.505,1.047-3.248-.315.21-1.152h0a1.386,1.386,0,0,1,1.031-1.015c1.346-.315,3.881-1.028,4.416-2.024Z" transform="translate(-193.439 -509.683)"/><path class="h" d="M250.88,671.92l.42,1.257-1.356,1.362-4.505,1.047-3.248-.315.21-1.152h0a1.386,1.386,0,0,1,1.031-1.015c1.346-.315,3.881-1.028,4.416-2.024Z" transform="translate(-193.439 -509.683)"/><path class="u" d="M236.634,679.8l.63-.84-.63-.969a8.438,8.438,0,0,1-2.724.654c-.84-.1-1.257,1.365.315,1.782s10.477,0,10.477,0,1.572-.732,0-2.724l-1.356,1.047s-2.306,1.26-3.458,1.05Z" transform="translate(-186.842 -514.521)"/><path class="t" d="M235.55,680.723l3.248.312,4.505-1.047,1.362-1.362-.11-.334-.156-.468-.151-.455-3.038-.84a1.884,1.884,0,0,1-.616.619,13.127,13.127,0,0,1-3.8,1.4l-.132.038a1.393,1.393,0,0,0-.538.326,1.379,1.379,0,0,0-.374.651Z" transform="translate(-188.586 -513.666)"/><path class="h" d="M235.55,685.51l3.248.312,4.505-1.047,1.362-1.362-.11-.334-1.251.961s-2.3,1.259-3.458,1.049H236.6l.627-.84-.565-.872a1.38,1.38,0,0,0-.912.977Z" transform="translate(-188.586 -518.453)"/><path class="u" d="M230.014,685.246l.627-.84-.627-.969a8.441,8.441,0,0,1-2.726.654c-.842-.1-1.257,1.364.315,1.782s10.477,0,10.477,0,1.572-.732,0-2.724l-1.362,1.036s-2.3,1.26-3.458,1.05Z" transform="translate(-182.001 -518.504)"/><path class="t" d="M249.18,450.055s5.03.522,4.306-1.572a3.808,3.808,0,0,1-.156-1.852,5.143,5.143,0,0,1,.891-2.131l-4.715.735a5.949,5.949,0,0,1,.638,1.512A3.1,3.1,0,0,1,249.18,450.055Z" transform="translate(-198.548 -344.082)"/><path class="v" d="M264.538,553.9s-.1,4.505-1.152,6.707L263.166,567s.315,5.867.942,7.022-1.362,10.9-1.362,10.9v1.674s-3.351,1.26-4.306-.207l.958-12.469-.412-17.294Z" transform="translate(-205.316 -424.039)"/><path class="h" d="M264.538,553.9s-.1,4.505-1.152,6.707L263.166,567s.315,5.867.942,7.022-1.362,10.9-1.362,10.9v1.674s-3.351,1.26-4.306-.207l.958-12.469-.412-17.294Z" transform="translate(-205.316 -424.039)"/><path class="w" d="M276.085,500.17l.627,1.677.525,3.563a3.149,3.149,0,0,1-.942,2.724,29.959,29.959,0,0,0-2.933,3.878l-1.992-5.967s1.992-.315,1.677-1.677a19.456,19.456,0,0,1-.21-3.878Z" transform="translate(-214.766 -384.769)"/><path class="x" d="M276.085,500.17l.627,1.677.525,3.563a3.149,3.149,0,0,1-.942,2.724,29.959,29.959,0,0,0-2.933,3.878l-1.992-5.967s1.992-.315,1.677-1.677a19.456,19.456,0,0,1-.21-3.878Z" transform="translate(-214.766 -384.769)"/><path class="h" d="M254.29,677.149a2.608,2.608,0,0,0,3.805.676l-.151-.455-3.038-.84a1.883,1.883,0,0,1-.616.619Z" transform="translate(-202.282 -513.666)"/><path class="v" d="M238.67,537.492a56.161,56.161,0,0,0,1.884,6.812l1.257,4.4a34.871,34.871,0,0,1,1.381,9.565,9.418,9.418,0,0,0,.412,3.011c.84,2.3-.837,5.447-.837,5.447,1.467,2.619,3.98.84,3.98.84v-1.677s1.992-9.115,1.467-10.9a43.355,43.355,0,0,1-.732-6.6v-8.7a9.883,9.883,0,0,0,2.864-6.26c.027-.342.046-.7.059-1.076.086-2.366-1.531-5.135-2.153-6.125-.151-.237-.245-.371-.245-.371l-9.263,3.671h-.022v1.152Z" transform="translate(-190.866 -403.545)"/><path class="h" d="M250.35,445.235a5.95,5.95,0,0,1,.638,1.512,4.077,4.077,0,0,0,3.186-.116,5.143,5.143,0,0,1,.891-2.131Z" transform="translate(-199.403 -344.082)"/><circle class="t" cx="4.085" cy="4.085" r="4.085" transform="translate(48.956 94.554)"/><path class="h" d="M238.67,530.668h.043c4.395.9,9.909-3.676,9.909-3.676a5.62,5.62,0,0,1-.382-.78c-.151-.237-.245-.371-.245-.371l-9.253,3.676-.024.366Z" transform="translate(-190.866 -403.531)"/><path class="e" d="M236.726,458.095s5.867-3.563,7.754-2.1l2.619,3.353s1.677.522,1.362,3.875l1.257,6.077-3.768.945a4.107,4.107,0,0,0-.436,5.138s-5.552,4.61-9.958,3.668l.312-4.925a6.372,6.372,0,0,0-.732-5.237,4.1,4.1,0,0,1,1.467-5.87C236.607,463.006,237.342,459.037,236.726,458.095Z" transform="translate(-187.757 -352.227)"/><path class="t" d="M229.245,544.17A5.407,5.407,0,0,0,226,546.264a6.473,6.473,0,0,1-1.1,1.37.832.832,0,0,0,.129,1.327c.832.5,2.188.807,3.9-.6C231.863,545.949,229.245,544.17,229.245,544.17Z" transform="translate(-180.604 -416.928)"/><path class="h" d="M244.173,471.927s2.1-.21,2.619,5.24,1.362,6.707,1.362,6.707.525,2.828-.732,4.505-3.668,5.237-3.668,5.237a2.425,2.425,0,0,1-3.143-1.884l3.248-6.077a4.357,4.357,0,0,0-.732-3.561C241.87,480.628,240.925,470.88,244.173,471.927Z" transform="translate(-192.284 -364.07)"/><path class="e" d="M243.393,470.784s2.1-.21,2.619,5.237,1.364,6.707,1.364,6.707.522,2.829-.735,4.505-3.668,5.237-3.668,5.237a2.425,2.425,0,0,1-3.143-1.884l3.248-6.077a4.363,4.363,0,0,0-.732-3.563C241.09,479.479,240.145,469.729,243.393,470.784Z" transform="translate(-191.714 -363.234)"/><path class="h" d="M246.6,485.57s-.21,3.248.732,5.03.945,4.085,0,5.345" transform="translate(-196.644 -374.099)"/><path class="h" d="M244.7,465.942s.84-.837,3.248-.942a6.948,6.948,0,0,0,3.458-.84" transform="translate(-195.273 -358.451)"/><path class="h" d="M249.42,417.943c.635.078,1.364.3,1.593.9a6.669,6.669,0,0,1,.145.689c.237.915,1.268,1.346,1.9,2.043a4.861,4.861,0,0,1,.99,2.266,21.313,21.313,0,0,1,.369,7.118c-.2,1.739-.622,3.45-.74,5.194a8.211,8.211,0,0,0,1.052,5.049,12.369,12.369,0,0,1,1.241,1.884,3.627,3.627,0,0,1-2.2.584q-1.346.043-2.691,0a2.88,2.88,0,0,1-1.375-.285,2.1,2.1,0,0,1-.721-.775,5.549,5.549,0,0,1-.624-2.942c.022-1.017.183-2.024.2-3.038a2.733,2.733,0,0,0-.35-1.593,5.167,5.167,0,0,0-.88-.807,5.564,5.564,0,0,1-1.542-4.085c-.038-1.5.207-3,.081-4.492-.048-.584-.269-1.286-.842-1.4a3.657,3.657,0,0,1-.538-.07c-.463-.178-.417-.829-.538-1.305-.148-.538-.6-.947-.732-1.488-.3-1.268,1.311-2.78,2.368-3.23A8.394,8.394,0,0,1,249.42,417.943Z" transform="translate(-194.164 -324.586)"/><path class="y" d="M249.774,417.174c.635.081,1.362.3,1.593.9a6.57,6.57,0,0,1,.145.692c.237.915,1.268,1.346,1.9,2.04a4.86,4.86,0,0,1,.99,2.266,21.313,21.313,0,0,1,.369,7.118c-.2,1.739-.622,3.45-.74,5.194a8.21,8.21,0,0,0,1.052,5.049,12.366,12.366,0,0,1,1.241,1.884,3.627,3.627,0,0,1-2.2.584q-1.346.043-2.7,0a2.879,2.879,0,0,1-1.375-.285,2.115,2.115,0,0,1-.721-.772,5.538,5.538,0,0,1-.624-2.944c.022-1.017.183-2.024.2-3.039a2.737,2.737,0,0,0-.35-1.593,5.278,5.278,0,0,0-.88-.807,5.561,5.561,0,0,1-1.545-4.085c-.038-1.5.21-3,.083-4.492-.048-.584-.269-1.286-.842-1.4a3.656,3.656,0,0,1-.538-.07c-.463-.178-.417-.829-.538-1.305-.148-.538-.6-.947-.732-1.488-.3-1.265,1.311-2.78,2.368-3.23A8.6,8.6,0,0,1,249.774,417.174Z" transform="translate(-194.413 -324.028)"/><ellipse class="a" cx="6.187" cy="0.692" rx="6.187" ry="0.692" transform="translate(161.284 169.436)"/></g></svg>