<svg xmlns="http://www.w3.org/2000/svg" width="133" height="40" fill="none" viewBox="0 0 133 40">
    <path fill="#fff" d="M131.371 35.278c0 .504-.097 1.002-.286 1.468-.189.465-.466.887-.815 1.243-.349.356-.763.638-1.219.83-.456.193-.944.291-1.438.29H4.635c-.996.002-1.953-.401-2.658-1.12-.706-.718-1.103-1.693-1.104-2.71V4.727c0-1.018.398-1.994 1.103-2.713.706-.719 1.662-1.123 2.66-1.123h122.977c.493 0 .982.099 1.438.292.456.192.87.475 1.219.831.349.356.626.78.815 1.245.189.465.286.964.286 1.468v30.551z"/>
    <path fill="#A6A6A6" d="M127.613 40H4.635c-1.228 0-2.405-.498-3.274-1.383C.49 37.732.002 36.531 0 35.277V4.728c.002-1.253.49-2.455 1.36-3.341C2.229.499 3.407 0 4.635 0h122.977c1.229.002 2.406.5 3.275 1.386.869.886 1.358 2.088 1.36 3.341v30.55c.002 2.605-2.08 4.723-4.634 4.723z"/>
    <path fill="url(#prefix__paint0_linear)" d="M127.613 0h-65.87l25.8 40h40.07c1.228-.001 2.406-.5 3.275-1.385.869-.886 1.358-2.087 1.36-3.34V4.727c-.002-1.253-.491-2.455-1.36-3.341C130.019.5 128.842 0 127.613 0z"/>
    <path fill="#000" d="M131.371 35.278c0 .504-.097 1.002-.286 1.468-.189.465-.466.887-.815 1.243-.349.356-.763.638-1.219.83-.456.193-.944.291-1.438.29H4.635c-.996.002-1.953-.401-2.658-1.12-.706-.718-1.103-1.693-1.104-2.71V4.727c0-1.018.398-1.994 1.103-2.713.706-.719 1.662-1.123 2.66-1.123h122.977c.493 0 .982.099 1.438.292.456.192.87.475 1.219.831.349.356.626.78.815 1.245.189.465.286.964.286 1.468v30.551z"/>
    <path fill="#fff" d="M29.53 19.782c-.028-3.227 2.587-4.797 2.706-4.87-1.48-2.205-3.776-2.506-4.583-2.53-1.928-.208-3.798 1.178-4.78 1.178-1.002 0-2.514-1.159-4.144-1.124-2.098.033-4.06 1.273-5.136 3.2-2.221 3.927-.565 9.699 1.563 12.873 1.065 1.556 2.308 3.291 3.936 3.23 1.593-.066 2.188-1.036 4.11-1.036 1.905 0 2.463 1.036 4.124.997 1.71-.027 2.785-1.562 3.813-3.13 1.23-1.782 1.724-3.537 1.743-3.628-.039-.014-3.319-1.293-3.352-5.16zm-3.137-9.49C27.25 9.2 27.837 7.71 27.674 6.2c-1.24.056-2.79.876-3.683 1.946-.79.944-1.495 2.49-1.313 3.943 1.393.106 2.823-.718 3.716-1.795zM52.6 31.517h-2.226l-1.22-3.913h-4.238l-1.161 3.913h-2.167l4.2-13.322h2.593L52.6 31.517zm-3.813-5.555l-1.103-3.479c-.116-.355-.336-1.192-.657-2.51h-.04c-.129.567-.336 1.404-.62 2.51l-1.083 3.48h3.503zm14.593.634c0 1.634-.435 2.925-1.304 3.873-.778.844-1.746 1.265-2.9 1.265-1.245 0-2.141-.453-2.685-1.362v5.04H54.4V25.068c0-1.026-.026-2.078-.077-3.157h1.838l.116 1.522h.04c.696-1.147 1.754-1.72 3.173-1.72 1.11 0 2.036.447 2.777 1.343.74.898 1.111 2.077 1.111 3.54zm-2.13.078c0-.935-.205-1.706-.62-2.314-.45-.631-1.058-.948-1.818-.948-.516 0-.984.177-1.402.524-.42.35-.695.808-.823 1.374-.057.212-.09.43-.097.65v1.603c0 .698.21 1.287.63 1.77.419.48.964.722 1.634.722.787 0 1.4-.312 1.838-.93.439-.62.659-1.436.659-2.451zm12.947-.078c0 1.634-.434 2.925-1.303 3.873-.78.844-1.746 1.265-2.9 1.265-1.246 0-2.142-.453-2.686-1.362v5.04h-2.09V25.068c0-1.026-.026-2.078-.077-3.157h1.838l.116 1.522h.04c.695-1.147 1.753-1.72 3.173-1.72 1.109 0 2.035.447 2.778 1.343.739.898 1.111 2.077 1.111 3.54zm-2.13.078c0-.935-.206-1.706-.62-2.314-.452-.631-1.057-.948-1.817-.948-.516 0-.984.177-1.405.524-.42.35-.693.808-.821 1.374-.064.265-.098.48-.098.65v1.603c0 .698.21 1.287.628 1.77.42.48.965.722 1.637.722.788 0 1.4-.312 1.838-.93.439-.62.658-1.436.658-2.451zm14.225 1.106c0 1.134-.388 2.056-1.16 2.768-.848.777-2.033 1.166-3.552 1.166-1.404 0-2.529-.276-3.378-.83l.483-1.779c.917.555 1.924.831 3.02.831.787 0 1.4-.182 1.837-.543.438-.363.66-.847.66-1.452 0-.541-.184-.995-.543-1.364-.362-.369-.96-.712-1.8-1.027-2.284-.87-3.426-2.143-3.426-3.817 0-1.093.403-1.988 1.21-2.687.805-.7 1.873-1.049 3.202-1.049 1.187 0 2.176.212 2.961.633l-.524 1.74c-.74-.408-1.573-.613-2.507-.613-.737 0-1.315.186-1.729.554-.347.33-.524.73-.524 1.207 0 .526.201.962.601 1.305.347.315.98.658 1.896 1.027 1.123.462 1.948 1 2.476 1.62.533.618.797 1.39.797 2.31zm6.927-4.268h-2.303v4.664c0 1.187.405 1.778 1.219 1.778.373 0 .683-.032.928-.099l.058 1.621c-.411.157-.954.236-1.625.236-.825 0-1.47-.257-1.936-.772-.463-.514-.697-1.376-.697-2.59v-4.842h-1.372v-1.601h1.372v-1.76l2.053-.632v2.392h2.303v1.605zm10.372 3.123c0 1.476-.414 2.689-1.239 3.637-.863.976-2.012 1.462-3.444 1.462-1.382 0-2.481-.467-3.3-1.401-.82-.936-1.23-2.115-1.23-3.538 0-1.489.424-2.708 1.268-3.656.846-.95 1.985-1.424 3.417-1.424 1.38 0 2.488.469 3.327 1.404.802.907 1.201 2.078 1.201 3.516zm-2.166.049c0-.88-.186-1.635-.56-2.267-.438-.762-1.065-1.144-1.878-1.144-.837 0-1.479.382-1.916 1.144-.374.632-.56 1.4-.56 2.307 0 .88.186 1.638.56 2.267.452.763 1.082 1.145 1.899 1.145.798 0 1.425-.39 1.877-1.164.385-.646.578-1.406.578-2.288zm8.961-2.896c-.217-.04-.438-.06-.659-.06-.734 0-1.303.283-1.703.852-.347.5-.521 1.133-.521 1.897v5.04h-2.09v-6.581c.002-1.009-.018-2.017-.061-3.024h1.82l.077 1.838h.058c.221-.632.568-1.142 1.045-1.523.436-.333.965-.514 1.51-.515.193 0 .367.015.522.04l.002 2.036zm9.346 2.471c.005.325-.02.649-.076.968h-6.269c.023.95.327 1.676.909 2.177.528.446 1.212.67 2.051.67.928 0 1.775-.15 2.536-.453l.328 1.48c-.89.397-1.941.594-3.153.594-1.459 0-2.604-.438-3.437-1.313-.831-.876-1.248-2.053-1.248-3.528 0-1.447.387-2.654 1.163-3.616.811-1.027 1.908-1.54 3.288-1.54 1.356 0 2.382.513 3.079 1.54.552.814.829 1.823.829 3.021zm-1.993-.553c.015-.634-.122-1.18-.405-1.641-.362-.595-.919-.89-1.665-.89-.683 0-1.24.288-1.663.869-.348.462-.555 1.016-.618 1.66l4.351.002zM44.314 13.485c-.582 0-1.084-.03-1.503-.078V6.966c.585-.093 1.177-.138 1.77-.136 2.396 0 3.5 1.204 3.5 3.167 0 2.264-1.304 3.488-3.767 3.488zm.35-5.83c-.323 0-.598.02-.827.069v4.896c.124.02.36.029.694.029 1.57 0 2.464-.913 2.464-2.623 0-1.525-.808-2.37-2.33-2.37zm6.856 5.879c-1.35 0-2.226-1.03-2.226-2.429 0-1.457.894-2.497 2.302-2.497 1.331 0 2.226.982 2.226 2.42 0 1.476-.922 2.506-2.302 2.506zm.039-4.159c-.742 0-1.217.709-1.217 1.7 0 .972.485 1.68 1.207 1.68.722 0 1.208-.757 1.208-1.7 0-.96-.476-1.68-1.198-1.68zm9.965-.67l-1.446 4.722h-.942l-.599-2.05c-.148-.502-.272-1.011-.371-1.525h-.02c-.075.514-.218 1.03-.37 1.524l-.637 2.05h-.952l-1.36-4.72h1.055l.524 2.244c.123.535.227 1.039.313 1.516h.02c.075-.398.199-.894.38-1.506l.657-2.253h.837l.628 2.205c.146.512.27 1.031.372 1.555h.027c.067-.486.172-1.002.314-1.555l.561-2.205 1.01-.001zm5.322 4.722H65.82v-2.711c0-.835-.314-1.254-.932-1.254-.609 0-1.027.535-1.027 1.157v2.808h-1.028v-3.372c0-.418-.01-.865-.038-1.35h.904l.048.728h.029c.276-.505.836-.825 1.465-.825.97 0 1.607.758 1.607 1.991v2.828zm2.833 0h-1.028V6.539h1.028v6.888zm3.745.107c-1.35 0-2.226-1.03-2.226-2.429 0-1.457.894-2.497 2.302-2.497 1.332 0 2.225.982 2.225 2.42.001 1.476-.922 2.506-2.301 2.506zm.038-4.159c-.742 0-1.217.709-1.217 1.7 0 .972.486 1.68 1.206 1.68.724 0 1.208-.757 1.208-1.7.001-.96-.474-1.68-1.197-1.68zm6.313 4.052l-.074-.544h-.027c-.314.438-.772.65-1.352.65-.828 0-1.417-.592-1.417-1.389 0-1.165.99-1.768 2.702-1.768v-.087c0-.621-.323-.933-.96-.933-.455 0-.856.117-1.207.35l-.21-.69c.428-.271.961-.408 1.588-.408 1.207 0 1.817.651 1.817 1.954V12.3c0 .477.02.846.067 1.128l-.927-.001zm-.14-2.352c-1.142 0-1.714.282-1.714.952 0 .495.295.738.705.738.522 0 1.008-.408 1.008-.961v-.729zm5.988 2.352l-.048-.758h-.028c-.296.572-.791.865-1.484.865-1.115 0-1.94-1.001-1.94-2.41 0-1.476.855-2.517 2.024-2.517.618 0 1.056.214 1.303.642h.02v-2.71h1.03v5.615c0 .456.01.884.037 1.272h-.914zm-.152-2.778c0-.661-.428-1.225-1.082-1.225-.762 0-1.227.69-1.227 1.661 0 .952.483 1.604 1.206 1.604.646 0 1.103-.574 1.103-1.254v-.786zm7.547 2.884c-1.35 0-2.225-1.03-2.225-2.428 0-1.457.894-2.497 2.301-2.497 1.333 0 2.227.982 2.227 2.42 0 1.476-.922 2.506-2.303 2.506zm.038-4.158c-.74 0-1.216.709-1.216 1.7 0 .972.485 1.68 1.206 1.68.724 0 1.208-.757 1.208-1.7.002-.96-.473-1.68-1.198-1.68zm7.789 4.052h-1.029v-2.711c0-.835-.313-1.254-.932-1.254-.608 0-1.026.535-1.026 1.157v2.808H96.83v-3.372c0-.418-.01-.865-.038-1.35h.903l.048.728h.029c.275-.505.837-.826 1.464-.826.971 0 1.609.758 1.609 1.991v2.829zm6.911-3.935h-1.13v2.293c0 .583.197.875.597.875.182 0 .334-.02.456-.05l.029.798c-.199.078-.466.117-.797.117-.81 0-1.294-.457-1.294-1.652v-2.38h-.674v-.787h.674V7.84l1.009-.311v1.175h1.13v.788zm5.437 3.935h-1.026v-2.691c0-.845-.313-1.273-.932-1.273-.532 0-1.028.37-1.028 1.118v2.846h-1.026V6.539h1.026v2.836h.021c.323-.514.792-.768 1.389-.768.979 0 1.576.777 1.576 2.012v2.808zm5.572-2.109h-3.083c.02.894.599 1.399 1.457 1.399.455 0 .875-.078 1.245-.223l.16.728c-.437.195-.952.292-1.55.292-1.446 0-2.302-.934-2.302-2.38 0-1.447.876-2.536 2.186-2.536 1.181 0 1.922.894 1.922 2.244.007.16-.005.32-.035.476zm-.942-.747c0-.73-.36-1.244-1.017-1.244-.59 0-1.056.525-1.123 1.244h2.14z"/>
    <defs>
        <linearGradient id="prefix__paint0_linear" x1="96.994" x2="96.994" y1="40.106" y2="-104.153" gradientUnits="userSpaceOnUse">
            <stop stop-color="#1A1A1A" stop-opacity=".1"/>
            <stop offset=".123" stop-color="#212121" stop-opacity=".151"/>
            <stop offset=".308" stop-color="#353535" stop-opacity=".227"/>
            <stop offset=".532" stop-color="#575757" stop-opacity=".318"/>
            <stop offset=".783" stop-color="#858585" stop-opacity=".421"/>
            <stop offset="1" stop-color="#B3B3B3" stop-opacity=".51"/>
        </linearGradient>
    </defs>
</svg>
