<svg xmlns="http://www.w3.org/2000/svg" width="40" height="40" fill="none" viewBox="0 0 40 40">
    <g clip-path="url(#prefix__clip0)">
        <path fill="#4137FF" d="M32.455 28.938c-.467 1.118-1.02 2.147-1.66 3.093-.872 1.29-1.587 2.183-2.137 2.679-.854.814-1.768 1.23-2.748 1.254-.703 0-1.55-.207-2.538-.628-.99-.419-1.9-.626-2.732-.626-.873 0-1.808.207-2.81.626-1.002.42-1.81.64-2.427.662-.94.041-1.875-.387-2.81-1.288-.596-.54-1.342-1.464-2.236-2.773-.958-1.399-1.747-3.02-2.364-4.87C7.332 25.072 7 23.138 7 21.266c0-2.145.447-3.994 1.342-5.544.704-1.245 1.64-2.228 2.812-2.948 1.171-.721 2.437-1.089 3.8-1.112.746 0 1.724.239 2.94.709 1.212.472 1.99.71 2.332.71.255 0 1.12-.279 2.585-.836 1.386-.518 2.556-.732 3.515-.647 2.597.217 4.548 1.278 5.845 3.19-2.322 1.46-3.471 3.503-3.448 6.124.02 2.042.735 3.74 2.14 5.09.636.626 1.346 1.11 2.137 1.454-.172.515-.352 1.01-.545 1.483zM26.5 4.641c0 1.6-.564 3.094-1.688 4.477-1.357 1.645-2.997 2.595-4.777 2.445-.023-.192-.036-.394-.036-.607 0-1.536.645-3.18 1.791-4.525.572-.68 1.3-1.246 2.182-1.698.88-.444 1.713-.69 2.496-.733.023.214.032.428.032.64z"/>
    </g>
    <defs>
        <clipPath id="prefix__clip0">
            <path fill="#fff" d="M0 0H26V32H0z" transform="translate(7 4)"/>
        </clipPath>
    </defs>
</svg>
