<svg xmlns="http://www.w3.org/2000/svg" width="27" height="32" fill="none" viewBox="0 0 27 32">
    <path fill="#333" d="M26.434 24.938c-.485 1.118-1.058 2.147-1.723 3.093-.906 1.29-1.648 2.183-2.22 2.678-.887.814-1.836 1.231-2.853 1.255-.73 0-1.611-.208-2.636-.628-1.028-.42-1.973-.627-2.837-.627-.906 0-1.878.208-2.918.627-1.041.42-1.88.64-2.521.661-.975.042-1.947-.387-2.918-1.288-.619-.539-1.394-1.463-2.322-2.773-.995-1.398-1.814-3.02-2.455-4.869C.344 21.07 0 19.137 0 17.264c0-2.144.464-3.994 1.394-5.544.73-1.245 1.703-2.227 2.92-2.948 1.216-.72 2.53-1.088 3.946-1.112.775 0 1.79.24 3.053.71 1.259.471 2.067.71 2.421.71.265 0 1.163-.28 2.685-.837 1.44-.517 2.655-.731 3.65-.647 2.697.218 4.723 1.279 6.07 3.19-2.412 1.46-3.605 3.503-3.581 6.124.022 2.042.764 3.741 2.222 5.09.66.627 1.399 1.11 2.22 1.454-.178.516-.366 1.01-.566 1.484zM20.25.64c0 1.6-.586 3.095-1.753 4.478-1.409 1.644-3.113 2.594-4.96 2.444-.024-.192-.038-.394-.038-.606 0-1.537.67-3.18 1.86-4.525.594-.68 1.35-1.247 2.265-1.698.915-.445 1.78-.69 2.592-.733.024.214.034.428.034.64z"/>
</svg>
