<svg xmlns="http://www.w3.org/2000/svg" width="28" height="32" fill="none" viewBox="0 0 28 32">
    <path fill="#333" d="M5.682.58l16.476 9.73-4.687 4.791L2.699.146c.284 0 .71-.145.994-.145.71 0 1.42.145 1.989.58zM0 28.17V3.775C0 2.614.568 1.597 1.42.871l14.915 15.247L1.562 31.22C.568 30.494 0 29.331 0 28.17zm5.682 3.34c-.853.435-1.847.58-2.7.435L17.472 17.28l4.545 4.646L5.682 31.51zm20.596-12.198l-2.983 1.743-4.972-4.937 4.972-5.082 2.84 1.742c1.137.726 1.847 1.888 1.847 3.34.142 1.162-.568 2.469-1.704 3.195z"/>
</svg>
