<svg id="CONNECTED" xmlns="http://www.w3.org/2000/svg" xmlns:xlink="http://www.w3.org/1999/xlink" width="190" height="190" viewBox="0 0 190 190">
  <defs>
    <linearGradient id="linear-gradient" x1="0.933" y1="0.933" x2="0.061" y2="0.037" gradientUnits="objectBoundingBox">
      <stop offset="0" stop-color="#b058f8"/>
      <stop offset="1" stop-color="#293dbb"/>
    </linearGradient>
  </defs>
  <rect id="Rectangle_135" data-name="Rectangle 135" width="190" height="190" rx="30" fill="url(#linear-gradient)"/>
  <g id="Group_375" data-name="Group 375" transform="translate(36.438 35.625)">
    <rect id="Rectangle_154" data-name="Rectangle 154" width="119" height="118" transform="translate(-0.438 0.375)" fill="none"/>
    <g id="Path_582" data-name="Path 582" transform="translate(40.036 69.3) rotate(-90)" fill="none">
      <path d="M19,0A19,19,0,1,1,0,19,19,19,0,0,1,19,0Z" stroke="none"/>
      <path d="M 19 4.799999237060547 C 15.20704078674316 4.799999237060547 11.64110946655273 6.277059555053711 8.959079742431641 8.959079742431641 C 6.277059555053711 11.64110946655273 4.799999237060547 15.20704078674316 4.799999237060547 19 C 4.799999237060547 22.79296112060547 6.277059555053711 26.35889053344727 8.959079742431641 29.04092025756836 C 11.64110946655273 31.72294044494629 15.20704078674316 33.20000076293945 19 33.20000076293945 C 22.79296112060547 33.20000076293945 26.35889053344727 31.72294044494629 29.04092025756836 29.04092025756836 C 31.72294044494629 26.35889053344727 33.20000076293945 22.79296112060547 33.20000076293945 19 C 33.20000076293945 15.20704078674316 31.72294044494629 11.64110946655273 29.04092025756836 8.959079742431641 C 26.35889053344727 6.277059555053711 22.79296112060547 4.799999237060547 19 4.799999237060547 M 19 0 C 29.49341011047363 0 38 8.506589889526367 38 19 C 38 29.49341011047363 29.49341011047363 38 19 38 C 8.506589889526367 38 0 29.49341011047363 0 19 C 0 8.506589889526367 8.506589889526367 0 19 0 Z" stroke="none" fill="#fafafa"/>
    </g>
    <g id="Ellipse_1" data-name="Ellipse 1" transform="translate(73.063 105.816) rotate(-180)" fill="none" stroke="#fafafa" stroke-width="4.8">
      <circle cx="14.25" cy="14.25" r="14.25" stroke="none"/>
      <circle cx="14.25" cy="14.25" r="11.85" fill="none"/>
    </g>
    <g id="Ellipse_1-2" data-name="Ellipse 1" transform="translate(42.131 26.313) rotate(120)" fill="none" stroke="#fafafa" stroke-width="4.8">
      <circle cx="14.25" cy="14.25" r="14.25" stroke="none"/>
      <circle cx="14.25" cy="14.25" r="11.85" fill="none"/>
    </g>
    <g id="Path_581" data-name="Path 581" transform="translate(100.411 12.063) rotate(60)" fill="none">
      <path d="M14.25,0A14.25,14.25,0,1,1,0,14.25,14.25,14.25,0,0,1,14.25,0Z" stroke="none"/>
      <path d="M 14.25000953674316 4.799999237060547 C 9.03925895690918 4.799999237060547 4.799999237060547 9.03925895690918 4.799999237060547 14.25000953674316 C 4.799999237060547 19.46075820922852 9.03925895690918 23.70001983642578 14.25000953674316 23.70001983642578 C 19.46075820922852 23.70001983642578 23.70001983642578 19.46075820922852 23.70001983642578 14.25000953674316 C 23.70001983642578 9.03925895690918 19.46075820922852 4.799999237060547 14.25000953674316 4.799999237060547 M 14.25000953674316 0 C 22.12006950378418 0 28.50001907348633 6.379949569702148 28.50001907348633 14.25000953674316 C 28.50001907348633 22.12006950378418 22.12006950378418 28.50001907348633 14.25000953674316 28.50001907348633 C 6.379949569702148 28.50001907348633 0 22.12006950378418 0 14.25000953674316 C 0 6.379949569702148 6.379949569702148 0 14.25000953674316 0 Z" stroke="none" fill="#fafafa"/>
    </g>
    <line id="Line_4" data-name="Line 4" y2="14.25" transform="translate(59.063 79.735) rotate(-180)" fill="none" stroke="#fafafa" stroke-width="4.8"/>
    <line id="Line_3" data-name="Line 3" y1="14.25" transform="translate(44.345 44.29) rotate(120)" fill="none" stroke="#fafafa" stroke-width="4.8"/>
    <line id="Line_5" data-name="Line 5" y2="14.25" transform="translate(85.856 37.165) rotate(60)" fill="none" stroke="#fafafa" stroke-width="4.8"/>
  </g>
</svg>
