<svg xmlns="http://www.w3.org/2000/svg" xmlns:xlink="http://www.w3.org/1999/xlink" width="190" height="190" viewBox="0 0 190 190">
  <defs>
    <linearGradient id="linear-gradient" x1="0.933" y1="0.933" x2="0.061" y2="0.037" gradientUnits="objectBoundingBox">
      <stop offset="0" stop-color="#ffbc00"/>
      <stop offset="0.49" stop-color="#ff002b"/>
      <stop offset="1" stop-color="#e229f2"/>
    </linearGradient>
  </defs>
  <g id="FULFILLING" transform="translate(0.39 0.195)">
    <path id="Path_522" data-name="Path 522" d="M32.439,0H157.561A32.439,32.439,0,0,1,190,32.439V157.561A32.439,32.439,0,0,1,157.561,190H32.439A32.439,32.439,0,0,1,0,157.561V32.439A32.439,32.439,0,0,1,32.439,0Z" transform="translate(-0.39 -0.195)" opacity="0.8" fill="url(#linear-gradient)"/>
    <g id="Group_382" data-name="Group 382" transform="translate(32.333 32.333)">
      <rect id="Rectangle_156" data-name="Rectangle 156" width="124" height="124" transform="translate(0.667 0.667)" fill="none"/>
      <g id="Path_573" data-name="Path 573" transform="translate(10.549 8.454)" fill="none">
        <path d="M90.832,14.125a25.567,25.567,0,0,0-16.777-6.26A26.118,26.118,0,0,0,55.1,16.071a28.963,28.963,0,0,0-3.16,4.026A26.218,26.218,0,0,0,30.111,7.821a25.768,25.768,0,0,0-4.818.46c-8.256,1.583-14.744,6.363-19.285,14.2-6.5,11.241-7.016,21.621-1.579,31.734a84.373,84.373,0,0,0,11.607,16.2C25.043,80.5,35.7,90.063,49.6,100.526a3.86,3.86,0,0,0,2.337.833,4.058,4.058,0,0,0,2.589-1.054A234.137,234.137,0,0,0,85.5,72.981c4.781-5.129,10.2-11.43,14.155-19.267,1.661-3.3,3.558-7.729,3.447-12.733C102.853,30.029,98.727,20.993,90.832,14.125Zm3.755,36.759c-3.612,7.154-8.69,13.049-13.179,17.868A226.934,226.934,0,0,1,51.915,94.844c-13.079-9.921-23.176-19.018-31.7-28.562A78.358,78.358,0,0,1,9.42,51.243C5.041,43.1,5.512,34.955,10.908,25.629c3.652-6.309,8.84-10.146,15.408-11.406a20.177,20.177,0,0,1,3.794-.362c7.827,0,14.758,4.544,18.519,12.123.215.441.426.862.774,1.544a2.845,2.845,0,0,0,2.528,1.6h.049a2.861,2.861,0,0,0,2.524-1.685,26.465,26.465,0,0,1,4.671-7.124,20.49,20.49,0,0,1,14.88-6.415,19.966,19.966,0,0,1,13.121,4.878c6.559,5.7,9.986,13.219,10.194,22.342C97.447,44.708,96,48.068,94.586,50.885Z" stroke="none"/>
        <path d="M 30.11058044433594 7.820991516113281 C 38.83415985107422 7.820991516113281 46.92990493774414 12.44508361816406 51.94119644165039 20.09619140625 C 52.91150283813477 18.61691284179688 53.9571418762207 17.28184509277344 55.10095977783203 16.07054901123047 C 60.00382995605469 10.85523986816406 66.91350555419922 7.865463256835938 74.05492401123047 7.865463256835938 C 80.23061370849609 7.865463256835938 86.18824768066406 10.08856964111328 90.83199310302734 14.12502288818359 C 98.72682952880859 20.99264526367188 102.8534698486328 30.029296875 103.1023025512695 40.9814453125 C 103.2130126953125 45.98526000976563 101.3158340454102 50.41468048095703 99.65486907958984 53.71449661254883 C 95.69605255126953 61.55066299438477 90.28064727783203 67.852294921875 85.49990844726563 72.9810791015625 C 77.00006866455078 82.0970458984375 66.86899566650391 91.03155517578125 54.52221298217773 100.3049545288086 C 54.0381965637207 100.6894607543945 53.18890380859375 101.3588256835938 51.93323135375977 101.3588256835938 C 51.12386703491211 101.3588256835938 50.33621215820313 101.0800476074219 49.59650421142578 100.5260620117188 C 35.70408630371094 90.06298828125 25.04334259033203 80.49880981445313 16.0355224609375 70.41789245605469 C 11.13950347900391 64.93580627441406 7.345046997070313 59.63639068603516 4.428451538085938 54.21920776367188 C -1.008659362792969 44.10582733154297 -0.4938430786132813 33.72570037841797 6.007179260253906 22.48513793945313 C 10.54817962646484 14.64414978027344 17.03665161132813 9.863861083984375 25.29217529296875 8.281242370605469 C 26.89146423339844 7.976028442382813 28.512451171875 7.820991516113281 30.11058044433594 7.820991516113281 Z M 51.98114013671875 29.12804412841797 C 51.96517562866211 29.12804412841797 51.94804763793945 29.12804412841797 51.93206787109375 29.12804412841797 C 50.8750114440918 29.12804412841797 49.90128707885742 28.51519012451172 49.40359497070313 27.52740478515625 C 49.05541229248047 26.84484100341797 48.84423065185547 26.42426300048828 48.62961196899414 25.98324584960938 C 44.8682861328125 18.40422821044922 37.93804931640625 13.86066436767578 30.11058044433594 13.86066436767578 C 28.85148620605469 13.86066436767578 27.57410430908203 13.98082733154297 26.31613922119141 14.22237396240234 C 19.74777984619141 15.48293304443359 14.55952453613281 19.31990051269531 10.90776062011719 25.62875366210938 C 5.511756896972656 34.95500946044922 5.041450500488281 43.09520721435547 9.420356750488281 51.24264526367188 C 12.10637664794922 56.23562622070313 15.63370513916016 61.15411758422852 20.21352386474609 66.28289794921875 C 28.73846435546875 75.82666015625 38.83644866943359 84.92340850830078 51.91495895385742 94.84449768066406 C 63.66472244262695 85.96768188476563 73.31407165527344 77.43211364746094 81.40752410888672 68.75234985351563 C 85.89602661132813 63.93362426757813 90.97468566894531 58.03815078735352 94.58648681640625 50.88451766967773 C 96.00428771972656 48.06778717041016 97.44717407226563 44.70787811279297 97.37068176269531 41.12448120117188 C 97.16290283203125 32.00128173828125 93.73605346679688 24.48115539550781 87.17681121826172 18.78275299072266 C 83.562744140625 15.63674926757813 78.90299224853516 13.90513610839844 74.05604553222656 13.90513610839844 C 68.43515777587891 13.90513610839844 63.01288604736328 16.239990234375 59.17621231079102 20.31971740722656 C 57.35890579223633 22.25442504882813 55.87604904174805 24.5159912109375 54.50508499145508 27.44329833984375 C 54.03019332885742 28.45871734619141 53.05532073974609 29.10882568359375 51.98114013671875 29.12804412841797 Z" stroke="none" fill="#fafafa"/>
      </g>
      <g id="Path_574" data-name="Path 574" transform="translate(21.791 14.395)" fill="#fafafa">
        <path d="M 35.47648620605469 61.12617111206055 C 34.82654571533203 61.12617111206055 34.15142440795898 60.82394027709961 33.67053604125977 60.31769943237305 L 21.76542472839355 47.78445434570313 C 20.74431419372559 46.79190444946289 20.739013671875 45.11671447753906 21.75375938415527 44.04184722900391 C 22.21444702148438 43.51640319824219 22.84793472290039 43.22714233398438 23.53854560852051 43.22714233398438 C 24.22535514831543 43.22714233398438 24.87633514404297 43.51425933837891 25.37156677246094 44.03561019897461 L 35.47648620605469 54.67366790771484 L 60.22968673706055 28.61446952819824 C 60.69034957885742 28.08913803100586 61.3237190246582 27.80000114440918 62.01424407958984 27.80000114440918 C 62.70105743408203 27.80000114440918 63.35202407836914 28.08712005615234 63.84725570678711 28.60848045349121 L 63.85321426391602 28.61476135253906 L 63.85890579223633 28.62129020690918 C 64.79019927978516 29.69083023071289 64.78496551513672 31.36410140991211 63.84724426269531 32.35126876831055 L 37.28242492675781 60.31769180297852 C 36.80155563354492 60.82392883300781 36.12644577026367 61.12617111206055 35.47648620605469 61.12617111206055 Z" stroke="none"/>
        <path d="M 62.01424407958984 28.19999694824219 C 61.46382141113281 28.19999694824219 60.92242050170898 28.42798614501953 60.52539825439453 28.88396072387695 L 35.47648620605469 55.25447082519531 L 25.08154678344727 44.31109237670898 C 24.64842224121094 43.85512161254883 24.08897018432617 43.62713623046875 23.53854370117188 43.62713623046875 C 22.98811721801758 43.62713623046875 22.44671630859375 43.85512161254883 22.04968643188477 44.31109237670898 C 21.18344879150391 45.22304153442383 21.18344879150391 46.66696166992188 22.04968643188477 47.50291061401367 L 33.96054458618164 60.04219818115234 C 34.39368438720703 60.4981803894043 34.97117614746094 60.72615814208984 35.47648620605469 60.72615814208984 C 35.98179626464844 60.72615814208984 36.55929565429688 60.4981803894043 36.99240493774414 60.04219818115234 L 63.55723571777344 32.07579040527344 C 64.35130310058594 31.23984146118164 64.35130310058594 29.7959098815918 63.55723571777344 28.88396072387695 C 63.12411499023438 28.42798614501953 62.56466674804688 28.19999694824219 62.01424407958984 28.19999694824219 M 62.01424407958984 27.40000152587891 C 62.81180572509766 27.40000152587891 63.56578826904297 27.73134994506836 64.13727569580078 28.33300018310547 L 64.14920043945313 28.34556198120117 L 64.16056823730469 28.35861206054688 C 65.22359466552734 29.57944869995117 65.21315002441406 31.4941291809082 64.13726806640625 32.62676239013672 L 37.57243728637695 60.59316253662109 C 37.01753616333008 61.1773681640625 36.2339973449707 61.52616119384766 35.47648620605469 61.52616119384766 C 34.7190055847168 61.52616119384766 33.93546676635742 61.17738342285156 33.38051605224609 60.59317016601563 L 21.48075866699219 48.06555557250977 C 20.31092071533203 46.92218017578125 20.30059814453125 45.00391006469727 21.45794677734375 43.77251434326172 C 21.98789215087891 43.17147827148438 22.74520111083984 42.82712936401367 23.53854751586914 42.82712936401367 C 24.33608627319336 42.82712936401367 25.09006500244141 43.15847015380859 25.66157531738281 43.7601203918457 L 35.47648620605469 54.09287643432617 L 59.93429565429688 28.34465408325195 C 60.46419906616211 27.74408721923828 61.22122192382813 27.40000152587891 62.01424407958984 27.40000152587891 Z" stroke="none" fill="#fafafa"/>
      </g>
    </g>
  </g>
</svg>
