<svg xmlns="http://www.w3.org/2000/svg" width="136" height="40" fill="none" viewBox="0 0 136 40">
    <path fill="#000" fill-rule="evenodd" d="M130.961 40H5.039C2.262 40 0 37.746 0 35V5c0-2.756 2.262-5 5.039-5H130.96C133.736 0 136 2.244 136 5v30c0 2.746-2.264 5-5.039 5z" clip-rule="evenodd"/>
    <path fill="#A6A6A6" fill-rule="evenodd" d="M130.961.8c2.329 0 4.236 1.888 4.236 4.2v30c0 2.312-1.894 4.2-4.236 4.2H5.039C2.709 39.2.803 37.312.803 35V5C.803 2.688 2.697.8 5.04.8H130.96zm0-.8H5.039C2.262 0 0 2.254 0 5v30c0 2.756 2.262 5 5.039 5H130.96c2.775 0 5.039-2.244 5.039-5V5c0-2.746-2.264-5-5.039-5z" clip-rule="evenodd"/>
    <path fill="#fff" d="M71.645 13.232c-.908 0-1.673-.317-2.279-.94-.6-.606-.936-1.442-.92-2.294 0-.91.31-1.681.92-2.292.603-.624 1.369-.94 2.277-.94.898 0 1.664.316 2.28.94.61.63.92 1.401.92 2.292-.01.912-.32 1.683-.92 2.291-.604.629-1.37.943-2.278.943zm-27.023 0c-.888 0-1.659-.312-2.29-.928-.625-.613-.942-1.389-.942-2.304 0-.915.317-1.69.943-2.304.618-.616 1.388-.928 2.29-.928.44 0 .867.087 1.278.264.402.173.73.407.973.694l.06.072-.678.663-.07-.082c-.383-.454-.896-.676-1.574-.676-.605 0-1.133.215-1.569.639-.437.426-.66.985-.66 1.66 0 .676.223 1.235.66 1.661.436.424.964.639 1.57.639.645 0 1.188-.215 1.61-.639.25-.249.406-.598.46-1.04H44.51v-.932h3.107l.012.085c.023.157.046.319.046.468 0 .86-.26 1.556-.776 2.07-.586.609-1.351.918-2.277.918zm35.93-.132h-.958l-2.935-4.681.025.843v3.835h-.958V6.9h1.093l.03.048 2.76 4.409-.025-.84V6.9h.968v6.2zm-16.107 0h-.97V7.833H61.79V6.9h4.336v.933h-1.684V13.1h.003zM61 13.1h-.969V6.9H61v6.2zm-5.442 0h-.968V7.833h-1.684V6.9h4.336v.933h-1.684V13.1zm-3.265-.01H48.58V6.9h3.713v.933h-2.742v1.7h2.474v.923h-2.474v1.701h2.742v.933zm17.784-1.44c.432.432.958.65 1.568.65.628 0 1.141-.213 1.569-.65.425-.423.64-.98.64-1.65 0-.67-.215-1.23-.638-1.65-.432-.432-.96-.65-1.568-.65-.628 0-1.141.213-1.566.65-.426.423-.64.98-.64 1.65 0 .67.212 1.23.635 1.65z"/>
    <path fill="#fff" fill-rule="evenodd" d="M68.355 21.756c-2.364 0-4.28 1.788-4.28 4.254 0 2.444 1.928 4.254 4.28 4.254 2.365 0 4.281-1.8 4.281-4.254 0-2.466-1.916-4.254-4.28-4.254zm0 6.823c-1.293 0-2.407-1.068-2.407-2.579 0-1.534 1.116-2.578 2.407-2.578 1.294 0 2.407 1.044 2.407 2.578.003 1.521-1.113 2.579-2.407 2.579zm-9.34-6.823c-2.364 0-4.28 1.788-4.28 4.254 0 2.444 1.929 4.254 4.28 4.254 2.365 0 4.281-1.8 4.281-4.254 0-2.466-1.919-4.254-4.28-4.254zm0 6.823c-1.293 0-2.406-1.068-2.406-2.579 0-1.534 1.115-2.578 2.407-2.578 1.293 0 2.406 1.044 2.406 2.578 0 1.521-1.113 2.579-2.406 2.579zm-11.113-5.524v1.8h4.336c-.133 1.01-.468 1.756-.981 2.267-.636.634-1.616 1.322-3.345 1.322-2.665 0-4.749-2.145-4.749-4.8 0-2.656 2.084-4.801 4.749-4.801 1.438 0 2.487.566 3.265 1.29l1.28-1.278c-1.08-1.032-2.519-1.823-4.535-1.823-3.655 0-6.723 2.968-6.723 6.602 0 3.643 3.065 6.6 6.723 6.6 1.974 0 3.455-.643 4.626-1.855 1.193-1.19 1.571-2.868 1.571-4.222 0-.421-.032-.8-.1-1.122H47.9c.003-.003.003.02.003.02zm45.458 1.401c-.358-.955-1.439-2.71-3.656-2.71-2.197 0-4.023 1.723-4.023 4.254 0 2.39 1.806 4.254 4.236 4.254 1.951 0 3.087-1.19 3.555-1.887l-1.448-.968c-.48.71-1.149 1.177-2.097 1.177-.958 0-1.629-.434-2.074-1.29l5.707-2.356c0 .003-.2-.474-.2-.474zm-5.82 1.422c-.045-1.643 1.281-2.479 2.23-2.479.747 0 1.37.367 1.583.9l-3.813 1.579zM82.904 30h1.874V17.501h-1.874v12.5zm-3.077-7.3h-.068c-.423-.5-1.226-.954-2.252-.954-2.129 0-4.09 1.867-4.09 4.267 0 2.388 1.951 4.234 4.09 4.234 1.014 0 1.83-.456 2.252-.968h.068v.611c0 1.624-.871 2.5-2.275 2.5-1.148 0-1.861-.824-2.151-1.512l-1.63.678c.469 1.122 1.717 2.511 3.779 2.511 2.197 0 4.058-1.289 4.058-4.433V22h-1.771v.7h-.01zm-2.152 5.879c-1.294 0-2.374-1.078-2.374-2.567 0-1.5 1.08-2.588 2.374-2.588 1.28 0 2.274 1.1 2.274 2.588.013 1.49-.99 2.567-2.274 2.567zM102.134 17.5h-4.481v12.5h1.874v-4.734h2.609c2.074 0 4.114-1.499 4.114-3.878s-2.032-3.888-4.116-3.888zm.055 6.02h-2.665v-4.289h2.665c1.403 0 2.197 1.155 2.197 2.145 0 .98-.804 2.144-2.197 2.144zm11.571-1.788c-1.361 0-2.764.601-3.345 1.91l1.662.689c.357-.689 1.013-.923 1.706-.923.971 0 1.951.579 1.974 1.611v.132c-.335-.19-1.071-.479-1.952-.479-1.793 0-3.612.978-3.612 2.81 0 1.68 1.471 2.756 3.11 2.756 1.258 0 1.951-.566 2.384-1.222h.067v.968h1.807v-4.788c0-2.23-1.661-3.464-3.801-3.464zm-.235 6.846c-.613 0-1.471-.3-1.471-1.068 0-.967 1.071-1.334 1.984-1.334.826 0 1.216.177 1.706.422-.135 1.122-1.085 1.97-2.219 1.98zM124.151 22l-2.152 5.422h-.067L119.702 22h-2.016l3.345 7.579-1.907 4.212h1.952L126.222 22h-2.071zm-16.868 8h1.874V17.501h-1.874v12.5z" clip-rule="evenodd"/>
    <path fill="url(#prefix__paint0_linear)" fill-rule="evenodd" d="M10.468 7.534c-.29.312-.458.788-.458 1.411v22.113c0 .623.168 1.1.468 1.399l.078.067 12.43-12.39v-.276L10.545 7.467l-.078.067z" clip-rule="evenodd"/>
    <path fill="url(#prefix__paint1_linear)" fill-rule="evenodd" d="M27.12 24.277l-4.145-4.132v-.29l4.146-4.132.09.055 4.904 2.778c1.403.788 1.403 2.09 0 2.888l-4.904 2.778-.09.055z" clip-rule="evenodd"/>
    <path fill="url(#prefix__paint2_linear)" fill-rule="evenodd" d="M27.211 24.222L22.975 20 10.468 32.466c.458.49 1.226.544 2.084.068l14.66-8.312z" clip-rule="evenodd"/>
    <path fill="url(#prefix__paint3_linear)" fill-rule="evenodd" d="M27.211 15.778l-14.659-8.3c-.858-.488-1.628-.42-2.084.068L22.975 20l4.236-4.222z" clip-rule="evenodd"/>
    <path fill="#000" fill-rule="evenodd" d="M27.121 24.132l-14.559 8.245c-.813.466-1.538.434-2.006.01l-.078.077.078.067c.468.422 1.193.457 2.006-.01l14.66-8.299-.101-.09z" clip-rule="evenodd" opacity=".2"/>
    <path fill="#000" fill-rule="evenodd" d="M32.115 21.3l-5.007 2.832.09.09 4.904-2.778c.703-.4 1.049-.923 1.049-1.444-.043.479-.4.933-1.036 1.3z" clip-rule="evenodd" opacity=".12"/>
    <path fill="#fff" fill-rule="evenodd" d="M12.552 7.623l19.563 11.078c.635.356.993.822 1.048 1.299 0-.521-.345-1.045-1.048-1.444L12.552 7.479c-1.403-.8-2.542-.133-2.542 1.466v.145c0-1.601 1.139-2.257 2.542-1.467z" clip-rule="evenodd" opacity=".25"/>
    <defs>
        <linearGradient id="prefix__paint0_linear" x1="21.87" x2="1.969" y1="8.707" y2="14.027" gradientUnits="userSpaceOnUse">
            <stop stop-color="#00A0FF"/>
            <stop offset=".007" stop-color="#00A1FF"/>
            <stop offset=".26" stop-color="#00BEFF"/>
            <stop offset=".512" stop-color="#00D2FF"/>
            <stop offset=".76" stop-color="#00DFFF"/>
            <stop offset="1" stop-color="#00E3FF"/>
        </linearGradient>
        <linearGradient id="prefix__paint1_linear" x1="33.945" x2="9.669" y1="20" y2="20" gradientUnits="userSpaceOnUse">
            <stop stop-color="#FFE000"/>
            <stop offset=".409" stop-color="#FFBD00"/>
            <stop offset=".775" stop-color="orange"/>
            <stop offset="1" stop-color="#FF9C00"/>
        </linearGradient>
        <linearGradient id="prefix__paint2_linear" x1="24.908" x2="9.001" y1="22.297" y2="49.157" gradientUnits="userSpaceOnUse">
            <stop stop-color="#FF3A44"/>
            <stop offset="1" stop-color="#C31162"/>
        </linearGradient>
        <linearGradient id="prefix__paint3_linear" x1="7.319" x2="14.415" y1=".179" y2="12.175" gradientUnits="userSpaceOnUse">
            <stop stop-color="#32A071"/>
            <stop offset=".069" stop-color="#2DA771"/>
            <stop offset=".476" stop-color="#15CF74"/>
            <stop offset=".801" stop-color="#06E775"/>
            <stop offset="1" stop-color="#00F076"/>
        </linearGradient>
    </defs>
</svg>
