<svg xmlns="http://www.w3.org/2000/svg" width="48" height="48" fill="none" viewBox="0 0 48 48">
    <circle cx="24" cy="24" r="24" fill="#069"/>
    <path fill="#069" d="M8.571 11.149C8.571 9.962 9.564 9 10.788 9h25.566c1.225 0 2.217.962 2.217 2.149v25.702c0 1.187-.992 2.149-2.217 2.149H10.788c-1.224 0-2.217-.962-2.217-2.149V11.149z"/>
    <path fill="#fff" fill-rule="evenodd" d="M17.665 34.11V20.565h-4.53v13.543h4.53zM15.4 18.716c1.58 0 2.563-1.04 2.563-2.34-.03-1.329-.983-2.34-2.533-2.34-1.55 0-2.564 1.011-2.564 2.34 0 1.3.984 2.34 2.504 2.34h.03zM20.173 34.11h4.531v-7.565c0-.405.03-.81.15-1.099.327-.809 1.072-1.646 2.324-1.646 1.64 0 2.296 1.242 2.296 3.063v7.246h4.53v-7.767c0-4.16-2.235-6.096-5.216-6.096-2.445 0-3.518 1.358-4.114 2.282h.03v-1.964h-4.531c.06 1.27 0 13.545 0 13.545z" clip-rule="evenodd"/>
</svg>
