<svg xmlns="http://www.w3.org/2000/svg" xmlns:xlink="http://www.w3.org/1999/xlink" width="190" height="190" viewBox="0 0 190 190">
  <defs>
    <linearGradient id="linear-gradient" x1="0.933" y1="0.933" x2="0.061" y2="0.037" gradientUnits="objectBoundingBox">
      <stop offset="0" stop-color="#2ae4f0"/>
      <stop offset="1" stop-color="#4137ff"/>
    </linearGradient>
  </defs>
  <g id="MEANINGFUL" transform="translate(-587.805 -950.805)">
    <g id="Group_380" data-name="Group 380" transform="translate(-3 20)">
      <path id="Path_521" data-name="Path 521" d="M32.439,0H157.561A32.439,32.439,0,0,1,190,32.439V157.561A32.439,32.439,0,0,1,157.561,190H32.439A32.439,32.439,0,0,1,0,157.561V32.439A32.439,32.439,0,0,1,32.439,0Z" transform="translate(590.805 930.805)" fill="url(#linear-gradient)"/>
    </g>
    <g id="Group_379" data-name="Group 379" transform="translate(617.667 980.667)">
      <rect id="Rectangle_155" data-name="Rectangle 155" width="130" height="130" transform="translate(0.333 0.333)" fill="none"/>
      <g id="Group_359" data-name="Group 359" transform="translate(15.68 16.987)">
        <g id="Union_1" data-name="Union 1" transform="translate(0)" fill="none">
          <path d="M46.049,95.68,38.557,82.425H12a12,12,0,0,1-12-12V12A12,12,0,0,1,12,0H87.307a12,12,0,0,1,12,12V70.425a12,12,0,0,1-12,12H58.764L51.272,95.68a3,3,0,0,1-5.224,0Z" stroke="none"/>
          <path d="M 48.66030502319336 90.54567718505859 L 54.58504867553711 80.06291961669922 L 55.96310043334961 77.62470245361328 L 58.76380157470703 77.62470245361328 L 87.30719757080078 77.62470245361328 C 91.27713012695313 77.62470245361328 94.50689697265625 74.39493560791016 94.50689697265625 70.42500305175781 L 94.50689697265625 11.99970531463623 C 94.50689697265625 8.02977180480957 91.27713012695313 4.800004959106445 87.30719757080078 4.800004959106445 L 11.99969959259033 4.800004959106445 C 8.029767036437988 4.800004959106445 4.800000190734863 8.02977180480957 4.800000190734863 11.99970531463623 L 4.800000190734863 70.42500305175781 C 4.800000190734863 74.39493560791016 8.029767036437988 77.62470245361328 11.99969959259033 77.62470245361328 L 38.55681610107422 77.62470245361328 L 41.35751724243164 77.62470245361328 L 42.73556518554688 80.06291961669922 L 48.66030502319336 90.54567718505859 M 48.66030120849609 97.203369140625 C 47.64149856567383 97.203369140625 46.62269973754883 96.695556640625 46.04850006103516 95.67990875244141 L 38.55681610107422 82.42470550537109 L 11.99969959259033 82.42470550537109 C 5.372099876403809 82.42470550537109 1.220703182980287e-08 77.05260467529297 1.220703182980287e-08 70.42500305175781 L 1.220703182980287e-08 11.99970531463623 C 1.220703182980287e-08 5.372105121612549 5.372099876403809 5.051676453149412e-06 11.99969959259033 5.051676453149412e-06 L 87.30719757080078 5.051676453149412e-06 C 93.93479919433594 5.051676453149412e-06 99.30690002441406 5.372105121612549 99.30690002441406 11.99970531463623 L 99.30690002441406 70.42500305175781 C 99.30690002441406 77.05260467529297 93.93479919433594 82.42470550537109 87.30719757080078 82.42470550537109 L 58.76380157470703 82.42470550537109 L 51.27209854125977 95.67990875244141 C 50.69789886474609 96.695556640625 49.67910003662109 97.203369140625 48.66030120849609 97.203369140625 Z" stroke="none" fill="#fafafa"/>
        </g>
        <g id="noun_Heart_1212629" transform="translate(25.357 21.969)">
          <g id="Group_353" data-name="Group 353" transform="translate(0 0)">
            <g id="Path_573" data-name="Path 573" transform="translate(-0.707 -7.821)" fill="#fafafa">
              <path d="M 24.58218955993652 49.83460235595703 C 24.07627105712891 49.83460235595703 23.59282112121582 49.67317962646484 23.14529037475586 49.35481262207031 C 16.63775062561035 44.69900131225586 11.63946056365967 40.43878173828125 7.4140305519104 35.94668197631836 C 5.101950645446777 33.48744964599609 3.304640531539917 31.10383224487305 1.919280409812927 28.65952110290527 C 0.6007104516029358 26.32967185974121 -0.003429541597142816 23.91908073425293 0.1234604567289352 21.49437141418457 C 0.249550461769104 19.08488082885742 1.104510426521301 16.56391143798828 2.664590358734131 14.00149154663086 C 4.874610424041748 10.37645149230957 8.034910202026367 8.167101860046387 12.05789089202881 7.434481620788574 C 12.83937072753906 7.292801380157471 13.63096046447754 7.221001625061035 14.41114044189453 7.221001625061035 C 18.36051368713379 7.221001625061035 22.10532760620117 9.083553314208984 24.58476448059082 12.24256134033203 C 24.91575622558594 11.81734943389893 25.26239967346191 11.42336559295654 25.63306999206543 11.05047130584717 C 28.02878952026367 8.629641532897949 31.40410995483398 7.240681648254395 34.89263153076172 7.240681648254395 C 37.90975952148438 7.240681648254395 40.82242202758789 8.273691177368164 43.09407043457031 10.1494312286377 C 46.91310119628906 13.30526161193848 48.91044235229492 17.45662117004395 49.03079223632813 22.48834228515625 C 49.08555221557617 24.83921241760254 48.16365051269531 26.89379119873047 47.3543701171875 28.4211311340332 C 45.46929168701172 31.96572113037109 42.91004943847656 34.79268264770508 40.6551399230957 37.09066009521484 C 36.6728401184082 41.14784622192383 31.9262866973877 45.12569046020508 26.1439151763916 49.25173950195313 C 25.88873863220215 49.44427108764648 25.364990234375 49.83460235595703 24.58218955993652 49.83460235595703 Z M 14.41114044189453 11.09504127502441 C 13.85629081726074 11.09504127502441 13.29750061035156 11.1456413269043 12.7502908706665 11.24544143676758 C 9.862170219421387 11.77198123931885 7.582150459289551 13.37754154205322 5.973510265350342 16.01754188537598 C 3.584050416946411 19.9406623840332 3.366870403289795 23.35112190246582 5.290100574493408 26.75034141540527 C 6.519410610198975 28.92110061645508 8.137110710144043 31.06158065795898 10.23551082611084 33.29389190673828 C 14.10873794555664 37.41294479370117 18.67233085632324 41.33370590209961 24.57434844970703 45.61063003540039 C 29.86617279052734 41.78970718383789 34.22568893432617 38.11228179931641 37.89131927490234 34.37788009643555 C 39.95344924926758 32.27485275268555 42.28395080566406 29.70664215087891 43.93210983276367 26.60565185546875 C 44.55720138549805 25.42595100402832 45.19219970703125 24.02445220947266 45.15972900390625 22.57949066162109 C 45.06721878051758 18.72031211853027 43.54201889038086 15.54311180114746 40.62654113769531 13.13705158233643 C 39.04928970336914 11.83281135559082 37.01330184936523 11.11473178863525 34.89315032958984 11.11473178863525 C 32.4316291809082 11.11473178863525 30.05927085876465 12.08505153656006 28.38438987731934 13.77689170837402 C 27.58479118347168 14.58552169799805 26.92843055725098 15.53796195983887 26.31902122497559 16.7740306854248 C 25.9970703125 17.42800140380859 25.34395980834961 17.8421516418457 24.61473083496094 17.85454177856445 L 24.6096305847168 17.8546314239502 L 24.60453033447266 17.8546314239502 L 24.58164978027344 17.8546314239502 C 23.86396980285645 17.8546314239502 23.20930099487305 17.46090126037598 22.87313079833984 16.82710075378418 C 22.70610046386719 16.51606178283691 22.60687065124512 16.32798194885254 22.5084400177002 16.13585090637207 C 20.86025047302246 12.98105144500732 17.83240127563477 11.09504127502441 14.41114044189453 11.09504127502441 Z" stroke="none"/>
              <path d="M 14.41114044189453 7.821002960205078 C 13.66629028320313 7.821002960205078 12.91078186035156 7.889633178710938 12.16539001464844 8.024772644042969 C 8.317668914794922 8.725471496582031 5.293540954589844 10.8419303894043 3.177082061767578 14.31350326538086 C 0.1471023559570313 19.29022216796875 -0.0928497314453125 23.88600158691406 2.441261291503906 28.36367225646973 C 3.800628662109375 30.76211166381836 5.569141387939453 33.10842132568359 7.851070404052734 35.53559112548828 C 12.04941177368164 39.99888229370117 17.01815032958984 44.23341369628906 23.49308967590332 48.86590194702148 C 23.83786010742188 49.11116027832031 24.20497131347656 49.23460006713867 24.58218955993652 49.23460006713867 C 25.16743087768555 49.23460006713867 25.56327056884766 48.93825149536133 25.78886032104492 48.76800155639648 C 31.54342079162598 44.6622314453125 36.26530075073242 40.70650100708008 40.22687149047852 36.67043304443359 C 42.45507049560547 34.39968109130859 44.97908020019531 31.60965156555176 46.82419204711914 28.14021110534668 C 47.59832000732422 26.67922210693359 48.48257064819336 24.71812057495117 48.43096160888672 22.50269317626953 C 48.31497192382813 17.65365982055664 46.39165115356445 13.6527099609375 42.71203994750977 10.61209106445313 C 40.54769134521484 8.824962615966797 37.77096939086914 7.840682983398438 34.89263153076172 7.840682983398438 C 31.56417083740234 7.840682983398438 28.34372138977051 9.164402008056641 26.05860137939453 11.47346115112305 C 25.5255012512207 12.00976181030273 25.03815078735352 12.60086059570313 24.58591079711914 13.25580215454102 C 22.2502498626709 9.868301391601563 18.47700119018555 7.821002960205078 14.41114044189453 7.821002960205078 M 24.60453033447266 17.25463104248047 C 25.10518074035645 17.24612045288086 25.55953979492188 16.95828247070313 25.78087043762207 16.50871276855469 C 26.41985130310059 15.21266174316406 27.11098098754883 14.21135330200195 27.9579906463623 13.35476303100586 C 29.74617958068848 11.54848098754883 32.27338027954102 10.51473236083984 34.89315032958984 10.51473236083984 C 37.1522102355957 10.51473236083984 39.32400131225586 11.28140258789063 41.00844192504883 12.67428207397461 C 44.0655517578125 15.19723129272461 45.66273880004883 18.52675247192383 45.75957870483398 22.56601333618164 C 45.79523086547852 24.15254974365234 45.12273025512695 25.6401424407959 44.46192932128906 26.88725090026855 C 42.77854919433594 30.05449104309082 40.41149139404297 32.66469192504883 38.31951141357422 34.79817962646484 C 34.54733276367188 38.64112091064453 30.04998016357422 42.42021179199219 24.57367134094238 46.35040283203125 C 18.47807121276855 41.95786285400391 13.77162933349609 37.93031311035156 9.79833984375 33.70484161376953 C 7.663791656494141 31.43408203125 6.019779205322266 29.25643157958984 4.767890930175781 27.04580116271973 C 2.726970672607422 23.43856048583984 2.946170806884766 19.83450317382813 5.461132049560547 15.705322265625 C 7.163131713867188 12.91210174560547 9.581272125244141 11.21330261230469 12.64263153076172 10.65518188476563 C 13.22893905639648 10.54825210571289 13.82429885864258 10.49504089355469 14.41114044189453 10.49504089355469 C 18.05935096740723 10.49504089355469 21.28938102722168 12.50669097900391 23.04244995117188 15.86228179931641 C 23.14248085021973 16.05754089355469 23.24090957641602 16.24375152587891 23.4031810760498 16.54595184326172 C 23.63515090942383 16.98329162597656 24.08897972106934 17.25463104248047 24.58164978027344 17.25463104248047 C 24.5890998840332 17.25463104248047 24.59708023071289 17.25463104248047 24.60453033447266 17.25463104248047 M 14.41114044189453 6.621002197265625 C 18.30069351196289 6.621002197265625 21.99952125549316 8.345149993896484 24.58280944824219 11.30009078979492 C 24.7841911315918 11.06797409057617 24.99193954467773 10.84436798095703 25.20754051208496 10.62747192382813 C 27.7142505645752 8.094501495361328 31.24501037597656 6.640682220458984 34.89263153076172 6.640682220458984 C 38.04885101318359 6.640682220458984 41.0971794128418 7.72247314453125 43.47608947753906 9.686771392822266 C 47.43535232543945 12.95847320556641 49.50590896606445 17.2606201171875 49.63061904907227 22.47399139404297 C 49.68862152099609 24.9640007019043 48.72795104980469 27.11030197143555 47.88454055786133 28.70205116271973 C 45.96313095092773 32.31494903564453 43.36833953857422 35.18231201171875 41.08338928222656 37.51090240478516 C 37.07771682739258 41.59189987182617 32.3071174621582 45.59059906005859 26.49881553649902 49.7355842590332 C 26.21086311340332 49.95273590087891 25.55772018432617 50.43460083007813 24.58218955993652 50.43460083007813 C 23.95802116394043 50.43460083007813 23.34088134765625 50.23028182983398 22.7974910736084 49.84373092651367 C 16.25611114501953 45.16370010375977 11.2298698425293 40.87905120849609 6.977001190185547 36.35778045654297 C 4.631622314453125 33.86312866210938 2.806549072265625 31.44185066223145 1.397281646728516 28.95537185668945 C 0.02136993408203125 26.52419090270996 -0.6086807250976563 24.00362014770508 -0.4757194519042969 21.46302032470703 C -0.3443794250488281 18.95314025878906 0.5397491455078125 16.33774185180664 2.152099609375 13.68946075439453 C 4.455249786376953 9.911670684814453 7.751750946044922 7.608791351318359 11.95040130615234 6.844192504882813 C 12.76755142211914 6.696029663085938 13.59516143798828 6.621002197265625 14.41114044189453 6.621002197265625 Z M 21.97687530517578 16.41416549682617 C 20.43143844604492 13.45911407470703 17.60342597961426 11.69504165649414 14.41114044189453 11.69504165649414 C 13.89229965209961 11.69504165649414 13.36973190307617 11.74237060546875 12.85792922973633 11.83571243286133 C 10.14543914794922 12.33023071289063 8.001602172851563 13.84223175048828 6.485881805419922 16.32973098754883 C 4.190502166748047 20.0984001159668 3.982730865478516 23.22117233276367 5.812309265136719 26.45488166809082 C 7.017601013183594 28.58322143554688 8.607521057128906 30.68599128723145 10.67269134521484 32.88294219970703 C 14.44204330444336 36.89153289794922 18.87436676025391 40.71437072753906 24.57494735717773 44.86934661865234 C 29.68069076538086 41.15976715087891 33.90293502807617 37.58456420898438 37.46313095092773 33.95757293701172 C 39.49502944946289 31.88536071777344 41.79001998901367 29.35753059387207 43.40230178833008 26.32406234741211 C 43.99084091186523 25.21333122253418 44.58926010131836 23.90022277832031 44.55987930297852 22.59297180175781 C 44.47174072265625 18.91647338867188 43.01985931396484 15.89013290405273 40.24462890625 13.59980010986328 C 38.77425003051758 12.38393020629883 36.87403869628906 11.7147331237793 34.89315032958984 11.7147331237793 C 32.5906982421875 11.7147331237793 30.37376022338867 12.62021255493164 28.8107795715332 14.19901275634766 C 28.05813026428223 14.96016311645508 27.43720054626465 15.86286163330078 26.85717010498047 17.03935241699219 C 26.43555068969727 17.895751953125 25.5800895690918 18.4382209777832 24.62491989135742 18.45446014404297 L 24.61473083496094 18.45463180541992 L 24.60453033447266 18.45463180541992 L 24.58164978027344 18.45463180541992 C 23.6427173614502 18.45463180541992 22.78606796264648 17.94020080566406 22.34499359130859 17.11185836791992 C 22.17650032043457 16.79804992675781 22.07624053955078 16.6080322265625 21.97687530517578 16.41416549682617 Z" stroke="none" fill="#fafafa"/>
            </g>
          </g>
        </g>
      </g>
    </g>
  </g>
</svg>
