<svg id="Medium_Logo_" data-name="Medium Logo " xmlns="http://www.w3.org/2000/svg" width="195" height="195" viewBox="0 0 195 195">
  <circle id="Ellipse_1" data-name="Ellipse 1" cx="97.5" cy="97.5" r="97.5" fill="#12100e"/>
  <path id="Shape" d="M46.534,65.216a5.074,5.074,0,0,0-1.651-4.28L32.651,46.2V44H70.63l29.356,64.381L125.795,44H162v2.2L151.542,56.228a3.057,3.057,0,0,0-1.162,2.935v73.674a3.057,3.057,0,0,0,1.162,2.935L161.755,145.8V148H110.383v-2.2l10.58-10.272c1.04-1.039,1.04-1.345,1.04-2.935V73.042L92.586,147.755H88.611L54.362,73.042v50.074a6.908,6.908,0,0,0,1.9,5.747l13.761,16.691v2.2H31v-2.2l13.761-16.691a6.663,6.663,0,0,0,1.774-5.747Z" transform="translate(1)" fill="#fff"/>
</svg>
