<svg id="Medium_Logo_" data-name="Medium Logo " xmlns="http://www.w3.org/2000/svg" width="195" height="195" viewBox="0 0 195 195">
  <circle id="Ellipse_1" data-name="Ellipse 1" cx="97.5" cy="97.5" r="97.5" fill="#12100e"/>
  <path id="Shape" d="M41.969,58.98A3.583,3.583,0,0,0,40.8,55.958l-8.637-10.4V44H58.983L79.711,89.459,97.934,44H123.5v1.554l-7.384,7.08a2.158,2.158,0,0,0-.82,2.072v52.021a2.158,2.158,0,0,0,.82,2.072l7.212,7.08v1.554H87.052V115.88l7.471-7.253c.734-.734.734-.95.734-2.072V64.506L74.486,117.261H71.679L47.5,64.506V99.863a4.877,4.877,0,0,0,1.339,4.058l9.716,11.786v1.554H31v-1.554l9.716-11.786a4.7,4.7,0,0,0,1.252-4.058Z" transform="translate(20.251 15.283)" fill="#fff"/>
</svg>
