<svg xmlns="http://www.w3.org/2000/svg" width="46" height="36" fill="none" viewBox="0 0 46 36">
    <path fill="#E0E0E0" d="M21.666 3.333c-2.044.578-3.955 1.378-5.733 2.4-1.733 1.022-3.267 2.222-4.6 3.6-1.289 1.334-2.311 2.778-3.067 4.334-.755 1.555-1.133 3.155-1.133 4.8 0 .977.2 1.844.6 2.6.4.71.867 1.066 1.4 1.066.578 0 1.045-.11 1.4-.333.4-.222.8-.467 1.2-.733.4-.267.845-.512 1.333-.734.534-.222 1.223-.333 2.067-.333.889 0 1.711.2 2.467.6.8.355 1.489.867 2.066 1.533.623.667 1.112 1.467 1.467 2.4.356.934.534 1.934.534 3 0 1.156-.245 2.223-.734 3.2-.489.978-1.155 1.823-2 2.534-.8.71-1.755 1.288-2.866 1.733-1.067.4-2.223.6-3.467.6-1.645 0-3.178-.356-4.6-1.067-1.422-.755-2.667-1.755-3.734-3-1.066-1.289-1.91-2.755-2.533-4.4-.622-1.689-.933-3.489-.933-5.4 0-3.022.555-5.8 1.666-8.333C3.622 10.867 5.133 8.667 7 6.8c1.91-1.911 4.133-3.422 6.666-4.533 2.534-1.156 5.2-1.823 8-2v3.066zm24.067 0c-2 .578-3.889 1.378-5.666 2.4-1.778 1.022-3.312 2.222-4.6 3.6-1.29 1.334-2.312 2.778-3.067 4.334-.756 1.555-1.133 3.155-1.133 4.8 0 .977.177 1.844.533 2.6.4.71.889 1.066 1.466 1.066.578 0 1.045-.11 1.4-.333.4-.222.778-.467 1.134-.733.4-.267.844-.512 1.333-.734.533-.222 1.222-.333 2.067-.333.889 0 1.71.2 2.466.6.8.355 1.49.867 2.067 1.533.622.667 1.111 1.467 1.467 2.4.355.934.533 1.934.533 3 0 1.156-.244 2.223-.733 3.2-.445.978-1.09 1.823-1.934 2.534-.8.71-1.755 1.288-2.866 1.733-1.111.4-2.29.6-3.534.6-1.644 0-3.177-.356-4.6-1.067-1.422-.755-2.666-1.755-3.733-3-1.066-1.289-1.911-2.755-2.533-4.4-.622-1.689-.934-3.489-.934-5.4 0-3.022.556-5.8 1.667-8.333 1.156-2.533 2.689-4.733 4.6-6.6 1.911-1.911 4.111-3.422 6.6-4.533 2.534-1.156 5.2-1.823 8-2v3.066z"/>
</svg>
