<svg xmlns="http://www.w3.org/2000/svg" width="40" height="40" fill="none" viewBox="0 0 40 40">
    <path fill="#4137FF" d="M12.479 4.58l15.888 9.73-4.52 4.792L9.602 4.145c.274 0 .685-.145.96-.145.684 0 1.369.145 1.917.58zM7 32.17V7.775c0-1.161.548-2.178 1.37-2.904L22.75 20.118 8.507 35.219C7.547 34.493 7 33.332 7 32.17zm5.479 3.34c-.822.436-1.78.58-2.603.436L23.847 21.28l4.383 4.646-15.751 9.584zm19.86-12.197l-2.876 1.742-4.794-4.937 4.794-5.082 2.74 1.742c1.095.726 1.78 1.888 1.78 3.34.137 1.162-.548 2.469-1.644 3.195z"/>
</svg>
