<svg xmlns="http://www.w3.org/2000/svg" width="48" height="48" fill="none" viewBox="0 0 48 48">
    <circle cx="24" cy="24" r="24" fill="#1DA1F2"/>
    <path fill="#fff" d="M18.314 36.075c11.567 0 17.892-9.552 17.892-17.834 0-.272-.005-.542-.018-.81 1.228-.885 2.296-1.99 3.137-3.247-1.127.5-2.34.836-3.611.987 1.298-.776 2.295-2.003 2.765-3.467-1.215.718-2.56 1.24-3.993 1.522-1.148-1.219-2.781-1.98-4.59-1.98-3.473 0-6.29 2.806-6.29 6.267 0 .492.056.97.163 1.43-5.226-.263-9.86-2.757-12.962-6.55-.54.926-.852 2.002-.852 3.15 0 2.175 1.11 4.095 2.799 5.218-1.032-.031-2.001-.314-2.848-.784l-.001.08c0 3.036 2.168 5.57 5.045 6.145-.528.144-1.084.22-1.658.22-.405 0-.799-.04-1.182-.112.8 2.49 3.122 4.303 5.875 4.353-2.153 1.682-4.864 2.683-7.811 2.683-.507 0-1.008-.028-1.5-.086 2.783 1.778 6.088 2.815 9.64 2.815"/>
</svg>
