<svg xmlns="http://www.w3.org/2000/svg" width="20" height="20" viewBox="0 0 20 20"><defs><style>.a{fill:#fff;opacity:0;}.b{fill:#757575;}</style></defs><g transform="translate(-3248 -397)"><rect class="a" width="20" height="20" transform="translate(3248 397)"/><g transform="translate(3218.1 369)"><path class="b" d="M39.465,37a6.547,6.547,0,1,0,6.565,6.547A6.575,6.575,0,0,0,39.465,37Zm0,11.457a4.91,4.91,0,1,1,4.924-4.91A4.932,4.932,0,0,1,39.465,48.457Z" transform="translate(0 -4.094)"/><path class="b" d="M48.782,47.246l-1.637,1.637a.791.791,0,0,0,0,1.146.792.792,0,0,0,.532.246,1.379,1.379,0,0,0,.859-.491l1.391-1.391a.81.81,0,0,0-1.146-1.146Z" transform="translate(-8.252 -10.021)"/><path class="b" d="M41.723,31.637h4.938a.818.818,0,1,0,0-1.637H41.723a.818.818,0,1,0,0,1.637Z" transform="translate(-4.726)"/><path class="b" d="M63.31,37.064l-.818-.818a.81.81,0,0,0-1.146,1.146l.818.818a.791.791,0,0,0,1.146,0A.791.791,0,0,0,63.31,37.064Z" transform="translate(-16.624 -3.537)"/></g></g></svg>