<svg xmlns="http://www.w3.org/2000/svg" width="40" height="21.99" viewBox="0 0 40 21.99"><defs><style>.a{fill:#939393;}</style></defs><g transform="translate(-11.723 -30.36)"><path class="a" d="M51.369,51.725H49.451V42.1h.073a.314.314,0,0,0,.314-.313.308.308,0,0,0-.3-.308,1.568,1.568,0,0,0,0-.523,1.311,1.311,0,0,0-.522-.867l-1.066-.82v-.4a.314.314,0,1,0-.627,0v.408l-1.014.8a1.285,1.285,0,0,0-.523.867,1.406,1.406,0,0,0,0,.523h-.073a.313.313,0,0,0,0,.627h.167V43.7H41.394v-1.62h.078a.311.311,0,0,0,.01-.622,1.568,1.568,0,0,0,0-.523,1.327,1.327,0,0,0-.523-.867l-1.066-.81v-.4a.313.313,0,1,0-.627,0v.408l-1.014.8a1.285,1.285,0,0,0-.523.867,1.406,1.406,0,0,0,0,.523h-.078a.313.313,0,1,0,0,.627h.167v.486h-.11l-1.369-.951v-.8a1.045,1.045,0,0,0-.878-1.045.235.235,0,0,0,0-.1v-1.52a.3.3,0,0,0,.209-.1,2.571,2.571,0,0,0,.617-2.09,2.613,2.613,0,0,0-.334-.935V33.929a.308.308,0,0,0-.313-.313.313.313,0,0,0-.314.313v.4a2.822,2.822,0,0,0-.24-.172l-2.32-1.51V31.342a.988.988,0,0,0-.988-.982h-.1a.988.988,0,0,0-1,.982v1.306l-2.4,1.484c-.084.057-.167.115-.246.178V33.9a.314.314,0,0,0-.627,0v1.045a.152.152,0,0,0,0,.047,2.539,2.539,0,0,0-.334.935,2.571,2.571,0,0,0,.617,2.09.3.3,0,0,0,.209.1V39.65a.235.235,0,0,0,0,.1A1.045,1.045,0,0,0,27.02,40.8v.815l-1.369.951h-.11V42.08h.078a.311.311,0,0,0,.01-.622,1.437,1.437,0,0,0,0-.523,1.327,1.327,0,0,0-.523-.867l-1.024-.8v-.4a.313.313,0,1,0-.627,0v.408l-1.014.8a1.306,1.306,0,0,0-.523.867,1.406,1.406,0,0,0,0,.523h-.078a.313.313,0,1,0,0,.627h.167V43.7H17.526v-1.62h.12a.314.314,0,0,0,0-.627h-.031a1.406,1.406,0,0,0,0-.523,1.306,1.306,0,0,0-.523-.867l-1.045-.8v-.4a.314.314,0,1,0-.627,0v.408l-1.019.8a1.327,1.327,0,0,0-.523.867,1.52,1.52,0,0,0,0,.523h-.031a.313.313,0,1,0,0,.627h.12v9.64H12.077a.314.314,0,1,0,0,.622H51.369a.314.314,0,1,0,0-.622ZM20.092,50.549v-.784a.314.314,0,1,0-.627,0v.784H17.526v-2.09h4.525v2.09Zm-4.018,0v-.784a.314.314,0,0,0-.627,0v.784h-.826v-2.09H16.9v2.09Zm9.719-7.315h4.959a.961.961,0,0,0,0,.214v.293H25.113v-.507Zm12.54,0v.523H32.726v-.293a.961.961,0,0,0-.031-.214h5.643ZM47.68,49.5a.314.314,0,0,0-.313.314v.732h-.82v-2.09h2.278v2.09H48v-.784a.314.314,0,0,0-.313-.314Zm-3.7,1.045v-.784a.313.313,0,1,0-.627,0v.784H41.394v-2.09h4.525v2.09Zm-4.42,0H38.515v-2.09h2.278v2.09ZM28.875,44.342v.883H26.738v-.883Zm1.155,0v1.191h0V47.1h0v2.3h-.523V44.342Zm1.008,0h1.756v.883H30.678v-.883Zm2.91,0V49.4h-.523V44.342Zm2.764,0v.883H34.576v-.883Zm1.15,0V49.4H37.34V44.342ZM25.583,50.027H37.862v.523H25.583Zm3.292-3.234H26.738v-.946h2.137Zm-2.137.622h2.137V49.4H26.738Zm6.056-.627H30.678v-.941h2.137Zm-2.116.627h2.137V49.4H30.678Zm6.056-.627H34.576v-.941h2.137Zm-2.158.627h2.137V49.4H34.576ZM26.111,49.4h-.523V44.342h.523Zm20.435-7.289h2.278v3.135H46.546Zm2.278,3.736v2.022H46.546V45.847Zm-2.905,2.022H41.394V45.847h4.525Zm-5.152,0H38.515V45.847h2.278ZM32.1,43.423v.293h-.747v-.293a1.191,1.191,0,0,1,.366-.653,1.207,1.207,0,0,1,.381.653Zm-7.143,4.452H22.678V45.847h2.278Zm-2.905,0H17.526V45.847h4.525Zm-7.43-2.027H16.9v2.022H14.621Zm0-3.741H16.9v3.135H14.621Zm8.057,6.4h2.278v2.09H22.678Zm17.243,2.686H48.8v.523H39.921Zm6.505-10.157a.7.7,0,0,1,.261-.46l.961-.752,1.045.758a.684.684,0,0,1,.256.455.826.826,0,0,1-.057.439H46.483A.826.826,0,0,1,46.426,41.029ZM45.9,44.342v.883H41.394v-.883Zm-7.534-3.313a.7.7,0,0,1,.266-.46l.956-.752,1.045.758a.679.679,0,0,1,.251.455.826.826,0,0,1-.052.439h-2.4a.826.826,0,0,1-.063-.439Zm.146,1.082h2.278v3.135H38.515v-.9h.162a.314.314,0,0,0,.314-.313V42.895a.314.314,0,0,0-.314-.313h-.162ZM33.583,38.73a.313.313,0,0,0-.313.313v.721H32.036v-.711a.314.314,0,1,0-.627,0v.721H30.2v-.721a.314.314,0,1,0-.627,0v.721H28.53a.522.522,0,0,0,0-.089V38.15h6.38v1.526a.522.522,0,0,0,0,.089H33.865v-.711a.314.314,0,0,0-.308-.324Zm-1.17-5.559,2.445,1.494a1.97,1.97,0,0,1,.909,1.379,1.944,1.944,0,0,1-.387,1.479H32.768V36.87a1.16,1.16,0,0,0-.084-.413,1.63,1.63,0,0,0-.784-.846.366.366,0,0,0-.272,0,1.667,1.667,0,0,0-.815.831,1.228,1.228,0,0,0-.094.449v.653H28.065a1.944,1.944,0,0,1-.381-1.479,1.97,1.97,0,0,1,.909-1.379l2.419-1.494Zm-1.045,3.7a.569.569,0,0,1,.037-.209.883.883,0,0,1,.334-.4.956.956,0,0,1,.334.4.674.674,0,0,1,.037.209v.653h-.758Zm.423-5.883a.35.35,0,0,1,.355.355v1.2h-.831v-1.2a.35.35,0,0,1,.355-.355Zm-4.107,9.828a.423.423,0,0,1,.423-.423h7.231a.428.428,0,0,1,.428.423v.465H27.684Zm.078,1.092h7.921l.967.674H32.381a3.574,3.574,0,0,0-.465-.486.313.313,0,0,0-.4,0,3.35,3.35,0,0,0-.46.486H26.8Zm-2.963.674a.313.313,0,0,0-.314.313v1.134a.313.313,0,0,0,.314.313h.157v.883H22.678V42.09h2.278v.47Zm-2.236-1.568a.674.674,0,0,1,.261-.46l.956-.752,1.045.758a.679.679,0,0,1,.251.455.779.779,0,0,1-.052.439h-2.4a.779.779,0,0,1-.057-.423Zm-.523,3.313v.883H17.526v-.867Zm-7.534-3.3a.674.674,0,0,1,.261-.46l.956-.752,1.045.758a.679.679,0,0,1,.251.455.779.779,0,0,1-.052.439h-2.4A.779.779,0,0,1,14.506,41.029Zm.12,10.157h8.83v.523h-8.83Zm9.457.523v-.491H39.315v.491Z" transform="translate(0)"/><path class="a" d="M19.08,61.43a.238.238,0,0,0-.23.238.23.23,0,1,0,.46,0h0a.226.226,0,0,0-.23-.238Z" transform="translate(-4.394 -14.707)"/><path class="a" d="M26.77,61.916a.23.23,0,0,0,.23-.23h0a.226.226,0,0,0-.23-.226.238.238,0,0,0-.23.238A.23.23,0,0,0,26.77,61.916Z" transform="translate(-7.042 -14.724)"/><path class="a" d="M34.41,61.916a.23.23,0,0,0,.23-.23h0a.226.226,0,0,0-.23-.226.238.238,0,0,0-.23.238A.23.23,0,0,0,34.41,61.916Z" transform="translate(-10.674 -14.724)"/><path class="a" d="M80.18,61.916a.23.23,0,0,0,.23-.23h0a.226.226,0,0,0-.23-.226.234.234,0,0,0-.23.238A.23.23,0,0,0,80.18,61.916Z" transform="translate(-31.421 -14.724)"/><path class="a" d="M72.49,61.916a.23.23,0,0,0,.23-.23h0a.226.226,0,0,0-.23-.226.238.238,0,0,0-.23.238A.23.23,0,0,0,72.49,61.916Z" transform="translate(-28.772 -14.724)"/><path class="a" d="M64.76,61.916a.23.23,0,0,0,.23-.23h0a.226.226,0,0,0-.23-.226.238.238,0,0,0-.23.238A.23.23,0,0,0,64.76,61.916Z" transform="translate(-25.098 -14.724)"/><path class="a" d="M34.64,66.726h0a.226.226,0,0,0-.23-.226.238.238,0,0,0-.23.238.23.23,0,1,0,.46-.012Z" transform="translate(-10.674 -16.43)"/><path class="a" d="M64.76,66.47a.238.238,0,0,0-.23.238.23.23,0,0,0,.46,0h0a.226.226,0,0,0-.23-.238Z" transform="translate(-25.098 -16.412)"/><path class="a" d="M19.08,54.52a.226.226,0,0,0-.23.226V55.3a.23.23,0,0,0,.46,0v-.552a.226.226,0,0,0-.23-.226Z" transform="translate(-4.394 -11.312)"/><path class="a" d="M34.5,54.52a.226.226,0,0,0-.23.226V55.3a.23.23,0,0,0,.46,0v-.552a.226.226,0,0,0-.23-.226Z" transform="translate(-10.716 -11.312)"/><path class="a" d="M64.76,55.522a.23.23,0,0,0,.23-.23V54.74a.23.23,0,0,0-.46,0v.552A.23.23,0,0,0,64.76,55.522Z" transform="translate(-25.098 -11.307)"/><path class="a" d="M80.18,54.52a.226.226,0,0,0-.23.226V55.3a.23.23,0,1,0,.46,0v-.552a.226.226,0,0,0-.23-.226Z" transform="translate(-31.421 -11.312)"/></g></svg>