<svg xmlns="http://www.w3.org/2000/svg" width="94.667" height="68.762" viewBox="0 0 94.667 68.762">
  <g id="Group_23974" data-name="Group 23974" transform="translate(-133.936 -110.808)">
    <g id="Group_23973" data-name="Group 23973" transform="translate(133.936 110.808)">
      <circle id="Ellipse_320" data-name="Ellipse 320" cx="1.989" cy="1.989" r="1.989" transform="translate(84.153 35.323)" fill="#d5557e"/>
      <circle id="Ellipse_321" data-name="Ellipse 321" cx="1.492" cy="1.492" r="1.492" transform="translate(7.021 51.237)" fill="#dd95c1"/>
      <path id="Path_23352" data-name="Path 23352" d="M304.32,95.832v4.4h-4.4v-4.4Z" transform="translate(-277.713 -95.832)" fill="#c9da53"/>
      <g id="Group_23972" data-name="Group 23972" transform="translate(77.924 14.981)">
        <path id="Path_23354" data-name="Path 23354" d="M420.968,186.626a.875.875,0,0,1-.875-.875v-.875a.875.875,0,0,1,1.751,0v.875A.875.875,0,0,1,420.968,186.626Z" transform="translate(-417.009 -176.121)" fill="#ffdb43"/>
        <path id="Path_23355" data-name="Path 23355" d="M444.307,177.081a.869.869,0,0,1-.619-.257l-.619-.619a.875.875,0,0,1,1.238-1.238l.619.619a.875.875,0,0,1-.619,1.494Z" transform="translate(-437.251 -167.859)" fill="#ffdb43"/>
        <path id="Path_23356" data-name="Path 23356" d="M453.844,153.751h-.875a.875.875,0,1,1,0-1.751h.875a.875.875,0,1,1,0,1.751Z" transform="translate(-445.507 -147.623)" fill="#ffdb43"/>
        <path id="Path_23357" data-name="Path 23357" d="M443.6,126.177a.875.875,0,0,1-.619-1.494l.619-.619a.875.875,0,0,1,1.238,1.238l-.619.619a.875.875,0,0,1-.619.257Z" transform="translate(-437.166 -122.525)" fill="#ffdb43"/>
        <path id="Path_23358" data-name="Path 23358" d="M420.968,114.626a.875.875,0,0,1-.875-.875v-.875a.875.875,0,0,1,1.751,0v.875A.875.875,0,0,1,420.968,114.626Z" transform="translate(-417.009 -112)" fill="#ffdb43"/>
        <path id="Path_23359" data-name="Path 23359" d="M393.387,126.177a.875.875,0,0,1-.619-.256l-.619-.619a.875.875,0,0,1,1.238-1.238l.619.619a.875.875,0,0,1-.619,1.494Z" transform="translate(-391.903 -122.525)" fill="#ffdb43"/>
      </g>
      <path id="Path_23360" data-name="Path 23360" d="M8.47,8l1.352,2.741,3.025.439-2.189,2.133.516,3.012L8.47,14.9l-2.7,1.423.516-3.012L4.093,11.18l3.025-.439Z" transform="translate(-4.093 5.897)" fill="#ffdb43"/>
      <path id="Path_23361" data-name="Path 23361" d="M369.116,353.8a6.077,6.077,0,0,0-2.684-3.538l-.361-.541a13.21,13.21,0,0,0-8.79-5.684.875.875,0,0,0-.289,1.726,11.452,11.452,0,0,1,6.68,3.724,5.165,5.165,0,0,0-3.5,2.4,3.5,3.5,0,0,0,6.115,3.414,5.076,5.076,0,0,0,.568-2.247,4.277,4.277,0,0,1,.192,4.546.875.875,0,1,0,1.506.893l.023-.041a6.089,6.089,0,0,0,.542-4.658Zm-4.357.652a1.751,1.751,0,1,1-3.066-1.692l.008-.014a3.28,3.28,0,0,1,2.371-1.542.89.89,0,0,1,.438.1C365.248,351.72,365.287,353.507,364.759,354.454Z" transform="translate(-274.685 -293.501)" fill="#0070e0"/>
    </g>
    <g id="like" transform="translate(152.579 119.132)">
      <path id="Path_24195" data-name="Path 24195" d="M203.184,118.566a3.552,3.552,0,0,0-3.541-3.541,3.541,3.541,0,1,0,0-7.083H185.123c2.16-6.481,2.125-8.664,2.125-12.631a5.3,5.3,0,0,0-3.541-4.993A4.907,4.907,0,0,0,181.936,90h-1.062a1.831,1.831,0,0,0-1.7,1.346l-.991,3.86c-1.487,5.772-6.268,12.737-12.182,12.737v24.789l7.9,2.621a17.653,17.653,0,0,0,5.6.921H196.1a3.541,3.541,0,0,0,0-7.083h3.541a3.541,3.541,0,1,0,0-7.083A3.552,3.552,0,0,0,203.184,118.566Z" transform="translate(-150.064 -79.376)" fill="#fec478"/>
      <path id="Path_24196" data-name="Path 24196" d="M315.165,136.273a3.541,3.541,0,1,0,0-7.083h3.541a3.541,3.541,0,0,0,0-7.083,3.541,3.541,0,0,0,0-7.083,3.541,3.541,0,0,0,0-7.083H304.187c2.16-6.481,2.125-8.664,2.125-12.631a5.3,5.3,0,0,0-3.541-4.993A4.908,4.908,0,0,0,301,90v46.273Z" transform="translate(-269.128 -79.376)" fill="#fec478"/>
      <g id="Group_23969" data-name="Group 23969" transform="translate(0)">
        <path id="Path_24197" data-name="Path 24197" d="M43.395,247.413H32.771A1.77,1.77,0,0,1,31,245.642V213.771A1.77,1.77,0,0,1,32.771,212H43.395a5.318,5.318,0,0,1,5.312,5.312V242.1A5.318,5.318,0,0,1,43.395,247.413Z" transform="translate(-31 -186.975)" fill="#1689fc"/>
        <circle id="Ellipse_357" data-name="Ellipse 357" cx="1.802" cy="1.802" r="1.802" transform="translate(7.067 49.898)" fill="#1689fc"/>
        <path id="Path_24198" data-name="Path 24198" d="M289.541,1.771V5.312a1.771,1.771,0,1,1-3.541,0V1.771a1.771,1.771,0,1,1,3.541,0Z" transform="translate(-255.899 0)" fill="#1689fc"/>
        <path id="Path_24199" data-name="Path 24199" d="M193.559,45.063l-2.5-2.5a1.77,1.77,0,0,1,2.5-2.5l2.5,2.5a1.77,1.77,0,0,1-2.5,2.5Z" transform="translate(-171.705 -34.87)" fill="#1689fc"/>
      </g>
      <g id="Group_23970" data-name="Group 23970" transform="translate(31.872)">
        <path id="Path_24200" data-name="Path 24200" d="M360.771,45.063a1.77,1.77,0,0,1,0-2.5l2.5-2.5a1.77,1.77,0,0,1,2.5,2.5l-2.5,2.5A1.77,1.77,0,0,1,360.771,45.063Z" transform="translate(-353.258 -34.87)" fill="#136ef1"/>
        <path id="Path_24201" data-name="Path 24201" d="M302.771,1.771V5.312A1.753,1.753,0,0,1,301,7.083V0A1.753,1.753,0,0,1,302.771,1.771Z" transform="translate(-301)" fill="#136ef1"/>
      </g>
    </g>
  </g>
</svg>
