<svg xmlns="http://www.w3.org/2000/svg" width="71.872" height="71.188" viewBox="0 0 71.872 71.188"><defs><style>.a{fill:#eaf2f5;}.b{fill:#df0f1b;}.c{fill:#fff;}.d{fill:#b21d48;}.e{fill:#ffbf41;}.f{fill:#d5557e;}.g{fill:#dd95c1;}.h{fill:#0070e0;}.i{fill:#2276bb;}.j{fill:#f6f6e7;}.k{fill:#c9da53;}.l{fill:#ffdb43;}</style></defs><g transform="translate(-11.064 -120.406)"><path class="a" d="M23,55.936c9.609-4.362,18.47-2.378,23.1-4.479s13.149-9.179,3.48-30.482S25.41,2.483,20.316,4.794C-3.535,15.618,5.981,63.661,23,55.936Z" transform="matrix(-0.643, 0.766, -0.766, -0.643, 89.265, 152.302)"/><g transform="translate(22.907 126.227)"><path class="b" d="M30.422,128.744c-6.822-6.821-14.3-10.4-16.708-7.995a2.4,2.4,0,0,0-.567.979l-.039-.039-2.3,9.417-2.288,9.389L5.81,151.612l-1.717,7.041,10.166-3.847,12.931-4.893,10.316-3.9L37.493,146a2.4,2.4,0,0,0,.924-.547C40.823,143.045,37.244,135.565,30.422,128.744Z" transform="translate(0 -106.798)"/><ellipse class="c" cx="17.468" cy="6.161" rx="17.468" ry="6.161" transform="translate(34.061 43.007) rotate(-135)"/><path class="d" d="M36.569,353.447a8.627,8.627,0,0,1-3.584-.711l-8.431,3.19-12.935,4.888-6.936,2.625-.59,2.418,10.166-3.847,12.931-4.893,9.467-3.582Z" transform="translate(0 -313.93)"/><g transform="translate(20.205 5.265)"><path class="e" d="M246.743,267.3a.9.9,0,0,1-.309-.055,27.2,27.2,0,0,0-14-1.361l-3.144.524a.88.88,0,0,1-.29-1.736l3.145-.528a28.983,28.983,0,0,1,14.912,1.448.88.88,0,0,1-.309,1.708Z" transform="translate(-219.73 -239.998)"/><path class="e" d="M245.015,162.58a.88.88,0,0,1-.378-1.672l18.482-8.8a.88.88,0,1,1,.757,1.589h0l-18.482,8.8A.879.879,0,0,1,245.015,162.58Z" transform="translate(-233.843 -140.561)"/><path class="e" d="M151.426,68.114a.867.867,0,0,1-.338-.068.88.88,0,0,1-.473-1.151h0l1.28-3.071a24.619,24.619,0,0,0,1.314-14.882.88.88,0,1,1,1.711-.413l.007.031A26.368,26.368,0,0,1,153.518,64.5l-1.281,3.071a.88.88,0,0,1-.811.541Z" transform="translate(-150.546 -47.855)"/></g><circle class="f" cx="2" cy="2" r="2" transform="translate(50.093 31.773)"/><circle class="g" cx="1.5" cy="1.5" r="1.5" transform="translate(29.093 7.773)"/><path class="h" d="M157.853,3.52a1.76,1.76,0,1,1,1.76-1.76A1.76,1.76,0,0,1,157.853,3.52Z" transform="translate(-135.278)"/><g transform="translate(43.698)"><path class="i" d="M388.973,42.64a.88.88,0,0,1-.88-.88v-.88a.88.88,0,1,1,1.76,0v.88A.88.88,0,0,1,388.973,42.64Z" transform="translate(-385.453 -35.599)"/><path class="i" d="M388.973,2.64a.88.88,0,0,1-.88-.88V.88a.88.88,0,1,1,1.76,0v.88A.88.88,0,0,1,388.973,2.64Z" transform="translate(-385.453)"/><path class="i" d="M405.853,25.76h-.88a.88.88,0,1,1,0-1.76h.88a.88.88,0,1,1,0,1.76Z" transform="translate(-399.692 -21.36)"/><path class="i" d="M365.853,25.76h-.88a.88.88,0,1,1,0-1.76h.88a.88.88,0,1,1,0,1.76Z" transform="translate(-364.093 -21.36)"/></g><path class="c" d="M46.914,222.744c-.1-.377-.187-.757-.268-1.144l-2.288,9.389.176,2.147a19.759,19.759,0,0,0,5.56,12.16l12.931-4.888c-.07-.022-.143-.038-.214-.062A25.8,25.8,0,0,1,46.914,222.744Z" transform="translate(-35.834 -197.221)"/><path class="j" d="M97.976,383.212c-.07-.022-.143-.038-.214-.062a25.74,25.74,0,0,1-2.485-1.094l-11.647,4.407a19.706,19.706,0,0,0,1.416,1.641Z" transform="translate(-70.786 -340.025)"/><path class="k" d="M304.344,95.832v4.419h-4.419V95.832Z" transform="translate(-263.286 -85.289)"/><path class="e" d="M188.975,161.775a.88.88,0,0,1-.589-1.534l8.8-7.921a.88.88,0,0,1,1.178,1.308l-8.8,7.921a.88.88,0,0,1-.589.226Z" transform="translate(-163.759 -135.372)"/><g transform="translate(4.093 0.88)"><path class="l" d="M420.973,186.64a.88.88,0,0,1-.88-.88v-.88a.88.88,0,1,1,1.76,0v.88A.88.88,0,0,1,420.973,186.64Z" transform="translate(-374.327 -164.638)"/><path class="l" d="M444.315,177.094a.874.874,0,0,1-.622-.258l-.622-.622a.88.88,0,0,1,1.244-1.244l.622.622a.88.88,0,0,1-.622,1.5Z" transform="translate(-394.557 -156.381)"/><path class="l" d="M453.853,153.76h-.88a.88.88,0,1,1,0-1.76h.88a.88.88,0,1,1,0,1.76Z" transform="translate(-402.807 -136.158)"/><path class="l" d="M443.607,126.189a.88.88,0,0,1-.622-1.5l.622-.622a.88.88,0,0,1,1.244,1.244l-.622.622a.88.88,0,0,1-.622.258Z" transform="translate(-394.471 -111.076)"/><path class="l" d="M420.973,114.64a.88.88,0,0,1-.88-.88v-.88a.88.88,0,1,1,1.76,0v.88A.88.88,0,0,1,420.973,114.64Z" transform="translate(-374.327 -100.559)"/><path class="l" d="M393.395,126.19a.88.88,0,0,1-.622-.258l-.622-.622a.88.88,0,0,1,1.245-1.244l.622.622a.88.88,0,0,1-.622,1.5Z" transform="translate(-349.239 -111.077)"/><path class="l" d="M8.494,8l1.36,2.756,3.041.442-2.2,2.145.519,3.028-2.72-1.43-2.72,1.43.519-3.028L4.093,11.2l3.041-.442Z" transform="translate(-4.093 -8)"/></g><path class="h" d="M369.185,353.855a6.109,6.109,0,0,0-2.7-3.557l-.363-.544a13.281,13.281,0,0,0-8.837-5.715.88.88,0,0,0-.29,1.736,11.514,11.514,0,0,1,6.716,3.744,5.192,5.192,0,0,0-3.52,2.418,3.52,3.52,0,0,0,6.148,3.432,5.1,5.1,0,0,0,.571-2.259,4.3,4.3,0,0,1,.193,4.57.88.88,0,0,0,1.514.9l.023-.041a6.121,6.121,0,0,0,.545-4.683Zm-4.38.656a1.76,1.76,0,1,1-3.082-1.7l.008-.014a3.3,3.3,0,0,1,2.383-1.551.9.9,0,0,1,.44.1C365.3,351.761,365.336,353.558,364.8,354.51Z" transform="translate(-313.443 -306.183)"/></g></g></svg>