<svg xmlns="http://www.w3.org/2000/svg" width="29.244" height="30" viewBox="0 0 29.244 30"><defs><style>.a{fill:#939393;}</style></defs><path class="a" d="M26.319,29.546v-18.2h1.008V9.176H25.866V7.513h-.454V5.8H23.748V2.42H20.723V1.664a.476.476,0,0,0-.5-.5H19.16V.454a.412.412,0,0,0-.4-.454H10.891a.452.452,0,0,0-.454.454h0V1.21H9.328a.476.476,0,0,0-.5.5V2.42H6.05V5.8H4.235V7.462H3.782V9.126H2.319v2.168H3.378V29.5H0V30H29.244v-.5H26.319Zm-.5-9.58H20.269V11.345h5.546Zm-5.546.5h5.546v4.992H20.269ZM9.378,1.714h1.21a.4.4,0,0,0,.4-.4V.5h7.664v.807a.434.434,0,0,0,.4.4h1.16V2.42H9.378ZM6.555,2.924H23.244V5.8H6.555ZM4.739,6.3H24.908v1.16H4.739V6.3ZM4.286,7.966H25.361v1.16H4.286ZM2.824,9.63h24v1.16h-24ZM9.479,19.966H3.933V11.345H9.479Zm-5.546.5H9.479v5.042H3.933V20.471Zm0,9.076V26.017H9.479v3.529Zm7.563,0v-12a3.378,3.378,0,1,1,6.756,0h0v12Zm7.311,0v-12a3.879,3.879,0,0,0-3.681-3.882V12.555h-.5v1.109a3.87,3.87,0,0,0-3.63,3.882v12H9.983v-18.2h9.782v18.2Zm1.462,0V26.017h5.546v3.529Z"/><path class="a" d="M12.007,27.013A1.407,1.407,0,1,0,10.6,25.607h0A1.435,1.435,0,0,0,12.007,27.013Zm0-2.24a.886.886,0,0,1,0,1.771.848.848,0,0,1-.886-.886h0A.952.952,0,0,1,12.007,24.773Z" transform="translate(-5.274 -12.039)"/><path class="a" d="M44.407,27.013A1.407,1.407,0,1,0,43,25.607h0A1.472,1.472,0,0,0,44.407,27.013Zm0-2.24a.886.886,0,1,1-.886.886h0A.952.952,0,0,1,44.407,24.773Z" transform="translate(-21.394 -12.039)"/></svg>