<svg xmlns="http://www.w3.org/2000/svg" width="24" height="24" viewBox="0 0 24 24"><defs><style>.a,.d{fill:none;}.a{stroke:#707070;opacity:0;}.b{fill:#757575;}.c{stroke:none;}</style></defs><g class="a"><rect class="c" width="24" height="24"/><rect class="d" x="0.5" y="0.5" width="23" height="23"/></g><g transform="translate(4 4)"><path class="b" d="M10.575,7.536c0-.4.418-.695.921-.695s.93.3.93.695-.418.7-.93.7S10.575,7.934,10.575,7.536Zm.063,1.246h1.716v5.03H10.638Z" transform="translate(-3.5 -2.488)"/><path class="b" d="M10.156,3.233A6.92,6.92,0,1,1,5.26,5.26,6.877,6.877,0,0,1,10.156,3.233Zm0-1.077a8,8,0,1,0,8,8A8,8,0,0,0,10.156,2.156Z" transform="translate(-2.156 -2.156)"/></g></svg>