<svg xmlns="http://www.w3.org/2000/svg" width="56.551" height="62.693" viewBox="0 0 56.551 62.693"><defs><style>.a{fill:#eaf2f5;}.b{fill:#fff;}.c{fill:#a4afc1;}.d{fill:#103566;}</style></defs><g transform="translate(-151.522 -105)"><g transform="translate(149 104.416)"><g transform="translate(2.522 0.584)"><path class="a" d="M47.886,7.033c-12.45,0-21-6.449-27-6.449S2.29,4.033,2.29,31.63,19.239,63.277,25.838,63.277C56.736,63.278,69.934,7.033,47.886,7.033Z" transform="translate(-2.29 -0.584)"/><g transform="translate(4.407 8.459)"><circle class="b" cx="19.487" cy="19.487" r="19.487" transform="translate(3 2)"/><g transform="translate(38.6 42.509)"><path class="c" d="M29.432,34.363a2.932,2.932,0,1,1,2.932-2.932A2.935,2.935,0,0,1,29.432,34.363Zm0-3.909a.977.977,0,1,0,.977.977A.978.978,0,0,0,29.432,30.454Z" transform="translate(-26.5 -28.5)"/></g></g></g><g transform="translate(10.099 4.033)"><path class="c" d="M9.2,7.9a2.7,2.7,0,1,1,2.7-2.7A2.7,2.7,0,0,1,9.2,7.9Zm0-3.6a.9.9,0,1,0,.9.9A.9.9,0,0,0,9.2,4.3Z" transform="translate(-6.5 -2.5)"/></g></g><g transform="translate(154 114)"><path class="d" d="M46.792,16.639H42.1a18.052,18.052,0,0,0-35.993,0H1.412A1.412,1.412,0,0,0,0,18.052V33.178A1.412,1.412,0,0,0,1.412,34.59H7.463a1.412,1.412,0,0,0,1.412-1.412V18.052a15.227,15.227,0,1,1,30.454,0V33.178a9.187,9.187,0,0,1-9.176,9.176H28.308a4.438,4.438,0,1,0,0,2.824h1.845A12.018,12.018,0,0,0,42.07,34.59h4.722A1.412,1.412,0,0,0,48.2,33.178V18.052a1.412,1.412,0,0,0-1.412-1.412ZM6.051,31.766H2.824v-12.3H6.051ZM24.1,45.38a1.613,1.613,0,1,1,1.613-1.613A1.615,1.615,0,0,1,24.1,45.38ZM45.38,31.766H42.154v-12.3H45.38Z"/></g></g></svg>