<svg xmlns="http://www.w3.org/2000/svg" width="53.297" height="48.077" viewBox="0 0 53.297 48.077"><defs><style>.a{fill:#eaf2f5;}.b,.c{fill:#d4e1f7;}.b{stroke:#707070;}.d,.h{fill:#fff;}.e{fill:#df0f1b;font-size:15px;font-family:Roboto-Medium, Roboto;font-weight:500;}.f{fill:#a4afc1;}.g{fill:#103566;}.h{stroke:#fff;stroke-width:0.5px;}</style></defs><g transform="translate(-7881 126)"><g transform="translate(7881 -126)"><g transform="translate(0 0)"><path class="a" d="M6.066,41.1C6.066,30.517.584,23.249.584,18.149S3.516,2.337,26.977,2.337s26.9,14.409,26.9,20.018c0,26.267-47.814,37.489-47.814,18.745Z" transform="translate(-0.584 -2.337)"/></g><g transform="translate(4.462 1.865)"><g transform="translate(4.973 4.887)"><path class="b" d="M41.177,15.931v2.3H6.75v-2.3L23.964,6.75Z" transform="translate(-6.75 -6.75)"/></g><g transform="translate(4.973 4.887)"><path class="c" d="M10.193,17.078,26.761,8.242l-2.8-1.492L6.75,15.931v2.3h3.443Z" transform="translate(-6.75 -6.75)"/></g><g transform="translate(9.563 16.363)"><path class="d" d="M9.75,14.25H35V37.2H9.75Z" transform="translate(-9.75 -14.25)"/><text class="e" transform="translate(8.975 17.772)"><tspan x="0" y="0">₹</tspan></text></g><g transform="translate(9.563 16.363)"><path class="c" d="M9.75,14.25h3.443V37.2H9.75Z" transform="translate(-9.75 -14.25)"/></g><g transform="translate(34.28 0.406)"><g transform="translate(6.221)"><path class="f" d="M0,0H3.06V1.53H0Z" transform="translate(0 2.164) rotate(-45)"/></g><g transform="translate(6.219 6.489)"><path class="f" d="M0,0H1.53V3.06H0Z" transform="translate(0 1.082) rotate(-45)"/></g><g transform="translate(0 0.269)"><path class="f" d="M0,0H1.53V3.06H0Z" transform="translate(0 1.082) rotate(-45)"/></g></g><path class="f" d="M5.8,8.146a2.3,2.3,0,1,1,2.3-2.3A2.3,2.3,0,0,1,5.8,8.146Zm0-3.06a.765.765,0,1,0,.765.765A.767.767,0,0,0,5.8,5.086Z" transform="translate(-3.5 -3.556)"/></g><g transform="translate(8.287 5.605)"><path class="g" d="M41.575,19.771H7.148A1.148,1.148,0,0,1,6,18.623v-2.3a1.147,1.147,0,0,1,.607-1.013L23.821,6.135a1.15,1.15,0,0,1,1.079,0l17.214,9.181a1.146,1.146,0,0,1,.609,1.013v2.3A1.148,1.148,0,0,1,41.575,19.771ZM8.3,17.476H40.427v-.459L24.361,8.448,8.3,17.017Z" transform="translate(-6 -6)"/><g transform="translate(1.148 34.427)"><path class="g" d="M6.75,28.5H41.177v2.3H6.75Z" transform="translate(-6.75 -28.5)"/></g><g transform="translate(4.59 12.623)"><path class="g" d="M9,14.25h2.3V37.2H9Z" transform="translate(-9 -14.25)"/></g><g transform="translate(29.837 12.623)"><path class="g" d="M25.5,14.25h2.3V37.2H25.5Z" transform="translate(-25.5 -14.25)"/></g></g></g><g transform="translate(7914.663 -95.398)"><circle class="g" cx="8" cy="8" r="8" transform="translate(0.337 0.398)"/><path class="h" d="M15.81,19.807a.534.534,0,0,1-.381-.158l-2.334-2.334.762-.762,1.953,1.953L20.1,14.219l.762.762-4.668,4.668a.54.54,0,0,1-.382.158Z" transform="translate(-8.762 -7.843)"/></g></g></svg>