<svg xmlns="http://www.w3.org/2000/svg" width="30" height="30" viewBox="0 0 30 30">
  <path id="red-fort" d="M29.531,15.938H28.125V14.063h.469a.469.469,0,0,0,0-.937h-.507a2.511,2.511,0,0,0,.115-1.367c-.177-.88-1.415-1.91-1.952-2.321v-.53a.469.469,0,0,0-.937,0v.53c-.537.411-1.775,1.442-1.952,2.321a2.512,2.512,0,0,0,.115,1.368h-.507a.469.469,0,0,0,0,.938h.469v1.875H21.563V6.563h.469a.469.469,0,0,0,0-.937h-.073a1.853,1.853,0,0,0,.029-.842,3.709,3.709,0,0,0-1.361-1.664V2.344a.469.469,0,0,0-.937,0v.776a3.709,3.709,0,0,0-1.361,1.664,1.853,1.853,0,0,0,.029.842h-.073a.469.469,0,0,0,0,.938h.469V8.968l-.677-.452a.468.468,0,0,0-.52,0l-.989.659a1.391,1.391,0,0,0-.157.136,1.39,1.39,0,0,0-.158-.136l-.78-.52V2.813h2.344a.468.468,0,0,0,.469-.469V.469A.468.468,0,0,0,17.813,0H15a.468.468,0,0,0-.469.469V8.655l-.78.52a1.39,1.39,0,0,0-.157.136,1.39,1.39,0,0,0-.158-.136l-.989-.659a.468.468,0,0,0-.52,0l-.677.452V6.563h.469a.469.469,0,0,0,0-.937h-.075a1.85,1.85,0,0,0,.03-.842A3.712,3.712,0,0,0,10.313,3.12V2.344a.469.469,0,0,0-.937,0V3.12A3.711,3.711,0,0,0,8.014,4.783a1.848,1.848,0,0,0,.03.842H7.969a.469.469,0,0,0,0,.938h.469v9.375H6.563V14.063h.469a.469.469,0,0,0,0-.937H6.524a2.516,2.516,0,0,0,.116-1.367c-.177-.879-1.415-1.909-1.952-2.321v-.53a.469.469,0,0,0-.937,0v.53c-.537.412-1.775,1.442-1.952,2.321a2.516,2.516,0,0,0,.116,1.367H1.406a.469.469,0,0,0,0,.938h.469v1.875H.469A.468.468,0,0,0,0,16.406V29.531A.468.468,0,0,0,.469,30H29.531A.468.468,0,0,0,30,29.531V16.406a.468.468,0,0,0-.469-.469ZM11.54,22.5l.469-.937h5.983l.469.938Zm6.273.938v5.625H12.188V23.438Zm.938,0h.469a.468.468,0,0,0,.419-.678L18.7,20.884a.469.469,0,0,0-.419-.259H11.719a.469.469,0,0,0-.419.259l-.938,1.875a.469.469,0,0,0,.419.678h.469v5.625H9.375V18.75h11.25V29.063H18.75ZM.938,19.688h7.5v.938H.938Zm17.813-7.5v.938h-7.5v-.937Zm1.875-5.625v11.25h-.937V6.563Zm-3.75,11.25v-.9a.467.467,0,0,1,.209-.39l.729-.486.729.486a.467.467,0,0,1,.209.39v.9Zm-2.812,0v-.9a.467.467,0,0,1,.209-.39L15,16.032l.729.486a.467.467,0,0,1,.209.39v.9Zm-2.812-3.75h7.5V15.53l-.677-.452a.468.468,0,0,0-.52,0l-.989.659a1.39,1.39,0,0,0-.158.136,1.39,1.39,0,0,0-.157-.136l-.989-.659a.468.468,0,0,0-.52,0l-.989.659a1.39,1.39,0,0,0-.158.136,1.39,1.39,0,0,0-.158-.136l-.989-.659a.468.468,0,0,0-.52,0l-.677.452Zm0,2.845a.467.467,0,0,1,.209-.39l.729-.486.729.486a.467.467,0,0,1,.209.39v.9H11.25Zm10.313,2.78h7.5v.938h-7.5Zm4.688-3.75V14.063h.938v1.875Zm-1.97-3.995A4.546,4.546,0,0,1,25.73,10.3a.133.133,0,0,0,.1,0,4.529,4.529,0,0,1,1.45,1.641,1.7,1.7,0,0,1-.226,1.182h-2.55A1.7,1.7,0,0,1,24.28,11.943Zm.1,2.12h.938v1.875h-.937Zm4.688,2.813V18.75h-7.5V16.875ZM20.156,3.945a3.014,3.014,0,0,1,.911,1.023,1.022,1.022,0,0,1-.1.657H19.35a1.022,1.022,0,0,1-.1-.657A3.014,3.014,0,0,1,20.156,3.945Zm-3.073,6.01.729-.486.729.486a.467.467,0,0,1,.209.39v.9H16.875v-.9a.467.467,0,0,1,.209-.39Zm.26-8.08H15.469V.938h1.875Zm-3.073,8.08L15,9.47l.729.486a.467.467,0,0,1,.209.39v.9H14.063v-.9a.467.467,0,0,1,.209-.39Zm-2.812,0,.729-.486.729.486a.467.467,0,0,1,.209.39v.9H11.25v-.9A.467.467,0,0,1,11.459,9.955ZM8.933,4.969a3.01,3.01,0,0,1,.911-1.024,3.014,3.014,0,0,1,.911,1.023,1,1,0,0,1-.109.657h-1.6A1,1,0,0,1,8.933,4.969Zm1.38,1.594v11.25H9.375V6.563ZM4.688,15.938V14.063h.938v1.875ZM2.717,11.943A4.543,4.543,0,0,1,4.167,10.3a.433.433,0,0,0,.052.01.437.437,0,0,0,.052-.01,4.534,4.534,0,0,1,1.45,1.641,1.706,1.706,0,0,1-.227,1.182H2.944a1.706,1.706,0,0,1-.227-1.182Zm.1,2.12H3.75v1.875H2.813Zm5.625,2.813V18.75H.938V16.875Zm-7.5,4.688h7.5v7.5H6.563V25.6a3.619,3.619,0,0,0-1.615-3.018.468.468,0,0,0-.52,0A3.619,3.619,0,0,0,2.812,25.6v3.466H.938Zm4.688,7.5H3.75V25.6a2.682,2.682,0,0,1,.938-2.041A2.682,2.682,0,0,1,5.625,25.6Zm20.625,0H24.375V25.6a2.681,2.681,0,0,1,.937-2.041A2.681,2.681,0,0,1,26.25,25.6Zm.938,0V25.6a3.617,3.617,0,0,0-1.615-3.018.468.468,0,0,0-.52,0A3.617,3.617,0,0,0,23.438,25.6v3.466H21.563v-7.5h7.5v7.5Z" fill="#fff"/>
</svg>
