<svg xmlns="http://www.w3.org/2000/svg" width="37.535" height="39.771" viewBox="0 0 37.535 39.771">
  <g id="jpg" transform="translate(-14.269 0.5)">
    <g id="Group_24000" data-name="Group 24000" transform="translate(14.769)">
      <g id="Group_23999" data-name="Group 23999">
        <path id="Path_24202" data-name="Path 24202" d="M51.1,10.492,41.218.229A.746.746,0,0,0,40.68,0H25.959a2.991,2.991,0,0,0-2.988,2.987V13.421H17a2.238,2.238,0,0,0-2.235,2.235V26.844A2.238,2.238,0,0,0,17,29.079h5.966V35.79a2.988,2.988,0,0,0,2.988,2.982H48.316a2.987,2.987,0,0,0,2.988-2.98V11.009A.746.746,0,0,0,51.1,10.492ZM40.865,2.013l8.109,8.426H40.865ZM17,27.587a.745.745,0,0,1-.744-.744V15.656A.745.745,0,0,1,17,14.912H37.139a.745.745,0,0,1,.744.744V26.844a.745.745,0,0,1-.744.744Zm32.808,8.2a1.494,1.494,0,0,1-1.5,1.489H25.959a1.5,1.5,0,0,1-1.5-1.49V29.079H37.139a2.238,2.238,0,0,0,2.235-2.235V15.656a2.238,2.238,0,0,0-2.235-2.235H24.462V2.987a1.5,1.5,0,0,1,1.5-1.5H39.374v9.693a.746.746,0,0,0,.746.746h9.693Z" transform="translate(-14.769 0)" fill="#0070e0" stroke="#0070e0" stroke-width="1"/>
      </g>
    </g>
    <g id="Group_24002" data-name="Group 24002" transform="translate(29.123 18.091)">
      <g id="Group_24001" data-name="Group 24001">
        <path id="Path_24203" data-name="Path 24203" d="M207.53,241.983v1.079h1.481v.813a2.8,2.8,0,0,1-.7.387,2.229,2.229,0,0,1-.815.159,1.692,1.692,0,0,1-1.328-.57,2.508,2.508,0,0,1-.507-1.71,2.264,2.264,0,0,1,.5-1.595,1.752,1.752,0,0,1,1.348-.537,1.539,1.539,0,0,1,.933.273,1.358,1.358,0,0,1,.509.745l1.284-.24a2.258,2.258,0,0,0-.863-1.383,3.059,3.059,0,0,0-1.863-.5,3.311,3.311,0,0,0-1.533.319,2.824,2.824,0,0,0-1.228,1.193,3.686,3.686,0,0,0-.419,1.778,3.9,3.9,0,0,0,.376,1.706,2.681,2.681,0,0,0,1.123,1.206,3.505,3.505,0,0,0,1.752.422,4.284,4.284,0,0,0,1.562-.3,3.511,3.511,0,0,0,1.178-.692v-2.551H207.53Z" transform="translate(-204.328 -238.903)" fill="#0070e0" stroke="#0070e0" stroke-width="0.5"/>
      </g>
    </g>
    <g id="Group_24004" data-name="Group 24004" transform="translate(23.378 18.2)">
      <g id="Group_24003" data-name="Group 24003">
        <path id="Path_24204" data-name="Path 24204" d="M133,241.07a1.68,1.68,0,0,0-.922-.627,7.526,7.526,0,0,0-1.538-.1h-2.075v6.4h1.293v-2.416h.843a7.386,7.386,0,0,0,1.341-.092,1.878,1.878,0,0,0,.671-.3,1.755,1.755,0,0,0,.544-.631,2.089,2.089,0,0,0,.214-.992A1.988,1.988,0,0,0,133,241.07Zm-1.107,1.763a.849.849,0,0,1-.4.314,3.349,3.349,0,0,1-1.022.1h-.708V241.43h.625a6.227,6.227,0,0,1,.931.044.9.9,0,0,1,.52.284.827.827,0,0,1,.205.577A.861.861,0,0,1,131.888,242.833Z" transform="translate(-128.461 -240.347)" fill="#0070e0" stroke="#0070e0" stroke-width="0.5"/>
      </g>
    </g>
    <g id="Group_24006" data-name="Group 24006" transform="translate(17.904 18.2)">
      <g id="Group_24005" data-name="Group 24005">
        <path id="Path_24205" data-name="Path 24205" d="M58.982,240.347v4.137a1.944,1.944,0,0,1-.179,1.024.705.705,0,0,1-.612.247.7.7,0,0,1-.638-.345,1.706,1.706,0,0,1-.162-.778l-1.219.14a2.174,2.174,0,0,0,.516,1.557,1.931,1.931,0,0,0,1.459.531,2.262,2.262,0,0,0,1.3-.339,1.733,1.733,0,0,0,.682-.9,4.136,4.136,0,0,0,.14-1.223v-4.054Z" transform="translate(-56.173 -240.347)" fill="#0070e0" stroke="#0070e0" stroke-width="0.5"/>
      </g>
    </g>
  </g>
</svg>
