<svg xmlns="http://www.w3.org/2000/svg" width="97" height="24" viewBox="0 0 97 24"><defs><style>.a{fill:#1c3664;}.b{fill:#ed2024;}.c{fill:#003974;}.d{fill:#ed1c24;}.e{fill:#fff;}</style></defs><g transform="translate(-51 -0.44)"><g transform="translate(51 0.44)"><path class="a" d="M81.55,16.91h.51v2.27l2.28-2.27h.65L82.53,19.3l2.67,2.68h-.69l-2.45-2.53v2.53h-.51Z" transform="translate(-51.039 -0.56)"/><path class="a" d="M87.32,21.68c.8,0,1.23-.69,1.23-1.55s-.43-1.55-1.23-1.55-1.23.69-1.23,1.55.43,1.55,1.23,1.55m0-3.49a1.73,1.73,0,0,1,1.73,1.94,1.74,1.74,0,1,1-3.46,0,1.73,1.73,0,0,1,1.73-1.94" transform="translate(-51.044 -0.56)"/><path class="a" d="M91.51,18.67h-.84v2.4c0,.33.12.61.49.61a1,1,0,0,0,.42-.09v.38a1.76,1.76,0,0,1-.56.1c-.81,0-.84-.56-.84-1.24V18.67h-.73v-.39h.73v-.9l.46-.16v1.06h.84Z" transform="translate(-51.049 -0.56)"/><path class="a" d="M94.42,20.11h-.14c-.79,0-1.73.08-1.73.9,0,.48.35.67.77.67,1.07,0,1.1-.94,1.1-1.34Zm0,1.28h0a1.29,1.29,0,0,1-1.17.68,1.079,1.079,0,0,1-1.22-1.05c0-1.24,1.32-1.3,2.28-1.3h.09v-.19c0-.63-.23-1-.85-1a2,2,0,0,0-1.09.31v-.45a3.15,3.15,0,0,1,1.09-.25c.92,0,1.3.41,1.3,1.38V21.2a4.78,4.78,0,0,0,0,.78H94.4Z" transform="translate(-51.052 -0.56)"/><path class="a" d="M95.96,16.54h.46V19.8l1.66-1.52h.58l-1.8,1.64,2.02,2.06h-.63l-1.83-1.9v1.9h-.46Z" transform="translate(-51.057 -0.56)"/><path class="a" d="M101.66,16.91h.78l1.85,4.46,1.86-4.46h.72v5.07h-.5V17.41h-.02l-1.84,4.57h-.43l-1.9-4.57h-.02v4.57h-.5Z" transform="translate(-51.066 -0.56)"/><path class="a" d="M110.15,20.11H110c-.79,0-1.73.08-1.73.9,0,.48.35.67.77.67,1.07,0,1.09-.94,1.09-1.34Zm0,1.28h0a1.3,1.3,0,0,1-1.17.68c-1.06,0-1.22-.71-1.22-1.05,0-1.24,1.32-1.3,2.28-1.3h.08v-.19c0-.63-.22-1-.84-1a2,2,0,0,0-1.09.31v-.45a3,3,0,0,1,1.09-.25c.92,0,1.3.41,1.3,1.38V21.2a4.78,4.78,0,0,0,0,.78h-.45Z" transform="translate(-51.072 -0.56)"/><path class="a" d="M111.7,16.54h.46V18.9h0a1.27,1.27,0,0,1,1.16-.71c1,0,1.26.66,1.26,1.58V22h-.46V19.77c0-.64-.12-1.19-.88-1.19s-1.09.77-1.09,1.42v2h-.46Z" transform="translate(-51.077 -0.56)"/><path class="a" d="M115.74,18.28h.45V22h-.45Zm.45-1h-.45v-.61h.45Z" transform="translate(-51.08 -0.56)"/><path class="a" d="M117.35,19.15a8.624,8.624,0,0,0,0-.87h.44v.66h0a1.17,1.17,0,0,1,1.2-.75c.91,0,1.26.61,1.26,1.42V22h-.46V19.73c0-.7-.24-1.15-.88-1.15-.83,0-1.09.74-1.09,1.35V22h-.46Z" transform="translate(-51.084 -0.56)"/><path class="a" d="M122.77,21.68c.81,0,1.09-.88,1.09-1.55s-.28-1.55-1.09-1.55-1.1.83-1.1,1.55.23,1.55,1.1,1.55m1.55.3h-.46v-.59h0a1.19,1.19,0,0,1-1.15.68c-1,0-1.53-.84-1.53-1.94s.44-1.94,1.53-1.94a1.26,1.26,0,0,1,1.15.71h0V16.54h.46Z" transform="translate(-51.09 -0.56)"/><path class="a" d="M125.43,19.11a6.47,6.47,0,0,0,0-.83h.45V19h0a1.11,1.11,0,0,1,.95-.8,1.47,1.47,0,0,1,.32,0v.48a1.19,1.19,0,0,0-.33,0c-.73,0-.93.81-.93,1.48V22h-.45Z" transform="translate(-51.094 -0.56)"/><path class="a" d="M129.93,20.11h-.13c-.79,0-1.74.08-1.74.9,0,.48.35.67.77.67,1.08,0,1.1-.94,1.1-1.34Zm0,1.28h0a1.32,1.32,0,0,1-1.18.68,1.079,1.079,0,0,1-1.22-1.05c0-1.24,1.32-1.3,2.28-1.3h.09v-.19c0-.63-.23-1-.84-1a1.94,1.94,0,0,0-1.09.31v-.45a3,3,0,0,1,1.09-.25c.91,0,1.3.41,1.3,1.38V21.2a6.362,6.362,0,0,0,0,.78H130Z" transform="translate(-51.097 -0.56)"/><path class="a" d="M134,19.13h.56c.53,0,1.23-.14,1.23-.95s-.67-.83-1.1-.83H134Zm0,2.41h.53c.67,0,1.43-.18,1.43-1s-.77-1-1.51-1H134Zm-.5-4.63h1.21c.82,0,1.6.28,1.6,1.25a1.05,1.05,0,0,1-.92,1.16h0a1.19,1.19,0,0,1,1.07,1.21c0,1.1-.9,1.44-2,1.44h-1Z" transform="translate(-51.12 -0.56)"/><path class="a" d="M139.62,20.11h-.14c-.79,0-1.73.08-1.73.9,0,.48.35.67.77.67,1.07,0,1.1-.94,1.1-1.34Zm0,1.28h0a1.29,1.29,0,0,1-1.17.68c-1.05,0-1.22-.71-1.22-1.05,0-1.24,1.32-1.3,2.28-1.3h.09v-.19c0-.63-.23-1-.85-1a2,2,0,0,0-1.09.31v-.45a3.15,3.15,0,0,1,1.09-.25c.92,0,1.3.41,1.3,1.38V21.2a4.782,4.782,0,0,0,0,.78h-.45Z" transform="translate(-51.12 -0.56)"/><path class="a" d="M141.16,19.15a8.631,8.631,0,0,0,0-.87h.45v.66h0a1.17,1.17,0,0,1,1.2-.75c.91,0,1.26.61,1.26,1.42V22h-.45V19.73c0-.7-.25-1.15-.88-1.15-.84,0-1.1.74-1.1,1.35V22h-.46Z" transform="translate(-51.12 -0.56)"/><path class="a" d="M145.2,16.54h.46V19.8l1.65-1.52h.59l-1.81,1.64,2.03,2.06h-.63l-1.83-1.9v1.9h-.46Z" transform="translate(-51.12 -0.56)"/><path class="b" d="M94,12.64c-1.32,0-1.86-1.1-1.86-2.32S92.68,8,94,8s1.86,1.1,1.86,2.34-.54,2.32-1.86,2.32m0,2c2.74,0,4.82-1.59,4.82-4.33S96.74,6,94,6s-4.82,1.59-4.82,4.34,2.08,4.33,4.82,4.33" transform="translate(-51.052 -0.483)"/><path class="b" d="M98.56,8.17h1.63v3.37c0,2,.63,3.11,3.19,3.11a14.32,14.32,0,0,0,1.79-.16l-.09-1.86a6.61,6.61,0,0,1-.88.11c-.9,0-1.14-.51-1.14-1.51V8.17h2v-2h-2V3.3l-2.82,1V6.17H98.56Z" transform="translate(-51.063 -0.44)"/><path class="b" d="M115.08,14.46h2.87V10.35h.03l2.29,4.11h3.47l-3.12-4.49,2.88-3.8h-3.14l-2.38,3.48h-.03V3.31l-2.87.99Z" transform="translate(-51.087 -0.44)"/><path class="b" d="M81.55,14.46h2.87V10.35h.03l2.29,4.11h3.47L87.09,9.97l2.88-3.8H86.84L84.45,9.65h-.03V3.31l-2.87.95Z" transform="translate(-51.041 -0.44)"/><path class="b" d="M108.22,11.84c0-.81.78-1.11,1.76-1.11h1.22a1.89,1.89,0,0,1-1.79,2c-.67,0-1.19-.34-1.19-.92m5.85,2.66a10.28,10.28,0,0,1-.16-2V9.39c0-2.56-1.86-3.48-4-3.48a8.65,8.65,0,0,0-3.35.6v2a5.48,5.48,0,0,1,2.68-.62c1,0,1.89.3,1.91,1.44a9,9,0,0,0-1.35-.11c-1.55,0-4.33.31-4.33,2.87,0,1.82,1.48,2.64,3.14,2.64a2.88,2.88,0,0,0,2.65-1.51h0a9.944,9.944,0,0,0,.06,1.32Z" transform="translate(-51.074 -0.483)"/><path class="c" d="M51,12.44c0-6.627,6.28-12,14-12s14,5.373,14,12-6.23,12-14,12-14-5.373-14-12" transform="translate(-51 -0.44)"/><path class="d" d="M63.32,4.333,66.58,3.27l.01,17.5L63.31,21.86Z" transform="translate(-51 -0.44)"/><path class="e" d="M65.25,15.233c-1.41,1.694-2.78,3.417-5.34,3.417-3.62,0-5.34-3.467-5.34-6.359S55.91,6.21,59.44,6.21a5.549,5.549,0,0,1,3.88,1.9v2.367a8.058,8.058,0,0,0-3.45-.99c-2.24,0-4.21.931-4.18,3.11a2.872,2.872,0,0,0,3,2.536c2.3,0,3.69-2.08,4.85-3.655.32-.416,1.24-1.624,1.38-1.822C66.21,7.874,67.7,6.25,70.26,6.25c3,0,4.72,2.407,5.2,4.883H74.13a3.271,3.271,0,0,0-2.65-1.288c-2.37,0-3.79,2.159-5,3.744,0,0-.92,1.248-1.26,1.644m10.32-1.565c-.31,2.5-1.72,5.022-4.81,5.022a5.153,5.153,0,0,1-4.18-2.714V14.253a8.827,8.827,0,0,0,3.74,1.258,4.144,4.144,0,0,0,3.88-1.842Z" transform="translate(-51 -0.44)"/></g></g></svg>