<svg xmlns="http://www.w3.org/2000/svg" width="24.743" height="25.198" viewBox="0 0 24.743 25.198"><defs><style>.a{fill:#a4afc1;}.b{fill:#f3f3f1;}.c{fill:#2fdf84;}.d{fill:#fff;}.e{fill:#d5dbe1;}.f{fill:#ee1d24;}.g{fill:#103566;}</style></defs><g transform="translate(-4.482 -2)"><path class="a" d="M31.3,4.59a1.3,1.3,0,1,1,1.3-1.3A1.3,1.3,0,0,1,31.3,4.59Zm0-1.727a.432.432,0,1,0,.432.432A.433.433,0,0,0,31.3,2.863Z" transform="translate(-3.365)"/><path class="b" d="M25.681,23.551a16.353,16.353,0,0,0-3.982.925V24.1a1.77,1.77,0,0,0-1.5-1.692l-9.023-1.7L9.8,25.4c1.8.777,6.39,2.685,8.62,2.685,2.811,0,9.6-3.454,9.6-3.454s-.468-1.079-2.342-1.079Z" transform="translate(-2.037 -1.533)"/><g transform="translate(5.13 7.123)"><circle class="c" cx="1.079" cy="1.079" r="1.079" transform="translate(13.089)"/><circle class="c" cx="1.079" cy="1.079" r="1.079" transform="translate(18.699 5.181)"/><path class="d" d="M6.75,18.75v7.339H9.125l1.727-6.378A7.1,7.1,0,0,0,6.75,18.75Z" transform="translate(-6.75 -8.389)"/></g><path class="e" d="M11.743,25.4l1.167-4.312-1.841-.376L9.8,25.4c1.658.777,5.889,2.685,7.944,2.685a4.92,4.92,0,0,0,.931-.113A35.71,35.71,0,0,1,11.743,25.4Z" transform="translate(-2.037 -1.533)"/><path class="d" d="M22.693,7.829a1.056,1.056,0,0,1,.108-.454,1.079,1.079,0,1,0,0,.908A1.056,1.056,0,0,1,22.693,7.829Z" transform="translate(-2.676 -0.458)"/><path class="d" d="M28.693,13.829a1.056,1.056,0,0,1,.108-.454,1.079,1.079,0,1,0,0,.908A1.056,1.056,0,0,1,28.693,13.829Z" transform="translate(-2.922 -1.037)"/><path class="e" d="M6.75,18.75v7.339H8.693V18.923A10.5,10.5,0,0,0,6.75,18.75Z" transform="translate(-1.62 -1.265)"/><path class="f" d="M21.727,9.454a1.727,1.727,0,1,1,1.727-1.727A1.729,1.729,0,0,1,21.727,9.454Zm0-2.159a.432.432,0,1,0,.432.432A.433.433,0,0,0,21.727,7.3Z" transform="translate(-2.559 -0.546)"/><path class="f" d="M27.727,15.454a1.727,1.727,0,1,1,1.727-1.727A1.729,1.729,0,0,1,27.727,15.454Zm0-2.159a.432.432,0,1,0,.432.432A.433.433,0,0,0,27.727,13.3Z" transform="translate(-2.819 -0.94)"/><path class="f" d="M0,0H9.239V1.3H0Z" transform="matrix(0.608, -0.794, 0.794, 0.608, 18.69, 13.283)"/><path class="g" d="M9.022,26.635H6.648A.648.648,0,0,1,6,25.987V18.648A.648.648,0,0,1,6.648,18a7.691,7.691,0,0,1,4.494,1.1.647.647,0,0,1,.232.684L9.647,26.157A.647.647,0,0,1,9.022,26.635ZM7.3,25.339H8.526l1.466-5.415a7.336,7.336,0,0,0-2.7-.61Z" transform="translate(-1.518 -1.163)"/><path class="g" d="M18.363,29.078c-2.11,0-5.994-1.494-8.882-2.748l.594-1.172c3.844,1.668,6.865,2.624,8.288,2.624,1.892,0,6.189-1.891,8.44-2.982a2.551,2.551,0,0,0-1.208-.256,10.553,10.553,0,0,0-2.812.615,11.561,11.561,0,0,1-3.254.68,17.947,17.947,0,0,1-4.671-.9l.478-1.217a16.683,16.683,0,0,0,4.193.825,10.553,10.553,0,0,0,2.812-.615,11.561,11.561,0,0,1,3.254-.68c2.313,0,2.956,1.426,2.982,1.487a.625.625,0,0,1-.312.807C27.984,25.688,21.309,29.078,18.363,29.078Z" transform="translate(-1.993 -1.88)"/><path class="g" d="M21.594,24.392H20.3V24a1.086,1.086,0,0,0-.863-1.059l-8.316-1.7.26-1.268,8.316,1.7A2.383,2.383,0,0,1,21.594,24Z" transform="translate(-1.725 -1.652)"/></g></svg>