<svg xmlns="http://www.w3.org/2000/svg" width="25.548" height="25.727" viewBox="0 0 25.548 25.727"><defs><style>.a{fill:#f3f3f1;}.b{fill:#d5dbe1;}.c{fill:#a4afc1;}.d{fill:#fff;}.e{fill:#ee1d24;}.f{fill:#103566;}</style></defs><g transform="translate(-3.589 -5.812)"><circle class="a" cx="4.097" cy="4.097" r="4.097" transform="translate(10.492 6.716)"/><path class="b" d="M12.919,10.847a4.085,4.085,0,0,1,3.013-3.933,4.037,4.037,0,0,0-1.085-.164,4.1,4.1,0,1,0,0,8.194,4.037,4.037,0,0,0,1.085-.164A4.085,4.085,0,0,1,12.919,10.847Z" transform="translate(-0.258 -0.034)"/><path class="a" d="M19.523,18.75H10.606A3.855,3.855,0,0,0,6.75,22.606V25.98H23.379V22.606A3.855,3.855,0,0,0,19.523,18.75Z" transform="translate(-0.114 -0.466)"/><path class="b" d="M12.775,18.75H10.606A3.855,3.855,0,0,0,6.75,22.606V25.98H8.919V22.606A3.855,3.855,0,0,1,12.775,18.75Z" transform="translate(-0.114 -0.466)"/><g transform="translate(3.589 5.812)"><path class="c" d="M0,0H1.928V.964H0Z" transform="translate(23.503 1.542) rotate(-45)"/><path class="c" d="M0,0H1.928V.964H0Z" transform="translate(19.583 5.46) rotate(-45)"/><path class="c" d="M0,0H.964V1.928H0Z" transform="translate(19.579 0.682) rotate(-45)"/><path class="c" d="M0,0H.964V1.928H0Z" transform="translate(23.503 4.609) rotate(-45)"/><path class="c" d="M5.035,32.392a1.446,1.446,0,1,1,1.446-1.446A1.448,1.448,0,0,1,5.035,32.392Zm0-1.928a.482.482,0,1,0,.482.482A.483.483,0,0,0,5.035,30.464Z" transform="translate(-3.589 -6.665)"/></g><circle class="d" cx="5.543" cy="5.543" r="5.543" transform="translate(17.24 17.32)"/><path class="d" d="M19.919,23.293a5.543,5.543,0,0,1,4.459-5.435,5.543,5.543,0,1,0-1.085,10.978,5.51,5.51,0,0,0,1.085-.108A5.543,5.543,0,0,1,19.919,23.293Z" transform="translate(-0.51 -0.43)"/><path class="e" d="M23.266,29.532a6.266,6.266,0,1,1,6.266-6.266A6.273,6.273,0,0,1,23.266,29.532Zm0-11.086a4.82,4.82,0,1,0,4.82,4.82A4.826,4.826,0,0,0,23.266,18.446Z" transform="translate(-0.483 -0.403)"/><path class="e" d="M24.649,25.6l-1.687-1.687a.722.722,0,0,1-.212-.511V20.751H24.2V23.1l1.475,1.475Z" transform="translate(-0.69 -0.538)"/><path class="f" d="M14.82,15.64a4.82,4.82,0,1,1,4.82-4.82A4.826,4.826,0,0,1,14.82,15.64Zm0-8.194a3.374,3.374,0,1,0,3.374,3.374A3.378,3.378,0,0,0,14.82,7.446Z" transform="translate(-0.231 -0.007)"/><path class="f" d="M15.12,26.676h-8.4A.723.723,0,0,1,6,25.953V22.579A4.584,4.584,0,0,1,10.579,18h5.495v1.446H10.579a3.137,3.137,0,0,0-3.133,3.133V25.23H15.12Z" transform="translate(-0.087 -0.439)"/></g></svg>