<svg xmlns="http://www.w3.org/2000/svg" width="327.126" height="207.93" viewBox="0 0 327.126 207.93"><defs><style>.a{fill:#ebebeb;}.b{fill:#f5f5f5;}.c{fill:#fafafa;}.d{fill:#f0f0f0;}.e,.g,.h,.i,.j,.v{fill:#fff;}.f{fill:#407bff;}.g{opacity:0.5;}.h{opacity:0.4;}.i,.k,.w{opacity:0.3;}.j{opacity:0.6;}.l,.q{opacity:0.2;}.m{fill:#ed2024;}.n{fill:#ed9294;}.o{fill:#263238;}.p{fill:#fab27b;}.r{fill:#363636;}.s{opacity:0.1;}.t{fill:#faddb6;}.u{fill:#e62452;}.v{opacity:0.7;}.x{fill:#e5c190;}</style></defs><g transform="translate(0 -311.421)"><g transform="translate(0 203.138)"><g transform="translate(0 108.283)"><rect class="a" width="21.669" height="0.164" transform="translate(272.679 182.198)"/><rect class="a" width="5.686" height="0.164" transform="translate(211.016 183.977)"/><rect class="a" width="12.555" height="0.164" transform="translate(259.469 176.126)"/><rect class="a" width="28.257" height="0.164" transform="translate(34.322 177.225)"/><rect class="a" width="4.141" height="0.164" transform="translate(68.409 177.225)"/><rect class="a" width="61.29" height="0.164" transform="translate(86.015 179.986)"/><rect class="a" width="327.126" height="0.164" transform="translate(0 171.671)"/><rect class="b" width="27.969" height="34.427" transform="translate(145.643 49.43) rotate(180)"/><rect class="a" width="19.981" height="24.593" transform="translate(141.645 44.511) rotate(180)"/><rect class="b" width="27.956" height="19.856" transform="translate(114.403 49.666) rotate(180)"/><rect class="c" width="23.697" height="15.735" transform="translate(112.276 47.598) rotate(180)"/><rect class="b" width="24.194" height="17.187" transform="translate(95.259 52.185)"/><rect class="c" width="15.401" height="10.226" transform="translate(99.656 55.666)"/><rect class="b" width="2.617" height="150.497" transform="translate(47.872 21.324)"/><path class="b" d="M54.329,123.434a3.107,3.107,0,0,0-6.137-.936q-3.226,16.9-6.451,33.789c-.307,1.609,1.437,3.273,3.926,3.684s4.626-.733,4.816-2.362Q52.366,140.515,54.329,123.434Z" transform="translate(-14.42 -120.007)"/><path class="c" d="M65.108,124.348a3.107,3.107,0,0,0-6.183-.465q-1.963,17.089-3.873,34.178c-.19,1.629,1.668,3.193,4.151,3.376s4.585-1.073,4.585-2.718Z" transform="translate(-19.03 -120.428)"/><path class="b" d="M75.934,124.436a3.1,3.1,0,0,0-6.2,0L68.43,158.81c-.059,1.642,1.9,3.056,4.4,3.056s4.449-1.413,4.39-3.056Z" transform="translate(-23.659 -120.515)"/><path class="c" d="M86.083,123.834a3.107,3.107,0,0,0-6.183.465l1.308,34.375c.059,1.642,2.126,2.9,4.613,2.714s4.337-1.746,4.151-3.376Q88.019,140.93,86.083,123.834Z" transform="translate(-27.626 -120.41)"/><path class="b" d="M95.486,122.511a3.113,3.113,0,0,0-6.146.935q1.963,17.089,3.88,34.178c.183,1.629,2.342,2.735,4.808,2.362s4.207-2.075,3.926-3.684Q98.7,139.4,95.486,122.511Z" transform="translate(-30.885 -120.023)"/><path class="a" d="M84.229,380.719a3.729,3.729,0,0,0-3.788-4.089H49.58a3.713,3.713,0,0,0-3.782,4.089Z" transform="translate(-15.834 -208.734)"/><path class="d" d="M403.215,319.208c-.36-.655.19-1.465-.17-2.094s-1.308-.55-1.727-1.2c-.55-.884.248-1.7-.262-2.577-.307-.53-1.165-.239-1.544-.759s.216-1.308-.2-1.836-1.046-.3-1.5-.844c-.608-.746.085-2.4.085-2.4s1.766-.438,2.415.354c.471.583.1,1.165.53,1.715s1.308.16,1.756.772-.151,1.277.248,1.773c.655.825,1.734.432,2.336,1.394.438.713-.072,1.537.307,2.2s1.357.655,1.746,1.374-.059,1.367.239,1.963,1.106.726,1.406,1.4-.229,1.465.053,2.146,1.191.811,1.472,1.564-.405,1.531-.183,2.3c.176.615.975.792,1.171,1.459a2.146,2.146,0,0,1-1.357,2.767,2.185,2.185,0,0,1-2.545-1.616c-.19-.622.373-1.2.16-1.766-.268-.713-1.25-.8-1.531-1.557s.334-1.38.072-2.028-1.171-.718-1.472-1.394.16-1.308-.125-1.871S403.536,319.8,403.215,319.208Z" transform="translate(-137.459 -184.787)"/><path class="e" d="M407.944,325.973c.412.16.818.334,1.224.51q-.655-1.885-1.453-3.709h0q-.718-1.642-1.531-3.232c-.485-.131-.958-.262-1.446-.379-.117,0-.065-.209.053-.176.425.1.851.209,1.308.327-.524-1.014-1.073-2.008-1.662-2.984h0q-.988-1.655-2.1-3.273h0c-.327-.471-.655-.935-1.007-1.4q-.884-1.185-1.836-2.323c-.08-.1.065-.223.144-.125.958,1.158,1.871,2.355,2.735,3.579.1-.432.183-.87.268-1.308a.1.1,0,0,1,.19.039c-.1.5-.2.995-.307,1.485.694,1,1.357,2.022,1.963,3.068.125-.425.239-.857.36-1.308a.094.094,0,1,1,.183.046c-.131.491-.268.975-.405,1.459.608,1.027,1.191,2.075,1.734,3.14h0c.524,1.021,1.014,2.048,1.472,3.095.176-.405.354-.811.517-1.224a.1.1,0,0,1,.183.072c-.2.471-.393.936-.6,1.394.55,1.269,1.046,2.565,1.5,3.873l.118.334c.314.936.608,1.877.878,2.833a.092.092,0,0,1-.176.053c-.3-1.054-.622-2.094-.981-3.127-.458-.2-.923-.393-1.38-.576a.086.086,0,1,1,.047-.163Z" transform="translate(-138.117 -185.412)"/><path class="b" d="M405.921,299.823c-.393-1.23.739-2.362.327-3.507s-2.015-1.277-2.5-2.474c-.655-1.623.9-2.741.319-4.331-.354-.958-1.852-.726-2.329-1.7s.733-2.094.216-3.088-1.649-.8-2.235-1.836c-.785-1.406.837-3.926.837-3.926s3.033-.209,3.873,1.308c.615,1.093-.16,1.963.379,2.97s2.126.655,2.676,1.786-.615,2.067-.1,3c.837,1.544,2.735,1.217,3.441,2.977.53,1.308-.559,2.512-.118,3.716s2.048,1.437,2.474,2.767c.386,1.171-.491,2.235-.176,3.324s1.623,1.525,1.924,2.722c.334,1.308-.8,2.349-.543,3.553s1.727,1.682,1.963,3.009c.262,1.437-1.105,2.4-.968,3.729.111,1.066,1.38,1.584,1.511,2.748a3.592,3.592,0,0,1-3.033,4.167,3.657,3.657,0,0,1-3.736-3.4c-.125-1.079.968-1.865.778-2.866-.239-1.25-1.825-1.688-2.067-3.009s.958-2.186.706-3.324-1.715-1.525-2.022-2.728c-.281-1.1.655-2.094.34-3.113S406.275,300.9,405.921,299.823Z" transform="translate(-138.13 -174.963)"/><path class="e" d="M411.993,312.139c.655.386,1.25.785,1.871,1.191q-.549-3.273-1.308-6.545a.09.09,0,0,1,0-.045c-.465-1.963-.995-3.867-1.576-5.777-.759-.36-1.525-.706-2.284-1.038-.183-.085-.045-.366.137-.288.655.294,1.347.6,2.015.916q-.857-2.728-1.871-5.4v-.045q-1.158-3.023-2.526-5.98v-.039q-.6-1.305-1.256-2.617-1.105-2.218-2.336-4.37a.16.16,0,1,1,.268-.16q1.877,3.273,3.467,6.693.419-1.027.825-2.08a.162.162,0,0,1,.3.118c-.307.792-.615,1.577-.942,2.356.864,1.858,1.656,3.736,2.395,5.639.327-.655.655-1.308.958-2.015a.162.162,0,1,1,.294.137c-.36.772-.726,1.531-1.105,2.284.713,1.871,1.367,3.768,1.963,5.679v.045q.811,2.735,1.466,5.555c.412-.615.818-1.243,1.217-1.871.111-.176.386,0,.275.17-.451.718-.916,1.426-1.387,2.126.536,2.251.988,4.534,1.357,6.824a.131.131,0,0,1,0,.045c.033.2.059.386.092.576.248,1.642.458,3.273.655,4.939a.16.16,0,0,1-.314,0q-.275-2.728-.706-5.437c-.7-.465-1.4-.916-2.114-1.357C411.647,312.3,411.823,312.04,411.993,312.139Z" transform="translate(-139.275 -175.961)"/><path class="d" d="M427.823,297.755c.176-1.308-1.138-2.192-.929-3.389s1.766-1.609,2.035-2.874c.36-1.714-1.357-2.545-1.06-4.214.183-1.007,1.695-1.038,2-2.081s-1.086-1.963-.746-3,1.485-1.073,1.877-2.185c.536-1.525-1.5-3.723-1.5-3.723s-3.023.314-3.592,1.93c-.412,1.185.5,1.891.144,3s-1.963,1.014-2.329,2.218.958,1.963.655,2.937c-.559,1.668-2.48,1.676-2.878,3.533-.288,1.367.988,2.375.766,3.637s-1.766,1.766-1.963,3.154c-.17,1.224.878,2.12.753,3.273s-1.308,1.779-1.426,3.009c-.1,1.308,1.2,2.172,1.152,3.4s-1.413,1.963-1.42,3.31c0,1.459,1.5,2.172,1.6,3.507.08,1.066-1.079,1.793-1.007,2.964a3.582,3.582,0,0,0,3.7,3.578,3.657,3.657,0,0,0,3.095-3.991c-.065-1.086-1.308-1.676-1.269-2.689,0-1.277,1.511-1.963,1.517-3.324,0-1.243-1.308-1.963-1.308-3.154s1.437-1.8,1.525-3.033c.085-1.132-.988-1.963-.878-3.009S427.666,298.881,427.823,297.755Z" transform="translate(-144.99 -174.041)"/><path class="e" d="M425.966,310.863c-.543.485-1.093.988-1.629,1.492,0-2.225.033-4.442.16-6.66a.112.112,0,0,0,0-.046q.177-2.993.559-5.967c.655-.484,1.367-.958,2.061-1.42.17-.111,0-.366-.184-.255-.615.405-1.224.825-1.825,1.25.248-1.891.55-3.775.909-5.639a.145.145,0,0,0,0-.053q.618-3.18,1.453-6.32a.157.157,0,0,0,0-.046c.248-.929.51-1.858.792-2.781q.706-2.375,1.551-4.709a.16.16,0,1,0-.295-.1q-1.277,3.553-2.264,7.2c-.393-.655-.785-1.263-1.165-1.9a.161.161,0,0,0-.275.17c.432.726.878,1.445,1.308,2.155-.524,1.963-.981,3.965-1.38,5.967-.438-.6-.87-1.2-1.308-1.819a.16.16,0,0,0-.262.184c.484.7.975,1.387,1.478,2.061q-.569,2.953-.949,5.934v.046c-.239,1.9-.419,3.795-.543,5.7-.51-.536-1.021-1.079-1.517-1.636a.164.164,0,0,0-.239.223c.569.655,1.152,1.243,1.734,1.852q-.206,3.464-.16,6.955a.072.072,0,0,0,0,.053v.583q.059,2.486.239,4.966a.16.16,0,0,0,.314,0q-.2-2.735-.24-5.476c.608-.582,1.224-1.152,1.845-1.7C426.339,310.954,426.117,310.725,425.966,310.863Z" transform="translate(-146.032 -175.143)"/><path class="b" d="M434.847,313.339c.569-.844-.045-1.963.524-2.722s1.806-.53,2.434-1.308c.851-1.086-.085-2.27.706-3.343.479-.655,1.557-.151,2.133-.785s-.1-1.747.51-2.388,1.426-.239,2.087-.9c.909-.9.229-3.16.229-3.16s-2.251-.818-3.213.125c-.706.694-.307,1.511-.942,2.172s-1.756,0-2.415.765,0,1.7-.576,2.3c-.975.988-2.342.327-3.273,1.5-.655.864-.125,2.028-.718,2.839s-1.865.655-2.48,1.557c-.543.8-.118,1.806-.589,2.554s-1.564.8-2.055,1.636.1,1.963-.366,2.813-1.676.9-2.155,1.852.314,2.061-.08,3.033c-.319.778-1.394.9-1.746,1.746a2.826,2.826,0,0,0,1.387,3.821,2.878,2.878,0,0,0,3.572-1.756c.327-.792-.327-1.629.033-2.349.452-.9,1.756-.878,2.225-1.826s-.239-1.865.2-2.676,1.636-.778,2.126-1.623,0-1.721.425-2.434S434.349,314.078,434.847,313.339Z" transform="translate(-146.106 -181.689)"/><path class="e" d="M429.843,321.639c-.559.16-1.112.319-1.668.5q1.125-2.375,2.421-4.665v-.033q1.167-2.051,2.46-4.03.981-.16,1.963-.295c.16,0,.111-.262-.046-.239-.569.08-1.145.16-1.721.249.825-1.25,1.695-2.48,2.617-3.677v-.033q1.541-2.035,3.219-3.977c.5-.569,1.007-1.138,1.517-1.695.884-.958,1.8-1.891,2.735-2.8a.125.125,0,0,0-.176-.176q-2.126,2.08-4.089,4.31c-.065-.582-.118-1.165-.16-1.756a.131.131,0,0,0-.255,0c.053.655.118,1.308.19,1.963q-1.584,1.826-3.042,3.752c-.1-.576-.2-1.158-.288-1.74a.126.126,0,1,0-.248.045q.147.982.334,1.963-1.426,1.891-2.728,3.873v.033c-.825,1.256-1.616,2.545-2.362,3.854q-.262-.837-.51-1.688c-.046-.151-.295-.085-.248.072.19.655.386,1.308.589,1.91-.9,1.6-1.74,3.219-2.525,4.881a.053.053,0,0,0,0,.033l-.2.412c-.55,1.191-1.066,2.388-1.551,3.6a.125.125,0,1,0,.229.092q.8-2.015,1.721-3.965c.655-.2,1.263-.386,1.9-.559C430.074,321.841,430,321.6,429.843,321.639Z" transform="translate(-147.307 -182.491)"/><path class="d" d="M406.78,337h17.129a13.87,13.87,0,0,1,4.914,10.606c0,4.855-4.495,19.432-4.495,19.432H406.362s-4.5-14.577-4.5-19.432A13.851,13.851,0,0,1,406.78,337Z" transform="translate(-138.943 -195.032)"/></g><g transform="translate(33.557 292.169)"><ellipse class="b" cx="126.853" cy="7.406" rx="126.853" ry="7.406" transform="translate(0 0)"/></g><g transform="translate(40.498 203.799)"><path class="f" d="M90.88,266h40.747a3.273,3.273,0,0,1,3.147,2.846l6.489,61.767a2.512,2.512,0,0,1-2.545,2.853H97.972Z" transform="translate(-71.919 -266)"/><path class="g" d="M90.88,266h40.747a3.273,3.273,0,0,1,3.147,2.846l6.489,61.767a2.512,2.512,0,0,1-2.545,2.853H97.972Z" transform="translate(-71.919 -266)"/><path class="f" d="M207.661,327.86c-.2-1.963-5.7-54.251-5.888-56.214a6.4,6.4,0,0,0-6.216-5.627H160.51a2.519,2.519,0,0,0-2.554,2.846l6.49,61.767a3.273,3.273,0,0,0,3.154,2.853H202.63a4.966,4.966,0,0,0,5.029-5.627Z" transform="translate(-95.104 -266.006)"/><path class="g" d="M207.661,327.86c-.2-1.963-5.7-54.251-5.888-56.214a6.4,6.4,0,0,0-6.216-5.627H160.51a2.519,2.519,0,0,0-2.554,2.846l6.49,61.767a3.273,3.273,0,0,0,3.154,2.853H202.63a4.966,4.966,0,0,0,5.029-5.627Z" transform="translate(-95.104 -266.006)"/><path class="f" d="M94.416,271.646a6.4,6.4,0,0,0-6.222-5.627,4.972,4.972,0,0,0-5.037,5.627c.255,2.421,5.653,53.786,5.888,56.214a6.4,6.4,0,0,0,6.222,5.627,4.972,4.972,0,0,0,5.037-5.627C100.115,325.89,94.619,273.609,94.416,271.646Z" transform="translate(-69.235 -266.006)"/><path class="h" d="M94.416,271.646a6.4,6.4,0,0,0-6.222-5.627,4.972,4.972,0,0,0-5.037,5.627c.255,2.421,5.653,53.786,5.888,56.214a6.4,6.4,0,0,0,6.222,5.627,4.972,4.972,0,0,0,5.037-5.627C100.115,325.89,94.619,273.609,94.416,271.646Z" transform="translate(-69.235 -266.006)"/><path class="f" d="M110.816,305.16H73.307a11.259,11.259,0,0,0,0,22.509v41.78a3.16,3.16,0,0,0,3.16,3.16H118.9a3.166,3.166,0,0,0,3.166-3.16V316.413a11.255,11.255,0,0,0-11.255-11.255Z" transform="translate(-62.054 -279.539)"/><path class="i" d="M110.816,305.16H73.307a11.259,11.259,0,0,0,0,22.509v41.78a3.16,3.16,0,0,0,3.16,3.16H118.9a3.166,3.166,0,0,0,3.166-3.16V316.413a11.255,11.255,0,0,0-11.255-11.255Z" transform="translate(-62.054 -279.539)"/><path class="f" d="M240.819,305.16h37.508a11.259,11.259,0,0,1,0,22.509v41.78a3.166,3.166,0,0,1-3.166,3.16H232.726a3.166,3.166,0,0,1-3.166-3.16V316.413a11.259,11.259,0,0,1,11.259-11.253Z" transform="translate(-119.868 -279.539)"/><path class="i" d="M240.819,305.16h37.508a11.259,11.259,0,0,1,0,22.509v41.78a3.166,3.166,0,0,1-3.166,3.16H232.726a3.166,3.166,0,0,1-3.166-3.16V316.413a11.259,11.259,0,0,1,11.259-11.253Z" transform="translate(-119.868 -279.539)"/><path class="f" d="M130.636,305.16a11.259,11.259,0,0,0,0,22.509v41.78a3.16,3.16,0,0,0,3.16,3.16h4.926a3.166,3.166,0,0,0,3.166-3.16V316.413a11.255,11.255,0,0,0-11.255-11.255Z" transform="translate(-81.876 -279.539)"/><path class="j" d="M130.636,305.16a11.259,11.259,0,0,0,0,22.509v41.78a3.16,3.16,0,0,0,3.16,3.16h4.926a3.166,3.166,0,0,0,3.166-3.16V316.413a11.255,11.255,0,0,0-11.255-11.255Z" transform="translate(-81.876 -279.539)"/><path class="f" d="M298.153,305.16a11.259,11.259,0,0,1,0,22.509v41.78a3.166,3.166,0,0,1-3.167,3.16H290.06a3.166,3.166,0,0,1-3.166-3.16V316.413a11.259,11.259,0,0,1,11.259-11.253Z" transform="translate(-139.691 -279.539)"/><path class="j" d="M298.153,305.16a11.259,11.259,0,0,1,0,22.509v41.78a3.166,3.166,0,0,1-3.167,3.16H290.06a3.166,3.166,0,0,1-3.166-3.16V316.413a11.259,11.259,0,0,1,11.259-11.253Z" transform="translate(-139.691 -279.539)"/><rect class="f" width="80.204" height="31.79" rx="6.97" transform="translate(60.015 61.284)"/><rect class="h" width="80.204" height="31.79" rx="6.97" transform="translate(60.015 61.284)"/><rect class="f" width="12.385" height="43.593" rx="6.12" transform="translate(103.607 55.094) rotate(90)"/><rect class="j" width="12.385" height="43.593" rx="6.12" transform="translate(103.607 55.094) rotate(90)"/><rect class="f" width="12.385" height="43.593" rx="6.12" transform="translate(147.2 55.094) rotate(90)"/><rect class="j" width="12.385" height="43.593" rx="6.12" transform="translate(147.2 55.094) rotate(90)"/><path class="f" d="M160.82,302.315c.085.831.176,1.668.262,2.506,0,.183.314.183.295,0-.092-.837-.176-1.676-.262-2.506C161.114,302.125,160.8,302.125,160.82,302.315Z" transform="translate(-96.101 -278.507)"/><path class="f" d="M158.6,281.264q.608,5.747,1.21,11.5c0,.183.314.19.295,0q-.608-5.747-1.21-11.5C158.894,281.075,158.58,281.075,158.6,281.264Z" transform="translate(-95.333 -271.228)"/><g class="k" transform="translate(64.718 23.666)"><path class="e" d="M160.82,302.315c.085.831.176,1.668.262,2.506,0,.183.314.183.295,0-.092-.837-.176-1.676-.262-2.506C161.114,302.125,160.8,302.125,160.82,302.315Z" transform="translate(-160.819 -302.172)"/></g><g class="k" transform="translate(63.265 9.894)"><path class="e" d="M158.6,281.264q.608,5.747,1.21,11.5c0,.183.314.19.295,0q-.608-5.747-1.21-11.5C158.894,281.075,158.58,281.075,158.6,281.264Z" transform="translate(-158.599 -281.122)"/></g><path class="f" d="M220.07,395.022v2.133a.125.125,0,1,0,.248,0v-2.133a.125.125,0,1,0-.248,0Z" transform="translate(-116.587 -310.565)"/><path class="f" d="M220.07,379.066V387.2a.125.125,0,1,0,.248,0v-8.132a.125.125,0,1,0-.248,0Z" transform="translate(-116.587 -305.047)"/><g class="l" transform="translate(103.483 84.323)"><path class="e" d="M220.07,395.022v2.133a.125.125,0,1,0,.248,0v-2.133a.125.125,0,1,0-.248,0Z" transform="translate(-220.069 -394.887)"/></g><g class="l" transform="translate(103.483 73.885)"><path class="e" d="M220.07,379.066V387.2a.125.125,0,1,0,.248,0v-8.132a.125.125,0,1,0-.248,0Z" transform="translate(-220.069 -378.931)"/></g><path class="f" d="M99.408,322.36H61.9a11.259,11.259,0,0,0,11.255,11.259h37.508A11.259,11.259,0,0,1,99.408,322.36Z" transform="translate(-61.9 -285.486)"/><g class="l" transform="translate(0 36.874)"><path class="e" d="M99.408,322.36H61.9a11.259,11.259,0,0,0,11.255,11.259h37.508A11.259,11.259,0,0,1,99.408,322.36Z" transform="translate(-61.9 -322.36)"/></g></g><g transform="translate(85.108 162.95)"><path class="f" d="M256.36,256.069l-4.337.144a.6.6,0,0,1-.655-.655l.687-9.7a.778.778,0,0,1,.726-.7l4.345-.144a.6.6,0,0,1,.655.655l-.694,9.7A.772.772,0,0,1,256.36,256.069Z" transform="translate(-172.017 -217.896)"/><path class="m" d="M257.58,256.029l-4.337.144a.6.6,0,0,1-.655-.655l.694-9.7a.772.772,0,0,1,.726-.7l4.337-.144a.6.6,0,0,1,.655.655l-.694,9.7A.765.765,0,0,1,257.58,256.029Z" transform="translate(-172.439 -217.882)"/><path class="f" d="M252.2,255.6l.694-9.7a.772.772,0,0,1,.726-.7H252.8a.778.778,0,0,0-.726.7l-.687,9.7a.6.6,0,0,0,.655.655h.811a.6.6,0,0,1-.655-.655Z" transform="translate(-172.025 -217.96)"/><path class="n" d="M252.2,255.6l.694-9.7a.772.772,0,0,1,.726-.7H252.8a.778.778,0,0,0-.726.7l-.687,9.7a.6.6,0,0,0,.655.655h.811a.6.6,0,0,1-.655-.655Z" transform="translate(-172.025 -217.96)"/><path class="o" d="M255.852,246.615a.655.655,0,0,1-.655.615.524.524,0,0,1-.55-.575.655.655,0,0,1,.655-.615.53.53,0,0,1,.55.576Z" transform="translate(-173.152 -218.25)"/><path class="p" d="M255.5,415.467l1.956,6.314,5.8-1.073-1.616-7.024Z" transform="translate(-173.447 -276.212)"/><path class="q" d="M257.028,420.321l5.915-1.437-.458-1.989-5.915,1.95Z" transform="translate(-173.817 -277.324)"/><path class="f" d="M269.449,423.334a.16.16,0,0,1-.16-.1.15.15,0,0,1,.039-.176c.085-.085,2.087-1.963,3.273-1.91a.864.864,0,0,1,.583.255.6.6,0,0,1,.17.654c-.19.419-1,.772-1.826.968a11.639,11.639,0,0,1-2.081.307Zm.458-.327c1.269-.137,2.937-.543,3.147-1.046.033-.065.046-.17-.118-.34a.444.444,0,0,0-.354-.144,1.03,1.03,0,0,0-.314.033,7.471,7.471,0,0,0-2.362,1.5Z" transform="translate(-178.211 -278.794)"/><path class="f" d="M269.33,422.7a.17.17,0,0,1-.1-.125,4.7,4.7,0,0,1,.425-2.806,1.217,1.217,0,0,1,.811-.479c.445-.059.655.131.687.307.319.713-.935,2.526-1.642,3.062a.124.124,0,0,1-.065,0,.159.159,0,0,1-.111.039Zm1.1-3.082a.831.831,0,0,0-.5.319,3.809,3.809,0,0,0-.4,2.244c.706-.655,1.485-2.055,1.308-2.493,0-.039-.065-.144-.354-.1l-.085.033Z" transform="translate(-178.177 -278.148)"/><path class="o" d="M264.107,423.279l-7.229,1.707a.6.6,0,0,0-.458.589l.08,6.2a1,1,0,0,0,1,.988,1.076,1.076,0,0,0,.209,0c2.617-.655,4.881-1.357,8.126-2.113,3.831-.9,2.97-.216,7.485-1.217,2.722-.6,2.493-3.807,1.308-3.684-5.417.582-6.339-.884-8.819-2.284A2.369,2.369,0,0,0,264.107,423.279Z" transform="translate(-173.766 -279.502)"/><path class="p" d="M298.44,400.856l3,5.882,5.528-2.047-2.794-6.641Z" transform="translate(-188.294 -270.807)"/><path class="q" d="M300.79,405.395l5.587-2.421-.792-1.885-5.5,2.931Z" transform="translate(-188.864 -271.858)"/><path class="f" d="M313.549,406.474a.16.16,0,0,1-.17-.072.151.151,0,0,1,0-.184c.072-.1,1.721-2.277,2.885-2.434a.85.85,0,0,1,.615.144.6.6,0,0,1,.288.655c-.111.445-.857.929-1.635,1.263a12.36,12.36,0,0,1-1.983.628Zm.393-.405c1.23-.354,2.8-1.038,2.918-1.57a.352.352,0,0,0-.17-.307.438.438,0,0,0-.379-.085.95.95,0,0,0-.294.085,7.478,7.478,0,0,0-2.075,1.877Z" transform="translate(-193.449 -272.787)"/><path class="f" d="M313.319,406.035a.183.183,0,0,1-.125-.1c0-.085-.576-1.845-.059-2.839a1.2,1.2,0,0,1,.713-.608c.432-.131.655,0,.733.184.432.655-.491,2.617-1.1,3.273a.072.072,0,0,1-.059.033A.151.151,0,0,1,313.319,406.035Zm.559-3.226a.818.818,0,0,0-.432.405,3.737,3.737,0,0,0,0,2.27c.576-.792,1.112-2.27.89-2.683,0-.033-.092-.131-.366-.039l-.08.045Z" transform="translate(-193.3 -272.322)"/><path class="o" d="M308.308,406.875l-6.83,2.918a.6.6,0,0,0-.354.655l1.138,6.085a1,1,0,0,0,1.155.8l.2-.059c2.447-1.1,4.58-2.166,7.648-3.474,3.618-1.544,2.886-.718,7.164-2.479,2.577-1.06,1.806-4.174.655-3.854-5.234,1.5-6.4.215-9.081-.739A2.374,2.374,0,0,0,308.308,406.875Z" transform="translate(-189.218 -273.777)"/><path class="r" d="M209.916,319.866s33.262-3,41.119,4.58,20.354,47.341,20.354,47.341l-8.832,3.926s-13.922-22.127-20.7-38.837c0,0-41.336,5.784-44.267-2.826L199,319.124Z" transform="translate(-153.425 -243.518)"/><path class="f" d="M294.35,401.386l1.335,2.114L305.9,398.63l-1.341-2.839Z" transform="translate(-186.879 -270.027)"/><path class="r" d="M294.35,401.386l1.335,2.114L305.9,398.63l-1.341-2.839Z" transform="translate(-186.879 -270.027)"/><path class="r" d="M177.652,319.166s-2.155,17.782,5.5,20.282,30.482-.2,30.482-.2.046,18.439,13.85,45.657l8.158-2.853s-4.808-46.092-8.621-52.34C224.28,325.254,216.443,318.669,177.652,319.166Z" transform="translate(-146.434 -243.524)"/><path class="f" d="M251.96,416.088l.936,2.554,9.775-3.625-.739-2.474Z" transform="translate(-172.223 -275.819)"/><path class="r" d="M251.96,416.088l.936,2.554,9.775-3.625-.739-2.474Z" transform="translate(-172.223 -275.819)"/><path class="s" d="M235.2,330.752c-5.7-6.281-30.678-4.449-38.051-4.488v.059c16.4,1.885,33.622.209,36.7,5.79a34.085,34.085,0,0,1,2.362,7.851c1.007-.1,1.263-.209,2.028-.3C237.125,335,237.348,333.113,235.2,330.752Z" transform="translate(-153.272 -245.911)"/><path class="t" d="M211.12,254.67s4.135-.144,8.93,11.593l5.385,10.573s7.328-4.966,11.351-11.292c0,0,.608-11.155,4.55-10.285a4.939,4.939,0,0,1,3.645,6.752A57.784,57.784,0,0,1,241.271,268s-9.552,16.454-15.735,16.657-12.28-11.809-12.28-11.809L211.332,261.5Z" transform="translate(-158.103 -221.234)"/><path class="o" d="M211.322,254.222s4.31.916,7.681,10.069c0,0,1.263.268,1.171,2.08a13.354,13.354,0,0,1-3.788,12.81s-1.236.072-1.74-1.963l-2.708-4.7-2.375-10.991-.131-4.017.2-3.526Z" transform="translate(-157.519 -220.996)"/><path class="u" d="M211.322,254.222s4.31.916,7.681,10.069c0,0,1.263.268,1.171,2.08a13.354,13.354,0,0,1-3.788,12.81s-1.236.072-1.74-1.963l-2.708-4.7-2.375-10.991-.131-4.017.2-3.526Z" transform="translate(-157.519 -220.996)"/><path class="f" d="M248.48,272.947a11.2,11.2,0,0,1,3.592,2.748l1.177-1.236s-.9-1.963-4.1-2.512Z" transform="translate(-171.02 -227.208)"/><path class="v" d="M248.48,272.947a11.2,11.2,0,0,1,3.592,2.748l1.177-1.236s-.9-1.963-4.1-2.512Z" transform="translate(-171.02 -227.208)"/><path class="f" d="M255.657,276.792a1.361,1.361,0,1,1-2.192-1.4,1.363,1.363,0,1,1,2.192,1.4Z" transform="translate(-172.622 -228.062)"/><path class="o" d="M255.688,276.822a1.06,1.06,0,1,1-.111-1.7,1.236,1.236,0,0,1,.111,1.7Z" transform="translate(-172.909 -228.247)"/><path class="w" d="M212.27,277.73l.655,2.977,2.708,4.7c.5,2.055,1.74,1.963,1.74,1.963a12.888,12.888,0,0,0,2.663-3.448C217.982,280.58,214.226,278.561,212.27,277.73Z" transform="translate(-158.5 -229.207)"/><path class="u" d="M199.62,254.481a11.533,11.533,0,0,0-5.476-3.474l-1.668,4.151-2.669,1.027-2.126-.589-1.891-.916-2.146-3.2-.288-1.9a49.991,49.991,0,0,0-7.943.884c-13.955,2.617-2.067,46.164-2.067,46.164,22.5,4.384,31.358-1.695,31.358-1.695C201.753,286.762,201.845,257.5,199.62,254.481Z" transform="translate(-143.41 -219.475)"/><path class="w" d="M176.735,260.45l-7.6,2.781a46.165,46.165,0,0,0-.393,9.339C179.031,270.872,176.735,260.45,176.735,260.45Z" transform="translate(-143.424 -223.232)"/><path class="o" d="M216.068,214.49s2.342,1.766,1.649,3.572c0,0,1.517,3.926-1.525,3.788C216.192,221.85,212.836,219.048,216.068,214.49Z" transform="translate(-159.328 -207.342)"/><path class="t" d="M198.581,250.478l1.9-1.916,1.446-2.617c-.458-.16-.942-.314-1.459-.452l.438-6.177-7.229-4.226s.229,7.851-1.525,9.428c-.373.334-.354,0-.87,0l.851,3.273,2.7,3.363Z" transform="translate(-151.243 -214.464)"/><path class="f" d="M191.264,249.26s2.008,5.037,5.149,6.111c0,0-1.576,4.534-3.926,2.022s-2.617-8.087-2.617-8.087Z" transform="translate(-150.756 -219.363)"/><path class="v" d="M191.264,249.26s2.008,5.037,5.149,6.111c0,0-1.576,4.534-3.926,2.022s-2.617-8.087-2.617-8.087Z" transform="translate(-150.756 -219.363)"/><path class="f" d="M198.85,256.286a7.194,7.194,0,0,0,4.907-5.136l1.564.655s-.615,6.944-3.082,6.824a4.024,4.024,0,0,1-3.389-2.342Z" transform="translate(-153.86 -220.017)"/><path class="v" d="M198.85,256.286a7.194,7.194,0,0,0,4.907-5.136l1.564.655s-.615,6.944-3.082,6.824a4.024,4.024,0,0,1-3.389-2.342Z" transform="translate(-153.86 -220.017)"/><path class="q" d="M194.87,236s.16,5.633,7,7.577l.223-3.226-7.2-4.351Z" transform="translate(-152.484 -214.779)"/><path class="t" d="M209.394,220.8c.759,6.4-.981,11.868-6.281,12.5s-9.487-3.481-10.246-9.886.9-12.516,6.2-13.144S208.635,214.4,209.394,220.8Z" transform="translate(-151.732 -205.864)"/><path class="o" d="M191.511,220.3a11.777,11.777,0,0,0,1.826-6.066s2.1-.248,2.617-1.38c0,0,6.545,2.748,9.448.517,0,0,5.888-1.845,1.649-5.109,0,0,.844-2.565-2.7-3.782s-5.62-.239-5.62-.239-2.97-2.028-6.314.916c0,0-5.888.615-4.939,4.685,0,0-3.273.958-1.963,4a3.3,3.3,0,0,0,.346,4.22s0,5,3.232,5.2C189.065,223.275,192.021,228.162,191.511,220.3Z" transform="translate(-149.041 -203.565)"/><path class="t" d="M194.336,228.18c.753,1.185.655,2.617-.176,3.121s-2.146,0-2.9-1.171-.655-2.585.176-3.121S193.584,227,194.336,228.18Z" transform="translate(-151.06 -211.597)"/><path class="o" d="M188.02,208.021c.176-.144,0-.445-.184-.3a2.763,2.763,0,0,0-1.177,2.944,2.309,2.309,0,0,0-2.309.039c-.184.125,0,.425.19.3a1.9,1.9,0,0,1,1.877-.065,3.048,3.048,0,0,0-2.061,1.8c-.1.2.209.373.307.17.51-1.007,1.544-2.126,2.577-1.357a2.732,2.732,0,0,0,.248.223.178.178,0,1,0,.239-.262,2.737,2.737,0,0,0-.262-.239C186.443,210.239,186.908,208.918,188.02,208.021Z" transform="translate(-148.821 -204.988)"/><path class="o" d="M207.508,228.767c.065.412.346.713.615.655s.432-.4.366-.811-.346-.718-.655-.655S207.435,228.355,207.508,228.767Z" transform="translate(-156.846 -211.995)"/><path class="o" d="M214.681,228.8c.065.412.34.713.615.655s.432-.4.366-.818-.346-.713-.622-.655S214.613,228.385,214.681,228.8Z" transform="translate(-159.328 -212.005)"/><path class="x" d="M212.46,229.86a15.832,15.832,0,0,0,2.577,3.273,2.421,2.421,0,0,1-1.916.655Z" transform="translate(-158.566 -212.656)"/><path class="o" d="M209.771,238.213a3.566,3.566,0,0,1-2.617-1.038.137.137,0,0,1,0-.17.131.131,0,0,1,.176,0h0a3.416,3.416,0,0,0,2.9.923.125.125,0,0,1,.16.08.118.118,0,0,1-.08.16h-.046a2.4,2.4,0,0,1-.492.045Z" transform="translate(-156.721 -215.114)"/><path class="o" d="M205.981,225.787a.275.275,0,0,1-.1-.059.239.239,0,0,1,.053-.334h0a2.375,2.375,0,0,1,2.218-.3.239.239,0,0,1,.125.314h0a.239.239,0,0,1-.319.131h0a1.891,1.891,0,0,0-1.727.229.229.229,0,0,1-.244.02Z" transform="translate(-156.274 -210.956)"/><path class="o" d="M215.9,225.688a.319.319,0,0,0,.1-.065.239.239,0,0,0-.092-.334h0a2.381,2.381,0,0,0-2.235-.085.239.239,0,0,0-.1.327h0a.248.248,0,0,0,.327.1h0a1.885,1.885,0,0,1,1.74.065A.255.255,0,0,0,215.9,225.688Z" transform="translate(-158.942 -210.964)"/><path class="t" d="M161.355,252.69s-18.587-1.655-30.482,4.377c0,0-1.916,3.815.229,6.883s9.4,15.366,9.4,15.366l1,5.888s-.465,3.507,1.308,4.671,6.189-1.021,6.445-2.918-3.788-9.689-3.788-9.689-4.3-12.555-5.967-15.485c0,0,16.4,1.649,22.146-.111C161.656,261.676,164.856,258.657,161.355,252.69Z" transform="translate(-130.086 -220.477)"/><path class="u" d="M172.115,251.56a46,46,0,0,0-9.159-.046s-.655-.753-2.225.419a20.635,20.635,0,0,1-.131,10.2,3.383,3.383,0,0,0,2.395.16s6.738,1.963,9.912-.19C175.079,260.628,177.48,256.912,172.115,251.56Z" transform="translate(-140.636 -220.061)"/></g></g></g></svg>