<svg xmlns="http://www.w3.org/2000/svg" width="25.023" height="24.341" viewBox="0 0 25.023 24.341"><defs><style>.a{fill:#fff;}.b{fill:#cad7db;}.c{fill:#a4afc1;}.d{fill:#103566;}.e{fill:#df0f1b;}</style></defs><g transform="translate(78.358 -4.881)"><g transform="translate(-75.871 6.313)"><path class="a" d="M-62.671,16.534H-62.8l3.383-2.706a.994.994,0,0,0,.157-1.4.994.994,0,0,0-.774-.374h-9.252a.994.994,0,0,0-.99,1,.994.994,0,0,0,.373.773l3.383,2.706h-.129c-3.445,2.019-6.218,7.767-6.218,11.939,0,2.985,1.492,5.97,4.975,5.97h6.716c3.482,0,4.726-2.985,4.726-5.97C-56.453,24.3-59.229,18.552-62.671,16.534Z" transform="translate(72.869 -12.057)"/></g><g transform="translate(-75.852 6.251)"><path class="b" d="M-70.541,28.932c0-4.278,2.849-10.179,6.381-12.252h.133L-67.5,13.9a1.02,1.02,0,0,1-.16-1.433,1.022,1.022,0,0,1,.794-.383h-2.3a1.02,1.02,0,0,0-1.017,1.023,1.022,1.022,0,0,0,.383.794l3.471,2.777h-.133c-3.531,2.073-6.381,7.974-6.381,12.252,0,3.063,1.532,6.126,5.105,6.126h2.3C-69.006,35.058-70.541,32-70.541,28.932Z" transform="translate(72.838 -12.086)"/></g><g transform="translate(-59.496 5.058)"><g transform="translate(4.05 0.185)"><path class="c" d="M-35.991,9.363l1.408-1.407.7.7-1.407,1.408Z" transform="translate(35.991 -7.956)"/></g><g transform="translate(0.005 4.228)"><path class="c" d="M-42.449,15.818l1.407-1.407.7.7-1.408,1.408Z" transform="translate(42.449 -14.411)"/></g><g transform="translate(0 0)"><path class="c" d="M-42.457,8.364l.7-.7,1.408,1.408-.7.7Z" transform="translate(42.457 -7.661)"/></g><g transform="translate(4.05 4.053)"><path class="c" d="M-35.992,14.835l.7-.7,1.408,1.408-.7.7Z" transform="translate(35.992 -14.132)"/></g></g><g transform="translate(-78.358 4.881)"><path class="c" d="M-75.348,10.363A1.492,1.492,0,0,1-76.839,8.87a1.493,1.493,0,0,1,1.493-1.491A1.492,1.492,0,0,1-73.855,8.87,1.494,1.494,0,0,1-75.348,10.363Zm0-1.99a.5.5,0,0,0-.5.5.5.5,0,0,0,.5.5.5.5,0,0,0,.5-.5A.5.5,0,0,0-75.348,8.373Z" transform="translate(76.839 -7.379)"/></g><path class="d" d="M-68.115,32.3c-3.969,0-5.745-2.975-5.745-5.924a14.549,14.549,0,0,1,4.912-9.977l.218-.188h-1.3V15.085h1.5l-2.046-1.432a1.409,1.409,0,0,1-.615-.974,1.324,1.324,0,0,1,.353-1.069,1.749,1.749,0,0,1,1.294-.547h9.5a1.776,1.776,0,0,1,1.173.428,1.357,1.357,0,0,1,.484,1.029,1.386,1.386,0,0,1-.624,1.133l-2.046,1.432h1.5v1.121h-1.371l.214.188a23.252,23.252,0,0,1,3.735,4.229l-1.121.564c-.489-.594-3.384-4.084-4.814-4.961l-.032-.02h-3.7l-.031.017c-3.144,1.728-5.9,6.47-5.9,10.148,0,2.215,1.169,4.8,4.464,4.8h10.927V32.3Zm-1.431-20.113a.4.4,0,0,0-.267.1.308.308,0,0,0-.108.235.32.32,0,0,0,.142.257l3.3,2.311h3.364l3.3-2.31A.292.292,0,0,0-59.7,12.4a.35.35,0,0,0-.34-.217Z" transform="translate(-2.632 -3.874)"/><g transform="translate(-68.632 16.585)"><path class="a" d="M-44.048,32.233v6.779c0,1.4-2.9,2.542-6.5,2.542s-6.5-1.141-6.5-2.542V32.233c0-1.4,2.915-2.542,6.5-2.542S-44.048,30.832-44.048,32.233Z" transform="translate(57.041 -29.691)"/></g><g transform="translate(-67.592 16.585)"><path class="b" d="M-54.5,39.012V32.233c0-1.231,2.251-2.261,5.227-2.492-.412-.032-.837-.049-1.272-.049-3.581,0-6.5,1.141-6.5,2.542v6.779c0,1.4,2.915,2.542,6.5,2.542.438,0,.861-.018,1.272-.049C-52.247,41.272-54.5,40.246-54.5,39.012Z" transform="translate(57.041 -29.691)"/></g><path class="e" d="M-50.969,41.877c-3.587,0-7.219-1.121-7.219-3.264V31.834c0-2.108,3.631-3.21,7.219-3.21s7.218,1.1,7.218,3.21v6.779C-43.752,40.756-47.383,41.877-50.969,41.877Zm-5.775-3.264c0,.618,2.038,1.82,5.774,1.82s5.775-1.2,5.775-1.82V37.253l-.185.1a12.417,12.417,0,0,1-5.59,1.136,12.413,12.413,0,0,1-5.59-1.136l-.185-.1Zm0-3.389c0,.618,2.038,1.82,5.774,1.82s5.775-1.2,5.775-1.82v-1.36l-.185.1a12.419,12.419,0,0,1-5.59,1.136,12.413,12.413,0,0,1-5.59-1.136l-.185-.1Zm5.775-5.209c-3.736,0-5.774,1.2-5.774,1.82s2.038,1.82,5.774,1.82,5.774-1.2,5.775-1.82S-47.233,30.015-50.969,30.015Z" transform="translate(-11.162 -13.456)"/></g></svg>