<svg xmlns="http://www.w3.org/2000/svg" width="23.333" height="24.5" viewBox="0 0 23.333 24.5"><defs><style>.a{fill:#f3f3f1;}.b{fill:#d5dbe1;}.c{fill:#fff;}.d{fill:#a4afc1;}.e{fill:#ee1d24;}.f{fill:#103566;}</style></defs><g transform="translate(-32.666 -688)"><g transform="translate(22.019 679.827)"><g transform="translate(11.348 8.873)"><g transform="translate(0 2.333)"><path class="a" d="M22.683,25.583v.467a1.866,1.866,0,0,1-1.867,1.867H9.617A1.866,1.866,0,0,1,7.75,26.05V11.117A1.866,1.866,0,0,1,9.617,9.25H22.683Z" transform="translate(-7.75 -9.25)"/></g><g transform="translate(0 2.333)"><path class="b" d="M9.85,25.665V9.25H9.617A1.866,1.866,0,0,0,7.75,11.117V26.05a1.866,1.866,0,0,0,1.867,1.867h2.1A2.086,2.086,0,0,1,9.85,25.665Z" transform="translate(-7.75 -9.25)"/></g><g transform="translate(4.667)"><path class="c" d="M27.217,8.617v12.6a1.866,1.866,0,0,1-1.867,1.867H14.617a1.866,1.866,0,0,1-1.867-1.867V8.617A1.866,1.866,0,0,1,14.617,6.75H25.35A1.866,1.866,0,0,1,27.217,8.617Z" transform="translate(-12.75 -6.75)"/></g><g transform="translate(4.667)"><path class="b" d="M14.85,21.217V8.617A1.866,1.866,0,0,1,16.717,6.75h-2.1A1.866,1.866,0,0,0,12.75,8.617v12.6a1.866,1.866,0,0,0,1.867,1.867h2.1A1.866,1.866,0,0,1,14.85,21.217Z" transform="translate(-12.75 -6.75)"/></g><g transform="translate(19.833 21)"><path class="d" d="M30.4,32.05a1.4,1.4,0,1,1,1.4-1.4A1.4,1.4,0,0,1,30.4,32.05Zm0-1.867a.467.467,0,1,0,.467.467A.467.467,0,0,0,30.4,30.183Z" transform="translate(-29 -29.25)"/></g></g><g transform="translate(10.648 8.173)"><g transform="translate(4.563)"><path class="e" d="M25.3,23.733H14.567A2.569,2.569,0,0,1,12,21.167V8.567A2.569,2.569,0,0,1,14.567,6H25.3a2.569,2.569,0,0,1,2.567,2.567v12.6A2.569,2.569,0,0,1,25.3,23.733ZM14.567,7.4A1.168,1.168,0,0,0,13.4,8.567v12.6a1.168,1.168,0,0,0,1.167,1.167H25.3a1.168,1.168,0,0,0,1.167-1.167V8.567A1.168,1.168,0,0,0,25.3,7.4Z" transform="translate(-12 -6)"/></g><g transform="translate(0 2.333)"><path class="f" d="M20.767,28.567H9.567A2.569,2.569,0,0,1,7,26V11.067A2.569,2.569,0,0,1,9.567,8.5h.467V9.9H9.567A1.168,1.168,0,0,0,8.4,11.067V26a1.168,1.168,0,0,0,1.167,1.167h11.2A1.168,1.168,0,0,0,21.933,26v-.467h1.4V26A2.569,2.569,0,0,1,20.767,28.567Z" transform="translate(-7 -8.5)"/></g><g transform="translate(9.439 6.533)"><path class="e" d="M16.75,13h6.095v1.4H16.75Z" transform="translate(-16.75 -13)"/><path class="e" d="M16.75,16h6.095v1.4H16.75Z" transform="translate(-16.75 -12.591)"/></g></g></g></g></svg>