<svg xmlns="http://www.w3.org/2000/svg" width="60" height="60" viewBox="0 0 60 60"><defs><style>.a{fill:#eaf2f5;}.b{fill:#fff;}.c{fill:#cad7db;}.d{fill:#a4afc1;}.e{fill:#103566;}.f{fill:#df0f1b;}.g{fill:none;}</style></defs><path class="a" d="M23,55.936c9.609-4.362,18.47-2.378,23.1-4.479s13.149-9.179,3.48-30.482S25.41,2.483,20.316,4.794C-3.535,15.618,5.981,63.661,23,55.936Z"/><path class="b" d="M26.284,43.637H14.714a3.316,3.316,0,0,1-3.306-3.306V19.669a3.315,3.315,0,0,1,3.306-3.306H33.723a3.316,3.316,0,0,1,3.306,3.306V43.635Z"/><path class="c" d="M15.127,40.331V19.669a3.315,3.315,0,0,1,3.306-3.306H14.714a3.315,3.315,0,0,0-3.306,3.306V40.331a3.316,3.316,0,0,0,3.306,3.306h3.719A3.316,3.316,0,0,1,15.127,40.331Z"/><path class="b" d="M30.416,14.71v3.307a1.652,1.652,0,0,1-1.652,1.652H19.672a1.652,1.652,0,0,1-1.652-1.652V14.71h2.892a3.306,3.306,0,1,1,6.611-.112c0,.037,0,.075,0,.112Z"/><path class="c" d="M20.667,16.948h1.074a1.635,1.635,0,0,0,1.573-1.041c.44-1.313.9-2.265,3.138-2.265a3.629,3.629,0,0,1,.915.136,3.3,3.3,0,0,0-6.459.932H18.02v3.307a1.652,1.652,0,0,0,1.652,1.652h.995Z"/><path class="b" d="M46.705,48.49H31.487A1.789,1.789,0,0,1,29.7,46.7V27.9a1.79,1.79,0,0,1,1.79-1.79H46.705A1.792,1.792,0,0,1,48.5,27.9V46.7A1.791,1.791,0,0,1,46.705,48.49Z"/><path class="b" d="M33.724,46.7V27.9a1.792,1.792,0,0,1,1.791-1.79H31.487A1.79,1.79,0,0,0,29.7,27.9V46.7a1.79,1.79,0,0,0,1.79,1.788h4.032a1.792,1.792,0,0,1-1.8-1.787Z"/><path class="d" d="M43.212,7.878,44.38,6.709l2.338,2.338-1.169,1.169Z"/><path class="d" d="M49.931,14.6,51.1,13.43l2.338,2.338-1.169,1.169Z"/><path class="d" d="M42.918,15.766l2.338-2.337L46.424,14.6l-2.337,2.338Z"/><path class="d" d="M49.639,9.047,51.977,6.71l1.168,1.168-2.338,2.338Z"/><path class="e" d="M14.714,44.676a4.355,4.355,0,0,1-4.346-4.346V19.669a4.354,4.354,0,0,1,4.346-4.345H16.98V14.71a1.04,1.04,0,0,1,1.04-1.039H20l.041-.146a4.346,4.346,0,0,1,8.362,0l.041.146h1.98a1.041,1.041,0,0,1,1.04,1.039v.614h2.259a4.354,4.354,0,0,1,4.345,4.345v5.264H35.988V19.666A2.275,2.275,0,0,0,33.722,17.4H31.464v.618a2.7,2.7,0,0,1-2.7,2.691h-9.1a2.7,2.7,0,0,1-2.692-2.692V17.4H14.714a2.274,2.274,0,0,0-2.267,2.267V40.33A2.272,2.272,0,0,0,14.714,42.6H28.728v2.079ZM19.06,18.017a.615.615,0,0,0,.611.613h9.093a.614.614,0,0,0,.613-.613V15.75H27.524a1.041,1.041,0,0,1-1.04-1.04,2.266,2.266,0,0,0-2.216-2.31h0a2.291,2.291,0,0,0-2.315,2.217,1.064,1.064,0,0,1-1.039,1.133H19.06Z"/><path class="f" d="M31.486,49.635A2.942,2.942,0,0,1,28.554,46.7V27.9a2.942,2.942,0,0,1,2.932-2.933H46.705A2.942,2.942,0,0,1,49.638,27.9V46.7a2.942,2.942,0,0,1-2.933,2.933H31.486Zm0-22.38a.649.649,0,0,0-.647.648V46.7a.649.649,0,0,0,.647.648H46.705a.65.65,0,0,0,.649-.648V27.9a.65.65,0,0,0-.649-.648Z"/><rect class="f" width="7.66" height="2.285" transform="translate(35.044 34.817)"/><rect class="f" width="7.66" height="2.284" transform="translate(35.044 40.188)"/><path class="d" d="M20.77,52.744a2.293,2.293,0,1,1,2.293-2.294A2.293,2.293,0,0,1,20.77,52.744Zm0-3.058a.764.764,0,1,0,.764.764A.765.765,0,0,0,20.77,49.686Z"/><rect class="g" width="60" height="60"/></svg>