<svg xmlns="http://www.w3.org/2000/svg" width="60" height="60" viewBox="0 0 60 60"><defs><style>.a{fill:#eaf2f5;}.b{fill:#fff;}.c{fill:#d5dbe1;}.d{fill:#a4afc1;}.e{fill:#ee1d24;}.f{fill:#103566;}.g{fill:none;}</style></defs><g transform="translate(0 -0.227)"><path class="a" d="M23,55.936c9.609-4.362,18.47-2.378,23.1-4.479s13.149-9.179,3.48-30.482S25.41,2.483,20.316,4.794C-3.535,15.618,5.981,63.661,23,55.936Z"/><g transform="translate(-7808.047 335.85)"><g transform="translate(7821.375 -326.032)"><g transform="translate(1.03 0)"><g transform="translate(3.508 5.437)"><path class="b" d="M22.565,6.75a2.1,2.1,0,0,0-2.1,2.1,1.407,1.407,0,0,1-1.4,1.4H12.742a1.407,1.407,0,0,1-1.4-1.4,2.1,2.1,0,0,0-2.1-2.1Z" transform="translate(-9.234 -6.75)"/></g><g transform="translate(0 5.437)"><path class="b" d="M27.081,9.556v25.96a2.815,2.815,0,0,1-2.806,2.806H9.54a2.815,2.815,0,0,1-2.806-2.806V9.556A2.815,2.815,0,0,1,9.54,6.75h.7a2.1,2.1,0,0,1,2.1,2.1,1.407,1.407,0,0,0,1.4,1.4h6.315a1.407,1.407,0,0,0,1.4-1.4,2.1,2.1,0,0,1,2.1-2.1h.7A2.815,2.815,0,0,1,27.081,9.556Z" transform="translate(-6.734 -6.75)"/></g><g transform="translate(3.508 5.437)"><path class="b" d="M14.5,8.855a2.1,2.1,0,0,0-2.1-2.1H9.234a2.1,2.1,0,0,1,2.1,2.1,1.407,1.407,0,0,0,1.4,1.4H15.9A1.407,1.407,0,0,1,14.5,8.855Z" transform="translate(-9.234 -6.75)"/></g><g transform="translate(0 5.437)"><path class="c" d="M9.891,35.516V9.556a2.805,2.805,0,0,1,1.5-2.465,2.1,2.1,0,0,0-1.145-.341h-.7A2.815,2.815,0,0,0,6.734,9.556v25.96A2.815,2.815,0,0,0,9.54,38.323H12.7A2.815,2.815,0,0,1,9.891,35.516Z" transform="translate(-6.734 -6.75)"/></g><g transform="translate(26.153)"><g transform="translate(8.069 4.911)"><path class="d" d="M31.122,6.375h2.806v1.4H31.122Z" transform="translate(-31.122 -6.375)"/></g><g transform="translate(0 4.911)"><path class="d" d="M25.372,6.375h2.806v1.4H25.372Z" transform="translate(-25.372 -6.375)"/></g><g transform="translate(4.911)"><path class="d" d="M28.872,2.875h1.4V5.681h-1.4Z" transform="translate(-28.872 -2.875)"/></g><g transform="translate(4.911 8.069)"><path class="d" d="M28.872,8.625h1.4v2.806h-1.4Z" transform="translate(-28.872 -8.625)"/></g></g><g transform="translate(32.086 29.643)"><path class="d" d="M31.7,28.21a2.1,2.1,0,1,1,2.1-2.1,2.107,2.107,0,0,1-2.1,2.1Zm0-2.806a.7.7,0,1,0,.7.7A.7.7,0,0,0,31.7,25.4Z" transform="translate(-29.6 -24)"/></g><g transform="translate(14.05 15.26)"><path class="b" d="M34.287,15.153V17.96H16.747V15.153a1.407,1.407,0,0,1,1.4-1.4H32.884A1.4,1.4,0,0,1,34.287,15.153Z" transform="translate(-16.747 -13.75)"/></g><g transform="translate(14.05 19.47)"><path class="b" d="M34.287,16.75v6.315a1.4,1.4,0,0,1-1.4,1.4H18.15a1.407,1.407,0,0,1-1.4-1.4V16.75Z" transform="translate(-16.747 -16.75)"/></g><g transform="translate(14.05 15.26)"><path class="b" d="M21.307,13.75H18.15a1.407,1.407,0,0,0-1.4,1.4V17.96H19.9V15.153A1.407,1.407,0,0,1,21.307,13.75Z" transform="translate(-16.747 -13.75)"/></g><g transform="translate(14.05 19.47)"><path class="c" d="M19.9,23.065V16.75H16.747v6.315a1.407,1.407,0,0,0,1.4,1.4h3.157A1.407,1.407,0,0,1,19.9,23.065Z" transform="translate(-16.747 -16.75)"/></g></g><g transform="translate(0 4.385)"><g transform="translate(14.032 9.823)"><path class="e" d="M33.189,27.032H18.456A2.458,2.458,0,0,1,16,24.577V15.456A2.458,2.458,0,0,1,18.456,13H33.189a2.458,2.458,0,0,1,2.456,2.456v9.121A2.458,2.458,0,0,1,33.189,27.032ZM18.456,15.1a.351.351,0,0,0-.351.351v9.121a.351.351,0,0,0,.351.351H33.189a.351.351,0,0,0,.351-.351V15.456a.351.351,0,0,0-.351-.351Z" transform="translate(-16 -13)"/></g><g transform="translate(15.085 14.032)"><path class="e" d="M16.75,16H34.29v2.1H16.75Z" transform="translate(-16.75 -16)"/></g><g transform="translate(3.859)"><path class="f" d="M19.274,11.613H12.96A2.458,2.458,0,0,1,10.5,9.157,1.053,1.053,0,0,0,9.452,8.1h-.7V6h.7a3.16,3.16,0,0,1,3.157,3.157.351.351,0,0,0,.351.351h6.315a.351.351,0,0,0,.351-.351A3.16,3.16,0,0,1,22.782,6h.7V8.1h-.7A1.054,1.054,0,0,0,21.73,9.157,2.458,2.458,0,0,1,19.274,11.613Z" transform="translate(-8.75 -6)"/></g><path class="f" d="M24.593,39.677H9.859A3.863,3.863,0,0,1,6,35.818V9.859A3.863,3.863,0,0,1,9.859,6H24.593a3.862,3.862,0,0,1,3.859,3.859v2.1h-2.1v-2.1A1.756,1.756,0,0,0,24.593,8.1H9.859A1.756,1.756,0,0,0,8.1,9.859v25.96a1.756,1.756,0,0,0,1.754,1.754H24.593a1.756,1.756,0,0,0,1.754-1.754v-2.1h2.1v2.1A3.862,3.862,0,0,1,24.593,39.677Z" transform="translate(-6 -6)"/></g></g></g></g><rect class="g" width="60" height="60"/></svg>