<svg xmlns="http://www.w3.org/2000/svg" width="59.89" height="66.49" viewBox="0 0 59.89 66.49">
  <g id="Group_22967" data-name="Group 22967" transform="translate(0)">
    <g id="Layer_2" data-name="Layer 2">
      <g id="Group_22842" data-name="Group 22842">
        <path id="Path_23065" data-name="Path 23065" d="M-31.934,8.687c-13.219.252-22.427-6.428-28.8-6.308s-19.683,4.034-19.134,33.34,18.627,33.266,25.636,33.146C-21.419,68.245-8.52,8.254-31.934,8.687Z" transform="translate(79.881 -2.378)" fill="#eaf2f5"/>
      </g>
    </g>
    <g id="Group_22843" data-name="Group 22843" transform="translate(8.439 11.65)">
      <path id="Path_23066" data-name="Path 23066" d="M-53.275,20.659h-.248l6.5-5.2a1.909,1.909,0,0,0,.3-2.684,1.911,1.911,0,0,0-1.486-.719H-65.987a1.91,1.91,0,0,0-1.9,1.917,1.909,1.909,0,0,0,.717,1.485l6.5,5.2h-.248c-6.62,3.88-11.948,14.924-11.948,22.94,0,5.735,2.867,11.47,9.559,11.47h12.9c6.691,0,9.081-5.735,9.081-11.47C-41.327,35.583-46.66,24.537-53.275,20.659Z" transform="translate(72.869 -12.057)" fill="#fff"/>
    </g>
    <g id="Group_22844" data-name="Group 22844" transform="translate(8.476 11.685)">
      <path id="Path_23067" data-name="Path 23067" d="M-68.425,44.455c0-8.22,5.474-19.559,12.261-23.542h.255l-6.669-5.337a1.96,1.96,0,0,1-.308-2.754,1.963,1.963,0,0,1,1.525-.737h-4.415a1.96,1.96,0,0,0-1.953,1.965,1.963,1.963,0,0,0,.737,1.525l6.67,5.337h-.255C-67.362,24.9-72.838,36.234-72.838,44.455c0,5.885,2.943,11.771,9.809,11.771h4.413C-65.476,56.225-68.425,50.34-68.425,44.455Z" transform="translate(72.838 -12.086)" fill="#cad7db"/>
    </g>
    <g id="Group_22849" data-name="Group 22849" transform="translate(45.042 6.359)">
      <g id="Group_22845" data-name="Group 22845" transform="translate(7.782 0.355)">
        <path id="Path_23068" data-name="Path 23068" d="M-35.991,10.659l2.7-2.7,1.352,1.35-2.7,2.7Z" transform="translate(35.991 -7.956)" fill="#a4afc1"/>
      </g>
      <g id="Group_22846" data-name="Group 22846" transform="translate(0.01 8.124)">
        <path id="Path_23069" data-name="Path 23069" d="M-42.449,17.114l2.7-2.7,1.352,1.35-2.7,2.7Z" transform="translate(42.449 -14.411)" fill="#a4afc1"/>
      </g>
      <g id="Group_22847" data-name="Group 22847">
        <path id="Path_23070" data-name="Path 23070" d="M-42.457,9.013l1.352-1.352,2.7,2.7-1.352,1.352Z" transform="translate(42.457 -7.661)" fill="#a4afc1"/>
      </g>
      <g id="Group_22848" data-name="Group 22848" transform="translate(7.781 7.788)">
        <path id="Path_23071" data-name="Path 23071" d="M-35.992,15.484l1.352-1.352,2.7,2.7-1.352,1.352Z" transform="translate(35.992 -14.132)" fill="#a4afc1"/>
      </g>
    </g>
    <g id="Group_22850" data-name="Group 22850" transform="translate(3.661 6.019)">
      <path id="Path_23072" data-name="Path 23072" d="M-73.973,13.113a2.867,2.867,0,0,1-2.866-2.868,2.868,2.868,0,0,1,2.868-2.866,2.866,2.866,0,0,1,2.866,2.866A2.87,2.87,0,0,1-73.973,13.113Zm0-3.824a.956.956,0,0,0-.956.956.956.956,0,0,0,.956.956.955.955,0,0,0,.956-.956A.962.962,0,0,0-73.973,9.289Z" transform="translate(76.839 -7.379)" fill="#a4afc1"/>
    </g>
    <path id="Path_23271" data-name="Path 23271" d="M-62.821,57.664c-7.626,0-11.039-6.529-11.039-13,0-7.309,3.968-16.519,9.437-21.9l.419-.413h-2.5V19.891h2.883l-3.931-3.144a3.171,3.171,0,0,1-1.182-2.139,3.175,3.175,0,0,1,.679-2.346,3.174,3.174,0,0,1,2.487-1.2h18.245A3.172,3.172,0,0,1-45.068,12a3.165,3.165,0,0,1,.929,2.258,3.17,3.17,0,0,1-1.2,2.488l-3.931,3.144h2.883v2.461H-49.02l.412.412a49.571,49.571,0,0,1,7.177,9.282l-2.154,1.238c-.939-1.3-6.5-8.963-9.251-10.889l-.061-.043H-60l-.059.037C-66.1,26.182-71.4,36.591-71.4,44.663c0,4.862,2.246,10.54,8.578,10.54h20.995v2.461ZM-65.57,13.521a.717.717,0,0,0-.513.219.72.72,0,0,0-.207.516.731.731,0,0,0,.273.563l6.34,5.072h6.463l6.338-5.069A.69.69,0,0,0-46.647,14a.677.677,0,0,0-.652-.477Z" transform="translate(81.106 -0.61)" fill="#103566"/>
    <g id="Group_22851" data-name="Group 22851" transform="translate(27.489 32.873)">
      <path id="Path_23073" data-name="Path 23073" d="M-32.077,34.575V47.6c0,2.691-5.578,4.884-12.482,4.884-6.881,0-12.482-2.193-12.482-4.884V34.575c0-2.691,5.6-4.884,12.482-4.884C-37.656,29.691-32.077,31.884-32.077,34.575Z" transform="translate(57.041 -29.691)" fill="#fff"/>
    </g>
    <g id="Group_22852" data-name="Group 22852" transform="translate(27.489 32.873)">
      <path id="Path_23074" data-name="Path 23074" d="M-52.157,47.6V34.575c0-2.366,4.324-4.344,10.043-4.789-.791-.061-1.608-.1-2.444-.1-6.881,0-12.482,2.193-12.482,4.884V47.6c0,2.691,5.6,4.884,12.482,4.884.842,0,1.654-.035,2.444-.1C-47.83,51.944-52.157,49.971-52.157,47.6Z" transform="translate(57.041 -29.691)" fill="#cad7db"/>
    </g>
    <path id="Path_23272" data-name="Path 23272" d="M-44.318,54.089c-6.893,0-13.87-2.154-13.87-6.272V34.792c0-4.05,6.977-6.168,13.87-6.168s13.869,2.118,13.869,6.168V47.817C-30.45,51.935-37.427,54.089-44.318,54.089Zm-11.1-6.272c0,1.188,3.916,3.5,11.094,3.5s11.1-2.31,11.1-3.5V45.2l-.355.19a23.858,23.858,0,0,1-10.741,2.183,23.85,23.85,0,0,1-10.741-2.183l-.355-.19Zm0-6.512c0,1.187,3.916,3.5,11.094,3.5s11.1-2.31,11.1-3.5V38.692l-.355.189a23.861,23.861,0,0,1-10.741,2.183,23.85,23.85,0,0,1-10.741-2.183l-.355-.19Zm11.1-10.009c-7.178,0-11.094,2.31-11.094,3.5s3.916,3.5,11.094,3.5,11.094-2.31,11.1-3.5S-37.139,31.3-44.318,31.3Z" transform="translate(84.296 2.965)" fill="#df0f1b"/>
  </g>
</svg>
