<svg xmlns="http://www.w3.org/2000/svg" width="46.63" height="46.63" viewBox="0 0 46.63 46.63"><defs><style>.a{fill:#0070e0;}.b,.e{fill:#fff;}.b{font-size:16px;font-family:Roboto-Medium, Roboto;font-weight:500;}.c{fill:#fadbcc;}.d{fill:#d5dbe1;}</style></defs><g transform="translate(0 0)"><g transform="translate(10.728 0.909)"><path class="a" d="M216.451,10.912a1.876,1.876,0,0,0,2.654,0,3.189,3.189,0,0,1,4.51,0,1.876,1.876,0,0,0,2.654,0l.011-.011a.728.728,0,0,1,1.2.754L225.449,17.5h-8.158l-2.042-5.836A.728.728,0,0,1,216.451,10.912Z" transform="translate(-206.332 -9.978)"/><path class="a" d="M143.46,99.3l-6.7-6.7H128.89l-6.7,6.7a15.037,15.037,0,1,0,21.266,0Z" transform="translate(-117.789 -85.077)"/><text class="b" transform="translate(10.272 26.091)"><tspan x="0" y="0">₹</tspan></text></g><path class="c" d="M98,333.3h17.69a13.494,13.494,0,0,0,9.405-3.817l8.918-8.667a2.573,2.573,0,0,0-3.5-3.769l-8.935,7.936a8.223,8.223,0,0,1-5.461,2.075l-9.325-2.838,8.542,2.716a2.587,2.587,0,0,0,1.9-4.8l-6.43-3.08a10.712,10.712,0,0,0-8.32-.395l-4.467,1.64Z" transform="translate(-89.074 -287.578)"/><path class="d" d="M16.315,345.98H11.7a1.7,1.7,0,0,0-1.7,1.7v10.808a1.7,1.7,0,0,0,1.7,1.7h4.615a1.7,1.7,0,0,0,1.7-1.7V347.68A1.7,1.7,0,0,0,16.315,345.98Z" transform="translate(-9.089 -314.469)"/><g transform="translate(0 0)"><path class="e" d="M46.493,30.424a3.482,3.482,0,0,0-4.986-2.107,16.049,16.049,0,0,0-.657-7.741.911.911,0,1,0-1.723.591,14.218,14.218,0,0,1,.029,9.108L31.9,36.721a7.319,7.319,0,0,1-1.461,1.009,3.495,3.495,0,0,0-1.883-3.994l-6.43-3.08a11.688,11.688,0,0,0-9.027-.428l-.654.24a14.067,14.067,0,0,1,3.333-14.693l6.43-6.43h7.118l5.448,5.448A.911.911,0,1,0,36.061,13.5L30.855,8.3l1.882-5.415a1.639,1.639,0,0,0-2.706-1.7l-.011.011a.967.967,0,0,1-1.366,0,4.1,4.1,0,0,0-5.8,0,.966.966,0,0,1-1.366,0,1.639,1.639,0,0,0-2.705,1.7l1.89,5.4-6.187,6.187A15.952,15.952,0,0,0,10.732,31.1L9.3,31.623A2.608,2.608,0,0,0,7.226,30.6H2.611A2.614,2.614,0,0,0,0,33.212V44.019A2.614,2.614,0,0,0,2.611,46.63h24a14.331,14.331,0,0,0,10.04-4.075l8.918-8.667A3.478,3.478,0,0,0,46.493,30.424ZM22.173,3.3a2.769,2.769,0,0,0,1.971-.816,2.281,2.281,0,0,1,3.222,0,2.79,2.79,0,0,0,3.443.4L29.2,7.523H22.333L20.712,2.891a2.77,2.77,0,0,0,1.461.412ZM1.822,44.019V33.212a.79.79,0,0,1,.789-.789H7.225a.79.79,0,0,1,.789.789V44.019a.79.79,0,0,1-.789.789H2.611A.79.79,0,0,1,1.822,44.019ZM44.3,32.582l-8.918,8.667a12.519,12.519,0,0,1-8.77,3.56H9.714a2.6,2.6,0,0,0,.122-.789V33.365l3.888-1.428a9.856,9.856,0,0,1,7.612.361l6.43,3.08a1.676,1.676,0,0,1,.7,2.388,1.674,1.674,0,0,1-1.937.721l-8.542-2.716a.911.911,0,0,0-.552,1.736l8.542,2.716a3.507,3.507,0,0,0,1.064.166c.043,0,.085,0,.128,0a9.123,9.123,0,0,0,5.933-2.3l8.936-7.936a1.669,1.669,0,0,1,1.449-.383,1.662,1.662,0,0,1,.813,2.817Z" transform="translate(0 0)"/><path class="e" d="M409.65,180.811a.911.911,0,1,0-.644-.267A.913.913,0,0,0,409.65,180.811Z" transform="translate(-371.512 -162.687)"/></g></g></svg>