<svg xmlns="http://www.w3.org/2000/svg" width="35" height="22.592" viewBox="0 0 35 22.592"><defs><style>.a{fill:#939393;}</style></defs><path class="a" d="M30.727,22.007v-9.54h1.4l.293-2.166h-1.7V8.838h.585V6.672H24.289V4.858h-.527V1.814a1,1,0,0,0-.7-.936V0h-.585V.878a1,1,0,0,0-.7.936V3.57H13.227V1.814a1,1,0,0,0-.7-.936V0H11.94V.878a1,1,0,0,0-.7.936V4.858h-.527V6.672H3.687V8.838h.585V10.3H2.634l.293,2.166H4.273v9.54H0v.585H35v-.585Zm.878-10.125H24.289v-.995h7.433Zm-18.495,0H11.355v-.995H13.11Zm8.253-3.629H13.7V5.443h7.726V8.253ZM13.7,8.838h1.171V10.3H13.7Zm1.756,0h1.814V10.3H15.452Zm2.341,0h1.873V10.3H17.793Zm2.458,0h1.112V10.3H20.192Zm1.7,2.048H23.7v.995H21.948Zm8.194-.585H24.289V8.838h5.853Zm.585-3.043v.995H24.289V7.258ZM23.7,10.3H21.948V5.443H23.7ZM22.416,4.858V2.809h.819V4.858Zm.41-3.453a.4.4,0,0,1,.41.41v.41h-.819v-.41a.4.4,0,0,1,.41-.41Zm-.995,2.751v.7h-8.6v-.7ZM12.232,1.4a.4.4,0,0,1,.41.41h0v.41h-.819v-.41A.493.493,0,0,1,12.232,1.4Zm-.41,1.4h.819V4.858h-.819Zm-.468,2.634H13.11V10.3H11.355ZM4.331,7.258h6.438v.995H4.331Zm.585,1.58h5.853V10.3H4.916Zm-1.58,2.048h7.433v.995H3.453Zm3.278,6.2H9.6v4.916H9.365V19.08a2.459,2.459,0,0,0-1.112-1.7l-.117-.117-.117.117a2.14,2.14,0,0,0-1.112,1.7v2.926H6.731C6.614,21.07,6.614,18.319,6.614,17.09Zm0-.585a3.566,3.566,0,0,1,1.463-2.283A3.354,3.354,0,0,1,9.54,16.505Zm.761,2.634a1.66,1.66,0,0,1,.7-1.171,1.917,1.917,0,0,1,.7,1.112v2.926h-1.4V19.139Zm2.751,2.868v-5.5a3.867,3.867,0,0,0-1.931-2.868l-.117-.117-.117.117a4.089,4.089,0,0,0-1.931,2.868v5.5H4.858v-9.54h5.853v9.54Zm1.171,0v-9.54h1.756v9.54Zm3.336-5.443A4.4,4.4,0,0,1,17.5,12.876a4.734,4.734,0,0,1,2.868,3.629v5.443H14.632Zm6.321,5.443v-5.5a5.163,5.163,0,0,0-3.336-4.214h-.234a5.074,5.074,0,0,0-3.395,4.214v5.5h-.351V10.886h7.726v11.12Zm.995,0v-9.54H23.7v9.54Zm2.341-9.54h5.853v9.54H29.03v-5.5A3.975,3.975,0,0,0,27.1,13.637l-.117-.117-.176.117a4.089,4.089,0,0,0-1.931,2.868v5.5h-.585Zm1.99,6.672a1.66,1.66,0,0,1,.7-1.171,1.917,1.917,0,0,1,.7,1.112v2.926h-1.4Zm1.99-.059a2.459,2.459,0,0,0-1.112-1.7l-.117-.117-.117.117a2.357,2.357,0,0,0-1.171,1.7v2.926h-.176V17.09h2.985v4.916h-.176Zm-2.751-2.575a3.566,3.566,0,0,1,1.463-2.283,3.168,3.168,0,0,1,1.463,2.283Z"/></svg>