<svg xmlns="http://www.w3.org/2000/svg" width="36.917" height="39.147" viewBox="0 0 36.917 39.147"><defs><style>.a{fill:#0070e0;stroke:#0070e0;stroke-width:0.5px;}</style></defs><g transform="translate(-14.519 0.25)"><g transform="translate(14.769)"><g transform="translate(0)"><path class="a" d="M50.978,10.458,41.133.228A.744.744,0,0,0,40.6,0H25.923a2.981,2.981,0,0,0-2.978,2.977v10.4H17a2.23,2.23,0,0,0-2.228,2.228V26.757A2.23,2.23,0,0,0,17,28.985h5.947v6.69a2.979,2.979,0,0,0,2.978,2.972H48.208a2.978,2.978,0,0,0,2.978-2.97v-24.7A.744.744,0,0,0,50.978,10.458Zm-10.2-8.452,8.082,8.4H40.781ZM17,27.5a.742.742,0,0,1-.742-.741V15.605A.742.742,0,0,1,17,14.864H37.066a.742.742,0,0,1,.742.741V26.757a.742.742,0,0,1-.742.741Zm32.7,8.178a1.49,1.49,0,0,1-1.492,1.484H25.923a1.49,1.49,0,0,1-1.492-1.485v-6.69H37.066a2.23,2.23,0,0,0,2.228-2.228V15.605a2.23,2.23,0,0,0-2.228-2.228H24.431V2.977a1.493,1.493,0,0,1,1.492-1.491H39.295v9.662a.743.743,0,0,0,.743.743H49.7Z" transform="translate(-14.769)"/></g></g><g transform="translate(19.134 18.142)"><path class="a" d="M77.116,241.067a1.674,1.674,0,0,0-.919-.625,7.5,7.5,0,0,0-1.533-.1H72.6v6.384h1.289v-2.408h.84a7.356,7.356,0,0,0,1.337-.091,1.868,1.868,0,0,0,.668-.3,1.751,1.751,0,0,0,.542-.629,2.082,2.082,0,0,0,.213-.988A1.982,1.982,0,0,0,77.116,241.067Zm-1.1,1.757a.846.846,0,0,1-.4.314,3.332,3.332,0,0,1-1.019.1h-.705v-1.812h.623a6.191,6.191,0,0,1,.928.044.891.891,0,0,1,.518.283.825.825,0,0,1,.2.575A.858.858,0,0,1,76.012,242.824Z" transform="translate(-72.596 -240.346)"/></g><g transform="translate(25.078 18.142)"><g transform="translate(0)"><path class="a" d="M156.489,242.09a2.79,2.79,0,0,0-.61-1.034,2.135,2.135,0,0,0-.962-.588,4.6,4.6,0,0,0-1.215-.122h-2.356v6.384h2.426a3.9,3.9,0,0,0,1.141-.135,2.265,2.265,0,0,0,.906-.509,2.815,2.815,0,0,0,.684-1.128,4.2,4.2,0,0,0,.2-1.359A4.712,4.712,0,0,0,156.489,242.09Zm-1.254,2.622a1.351,1.351,0,0,1-.337.616,1.189,1.189,0,0,1-.52.266,3.509,3.509,0,0,1-.779.061h-.962v-4.228h.579a5.84,5.84,0,0,1,1.058.061,1.226,1.226,0,0,1,.6.3,1.461,1.461,0,0,1,.366.618,3.814,3.814,0,0,1,.131,1.137A4.165,4.165,0,0,1,155.235,244.712Z" transform="translate(-151.346 -240.346)"/></g></g><g transform="translate(31.532 18.142)"><path class="a" d="M241.222,241.426v-1.08h-4.376v6.384h1.289v-2.713H240.8v-1.08h-2.665v-1.511Z" transform="translate(-236.846 -240.346)"/></g></g></svg>