<svg xmlns="http://www.w3.org/2000/svg" width="63.798" height="70.726" viewBox="0 0 63.798 70.726"><defs><style>.a{fill:#eaf2f5;}.b{fill:#a4afc1;}.c{fill:#fff;}.d{fill:none;}.e{fill:#d5dbe1;}.f{fill:#df0f1b;}.g{fill:#036;}</style></defs><g transform="translate(-2.29 -0.584)"><path class="a" d="M53.729,7.859C39.684,7.859,30.039.584,23.271.584S2.29,4.474,2.29,35.608s19.121,35.7,26.565,35.7C63.712,71.312,78.6,7.859,53.729,7.859Z" transform="translate(0)"/><g transform="translate(56.017 15.896)"><path class="b" d="M30.75,11.375h4.061v2.03H30.75Z" transform="translate(-26.689 -4.776)"/><path class="b" d="M28.75,13.875h2.03v4.061H28.75Z" transform="translate(-28.75 -2.2)"/><path class="b" d="M28.75,8.125h2.03v4.061H28.75Z" transform="translate(-28.75 -8.125)"/></g><path class="c" d="M34.419,46.345H10.561A4.06,4.06,0,0,1,6.5,42.284V10.811A4.06,4.06,0,0,1,10.561,6.75H34.419a4.06,4.06,0,0,1,4.061,4.061V42.284A4.06,4.06,0,0,1,34.419,46.345Z" transform="translate(4.338 6.354)"/><path class="c" d="M42.131,38.131a1.952,1.952,0,0,1-1.953,1.939H18.7a1.952,1.952,0,0,1-1.953-1.939,1.8,1.8,0,0,1,.292-1.007L27.78,19.68a1.945,1.945,0,0,1,3.318,0L41.835,37.124A1.767,1.767,0,0,1,42.131,38.131Z" transform="translate(14.901 18.72)"/><path class="d" d="M21.319,38.131a1.8,1.8,0,0,1,.292-1.007L31.725,20.7,31.1,19.68a1.945,1.945,0,0,0-3.318,0L17.042,37.124a1.8,1.8,0,0,0-.292,1.007A1.952,1.952,0,0,0,18.7,40.07h4.569a1.952,1.952,0,0,1-1.953-1.939Z" transform="translate(14.901 18.72)"/><path class="e" d="M11.069,42.284V10.811A4.06,4.06,0,0,1,15.13,6.75H10.561A4.06,4.06,0,0,0,6.5,10.811V42.284a4.06,4.06,0,0,0,4.061,4.061H15.13A4.06,4.06,0,0,1,11.069,42.284Z" transform="translate(4.338 6.354)"/><path class="f" d="M40.951,42.366H19.476A3.473,3.473,0,0,1,16,38.906a3.315,3.315,0,0,1,.552-1.86l10.7-17.391a3.47,3.47,0,0,1,5.929.024L43.907,37.1a3.262,3.262,0,0,1,.52,1.809A3.473,3.473,0,0,1,40.951,42.366ZM30.213,21.046a.406.406,0,0,0-.349.181L19.046,38.906a.429.429,0,0,0,.43.414H40.951a.429.429,0,0,0,.43-.414.3.3,0,0,0-.035-.158L30.575,21.253a.405.405,0,0,0-.361-.207Z" transform="translate(14.128 17.947)"/><circle class="f" cx="1.523" cy="1.523" r="1.523" transform="translate(42.819 53.206)"/><path class="g" d="M22.914,48.64H11.584A5.589,5.589,0,0,1,6,43.057V11.584A5.589,5.589,0,0,1,11.584,6H34.935a5.588,5.588,0,0,1,5.584,5.584V25.96H37.473V11.584a2.542,2.542,0,0,0-2.538-2.538H11.584a2.542,2.542,0,0,0-2.538,2.538V43.057a2.542,2.542,0,0,0,2.538,2.538h11.33Z" transform="translate(3.823 5.581)"/><path class="g" d="M9.75,14H29.04v3.046H9.75Z" transform="translate(7.687 13.825)"/><path class="g" d="M9.75,18H20.918v3.046H9.75Z" transform="translate(7.687 17.947)"/><path class="g" d="M9.75,10h9.137v3.046H9.75Z" transform="translate(7.687 9.703)"/><path class="f" d="M22.25,22H25.3v5.584H22.25Z" transform="translate(20.569 22.069)"/></g></svg>