<svg xmlns="http://www.w3.org/2000/svg" width="69.834" height="62.892" viewBox="0 0 69.834 62.892"><defs><style>.a{fill:#eaf2f5;}.b{fill:#fff;}.c{fill:rgba(191,212,240,0.65);}.d{fill:#a4afc1;}.e{fill:#103566;}</style></defs><g transform="translate(-0.134 -1.91)"><g transform="translate(0.134 1.91)"><path class="a" d="M68.089,37.959C60.7,26.641,61.483,15.04,57.92,9.585S43.739-5.275,18.65,11.113s-18.708,34.2-14.787,40.2C22.211,79.4,81.182,58,68.089,37.959Z" transform="translate(-0.134 -1.91)"/></g><g transform="translate(13.064 11.369)"><circle class="b" cx="21.987" cy="21.987" r="21.987"/><path class="c" d="M11.147,28.737A21.987,21.987,0,0,1,30.936,6.861c-.723-.072-1.456-.111-2.2-.111a21.987,21.987,0,1,0,0,43.975c.743,0,1.476-.039,2.2-.111A21.987,21.987,0,0,1,11.147,28.737Z" transform="translate(-6.75 -6.75)"/><g transform="translate(38.6 42.509)"><path class="d" d="M29.432,34.363a2.932,2.932,0,1,1,2.932-2.932A2.935,2.935,0,0,1,29.432,34.363Zm0-3.909a.977.977,0,1,0,.977.977A.978.978,0,0,0,29.432,30.454Z" transform="translate(-26.5 -28.5)"/></g></g><g transform="translate(11.598 9.903)"><path class="e" d="M29.453,52.906A23.453,23.453,0,1,1,52.906,29.453,23.479,23.479,0,0,1,29.453,52.906Zm0-43.975A20.521,20.521,0,1,0,49.975,29.453,20.544,20.544,0,0,0,29.453,8.932Z" transform="translate(-6 -6)"/><g transform="translate(13.867 16.063)"><path class="e" d="M20.483,29.426A1.454,1.454,0,0,1,19.447,29l-6.352-6.352,2.074-2.074,5.316,5.316L32.153,14.219l2.074,2.074L21.522,29a1.47,1.47,0,0,1-1.04.43Z" transform="translate(-13.095 -14.219)"/></g></g></g></svg>