<svg xmlns="http://www.w3.org/2000/svg" width="43.425" height="48.143" viewBox="0 0 43.425 48.143"><defs><style>.a{fill:#eaf2f5;}.b{fill:#fff;}.c{fill:#d4e1f7;}.d{fill:#103566;}.e{fill:#a4afc1;}</style></defs><g transform="translate(-2.29 -0.583)"><path class="a" d="M10.7,43.774c9.56,0,16.125,4.952,20.731,4.952s14.281-2.648,14.281-23.84S32.7.583,27.633.583C3.907.583-6.228,43.774,10.7,43.774Z" transform="translate(0)"/><path class="b" d="M32.512,21.012v2.073c-3.137-1.741-6.15-1.935-8.984,0C23.528,13.922,21.054,6.5,18,6.5A14.534,14.534,0,0,1,32.512,21.012Z" transform="translate(6.003 2.261)"/><path class="c" d="M25.057,23.085a11.774,11.774,0,0,0-11.057,0C14,13.922,16.474,6.5,19.528,6.5S25.057,13.922,25.057,23.085Z" transform="translate(4.474 2.261)"/><path class="b" d="M22.012,6.5c-3.054,0-5.528,7.422-5.528,16.585-2.833-1.935-5.846-1.741-8.984,0V21.012A14.51,14.51,0,0,1,22.012,6.5Z" transform="translate(1.991 2.261)"/><path class="b" d="M26.279,21.869a7.929,7.929,0,0,0-2.75,1.216C23.528,13.922,21.054,6.5,18,6.5a14.288,14.288,0,0,1,4.312.663c2.17,1.893,3.8,7.7,3.967,14.706Z" transform="translate(6.003 2.261)"/><path class="b" d="M22.012,6.5a2.34,2.34,0,0,0-1.52.636A14.529,14.529,0,0,0,10.264,21.012v.954A10.758,10.758,0,0,0,7.5,23.085V21.012A14.51,14.51,0,0,1,22.012,6.5Z" transform="translate(1.991 2.261)"/><path class="c" d="M20.91,7.025c-2.28,1.755-3.98,7.754-4.132,15.023A14.179,14.179,0,0,0,14,23.085C14,13.922,16.474,6.5,19.528,6.5A2.247,2.247,0,0,1,20.91,7.025Z" transform="translate(4.474 2.261)"/><path class="d" d="M27.827,24.408a1.031,1.031,0,0,1-.463-.109,10.682,10.682,0,0,0-10.129,0,1.036,1.036,0,0,1-1.049-.072c-2.358-1.613-4.94-1.6-7.895.05a1.037,1.037,0,0,1-1.541-.905V21.3a15.549,15.549,0,1,1,31.1,0v2.073a1.037,1.037,0,0,1-1.541.905c-2.956-1.645-5.538-1.663-7.895-.05a1.034,1.034,0,0,1-.585.181ZM22.3,20.954a13.088,13.088,0,0,1,5.455,1.234,8.585,8.585,0,0,1,8.02-.464V21.3a13.475,13.475,0,0,0-26.951,0v.426a8.584,8.584,0,0,1,8.02.464A13.088,13.088,0,0,1,22.3,20.954Z" transform="translate(1.704 1.974)"/><path class="d" d="M17.205,35.122a3.459,3.459,0,0,1-3.455-3.455v-.346h2.073v.346a1.382,1.382,0,0,0,2.764,0V17.5H20.66V31.666A3.459,3.459,0,0,1,17.205,35.122Z" transform="translate(4.379 6.464)"/><path class="d" d="M26.38,23.372H24.307c0-9.491-2.661-15.549-4.492-15.549s-4.492,6.058-4.492,15.549H13.25c0-8.757,2.254-17.622,6.565-17.622S26.38,14.615,26.38,23.372Z" transform="translate(4.188 1.974)"/><path class="e" d="M4.908,11.146A2.073,2.073,0,1,1,6.981,9.073,2.076,2.076,0,0,1,4.908,11.146Zm0-2.764a.691.691,0,1,0,.691.691A.692.692,0,0,0,4.908,8.382Z" transform="translate(0.208 2.452)"/></g></svg>