<svg xmlns="http://www.w3.org/2000/svg" width="48.007" height="52.257" viewBox="0 0 48.007 52.257"><defs><style>.a{fill:#eaf2f5;}.b{fill:#a4afc1;}.c{fill:#fff;}.d{fill:#d5dbe1;}.e{fill:#ee1d24;}.f{fill:#103566;}</style></defs><g transform="translate(-186 -469.052)"><g transform="translate(8 241)"><g transform="translate(168 8)"><g transform="translate(0 25.106)"><g transform="translate(10 194.946)"><g transform="translate(0.435 0)"><path class="a" d="M20.242,49.71c10.377,0,17.5,5.375,22.5,5.375s15.5-2.874,15.5-25.877S44.12,2.829,38.62,2.829C12.866,2.829,1.865,49.71,20.242,49.71Z" transform="translate(-11.111 -2.829)"/></g><g transform="translate(37.359 1.99)"><path class="b" d="M0,0H1.5V3H0Z" transform="translate(0 1.061) rotate(-45)"/></g><g transform="translate(43.458 8.09)"><path class="b" d="M0,0H1.5V3H0Z" transform="translate(0 1.061) rotate(-45)"/></g><g transform="translate(43.195 1.991)"><path class="b" d="M0,0H3V1.5H0Z" transform="translate(0 2.121) rotate(-45)"/></g><g transform="translate(7.126 16.003)"><path class="c" d="M63.5,80.085H35.75a3,3,0,0,1-3-3v-22.5H66.5v22.5A3,3,0,0,1,63.5,80.085Z" transform="translate(-32.749 -54.582)"/></g><g transform="translate(7.126 10.752)"><path class="d" d="M66.5,42.852H32.749V40.6a3,3,0,0,1,3-3H63.5a3,3,0,0,1,3,3Z" transform="translate(-32.749 -37.601)"/></g><g transform="translate(7.126 16.003)"><path class="d" d="M36.5,77.085v-22.5H32.749v22.5a3,3,0,0,0,3,3H39.5A3,3,0,0,1,36.5,77.085Z" transform="translate(-32.749 -54.582)"/></g><g transform="translate(7.126 10.752)"><path class="d" d="M39.125,37.6H35.75a3,3,0,0,0-3,3v2.25h3.375V40.6A3,3,0,0,1,39.125,37.6Z" transform="translate(-32.749 -37.601)"/></g><g transform="translate(15.002 30.63)"><path class="e" d="M73.662,109.387H60.78a2.564,2.564,0,0,1-2.559-2.561v-4.94h2.25v4.94a.311.311,0,0,0,.311.311H73.664a.311.311,0,0,0,.311-.311v-4.94h2.249v4.94A2.564,2.564,0,0,1,73.662,109.387Z" transform="translate(-58.221 -101.886)"/></g><g transform="translate(22.878 21.253)"><path class="e" d="M83.692,71.563h2.25V82.439h-2.25Z" transform="translate(-83.692 -71.563)"/></g><g transform="translate(19.041 20.127)"><path class="e" d="M79.713,73.636l-3.468-3.084-3.468,3.083-1.494-1.682L75.5,68.205a1.123,1.123,0,0,1,1.494,0l4.217,3.748Z" transform="translate(-71.281 -67.92)"/></g><g transform="translate(6.001 9.627)"><path class="f" d="M60.99,66.967H33.236a4.129,4.129,0,0,1-4.126-4.126V38.088a4.129,4.129,0,0,1,4.126-4.126H60.99a4.129,4.129,0,0,1,4.126,4.126V62.841A4.129,4.129,0,0,1,60.99,66.967ZM33.236,36.212a1.878,1.878,0,0,0-1.875,1.875V62.841a1.878,1.878,0,0,0,1.875,1.875H60.99a1.878,1.878,0,0,0,1.875-1.875V38.088a1.878,1.878,0,0,0-1.875-1.875Z" transform="translate(-29.11 -33.962)"/></g><g transform="translate(7.126 14.878)"><path class="f" d="M32.749,50.943H66.5v2.25H32.749Z" transform="translate(-32.749 -50.943)"/></g><g transform="translate(0 40.381)"><path class="f" d="M9.7,133.422H57.71v2.25H9.7Z" transform="translate(-9.703 -133.422)"/></g></g></g></g></g></g></svg>