<svg xmlns="http://www.w3.org/2000/svg" width="16" height="16" viewBox="0 0 16 16"><defs><style>.a{fill:#101010;}.b{fill:none;}</style></defs><g transform="translate(0 0.434)"><path class="a" d="M15.23,23a.73.73,0,1,0,.73.73A.73.73,0,0,0,15.23,23Z" transform="translate(-7.446 -11.812)"/><rect class="a" width="1" height="5" transform="translate(7 5.566)"/><path class="a" d="M15.134,16.134H2.486a.486.486,0,0,1-.432-.711L8.379,3.262a.486.486,0,0,1,.863,0l6.324,12.161a.486.486,0,0,1-.432.711ZM3.289,15.161H14.331v0L8.811,4.543h0L3.288,15.16Z" transform="translate(-1.027 -1.541)"/><rect class="b" width="16" height="16" transform="translate(0 -0.434)"/></g></svg>