<svg xmlns="http://www.w3.org/2000/svg" width="53.213" height="48" viewBox="0 0 53.213 48"><defs><style>.a{fill:rgba(255,0,0,0.1);}.b{fill:#a4afc1;}.c{fill:#036;}</style></defs><g transform="translate(-211 -252.001)"><path class="a" d="M6.058,40.991C6.058,30.424.584,23.167.584,18.076S3.511,2.29,26.935,2.29,53.8,16.676,53.8,22.277C53.8,48.5,6.058,59.705,6.058,40.991Z" transform="translate(210.416 249.711)"/><g transform="translate(257.658 253.551)"><path class="b" d="M29.238,8.475a2.238,2.238,0,1,1,2.238-2.238A2.24,2.24,0,0,1,29.238,8.475Zm0-2.983a.746.746,0,1,0,.746.746A.747.747,0,0,0,29.238,5.492Z" transform="translate(-27 -4)"/></g><g transform="translate(215 258.5)"><path class="c" d="M187.193,97.323h6.092a.911.911,0,0,0,0-1.823h-6.092a.911.911,0,1,0,0,1.823Zm0,0" transform="translate(-169.302 -86.341)"/><path class="c" d="M198.754,156.5H187.193a.911.911,0,0,0,0,1.823h11.561a.911.911,0,0,0,0-1.823Zm0,0" transform="translate(-169.302 -141.781)"/><path class="c" d="M198.754,217.5H187.193a.911.911,0,1,0,0,1.823h11.561a.911.911,0,0,0,0-1.823Zm0,0" transform="translate(-169.302 -197.22)"/><path class="c" d="M39.005,5.6H37.554V4.185A3.71,3.71,0,0,0,33.877.5H3.653A3.69,3.69,0,0,0,0,4.185V25.777a3.632,3.632,0,0,0,3.647,3.617H5.1v1.511A3.667,3.667,0,0,0,8.73,34.59H39.005a3.69,3.69,0,0,0,3.653-3.685V9.262A3.666,3.666,0,0,0,39.005,5.6ZM35.731,25.749a1.823,1.823,0,0,1-1.823,1.823H3.646a1.823,1.823,0,0,1-1.823-1.823V4.146A1.823,1.823,0,0,1,3.646,2.323H33.908a1.823,1.823,0,0,1,1.823,1.823Zm5.1,5.157a1.865,1.865,0,0,1-1.83,1.862H8.73a1.842,1.842,0,0,1-1.8-1.862V29.395H33.877a3.652,3.652,0,0,0,3.677-3.617V7.427h1.451a1.841,1.841,0,0,1,1.83,1.835Zm0,0"/><path class="c" d="M67.668,105.323a.912.912,0,0,0,0-1.823H60.481a.912.912,0,0,0,0,1.823h2.057a2.213,2.213,0,0,1,1.97,1.276H60.481a.911.911,0,1,0,0,1.823h4.027a2.213,2.213,0,0,1-1.97,1.276H60.481a.893.893,0,0,0-.626,1.547L65,116.1a.913.913,0,0,0,1.252-1.329l-3.481-3.28a4.056,4.056,0,0,0,3.66-3.067h1.241a.911.911,0,0,0,0-1.823H66.426a3.9,3.9,0,0,0-.538-1.276Zm0,0" transform="translate(-54.139 -93.612)"/></g></g></svg>