<svg xmlns="http://www.w3.org/2000/svg" width="73" height="74.013" viewBox="0 0 73 74.013"><defs><style>.a{fill:rgba(255,0,0,0.1);}.b{fill:#e2a15b;}.c{fill:#c78640;}.d{fill:#ffc431;}.e{fill:#d1e4ff;}.f{fill:#fb6a83;}.g{fill:#6173e8;}</style></defs><g transform="translate(-683 -138.836)"><path class="a" d="M8.093,55.382c0-14.5-7.509-24.451-7.509-31.437S4.6,2.29,36.734,2.29s36.85,19.736,36.85,27.419C73.586,65.687,8.093,81.055,8.093,55.382Z" transform="translate(682.416 144.71)"/><g transform="translate(660.532 121.604)"><path class="b" d="M74.626,198.134l-2.411,2.411-1.681.576L59.188,205l-11.4,3.9L36.5,212.764l-10.086,3.45H24V213.8l2.063-4.951,2.932-7.038,2.932-7.036,3.148-7.553,2.717-6.52,2.932-7.036,1.358-3.259L44.491,168l11.33,11.33,13.017,13.017Z" transform="translate(0 -128.052)"/><g transform="translate(26.063 45.618)"><path class="c" d="M59.411,399.518l-11.287,3.862L37.69,399.468l2.932-7.038Z" transform="translate(-37.69 -364.285)"/><path class="c" d="M115.217,309.495l-11.346,3.881L76.61,303.153l3.148-7.553Z" transform="translate(-70.746 -282.044)"/><path class="c" d="M146.577,224.307,115.53,212.666l2.932-7.036,15.1,5.661Z" transform="translate(-103.802 -205.63)"/></g><path class="d" d="M166.027,44.491l5.04-5.04a3.368,3.368,0,0,0-1.055-5.478l-3.139-1.345A13.259,13.259,0,0,1,161.49,28.4L160,26.411,163.616,24a12.667,12.667,0,0,0,6.534,4.99l1.436.479a7.736,7.736,0,0,1,3.427,12.374l-5.37,6.265Z" transform="translate(-115.509 -5.748)"/><path class="e" d="M305.205,79.232,304,72l7.232,2.411Z" transform="translate(-237.812 -46.516)"/><path class="f" d="M0,0H2.411V4.97H0Z" transform="translate(59.887 20.634) rotate(-75.936)"/><path class="d" d="M0,0H4.346V2.411H0Z" transform="matrix(0.832, -0.555, 0.555, 0.832, 71.545, 19.644)"/><path class="g" d="M0,0H2.411V4.97H0Z" transform="translate(43.325 28.174) rotate(-14.064)"/><path class="g" d="M331.616,250.848l5.04-5.04a3.368,3.368,0,0,1,5.477,1.055L343.479,250a13.259,13.259,0,0,0,4.232,5.384l1.986,1.49,2.411-3.616a12.667,12.667,0,0,1-4.99-6.534l-.479-1.436a7.736,7.736,0,0,0-12.374-3.427L328,247.232Z" transform="translate(-258.196 -189.203)"/><path class="d" d="M416,174.027l7.232,1.205L420.821,168Z" transform="translate(-332.937 -128.052)"/><path class="f" d="M0,0H2.411V4.97H0Z" transform="translate(90.338 51.051) rotate(-14.064)"/><path class="e" d="M0,0H4.346V2.411H0Z" transform="matrix(0.555, -0.832, 0.832, 0.555, 90.518, 39.29)"/><path class="g" d="M0,0H2.411V4.97H0Z" transform="translate(79.176 67.668) rotate(-75.936)"/><path class="f" d="M256,88.107l4.8-5.6a9.448,9.448,0,0,1,6.132-3.244l.137-.015a9.844,9.844,0,0,0,8.537-7.646h0a6.759,6.759,0,0,1,4.82-5.055L289.75,64l1.205,4.821-6.518,1.448a6.785,6.785,0,0,0-5.186,5.315l-.034.174a10.33,10.33,0,0,1-9.108,8.286l-.142.014a10.574,10.574,0,0,0-7.1,3.757c-1.58,1.9-3.253,3.908-3.253,3.908Z" transform="translate(-197.044 -39.722)"/></g></g></svg>