<svg xmlns="http://www.w3.org/2000/svg" width="17.325" height="18.056" viewBox="0 0 17.325 18.056"><defs><style>.a{fill:red;}</style></defs><g transform="translate(-10.359 0.002)"><g transform="translate(10.359 -0.002)"><g transform="translate(0 0)"><path class="a" d="M26.849,9.26a.529.529,0,0,1,0-.468l.673-1.378a1.567,1.567,0,0,0-.676-2.081l-1.355-.719a.529.529,0,0,1-.275-.378l-.265-1.51a1.567,1.567,0,0,0-1.771-1.286l-1.518.215a.529.529,0,0,1-.445-.145L20.116.443a1.567,1.567,0,0,0-2.189,0l-1.1,1.066a.529.529,0,0,1-.445.145l-1.518-.215a1.567,1.567,0,0,0-1.771,1.286l-.265,1.51a.529.529,0,0,1-.275.378L11.2,5.333a1.567,1.567,0,0,0-.676,2.081l.673,1.378a.529.529,0,0,1,0,.468l-.673,1.378a1.567,1.567,0,0,0,.676,2.081l1.355.719a.529.529,0,0,1,.275.378l.265,1.51a1.566,1.566,0,0,0,1.545,1.3,1.61,1.61,0,0,0,.225-.016L16.38,16.4a.529.529,0,0,1,.445.145l1.1,1.066a1.567,1.567,0,0,0,2.189,0l1.1-1.066a.53.53,0,0,1,.445-.145l1.518.215a1.567,1.567,0,0,0,1.771-1.286l.265-1.51a.529.529,0,0,1,.275-.378l1.355-.719a1.567,1.567,0,0,0,.676-2.081Zm-9.91-4.92a1.909,1.909,0,1,1-1.909,1.909A1.911,1.911,0,0,1,16.939,4.34Zm-.985,8.491a.521.521,0,1,1-.736-.736L22.09,5.221a.521.521,0,0,1,.736.736Zm5.151.882A1.909,1.909,0,1,1,23.013,11.8,1.911,1.911,0,0,1,21.1,13.712Z" transform="translate(-10.359 0.002)"/></g></g><g transform="translate(20.236 10.935)"><path class="a" d="M291.32,310.141a.868.868,0,1,0,.868.868A.869.869,0,0,0,291.32,310.141Z" transform="translate(-290.452 -310.141)"/></g><g transform="translate(16.071 5.381)"><path class="a" d="M173.2,152.646a.868.868,0,1,0,.868.868A.869.869,0,0,0,173.2,152.646Z" transform="translate(-172.333 -152.646)"/></g></g></svg>