<svg xmlns="http://www.w3.org/2000/svg" width="14.256" height="16" viewBox="0 0 14.256 16"><defs><style>.a{fill:#036;}</style></defs><path class="a" d="M102.648,401.934h-12.7a.741.741,0,1,0,0,1.482h12.712a.742.742,0,1,0-.008-1.482Zm0,0" transform="translate(-89.172 -387.415)"/><path class="a" d="M123.416,181.513a.807.807,0,0,0,1.143,0l4.586-4.66a.711.711,0,0,0-.039-1.045.811.811,0,0,0-1.1.037l-3.232,3.282v-8.09a.784.784,0,0,0-1.565,0v8.09l-3.224-3.282a.812.812,0,0,0-1.1-.037.711.711,0,0,0-.039,1.045Zm0,0" transform="translate(-116.863 -170.297)"/></svg>