<svg xmlns="http://www.w3.org/2000/svg" width="53.213" height="49.294" viewBox="0 0 53.213 49.294"><defs><style>.a{fill:rgba(255,0,0,0.1);}.b{fill:#a4afc1;}.c{fill:#036;}</style></defs><g transform="translate(-211 -252.001)"><path class="a" d="M6.058,40.991C6.058,30.424.584,23.167.584,18.076S3.511,2.29,26.935,2.29,53.8,16.676,53.8,22.277C53.8,48.5,6.058,59.705,6.058,40.991Z" transform="translate(210.416 249.711)"/><g transform="translate(257.658 253.551)"><path class="b" d="M29.238,8.475a2.238,2.238,0,1,1,2.238-2.238A2.24,2.24,0,0,1,29.238,8.475Zm0-2.983a.746.746,0,1,0,.746.746A.747.747,0,0,0,29.238,5.492Z" transform="translate(-27 -4)"/></g><g transform="translate(222 276.5)"><path class="c" d="M186.931,96.8h4.342a.65.65,0,0,0,0-1.3h-4.342a.65.65,0,1,0,0,1.3Zm0,0" transform="translate(-174.18 -88.829)"/><path class="c" d="M195.17,156.5h-8.239a.65.65,0,0,0,0,1.3h8.239a.65.65,0,0,0,0-1.3Zm0,0" transform="translate(-174.18 -145.866)"/><path class="c" d="M195.17,217.5h-8.239a.65.65,0,1,0,0,1.3h8.239a.65.65,0,0,0,0-1.3Zm0,0" transform="translate(-174.18 -202.904)"/><path class="c" d="M27.8,4.138H26.763V3.126A2.644,2.644,0,0,0,24.143.5H2.6A2.63,2.63,0,0,0,0,3.126V18.514a2.588,2.588,0,0,0,2.6,2.578H3.638v1.077a2.613,2.613,0,0,0,2.584,2.626H27.8a2.63,2.63,0,0,0,2.6-2.626V6.745A2.613,2.613,0,0,0,27.8,4.138ZM25.464,18.494a1.3,1.3,0,0,1-1.3,1.3H2.6a1.3,1.3,0,0,1-1.3-1.3V3.1A1.3,1.3,0,0,1,2.6,1.8H24.165a1.3,1.3,0,0,1,1.3,1.3ZM29.1,22.169A1.329,1.329,0,0,1,27.8,23.5H6.222a1.313,1.313,0,0,1-1.285-1.327V21.092H24.143a2.6,2.6,0,0,0,2.62-2.578V5.437H27.8a1.312,1.312,0,0,1,1.3,1.308Zm0,0" transform="translate(0 0)"/><path class="c" d="M65.341,104.8a.65.65,0,0,0,0-1.3H60.219a.65.65,0,0,0,0,1.3h1.466a1.577,1.577,0,0,1,1.4.909h-2.87a.65.65,0,0,0,0,1.3h2.87a1.577,1.577,0,0,1-1.4.909H60.219a.636.636,0,0,0-.446,1.1l3.663,3.458a.651.651,0,0,0,.892-.947l-2.481-2.337a2.891,2.891,0,0,0,2.609-2.186h.885a.65.65,0,0,0,0-1.3h-.885a2.779,2.779,0,0,0-.384-.909Zm0,0" transform="translate(-55.699 -96.309)"/></g><g transform="translate(194.865 233.83)"><g transform="translate(14.135 16.171)"><g transform="translate(6 3.636)"><g transform="translate(0 0)"><path class="c" d="M45.749-52.846c.992,0,2.451.9,4.216,2.579A40.977,40.977,0,0,1,52.822-47.2c1.042,1.223,3.875,4.787,4.149,5.11a1.645,1.645,0,0,1-.3,2.517,2.055,2.055,0,0,1-2.948-.42q-2.5-2.889-6.056-6.58a.875.875,0,0,0-1.3,1.163,2.014,2.014,0,0,1,.46,1.286,2.024,2.024,0,0,1-1.987,2.026H34.612a6.4,6.4,0,0,1-4.282-1.99q-1.939-2.012-3.1-3.455l3.225-5.307Zm6.648,14a3.8,3.8,0,0,0,5.336.664,3.384,3.384,0,0,0,.57-5.038c-.249-.293-3.082-3.858-4.15-5.111a42.64,42.64,0,0,0-2.982-3.2C49.1-53.507,47.33-54.6,45.749-54.6H31.1c-1.086,0-5.061,8.374-4.8,8.681q1.118,1.332,2.769,3.044a8.118,8.118,0,0,0,5.541,2.525H44.844A3.777,3.777,0,0,0,48.457-43.2Q50.685-40.827,52.4-38.846Z" transform="translate(-19.202 59.779)"/><path class="c" d="M1.749,1.749H5.831V12.828H1.749ZM1.166,14.577H6.414A1.166,1.166,0,0,0,7.58,13.411V1.166A1.166,1.166,0,0,0,6.414,0H1.166A1.166,1.166,0,0,0,0,1.166V13.411A1.166,1.166,0,0,0,1.166,14.577Z" transform="translate(7.289 0) rotate(30)"/></g><path class="c" d="M46.918-43.669a.875.875,0,0,0-.875.875.875.875,0,0,0,.875.875h6.1a3.79,3.79,0,0,0,3.79-3.79,3.79,3.79,0,0,0-3.79-3.79H47.184a.875.875,0,0,0-.875.875.875.875,0,0,0,.875.875h5.831a2.041,2.041,0,0,1,2.041,2.041,2.041,2.041,0,0,1-2.041,2.041Z" transform="translate(-27.438 61.355)"/></g></g></g></g></svg>