<svg xmlns="http://www.w3.org/2000/svg" width="18.006" height="18.006" viewBox="0 0 18.006 18.006"><defs><style>.a{fill:none;}</style></defs><path class="a" d="M0,0H18.006V18.006H0Z"/><path d="M10.252,2A5.248,5.248,0,0,0,5,7.252C5,11.19,10.252,17,10.252,17S15.5,11.19,15.5,7.252A5.248,5.248,0,0,0,10.252,2ZM6.5,7.252a3.751,3.751,0,0,1,7.5,0c0,2.161-2.161,5.394-3.751,7.412C8.691,12.661,6.5,9.39,6.5,7.252Z" transform="translate(-1.249 -0.5)"/><circle cx="1.876" cy="1.876" r="1.876" transform="translate(7.127 4.877)"/></svg>