<svg xmlns="http://www.w3.org/2000/svg" width="53.213" height="48" viewBox="0 0 53.213 48"><defs><style>.a{fill:rgba(255,0,0,0.1);}.b{fill:#036;stroke:#036;stroke-width:0.5px;}.c{fill:#a4afc1;}</style></defs><g transform="translate(-211 -252.001)"><path class="a" d="M6.058,40.991C6.058,30.424.584,23.167.584,18.076S3.511,2.29,26.935,2.29,53.8,16.676,53.8,22.277C53.8,48.5,6.058,59.705,6.058,40.991Z" transform="translate(210.416 249.711)"/><g transform="translate(215 252.395)"><g transform="translate(0 0.243)"><g transform="translate(0 0)"><path class="b" d="M42.664,15.655l-4.8-12.48A4.578,4.578,0,0,0,31.945.55l-.1.041L7.856,10.534a4.557,4.557,0,0,0-2.532,5.831l.66,1.76H4.471A4.476,4.476,0,0,0,0,22.6v16.1a4.476,4.476,0,0,0,4.471,4.471h30.4a4.476,4.476,0,0,0,4.471-4.471V22.6a4.4,4.4,0,0,0-.064-.724l.831-.336A4.6,4.6,0,0,0,42.664,15.655Zm-38.193,3.9h30.4A3.036,3.036,0,0,1,37.9,22.418H1.449A3.036,3.036,0,0,1,4.471,19.556Zm7.19-4.309,4.781-2.391.983,2.459-4.781,2.391ZM37.913,38.692a3.044,3.044,0,0,1-3.04,3.04H4.471a3.044,3.044,0,0,1-3.04-3.04V29.571H37.913Zm0-10.551H1.431V23.848H37.913Zm1.66-7.926-.748.3a4.473,4.473,0,0,0-3.953-2.391H15L18.654,16.3A.715.715,0,0,0,19,15.394L17.481,11.6a.715.715,0,0,0-.93-.4l-.054.025-6.065,3.034a.715.715,0,0,0-.344.906l1.183,2.957H7.511l-.847-2.259A3.132,3.132,0,0,1,8.4,11.861L32.39,1.918a3.143,3.143,0,0,1,4.107,1.7q.016.037.03.075l4.8,12.48A3.158,3.158,0,0,1,39.573,20.215Z" transform="translate(0 -0.243)"/><path class="b" d="M266.016,360.233a4.292,4.292,0,0,0,4.312,0,4.292,4.292,0,1,0,0-7.422,4.292,4.292,0,1,0-4.312,7.422Zm5.508-6.4a2.862,2.862,0,1,1,0,5.374A4.275,4.275,0,0,0,271.524,353.835Zm-1.2.814a2.809,2.809,0,0,1,0,3.746A2.809,2.809,0,0,1,270.328,354.649Zm-2.146-.989a2.831,2.831,0,0,1,.95.175,4.275,4.275,0,0,0,0,5.374,2.856,2.856,0,1,1-.95-5.548Z" transform="translate(-240.284 -320.755)"/><rect class="b" width="1.431" height="7.468" transform="translate(30.756 16.07) rotate(-113.966)"/><rect class="b" width="10.856" height="1.43" transform="matrix(0.908, -0.419, 0.419, 0.908, 25.619, 13.251)"/></g></g></g><g transform="translate(256.404 253.551)"><path class="c" d="M29.238,8.475a2.238,2.238,0,1,1,2.238-2.238A2.24,2.24,0,0,1,29.238,8.475Zm0-2.983a.746.746,0,1,0,.746.746A.747.747,0,0,0,29.238,5.492Z" transform="translate(-27 -4)"/></g></g></svg>