<svg xmlns="http://www.w3.org/2000/svg" width="24" height="24" viewBox="0 0 24 24"><defs><style>.a{fill:#ccc;}</style></defs><g transform="translate(-822 -481)"><circle class="a" cx="12" cy="12" r="12" transform="translate(822 481)"/><path d="M2.324,1.745a.573.573,0,0,0-.4.977L5.941,6.745,1.919,10.768a.573.573,0,1,0,.81.81L6.751,7.555l4.023,4.022a.58.58,0,0,0,.4.168.567.567,0,0,0,.4-.168.576.576,0,0,0,0-.81L7.561,6.745l4.022-4.023a.572.572,0,1,0-.81-.81L6.751,5.935,2.729,1.913a.574.574,0,0,0-.4-.168Z" transform="translate(827.247 486.255)"/></g></svg>