<svg xmlns="http://www.w3.org/2000/svg" width="18" height="18" viewBox="0 0 18 18"><defs><style>.a{fill:red;}</style></defs><g transform="translate(3.36 2.412)"><path class="a" d="M135.659,64.54a.723.723,0,0,0-1.023,0l-8.68,8.658-3.132-3.4a.724.724,0,1,0-1.065.98L125.4,74.73a.723.723,0,0,0,.517.233h.015a.724.724,0,0,0,.511-.211l9.213-9.189A.723.723,0,0,0,135.659,64.54Z" transform="translate(-121.568 -64.327)"/></g><path class="a" d="M17.322,8.322A.678.678,0,0,0,16.643,9,7.643,7.643,0,1,1,9,1.357.678.678,0,1,0,9,0a9,9,0,1,0,9,9A.678.678,0,0,0,17.322,8.322Z"/></svg>