<svg xmlns="http://www.w3.org/2000/svg" width="56.531" height="51.615" viewBox="0 0 56.531 51.615"><defs><style>.a{fill:rgba(255,0,0,0.1);}.b{fill:#a4c2f7;}.c{fill:#e3e7f2;}.d{fill:#036;}</style></defs><path class="a" d="M5.929,40.079C5.929,29.761.584,22.676.584,17.7S3.442,2.29,26.314,2.29,52.543,16.337,52.543,21.806C52.545,47.414,5.929,58.353,5.929,40.079Z" transform="translate(2.178 -1.29)"/><g transform="translate(0 -22.274)"><g transform="translate(0.827 31.968)"><path class="b" d="M297.358,114.051l-2.689-2.4a6.022,6.022,0,0,0-4.014-1.532h-4.776v8.319h-2.6v13.216h21.433v-17.6Z" transform="translate(-252.841 -110.116)"/><path class="c" d="M295.408,195.96c.013-.148.022-.3.022-.446a5,5,0,0,0-.938-2.925L285.561,182.4l-.727.341h-1.558V195.96h12.132Z" transform="translate(-252.841 -174.425)"/><g transform="translate(2.972 0.97)"><path class="c" d="M66,139.7a2.832,2.832,0,0,1-4.62,3.277l-.311-.435a2.831,2.831,0,0,1-4.606,3.293l-.175-.245a2.831,2.831,0,1,1-4.6,3.3l-6.531-9.237a.409.409,0,0,0-.334-.173l-10.391.018V121.652h7.841l.853-.881a6.136,6.136,0,0,1,4.405-1.865h9.063l6.859,7.349,7.859,11.124a2.831,2.831,0,1,1-4.6,3.3Z" transform="translate(-34.426 -118.906)"/></g><g transform="translate(0 2.112)"><path class="b" d="M435.337,130.114v19.519a.858.858,0,0,1-.858.858H427.8a1.076,1.076,0,0,1-1.076-1.076V130.332a1.076,1.076,0,0,1,1.076-1.076h6.677A.858.858,0,0,1,435.337,130.114Z" transform="translate(-380.461 -129.256)"/><path class="c" d="M53.465,168.1a2.824,2.824,0,0,0,3.258,1.016,2.831,2.831,0,0,1-5.042.935l-6.531-9.237a.409.409,0,0,0-.334-.173l-10.391.018V142.822h7.841l.116-.12v13.98a2.012,2.012,0,0,0,2.015,2.012H45.98a1.679,1.679,0,0,1,1.372.713Z" transform="translate(-31.453 -141.218)"/><path class="c" d="M16.218,130.332v19.083a1.076,1.076,0,0,1-1.076,1.076H8.111a.615.615,0,0,1-.615-.615V129.871a.615.615,0,0,1,.615-.615h7.031A1.076,1.076,0,0,1,16.218,130.332Z" transform="translate(-7.496 -129.256)"/><path class="c" d="M15.142,277.028H8.111a.615.615,0,0,1-.615-.615v3.97a.615.615,0,0,0,.615.615h7.031a1.076,1.076,0,0,0,1.076-1.076v-3.97A1.076,1.076,0,0,1,15.142,277.028Z" transform="translate(-7.496 -259.763)"/></g><path class="c" d="M165.5,126.255l-6.859-7.349h-2.9l-5.467,6.393a4.706,4.706,0,0,0,6.521,6.729l4.442-3.566h5.826Z" transform="translate(-133.505 -117.936)"/><path class="b" d="M184.335,110.116h-5.8a2.774,2.774,0,0,0-2.107.97l-6.7,7.829a2.5,2.5,0,0,0,3.463,3.572l4.775-3.834a.994.994,0,0,1,.622-.219h5.739v-8.319Z" transform="translate(-151.298 -110.116)"/></g><g transform="translate(0 22.274)"><path class="d" d="M.828,106.385H8.473a.249.249,0,0,1,.248.248v12.233a.828.828,0,0,0,1.655,0V107.988H11.64a.828.828,0,0,0,.594-.252l.853-.88a5.335,5.335,0,0,1,3.811-1.614h7.266l-5.528,6.462a3.327,3.327,0,0,0,4.611,4.757l4.82-3.87h4.324l4.41,6.243a.828.828,0,0,0,1.352-.955l-3.832-5.425a.827.827,0,0,0-.456-1.518h-6.09a.828.828,0,0,0-.518.182l-5.047,4.053a1.671,1.671,0,0,1-2.317-2.39l6.7-7.828a1.942,1.942,0,0,1,1.478-.681h7.182a.828.828,0,0,0,0-1.655H28.068a3.594,3.594,0,0,0-2.458.97H16.9a7,7,0,0,0-5,2.117l-.609.629h-.939a1.905,1.905,0,0,0-1.878-1.6H.828a.828.828,0,0,0,0,1.655Z" transform="translate(0 -93.751)"/><path class="d" d="M55.7,125.989H48.168a.249.249,0,0,1-.248-.248V106.658a.249.249,0,0,1,.248-.248H55.7a.828.828,0,0,0,0-1.655H48.168a1.9,1.9,0,0,0-1.9,1.823h-.608l-2.454-2.193a6.855,6.855,0,0,0-4.41-1.739.828.828,0,1,0-.038,1.655,5.2,5.2,0,0,1,3.345,1.319l2.69,2.4a.827.827,0,0,0,.551.211h.919v15.944H42.016a3.627,3.627,0,0,0-.661-1.742l-1.166-1.65a.828.828,0,1,0-1.352.955l1.169,1.654a2,2,0,0,1-3.259,2.333l-2.283-3.188a.828.828,0,1,0-1.346.964l1.566,2.188a2,2,0,0,1-3.258,2.333l-1.566-2.188a.828.828,0,1,0-1.346.964l1.253,1.75a2,2,0,0,1-3.259,2.333l-1.253-1.75a.828.828,0,0,0-1.346.964l1.077,1.5a2,2,0,0,1-3.256,2.337L15.2,124.7a1.238,1.238,0,0,0-1.01-.523H10.377v-1.759a.828.828,0,0,0-1.655,0v3.322a.249.249,0,0,1-.248.248H.828a.828.828,0,1,0,0,1.655H8.473a1.9,1.9,0,0,0,1.9-1.812h3.6l6.409,9.065a3.659,3.659,0,0,0,6.585-1.533q.015-.088.025-.176a3.679,3.679,0,0,0,1.15.185,3.651,3.651,0,0,0,3.608-3.1,3.714,3.714,0,0,0,1.312.24,3.655,3.655,0,0,0,3.535-2.756,3.662,3.662,0,0,0,1.18.41,3.71,3.71,0,0,0,.605.05,3.663,3.663,0,0,0,3.424-2.388h4.461a1.9,1.9,0,0,0,1.9,1.812H55.7a.828.828,0,0,0,0-1.655Z" transform="translate(0 -93.775)"/><path class="d" d="M249.454,26.8a.828.828,0,0,0,.828-.828V23.1a.828.828,0,1,0-1.655,0v2.875A.828.828,0,0,0,249.454,26.8Z" transform="translate(-221.188 -22.274)"/><path class="d" d="M326.744,44.624a.827.827,0,0,0,1.089-.428l1.148-2.636a.828.828,0,1,0-1.518-.661l-1.148,2.636A.828.828,0,0,0,326.744,44.624Z" transform="translate(-290.242 -38.401)"/><path class="d" d="M161.817,44.194a.828.828,0,0,0,1.518-.661L162.186,40.9a.828.828,0,0,0-1.518.661Z" transform="translate(-142.876 -38.4)"/><path class="d" d="M249.454,448.926a.828.828,0,0,0-.828.828v2.875a.828.828,0,0,0,1.655,0v-2.875A.828.828,0,0,0,249.454,448.926Z" transform="translate(-221.188 -401.842)"/><path class="d" d="M327.833,433.461a.828.828,0,1,0-1.518.661l1.148,2.636a.828.828,0,1,0,1.518-.661Z" transform="translate(-290.242 -387.641)"/><path class="d" d="M162.906,433.033a.827.827,0,0,0-1.089.428l-1.148,2.636a.828.828,0,1,0,1.518.661l1.148-2.636A.828.828,0,0,0,162.906,433.033Z" transform="translate(-142.877 -387.641)"/></g></g></svg>